<?xml version="1.0" encoding="UTF-8"?> <svg xmlns="http://www.w3.org/2000/svg" width="17" height="16" viewBox="0 0 17 16" fill="none"><path d="M15.3461 0H1.65393C1.0166 0 0.5 0.516602 0.5 1.15393V14.8461C0.5 15.4834 1.0166 16 1.65393 16H15.3461C15.9834 16 16.5 15.4834 16.5 14.8461V1.15393C16.5 0.516602 15.9834 0 15.3461 0ZM6.17529 12.0938H4.22693V6.23206H6.17529V12.0938ZM5.20117 5.43164H5.18848C4.53467 5.43164 4.11182 4.98157 4.11182 4.41907C4.11182 3.84387 4.54761 3.40625 5.21411 3.40625C5.88062 3.40625 6.29077 3.84387 6.30347 4.41907C6.30347 4.98157 5.88062 5.43164 5.20117 5.43164ZM13.2007 12.0938H11.2526V8.95789C11.2526 8.1698 10.9705 7.63232 10.2655 7.63232C9.72729 7.63232 9.40674 7.99487 9.26587 8.34485C9.21436 8.47009 9.20178 8.64514 9.20178 8.82031V12.0938H7.25354C7.25354 12.0938 7.27905 6.78198 7.25354 6.23206H9.20178V7.06201C9.46069 6.6626 9.92395 6.09448 10.9576 6.09448C12.2395 6.09448 13.2007 6.93225 13.2007 8.73267V12.0938Z" fill="black" fill-opacity="0.83"></path></svg> 