<?xml version="1.0" encoding="UTF-8"?> <svg xmlns="http://www.w3.org/2000/svg" width="97" height="96" viewBox="0 0 97 96" fill="none"><g clip-path="url(#clip0_2082_25211)"><path d="M48.0491 96C74.5859 96 96.0982 74.5097 96.0982 48C96.0982 21.4903 74.5859 0 48.0491 0C21.5123 0 0 21.4903 0 48C0 74.5097 21.5123 96 48.0491 96Z" fill="#1A2833"></path><mask id="mask0_2082_25211" style="mask-type:luminance" maskUnits="userSpaceOnUse" x="27" y="17" width="13" height="13"><path d="M39.6119 23.625C39.6119 20.3534 36.9679 17.7012 33.7063 17.7012C30.4448 17.7012 27.8008 20.3534 27.8008 23.625C27.8008 26.8966 30.4448 29.5488 33.7063 29.5488C36.9679 29.5488 39.6119 26.8966 39.6119 23.625Z" fill="white"></path></mask><g mask="url(#mask0_2082_25211)"><path fill-rule="evenodd" clip-rule="evenodd" d="M37.1182 28.4607C38.6272 27.3874 39.6119 25.6215 39.6119 23.625C39.6119 20.3533 36.9679 17.7012 33.7063 17.7012C30.4448 17.7012 27.8008 20.3533 27.8008 23.625C27.8008 25.6814 28.8454 27.4932 30.4315 28.5553C30.2619 28.9168 30.163 29.1465 30.163 29.1465L31.2533 29.7311C31.2533 29.7311 31.3664 29.4901 31.553 29.1426C32.2202 29.4048 32.9465 29.5488 33.7063 29.5488C34.5232 29.5488 35.3012 29.3824 36.0087 29.0817C36.2147 29.4616 36.3411 29.7311 36.3411 29.7311L37.4314 29.1465C37.4314 29.1465 37.3151 28.8762 37.1182 28.4607ZM37.1182 28.4607C36.4629 27.0767 34.9151 24.0806 33.7973 24.0806C32.6531 24.0806 31.0586 27.2189 30.4315 28.5553C30.7809 28.7892 31.1565 28.9867 31.553 29.1426C32.0357 28.2439 33.011 26.6324 33.7973 26.6324C34.566 26.6324 35.5155 28.1731 36.0087 29.0817C36.4021 28.9144 36.7738 28.7056 37.1182 28.4607Z" fill="white"></path></g><path d="M46.0482 18.5664L45.3699 19.2155C44.9086 18.7274 44.3895 18.4831 43.8128 18.4831C43.326 18.4831 42.9155 18.6497 42.5809 18.9829C42.2487 19.3162 42.0827 19.727 42.0827 20.2153C42.0827 20.5553 42.1566 20.8572 42.3042 21.1211C42.4518 21.385 42.6606 21.592 42.9304 21.7424C43.2003 21.8929 43.5002 21.968 43.83 21.968C44.1115 21.968 44.3688 21.9159 44.6018 21.8118C44.8348 21.7054 45.0908 21.5133 45.3699 21.2357L46.0274 21.9229C45.6513 22.2908 45.2961 22.5465 44.9617 22.6901C44.6271 22.8312 44.2453 22.9018 43.8162 22.9018C43.025 22.9018 42.3768 22.6506 41.8716 22.1485C41.3688 21.6441 41.1172 20.9984 41.1172 20.2117C41.1172 19.7026 41.2314 19.2502 41.4599 18.8545C41.6905 18.4589 42.0192 18.1408 42.4459 17.9001C42.875 17.6594 43.3365 17.5391 43.83 17.5391C44.25 17.5391 44.6536 17.6281 45.0412 17.8063C45.4311 17.9845 45.7667 18.2379 46.0482 18.5664Z" fill="white"></path><path d="M49.8411 22.7777L48.4329 19.0256L47.0002 22.7777H45.9727L47.9347 17.6719H48.9173L50.8758 22.7777H49.8411Z" fill="white"></path><path d="M41.3809 24.4375H42.3602V26.1938L43.7409 24.4375H44.907L43.1284 26.7144L45.0799 29.5433H43.9312L42.3602 27.2767V29.5433H41.3809V24.4375Z" fill="white"></path><path d="M49.1968 29.5433L47.7884 25.7912L46.3559 29.5433H45.3281L47.2901 24.4375H48.2728L50.2314 29.5433H49.1968Z" fill="white"></path><path d="M65.23 29.5433L63.8216 25.7912L62.3891 29.5433H61.3613L63.3233 24.4375H64.306L66.2646 29.5433H65.23Z" fill="white"></path><path d="M66.9885 28.5566C67.1385 28.5566 67.2665 28.61 67.3726 28.7162C67.4788 28.8205 67.5318 28.9478 67.5318 29.0981C67.5318 29.2485 67.4788 29.377 67.3726 29.4835C67.2665 29.5899 67.1385 29.6431 66.9885 29.6431C66.8386 29.6431 66.7106 29.5899 66.6044 29.4835C66.4983 29.377 66.4453 29.2485 66.4453 29.0981C66.4453 28.9478 66.4983 28.8205 66.6044 28.7162C66.7106 28.61 66.8386 28.5566 66.9885 28.5566Z" fill="white"></path><path d="M54.2989 22.7753L52.9227 20.7995H52.333V22.7753H51.082V17.7051H53.4232C53.9057 17.7051 54.3168 17.7753 54.6562 17.9156C54.9959 18.0512 55.249 18.2377 55.4159 18.475C55.5886 18.7074 55.675 18.9689 55.675 19.2595C55.675 19.5936 55.5559 19.8964 55.3175 20.1675C55.0792 20.4339 54.7249 20.6179 54.2542 20.7196L55.7464 22.7753H54.2989ZM52.333 20.0367H53.3784C53.7181 20.0367 53.9712 19.9714 54.1381 19.8407C54.3048 19.7051 54.3883 19.5186 54.3883 19.2813C54.3883 19.0489 54.3048 18.8697 54.1381 18.7438C53.9712 18.6129 53.7181 18.5476 53.3784 18.5476H52.333V20.0367Z" fill="white"></path><path d="M57.3447 18.5272V19.7984H59.4447V20.6048H57.3447V21.9486H59.7127V22.7768H56.0938V17.6992H59.7127V18.5272H57.3447Z" fill="white"></path><path d="M61.3722 18.5272V19.7984H63.4721V20.6048H61.3722V21.9486H63.7402V22.7768H60.1211V17.6992H63.7402V18.5272H61.3722Z" fill="white"></path><path d="M67.3518 22.7753L65.9756 20.7995H65.3859V22.7753H64.1348V17.7051H66.4761C66.9585 17.7051 67.3695 17.7753 67.7091 17.9156C68.0486 18.0512 68.3019 18.2377 68.4686 18.475C68.6414 18.7074 68.7278 18.9689 68.7278 19.2595C68.7278 19.5936 68.6086 19.8964 68.3704 20.1675C68.1322 20.4339 67.7777 20.6179 67.3071 20.7196L68.7993 22.7753H67.3518ZM65.3859 20.0367H66.4314C66.7708 20.0367 67.0241 19.9714 67.1908 19.8407C67.3577 19.7051 67.441 19.5186 67.441 19.2813C67.441 19.0489 67.3577 18.8697 67.1908 18.7438C67.0241 18.6129 66.7708 18.5476 66.4314 18.5476H65.3859V20.0367Z" fill="white"></path><path d="M53.7054 29.5424L52.3117 27.5637H51.7143V29.5424H50.4473V24.4648H52.8184C53.3072 24.4648 53.7235 24.5351 54.0675 24.6757C54.4114 24.8115 54.6679 24.9983 54.8368 25.236C55.0118 25.4687 55.0993 25.7305 55.0993 26.0215C55.0993 26.3562 54.9785 26.6592 54.7372 26.9308C54.4959 27.1976 54.1369 27.3819 53.6602 27.4836L55.1717 29.5424H53.7054ZM51.7143 26.7998H52.7732C53.1172 26.7998 53.3736 26.7343 53.5426 26.6035C53.7115 26.4678 53.7959 26.2809 53.7959 26.0433C53.7959 25.8106 53.7115 25.6312 53.5426 25.5051C53.3736 25.3741 53.1172 25.3086 52.7732 25.3086H51.7143V26.7998Z" fill="white"></path><path d="M61.0277 24.377V29.5456H59.9942V26.1837L58.6138 29.5456H57.8314L56.4436 26.1837V29.5456H55.4102V24.377H56.5838L58.2225 28.2202L59.8614 24.377H61.0277Z" fill="white"></path><path d="M19.9812 59.8988H18.249L18.2431 58.7742H19.7197C19.9521 58.7742 20.1421 58.7389 20.2894 58.6681C20.4404 58.5939 20.551 58.486 20.6207 58.3445C20.6943 58.1995 20.7311 58.0245 20.7311 57.8193C20.7311 57.5825 20.6982 57.3933 20.6323 57.2518C20.5664 57.1068 20.4598 57.0006 20.3125 56.9334C20.1652 56.8664 19.9734 56.8327 19.7372 56.8327H18.8302V63.2672H17.1271V55.5436H19.7372C20.1595 55.5436 20.5374 55.5862 20.8707 55.6711C21.2039 55.7559 21.4869 55.8849 21.7194 56.0583C21.9518 56.2315 22.1282 56.4508 22.2483 56.716C22.3723 56.9812 22.4343 57.2943 22.4343 57.655C22.4343 57.9733 22.3646 58.2667 22.225 58.5355C22.0855 58.8042 21.8666 59.0235 21.5682 59.1933C21.2736 59.3631 20.888 59.4585 20.4113 59.4798L19.9812 59.8988ZM19.9231 63.2672H17.7665L18.4467 61.9836H19.9231C20.1479 61.9836 20.33 61.9394 20.4695 61.8509C20.609 61.7624 20.7098 61.644 20.7719 61.4955C20.8338 61.3434 20.8647 61.1702 20.8647 60.9756C20.8647 60.7564 20.8357 60.5654 20.7777 60.4027C20.7234 60.2401 20.6323 60.1162 20.5044 60.0314C20.3765 59.943 20.204 59.8988 19.987 59.8988H18.5222L18.5337 58.7742H20.3125L20.7137 59.2198C21.1671 59.2057 21.5294 59.2852 21.8007 59.4585C22.0719 59.6283 22.2658 59.851 22.382 60.127C22.5022 60.3992 22.5622 60.6892 22.5622 60.9968C22.5622 61.4919 22.4595 61.9093 22.2541 62.2488C22.0525 62.5847 21.7561 62.8394 21.3648 63.0126C20.9733 63.1823 20.4928 63.2672 19.9231 63.2672ZM29.7587 58.8061V60.0951C29.7587 60.6397 29.685 61.1171 29.5377 61.5273C29.3944 61.9341 29.1891 62.2752 28.9216 62.5512C28.6581 62.8234 28.3384 63.0285 27.9625 63.1665C27.5904 63.3043 27.1778 63.3734 26.7244 63.3734C26.2708 63.3734 25.8562 63.3043 25.4803 63.1665C25.1084 63.0285 24.7866 62.8234 24.5153 62.5512C24.248 62.2752 24.0407 61.9341 23.8934 61.5273C23.7461 61.1171 23.6725 60.6397 23.6725 60.0951V58.8061C23.6725 58.2473 23.7442 57.7592 23.8876 57.3419C24.031 56.9212 24.2383 56.5711 24.5096 56.2917C24.7808 56.0088 25.1024 55.7966 25.4745 55.6551C25.8465 55.5101 26.2593 55.4376 26.7127 55.4376C27.1661 55.4376 27.5788 55.5101 27.9508 55.6551C28.3229 55.7966 28.6445 56.0088 28.9158 56.2917C29.187 56.5711 29.3944 56.9212 29.5377 57.3419C29.685 57.7592 29.7587 58.2473 29.7587 58.8061ZM28.0671 60.0951V58.7955C28.0671 58.4277 28.038 58.1147 27.9799 57.8566C27.9219 57.5949 27.8346 57.3809 27.7183 57.2147C27.6021 57.0484 27.4606 56.9265 27.294 56.8487C27.1273 56.7708 26.9336 56.732 26.7127 56.732C26.4917 56.732 26.2962 56.7708 26.1256 56.8487C25.9589 56.9265 25.8174 57.0484 25.7013 57.2147C25.5888 57.3809 25.5036 57.5949 25.4455 57.8566C25.3912 58.1147 25.364 58.4277 25.364 58.7955V60.0951C25.364 60.4487 25.3931 60.751 25.4512 61.0021C25.5094 61.2532 25.5967 61.4584 25.7128 61.6175C25.8292 61.7767 25.9706 61.8951 26.1372 61.9729C26.3077 62.0472 26.5035 62.0843 26.7244 62.0843C26.9414 62.0843 27.1331 62.0472 27.2998 61.9729C27.4703 61.8951 27.6118 61.7767 27.7241 61.6175C27.8365 61.4584 27.9219 61.2532 27.9799 61.0021C28.038 60.751 28.0671 60.4487 28.0671 60.0951ZM36.9435 58.8061V60.0951C36.9435 60.6397 36.8699 61.1171 36.7228 61.5273C36.5792 61.9341 36.3739 62.2752 36.1066 62.5512C35.843 62.8234 35.5232 63.0285 35.1474 63.1665C34.7753 63.3043 34.3627 63.3734 33.9093 63.3734C33.4559 63.3734 33.041 63.3043 32.6652 63.1665C32.2932 63.0285 31.9715 62.8234 31.7002 62.5512C31.4328 62.2752 31.2255 61.9341 31.0783 61.5273C30.931 61.1171 30.8573 60.6397 30.8573 60.0951V58.8061C30.8573 58.2473 30.9291 57.7592 31.0725 57.3419C31.2158 56.9212 31.4232 56.5711 31.6944 56.2917C31.9657 56.0088 32.2873 55.7966 32.6594 55.6551C33.0314 55.5101 33.4441 55.4376 33.8975 55.4376C34.3509 55.4376 34.7637 55.5101 35.1358 55.6551C35.5078 55.7966 35.8294 56.0088 36.1006 56.2917C36.3719 56.5711 36.5792 56.9212 36.7228 57.3419C36.8699 57.7592 36.9435 58.2473 36.9435 58.8061ZM35.252 60.0951V58.7955C35.252 58.4277 35.2229 58.1147 35.1647 57.8566C35.1067 57.5949 35.0195 57.3809 34.9032 57.2147C34.787 57.0484 34.6455 56.9265 34.4788 56.8487C34.3122 56.7708 34.1185 56.732 33.8975 56.732C33.6766 56.732 33.481 56.7708 33.3104 56.8487C33.1438 56.9265 33.0024 57.0484 32.8861 57.2147C32.7737 57.3809 32.6885 57.5949 32.6303 57.8566C32.5761 58.1147 32.549 58.4277 32.549 58.7955V60.0951C32.549 60.4487 32.5779 60.751 32.6361 61.0021C32.6943 61.2532 32.7815 61.4584 32.8977 61.6175C33.014 61.7767 33.1555 61.8951 33.322 61.9729C33.4926 62.0472 33.6883 62.0843 33.9093 62.0843C34.1263 62.0843 34.3181 62.0472 34.4846 61.9729C34.6552 61.8951 34.7967 61.7767 34.9091 61.6175C35.0214 61.4584 35.1067 61.2532 35.1647 61.0021C35.2229 60.751 35.252 60.4487 35.252 60.0951ZM41.065 55.5436V63.2672H39.3735V55.5436H41.065ZM43.1693 55.5436V56.8327H37.3099V55.5436H43.1693ZM48.029 60.6945H49.7205C49.6974 61.2745 49.5695 61.7643 49.3368 62.1639C49.1043 62.56 48.773 62.8606 48.3429 63.0656C47.9166 63.2708 47.4012 63.3734 46.7966 63.3734C46.3277 63.3734 45.9111 63.3026 45.5468 63.1611C45.1825 63.0161 44.8724 62.804 44.6168 62.5246C44.361 62.2453 44.1672 61.9004 44.0355 61.4902C43.9076 61.0765 43.8437 60.6008 43.8437 60.0632V58.753C43.8437 58.2155 43.9114 57.7399 44.0471 57.3261C44.1865 56.9123 44.3842 56.5658 44.64 56.2864C44.8997 56.0035 45.2116 55.7912 45.5759 55.6498C45.9441 55.5048 46.3587 55.4324 46.8199 55.4324C47.4361 55.4324 47.9514 55.5384 48.3661 55.7505C48.7809 55.9628 49.1006 56.2721 49.3253 56.6789C49.554 57.082 49.6914 57.5753 49.738 58.1589H48.0405C48.029 57.7911 47.9825 57.5029 47.9011 57.2943C47.8235 57.082 47.6995 56.9334 47.5291 56.8487C47.3586 56.7602 47.1221 56.716 46.8199 56.716C46.5951 56.716 46.4014 56.7531 46.2386 56.8274C46.0759 56.8982 45.9422 57.0131 45.8374 57.1723C45.7328 57.3314 45.6553 57.54 45.6049 57.7982C45.5585 58.0563 45.5352 58.371 45.5352 58.7424V60.0632C45.5352 60.4274 45.5565 60.7387 45.5992 60.9968C45.6418 61.2515 45.7095 61.4601 45.8026 61.6228C45.8956 61.7854 46.0216 61.904 46.1805 61.9782C46.3432 62.0525 46.5487 62.0896 46.7966 62.0896C47.0834 62.0896 47.314 62.0506 47.4883 61.9729C47.6667 61.8951 47.7984 61.7555 47.8837 61.5538C47.9689 61.3522 48.0174 61.0658 48.029 60.6945ZM53.8478 56.9229L52.0284 63.2672H50.2321L52.877 55.5436H53.999L53.8478 56.9229ZM55.2836 63.2672L53.4526 56.9229L53.2839 55.5436H54.4233L57.0914 63.2672H55.2836ZM55.3475 60.3868V61.6758H51.5284V60.3868H55.3475ZM58.504 55.5436H59.998L61.7244 60.8271L63.4451 55.5436H64.7646L62.358 63.2672H61.0851L58.504 55.5436ZM57.8994 55.5436H59.3236L59.5445 60.6362V63.2672H57.8994V55.5436ZM64.1135 55.5436H65.5435V63.2672H63.9043V60.6362L64.1135 55.5436ZM69.8162 60.546H68.0839V59.2569H69.8162C70.0563 59.2569 70.2521 59.2074 70.4033 59.1084C70.5582 59.0094 70.6707 58.8733 70.7404 58.6999C70.8101 58.5231 70.845 58.3251 70.845 58.1058C70.845 57.8831 70.8082 57.6762 70.7346 57.4852C70.6649 57.2907 70.5543 57.1333 70.4033 57.0131C70.256 56.8928 70.0603 56.8327 69.8162 56.8327H68.6303V63.2672H66.9328V55.5436H69.8162C70.3858 55.5436 70.8761 55.6534 71.2868 55.8727C71.6975 56.0918 72.0115 56.3943 72.2285 56.7796C72.4494 57.1616 72.5598 57.6002 72.5598 58.0953C72.5598 58.5939 72.4494 59.0271 72.2285 59.3949C72.0115 59.7591 71.6975 60.0421 71.2868 60.2437C70.8761 60.4451 70.3858 60.546 69.8162 60.546Z" fill="#FE9F35"></path><path d="M19.9812 59.8988L19.9812 60.054H20.0551L20.1054 60.005L19.9812 59.8988ZM18.249 59.8988L18.079 59.8996L18.0797 60.054H18.2491L18.249 59.8988ZM18.2431 58.7742L18.2431 58.6191H18.0724L18.073 58.775L18.2431 58.7742ZM20.6207 58.3445L20.4663 58.2793L20.4656 58.2809L20.6207 58.3445ZM18.8302 56.8327L18.8302 56.6775H18.6601V56.8327L18.8302 56.8327ZM18.8302 63.2672L18.8302 63.4225H19.0003V63.2673L18.8302 63.2672ZM17.1271 63.2672L16.957 63.2673V63.4225H17.1271L17.1271 63.2672ZM17.1271 55.5436L17.1271 55.3885H16.957V55.5437L17.1271 55.5436ZM22.2483 56.716L22.0912 56.7753L22.0918 56.777L22.2483 56.716ZM20.4113 59.4798L20.4032 59.3248L20.3343 59.3279L20.2874 59.3736L20.4113 59.4798ZM17.7665 63.2672L17.6133 63.1997L17.4953 63.4225H17.7666L17.7665 63.2672ZM18.4467 61.9836L18.4467 61.8284H18.3399L18.2935 61.9159L18.4467 61.9836ZM20.7777 60.4027L20.6149 60.4479L20.616 60.4509L20.7777 60.4027ZM20.5044 60.0314L20.4017 60.1552L20.4044 60.1569L20.5044 60.0314ZM18.5222 59.8988L18.3521 59.8973L18.3504 60.054H18.5222L18.5222 59.8988ZM18.5337 58.7742L18.5338 58.6191H18.3654L18.3637 58.7727L18.5337 58.7742ZM20.3125 58.7742L20.444 58.6757L20.393 58.6191H20.3125L20.3125 58.7742ZM20.7137 59.2198L20.5823 59.3184L20.6355 59.3775L20.7195 59.3749L20.7137 59.2198ZM21.8007 59.4585L21.7032 59.5856L21.7046 59.5866L21.8007 59.4585ZM22.382 60.127L22.2233 60.1827L22.2243 60.1849L22.382 60.127ZM19.9812 59.7436H18.2491V60.054H19.9812V59.7436ZM18.4191 59.8981L18.4132 58.7735L18.073 58.775L18.079 59.8996L18.4191 59.8981ZM18.2431 58.9295H19.7197V58.6191H18.2431V58.9295ZM19.7197 58.9295C19.9695 58.9295 20.1891 58.8916 20.3685 58.8055L20.2102 58.5308C20.095 58.586 19.935 58.6191 19.7197 58.6191V58.9295ZM20.3685 58.8055C20.5522 58.7151 20.6904 58.5812 20.7758 58.4083L20.4656 58.2809C20.4114 58.3909 20.3273 58.4732 20.2086 58.5315L20.3685 58.8055ZM20.775 58.4099C20.8615 58.2395 20.9012 58.041 20.9012 57.8193H20.561C20.561 58.0082 20.527 58.1597 20.4663 58.2793L20.775 58.4099ZM20.9012 57.8193C20.9012 57.5718 20.8672 57.3593 20.7889 57.1911L20.4751 57.3112C20.5285 57.4261 20.561 57.5932 20.561 57.8193H20.9012ZM20.7889 57.1911C20.7081 57.0134 20.5743 56.8794 20.3887 56.7947L20.2365 57.0724C20.3455 57.122 20.4243 57.199 20.4751 57.3112L20.7889 57.1911ZM20.3887 56.7947C20.2098 56.7131 19.9892 56.6775 19.7372 56.6775V56.9879C19.9578 56.9879 20.1209 57.0196 20.2365 57.0724L20.3887 56.7947ZM19.7372 56.6775H18.8302V56.9879H19.7372V56.6775ZM18.6601 56.8327V63.2673H19.0003V56.8327H18.6601ZM18.8302 63.1121H17.1271V63.4225H18.8302V63.1121ZM17.2972 63.2673V55.5437H16.957V63.2673H17.2972ZM17.1271 55.6989H19.7372V55.3885H17.1271V55.6989ZM19.7372 55.6989C20.1474 55.6989 20.5093 55.7401 20.825 55.8205L20.9163 55.5215C20.5653 55.4322 20.1717 55.3885 19.7372 55.3885V55.6989ZM20.825 55.8205C21.1391 55.9005 21.4 56.0206 21.6117 56.1784L21.8269 55.938C21.5736 55.7493 21.2689 55.6113 20.9163 55.5215L20.825 55.8205ZM21.6117 56.1784C21.8214 56.3347 21.9813 56.5327 22.0912 56.7753L22.4055 56.6567C22.2752 56.369 22.0823 56.1284 21.8269 55.938L21.6117 56.1784ZM22.0918 56.777C22.2049 57.0188 22.2643 57.3101 22.2643 57.655H22.6044C22.6044 57.2785 22.5398 56.9439 22.4048 56.6552L22.0918 56.777ZM22.2643 57.655C22.2643 57.9519 22.1993 58.2225 22.0714 58.4691L22.3788 58.602C22.5298 58.311 22.6044 57.9945 22.6044 57.655H22.2643ZM22.0714 58.4691C21.9469 58.7088 21.7512 58.9063 21.4782 59.0615L21.6582 59.3251C21.982 59.1408 22.2242 58.8997 22.3788 58.602L22.0714 58.4691ZM21.4782 59.0615C21.216 59.2125 20.8609 59.3044 20.4032 59.3248L20.4197 59.6348C20.9153 59.6126 21.3313 59.5135 21.6582 59.3251L21.4782 59.0615ZM20.2874 59.3736L19.8571 59.7927L20.1054 60.005L20.5355 59.5858L20.2874 59.3736ZM19.9231 63.1121H17.7666V63.4225H19.9231V63.1121ZM17.9196 63.3348L18.5998 62.0511L18.2935 61.9159L17.6133 63.1997L17.9196 63.3348ZM18.4467 62.1388H19.9231V61.8284H18.4467V62.1388ZM19.9231 62.1388C20.1716 62.1388 20.3906 62.0899 20.5666 61.9783L20.3726 61.7235C20.2693 61.7888 20.1243 61.8284 19.9231 61.8284V62.1388ZM20.5666 61.9783C20.735 61.8717 20.8569 61.7277 20.9308 61.5508L20.6129 61.4403C20.5627 61.5604 20.4831 61.6533 20.3726 61.7235L20.5666 61.9783ZM20.9308 61.5508C21.001 61.3783 21.0348 61.1851 21.0348 60.9756H20.6947C20.6947 61.1553 20.6666 61.3087 20.6129 61.4403L20.9308 61.5508ZM21.0348 60.9756C21.0348 60.7444 21.0044 60.5365 20.9393 60.3546L20.616 60.4509C20.6671 60.5943 20.6947 60.7684 20.6947 60.9756H21.0348ZM20.9403 60.3576C20.8774 60.1686 20.7673 60.014 20.6044 59.906L20.4044 60.1569C20.4972 60.2185 20.5695 60.3117 20.6149 60.4479L20.9403 60.3576ZM20.6071 59.9077C20.4408 59.7927 20.2282 59.7436 19.987 59.7436V60.054C20.1799 60.054 20.3122 60.0935 20.4017 60.1552L20.6071 59.9077ZM19.987 59.7436H18.5222V60.054H19.987V59.7436ZM18.6923 59.9002L18.7038 58.7757L18.3637 58.7727L18.3521 59.8973L18.6923 59.9002ZM18.5338 58.9295H20.3125V58.6191H18.5338V58.9295ZM20.1813 58.8728L20.5823 59.3184L20.845 59.1213L20.444 58.6757L20.1813 58.8728ZM20.7195 59.3749C21.1495 59.3615 21.4716 59.4377 21.7032 59.5856L21.8983 59.3314C21.5874 59.1328 21.1847 59.0499 20.708 59.0646L20.7195 59.3749ZM21.7046 59.5866C21.948 59.7388 22.1196 59.9365 22.2233 60.1827L22.5408 60.0713C22.4119 59.7655 22.1961 59.5178 21.8969 59.3305L21.7046 59.5866ZM22.2243 60.1849C22.3359 60.4378 22.3922 60.708 22.3922 60.9969H22.7323C22.7323 60.6703 22.6684 60.3605 22.5398 60.0689L22.2243 60.1849ZM22.3922 60.9969C22.3922 61.4729 22.2934 61.8627 22.1053 62.1737L22.4031 62.3238C22.6257 61.9558 22.7323 61.5112 22.7323 60.9969H22.3922ZM22.1053 62.1737C21.9214 62.4804 21.6514 62.7132 21.2905 62.873L21.4377 63.1529C21.8597 62.966 22.1838 62.6891 22.4031 62.3238L22.1053 62.1737ZM21.2905 62.873C20.9279 63.0303 20.4751 63.1121 19.9231 63.1121V63.4225C20.5105 63.4225 21.0175 63.3351 21.4377 63.1529L21.2905 62.873ZM24.5153 62.5512L24.388 62.6539L24.3895 62.6555L24.5153 62.5512ZM29.5377 57.3419L29.3755 57.388L29.376 57.3896L29.5377 57.3419ZM25.7013 57.2147L25.5579 57.1312L25.5565 57.1332L25.7013 57.2147ZM25.4455 57.8566L25.2788 57.8257L25.2785 57.8272L25.4455 57.8566ZM26.1372 61.9729L26.0598 62.1112L26.064 62.1131L26.1372 61.9729ZM29.5886 58.8061V60.0952H29.9288V58.8061H29.5886ZM29.5886 60.0952C29.5886 60.6273 29.5167 61.0878 29.3762 61.4791L29.6995 61.5756C29.8536 61.1463 29.9288 60.652 29.9288 60.0952H29.5886ZM29.3762 61.4791C29.2388 61.8686 29.0439 62.191 28.7942 62.4483L29.049 62.6539C29.3344 62.3597 29.5502 61.9994 29.6995 61.5756L29.3762 61.4791ZM28.7942 62.4483C28.5484 62.702 28.2508 62.8934 27.8991 63.0225L28.026 63.3104C28.426 63.1637 28.7677 62.9446 29.049 62.6539L28.7942 62.4483ZM27.8991 63.0225C27.55 63.1519 27.1586 63.2182 26.7244 63.2182V63.5286C27.1969 63.5286 27.6313 63.4568 28.026 63.3104L27.8991 63.0225ZM26.7244 63.2182C26.2901 63.2182 25.8972 63.1521 25.5438 63.0225L25.4164 63.3102C25.8147 63.4564 26.2518 63.5286 26.7244 63.5286V63.2182ZM25.5438 63.0225C25.1955 62.8934 24.8955 62.7019 24.6412 62.4467L24.3895 62.6555C24.678 62.9449 25.0206 63.1636 25.4164 63.3102L25.5438 63.0225ZM24.6428 62.4483C24.3929 62.1905 24.1961 61.8686 24.055 61.4786L23.7318 61.5756C23.8852 61.999 24.1031 62.36 24.388 62.6539L24.6428 62.4483ZM24.055 61.4786C23.9147 61.0873 23.8426 60.6273 23.8426 60.0952H23.5024C23.5024 60.652 23.5778 61.1463 23.7318 61.5756L24.055 61.4786ZM23.8426 60.0952V58.8061H23.5024V60.0952H23.8426ZM23.8426 58.8061C23.8426 58.2588 23.9128 57.7872 24.0499 57.3883L23.7254 57.2955C23.5755 57.7313 23.5024 58.2357 23.5024 58.8061H23.8426ZM24.0499 57.3883C24.1873 56.9848 24.3842 56.6549 24.637 56.3946L24.3824 56.1888C24.0924 56.4873 23.8747 56.8576 23.7254 57.2955L24.0499 57.3883ZM24.637 56.3946C24.8914 56.1292 25.1926 55.9304 25.54 55.7983L25.4091 55.5118C25.0125 55.6627 24.6705 55.8885 24.3824 56.1888L24.637 56.3946ZM25.54 55.7983C25.8885 55.6625 26.2795 55.5929 26.7127 55.5929V55.2825C26.239 55.2825 25.8047 55.3576 25.4091 55.5118L25.54 55.7983ZM26.7127 55.5929C27.1459 55.5929 27.5355 55.6621 27.8842 55.7979L28.0177 55.5125C27.6221 55.3582 27.1863 55.2825 26.7127 55.2825V55.5929ZM27.8842 55.7979C28.2316 55.9299 28.5333 56.1284 28.7879 56.3938L29.0439 56.1894C28.7558 55.8891 28.4143 55.6633 28.0177 55.5125L27.8842 55.7979ZM28.7879 56.3938C29.0405 56.6541 29.2379 56.9845 29.3755 57.388L29.7002 57.2958C29.551 56.8579 29.3337 56.4879 29.0439 56.1894L28.7879 56.3938ZM29.376 57.3896C29.5165 57.788 29.5886 58.2593 29.5886 58.8061H29.9288C29.9288 58.2354 29.8541 57.732 29.7002 57.2958L29.376 57.3896ZM28.2372 60.0952V58.7955H27.8971V60.0952H28.2372ZM28.2372 58.7955C28.2372 58.4209 28.2076 58.0968 28.1466 57.8252L27.8132 57.8873C27.8683 58.1321 27.8971 58.4344 27.8971 58.7955H28.2372ZM28.1466 57.8252C28.0857 57.551 27.9925 57.318 27.8617 57.1312L27.575 57.2982C27.6768 57.4437 27.758 57.6382 27.8132 57.8873L28.1466 57.8252ZM27.8617 57.1312C27.7318 56.9454 27.569 56.8026 27.3716 56.7104L27.2166 56.9868C27.3523 57.0502 27.4724 57.1515 27.575 57.2982L27.8617 57.1312ZM27.3716 56.7104C27.1768 56.6196 26.9557 56.5768 26.7127 56.5768V56.8872C26.9115 56.8872 27.0778 56.9221 27.2166 56.9868L27.3716 56.7104ZM26.7127 56.5768C26.4697 56.5768 26.2472 56.6196 26.0496 56.7098L26.2016 56.9875C26.345 56.922 26.514 56.8872 26.7127 56.8872V56.5768ZM26.0496 56.7098C25.8521 56.802 25.6878 56.9454 25.5579 57.1312L25.8446 57.2982C25.9472 57.1515 26.0659 57.0508 26.2016 56.9875L26.0496 56.7098ZM25.5565 57.1332C25.4305 57.3196 25.3395 57.5522 25.2788 57.8257L25.6122 57.8873C25.6676 57.6374 25.7472 57.4422 25.846 57.2962L25.5565 57.1332ZM25.2785 57.8272C25.2215 58.0981 25.194 58.4213 25.194 58.7955H25.5341C25.5341 58.4339 25.561 58.1313 25.6125 57.8858L25.2785 57.8272ZM25.194 58.7955V60.0952H25.5341V58.7955H25.194ZM25.194 60.0952C25.194 60.4558 25.2235 60.7695 25.2849 61.0343L25.6178 60.9702C25.5627 60.7327 25.5341 60.4417 25.5341 60.0952H25.194ZM25.2849 61.0343C25.346 61.2984 25.4399 61.5234 25.5713 61.7036L25.8543 61.5314C25.7535 61.3932 25.6729 61.2081 25.6178 60.9702L25.2849 61.0343ZM25.5713 61.7036C25.7018 61.8821 25.8642 62.0199 26.0598 62.1112L26.2147 61.8348C26.077 61.7704 25.9566 61.6712 25.8543 61.5314L25.5713 61.7036ZM26.064 62.1131C26.261 62.1987 26.4824 62.2395 26.7244 62.2395V61.9291C26.5246 61.9291 26.3545 61.8956 26.2105 61.8329L26.064 62.1131ZM26.7244 62.2395C26.9629 62.2395 27.1809 62.1986 27.3744 62.1124L27.2251 61.8335C27.0855 61.8958 26.9198 61.9291 26.7244 61.9291V62.2395ZM27.3744 62.1124C27.5744 62.021 27.7398 61.882 27.8671 61.7016L27.5813 61.5334C27.4838 61.6714 27.3659 61.7693 27.2251 61.8335L27.3744 62.1124ZM27.8671 61.7016C27.994 61.522 28.0853 61.2976 28.1464 61.0343L27.8136 60.9702C27.7583 61.2089 27.6792 61.3948 27.5813 61.5334L27.8671 61.7016ZM28.1464 61.0343C28.2076 60.7695 28.2372 60.4558 28.2372 60.0952H27.8971C27.8971 60.4417 27.8685 60.7327 27.8136 60.9702L28.1464 61.0343ZM31.7002 62.5512L31.5728 62.6539L31.5744 62.6555L31.7002 62.5512ZM36.7228 57.3419L36.5604 57.388L36.5609 57.3896L36.7228 57.3419ZM32.8861 57.2147L32.7428 57.1312L32.7414 57.1332L32.8861 57.2147ZM32.6303 57.8566L32.4637 57.8257L32.4633 57.8272L32.6303 57.8566ZM33.322 61.9729L33.2446 62.1112L33.2489 62.1131L33.322 61.9729ZM36.7735 58.8061V60.0952H37.1136V58.8061H36.7735ZM36.7735 60.0952C36.7735 60.6273 36.7015 61.0878 36.561 61.4791L36.8844 61.5756C37.0384 61.1463 37.1136 60.652 37.1136 60.0952H36.7735ZM36.561 61.4791C36.4236 61.8686 36.2287 62.191 35.9792 62.4483L36.234 62.6539C36.5192 62.3597 36.7349 61.9994 36.8844 61.5756L36.561 61.4791ZM35.9792 62.4483C35.7335 62.702 35.4357 62.8934 35.084 63.0225L35.2108 63.3104C35.6109 63.1637 35.9527 62.9446 36.234 62.6539L35.9792 62.4483ZM35.084 63.0225C34.7348 63.1519 34.3435 63.2182 33.9093 63.2182V63.5286C34.3817 63.5286 34.8161 63.4568 35.2108 63.3104L35.084 63.0225ZM33.9093 63.2182C33.4749 63.2182 33.0822 63.1521 32.7286 63.0225L32.6013 63.3102C32.9996 63.4564 33.4367 63.5286 33.9093 63.5286V63.2182ZM32.7286 63.0225C32.3802 62.8934 32.0803 62.7019 31.8261 62.4467L31.5744 62.6555C31.8628 62.9449 32.2055 63.1636 32.6013 63.3102L32.7286 63.0225ZM31.8276 62.4483C31.5778 62.1905 31.381 61.8686 31.2398 61.4786L30.9167 61.5756C31.0699 61.999 31.288 62.36 31.5728 62.6539L31.8276 62.4483ZM31.2398 61.4786C31.0995 61.0873 31.0274 60.6273 31.0274 60.0952H30.6873C30.6873 60.652 30.7626 61.1463 30.9167 61.5756L31.2398 61.4786ZM31.0274 60.0952V58.8061H30.6873V60.0952H31.0274ZM31.0274 58.8061C31.0274 58.2588 31.0977 57.7872 31.2347 57.3883L30.9102 57.2955C30.7604 57.7313 30.6873 58.2357 30.6873 58.8061H31.0274ZM31.2347 57.3883C31.3722 56.9848 31.5691 56.6549 31.8218 56.3946L31.5672 56.1888C31.2773 56.4873 31.0596 56.8576 30.9102 57.2955L31.2347 57.3883ZM31.8218 56.3946C32.0763 56.1292 32.3774 55.9304 32.7249 55.7983L32.5939 55.5118C32.1973 55.6627 31.8552 55.8885 31.5672 56.1888L31.8218 56.3946ZM32.7249 55.7983C33.0734 55.6625 33.4644 55.5929 33.8976 55.5929V55.2825C33.4241 55.2825 32.9895 55.3576 32.5939 55.5118L32.7249 55.7983ZM33.8976 55.5929C34.3309 55.5929 34.7205 55.6621 35.069 55.7979L35.2025 55.5125C34.8069 55.3582 34.3712 55.2825 33.8976 55.2825V55.5929ZM35.069 55.7979C35.4165 55.9299 35.7182 56.1284 35.9728 56.3938L36.2287 56.1894C35.9406 55.8891 35.5991 55.6633 35.2025 55.5125L35.069 55.7979ZM35.9728 56.3938C36.2255 56.6541 36.4228 56.9845 36.5604 57.388L36.885 57.2958C36.7359 56.8579 36.5185 56.4879 36.2287 56.1894L35.9728 56.3938ZM36.5609 57.3896C36.7014 57.788 36.7735 58.2593 36.7735 58.8061H37.1136C37.1136 58.2354 37.0391 57.732 36.885 57.2958L36.5609 57.3896ZM35.4221 60.0952V58.7955H35.0819V60.0952H35.4221ZM35.4221 58.7955C35.4221 58.4209 35.3927 58.0968 35.3314 57.8252L34.9981 57.8873C35.0532 58.1321 35.0819 58.4344 35.0819 58.7955H35.4221ZM35.3314 57.8252C35.2705 57.551 35.1773 57.318 35.0466 57.1312L34.7598 57.2982C34.8617 57.4437 34.9428 57.6382 34.9981 57.8873L35.3314 57.8252ZM35.0466 57.1312C34.9166 56.9454 34.7539 56.8026 34.5564 56.7104L34.4015 56.9868C34.5372 57.0502 34.6573 57.1515 34.7598 57.2982L35.0466 57.1312ZM34.5564 56.7104C34.3618 56.6196 34.1406 56.5768 33.8976 56.5768V56.8872C34.0964 56.8872 34.2627 56.9221 34.4015 56.9868L34.5564 56.7104ZM33.8976 56.5768C33.6545 56.5768 33.4321 56.6196 33.2344 56.7098L33.3865 56.9875C33.53 56.922 33.6989 56.8872 33.8976 56.8872V56.5768ZM33.2344 56.7098C33.037 56.802 32.8727 56.9454 32.7428 57.1312L33.0295 57.2982C33.1321 57.1515 33.2506 57.0508 33.3865 56.9875L33.2344 56.7098ZM32.7414 57.1332C32.6154 57.3196 32.5244 57.5522 32.4637 57.8257L32.797 57.8873C32.8526 57.6374 32.9321 57.4422 33.0309 57.2962L32.7414 57.1332ZM32.4633 57.8272C32.4064 58.0981 32.379 58.4213 32.379 58.7955H32.7191C32.7191 58.4339 32.7458 58.1313 32.7974 57.8858L32.4633 57.8272ZM32.379 58.7955V60.0952H32.7191V58.7955H32.379ZM32.379 60.0952C32.379 60.4558 32.4084 60.7695 32.4698 61.0343L32.8026 60.9702C32.7475 60.7327 32.7191 60.4417 32.7191 60.0952H32.379ZM32.4698 61.0343C32.5309 61.2984 32.6247 61.5234 32.7562 61.7036L33.0392 61.5314C32.9383 61.3932 32.8577 61.2081 32.8026 60.9702L32.4698 61.0343ZM32.7562 61.7036C32.8866 61.8821 33.0491 62.0199 33.2446 62.1112L33.3996 61.8348C33.2618 61.7704 33.1414 61.6712 33.0392 61.5314L32.7562 61.7036ZM33.2489 62.1131C33.4458 62.1987 33.6673 62.2395 33.9093 62.2395V61.9291C33.7094 61.9291 33.5394 61.8956 33.3953 61.8329L33.2489 62.1131ZM33.9093 62.2395C34.1477 62.2395 34.3658 62.1986 34.5593 62.1124L34.4102 61.8335C34.2704 61.8958 34.1047 61.9291 33.9093 61.9291V62.2395ZM34.5593 62.1124C34.7595 62.021 34.9246 61.882 35.052 61.7016L34.7661 61.5334C34.6687 61.6714 34.551 61.7693 34.4102 61.8335L34.5593 62.1124ZM35.052 61.7016C35.1789 61.522 35.2702 61.2976 35.3313 61.0343L34.9984 60.9702C34.9432 61.2089 34.8641 61.3948 34.7661 61.5334L35.052 61.7016ZM35.3313 61.0343C35.3925 60.7695 35.4221 60.4558 35.4221 60.0952H35.0819C35.0819 60.4417 35.0534 60.7327 34.9984 60.9702L35.3313 61.0343ZM41.065 55.5436L41.2351 55.5437V55.3885H41.0651L41.065 55.5436ZM41.065 63.2672L41.0651 63.4225H41.2351V63.2673L41.065 63.2672ZM39.3735 63.2672L39.2035 63.2673V63.4225H39.3735L39.3735 63.2672ZM39.3735 55.5436L39.3735 55.3885H39.2035V55.5437L39.3735 55.5436ZM43.1693 55.5436L43.3394 55.5437V55.3885H43.1694L43.1693 55.5436ZM43.1693 56.8327L43.1694 56.9879H43.3394V56.8327L43.1693 56.8327ZM37.3099 56.8327L37.1398 56.8327V56.9879H37.3099L37.3099 56.8327ZM37.3099 55.5436L37.3099 55.3885H37.1398V55.5437L37.3099 55.5436ZM40.895 55.5437V63.2673H41.2351V55.5437H40.895ZM41.0651 63.1121H39.3735V63.4225H41.0651V63.1121ZM39.5436 63.2673V55.5437H39.2035V63.2673H39.5436ZM39.3735 55.6989H41.0651V55.3885H39.3735V55.6989ZM42.9993 55.5437V56.8327H43.3394V55.5437H42.9993ZM43.1694 56.6775H37.3099V56.9879H43.1694V56.6775ZM37.4799 56.8327V55.5437H37.1398V56.8327H37.4799ZM37.3099 55.6989H43.1694V55.3885H37.3099V55.6989ZM48.029 60.6945L48.029 60.5393H47.8637L47.8589 60.69L48.029 60.6945ZM49.7205 60.6945L49.8906 60.7001L49.8971 60.5393H49.7205L49.7205 60.6945ZM44.0355 61.4902L43.8718 61.5323L43.8723 61.5338L44.0355 61.4902ZM49.3253 56.6789L49.1734 56.7488L49.1743 56.7502L49.3253 56.6789ZM49.738 58.1589L49.7381 58.3141H49.9209L49.9076 58.1476L49.738 58.1589ZM48.0405 58.1589L47.8707 58.1634L47.8754 58.3141H48.0406L48.0405 58.1589ZM47.9011 57.2943L47.7397 57.3433L47.7409 57.3463L47.9011 57.2943ZM47.5291 56.8487L47.4451 56.9836L47.4477 56.9848L47.5291 56.8487ZM46.2386 56.8274L46.3118 56.9676L46.3147 56.9662L46.2386 56.8274ZM45.6049 57.7982L45.4376 57.7709L45.4371 57.7731L45.6049 57.7982ZM46.1805 61.9782L46.1029 62.1163L46.1045 62.1171L46.1805 61.9782ZM48.029 60.8497H49.7205V60.5393H48.029V60.8497ZM49.5506 60.6888C49.528 61.2517 49.4042 61.7173 49.1867 62.0912L49.4869 62.2372C49.7343 61.8118 49.8666 61.2972 49.8906 60.7001L49.5506 60.6888ZM49.1867 62.0912C48.97 62.4602 48.6635 62.7377 48.2642 62.9282L48.4217 63.2032C48.8826 62.9835 49.2384 62.6603 49.4869 62.2372L49.1867 62.0912ZM48.2642 62.9282C47.8679 63.1189 47.3805 63.2182 46.7967 63.2182V63.5286C47.422 63.5286 47.9656 63.4226 48.4217 63.2032L48.2642 62.9282ZM46.7967 63.2182C46.3465 63.2182 45.9531 63.1502 45.6135 63.0183L45.4789 63.3034C45.8677 63.4543 46.3091 63.5286 46.7967 63.5286V63.2182ZM45.6135 63.0183C45.2735 62.883 44.9862 62.686 44.7473 62.4252L44.4862 62.6241C44.7589 62.9219 45.0903 63.1487 45.4789 63.3034L45.6135 63.0183ZM44.7473 62.4252C44.5088 62.1647 44.325 61.8399 44.1986 61.4466L43.8723 61.5338C44.0095 61.9609 44.2131 62.3258 44.4862 62.6241L44.7473 62.4252ZM44.1986 61.4466C44.0758 61.0495 44.0138 60.5899 44.0138 60.0632H43.6736C43.6736 60.6117 43.7388 61.1019 43.8718 61.5323L44.1986 61.4466ZM44.0138 60.0632V58.753H43.6736V60.0632H44.0138ZM44.0138 58.753C44.0138 58.227 44.0801 57.7669 44.21 57.3705L43.8845 57.2805C43.7432 57.7118 43.6736 58.2039 43.6736 58.753H44.0138ZM44.21 57.3705C44.344 56.9727 44.5318 56.6467 44.7706 56.3859L44.5097 56.1866C44.2369 56.4846 44.0294 56.8506 43.8845 57.2805L44.21 57.3705ZM44.7706 56.3859C45.0135 56.1213 45.3034 55.9242 45.6425 55.7926L45.5094 55.507C45.1197 55.6582 44.7861 55.8854 44.5097 56.1866L44.7706 56.3859ZM45.6425 55.7926C45.9866 55.6571 46.3784 55.5876 46.82 55.5876V55.2772C46.339 55.2772 45.9017 55.3525 45.5094 55.507L45.6425 55.7926ZM46.82 55.5876C47.4154 55.5876 47.9001 55.69 48.2829 55.886L48.4494 55.6152C48.0028 55.3867 47.4569 55.2772 46.82 55.2772V55.5876ZM48.2829 55.886C48.6666 56.0822 48.9632 56.3682 49.1734 56.7488L49.4772 56.6091C49.2379 56.1762 48.895 55.8433 48.4494 55.6152L48.2829 55.886ZM49.1743 56.7502C49.3897 57.1301 49.5231 57.6017 49.5685 58.1701L49.9076 58.1476C49.86 57.549 49.7182 57.0339 49.4763 56.6075L49.1743 56.7502ZM49.7381 58.0037H48.0406V58.3141H49.7381V58.0037ZM48.2106 58.1544C48.1987 57.7796 48.1513 57.4729 48.0613 57.2421L47.7409 57.3463C47.8137 57.5328 47.8593 57.8026 47.8707 58.1634L48.2106 58.1544ZM48.0625 57.2451C47.9751 57.0059 47.828 56.8206 47.6105 56.7125L47.4477 56.9848C47.5712 57.0464 47.6722 57.1582 47.7397 57.3433L48.0625 57.2451ZM47.6132 56.7137C47.4067 56.6068 47.137 56.5608 46.82 56.5608V56.8712C47.1074 56.8712 47.3104 56.9137 47.4451 56.9836L47.6132 56.7137ZM46.82 56.5608C46.5749 56.5608 46.3538 56.6013 46.1626 56.6886L46.3147 56.9662C46.4489 56.9051 46.6155 56.8712 46.82 56.8712V56.5608ZM46.1655 56.6873C45.9687 56.7728 45.8113 56.9105 45.6917 57.0924L45.9834 57.2521C46.073 57.1157 46.1829 57.0235 46.3118 56.9676L46.1655 56.6873ZM45.6917 57.0924C45.573 57.2729 45.4902 57.5013 45.4376 57.7709L45.7725 57.8254C45.8206 57.5788 45.8927 57.3899 45.9834 57.2521L45.6917 57.0924ZM45.4371 57.7731C45.3886 58.0422 45.3652 58.3658 45.3652 58.7424H45.7053C45.7053 58.3763 45.7283 58.0706 45.7728 57.8234L45.4371 57.7731ZM45.3652 58.7424V60.0632H45.7053V58.7424H45.3652ZM45.3652 60.0632C45.3652 60.4324 45.3868 60.7518 45.431 61.02L45.7674 60.9737C45.7264 60.7256 45.7053 60.4225 45.7053 60.0632H45.3652ZM45.431 61.02C45.4755 61.2852 45.5475 61.5121 45.6519 61.6946L45.9534 61.5511C45.8718 61.4083 45.8084 61.2177 45.7674 60.9737L45.431 61.02ZM45.6519 61.6946C45.759 61.8821 45.9089 62.0257 46.1029 62.1163L46.258 61.84C46.1344 61.7823 46.0322 61.6889 45.9534 61.5511L45.6519 61.6946ZM46.1045 62.1171C46.2978 62.2052 46.5313 62.2448 46.7967 62.2448V61.9344C46.5659 61.9344 46.3902 61.9004 46.258 61.84L46.1045 62.1171ZM46.7967 62.2448C47.098 62.2448 47.357 62.2043 47.5632 62.1124L47.415 61.8329C47.2723 61.8965 47.0689 61.9344 46.7967 61.9344V62.2448ZM47.5632 62.1124C47.788 62.0143 47.9448 61.8405 48.0423 61.6097L47.7251 61.498C47.6521 61.6704 47.5467 61.7755 47.415 61.8329L47.5632 62.1124ZM48.0423 61.6097C48.1378 61.3841 48.1872 61.0771 48.1991 60.6989L47.8589 60.69C47.8475 61.0546 47.8001 61.3206 47.7251 61.498L48.0423 61.6097ZM53.8478 56.9229L54.0123 56.9622L54.0157 56.9505L54.0171 56.9384L53.8478 56.9229ZM52.0284 63.2672L52.0284 63.4225H52.1597L52.1929 63.3065L52.0284 63.2672ZM50.2321 63.2672L50.0699 63.221L50.0008 63.4225H50.2321L50.2321 63.2672ZM52.877 55.5436L52.8771 55.3885H52.7521L52.7146 55.4974L52.877 55.5436ZM53.999 55.5436L54.1683 55.5592L54.187 55.3885H53.999L53.999 55.5436ZM55.2836 63.2672L55.1191 63.3068L55.1526 63.4225H55.2836L55.2836 63.2672ZM53.4526 56.9229L53.2835 56.9401L53.2849 56.9515L53.2881 56.9625L53.4526 56.9229ZM53.2839 55.5436L53.2839 55.3885H53.0939L53.115 55.5609L53.2839 55.5436ZM54.4233 55.5436L54.5854 55.4971L54.548 55.3885H54.4234L54.4233 55.5436ZM57.0914 63.2672L57.0914 63.4225H57.3234L57.2537 63.2205L57.0914 63.2672ZM55.3475 60.3868L55.5176 60.3868V60.2316H55.3475L55.3475 60.3868ZM55.3475 61.6758L55.3475 61.831H55.5176V61.6759L55.3475 61.6758ZM51.5284 61.6758L51.3583 61.6759V61.831H51.5284L51.5284 61.6758ZM51.5284 60.3868L51.5284 60.2316H51.3583V60.3868L51.5284 60.3868ZM53.6834 56.8836L51.8638 63.228L52.1929 63.3065L54.0123 56.9622L53.6834 56.8836ZM52.0284 63.1121H50.2321V63.4225H52.0284V63.1121ZM50.3945 63.3135L53.0393 55.5901L52.7146 55.4974L50.0699 63.221L50.3945 63.3135ZM52.8771 55.6989H53.999V55.3885H52.8771V55.6989ZM53.8298 55.5283L53.6786 56.9075L54.0171 56.9384L54.1683 55.5592L53.8298 55.5283ZM55.448 63.2277L53.6171 56.8833L53.2881 56.9625L55.1191 63.3068L55.448 63.2277ZM53.6216 56.9057L53.4529 55.5266L53.115 55.5609L53.2835 56.9401L53.6216 56.9057ZM53.2839 55.6989H54.4234V55.3885H53.2839V55.6989ZM54.2611 55.5904L56.9292 63.314L57.2537 63.2205L54.5854 55.4971L54.2611 55.5904ZM57.0914 63.1121H55.2836V63.4225H57.0914V63.1121ZM55.1775 60.3868V61.6759H55.5176V60.3868H55.1775ZM55.3475 61.5207H51.5284V61.831H55.3475V61.5207ZM51.6985 61.6759V60.3868H51.3583V61.6759H51.6985ZM51.5284 60.542H55.3475V60.2316H51.5284V60.542ZM58.504 55.5436L58.5041 55.3885H58.2743L58.3413 55.589L58.504 55.5436ZM59.998 55.5436L60.1609 55.4994L60.1247 55.3885H59.998L59.998 55.5436ZM61.7244 60.8271L61.5614 60.8715L61.7247 61.371L61.8875 60.8713L61.7244 60.8271ZM63.4451 55.5436L63.4452 55.3885H63.3183L63.2821 55.4996L63.4451 55.5436ZM64.7646 55.5436L64.9282 55.5862L64.9898 55.3885H64.7646L64.7646 55.5436ZM62.358 63.2672L62.3581 63.4225H62.4865L62.5217 63.3096L62.358 63.2672ZM61.0851 63.2672L60.9223 63.3126L60.9591 63.4225H61.0851L61.0851 63.2672ZM57.8994 55.5436L57.8995 55.3885H57.7294V55.5437L57.8994 55.5436ZM59.3236 55.5436L59.4935 55.5376L59.4871 55.3885H59.3236L59.3236 55.5436ZM59.5445 60.6362L59.7148 60.6362L59.7145 60.63L59.5445 60.6362ZM59.5445 63.2672L59.5446 63.4225H59.7146V63.2673L59.5445 63.2672ZM57.8994 63.2672L57.7294 63.2673V63.4225H57.8995L57.8994 63.2672ZM64.1135 55.5436L64.1135 55.3885H63.9498L63.9436 55.5379L64.1135 55.5436ZM65.5435 55.5436L65.7136 55.5437V55.3885H65.5435L65.5435 55.5436ZM65.5435 63.2672L65.5435 63.4225H65.7136V63.2673L65.5435 63.2672ZM63.9043 63.2672L63.7343 63.2673V63.4225H63.9044L63.9043 63.2672ZM63.9043 60.6362L63.7343 60.6303V60.6362L63.9043 60.6362ZM58.5041 55.6989H59.998V55.3885H58.5041V55.6989ZM59.8351 55.588L61.5614 60.8715L61.8875 60.7828L60.1609 55.4994L59.8351 55.588ZM61.8875 60.8713L63.6081 55.5879L63.2821 55.4996L61.5614 60.7828L61.8875 60.8713ZM63.4452 55.6989H64.7646V55.3885H63.4452V55.6989ZM64.6011 55.5013L62.1945 63.2249L62.5217 63.3096L64.9282 55.5862L64.6011 55.5013ZM62.3581 63.1121H61.0851V63.4225H62.3581V63.1121ZM61.2477 63.2219L58.6667 55.4985L58.3413 55.589L60.9223 63.3126L61.2477 63.2219ZM57.8995 55.6989H59.3236V55.3885H57.8995V55.6989ZM59.1537 55.5499L59.3747 60.6422L59.7145 60.63L59.4935 55.5376L59.1537 55.5499ZM59.3745 60.6362V63.2673H59.7146L59.7148 60.6362H59.3745ZM59.5446 63.1121H57.8995V63.4225H59.5446V63.1121ZM58.0695 63.2673V55.5437H57.7294V63.2673H58.0695ZM64.1135 55.6989H65.5435V55.3885H64.1135V55.6989ZM65.3734 55.5437V63.2673H65.7136V55.5437H65.3734ZM65.5435 63.1121H63.9044V63.4225H65.5435V63.1121ZM64.0744 63.2673V60.6362H63.7343V63.2673H64.0744ZM64.0743 60.6419L64.2836 55.5496L63.9436 55.5379L63.7343 60.6303L64.0743 60.6419ZM68.0839 60.546L67.9138 60.546V60.7012H68.0839L68.0839 60.546ZM68.0839 59.2569L68.0839 59.1017H67.9138V59.2569L68.0839 59.2569ZM70.4033 59.1084L70.3057 58.9813L70.304 58.9824L70.4033 59.1084ZM70.7346 57.4852L70.5729 57.5335L70.5742 57.5367L70.7346 57.4852ZM70.4033 57.0131L70.2899 57.1287L70.2916 57.1301L70.4033 57.0131ZM68.6303 56.8327L68.6303 56.6775H68.4602V56.8327L68.6303 56.8327ZM68.6303 63.2672L68.6303 63.4225H68.8004V63.2673L68.6303 63.2672ZM66.9328 63.2672L66.7628 63.2673V63.4225H66.9328L66.9328 63.2672ZM66.9328 55.5436L66.9328 55.3885H66.7628V55.5437L66.9328 55.5436ZM72.2285 56.7796L72.0773 56.8506L72.0782 56.8521L72.2285 56.7796ZM69.8162 60.3908H68.0839V60.7012H69.8162V60.3908ZM68.2539 60.546V59.2569H67.9138V60.546H68.2539ZM68.0839 59.4121H69.8162V59.1017H68.0839V59.4121ZM69.8162 59.4121C70.0817 59.4121 70.3151 59.3573 70.5025 59.2344L70.304 58.9824C70.1892 59.0577 70.0312 59.1017 69.8162 59.1017V59.4121ZM70.5008 59.2355C70.6863 59.1171 70.8191 58.9543 70.9001 58.7535L70.5807 58.6464C70.5222 58.7921 70.4304 58.9017 70.3057 58.9813L70.5008 59.2355ZM70.9001 58.7535C70.9775 58.5573 71.0151 58.3402 71.0151 58.1058H70.6749C70.6749 58.3101 70.6428 58.4889 70.5807 58.6464L70.9001 58.7535ZM71.0151 58.1058C71.0151 57.8673 70.9756 57.6429 70.895 57.4337L70.5742 57.5367C70.6407 57.7096 70.6749 57.8988 70.6749 58.1058H71.0151ZM70.8962 57.4369C70.8181 57.219 70.6919 57.0368 70.5151 56.896L70.2916 57.1301C70.4169 57.2299 70.5115 57.3623 70.5729 57.5335L70.8962 57.4369ZM70.5166 56.8974C70.3314 56.7461 70.0919 56.6775 69.8162 56.6775V56.9879C70.0286 56.9879 70.1807 57.0396 70.2899 57.1287L70.5166 56.8974ZM69.8162 56.6775H68.6303V56.9879H69.8162V56.6775ZM68.4602 56.8327V63.2673H68.8004V56.8327H68.4602ZM68.6303 63.1121H66.9328V63.4225H68.6303V63.1121ZM67.1029 63.2673V55.5437H66.7628V63.2673H67.1029ZM66.9328 55.6989H69.8162V55.3885H66.9328V55.6989ZM69.8162 55.6989C70.3616 55.6989 70.821 55.8038 71.201 56.0066L71.3727 55.7386C70.9312 55.503 70.4101 55.3885 69.8162 55.3885V55.6989ZM71.201 56.0066C71.584 56.211 71.8751 56.4915 72.0773 56.8506L72.3799 56.7087C72.1479 56.297 71.8113 55.9728 71.3727 55.7386L71.201 56.0066ZM72.0782 56.8521C72.2843 57.2086 72.3898 57.6216 72.3898 58.0953H72.7299C72.7299 57.5786 72.6146 57.1146 72.3789 56.7072L72.0782 56.8521ZM72.3898 58.0953C72.3898 58.5727 72.2841 58.9793 72.0794 59.3202L72.3777 59.4694C72.6148 59.0749 72.7299 58.615 72.7299 58.0953H72.3898ZM72.0794 59.3202C71.8785 59.6573 71.5887 59.9193 71.2062 60.107L71.3675 60.3803C71.8064 60.1648 72.1443 59.861 72.3777 59.4694L72.0794 59.3202ZM71.2062 60.107C70.8251 60.294 70.3639 60.3908 69.8162 60.3908V60.7012C70.4077 60.7012 70.927 60.5964 71.3675 60.3803L71.2062 60.107Z" fill="#FE9F35"></path><path d="M76.6745 60.6413L76.6721 60.6388C76.6028 60.5611 76.4932 60.4759 76.3358 60.3857L76.3342 60.3848C76.1823 60.2957 75.9786 60.2005 75.7201 60.1C75.4029 59.9784 75.0961 59.8501 74.7981 59.7141L74.7964 59.7134C74.4917 59.5706 74.2155 59.4051 73.9687 59.2169C73.7155 59.0237 73.5132 58.7955 73.3631 58.5331L73.3617 58.5308C73.212 58.2576 73.1404 57.943 73.1404 57.5913C73.1404 57.2471 73.2081 56.9302 73.3466 56.6429L73.3474 56.6414C73.4893 56.3556 73.6904 56.1109 73.9498 55.9085C74.2075 55.7037 74.5071 55.5482 74.8478 55.4395C75.1937 55.3304 75.5752 55.2772 75.9903 55.2772C76.5565 55.2772 77.0557 55.3843 77.481 55.6051C77.9069 55.8239 78.2373 56.1253 78.47 56.5082C78.7071 56.8916 78.8227 57.3277 78.8227 57.814V57.9692H78.6526H76.9552H76.7851V57.814C76.7851 57.6097 76.7526 57.4363 76.6917 57.2915L76.6902 57.2878C76.6349 57.1451 76.5485 57.0399 76.4323 56.9646C76.3211 56.8925 76.1686 56.8501 75.9613 56.8501C75.767 56.8501 75.6189 56.8871 75.5092 56.9493C75.3993 57.0106 75.317 57.0953 75.2611 57.2055C75.2066 57.3169 75.1779 57.4459 75.1779 57.5966C75.1779 57.6977 75.2036 57.7847 75.2524 57.8613C75.3088 57.9402 75.3868 58.0151 75.49 58.0854C75.6015 58.1577 75.7352 58.2298 75.8919 58.3012C76.0538 58.3734 76.2308 58.4438 76.4247 58.5132C76.816 58.6538 77.1645 58.8098 77.4689 58.9818C77.7761 59.1514 78.0349 59.3443 78.2455 59.563C78.4576 59.7795 78.6173 60.0238 78.7254 60.2971C78.8339 60.5716 78.8867 60.8798 78.8867 61.2197C78.8867 61.5601 78.821 61.8745 78.687 62.1612C78.5572 62.4441 78.3652 62.6893 78.1142 62.8956C77.8628 63.0981 77.5616 63.2528 77.2137 63.3611C76.8676 63.4701 76.4846 63.5233 76.0658 63.5233C75.6585 63.5233 75.2697 63.4712 74.9034 63.3672C74.5347 63.2589 74.207 63.0954 73.9219 62.8768L73.9199 62.8752C73.6353 62.65 73.4134 62.3663 73.253 62.0288C73.0908 61.6835 73.0125 61.2815 73.0125 60.8272V60.672H73.1826H74.8857H75.0558V60.8272C75.0558 61.0512 75.0801 61.2363 75.1254 61.3852C75.1699 61.5286 75.2351 61.6346 75.3163 61.7114C75.4007 61.7879 75.5049 61.8476 75.6323 61.8896C75.7667 61.9292 75.924 61.9504 76.1065 61.9504C76.3119 61.9504 76.4541 61.9145 76.5489 61.8585L76.5507 61.8574C76.6574 61.7963 76.7301 61.7171 76.7744 61.6176C76.823 61.5082 76.849 61.38 76.849 61.2303C76.849 61.1015 76.8364 60.9872 76.8123 60.8868C76.7917 60.8005 76.7472 60.7191 76.6745 60.6413Z" fill="#FE9F35"></path><path d="M38.8319 41.3214H37.0997L37.0939 40.1969H38.5703C38.803 40.1969 38.9928 40.1615 39.1401 40.0907C39.2913 40.0165 39.4016 39.9087 39.4714 39.7671C39.545 39.6222 39.5819 39.4471 39.5819 39.2419C39.5819 39.0051 39.5489 38.8159 39.4831 38.6744C39.4171 38.5294 39.3107 38.4233 39.1634 38.3561C39.0161 38.289 38.8242 38.2553 38.5878 38.2553H37.681V44.6899H35.9778V36.9663H38.5878C39.0103 36.9663 39.388 37.0088 39.7214 37.0937C40.0547 37.1786 40.3375 37.3075 40.57 37.4809C40.8025 37.6541 40.9789 37.8734 41.0991 38.1386C41.2231 38.4039 41.285 38.7169 41.285 39.0776C41.285 39.3959 41.2153 39.6894 41.0758 39.9582C40.9364 40.2268 40.7173 40.4461 40.419 40.6159C40.1245 40.7857 39.7387 40.8811 39.2622 40.9024L38.8319 41.3214ZM38.7739 44.6899H36.6172L37.2973 43.4062H38.7739C38.9986 43.4062 39.1807 43.362 39.3204 43.2735C39.4598 43.1851 39.5605 43.0666 39.6226 42.9181C39.6845 42.766 39.7156 42.5928 39.7156 42.3982C39.7156 42.1791 39.6865 41.988 39.6284 41.8254C39.5741 41.6627 39.4831 41.5389 39.3552 41.454C39.2273 41.3657 39.0549 41.3214 38.8379 41.3214H37.3729L37.3846 40.1969H39.1634L39.5644 40.6424C40.0178 40.6283 40.3802 40.7078 40.6515 40.8811C40.9228 41.0509 41.1165 41.2736 41.2328 41.5496C41.3529 41.8218 41.4129 42.1119 41.4129 42.4195C41.4129 42.9145 41.3102 43.3319 41.1049 43.6714C40.9034 44.0073 40.6069 44.262 40.2154 44.4352C39.8241 44.605 39.3435 44.6899 38.7739 44.6899ZM47.5166 43.4062V44.6899H43.837V43.4062H47.5166ZM44.366 36.9663V44.6899H42.6628V36.9663H44.366ZM47.0226 40.096V41.3427H43.837V40.096H47.0226ZM47.5051 36.9663V38.2553H43.837V36.9663H47.5051ZM52.0914 42.6582C52.0914 42.5203 52.078 42.3948 52.0507 42.2815C52.0237 42.1684 51.9655 42.0641 51.8764 41.9686C51.791 41.8732 51.6652 41.7776 51.4985 41.6821C51.3358 41.5867 51.1227 41.4877 50.8591 41.3851C50.5453 41.2648 50.241 41.1375 49.9464 41.0031C49.6519 40.8652 49.3864 40.7061 49.15 40.5257C48.9136 40.3454 48.7257 40.1332 48.5862 39.8891C48.4505 39.6416 48.3828 39.3517 48.3828 39.0192C48.3828 38.6939 48.4468 38.3986 48.5746 38.1334C48.7063 37.8681 48.8923 37.6418 49.1327 37.4544C49.373 37.2633 49.6539 37.1166 49.9755 37.0141C50.301 36.9115 50.6635 36.8603 51.0626 36.8603C51.6052 36.8603 52.074 36.9628 52.4693 37.1679C52.8685 37.373 53.1766 37.6541 53.3936 38.0114C53.6144 38.3685 53.7249 38.7787 53.7249 39.2419H52.0274C52.0274 39.0228 51.9926 38.83 51.9228 38.6638C51.857 38.494 51.7504 38.3615 51.6031 38.2659C51.4558 38.1704 51.266 38.1228 51.0335 38.1228C50.8165 38.1228 50.6363 38.1635 50.4929 38.2448C50.3534 38.3225 50.2487 38.4304 50.1789 38.5684C50.1131 38.7028 50.0801 38.8547 50.0801 39.0245C50.0801 39.1518 50.1131 39.2668 50.1789 39.3694C50.2487 39.4684 50.3437 39.5585 50.4638 39.6399C50.5839 39.7176 50.7254 39.7937 50.8881 39.868C51.0548 39.9422 51.237 40.0147 51.4346 40.0854C51.8183 40.2234 52.1574 40.3755 52.4518 40.5416C52.7463 40.7044 52.9924 40.8883 53.1901 41.0933C53.3877 41.2949 53.537 41.523 53.6377 41.7776C53.7385 42.0322 53.7889 42.3222 53.7889 42.6476C53.7889 42.9693 53.7268 43.263 53.6028 43.5282C53.4828 43.7899 53.3064 44.0161 53.0739 44.2072C52.8414 44.3945 52.5603 44.5396 52.231 44.6421C51.9055 44.7446 51.5412 44.796 51.1381 44.796C50.7466 44.796 50.3766 44.7465 50.0279 44.6475C49.6791 44.5449 49.3709 44.3911 49.1036 44.1859C48.84 43.9773 48.6326 43.7138 48.4816 43.3955C48.3304 43.0738 48.2549 42.6935 48.2549 42.2551H49.958C49.958 42.4884 49.9832 42.6883 50.0337 42.8545C50.084 43.0171 50.1616 43.148 50.2662 43.247C50.3708 43.3424 50.4987 43.4149 50.6499 43.4644C50.8048 43.5105 50.9812 43.5335 51.1788 43.5335C51.4036 43.5335 51.5819 43.4945 51.7137 43.4168C51.8492 43.339 51.9462 43.2346 52.0043 43.1037C52.0623 42.9729 52.0914 42.8244 52.0914 42.6582ZM58.3114 36.9663V44.6899H56.6197V36.9663H58.3114ZM60.4157 36.9663V38.2553H54.5562V36.9663H60.4157ZM33.6294 51.429H35.3209C35.2976 52.009 35.1697 52.4988 34.9373 52.8985C34.7048 53.2945 34.3735 53.5951 33.9432 53.8002C33.517 54.0053 33.0015 54.1079 32.3971 54.1079C31.928 54.1079 31.5115 54.0371 31.1472 53.8956C30.7829 53.7506 30.4729 53.5385 30.2171 53.2591C29.9613 52.9798 29.7676 52.6349 29.6358 52.2247C29.5079 51.811 29.4439 51.3353 29.4439 50.7977V49.4875C29.4439 48.9501 29.5118 48.4744 29.6475 48.0606C29.787 47.6469 29.9846 47.3003 30.2404 47.0209C30.5001 46.738 30.812 46.5257 31.1763 46.3843C31.5445 46.2394 31.9591 46.1669 32.4202 46.1669C33.0364 46.1669 33.5519 46.2729 33.9665 46.485C34.3811 46.6973 34.7009 47.0067 34.9257 47.4134C35.1543 47.8165 35.2919 48.3099 35.3383 48.8934H33.641C33.6294 48.5256 33.5828 48.2374 33.5015 48.0288C33.424 47.8165 33.3 47.668 33.1294 47.5832C32.959 47.4948 32.7226 47.4505 32.4202 47.4505C32.1955 47.4505 32.0016 47.4876 31.8389 47.562C31.6761 47.6327 31.5425 47.7476 31.4379 47.9068C31.3333 48.0659 31.2557 48.2745 31.2054 48.5327C31.1588 48.7908 31.1356 49.1056 31.1356 49.4769V50.7977C31.1356 51.1619 31.1569 51.4733 31.1996 51.7314C31.2421 51.986 31.31 52.1946 31.403 52.3573C31.496 52.5199 31.6219 52.6385 31.7807 52.7127C31.9437 52.787 32.1489 52.8241 32.3971 52.8241C32.6838 52.8241 32.9144 52.7852 33.0887 52.7074C33.267 52.6297 33.3988 52.49 33.484 52.2884C33.5692 52.0868 33.6177 51.8003 33.6294 51.429ZM42.3315 49.5406V50.8297C42.3315 51.3743 42.2578 51.8516 42.1105 52.2618C41.9672 52.6686 41.7617 53.0097 41.4944 53.2857C41.2308 53.5579 40.911 53.7631 40.5352 53.901C40.1632 54.0389 39.7505 54.1079 39.2971 54.1079C38.8436 54.1079 38.429 54.0389 38.053 53.901C37.681 53.7631 37.3594 53.5579 37.0882 53.2857C36.8206 53.0097 36.6133 52.6686 36.466 52.2618C36.3188 51.8516 36.2451 51.3743 36.2451 50.8297V49.5406C36.2451 48.9819 36.3169 48.4938 36.4602 48.0764C36.6036 47.6557 36.8109 47.3056 37.0822 47.0262C37.3535 46.7433 37.6752 46.5311 38.0472 46.3896C38.4193 46.2446 38.8319 46.1722 39.2853 46.1722C39.7387 46.1722 40.1515 46.2446 40.5236 46.3896C40.8956 46.5311 41.2173 46.7433 41.4886 47.0262C41.7599 47.3056 41.9672 47.6557 42.1105 48.0764C42.2578 48.4938 42.3315 48.9819 42.3315 49.5406ZM40.6398 50.8297V49.53C40.6398 49.1622 40.6107 48.8492 40.5527 48.5911C40.4945 48.3294 40.4073 48.1154 40.2911 47.9492C40.1748 47.783 40.0333 47.661 39.8666 47.5832C39.7001 47.5053 39.5062 47.4665 39.2853 47.4665C39.0646 47.4665 38.8688 47.5053 38.6982 47.5832C38.5317 47.661 38.3902 47.783 38.2739 47.9492C38.1615 48.1154 38.0763 48.3294 38.0181 48.5911C37.9639 48.8492 37.9368 49.1622 37.9368 49.53V50.8297C37.9368 51.1832 37.9659 51.4855 38.0239 51.7366C38.0821 51.9878 38.1693 52.1929 38.2856 52.352C38.4018 52.5112 38.5433 52.6297 38.71 52.7074C38.8804 52.7817 39.0761 52.8188 39.2971 52.8188C39.5141 52.8188 39.7059 52.7817 39.8726 52.7074C40.043 52.6297 40.1845 52.5112 40.2969 52.352C40.4093 52.1929 40.4945 51.9878 40.5527 51.7366C40.6107 51.4855 40.6398 51.1832 40.6398 50.8297ZM45.7785 54.0018H44.2846L44.2962 52.7181H45.7785C46.1894 52.7181 46.509 52.6509 46.7377 52.5165C46.9663 52.3821 47.1272 52.17 47.2202 51.8799C47.317 51.59 47.3654 51.2097 47.3654 50.7393V49.5353C47.3654 49.178 47.3403 48.8757 47.2899 48.6282C47.2396 48.3771 47.1542 48.1755 47.0341 48.0234C46.9141 47.8679 46.7532 47.7529 46.5516 47.6787C46.3501 47.6043 46.1001 47.5672 45.8018 47.5672H44.2555V46.2782H45.8018C46.2901 46.2782 46.7338 46.3506 47.1329 46.4957C47.5321 46.6407 47.8751 46.8529 48.1619 47.1322C48.4486 47.4082 48.6695 47.7494 48.8245 48.1561C48.9796 48.5627 49.0571 49.0259 49.0571 49.5459V50.7393C49.0571 51.2628 48.9796 51.7261 48.8245 52.1293C48.6695 52.5323 48.4486 52.8736 48.1619 53.153C47.8789 53.4289 47.536 53.6392 47.1329 53.7843C46.7299 53.9293 46.2785 54.0018 45.7785 54.0018ZM45.2729 46.2782V54.0018H43.5696V46.2782H45.2729ZM52.0683 46.2782V54.0018H50.3766V46.2782H52.0683ZM59.439 46.2782V54.0018H57.7941L55.1374 49.1692V54.0018H53.5215V46.2782H55.1433L57.823 51.1638V46.2782H59.439ZM66.5601 49.9438V53.1264C66.4398 53.2432 66.2635 53.3794 66.031 53.5349C65.8024 53.687 65.5021 53.8214 65.13 53.9381C64.7619 54.0513 64.3123 54.1079 63.7815 54.1079C63.3126 54.1079 62.8862 54.0407 62.5025 53.9063C62.1227 53.7719 61.7954 53.5686 61.5202 53.2962C61.2489 53.0204 61.0416 52.6773 60.8982 52.2671C60.7547 51.8533 60.6831 51.3635 60.6831 50.7977V49.4822C60.6831 48.9235 60.7509 48.4373 60.8865 48.0234C61.026 47.6062 61.2275 47.2596 61.4911 46.9837C61.7545 46.7079 62.0685 46.5027 62.4328 46.3683C62.801 46.2341 63.2156 46.1669 63.6767 46.1669C64.3123 46.1669 64.8335 46.264 65.2405 46.4585C65.6512 46.6531 65.9613 46.9413 66.1706 47.3233C66.3837 47.7052 66.5116 48.1738 66.5541 48.7289H64.9092C64.882 48.4036 64.822 48.1489 64.7289 47.9652C64.6398 47.7813 64.5138 47.6504 64.351 47.5725C64.1883 47.4912 63.977 47.4505 63.7175 47.4505C63.4927 47.4505 63.2969 47.4876 63.1304 47.562C62.9638 47.6327 62.8241 47.7494 62.7119 47.9121C62.5995 48.0747 62.5161 48.2833 62.4619 48.538C62.4076 48.7927 62.3804 49.1039 62.3804 49.4717V50.7977C62.3804 51.1619 62.4115 51.4733 62.4734 51.7314C62.5355 51.9896 62.6265 52.1999 62.7467 52.3626C62.8707 52.5254 63.0257 52.6438 63.2117 52.7181C63.4017 52.7887 63.6245 52.8241 63.8803 52.8241C64.0855 52.8241 64.2503 52.8047 64.3743 52.7658C64.4983 52.7268 64.5971 52.6861 64.6708 52.6438C64.7483 52.5978 64.8123 52.5624 64.8626 52.5376V51.116H63.6478V49.9438H66.5601Z" fill="#FE9F35"></path><path d="M38.8319 41.3214L38.8319 41.4766H38.9057L38.9561 41.4276L38.8319 41.3214ZM37.0997 41.3214L36.9297 41.3222L36.9305 41.4766H37.0997L37.0997 41.3214ZM37.0939 40.1969L37.094 40.0417H36.923L36.9239 40.1977L37.0939 40.1969ZM39.4714 39.7671L39.3171 39.702L39.3163 39.7035L39.4714 39.7671ZM37.681 38.2553L37.681 38.1002H37.511V38.2554L37.681 38.2553ZM37.681 44.6899L37.681 44.8451H37.8511V44.6899L37.681 44.6899ZM35.9778 44.6899L35.8077 44.6899V44.8451H35.9778L35.9778 44.6899ZM35.9778 36.9663L35.9778 36.8111H35.8077V36.9663L35.9778 36.9663ZM41.0991 38.1386L40.9418 38.1979L40.9427 38.1996L41.0991 38.1386ZM39.2622 40.9024L39.2539 40.7474L39.1852 40.7505L39.1381 40.7963L39.2622 40.9024ZM36.6172 44.6899L36.4642 44.6224L36.3462 44.8451H36.6172L36.6172 44.6899ZM37.2973 43.4062L37.2974 43.251H37.1907L37.1443 43.3386L37.2973 43.4062ZM39.6284 41.8254L39.4656 41.8705L39.4666 41.8735L39.6284 41.8254ZM39.3552 41.454L39.2525 41.5778L39.2551 41.5795L39.3552 41.454ZM37.3729 41.3214L37.2028 41.3199L37.2013 41.4766H37.3729L37.3729 41.3214ZM37.3846 40.1969L37.3846 40.0417H37.2161L37.2145 40.1953L37.3846 40.1969ZM39.1634 40.1969L39.2947 40.0983L39.2437 40.0417H39.1634L39.1634 40.1969ZM39.5644 40.6424L39.433 40.741L39.4864 40.8001L39.5702 40.7975L39.5644 40.6424ZM40.6515 40.8811L40.5539 41.0083L40.5553 41.0092L40.6515 40.8811ZM41.2328 41.5496L41.074 41.6053L41.075 41.6075L41.2328 41.5496ZM38.8319 41.1663H37.0997V41.4766H38.8319V41.1663ZM37.2698 41.3207L37.264 40.1961L36.9239 40.1977L36.9297 41.3222L37.2698 41.3207ZM37.094 40.3521H38.5704V40.0417H37.094V40.3521ZM38.5704 40.3521C38.8202 40.3521 39.0399 40.3142 39.2194 40.2281L39.0608 39.9534C38.9459 40.0086 38.7857 40.0417 38.5704 40.0417V40.3521ZM39.2194 40.2281C39.403 40.1378 39.5413 40.0038 39.6265 39.8309L39.3163 39.7035C39.262 39.8135 39.1794 39.895 39.0608 39.9534L39.2194 40.2281ZM39.6258 39.8325C39.7122 39.6621 39.752 39.4636 39.752 39.2419H39.4119C39.4119 39.4308 39.3779 39.5823 39.3171 39.702L39.6258 39.8325ZM39.752 39.2419C39.752 38.9944 39.7178 38.7819 39.6396 38.6137L39.326 38.7338C39.3794 38.8487 39.4119 39.0158 39.4119 39.2419H39.752ZM39.6396 38.6137C39.5588 38.436 39.425 38.3021 39.2394 38.2173L39.0872 38.495C39.1962 38.5446 39.275 38.6216 39.326 38.7338L39.6396 38.6137ZM39.2394 38.2173C39.0605 38.1357 38.8399 38.1002 38.5879 38.1002V38.4106C38.8086 38.4106 38.9717 38.4422 39.0872 38.495L39.2394 38.2173ZM38.5879 38.1002H37.681V38.4106H38.5879V38.1002ZM37.511 38.2554V44.6899H37.8511V38.2554H37.511ZM37.681 44.5347H35.9778V44.8451H37.681V44.5347ZM36.1478 44.6899V36.9663H35.8077V44.6899H36.1478ZM35.9778 37.1215H38.5879V36.8111H35.9778V37.1215ZM38.5879 37.1215C38.9981 37.1215 39.3602 37.1628 39.6757 37.2431L39.7672 36.9441C39.4161 36.8548 39.0224 36.8111 38.5879 36.8111V37.1215ZM39.6757 37.2431C39.9898 37.3231 40.2507 37.4432 40.4626 37.601L40.6777 37.3606C40.4245 37.1719 40.1195 37.0339 39.7672 36.9441L39.6757 37.2431ZM40.4626 37.601C40.6721 37.7573 40.832 37.9554 40.9418 38.1979L41.2563 38.0794C41.1259 37.7916 40.933 37.5511 40.6777 37.3606L40.4626 37.601ZM40.9427 38.1996C41.0556 38.4414 41.115 38.7327 41.115 39.0776H41.4551C41.4551 38.7011 41.3905 38.3665 41.2554 38.0778L40.9427 38.1996ZM41.115 39.0776C41.115 39.3745 41.0502 39.6452 40.9221 39.8918L41.2296 40.0246C41.3806 39.7336 41.4551 39.4172 41.4551 39.0776H41.115ZM40.9221 39.8918C40.7976 40.1314 40.602 40.329 40.3289 40.4842L40.509 40.7477C40.8326 40.5635 41.075 40.3223 41.2296 40.0246L40.9221 39.8918ZM40.3289 40.4842C40.0666 40.6352 39.7115 40.727 39.2539 40.7474L39.2704 41.0575C39.7661 41.0353 40.1821 40.9361 40.509 40.7477L40.3289 40.4842ZM39.1381 40.7963L38.7079 41.2153L38.9561 41.4276L39.3864 41.0084L39.1381 40.7963ZM38.7739 44.5347H36.6172V44.8451H38.7739V44.5347ZM36.7703 44.7574L37.4504 43.4737L37.1443 43.3386L36.4642 44.6224L36.7703 44.7574ZM37.2974 43.5614H38.7739V43.251H37.2974V43.5614ZM38.7739 43.5614C39.0222 43.5614 39.2415 43.5125 39.4173 43.401L39.2233 43.1461C39.1202 43.2115 38.975 43.251 38.7739 43.251V43.5614ZM39.4173 43.401C39.5857 43.2943 39.7076 43.1503 39.7814 42.9734L39.4636 42.8629C39.4136 42.983 39.334 43.076 39.2233 43.1461L39.4173 43.401ZM39.7814 42.9734C39.8518 42.801 39.8857 42.6077 39.8857 42.3982H39.5456C39.5456 42.5779 39.5171 42.7313 39.4636 42.8629L39.7814 42.9734ZM39.8857 42.3982C39.8857 42.167 39.8551 41.9592 39.7901 41.7773L39.4666 41.8735C39.518 42.0169 39.5456 42.191 39.5456 42.3982H39.8857ZM39.7911 41.7802C39.728 41.5912 39.618 41.4366 39.4552 41.3286L39.2551 41.5795C39.3481 41.6412 39.4202 41.7343 39.4656 41.8705L39.7911 41.7802ZM39.4578 41.3303C39.2916 41.2153 39.079 41.1663 38.8379 41.1663V41.4766C39.0307 41.4766 39.1631 41.5161 39.2525 41.5778L39.4578 41.3303ZM38.8379 41.1663H37.3729V41.4766H38.8379V41.1663ZM37.543 41.3229L37.5547 40.1983L37.2145 40.1953L37.2028 41.3199L37.543 41.3229ZM37.3846 40.3521H39.1634V40.0417H37.3846V40.3521ZM39.0319 40.2954L39.433 40.741L39.6959 40.5439L39.2947 40.0983L39.0319 40.2954ZM39.5702 40.7975C40.0002 40.7842 40.3223 40.8604 40.5539 41.0083L40.749 40.754C40.4381 40.5554 40.0355 40.4725 39.5586 40.4873L39.5702 40.7975ZM40.5553 41.0092C40.7986 41.1614 40.9704 41.3592 41.074 41.6053L41.3915 41.4939C41.2628 41.1881 41.0468 40.9404 40.7476 40.7531L40.5553 41.0092ZM41.075 41.6075C41.1866 41.8605 41.2429 42.1307 41.2429 42.4195H41.583C41.583 42.0929 41.5192 41.7832 41.3905 41.4916L41.075 41.6075ZM41.2429 42.4195C41.2429 42.8955 41.1442 43.2853 40.956 43.5963L41.2537 43.7464C41.4764 43.3785 41.583 42.9338 41.583 42.4195H41.2429ZM40.956 43.5963C40.7719 43.903 40.5022 44.1358 40.1413 44.2957L40.2884 44.5755C40.7104 44.3886 41.0345 44.1118 41.2537 43.7464L40.956 43.5963ZM40.1413 44.2957C39.7787 44.4529 39.3258 44.5347 38.7739 44.5347V44.8451C39.3612 44.8451 39.8683 44.7577 40.2884 44.5755L40.1413 44.2957ZM47.5166 43.4062L47.6867 43.4062V43.251H47.5166L47.5166 43.4062ZM47.5166 44.6899L47.5166 44.8451H47.6867V44.6899L47.5166 44.6899ZM43.837 44.6899L43.6669 44.6899V44.8451H43.837L43.837 44.6899ZM43.837 43.4062L43.837 43.251H43.6669V43.4062L43.837 43.4062ZM44.366 36.9663L44.5361 36.9663V36.8111H44.3661L44.366 36.9663ZM44.366 44.6899L44.3661 44.8451H44.5361V44.6899L44.366 44.6899ZM42.6628 44.6899L42.4927 44.6899V44.8451H42.6628L42.6628 44.6899ZM42.6628 36.9663L42.6628 36.8111H42.4927V36.9663L42.6628 36.9663ZM47.0226 40.096L47.1927 40.096V39.9408H47.0226L47.0226 40.096ZM47.0226 41.3427L47.0226 41.4979H47.1927V41.3427L47.0226 41.3427ZM43.837 41.3427L43.6669 41.3427V41.4979H43.837L43.837 41.3427ZM43.837 40.096L43.837 39.9408H43.6669V40.096L43.837 40.096ZM47.5051 36.9663L47.6752 36.9663V36.8111H47.5051L47.5051 36.9663ZM47.5051 38.2553L47.5051 38.4106H47.6752V38.2554L47.5051 38.2553ZM43.837 38.2553L43.6669 38.2554V38.4106H43.837L43.837 38.2553ZM43.837 36.9663L43.837 36.8111H43.6669V36.9663L43.837 36.9663ZM47.3466 43.4062V44.6899H47.6867V43.4062H47.3466ZM47.5166 44.5347H43.837V44.8451H47.5166V44.5347ZM44.007 44.6899V43.4062H43.6669V44.6899H44.007ZM43.837 43.5614H47.5166V43.251H43.837V43.5614ZM44.196 36.9663V44.6899H44.5361V36.9663H44.196ZM44.3661 44.5347H42.6628V44.8451H44.3661V44.5347ZM42.8329 44.6899V36.9663H42.4927V44.6899H42.8329ZM42.6628 37.1215H44.3661V36.8111H42.6628V37.1215ZM46.8525 40.096V41.3427H47.1927V40.096H46.8525ZM47.0226 41.1875H43.837V41.4979H47.0226V41.1875ZM44.007 41.3427V40.096H43.6669V41.3427H44.007ZM43.837 40.2512H47.0226V39.9408H43.837V40.2512ZM47.335 36.9663V38.2554H47.6752V36.9663H47.335ZM47.5051 38.1002H43.837V38.4106H47.5051V38.1002ZM44.007 38.2554V36.9663H43.6669V38.2554H44.007ZM43.837 37.1215H47.5051V36.8111H43.837V37.1215ZM51.8764 41.9686L51.7445 42.0667L51.7468 42.0692L51.8764 41.9686ZM51.4985 41.6821L51.4065 41.8127L51.4081 41.8136L51.4985 41.6821ZM49.9464 41.0031L49.8687 41.1413L49.8704 41.142L49.9464 41.0031ZM48.5862 39.8891L48.434 39.9587L48.4354 39.961L48.5862 39.8891ZM48.5746 38.1334L48.4197 38.0693L48.4189 38.0708L48.5746 38.1334ZM53.7249 39.2419L53.725 39.3971H53.895V39.2419L53.7249 39.2419ZM52.0274 39.2419L51.8574 39.2419V39.3971H52.0275L52.0274 39.2419ZM51.9228 38.6638L51.7625 38.7157L51.764 38.7194L51.9228 38.6638ZM50.1789 38.5684L50.0245 38.5034L50.0237 38.5049L50.1789 38.5684ZM50.1789 39.3694L50.0322 39.4479L50.0359 39.4533L50.1789 39.3694ZM50.4638 39.6399L50.3625 39.7645L50.3654 39.7664L50.4638 39.6399ZM52.4518 40.5416L52.3623 40.6737L52.3639 40.6744L52.4518 40.5416ZM49.1036 44.1859L48.9922 44.3031L48.9942 44.3047L49.1036 44.1859ZM48.2549 42.2551L48.2549 42.0999H48.0849V42.2551L48.2549 42.2551ZM49.958 42.2551L50.1281 42.2551V42.0999H49.958L49.958 42.2551ZM50.2662 43.247L50.1437 43.3547L50.146 43.3567L50.2662 43.247ZM50.6499 43.4644L50.5924 43.6106L50.5973 43.6122L50.6499 43.4644ZM51.7137 43.4168L51.623 43.2853L51.6212 43.2864L51.7137 43.4168ZM52.2615 42.6582C52.2615 42.5112 52.247 42.3743 52.2169 42.2484L51.8846 42.3147C51.9088 42.4151 51.9213 42.5294 51.9213 42.6582H52.2615ZM52.2169 42.2484C52.1834 42.1083 52.1115 41.9812 52.0059 41.8679L51.7468 42.0692C51.8195 42.147 51.864 42.2284 51.8846 42.3147L52.2169 42.2484ZM52.0083 41.8705C51.9072 41.7574 51.7649 41.6514 51.589 41.5507L51.4081 41.8136C51.5656 41.9038 51.6751 41.989 51.7445 42.0667L52.0083 41.8705ZM51.5905 41.5516C51.4169 41.4498 51.1945 41.3469 50.9259 41.2423L50.7924 41.5279C51.0509 41.6284 51.2547 41.7236 51.4065 41.8127L51.5905 41.5516ZM50.9259 41.2423C50.6154 41.1234 50.3136 40.9971 50.0225 40.8644L49.8704 41.142C50.1684 41.278 50.4752 41.4063 50.7924 41.5279L50.9259 41.2423ZM50.0242 40.865C49.74 40.732 49.4852 40.5791 49.2592 40.4067L49.041 40.6448C49.2878 40.833 49.564 40.9985 49.8687 41.1413L50.0242 40.865ZM49.2592 40.4067C49.0396 40.2391 48.866 40.0429 48.7371 39.8174L48.4354 39.961C48.5856 40.2234 48.7878 40.4516 49.041 40.6448L49.2592 40.4067ZM48.7383 39.8198C48.6167 39.5977 48.5529 39.3323 48.5529 39.0192H48.2128C48.2128 39.3709 48.2844 39.6855 48.434 39.9587L48.7383 39.8198ZM48.5529 39.0192C48.5529 38.7127 48.6129 38.4391 48.7303 38.1959L48.4189 38.0708C48.2804 38.3581 48.2128 38.675 48.2128 39.0192H48.5529ZM48.7294 38.1975C48.851 37.9527 49.022 37.7449 49.2432 37.5723L49.0221 37.3364C48.7628 37.5388 48.5616 37.7836 48.4197 38.0693L48.7294 38.1975ZM49.2432 37.5723C49.466 37.3952 49.7289 37.2571 50.0317 37.1606L49.9201 36.8674C49.5794 36.9761 49.2798 37.1316 49.0221 37.3364L49.2432 37.5723ZM50.0317 37.1606C50.3368 37.0645 50.6793 37.0155 51.0627 37.0155V36.7051C50.6475 36.7051 50.266 36.7583 49.9201 36.8674L50.0317 37.1606ZM51.0627 37.0155C51.5814 37.0155 52.0202 37.1136 52.3853 37.3029L52.5533 37.033C52.128 36.8122 51.6288 36.7051 51.0627 36.7051V37.0155ZM52.3853 37.3029C52.7578 37.4943 53.0435 37.7551 53.2448 38.0867L53.5423 37.9361C53.3096 37.5532 52.9792 37.2518 52.5533 37.033L52.3853 37.3029ZM53.2448 38.0867C53.4494 38.4177 53.5549 38.802 53.5549 39.2419H53.895C53.895 38.7556 53.7794 38.3195 53.5423 37.9361L53.2448 38.0867ZM53.725 39.0868H52.0275V39.3971H53.725V39.0868ZM52.1975 39.2419C52.1975 39.0081 52.1605 38.7958 52.0817 38.6083L51.764 38.7194C51.8249 38.8642 51.8574 39.0376 51.8574 39.2419H52.1975ZM52.0832 38.612C52.0067 38.4151 51.8802 38.2552 51.7016 38.1394L51.5047 38.3925C51.6208 38.4678 51.7072 38.573 51.7625 38.7157L52.0832 38.612ZM51.7016 38.1394C51.5184 38.0205 51.2912 37.9676 51.0336 37.9676V38.278C51.2409 38.278 51.3934 38.3204 51.5047 38.3925L51.7016 38.1394ZM51.0336 37.9676C50.7936 37.9676 50.5802 38.0125 50.4031 38.1129L50.5815 38.3772C50.6912 38.315 50.8393 38.278 51.0336 38.278V37.9676ZM50.4031 38.1129C50.2344 38.2071 50.1082 38.3381 50.0245 38.5034L50.3334 38.6334C50.3893 38.5228 50.4713 38.4386 50.5815 38.3772L50.4031 38.1129ZM50.0237 38.5049C49.9466 38.6621 49.9101 38.8363 49.9101 39.0245H50.2502C50.2502 38.8734 50.2795 38.7433 50.3342 38.6317L50.0237 38.5049ZM49.9101 39.0245C49.9101 39.1774 49.9499 39.3199 50.0322 39.4479L50.3257 39.2908C50.2762 39.2139 50.2502 39.1263 50.2502 39.0245H49.9101ZM50.0359 39.4533C50.1184 39.5703 50.2284 39.6737 50.3625 39.7645L50.5652 39.5153C50.4589 39.4432 50.3791 39.3664 50.322 39.2854L50.0359 39.4533ZM50.3654 39.7664C50.4941 39.8497 50.6433 39.9298 50.8121 40.0068L50.9642 39.7291C50.8075 39.6577 50.6739 39.5856 50.5623 39.5132L50.3654 39.7664ZM50.8121 40.0068C50.9834 40.0831 51.1712 40.1579 51.3725 40.2299L51.497 39.9411C51.3031 39.8717 51.1261 39.8013 50.9642 39.7291L50.8121 40.0068ZM51.3725 40.2299C51.7485 40.3651 52.078 40.5132 52.3623 40.6737L52.5413 40.4097C52.2368 40.2377 51.8883 40.0817 51.497 39.9411L51.3725 40.2299ZM52.3639 40.6744C52.6457 40.8301 52.8778 41.0042 53.0624 41.1959L53.3178 40.9909C53.1073 40.7722 52.8484 40.5793 52.5413 40.4097L52.3639 40.6744ZM53.0624 41.1959C53.2455 41.3826 53.3845 41.5944 53.4778 41.8303L53.7977 41.725C53.6896 41.4517 53.5299 41.2074 53.3178 40.9909L53.0624 41.1959ZM53.4778 41.8303C53.5707 42.065 53.6188 42.3368 53.6188 42.6476H53.959C53.959 42.3077 53.9062 41.9995 53.7977 41.725L53.4778 41.8303ZM53.6188 42.6476C53.6188 42.9509 53.5605 43.2234 53.4464 43.4672L53.7593 43.5891C53.8933 43.3024 53.959 42.988 53.959 42.6476H53.6188ZM53.4464 43.4672C53.336 43.7076 53.1741 43.9161 52.9601 44.0917L53.1865 44.3235C53.4375 44.1172 53.6295 43.872 53.7593 43.5891L53.4464 43.4672ZM52.9601 44.0917C52.7464 44.264 52.4868 44.3986 52.1761 44.4953L52.286 44.789C52.6339 44.6807 52.9351 44.526 53.1865 44.3235L52.9601 44.0917ZM52.1761 44.4953C51.8712 44.5913 51.5254 44.6408 51.1382 44.6408V44.9512C51.5569 44.9512 51.9399 44.898 52.286 44.789L52.1761 44.4953ZM51.1382 44.6408C50.7626 44.6408 50.4097 44.5933 50.0784 44.4993L49.9757 44.7951C50.3421 44.8991 50.7308 44.9512 51.1382 44.9512V44.6408ZM50.0784 44.4993C49.7497 44.4026 49.4628 44.2587 49.2129 44.0671L48.9942 44.3047C49.2793 44.5233 49.607 44.6868 49.9757 44.7951L50.0784 44.4993ZM49.215 44.0688C48.9725 43.8766 48.7796 43.6327 48.6376 43.3339L48.3253 43.4567C48.4857 43.7942 48.7077 44.0779 48.9922 44.3031L49.215 44.0688ZM48.6376 43.3339C48.4975 43.0356 48.425 42.6777 48.425 42.2551H48.0849C48.0849 42.7094 48.1631 43.1114 48.3253 43.4567L48.6376 43.3339ZM48.2549 42.4103H49.958V42.0999H48.2549V42.4103ZM49.788 42.2551C49.788 42.4979 49.8141 42.7123 49.8698 42.8958L50.1977 42.8131C50.1524 42.6642 50.1281 42.4791 50.1281 42.2551H49.788ZM49.8698 42.8958C49.9261 43.0775 50.0157 43.2335 50.1437 43.3547L50.3887 43.1393C50.3074 43.0625 50.2422 42.9566 50.1977 42.8131L49.8698 42.8958ZM50.146 43.3567C50.2698 43.4697 50.4196 43.554 50.5924 43.6106L50.7074 43.3184C50.5778 43.276 50.4718 43.2152 50.3864 43.1373L50.146 43.3567ZM50.5973 43.6122C50.7725 43.664 50.9671 43.6887 51.1788 43.6887V43.3783C50.9953 43.3783 50.8373 43.3569 50.7024 43.3168L50.5973 43.6122ZM51.1788 43.6887C51.4229 43.6887 51.6373 43.6468 51.806 43.547L51.6212 43.2864C51.5264 43.3424 51.3843 43.3783 51.1788 43.3783V43.6887ZM51.8042 43.5482C51.9688 43.4537 52.0899 43.3243 52.1618 43.1621L51.8467 43.0455C51.8025 43.145 51.7297 43.2242 51.623 43.2853L51.8042 43.5482ZM52.1618 43.1621C52.2295 43.0097 52.2615 42.8408 52.2615 42.6582H51.9213C51.9213 42.8079 51.8953 42.9361 51.8467 43.0455L52.1618 43.1621ZM58.3114 36.9663L58.4815 36.9663V36.8111H58.3115L58.3114 36.9663ZM58.3114 44.6899L58.3115 44.8451H58.4815V44.6899L58.3114 44.6899ZM56.6197 44.6899L56.4497 44.6899V44.8451H56.6197L56.6197 44.6899ZM56.6197 36.9663L56.6197 36.8111H56.4497V36.9663L56.6197 36.9663ZM60.4157 36.9663L60.5858 36.9663V36.8111H60.4158L60.4157 36.9663ZM60.4157 38.2553L60.4158 38.4106H60.5858V38.2554L60.4157 38.2553ZM54.5562 38.2553L54.3862 38.2554V38.4106H54.5563L54.5562 38.2553ZM54.5562 36.9663L54.5563 36.8111H54.3862V36.9663L54.5562 36.9663ZM58.1414 36.9663V44.6899H58.4815V36.9663H58.1414ZM58.3115 44.5347H56.6197V44.8451H58.3115V44.5347ZM56.7898 44.6899V36.9663H56.4497V44.6899H56.7898ZM56.6197 37.1215H58.3115V36.8111H56.6197V37.1215ZM60.2457 36.9663V38.2554H60.5858V36.9663H60.2457ZM60.4158 38.1002H54.5563V38.4106H60.4158V38.1002ZM54.7263 38.2554V36.9663H54.3862V38.2554H54.7263ZM54.5563 37.1215H60.4158V36.8111H54.5563V37.1215ZM33.6294 51.429L33.6294 51.2739H33.4641L33.4594 51.4246L33.6294 51.429ZM35.3209 51.429L35.4909 51.4346L35.4973 51.2739H35.321L35.3209 51.429ZM29.6358 52.2247L29.4722 52.2668L29.4727 52.2684L29.6358 52.2247ZM34.9257 47.4134L34.7738 47.4833L34.7747 47.4847L34.9257 47.4134ZM35.3383 48.8934L35.3383 49.0486H35.5213L35.508 48.8821L35.3383 48.8934ZM33.641 48.8934L33.4709 48.8979L33.4757 49.0486H33.641L33.641 48.8934ZM33.5015 48.0288L33.3401 48.0779L33.3413 48.0808L33.5015 48.0288ZM33.1294 47.5832L33.0454 47.7181L33.048 47.7193L33.1294 47.5832ZM31.8389 47.562L31.912 47.7021L31.9151 47.7007L31.8389 47.562ZM31.2054 48.5327L31.0379 48.5054L31.0375 48.5076L31.2054 48.5327ZM33.6294 51.5842H35.321V51.2739H33.6294V51.5842ZM35.1511 51.4233C35.1284 51.9862 35.0046 52.4518 34.7871 52.8257L35.0873 52.9717C35.3347 52.5463 35.4671 52.0317 35.4909 51.4346L35.1511 51.4233ZM34.7871 52.8257C34.5704 53.1947 34.264 53.4722 33.8645 53.6627L34.0219 53.9377C34.4828 53.7181 34.8388 53.3948 35.0873 52.9717L34.7871 52.8257ZM33.8645 53.6627C33.468 53.8534 32.9808 53.9527 32.3971 53.9527V54.2631C33.0223 54.2631 33.5656 54.1571 34.0219 53.9377L33.8645 53.6627ZM32.3971 53.9527C31.9469 53.9527 31.5535 53.8848 31.2137 53.7528L31.0792 54.0379C31.4682 54.1888 31.9093 54.2631 32.3971 54.2631V53.9527ZM31.2137 53.7528C30.8737 53.6175 30.5865 53.4206 30.3477 53.1597L30.0867 53.3586C30.3593 53.6565 30.6906 53.8832 31.0792 54.0379L31.2137 53.7528ZM30.3477 53.1597C30.1093 52.8992 29.9254 52.5744 29.7991 52.1811L29.4727 52.2684C29.6098 52.6955 29.8135 53.0603 30.0867 53.3586L30.3477 53.1597ZM29.7991 52.1811C29.6763 51.784 29.614 51.3245 29.614 50.7977H29.2739C29.2739 51.3462 29.3392 51.8364 29.4722 52.2668L29.7991 52.1811ZM29.614 50.7977V49.4875H29.2739V50.7977H29.614ZM29.614 49.4875C29.614 48.9616 29.6805 48.5014 29.8105 48.105L29.4849 48.015C29.3436 48.4463 29.2739 48.9384 29.2739 49.4875H29.614ZM29.8105 48.105C29.9446 47.7072 30.1321 47.3812 30.3708 47.1204L30.11 46.9212C29.8373 47.2191 29.6298 47.5851 29.4849 48.015L29.8105 48.105ZM30.3708 47.1204C30.6135 46.8558 30.9039 46.6587 31.2428 46.5271L31.1096 46.2416C30.7202 46.3927 30.3865 46.6199 30.11 46.9212L30.3708 47.1204ZM31.2428 46.5271C31.5867 46.3916 31.9789 46.3221 32.4202 46.3221V46.0117C31.9394 46.0117 31.502 46.087 31.1096 46.2416L31.2428 46.5271ZM32.4202 46.3221C33.0156 46.3221 33.5005 46.4245 33.8833 46.6205L34.0497 46.3497C33.6032 46.1213 33.0571 46.0117 32.4202 46.0117V46.3221ZM33.8833 46.6205C34.267 46.8167 34.5635 47.1027 34.7738 47.4833L35.0776 47.3436C34.8383 46.9108 34.4954 46.5779 34.0497 46.3497L33.8833 46.6205ZM34.7747 47.4847C34.9902 47.8646 35.1235 48.3363 35.1687 48.9046L35.508 48.8821C35.4603 48.2835 35.3186 47.7684 35.0767 47.3421L34.7747 47.4847ZM35.3383 48.7382H33.641V49.0486H35.3383V48.7382ZM33.8111 48.8889C33.7992 48.5141 33.7517 48.2074 33.6617 47.9767L33.3413 48.0808C33.4139 48.2674 33.4595 48.5371 33.4709 48.8979L33.8111 48.8889ZM33.6628 47.9796C33.5753 47.7405 33.4284 47.5551 33.2109 47.447L33.048 47.7193C33.1716 47.781 33.2724 47.8927 33.3401 48.0779L33.6628 47.9796ZM33.2134 47.4482C33.0071 47.3413 32.7374 47.2953 32.4202 47.2953V47.6057C32.7076 47.6057 32.9107 47.6483 33.0454 47.7181L33.2134 47.4482ZM32.4202 47.2953C32.1751 47.2953 31.9542 47.3359 31.7629 47.4231L31.9151 47.7007C32.0493 47.6396 32.2158 47.6057 32.4202 47.6057V47.2953ZM31.7658 47.4218C31.5692 47.5073 31.4115 47.645 31.292 47.8269L31.5836 47.9866C31.6734 47.8502 31.7833 47.758 31.912 47.7021L31.7658 47.4218ZM31.292 47.8269C31.1732 48.0074 31.0906 48.2358 31.0379 48.5054L31.3727 48.5599C31.4209 48.3133 31.4932 48.1244 31.5836 47.9866L31.292 47.8269ZM31.0375 48.5076C30.9891 48.7767 30.9656 49.1003 30.9656 49.477H31.3057C31.3057 49.1109 31.3287 48.8051 31.3731 48.5579L31.0375 48.5076ZM30.9656 49.477V50.7977H31.3057V49.477H30.9656ZM30.9656 50.7977C30.9656 51.1669 30.987 51.4863 31.0314 51.7545L31.3676 51.7083C31.3267 51.4601 31.3057 51.157 31.3057 50.7977H30.9656ZM31.0314 51.7545C31.0758 52.0197 31.1477 52.2466 31.2522 52.4291L31.5537 52.2856C31.4721 52.1428 31.4085 51.9522 31.3676 51.7083L31.0314 51.7545ZM31.2522 52.4291C31.3593 52.6166 31.5091 52.7602 31.7034 52.8508L31.8583 52.5746C31.7347 52.5168 31.6326 52.4234 31.5537 52.2856L31.2522 52.4291ZM31.7034 52.8508C31.8967 52.939 32.1316 52.9793 32.3971 52.9793V52.6689C32.1663 52.6689 31.9904 52.6349 31.8583 52.5746L31.7034 52.8508ZM32.3971 52.9793C32.6983 52.9793 32.9573 52.9388 33.1634 52.8469L33.0153 52.5674C32.8726 52.6311 32.6692 52.6689 32.3971 52.6689V52.9793ZM33.1634 52.8469C33.3884 52.7489 33.5451 52.575 33.6427 52.3443L33.3253 52.2325C33.2524 52.4049 33.1469 52.51 33.0153 52.5674L33.1634 52.8469ZM33.6427 52.3443C33.7381 52.1186 33.7876 51.8116 33.7993 51.4334L33.4594 51.4246C33.448 51.7891 33.4003 52.0551 33.3253 52.2325L33.6427 52.3443ZM37.0882 53.2857L36.9606 53.3884L36.9623 53.39L37.0882 53.2857ZM42.1105 48.0764L41.9482 48.1226L41.9487 48.1241L42.1105 48.0764ZM38.2739 47.9492L38.1306 47.8657L38.1292 47.8677L38.2739 47.9492ZM38.0181 48.5911L37.8515 48.5602L37.8511 48.5618L38.0181 48.5911ZM38.71 52.7074L38.6324 52.8457L38.6367 52.8476L38.71 52.7074ZM42.1614 49.5406V50.8297H42.5016V49.5406H42.1614ZM42.1614 50.8297C42.1614 51.3619 42.0893 51.8223 41.9488 52.2136L42.2721 52.3101C42.4262 51.8808 42.5016 51.3865 42.5016 50.8297H42.1614ZM41.9488 52.2136C41.8114 52.6031 41.6165 52.9255 41.367 53.1828L41.6218 53.3884C41.907 53.0942 42.1226 52.734 42.2721 52.3101L41.9488 52.2136ZM41.367 53.1828C41.1214 53.4365 40.8236 53.6279 40.4718 53.757L40.5986 54.0449C40.9986 53.8983 41.3405 53.6791 41.6218 53.3884L41.367 53.1828ZM40.4718 53.757C40.1224 53.8865 39.7313 53.9527 39.2971 53.9527V54.2631C39.7695 54.2631 40.2039 54.1913 40.5986 54.0449L40.4718 53.757ZM39.2971 53.9527C38.8627 53.9527 38.47 53.8866 38.1164 53.757L37.9891 54.0448C38.3875 54.191 38.8244 54.2631 39.2971 54.2631V53.9527ZM38.1164 53.757C37.7681 53.6279 37.4681 53.4364 37.2139 53.1812L36.9623 53.39C37.2506 53.6794 37.5933 53.8981 37.9891 54.0448L38.1164 53.757ZM37.2156 53.1828C36.9656 52.925 36.7688 52.6031 36.6276 52.2131L36.3045 52.3101C36.4577 52.7335 36.6756 53.0945 36.9606 53.3884L37.2156 53.1828ZM36.6276 52.2131C36.4871 51.8219 36.4152 51.3619 36.4152 50.8297H36.0751C36.0751 51.3865 36.1504 51.8808 36.3045 52.3101L36.6276 52.2131ZM36.4152 50.8297V49.5406H36.0751V50.8297H36.4152ZM36.4152 49.5406C36.4152 48.9934 36.4856 48.5217 36.6225 48.1229L36.298 48.0301C36.1482 48.4658 36.0751 48.9702 36.0751 49.5406H36.4152ZM36.6225 48.1229C36.7601 47.7193 36.9569 47.3894 37.2096 47.1291L36.955 46.9233C36.665 47.2218 36.4473 47.5921 36.298 48.0301L36.6225 48.1229ZM37.2096 47.1291C37.4642 46.8637 37.7652 46.6649 38.1127 46.5329L37.9819 46.2464C37.5853 46.3972 37.2429 46.623 36.955 46.9233L37.2096 47.1291ZM38.1127 46.5329C38.4612 46.3971 38.8522 46.3274 39.2853 46.3274V46.017C38.8119 46.017 38.3775 46.0921 37.9819 46.2464L38.1127 46.5329ZM39.2853 46.3274C39.7187 46.3274 40.1083 46.3966 40.4568 46.5324L40.5905 46.247C40.1949 46.0927 39.759 46.017 39.2853 46.017V46.3274ZM40.4568 46.5324C40.8042 46.6645 41.106 46.863 41.3606 47.1284L41.6165 46.924C41.3286 46.6236 40.9871 46.3978 40.5905 46.247L40.4568 46.5324ZM41.3606 47.1284C41.6133 47.3886 41.8106 47.719 41.9482 48.1226L42.273 48.0304C42.1237 47.5924 41.9065 47.2224 41.6165 46.924L41.3606 47.1284ZM41.9487 48.1241C42.0893 48.5225 42.1614 48.9938 42.1614 49.5406H42.5016C42.5016 48.9699 42.4269 48.4665 42.273 48.0304L41.9487 48.1241ZM40.8099 50.8297V49.53H40.4697V50.8297H40.8099ZM40.8099 49.53C40.8099 49.1554 40.7804 48.8313 40.7192 48.5597L40.386 48.6218C40.4411 48.8666 40.4697 49.1689 40.4697 49.53H40.8099ZM40.7192 48.5597C40.6583 48.2855 40.5651 48.0526 40.4343 47.8657L40.1478 48.0327C40.2495 48.1783 40.3306 48.3727 40.386 48.6218L40.7192 48.5597ZM40.4343 47.8657C40.3044 47.6799 40.1416 47.5371 39.9442 47.445L39.7893 47.7214C39.9251 47.7847 40.0452 47.886 40.1478 48.0327L40.4343 47.8657ZM39.9442 47.445C39.7496 47.3542 39.5284 47.3113 39.2853 47.3113V47.6217C39.4842 47.6217 39.6505 47.6566 39.7893 47.7214L39.9442 47.445ZM39.2853 47.3113C39.0423 47.3113 38.8199 47.3542 38.6222 47.4443L38.7744 47.722C38.9178 47.6565 39.0867 47.6217 39.2853 47.6217V47.3113ZM38.6222 47.4443C38.4248 47.5365 38.2605 47.6799 38.1306 47.8657L38.4173 48.0327C38.5198 47.886 38.6386 47.7853 38.7744 47.722L38.6222 47.4443ZM38.1292 47.8677C38.0032 48.0541 37.9122 48.2868 37.8515 48.5602L38.1848 48.6218C38.2404 48.372 38.3198 48.1767 38.4187 48.0307L38.1292 47.8677ZM37.8511 48.5618C37.7943 48.8326 37.7668 49.1559 37.7668 49.53H38.1069C38.1069 49.1684 38.1336 48.8658 38.1851 48.6203L37.8511 48.5618ZM37.7668 49.53V50.8297H38.1069V49.53H37.7668ZM37.7668 50.8297C37.7668 51.1904 37.7964 51.504 37.8576 51.7688L38.1904 51.7047C38.1355 51.4672 38.1069 51.1762 38.1069 50.8297H37.7668ZM37.8576 51.7688C37.9188 52.0329 38.0125 52.258 38.1442 52.4382L38.4272 52.2659C38.3261 52.1278 38.2455 51.9426 38.1904 51.7047L37.8576 51.7688ZM38.1442 52.4382C38.2744 52.6166 38.437 52.7544 38.6324 52.8457L38.7874 52.5693C38.6496 52.5049 38.5292 52.4057 38.4272 52.2659L38.1442 52.4382ZM38.6367 52.8476C38.8336 52.9332 39.0551 52.9741 39.2971 52.9741V52.6637C39.0972 52.6637 38.9273 52.6301 38.7831 52.5674L38.6367 52.8476ZM39.2971 52.9741C39.5355 52.9741 39.7537 52.9331 39.9471 52.8469L39.7979 52.5681C39.6581 52.6303 39.4927 52.6637 39.2971 52.6637V52.9741ZM39.9471 52.8469C40.1473 52.7555 40.3124 52.6165 40.4398 52.4361L40.1539 52.2679C40.0566 52.4059 39.9389 52.5038 39.7979 52.5681L39.9471 52.8469ZM40.4398 52.4361C40.5667 52.2566 40.658 52.0322 40.719 51.7688L40.3862 51.7047C40.3309 51.9434 40.2519 52.1293 40.1539 52.2679L40.4398 52.4361ZM40.719 51.7688C40.7803 51.504 40.8099 51.1904 40.8099 50.8297H40.4697C40.4697 51.1762 40.4412 51.4672 40.3862 51.7047L40.719 51.7688ZM44.2846 54.0018L44.1145 54.0005L44.1132 54.157H44.2846L44.2846 54.0018ZM44.2962 52.7181L44.2962 52.5629H44.1276L44.1261 52.7167L44.2962 52.7181ZM47.2202 51.8799L47.0575 51.8346L47.0569 51.8363L47.2202 51.8799ZM47.0341 48.0234L46.895 48.1128L46.8962 48.1142L47.0341 48.0234ZM44.2555 47.5672L44.0854 47.5673V47.7224H44.2555L44.2555 47.5672ZM44.2555 46.2782L44.2555 46.123H44.0854V46.2782L44.2555 46.2782ZM45.2729 46.2782L45.443 46.2782V46.123H45.2729L45.2729 46.2782ZM45.2729 54.0018L45.2729 54.157H45.443V54.0018L45.2729 54.0018ZM43.5696 54.0018L43.3995 54.0018V54.157H43.5696L43.5696 54.0018ZM43.5696 46.2782L43.5696 46.123H43.3995V46.2782L43.5696 46.2782ZM45.7785 53.8466H44.2846V54.157H45.7785V53.8466ZM44.4547 54.003L44.4662 52.7194L44.1261 52.7167L44.1145 54.0005L44.4547 54.003ZM44.2962 52.8733H45.7785V52.5629H44.2962V52.8733ZM45.7785 52.8733C46.2064 52.8733 46.5631 52.8038 46.8297 52.6469L46.6455 52.386C46.4551 52.4981 46.1722 52.5629 45.7785 52.5629V52.8733ZM46.8297 52.6469C47.0998 52.4883 47.2814 52.2412 47.3833 51.9235L47.0569 51.8363C46.9728 52.0986 46.8328 52.276 46.6455 52.386L46.8297 52.6469ZM47.3828 51.9252C47.4865 51.6148 47.5355 51.2177 47.5355 50.7394H47.1954C47.1954 51.2018 47.1476 51.5652 47.0575 51.8346L47.3828 51.9252ZM47.5355 50.7394V49.5353H47.1954V50.7394H47.5355ZM47.5355 49.5353C47.5355 49.1722 47.51 48.8597 47.4571 48.5998L47.1226 48.6561C47.1704 48.8912 47.1954 49.184 47.1954 49.5353H47.5355ZM47.4571 48.5998C47.4037 48.3338 47.3114 48.1089 47.1721 47.9327L46.8962 48.1142C46.9972 48.2421 47.0753 48.4199 47.1226 48.6561L47.4571 48.5998ZM47.1731 47.9341C47.0333 47.753 46.8459 47.6197 46.6154 47.5348L46.4881 47.8226C46.6605 47.8862 46.7945 47.9827 46.895 48.1128L47.1731 47.9341ZM46.6154 47.5348C46.3875 47.4509 46.1144 47.4121 45.8018 47.4121V47.7224C46.086 47.7224 46.3127 47.758 46.4881 47.8226L46.6154 47.5348ZM45.8018 47.4121H44.2555V47.7224H45.8018V47.4121ZM44.4256 47.5673V46.2782H44.0854V47.5673H44.4256ZM44.2555 46.4334H45.8018V46.123H44.2555V46.4334ZM45.8018 46.4334C46.2716 46.4334 46.6935 46.5031 47.07 46.6399L47.1959 46.3516C46.7741 46.1984 46.3086 46.123 45.8018 46.123V46.4334ZM47.07 46.6399C47.4466 46.7767 47.7685 46.9761 48.0377 47.2384L48.286 47.0262C47.9818 46.7298 47.6177 46.5048 47.1959 46.3516L47.07 46.6399ZM48.0377 47.2384C48.306 47.4962 48.5158 47.8184 48.664 48.2071L48.9852 48.105C48.8233 47.6804 48.5915 47.32 48.286 47.0262L48.0377 47.2384ZM48.664 48.2071C48.8116 48.5944 48.8871 49.0399 48.8871 49.5459H49.2272C49.2272 49.0121 49.1476 48.5312 48.9852 48.105L48.664 48.2071ZM48.8871 49.5459V50.7394H49.2272V49.5459H48.8871ZM48.8871 50.7394C48.8871 51.2492 48.8116 51.6944 48.6641 52.0778L48.9851 52.1807C49.1476 51.7578 49.2272 51.2765 49.2272 50.7394H48.8871ZM48.6641 52.0778C48.516 52.463 48.3066 52.785 48.0377 53.047L48.286 53.2591C48.5906 52.9623 48.8231 52.6017 48.9851 52.1807L48.6641 52.0778ZM48.0377 53.047C47.7728 53.3052 47.4513 53.503 47.0705 53.6399L47.1954 53.9287C47.6207 53.7757 47.9852 53.5525 48.286 53.2591L48.0377 53.047ZM47.0705 53.6399C46.6903 53.7767 46.2603 53.8466 45.7785 53.8466V54.157C46.2966 54.157 46.7697 54.0819 47.1954 53.9287L47.0705 53.6399ZM45.1028 46.2782V54.0018H45.443V46.2782H45.1028ZM45.2729 53.8466H43.5696V54.157H45.2729V53.8466ZM43.7397 54.0018V46.2782H43.3995V54.0018H43.7397ZM43.5696 46.4334H45.2729V46.123H43.5696V46.4334ZM52.0683 46.2782L52.2384 46.2782V46.123H52.0683L52.0683 46.2782ZM52.0683 54.0018L52.0683 54.157H52.2384V54.0018L52.0683 54.0018ZM50.3766 54.0018L50.2065 54.0018V54.157H50.3766L50.3766 54.0018ZM50.3766 46.2782L50.3766 46.123H50.2065V46.2782L50.3766 46.2782ZM51.8982 46.2782V54.0018H52.2384V46.2782H51.8982ZM52.0683 53.8466H50.3766V54.157H52.0683V53.8466ZM50.5466 54.0018V46.2782H50.2065V54.0018H50.5466ZM50.3766 46.4334H52.0683V46.123H50.3766V46.4334ZM59.439 46.2782L59.6091 46.2782V46.123H59.439L59.439 46.2782ZM59.439 54.0018L59.439 54.157H59.6091V54.0018L59.439 54.0018ZM57.7941 54.0018L57.6421 54.0713L57.689 54.157H57.7941L57.7941 54.0018ZM55.1374 49.1692L55.2894 49.0997L54.9673 49.1692L55.1374 49.1692ZM55.1374 54.0018L55.1374 54.157H55.3075V54.0018L55.1374 54.0018ZM53.5215 54.0018L53.3515 54.0018V54.157H53.5215L53.5215 54.0018ZM53.5215 46.2782L53.5215 46.123H53.3515V46.2782L53.5215 46.2782ZM55.1433 46.2782L55.2954 46.2088L55.2483 46.123H55.1434L55.1433 46.2782ZM57.823 51.1638L57.671 51.2332L57.9931 51.1638L57.823 51.1638ZM57.823 46.2782L57.823 46.123H57.6529V46.2782L57.823 46.2782ZM59.269 46.2782V54.0018H59.6091V46.2782H59.269ZM59.439 53.8466H57.7941V54.157H59.439V53.8466ZM57.946 53.9322L55.2894 49.0997L54.9855 49.2389L57.6421 54.0713L57.946 53.9322ZM54.9673 49.1692V54.0018H55.3075V49.1692H54.9673ZM55.1374 53.8466H53.5215V54.157H55.1374V53.8466ZM53.6916 54.0018V46.2782H53.3515V54.0018H53.6916ZM53.5215 46.4334H55.1434V46.123H53.5215V46.4334ZM54.9911 46.3477L57.671 51.2332L57.9752 51.0943L55.2954 46.2088L54.9911 46.3477ZM57.9931 51.1638V46.2782H57.6529V51.1638H57.9931ZM57.823 46.4334H59.439V46.123H57.823V46.4334ZM66.5601 49.9438L66.7302 49.9438V49.7886H66.5601L66.5601 49.9438ZM66.5601 53.1264L66.6839 53.2328L66.7302 53.1879V53.1265L66.5601 53.1264ZM61.5202 53.2962L61.3935 53.3999L61.3952 53.4015L61.5202 53.2962ZM66.5541 48.7289L66.5542 48.8841H66.7366L66.7239 48.718L66.5541 48.7289ZM64.9092 48.7289L64.7395 48.7407L64.7516 48.8841H64.9092L64.9092 48.7289ZM64.7289 47.9652L64.5733 48.0279L64.5745 48.0302L64.7289 47.9652ZM64.351 47.5725L64.2694 47.7086L64.2721 47.71L64.351 47.5725ZM63.1304 47.562L63.202 47.7027L63.2049 47.7013L63.1304 47.562ZM62.7467 52.3626L62.6056 52.4493L62.6071 52.4513L62.7467 52.3626ZM63.2117 52.7181L63.1435 52.8603L63.1474 52.8617L63.2117 52.7181ZM64.6708 52.6438L64.7616 52.7751L64.7635 52.7738L64.6708 52.6438ZM64.8626 52.5376L64.9432 52.6744L65.0327 52.6304V52.5376L64.8626 52.5376ZM64.8626 51.116L65.0327 51.116V50.9608H64.8626L64.8626 51.116ZM63.6478 51.116L63.4777 51.116V51.2712H63.6478L63.6478 51.116ZM63.6478 49.9438L63.6478 49.7886H63.4777V49.9438L63.6478 49.9438ZM66.39 49.9438V53.1265H66.7302V49.9438H66.39ZM66.4361 53.0203C66.3261 53.1271 66.1593 53.2568 65.9305 53.4098L66.1312 53.6603C66.3674 53.5022 66.5536 53.3594 66.6839 53.2328L66.4361 53.0203ZM65.9305 53.4098C65.7198 53.55 65.4364 53.6779 65.0747 53.7913L65.1844 54.0853C65.5667 53.9653 65.8848 53.8244 66.1312 53.6603L65.9305 53.4098ZM65.0747 53.7913C64.7291 53.8976 64.3002 53.9527 63.7815 53.9527V54.2631C64.3245 54.2631 64.7936 54.2052 65.1844 54.0853L65.0747 53.7913ZM63.7815 53.9527C63.3304 53.9527 62.9252 53.888 62.5634 53.7614L62.4411 54.051C62.8468 54.1931 63.2946 54.2631 63.7815 54.2631V53.9527ZM62.5634 53.7614C62.2076 53.6357 61.9027 53.4459 61.6452 53.191L61.3952 53.4015C61.6879 53.6912 62.0372 53.908 62.4411 54.051L62.5634 53.7614ZM61.6467 53.1926C61.3938 52.9356 61.1974 52.6127 61.0602 52.2199L60.736 52.314C60.8855 52.7417 61.1037 53.1054 61.3935 53.3999L61.6467 53.1926ZM61.0602 52.2199C60.9232 51.8251 60.8532 51.3522 60.8532 50.7977H60.513C60.513 51.3749 60.586 51.8813 60.736 52.314L61.0602 52.2199ZM60.8532 50.7977V49.4822H60.513V50.7977H60.8532ZM60.8532 49.4822C60.8532 48.9344 60.9197 48.4637 61.0494 48.0679L60.7239 47.9782C60.5824 48.41 60.513 48.9125 60.513 49.4822H60.8532ZM61.0494 48.0679C61.1833 47.6677 61.3743 47.3422 61.6194 47.0857L61.3629 46.8817C61.0809 47.1769 60.869 47.544 60.7239 47.9782L61.0494 48.0679ZM61.6194 47.0857C61.8656 46.8279 62.1576 46.6373 62.4966 46.5124L62.3697 46.2243C61.9801 46.368 61.6437 46.588 61.3629 46.8817L61.6194 47.0857ZM62.4966 46.5124C62.8417 46.3864 63.2338 46.3221 63.6767 46.3221V46.0117C63.1975 46.0117 62.7609 46.0815 62.3697 46.2243L62.4966 46.5124ZM63.6767 46.3221C64.2948 46.3221 64.7866 46.4168 65.1616 46.596L65.3194 46.3212C64.8807 46.1113 64.3298 46.0117 63.6767 46.0117V46.3221ZM65.1616 46.596C65.5402 46.7753 65.8251 47.0397 66.0184 47.3927L66.3227 47.2539C66.0975 46.8429 65.7625 46.531 65.3194 46.3212L65.1616 46.596ZM66.0184 47.3927C66.2188 47.7513 66.3431 48.1994 66.3846 48.7398L66.7239 48.718C66.6802 48.148 66.5487 47.659 66.3227 47.2539L66.0184 47.3927ZM66.5542 48.5737H64.9092V48.8841H66.5542V48.5737ZM65.0788 48.7173C65.0509 48.3833 64.9885 48.1078 64.8834 47.9L64.5745 48.0302C64.6555 48.1902 64.7131 48.4239 64.7395 48.7407L65.0788 48.7173ZM64.8844 47.9023C64.783 47.693 64.6332 47.5322 64.43 47.435L64.2721 47.71C64.3944 47.7685 64.4966 47.8694 64.5733 48.0279L64.8844 47.9023ZM64.4328 47.4364C64.2369 47.3386 63.9949 47.2953 63.7175 47.2953V47.6057C63.9594 47.6057 64.1396 47.6439 64.2694 47.7086L64.4328 47.4364ZM63.7175 47.2953C63.4723 47.2953 63.25 47.3359 63.0558 47.4225L63.2049 47.7013C63.344 47.6394 63.5131 47.6057 63.7175 47.6057V47.2953ZM63.0587 47.4212C62.8582 47.5063 62.6952 47.6452 62.568 47.8292L62.8558 47.9948C62.9532 47.8536 63.0692 47.7591 63.202 47.7027L63.0587 47.4212ZM62.568 47.8292C62.4411 48.0128 62.3519 48.2411 62.2949 48.5084L62.6287 48.5677C62.6804 48.3257 62.7576 48.1367 62.8558 47.9948L62.568 47.8292ZM62.2949 48.5084C62.2379 48.7759 62.2104 49.0977 62.2104 49.4717H62.5505C62.5505 49.1101 62.5774 48.8095 62.6287 48.5677L62.2949 48.5084ZM62.2104 49.4717V50.7977H62.5505V49.4717H62.2104ZM62.2104 50.7977C62.2104 51.1694 62.242 51.4924 62.3073 51.7646L62.6396 51.6982C62.5809 51.4542 62.5505 51.1547 62.5505 50.7977H62.2104ZM62.3073 51.7646C62.3724 52.0357 62.4702 52.2659 62.6056 52.4493L62.8877 52.276C62.783 52.134 62.6985 51.9434 62.6396 51.6982L62.3073 51.7646ZM62.6071 52.4513C62.7478 52.6357 62.9267 52.7737 63.1435 52.8603L63.2799 52.5758C63.1247 52.5139 62.9937 52.4149 62.8864 52.274L62.6071 52.4513ZM63.1474 52.8617C63.3621 52.9418 63.6077 52.9793 63.8803 52.9793V52.6689C63.6412 52.6689 63.4412 52.6359 63.276 52.5744L63.1474 52.8617ZM63.8803 52.9793C64.0951 52.9793 64.2806 52.9593 64.4296 52.9126L64.3191 52.619C64.2199 52.6502 64.0762 52.6689 63.8803 52.6689V52.9793ZM64.4296 52.9126C64.5606 52.8715 64.6728 52.8263 64.7616 52.7751L64.58 52.5126C64.5216 52.5462 64.4362 52.5823 64.3191 52.619L64.4296 52.9126ZM64.7635 52.7738C64.8392 52.729 64.8987 52.6962 64.9432 52.6744L64.782 52.4011C64.7259 52.4287 64.6575 52.4666 64.5781 52.5137L64.7635 52.7738ZM65.0327 52.5376V51.116H64.6926V52.5376H65.0327ZM64.8626 50.9608H63.6478V51.2712H64.8626V50.9608ZM63.8179 51.116V49.9438H63.4777V51.116H63.8179ZM63.6478 50.099H66.5601V49.7886H63.6478V50.099Z" fill="#FE9F35"></path><path d="M54.4348 74.6568L53.3985 74.409L53.7725 71.084H57.458V72.1338H54.8403L54.6781 73.589C54.7652 73.538 54.8973 73.4839 55.0746 73.4268C55.2518 73.3668 55.45 73.3367 55.6693 73.3367C55.9877 73.3367 56.27 73.3863 56.5163 73.4854C56.7626 73.5845 56.9714 73.7287 57.1426 73.9179C57.3168 74.1072 57.449 74.3384 57.5391 74.6118C57.6292 74.8851 57.6742 75.1945 57.6742 75.5399C57.6742 75.8313 57.6292 76.1091 57.5391 76.3734C57.449 76.6347 57.3123 76.869 57.1291 77.0763C56.9458 77.2805 56.7161 77.4412 56.4397 77.5584C56.1634 77.6755 55.836 77.7341 55.4575 77.7341C55.1752 77.7341 54.9019 77.692 54.6375 77.6079C54.3762 77.5238 54.1404 77.3992 53.9302 77.234C53.7229 77.0688 53.5562 76.869 53.4301 76.6347C53.3069 76.3974 53.2423 76.1271 53.2363 75.8237H54.5249C54.5429 76.01 54.591 76.1707 54.6691 76.3058C54.7502 76.438 54.8568 76.5401 54.989 76.6122C55.1211 76.6843 55.2758 76.7203 55.453 76.7203C55.6182 76.7203 55.7594 76.6888 55.8765 76.6257C55.9937 76.5626 56.0883 76.4755 56.1604 76.3644C56.2325 76.2503 56.285 76.1181 56.3181 75.9679C56.3541 75.8147 56.3721 75.6495 56.3721 75.4723C56.3721 75.2951 56.3511 75.1344 56.3091 74.9902C56.267 74.8461 56.2024 74.7214 56.1153 74.6163C56.0282 74.5112 55.9171 74.4301 55.7819 74.373C55.6498 74.3159 55.4951 74.2874 55.3179 74.2874C55.0776 74.2874 54.8913 74.3249 54.7592 74.4C54.63 74.4751 54.5219 74.5607 54.4348 74.6568Z" fill="white"></path><path d="M52.4033 76.6311V77.6448H47.9158V76.7798L50.0379 74.5045C50.2512 74.2672 50.4194 74.0585 50.5425 73.8782C50.6657 73.695 50.7543 73.5313 50.8083 73.3871C50.8654 73.24 50.8939 73.1003 50.8939 72.9681C50.8939 72.7699 50.8609 72.6002 50.7948 72.459C50.7287 72.3148 50.6311 72.2037 50.502 72.1256C50.3758 72.0475 50.2196 72.0085 50.0334 72.0085C49.8351 72.0085 49.6639 72.0565 49.5198 72.1526C49.3786 72.2488 49.2705 72.3824 49.1954 72.5536C49.1233 72.7248 49.0872 72.9186 49.0872 73.1348H47.7852C47.7852 72.7444 47.8783 72.3869 48.0645 72.0625C48.2507 71.7351 48.5135 71.4753 48.853 71.2831C49.1924 71.0879 49.5949 70.9902 50.0604 70.9902C50.52 70.9902 50.9075 71.0653 51.2228 71.2155C51.5412 71.3627 51.7815 71.5759 51.9437 71.8553C52.1089 72.1316 52.1915 72.462 52.1915 72.8465C52.1915 73.0628 52.157 73.2745 52.0879 73.4818C52.0188 73.686 51.9197 73.8903 51.7905 74.0945C51.6644 74.2958 51.5112 74.5 51.331 74.7073C51.1507 74.9145 50.951 75.1293 50.7317 75.3515L49.5919 76.6311H52.4033Z" fill="white"></path><path d="M47.0336 73.7895V74.9249C47.0336 75.4175 46.981 75.8425 46.8759 76.1999C46.7708 76.5544 46.6191 76.8457 46.4209 77.074C46.2256 77.2993 45.9928 77.466 45.7225 77.5741C45.4522 77.6822 45.1518 77.7363 44.8214 77.7363C44.5571 77.7363 44.3108 77.7032 44.0825 77.6372C43.8542 77.5681 43.6485 77.4615 43.4653 77.3173C43.285 77.1731 43.1289 76.9914 42.9967 76.7721C42.8675 76.5498 42.7684 76.2855 42.6993 75.9792C42.6302 75.6728 42.5957 75.3214 42.5957 74.9249V73.7895C42.5957 73.2969 42.6483 72.8749 42.7534 72.5235C42.8615 72.169 43.0132 71.8792 43.2084 71.6539C43.4067 71.4286 43.641 71.2634 43.9113 71.1583C44.1816 71.0502 44.482 70.9961 44.8124 70.9961C45.0767 70.9961 45.3215 71.0306 45.5468 71.0997C45.7751 71.1658 45.9808 71.2694 46.164 71.4106C46.3473 71.5518 46.5035 71.7335 46.6326 71.9558C46.7618 72.175 46.8609 72.4378 46.93 72.7442C46.9991 73.0476 47.0336 73.396 47.0336 73.7895ZM45.7315 75.0961V73.6138C45.7315 73.3765 45.718 73.1692 45.691 72.992C45.6669 72.8148 45.6294 72.6646 45.5783 72.5415C45.5273 72.4153 45.4642 72.3132 45.3891 72.2351C45.314 72.157 45.2284 72.0999 45.1323 72.0639C45.0362 72.0278 44.9295 72.0098 44.8124 72.0098C44.6652 72.0098 44.5346 72.0384 44.4204 72.0954C44.3093 72.1525 44.2147 72.2441 44.1366 72.3703C44.0585 72.4934 43.9984 72.6586 43.9564 72.8659C43.9173 73.0701 43.8978 73.3194 43.8978 73.6138V75.0961C43.8978 75.3334 43.9098 75.5421 43.9338 75.7223C43.9609 75.9026 43.9999 76.0572 44.051 76.1864C44.105 76.3126 44.1681 76.4162 44.2402 76.4973C44.3153 76.5754 44.4009 76.6324 44.497 76.6685C44.5961 76.7045 44.7043 76.7226 44.8214 76.7226C44.9656 76.7226 45.0932 76.694 45.2044 76.637C45.3185 76.5769 45.4146 76.4838 45.4927 76.3576C45.5738 76.2285 45.6339 76.0603 45.6729 75.853C45.712 75.6457 45.7315 75.3934 45.7315 75.0961Z" fill="white"></path><path d="M41.8076 76.6311V77.6448H37.3201V76.7798L39.4422 74.5045C39.6555 74.2672 39.8237 74.0585 39.9468 73.8782C40.07 73.695 40.1586 73.5313 40.2126 73.3871C40.2697 73.24 40.2982 73.1003 40.2982 72.9681C40.2982 72.7699 40.2652 72.6002 40.1991 72.459C40.133 72.3148 40.0354 72.2037 39.9063 72.1256C39.7801 72.0475 39.6239 72.0085 39.4377 72.0085C39.2394 72.0085 39.0682 72.0565 38.9241 72.1526C38.7829 72.2488 38.6748 72.3824 38.5997 72.5536C38.5276 72.7248 38.4915 72.9186 38.4915 73.1348H37.1895C37.1895 72.7444 37.2826 72.3869 37.4688 72.0625C37.655 71.7351 37.9178 71.4753 38.2573 71.2831C38.5967 71.0879 38.9992 70.9902 39.4647 70.9902C39.9243 70.9902 40.3117 71.0653 40.6271 71.2155C40.9455 71.3627 41.1858 71.5759 41.348 71.8553C41.5132 72.1316 41.5958 72.462 41.5958 72.8465C41.5958 73.0628 41.5613 73.2745 41.4922 73.4818C41.4231 73.686 41.324 73.8903 41.1948 74.0945C41.0687 74.2958 40.9155 74.5 40.7353 74.7073C40.555 74.9145 40.3553 75.1293 40.136 75.3515L38.9962 76.6311H41.8076Z" fill="white"></path></g><defs><clipPath id="clip0_2082_25211"><rect width="96.0982" height="96" fill="white"></rect></clipPath></defs></svg> 