<?xml version="1.0" encoding="UTF-8"?> <svg xmlns="http://www.w3.org/2000/svg" width="72" height="72" viewBox="0 0 72 72" fill="none"> <path fill-rule="evenodd" clip-rule="evenodd" d="M22.5 12H25.5H28.5H31.5H34.5V15H31.5H28.5H25.5H22.5V12ZM16.5 18V15H19.5H22.5V18H19.5H16.5ZM13.5 24V21V18H16.5V21V24H13.5ZM13.5 36H10.5V33V30V27V24H13.5V27V30V33V36ZM16.5 42H13.5V39V36H16.5V39V42ZM22.5 45H19.5H16.5V42H19.5H22.5V45ZM34.5 45V48H31.5H28.5H25.5H22.5V45H25.5H28.5H31.5H34.5ZM40.5 42V45H37.5H34.5V42H37.5H40.5ZM43.5 36H40.5V39V42H43.5V45V48V51H46.5V54H49.5V57H52.5V60H55.5V57H58.5V54H61.5V51H58.5V48H55.5V45H52.5V42H49.5H46.5H43.5V39V36ZM43.5 24H46.5V27V30V33V36H43.5V33V30V27V24ZM40.5 18H43.5V21V24H40.5V21V18ZM40.5 18V15H37.5H34.5V18H37.5H40.5ZM24 19.5H27H30V22.5H27H24V19.5ZM21 25.5V22.5H24V25.5H21ZM21 25.5V28.5V31.5H18V28.5V25.5H21Z" fill="#1A1A1A"></path> </svg> 