<?xml version="1.0" encoding="UTF-8"?> <svg xmlns="http://www.w3.org/2000/svg" width="116" height="120" viewBox="0 0 116 120" fill="none"><ellipse cx="52" cy="25.5" rx="52" ry="25.5" transform="matrix(0.890662 -0.454667 0.456799 0.88957 0 75)" fill="#1A1A1A" stroke="#1A1A1A" stroke-width="1.2285"></ellipse><path d="M90.2685 82.3315C87.594 83.8061 87.594 85.2471 80.7593 89.7048C70.3587 96.4883 69.9681 95.3039 69.9681 95.3039L58.4527 66.3091C58.4527 66.3091 50.3575 34.2458 53.0705 33.4782C55.3321 32.766 57.5524 31.9303 59.7211 30.975L65.9041 21.4922L72.0388 21.8989L75.3735 30.2797L75.9509 56.3386L90.2685 82.3315Z" fill="#E5A885"></path><path d="M90.8467 81.5464L78 59.002" stroke="#1A1A1A" stroke-width="1.2285" stroke-miterlimit="10"></path><path d="M56.3303 35.4139C56.3303 35.4139 55.9239 30.3904 55.5261 28.223C55.1979 26.6599 54.7699 25.1195 54.2445 23.6116C54.1426 23.1207 53.8708 22.6818 53.4774 22.373C53.084 22.0643 52.5945 21.9055 52.0959 21.9251C51.8012 21.9358 51.512 22.0089 51.2474 22.1396C50.9828 22.2703 50.7487 22.4556 50.5603 22.6835C50.3719 22.9114 50.2335 23.1767 50.1542 23.4621C50.0748 23.7475 50.0563 24.0465 50.0998 24.3397C50.0998 24.3397 50.6765 28.695 50.9243 30.4389C51.2834 32.8775 51.9007 39.9649 51.9007 39.9649C51.9007 39.9649 51.1933 60.3036 55.9267 65.8917C56.8195 67.0209 57.8578 68.0258 59.0142 68.8799L69.7387 95.328" fill="#E5A885"></path><path d="M56.3303 35.4139C56.3303 35.4139 55.9239 30.3904 55.5261 28.223C55.1979 26.6599 54.7699 25.1195 54.2445 23.6116C54.1426 23.1207 53.8708 22.6818 53.4774 22.373C53.084 22.0643 52.5945 21.9055 52.0959 21.9251C51.8012 21.9358 51.512 22.0089 51.2474 22.1396C50.9828 22.2703 50.7487 22.4556 50.5603 22.6835C50.3719 22.9114 50.2335 23.1767 50.1542 23.4621C50.0748 23.7475 50.0563 24.0465 50.0998 24.3397C50.0998 24.3397 50.6765 28.695 50.9243 30.4389C51.2834 32.8775 51.9007 39.9649 51.9007 39.9649C51.9007 39.9649 51.1933 60.3036 55.9267 65.8917C56.8195 67.0209 57.8578 68.0258 59.0142 68.8799L69.7387 95.328" stroke="#1A1A1A" stroke-width="1.2285" stroke-miterlimit="10"></path><path d="M63.5073 29.5122L61.1079 17.6517C61.0499 17.357 60.9308 17.0775 60.7582 16.8307C60.5855 16.5839 60.363 16.3753 60.1047 16.2178C59.8465 16.0604 59.558 15.9577 59.2575 15.9161C58.9571 15.8745 58.6512 15.895 58.3591 15.9763C57.8716 16.1071 57.4437 16.3985 57.1461 16.8023C56.8484 17.2062 56.6988 17.6983 56.7219 18.1975C56.7828 19.8348 57.9554 24.3625 58.0033 28.0123C57.8365 31.0313 57.4276 34.0324 56.7804 36.9874" fill="#E5A885"></path><path d="M63.5073 29.5122L61.1079 17.6517C61.0499 17.357 60.9308 17.0775 60.7582 16.8307C60.5855 16.5839 60.363 16.3753 60.1047 16.2178C59.8465 16.0604 59.558 15.9577 59.2575 15.9161C58.9571 15.8745 58.6512 15.895 58.3591 15.9763C57.8716 16.1071 57.4437 16.3985 57.1461 16.8023C56.8484 17.2062 56.6988 17.6983 56.7219 18.1975C56.7828 19.8348 57.9554 24.3625 58.0033 28.0123C57.8365 31.0313 57.4276 34.0324 56.7804 36.9874" stroke="#1A1A1A" stroke-width="1.2285" stroke-miterlimit="10"></path><path d="M69.383 21.1502L68.03 13.0648C67.9239 12.4284 67.5794 11.8517 67.0613 11.443C66.5432 11.0343 65.8871 10.8218 65.2163 10.8454C64.4863 10.8722 63.7965 11.1764 63.2988 11.6912C62.801 12.2059 62.536 12.889 62.5621 13.5902L63.043 26.5211C63.0636 30.0337 62.7027 33.5396 61.9662 36.982" fill="#E5A885"></path><path d="M69.383 21.1502L68.03 13.0648C67.9239 12.4284 67.5794 11.8517 67.0613 11.443C66.5432 11.0343 65.8871 10.8218 65.2163 10.8454C64.4863 10.8722 63.7965 11.1764 63.2988 11.6912C62.801 12.2059 62.536 12.889 62.5621 13.5902L63.043 26.5211C63.0636 30.0337 62.7027 33.5396 61.9662 36.982" stroke="#1A1A1A" stroke-width="1.2285" stroke-miterlimit="10"></path><path d="M74.8992 50.7365C74.8992 50.7365 77.7431 35.5142 76.2225 28.2146C75.4738 24.5397 74.4722 19.7756 73.7329 17.026C73.5639 16.3868 73.179 15.824 72.6419 15.4307C72.1048 15.0374 71.4477 14.8373 70.7796 14.8634C70.3772 14.8757 69.9817 14.9696 69.6176 15.1394C69.2535 15.3092 68.9287 15.5512 68.6633 15.8503C68.3979 16.1495 68.1977 16.4993 68.075 16.8782C67.9523 17.257 67.9099 17.6568 67.9503 18.0525C68.2092 20.647 68.5726 24.3731 68.8046 27.2524C68.9611 30.779 68.6387 34.3106 67.8461 37.7529" fill="#E5A885"></path><path d="M74.8992 50.7365C74.8992 50.7365 77.7431 35.5142 76.2225 28.2146C75.4738 24.5397 74.4722 19.7756 73.7329 17.026C73.5639 16.3868 73.179 15.824 72.6419 15.4307C72.1048 15.0374 71.4477 14.8373 70.7796 14.8634C70.3772 14.8757 69.9817 14.9696 69.6176 15.1394C69.2535 15.3092 68.9287 15.5512 68.6633 15.8503C68.3979 16.1495 68.1977 16.4993 68.075 16.8782C67.9523 17.257 67.9099 17.6568 67.9503 18.0525C68.2092 20.647 68.5726 24.3731 68.8046 27.2524C68.9611 30.779 68.6387 34.3106 67.8461 37.7529" stroke="#1A1A1A" stroke-width="1.2285" stroke-miterlimit="10"></path><path d="M72.9662 62.984C75.6118 62.0703 78.02 60.5484 80.0094 58.5332C81.9989 56.518 83.5177 54.062 84.4513 51.3502C85.4481 48.3506 90.8273 41.0963 90.0064 38.5691C88.7273 34.6202 83.5903 36.5298 81.5048 41.3397C79.89 45.0258 73.4085 47.956 73.4085 47.956" fill="#E5A885"></path><path d="M72.9662 62.984C75.6118 62.0703 78.02 60.5484 80.0094 58.5332C81.9989 56.518 83.5177 54.062 84.4513 51.3502C85.4481 48.3506 90.8273 41.0963 90.0064 38.5691C88.7273 34.6202 83.5903 36.5298 81.5048 41.3397C79.89 45.0258 73.4085 47.956 73.4085 47.956" stroke="#1A1A1A" stroke-width="1.2285" stroke-miterlimit="10"></path><path d="M20.9496 104.555C24.4418 105.075 27.4443 105.839 30.9766 105.864C41.2816 105.794 45.5728 104.35 45.5728 104.35L53.1552 84.1416L56.4892 68.659L54.8217 52.7727L50.5433 39.1945L45.5082 30.6754L36.8762 49.702L34.6166 65.4244L27.8758 62.1301L28.0474 66.836L31.335 77.333L20.9496 104.555Z" fill="#FCD4B7"></path><path d="M41.131 41.9939C41.131 41.9939 40.544 36.1697 40.0036 33.955C39.5665 32.1978 38.6708 31.7262 37.428 31.742C37.1812 31.7433 36.9373 31.7943 36.711 31.8921C36.4848 31.9899 36.2811 32.1324 36.1123 32.3108C35.9435 32.4893 35.8133 32.6999 35.7294 32.9299C35.6456 33.1599 35.6099 33.4044 35.6247 33.6485C35.6247 33.6485 35.8678 42.0971 35.5524 48.8142C35.1988 53.3349 34.5937 57.8329 33.7399 62.2876C31.9997 60.3358 30.119 58.5117 28.1125 56.8294C25.417 54.7628 20.9732 53.2015 20.6183 56.8644C20.4999 58.0733 22.3936 59.3894 25.5281 65.2536C27.7535 69.413 29.2964 73.897 30.0988 78.5371C28.7883 82.597 27.1607 86.5495 25.2306 90.359C21.732 96.8751 17.9189 103.18 17.9189 103.18C17.9189 103.18 18.5112 103.766 22.3599 104.94" fill="#FCD4B7"></path><path d="M41.131 41.9939C41.131 41.9939 40.544 36.1697 40.0036 33.955C39.5665 32.1978 38.6708 31.7262 37.428 31.742C37.1812 31.7433 36.9373 31.7943 36.711 31.8921C36.4848 31.9899 36.2811 32.1324 36.1123 32.3108C35.9435 32.4893 35.8133 32.6999 35.7294 32.9299C35.6456 33.1599 35.6099 33.4044 35.6247 33.6485C35.6247 33.6485 35.8678 42.0971 35.5524 48.8142C35.1988 53.3349 34.5937 57.8329 33.7399 62.2876C31.9997 60.3358 30.119 58.5117 28.1125 56.8294C25.417 54.7628 20.9732 53.2015 20.6183 56.8644C20.4999 58.0733 22.3936 59.3894 25.5281 65.2536C27.7535 69.413 29.2964 73.897 30.0988 78.5371C28.7883 82.597 27.1607 86.5495 25.2306 90.359C21.732 96.8751 17.9189 103.18 17.9189 103.18C17.9189 103.18 18.5112 103.766 22.3599 104.94" stroke="#1A1A1A" stroke-width="1.2285" stroke-miterlimit="10"></path><path d="M39.3614 54.9996C41.755 43.9772 40.6612 30.9435 40.7443 29.5269C40.7948 28.8646 41.0876 28.2416 41.5698 27.7704C42.0521 27.2992 42.692 27.011 43.3738 26.9577C45.1092 26.8249 46.2842 27.4869 46.7053 29.6603C46.8947 30.581 47.0802 33.1636 47.0802 33.1636" fill="#FCD4B7"></path><path d="M39.3614 54.9996C41.755 43.9772 40.6612 30.9435 40.7443 29.5269C40.7948 28.8646 41.0876 28.2416 41.5698 27.7704C42.0521 27.2992 42.692 27.011 43.3738 26.9577C45.1092 26.8249 46.2842 27.4869 46.7053 29.6603C46.8947 30.581 47.0802 33.1636 47.0802 33.1636" stroke="#1A1A1A" stroke-width="1.2285" stroke-miterlimit="10"></path><path d="M54.3479 56.8959C54.3479 56.8959 53.9448 48.2961 53.7992 44.8928C53.6917 40.7843 53.3505 36.6848 52.7771 32.6129C52.763 32.239 52.6706 31.8717 52.5055 31.5335C52.3405 31.1952 52.1062 30.8929 51.8168 30.6449C51.5275 30.3969 51.1891 30.2083 50.8223 30.0906C50.4554 29.973 50.0676 29.9286 49.6823 29.9602C48.9941 30.0138 48.3484 30.3049 47.8627 30.7803C47.3771 31.2557 47.0838 31.884 47.0362 32.5508C47.0362 32.5508 47.5399 49.9265 46.339 56.2603" fill="#FCD4B7"></path><path d="M54.3479 56.8959C54.3479 56.8959 53.9448 48.2961 53.7992 44.8928C53.6917 40.7843 53.3505 36.6848 52.7771 32.6129C52.763 32.239 52.6706 31.8717 52.5055 31.5335C52.3405 31.1952 52.1062 30.8929 51.8168 30.6449C51.5275 30.3969 51.1891 30.2083 50.8223 30.0906C50.4554 29.973 50.0676 29.9286 49.6823 29.9602C48.9941 30.0138 48.3484 30.3049 47.8627 30.7803C47.3771 31.2557 47.0838 31.884 47.0362 32.5508C47.0362 32.5508 47.5399 49.9265 46.339 56.2603" stroke="#1A1A1A" stroke-width="1.2285" stroke-miterlimit="10"></path><path d="M44.7874 103.995L52.2338 83.6419L55.0789 80.9184C57.2578 78.6676 58.6806 75.7879 59.1479 72.6831C60.8619 63.8941 59.8849 45.3993 59.8849 45.3993C59.7171 42.7141 58.6392 42.6549 57.0695 42.9302C56.0674 43.1132 55.5079 44.7741 55.4221 47.4989C55.1431 51.1508 54.5129 54.7668 53.5404 58.2964" fill="#FCD4B7"></path><path d="M44.7874 103.995L52.2338 83.6419L55.0789 80.9184C57.2578 78.6676 58.6806 75.7879 59.1479 72.6831C60.8619 63.8941 59.8849 45.3993 59.8849 45.3993C59.7171 42.7141 58.6392 42.6549 57.0695 42.9302C56.0674 43.1132 55.5079 44.7741 55.4221 47.4989C55.1431 51.1508 54.5129 54.7668 53.5404 58.2964" stroke="#1A1A1A" stroke-width="1.2285" stroke-miterlimit="10"></path><path d="M33.9999 61.9873L33.0516 65.9997" stroke="#1A1A1A" stroke-width="1.2285" stroke-miterlimit="10"></path><path d="M104.629 50.7146C110.936 62.997 95.3131 83.5391 69.7344 96.5966C44.1556 109.654 18.3071 110.282 12 98" stroke="#1A1A1A" stroke-width="1.2285"></path><path d="M106 97L112 97L112 74L106 74" stroke="#1A1A1A" stroke-width="1.2285" stroke-miterlimit="10"></path><path d="M22.8068 41H20.1664C19.338 41 18.5435 40.6486 17.9578 40.0231C17.372 39.3977 17.0429 38.5493 17.0429 37.6647V30.4785L14 28.2436L17.0429 26.1289V20.3524C17.0408 19.913 17.12 19.4775 17.2761 19.0708C17.4321 18.6642 17.6618 18.2945 17.9521 17.9829C18.2423 17.6714 18.5873 17.4242 18.9674 17.2555C19.3474 17.0868 19.7548 17 20.1664 17H23" stroke="#1A1A1A" stroke-width="1.2285" stroke-miterlimit="10"></path><path d="M99 6L111 11.5821L99 17" stroke="#1A1A1A" stroke-width="1.2285" stroke-miterlimit="10"></path><path d="M97 1L88 20" stroke="#1A1A1A" stroke-width="1.2285" stroke-miterlimit="10"></path></svg> 