<?xml version="1.0" encoding="UTF-8"?> <svg xmlns="http://www.w3.org/2000/svg" width="24" height="24" viewBox="0 0 24 24" fill="none"><path fill-rule="evenodd" clip-rule="evenodd" d="M20 14C19.4477 14 19 14.4477 19 15V18.0771C19 18.5357 18.9783 18.6479 18.9178 18.761C18.8803 18.8312 18.8312 18.8803 18.761 18.9178C18.6479 18.9783 18.5357 19 18.0771 19H5.9229C5.46426 19 5.35208 18.9783 5.23896 18.9178C5.16878 18.8803 5.11968 18.8312 5.08215 18.761C5.02165 18.6479 4.99999 18.5357 4.99999 18.0771L4.99915 5.49993C4.99915 5.22386 5.223 5 5.49915 5L8.9987 5.00451C9.55099 5.00522 9.99928 4.55808 9.99999 4.0058C10.0007 3.45351 9.55356 3.00522 9.00128 3.00451L5.50043 3C4.11843 3 2.99915 4.11929 2.99915 5.5L2.99999 18.0772C2.99999 18.8377 3.08189 19.2618 3.31853 19.7042C3.54246 20.1229 3.87704 20.4575 4.29576 20.6815C4.73824 20.9181 5.16233 21 5.9229 21H18.0771C18.8377 21 19.2617 20.9181 19.7042 20.6815C20.1229 20.4575 20.4575 20.1229 20.6815 19.7042C20.9181 19.2618 21 18.8377 21 18.0771V15C21 14.4477 20.5523 14 20 14ZM18 4.94499V4.65385L17.6097 4.74391C16.8723 4.91409 16.1179 5 15.3611 5H14C13.4477 5 13 4.55228 13 4C13 3.44772 13.4477 3 14 3L19.5008 3.00293C20.3289 3.00337 21 3.67481 21 4.50293V10C21 10.5523 20.5523 11 20 11C19.4477 11 19 10.5523 19 10V8.63888C19 7.88207 19.0859 7.12771 19.2561 6.39029L19.3461 6H19.0507C18.6495 6.64247 18.1763 7.23793 17.6396 7.77459L11.7071 13.7071C11.3166 14.0976 10.6834 14.0976 10.2929 13.7071C9.90236 13.3166 9.90236 12.6834 10.2929 12.2929L16.2368 6.34896C16.7703 5.81546 17.3619 5.34462 18 4.94499Z" fill="black" fill-opacity="0.83"></path></svg> 