<?xml version="1.0" encoding="UTF-8"?> <svg xmlns="http://www.w3.org/2000/svg" width="133" height="119" viewBox="0 0 133 119" fill="none"><path fill-rule="evenodd" clip-rule="evenodd" d="M81.0084 48H115.992C124.833 48 132 55.301 132 64.3073V87.6927C132 93.59 128.927 98.7561 124.323 101.62L129 116L116.423 103.994C116.279 103.998 116.136 104 115.992 104H81.0084C72.1672 104 65 96.699 65 87.6927V64.3073C65 55.301 72.1672 48 81.0084 48Z" fill="#1A1A1A"></path><path d="M124.323 101.62L123.974 101.058L123.534 101.332L123.694 101.825L124.323 101.62ZM129 116L128.543 116.478L130.44 118.289L129.629 115.795L129 116ZM116.423 103.994L116.879 103.516L116.68 103.326L116.405 103.333L116.423 103.994ZM115.992 47.3385H81.0084V48.6615H115.992V47.3385ZM132.662 64.3073C132.662 54.9473 125.21 47.3385 115.992 47.3385V48.6615C124.456 48.6615 131.338 55.6548 131.338 64.3073H132.662ZM132.662 87.6927V64.3073H131.338V87.6927H132.662ZM124.673 102.182C129.466 99.2001 132.662 93.8242 132.662 87.6927H131.338C131.338 93.3557 128.388 98.3121 123.974 101.058L124.673 102.182ZM123.694 101.825L128.371 116.205L129.629 115.795L124.952 101.416L123.694 101.825ZM129.457 115.522L116.879 103.516L115.966 104.473L128.543 116.478L129.457 115.522ZM115.992 104.662C116.142 104.662 116.291 104.659 116.44 104.655L116.405 103.333C116.267 103.337 116.13 103.338 115.992 103.338V104.662ZM81.0084 104.662H115.992V103.338H81.0084V104.662ZM64.3385 87.6927C64.3385 97.0527 71.7904 104.662 81.0084 104.662V103.338C72.544 103.338 65.6615 96.3452 65.6615 87.6927H64.3385ZM64.3385 64.3073V87.6927H65.6615V64.3073H64.3385ZM81.0084 47.3385C71.7904 47.3385 64.3385 54.9473 64.3385 64.3073H65.6615C65.6615 55.6548 72.544 48.6615 81.0084 48.6615V47.3385Z" fill="#1A1A1A"></path><path d="M70.9916 10H36.0084C27.1672 10 20 17.1707 20 26.0161V48.9839C20 57.8293 27.1672 65 36.0084 65H70.9916C79.8328 65 87 57.8293 87 48.9839V26.0161C87 17.1707 79.8328 10 70.9916 10Z" fill="#1A1A1A" stroke="#1A1A1A" stroke-width="1.323" stroke-miterlimit="10"></path><path d="M112.992 45H78.0084C69.1672 45 62 52.1707 62 61.0161V83.9839C62 92.8293 69.1672 100 78.0084 100H112.992C121.833 100 129 92.8293 129 83.9839V61.0161C129 52.1707 121.833 45 112.992 45Z" fill="white" stroke="#1A1A1A" stroke-width="1.323" stroke-miterlimit="10"></path><path d="M72.6954 69.9907C87.6752 67.4416 104.85 66.2811 119.9 68.0732" stroke="#1A1A1A" stroke-width="1.html"></path><path d="M72.6954 76.9907C83.2549 74.833 96.5824 73.1112 110.926 74.3704" stroke="#1A1A1A" stroke-width="1.html"></path><path d="M73.7564 84.9926C81.7161 83.1255 92.6292 82.077 101.947 82.7214" stroke="#1A1A1A" stroke-width="1.html"></path><path fill-rule="evenodd" clip-rule="evenodd" d="M88 45H78.2474C69.2742 45 62 52.1707 62 61.0161V65H71.7526C80.7258 65 88 57.8293 88 48.9839V45Z" fill="#FF8F60"></path><path d="M88 45H88.6615V44.3385H88V45ZM62 65H61.3385V65.6615H62V65ZM88 44.3385H78.2474V45.6615H88V44.3385ZM78.2474 44.3385C68.9178 44.3385 61.3385 51.7964 61.3385 61.0161H62.6615C62.6615 52.5449 69.6306 45.6615 78.2474 45.6615V44.3385ZM61.3385 61.0161V65H62.6615V61.0161H61.3385ZM62 65.6615H71.7526V64.3385H62V65.6615ZM71.7526 65.6615C81.0822 65.6615 88.6615 58.2036 88.6615 48.9839H87.3385C87.3385 57.4551 80.3694 64.3385 71.7526 64.3385V65.6615ZM88.6615 48.9839V45H87.3385V48.9839H88.6615Z" fill="#1A1A1A"></path><path d="M120.113 93L127 113L109 96.7726" fill="white"></path><path d="M120.113 93L127 113L109 96.7726" stroke="#1A1A1A" stroke-width="1.323" stroke-miterlimit="10"></path><path d="M30 56.7635L3 65L24.4288 46" fill="#1A1A1A"></path><path d="M30 56.7635L3 65L24.4288 46" stroke="#1A1A1A" stroke-width="1.323" stroke-miterlimit="10"></path><path d="M31 31C35.5339 29.9815 39.8618 28.2467 43.8084 25.8661C44.4581 25.5487 45.0159 25.0808 45.4318 24.5044C45.6135 24.207 45.6881 23.86 45.6441 23.5175C45.6 23.175 45.4398 22.8561 45.1883 22.6104C44.2468 21.9061 42.9318 22.9078 42.3312 23.9096C41.8562 24.567 41.5636 25.3306 41.4812 26.1279C41.3988 26.9252 41.5293 27.7295 41.8604 28.4644C42.4211 29.1304 43.1504 29.6459 43.9778 29.9612C44.8052 30.2765 45.703 30.3809 46.5844 30.2643C50.9228 30.1413 55.071 28.5193 58.2727 25.6939C59.0357 25.0209 59.7825 24.0035 59.3279 23.1113C59.2212 22.9135 59.0718 22.7399 58.8898 22.6022C58.7078 22.4645 58.4974 22.3659 58.2727 22.313C57.8634 22.2504 57.4448 22.2759 57.0469 22.3877C56.649 22.4995 56.2818 22.6948 55.9714 22.9597C55.6611 23.2245 55.4153 23.5522 55.2519 23.9194C55.0884 24.2866 55.0113 24.6841 55.026 25.0835C55.1287 25.8998 55.4818 26.668 56.0399 27.2898C56.598 27.9116 57.3359 28.3587 58.1591 28.5739C59.8176 28.9702 61.5564 28.9269 63.1916 28.4487C67.8919 27.2113 72.2606 25.0118 76 22" stroke="white" stroke-width="1.323" stroke-miterlimit="10"></path><path d="M33 48C38.285 47.2142 43.2433 44.9728 47.3141 41.5293C48.0298 40.9281 48.7614 40.1054 48.5547 39.2036C48.4401 38.8438 48.21 38.5314 47.8997 38.3142C47.5895 38.097 47.2161 37.9871 46.837 38.0012C46.0749 38.0624 45.3567 38.3805 44.8012 38.903C43.7602 39.799 43.0448 41.0111 42.7654 42.3519C42.5538 43.1996 42.6437 44.0941 43.0199 44.8833C43.3008 45.3439 43.6828 45.7354 44.1372 46.0285C44.5916 46.3217 45.1068 46.5088 45.6441 46.5761C46.7108 46.7017 47.792 46.6156 48.8251 46.323C51.7166 45.6588 54.4785 44.5257 57 42.969" stroke="white" stroke-width="1.323" stroke-miterlimit="10"></path><path d="M62 39.2394C62 39.2394 64.0996 35.6007 66.5563 37.5998C67.5418 38.3909 66.9562 40.3756 64.0853 42.0152C63.7459 42.2097 63.4736 42.5041 63.3051 42.8589C63.1366 43.2136 63.0799 43.6118 63.1427 44" stroke="white" stroke-width="1.323" stroke-miterlimit="10"></path><path d="M62.0763 46L62 48" stroke="white" stroke-width="1.323" stroke-miterlimit="10"></path><path d="M114.698 11.8896L113.054 2.06841C112.992 1.69668 112.456 1.70173 112.4 2.07456L110.977 11.6858C110.856 12.5189 110.485 13.2979 109.912 13.9239C109.339 14.5499 108.59 14.9947 107.759 15.2017L104.063 16.1119C103.745 16.1902 103.722 16.6334 104.03 16.7443L108.191 18.2421C108.9 18.5018 109.528 18.9397 110.011 19.512C110.493 20.0843 110.815 20.7709 110.943 21.5032L112.328 29.9097C112.39 30.2821 112.927 30.2775 112.982 29.9041L114.23 21.4352C114.342 20.6636 114.67 19.9375 115.177 19.3378C115.684 18.738 116.351 18.2882 117.103 18.0382L120.985 16.6919C121.292 16.5851 121.277 16.1448 120.962 16.06L117.778 15.2017C117.001 14.9868 116.3 14.5626 115.756 13.9773C115.212 13.392 114.845 12.6688 114.698 11.8896Z" fill="white" stroke="#1A1A1A" stroke-width="1.323" stroke-miterlimit="10"></path><path d="M39.6525 88.3282L38.4729 82.5792C38.4006 82.2268 37.8972 82.2268 37.8249 82.5792L36.6454 88.3282C36.4131 89.4509 35.8665 90.4856 35.0685 91.3133C34.2706 92.141 33.2536 92.7281 32.1348 93.0071L32.0375 93.0312C31.7219 93.1096 31.697 93.5486 32.0018 93.6621L32.8156 93.9654C33.771 94.3193 34.6226 94.904 35.2937 95.6667C35.9648 96.4294 36.4342 97.3461 36.6596 98.3341L37.83 103.523C37.9082 103.87 38.4028 103.866 38.4763 103.519L39.5816 98.2918C39.8007 97.2631 40.2844 96.3083 40.9854 95.5204C41.6864 94.7326 42.5808 94.1386 43.5816 93.7962L44.0188 93.6399C44.3185 93.5327 44.3005 93.1029 43.9929 93.0211V93.0211C42.9044 92.7123 41.923 92.1106 41.157 91.2824C40.3911 90.4543 39.8704 89.4319 39.6525 88.3282Z" fill="white" stroke="#1A1A1A" stroke-width="1.323" stroke-miterlimit="10"></path></svg> 