<?xml version="1.0" encoding="UTF-8"?> <svg xmlns="http://www.w3.org/2000/svg" width="127" height="114" viewBox="0 0 127 114" fill="none"><path d="M126 1H1V100H126V1Z" fill="white" stroke="#1A1A1A" stroke-width="1.35" stroke-miterlimit="10"></path><path d="M12 1V100" stroke="#1A1A1A" stroke-width="1.35" stroke-miterlimit="10"></path><path d="M12 88H83" stroke="#1A1A1A" stroke-width="1.35" stroke-miterlimit="10"></path><path d="M126 1H84V100H126V1Z" fill="#1A1A1A" stroke="#1A1A1A" stroke-width="1.35" stroke-miterlimit="10"></path><path d="M88 58V88H122" stroke="white" stroke-width="1.35" stroke-miterlimit="10"></path><path d="M97 36H92V44H97V36Z" fill="#FF8F60" stroke="#1A1A1A" stroke-width="1.35" stroke-miterlimit="10"></path><path d="M102 29H97V44H102V29Z" fill="#FF8F60" stroke="#1A1A1A" stroke-width="1.35" stroke-miterlimit="10"></path><path d="M107 37H102V44H107V37Z" fill="#FF8F60" stroke="#1A1A1A" stroke-width="1.35" stroke-miterlimit="10"></path><path d="M117 37H112V44H117V37Z" fill="#FF8F60" stroke="#1A1A1A" stroke-width="1.35" stroke-miterlimit="10"></path><path d="M112 16H107V44H112V16Z" fill="#FF8F60" stroke="#1A1A1A" stroke-width="1.35" stroke-miterlimit="10"></path><path d="M94.5 81C96.433 81 98 79.433 98 77.5C98 75.567 96.433 74 94.5 74C92.567 74 91 75.567 91 77.5C91 79.433 92.567 81 94.5 81Z" fill="#FF8F60" stroke="#1A1A1A" stroke-width="1.35" stroke-miterlimit="10"></path><path d="M107.5 64C109.433 64 111 62.433 111 60.5C111 58.567 109.433 57 107.5 57C105.567 57 104 58.567 104 60.5C104 62.433 105.567 64 107.5 64Z" fill="#FF8F60" stroke="#1A1A1A" stroke-width="1.35" stroke-miterlimit="10"></path><path d="M99.5 85C101.433 85 103 83.433 103 81.5C103 79.567 101.433 78 99.5 78C97.567 78 96 79.567 96 81.5C96 83.433 97.567 85 99.5 85Z" fill="#FF8F60" stroke="#1A1A1A" stroke-width="1.35" stroke-miterlimit="10"></path><path d="M116.5 82C118.433 82 120 80.433 120 78.5C120 76.567 118.433 75 116.5 75C114.567 75 113 76.567 113 78.5C113 80.433 114.567 82 116.5 82Z" fill="#FF8F60" stroke="#1A1A1A" stroke-width="1.35" stroke-miterlimit="10"></path><path d="M94.5 74C96.433 74 98 72.433 98 70.5C98 68.567 96.433 67 94.5 67C92.567 67 91 68.567 91 70.5C91 72.433 92.567 74 94.5 74Z" fill="#FF8F60" stroke="#1A1A1A" stroke-width="1.35" stroke-miterlimit="10"></path><path d="M19 18H37" stroke="#1A1A1A" stroke-width="1.35"></path><path d="M23 31H49" stroke="#1A1A1A" stroke-width="1.35"></path><path d="M19 40H72" stroke="#1A1A1A" stroke-width="1.35"></path><path d="M19 74H45" stroke="#1A1A1A" stroke-width="1.35"></path><path d="M19 65H33" stroke="#1A1A1A" stroke-width="1.35"></path><path d="M65 13H70" stroke="#1A1A1A" stroke-width="1.35"></path><path d="M65 15H70" stroke="#1A1A1A" stroke-width="1.35"></path><path d="M11 1H1V11H11V1Z" fill="#1A1A1A" stroke="#1A1A1A" stroke-width="1.35" stroke-miterlimit="10"></path><path d="M97.5 78C99.433 78 101 76.433 101 74.5C101 72.567 99.433 71 97.5 71C95.567 71 94 72.567 94 74.5C94 76.433 95.567 78 97.5 78Z" fill="#FF8F60" stroke="#1A1A1A" stroke-width="1.35" stroke-miterlimit="10"></path><path d="M83 88H45V100H83V88Z" fill="#FF8F60" stroke="#1A1A1A" stroke-width="1.35" stroke-miterlimit="10"></path><path d="M88 14V44H122" stroke="white" stroke-width="1.35" stroke-miterlimit="10"></path><path d="M79.7432 81C79.7432 82.8876 79 108.63 79 108.63L84.7418 101.66L89.551 113L92.6842 111.618H92.7717L95.9049 110.235L91.0812 98.895L100 99.4004L79.7432 81Z" fill="white" stroke="#1A1A1A" stroke-width="1.35" stroke-miterlimit="10"></path><path d="M41 10H39V18H41" stroke="#1A1A1A" stroke-width="1.35"></path><path d="M21 23H19V31H21" stroke="#1A1A1A" stroke-width="1.35"></path><path d="M19 57.002H34" stroke="#1A1A1A" stroke-width="1.35"></path><path d="M45 57.002H54" stroke="#1A1A1A" stroke-width="1.35"></path><path d="M36 52.002H41" stroke="#1A1A1A" stroke-width="1.35"></path><path d="M36 54.002H41" stroke="#1A1A1A" stroke-width="1.35"></path><path d="M58 49.002H56V57.002H58" stroke="#1A1A1A" stroke-width="1.35"></path><path d="M76 57L78 57L78 49L76 49" stroke="#1A1A1A" stroke-width="1.35"></path><path d="M51 31L53 31L53 23L51 23" stroke="#1A1A1A" stroke-width="1.35"></path><path d="M59 18L61 18L61 10L59 10" stroke="#1A1A1A" stroke-width="1.35"></path></svg> 