<?xml version="1.0" encoding="UTF-8"?> <svg xmlns="http://www.w3.org/2000/svg" width="100" height="97" viewBox="0 0 100 97" fill="none"><path d="M98.5319 66.9349C98.5319 66.9349 81.0306 61.6581 51.2292 68.1968C22.8029 74.4367 1.1416 95.3177 1.1416 95.3177V30.647C1.1416 30.647 16.3019 12.0114 48.7489 4.35293C78.5271 -2.67605 98.5319 5.77149 98.5319 5.77149V66.932V66.9349Z" fill="white" stroke="#1A1A1A" stroke-width="1.43404" stroke-miterlimit="10"></path><path d="M1.1416 39.9013C1.1416 39.9013 17.3898 19.4033 49.8368 11.7448C79.6149 4.7158 98.5319 13.993 98.5319 13.993" fill="white"></path><path d="M1.1416 39.9013C1.1416 39.9013 17.3898 19.4033 49.8368 11.7448C79.6149 4.7158 98.5319 13.993 98.5319 13.993" stroke="#1A1A1A" stroke-width="1.43404" stroke-miterlimit="10"></path><path d="M9.61228 39.9008C9.61228 39.9008 14.6773 35.0127 23.4701 29.7417C32.8691 24.108 39.2019 22.791 39.2019 22.791L39.6689 48.151C39.6689 48.151 32.3353 50.1121 25.2599 53.9123C15.2459 59.2906 9.60938 65.4696 9.60938 65.4696V39.9037L9.61228 39.9008Z" fill="#BBE2C8" stroke="#1A1A1A" stroke-width="1.43404" stroke-linejoin="round"></path><path d="M9.6123 65.4666C9.6123 65.4666 24.6421 36.0975 39.2019 23.3711" stroke="#1A1A1A" stroke-width="1.43404" stroke-linejoin="round"></path><path d="M39.6718 48.1517C39.6718 48.1517 25.0598 39.6172 9.6123 39.9015" stroke="#1A1A1A" stroke-width="1.43404" stroke-linejoin="round"></path><path d="M46.3066 20.1343C46.3066 20.1343 67.9215 10.6918 92.8725 18.855Z" fill="white"></path><path d="M46.3066 20.1343C46.3066 20.1343 67.9215 10.6918 92.8725 18.855" stroke="#1A1A1A" stroke-width="1.43404" stroke-miterlimit="10"></path><path d="M46.3066 26.8101C46.3066 26.8101 67.9215 17.3675 92.8725 25.5308Z" fill="white"></path><path d="M46.3066 26.8101C46.3066 26.8101 67.9215 17.3675 92.8725 25.5308" stroke="#1A1A1A" stroke-width="1.43404" stroke-miterlimit="10"></path><path d="M46.3066 33.482C46.3066 33.482 67.9215 24.0394 92.8725 32.2027Z" fill="white"></path><path d="M46.3066 33.482C46.3066 33.482 67.9215 24.0394 92.8725 32.2027" stroke="#1A1A1A" stroke-width="1.43404" stroke-miterlimit="10"></path><path d="M46.3066 40.1558C46.3066 40.1558 67.9215 30.7132 92.8725 38.8765Z" fill="white"></path><path d="M46.3066 40.1558C46.3066 40.1558 67.9215 30.7132 92.8725 38.8765" stroke="#1A1A1A" stroke-width="1.43404" stroke-miterlimit="10"></path><path d="M46.3066 46.8335C46.3066 46.8335 67.9215 37.391 92.8725 45.5542Z" fill="white"></path><path d="M46.3066 46.8335C46.3066 46.8335 67.9215 37.391 92.8725 45.5542" stroke="#1A1A1A" stroke-width="1.43404" stroke-miterlimit="10"></path><path d="M46.3066 53.5054C46.3066 53.5054 67.9215 44.0629 92.8725 52.2261Z" fill="white"></path><path d="M46.3066 53.5054C46.3066 53.5054 67.9215 44.0629 92.8725 52.2261" stroke="#1A1A1A" stroke-width="1.43404" stroke-miterlimit="10"></path><path d="M46.3066 60.1773C46.3066 60.1773 67.9215 50.7347 92.8725 58.898Z" fill="white"></path><path d="M46.3066 60.1773C46.3066 60.1773 67.9215 50.7347 92.8725 58.898" stroke="#1A1A1A" stroke-width="1.43404" stroke-miterlimit="10"></path></svg> 