<?xml version="1.0" encoding="UTF-8"?> <svg xmlns="http://www.w3.org/2000/svg" width="20" height="16" viewBox="0 0 20 16" fill="none"> <rect x="8" y="16" width="4" height="4" transform="rotate(-180 8 16)" fill="#1A1A1A"></rect> <rect x="8" y="12" width="4" height="4" transform="rotate(-180 8 12)" fill="#1A1A1A"></rect> <rect x="4" y="16" width="4" height="4" transform="rotate(-180 4 16)" fill="#1A1A1A"></rect> <rect x="4" y="12" width="4" height="4" transform="rotate(-180 4 12)" fill="#1A1A1A"></rect> <rect x="4" y="8" width="4" height="4" transform="rotate(-180 4 8)" fill="#1A1A1A"></rect> <rect x="8" y="4" width="4" height="4" transform="rotate(-180 8 4)" fill="#1A1A1A"></rect> <rect x="20" y="16" width="4" height="4" transform="rotate(-180 20 16)" fill="#1A1A1A"></rect> <rect x="20" y="12" width="4" height="4" transform="rotate(-180 20 12)" fill="#1A1A1A"></rect> <rect x="16" y="16" width="4" height="4" transform="rotate(-180 16 16)" fill="#1A1A1A"></rect> <rect x="16" y="12" width="4" height="4" transform="rotate(-180 16 12)" fill="#1A1A1A"></rect> <rect x="16" y="8" width="4" height="4" transform="rotate(-180 16 8)" fill="#1A1A1A"></rect> <rect x="20" y="4" width="4" height="4" transform="rotate(-180 20 4)" fill="#1A1A1A"></rect> </svg> 