<?xml version="1.0" encoding="UTF-8"?> <svg xmlns="http://www.w3.org/2000/svg" width="72" height="72" viewBox="0 0 72 72" fill="none"><path fill-rule="evenodd" clip-rule="evenodd" d="M12 12H15H18H21H24H27H30H33H36H39H42H45H48H51H54H57H60V15V18H57H54H51H48H45H42H39H36H33H30H27H24H21H18H15H12V15V12ZM12 57H9V54V51V48V45V42V39V36V33V30V27V24V21V18H12V21V24V27V30V33V36V39V42V45V48V51V54V57ZM60 57V60H57H54H51H48H45H42H39H36H33H30H27H24H21H18H15H12V57H15H18H21H24H27H30H33H36H39H42H45H48H51H54H57H60ZM60 57H63V54V51V48V45V42V39V36V33V30V27V24V21V18H60V21V24V27V30V33V36V39V42V45V48V51V54V57ZM39 27H42V30H39V27ZM36 36V33V30H39V33V36H36ZM33 42V39V36H36V39V42H33ZM33 42V45H30V42H33ZM22.5 33V30H25.5V33H22.5ZM19.5 36V33H22.5V36H19.5ZM19.5 39H16.5V36H19.5V39ZM22.5 42H19.5V39H22.5V42ZM22.5 42H25.5V45H22.5V42ZM46.5 33V30H49.5V33H46.5ZM52.5 36H49.5V33H52.5V36ZM52.5 39V36H55.5V39H52.5ZM49.5 42V39H52.5V42H49.5ZM49.5 42V45H46.5V42H49.5Z" fill="#1A1A1A"></path></svg> 