<?xml version="1.0" encoding="UTF-8"?> <svg xmlns="http://www.w3.org/2000/svg" width="116" height="114" viewBox="0 0 116 114" fill="none"><path d="M55.5 113C82.2858 113 104 104.046 104 93C104 81.9543 82.2858 73 55.5 73C28.7142 73 7 81.9543 7 93C7 104.046 28.7142 113 55.5 113Z" fill="white" stroke="#1A1A1A" stroke-width="1.3" stroke-miterlimit="10"></path><path d="M103 91L98.4193 73H11.5454L7 91" fill="white"></path><path d="M103 91L98.4193 73H11.5454L7 91" stroke="#1A1A1A" stroke-width="1.3" stroke-miterlimit="10"></path><path d="M99 72.2792C99 82.4421 81.1417 92 57.1131 92C33.0845 92 12 82.3887 12 72.2792C12 62.1696 31.4803 54 55.5089 54C79.5374 54 99 62.1874 99 72.2792Z" fill="#1A1A1A" stroke="#1A1A1A" stroke-width="1.3" stroke-miterlimit="10"></path><path d="M55 83C74.8823 83 91 76.2843 91 68C91 59.7157 74.8823 53 55 53C35.1177 53 19 59.7157 19 68C19 76.2843 35.1177 83 55 83Z" fill="#FF8F60" stroke="#1A1A1A" stroke-width="1.3" stroke-miterlimit="10"></path><path d="M56 79C73.6731 79 88 73.1797 88 66C88 58.8203 73.6731 53 56 53C38.3269 53 24 58.8203 24 66C24 73.1797 38.3269 79 56 79Z" fill="#FF8F60" stroke="#1A1A1A" stroke-width="1.3" stroke-miterlimit="10"></path><path d="M88 66V38.5826C88 31.0666 76.6756 25.1914 56 26.0912C35.6622 26.9733 24 32.178 24 39.7117V66" fill="#FF8F60"></path><path d="M88 66V38.5826C88 31.0666 76.6756 25.1914 56 26.0912C35.6622 26.9733 24 32.178 24 39.7117V66" stroke="#1A1A1A" stroke-width="1.3" stroke-miterlimit="10"></path><path d="M30 44C30 44 40.2445 54.5924 70 47.6293" stroke="#1A1A1A" stroke-width="1.3" stroke-miterlimit="10"></path><path d="M80 45C81.8889 44.65 85.9333 42.76 87 38" stroke="#1A1A1A" stroke-width="1.3"></path><path d="M40 38.9724L39.7982 40H34L35.578 34H37.1376L35.9266 38.9724H40Z" fill="#1A1A1A"></path><path d="M45.6986 34L48 40H46.1735L45.7534 38.7071H42.5206L41.6986 40H40L44.1096 34H45.6986ZM45.4429 37.7127L44.6575 35.3757L43.1598 37.7127H45.4429Z" fill="#1A1A1A"></path><path d="M49.717 37.2698C49.6243 38.3324 49.8838 38.9047 51.4224 38.9047C52.961 38.9047 53.2761 38.2507 53.2761 37.2698L53.4244 34H55L54.9073 37.2698C54.9073 39.297 53.8137 40 51.3112 40C48.8087 40 47.8077 39.297 48.0301 37.2698L48.3638 34H49.958L49.717 37.2698Z" fill="#1A1A1A"></path><path d="M57.5556 35.3425V40H56V34H58.0078L61.354 38.4917L61.1189 34H62.584L63 40H60.8475L57.5556 35.3425Z" fill="#1A1A1A"></path><path d="M68.0018 40.9784C67.511 41.0341 67.0147 40.9817 66.5436 40.8244C66.0725 40.6671 65.6366 40.4082 65.2627 40.0637C64.8889 39.7193 64.5851 39.2967 64.3702 38.8219C64.1552 38.3471 64.0336 37.8302 64.0128 37.3031C63.8581 35.245 65.1132 34.0137 67.2796 34.0137C67.9927 33.9477 68.7072 34.1212 69.3236 34.5099C69.94 34.8986 70.4276 35.4831 70.7184 36.1821H69.3085C69.1348 35.7931 68.8539 35.4703 68.5035 35.2568C68.1532 35.0433 67.7501 34.9493 67.3484 34.9876C67.0726 34.9624 66.7951 35.0087 66.5395 35.1227C66.284 35.2366 66.058 35.4148 65.8808 35.6422C65.7035 35.8695 65.5802 36.1392 65.5214 36.4284C65.4626 36.7176 65.47 37.0177 65.543 37.3031C65.5429 37.9516 65.7803 38.5743 66.2046 39.038C66.6288 39.5017 67.206 39.7695 67.8126 39.7839C68.7583 39.7839 69.532 39.4163 69.532 38.4791H70.9935C71.0967 39.9492 69.9619 40.9784 68.0018 40.9784Z" fill="#1A1A1A"></path><path d="M80 40H78.3645L77.7244 37.2984H74.1689L74.7023 40H73.0845L72 34H73.5289L73.9911 36.337H77.5467L76.9778 34H78.4889L80 40Z" fill="#1A1A1A"></path><path d="M96 79L102 98" stroke="#1A1A1A" stroke-width="1.3"></path><path d="M90 83L95 103" stroke="#1A1A1A" stroke-width="1.3"></path><path d="M76 88L80 109" stroke="#1A1A1A" stroke-width="1.3"></path><path d="M15 77L10 99" stroke="#1A1A1A" stroke-width="1.3"></path><path d="M19 82L15 103" stroke="#1A1A1A" stroke-width="1.3"></path><path d="M30 88L26 108" stroke="#1A1A1A" stroke-width="1.3"></path><path d="M56 0V11" stroke="#1A1A1A" stroke-width="1.3"></path><path d="M104 53L115 51" stroke="#1A1A1A" stroke-width="1.3"></path><path d="M95 29C97.1875 27 100.938 23.6667 105 22" stroke="#1A1A1A" stroke-width="1.3"></path><path d="M11 18C13.7931 19.8261 16.5862 21.6522 20 25" stroke="#1A1A1A" stroke-width="1.3"></path><path d="M1 46C4.65591 46.0952 8.74194 46.8571 11 48" stroke="#1A1A1A" stroke-width="1.3"></path></svg> 