<?xml version="1.0" encoding="UTF-8"?> <svg xmlns="http://www.w3.org/2000/svg" width="127" height="118" viewBox="0 0 127 118" fill="none"><path d="M1.61426 116.475L125.432 95.728V8.42383L1.61426 29.1707V116.472V116.475Z" fill="#1A1A1A" stroke="#1A1A1A" stroke-width="1.43404" stroke-miterlimit="10"></path><path d="M1.6123 29.1103L125.433 8.38005V0.9375L1.6123 21.6677V29.1075V29.1103Z" stroke="#1A1A1A" stroke-width="1.43404" stroke-miterlimit="10"></path><path d="M5.73266 25.9318C6.38765 25.8213 6.91552 25.1829 6.91552 24.503C6.91552 23.8232 6.38489 23.3589 5.73266 23.4694C5.08044 23.58 4.5498 24.2184 4.5498 24.8982C4.5498 25.5781 5.08044 26.0396 5.73266 25.9318Z" fill="#1A1A1A" stroke="#1A1A1A" stroke-width="1.43404" stroke-miterlimit="10"></path><path d="M10.4533 25.1408C11.1083 25.0303 11.6362 24.3919 11.6362 23.712C11.6362 23.0321 11.1056 22.5678 10.4533 22.6784C9.80111 22.7889 9.27051 23.4273 9.27051 24.1072C9.27051 24.7871 9.80111 25.2486 10.4533 25.1408Z" fill="#1A1A1A" stroke="#1A1A1A" stroke-width="1.43404" stroke-miterlimit="10"></path><path d="M15.1741 24.3498C15.8291 24.2393 16.3569 23.6008 16.3569 22.921C16.3569 22.2411 15.8263 21.7768 15.1741 21.8874C14.5218 21.9979 13.9912 22.6363 13.9912 23.3162C13.9912 23.996 14.5218 24.4576 15.1741 24.3498Z" stroke="#1A1A1A" stroke-width="1.43404" stroke-miterlimit="10"></path><path d="M5.33577 33.7862C5.33577 33.6121 5.34679 33.4684 5.37166 33.3496C5.39654 33.228 5.43802 33.1257 5.50158 33.0428C5.56515 32.9627 5.6508 32.8991 5.75582 32.8521C5.86636 32.8024 6.00732 32.7609 6.18143 32.7305L7.30899 32.5426V33.0235L6.19526 33.2114C6.05984 33.2335 5.97415 33.2777 5.93546 33.3413C5.89953 33.4048 5.8802 33.5237 5.8802 33.695V33.9355L7.30899 33.695V34.1814L5.8802 34.4219V37.2546L5.33577 37.3458V34.5131L4.4873 34.654V34.1676L5.33577 34.0267V33.7862ZM10.4679 36.0607C10.3794 36.221 10.2661 36.3592 10.1252 36.4836C9.98424 36.6024 9.78525 36.6825 9.53099 36.724C9.33753 36.7572 9.17724 36.7516 9.05012 36.7102C8.92299 36.666 8.8235 36.5941 8.74612 36.4946C8.66874 36.3951 8.61897 36.2735 8.58581 36.127C8.55264 35.9778 8.53885 35.8092 8.53885 35.6241V33.4905L9.08328 33.3993V35.3366C9.08328 35.4721 9.08605 35.5992 9.09434 35.718C9.1054 35.8313 9.13025 35.9308 9.1717 36.0137C9.21039 36.0939 9.27397 36.1519 9.35688 36.1934C9.43979 36.2293 9.55587 36.2348 9.7051 36.21C9.95383 36.1685 10.1418 36.0469 10.2689 35.8452C10.3988 35.6379 10.4651 35.356 10.4651 34.9967V33.1699L11.0095 33.0787V36.3979L10.4651 36.4891V36.0635L10.4679 36.0607ZM12.9192 33.2252C12.9579 33.1478 13.0077 33.076 13.063 33.0041C13.1182 32.9295 13.1846 32.8632 13.2592 32.8051C13.3338 32.7443 13.4222 32.6918 13.519 32.6448C13.6185 32.6006 13.729 32.5647 13.8561 32.5453C14.0496 32.5122 14.2099 32.5205 14.337 32.5647C14.4669 32.6034 14.5692 32.6725 14.6465 32.772C14.7239 32.8687 14.7792 32.9958 14.8123 33.1451C14.8427 33.2915 14.8593 33.4573 14.8593 33.6425V35.7512L14.3149 35.8424V33.9299C14.3149 33.7945 14.3094 33.6701 14.2955 33.5568C14.2873 33.438 14.2624 33.3385 14.2182 33.2556C14.1739 33.1727 14.1104 33.1147 14.0219 33.0787C13.939 33.04 13.8257 33.0317 13.6793 33.0566C13.4305 33.0981 13.2398 33.2224 13.1099 33.4297C12.9828 33.637 12.9192 33.9189 12.9192 34.2754V36.0773L12.3748 36.1685V32.8493L12.9192 32.7581V33.228V33.2252ZM17.5042 31.9346C17.6893 31.9042 17.8579 31.9097 18.0099 31.9484C18.1647 31.9843 18.2973 32.0479 18.4079 32.1418C18.5184 32.2303 18.6069 32.3408 18.6677 32.468C18.7368 32.5978 18.7754 32.7333 18.7865 32.8797L18.2365 32.9709C18.2006 32.772 18.1149 32.62 17.9823 32.5149C17.8496 32.4099 17.6838 32.374 17.4848 32.4072C17.366 32.4265 17.2554 32.4735 17.1477 32.5453C17.0454 32.6172 16.9542 32.7112 16.8741 32.83C16.7967 32.9461 16.7331 33.087 16.6834 33.2501C16.6391 33.4131 16.617 33.6011 16.617 33.8083C16.617 34.0156 16.6391 34.2008 16.6834 34.3528C16.7303 34.502 16.7939 34.6236 16.8741 34.7148C16.9514 34.806 17.0454 34.8668 17.1477 34.9027C17.2554 34.9387 17.366 34.947 17.4848 34.9276C17.5926 34.911 17.6893 34.8751 17.775 34.8226C17.8662 34.7701 17.9436 34.7093 18.0044 34.6347C18.0735 34.5573 18.126 34.4744 18.1647 34.3859C18.2089 34.2975 18.2393 34.2063 18.2586 34.1096L18.8224 34.0156C18.7976 34.1842 18.7478 34.3445 18.6677 34.4992C18.5931 34.6512 18.4936 34.7894 18.3719 34.9138C18.2503 35.0382 18.1094 35.1404 17.9519 35.2233C17.7971 35.3062 17.6313 35.3643 17.4544 35.3947C17.2333 35.4306 17.0343 35.4223 16.8602 35.3698C16.6861 35.3118 16.5369 35.2178 16.4153 35.0879C16.2937 34.9525 16.1997 34.7839 16.1362 34.5849C16.0726 34.3859 16.0422 34.1593 16.0422 33.9023C16.0422 33.6453 16.0754 33.4214 16.1417 33.2003C16.2108 32.9792 16.3075 32.783 16.4319 32.6089C16.559 32.432 16.711 32.2828 16.8879 32.1667C17.0703 32.0451 17.2748 31.965 17.5042 31.929V31.9346ZM20.5332 30.6495L21.0776 30.5583V31.3929L22.382 31.1746V31.661L21.0776 31.8793V33.7973C21.0776 33.883 21.0776 33.952 21.0831 34.0073C21.0914 34.0598 21.1052 34.1013 21.1245 34.1289C21.1439 34.1593 21.1771 34.1759 21.2185 34.1814C21.26 34.187 21.3208 34.1814 21.3954 34.1704L22.3793 34.0046V34.4937L21.2766 34.6789C21.1301 34.7038 21.0113 34.7121 20.9145 34.7093C20.8206 34.701 20.7432 34.6734 20.6824 34.6236C20.6271 34.5711 20.5884 34.4937 20.5635 34.3915C20.5387 34.2837 20.5276 34.1427 20.5276 33.9714V31.9733L19.6211 32.1253V31.6389L20.5276 31.4869V30.6522L20.5332 30.6495ZM25.4387 29.5081V30.1824L24.8942 30.2736V29.5993L25.4387 29.5081ZM25.4387 30.6605V33.4905L26.3451 33.3385V33.8277L23.9905 34.2229V33.7337L24.8914 33.5817V31.2381L23.9905 31.3901V30.9037L25.4387 30.6605ZM28.0448 31.8959C28.0448 32.117 28.0696 32.3049 28.1166 32.4514C28.1636 32.6006 28.2299 32.7194 28.3128 32.8079C28.3957 32.8963 28.4897 32.9571 28.5975 32.9875C28.7081 33.0152 28.8241 33.0179 28.9457 32.9986C29.0673 32.9792 29.1834 32.9378 29.2884 32.8714C29.399 32.8024 29.4957 32.7112 29.5786 32.5951C29.6615 32.479 29.7251 32.3381 29.7748 32.1722C29.8218 32.0092 29.8467 31.8157 29.8467 31.5919C29.8467 31.368 29.8218 31.1856 29.7748 31.0364C29.7278 30.8871 29.6615 30.7711 29.5786 30.6799C29.4957 30.5914 29.399 30.5334 29.2884 30.5058C29.1806 30.4754 29.0673 30.4698 28.9457 30.4892C28.8241 30.5085 28.7081 30.5527 28.5975 30.6218C28.4897 30.6854 28.3957 30.7738 28.3128 30.8927C28.2299 31.0087 28.1636 31.1497 28.1166 31.3127C28.0696 31.4786 28.0448 31.6693 28.0448 31.8931V31.8959ZM27.4699 31.9926C27.4699 31.6941 27.5114 31.4261 27.5943 31.1939C27.6827 30.9618 27.796 30.7655 27.9342 30.5997C28.0752 30.4367 28.2355 30.3068 28.4096 30.2128C28.5865 30.1133 28.7689 30.047 28.9485 30.0166C29.1281 29.9862 29.3078 29.9917 29.4819 30.0332C29.6588 30.0691 29.8191 30.1437 29.9572 30.2626C30.0982 30.3786 30.2115 30.5389 30.2944 30.7434C30.3828 30.9479 30.4243 31.1994 30.4243 31.4979C30.4243 31.7964 30.3801 32.0645 30.2944 32.2966C30.2115 32.5288 30.0982 32.7277 29.9572 32.8908C29.8191 33.0539 29.6615 33.1837 29.4819 33.2832C29.3078 33.3772 29.1309 33.4408 28.9485 33.4712C28.7661 33.5016 28.5865 33.4988 28.4096 33.4629C28.2355 33.4214 28.0779 33.344 27.9342 33.228C27.796 33.1119 27.6827 32.9516 27.5943 32.7471C27.5114 32.5426 27.4699 32.2911 27.4699 31.9898V31.9926ZM32.088 30.0166C32.1267 29.9392 32.1737 29.8673 32.229 29.7955C32.2842 29.7209 32.3478 29.6545 32.4252 29.5965C32.4998 29.5357 32.5882 29.4832 32.685 29.4362C32.7817 29.3892 32.895 29.3561 33.0221 29.3367C33.2156 29.3036 33.3759 29.3119 33.503 29.3561C33.6329 29.3948 33.7352 29.4639 33.8125 29.5633C33.8899 29.6601 33.948 29.7872 33.9784 29.9364C34.0088 30.0829 34.0253 30.2487 34.0253 30.4339V32.5426L33.4809 32.6338V30.7213C33.4809 30.5859 33.4754 30.4615 33.4643 30.3482C33.456 30.2322 33.4312 30.1299 33.387 30.047C33.3427 29.9641 33.2792 29.906 33.1907 29.8701C33.1078 29.8314 32.9917 29.8231 32.848 29.848C32.5993 29.8895 32.4086 30.0138 32.2787 30.2211C32.1516 30.4284 32.088 30.7103 32.088 31.0668V32.8687L31.5436 32.9599V29.6407L32.088 29.5495V30.0193V30.0166ZM40.3044 27.018C40.5421 26.9793 40.7604 26.9627 40.9621 26.9683C41.1639 26.971 41.3408 27.0125 41.49 27.0899C41.642 27.1672 41.7581 27.2916 41.841 27.4574C41.9294 27.6205 41.9709 27.8388 41.9709 28.1152C41.9709 28.3916 41.9267 28.6292 41.841 28.8199C41.7581 29.0106 41.642 29.1709 41.49 29.298C41.3408 29.4252 41.1639 29.5274 40.9621 29.602C40.7604 29.6739 40.5393 29.7264 40.3044 29.7679L39.8125 29.8508V31.5725L39.2487 31.6665V27.1921L40.3044 27.0152V27.018ZM39.8125 27.6564V29.298L40.3762 29.2041C40.5172 29.1792 40.6499 29.1516 40.7742 29.1129C40.9014 29.0769 41.0091 29.0217 41.1003 28.947C41.1915 28.8752 41.2634 28.7812 41.3131 28.6652C41.3656 28.5463 41.3905 28.3943 41.3905 28.2147C41.3905 28.035 41.3656 27.8941 41.3131 27.7946C41.2634 27.6923 41.1915 27.6205 41.1003 27.5763C41.0091 27.5348 40.9014 27.5155 40.7742 27.521C40.6526 27.5265 40.5199 27.5403 40.3762 27.5625L39.8125 27.6564ZM43.3803 29.3284C43.3803 29.5495 43.4052 29.7375 43.4522 29.8839C43.4992 30.0332 43.5655 30.152 43.6484 30.2404C43.7313 30.3289 43.8253 30.3897 43.9331 30.4201C44.0436 30.4477 44.1597 30.4505 44.2813 30.4311C44.4029 30.4118 44.519 30.3703 44.624 30.304C44.7345 30.2349 44.8313 30.1437 44.9142 30.0276C44.9971 29.9116 45.0607 29.7706 45.1104 29.6048C45.1574 29.4417 45.1823 29.2483 45.1823 29.0244C45.1823 28.8006 45.1574 28.6182 45.1104 28.4689C45.0634 28.3197 44.9971 28.2036 44.9142 28.1124C44.8313 28.024 44.7345 27.9659 44.624 27.9383C44.5162 27.9079 44.4029 27.9024 44.2813 27.9217C44.1597 27.9411 44.0409 27.9853 43.9331 28.0544C43.8253 28.1179 43.7313 28.2064 43.6484 28.3252C43.5655 28.4413 43.4992 28.5822 43.4522 28.7453C43.4052 28.9111 43.3803 29.1018 43.3803 29.3257V29.3284ZM42.8055 29.4252C42.8055 29.1267 42.847 28.8586 42.9299 28.6265C43.0183 28.3943 43.1289 28.1981 43.2671 28.0323C43.408 27.8692 43.5655 27.7393 43.7424 27.6454C43.9193 27.5459 44.0989 27.4795 44.2813 27.4491C44.4637 27.4187 44.6406 27.4243 44.8147 27.4657C44.9916 27.5017 45.1519 27.5763 45.29 27.6951C45.431 27.8112 45.5443 27.9715 45.6272 28.176C45.7129 28.3805 45.7571 28.632 45.7571 28.9305C45.7571 29.2289 45.7129 29.497 45.6272 29.7292C45.5443 29.9613 45.431 30.1603 45.29 30.3234C45.1519 30.4864 44.9943 30.6163 44.8147 30.7158C44.6406 30.8098 44.4637 30.8733 44.2813 30.9037C44.0989 30.9341 43.9193 30.9314 43.7424 30.8954C43.5683 30.854 43.4108 30.7766 43.2671 30.6605C43.1289 30.5444 43.0155 30.3842 42.9299 30.1796C42.847 29.9751 42.8055 29.7236 42.8055 29.4224V29.4252ZM47.396 27.4851C47.4872 27.3082 47.606 27.159 47.758 27.0291C47.9072 26.8964 48.1007 26.8107 48.3384 26.772C48.5208 26.7416 48.6893 26.7527 48.8496 26.8052C49.0072 26.8577 49.1426 26.9462 49.2587 27.076C49.3747 27.2059 49.4632 27.3718 49.5267 27.5735C49.5931 27.7753 49.6262 28.0129 49.6262 28.2838C49.6262 28.5546 49.5931 28.8089 49.5267 29.0355C49.4632 29.2593 49.3747 29.4556 49.2587 29.6241C49.1453 29.7927 49.0072 29.9281 48.8496 30.0304C48.6921 30.1327 48.5208 30.199 48.3384 30.2294C48.1007 30.2681 47.9072 30.2487 47.758 30.1714C47.606 30.0912 47.4872 29.9779 47.396 29.8369V31.3874L46.8515 31.4786V27.0788L47.396 26.9876V27.4878V27.4851ZM47.3739 28.6596C47.3739 28.878 47.396 29.0631 47.4402 29.2151C47.4872 29.3644 47.5507 29.4832 47.6309 29.5716C47.7082 29.6628 47.7994 29.7209 47.9045 29.754C48.0067 29.7872 48.1145 29.7927 48.2306 29.7734C48.5042 29.7264 48.7087 29.5855 48.8469 29.345C48.9851 29.099 49.0542 28.7785 49.0542 28.3777C49.0542 27.977 48.9851 27.6813 48.8469 27.4878C48.7087 27.2944 48.5042 27.2198 48.2306 27.264C48.1173 27.2833 48.0067 27.3248 47.9045 27.3939C47.8022 27.4602 47.711 27.5514 47.6309 27.6675C47.5507 27.7808 47.4899 27.919 47.4402 28.0875C47.396 28.2506 47.3739 28.4413 47.3739 28.6596ZM52.6358 28.9996C52.5502 29.1599 52.4341 29.298 52.2932 29.4224C52.1522 29.5412 51.9532 29.6214 51.699 29.6628C51.5055 29.696 51.3452 29.6905 51.2181 29.649C51.091 29.6048 50.9915 29.5329 50.9141 29.4335C50.8395 29.334 50.787 29.2124 50.7538 29.0659C50.7234 28.9139 50.7068 28.7481 50.7068 28.5629V26.4293L51.2512 26.3381V28.2755C51.2512 28.4109 51.2568 28.538 51.2623 28.6569C51.2734 28.7702 51.301 28.8669 51.3397 28.9526C51.3784 29.0327 51.4419 29.0908 51.5248 29.1322C51.6078 29.1681 51.7238 29.1737 51.8731 29.1488C52.1218 29.1073 52.3097 28.9857 52.4369 28.784C52.5668 28.5767 52.6331 28.2948 52.6331 27.9355V26.1088L53.1775 26.0176V29.3367L52.6331 29.4279V29.0023L52.6358 28.9996ZM55.0651 26.2C55.1563 26.0231 55.2752 25.8739 55.4272 25.744C55.5764 25.6113 55.7699 25.5256 56.0075 25.4869C56.1899 25.4565 56.3585 25.4676 56.5188 25.5201C56.6791 25.5726 56.8118 25.6611 56.9278 25.7909C57.0411 25.9208 57.1296 26.0867 57.1931 26.2884C57.2595 26.4901 57.2954 26.7278 57.2954 26.9987C57.2954 27.2695 57.2622 27.5238 57.1931 27.7504C57.1296 27.9742 57.0411 28.1705 56.9278 28.339C56.8118 28.5076 56.6763 28.643 56.5188 28.7453C56.3613 28.8476 56.1899 28.9111 56.0075 28.9443C55.7699 28.983 55.5764 28.9636 55.4272 28.8862C55.2779 28.8061 55.1563 28.6928 55.0651 28.5518V30.1023L54.5207 30.1935V25.7937L55.0651 25.7025V26.2027V26.2ZM55.0403 27.3773C55.0403 27.5956 55.0624 27.7808 55.1038 27.9328C55.1508 28.082 55.2143 28.2009 55.2945 28.2893C55.3719 28.3805 55.4658 28.4385 55.5681 28.4717C55.6703 28.5049 55.7781 28.5104 55.8942 28.491C56.1678 28.4441 56.3723 28.3031 56.5105 28.0627C56.6487 27.8167 56.7178 27.4961 56.7178 27.0954C56.7178 26.6947 56.6487 26.399 56.5105 26.2055C56.3723 26.012 56.1678 25.9374 55.8942 25.9816C55.7781 26.001 55.6703 26.0452 55.5681 26.1115C55.4658 26.1779 55.3746 26.2691 55.2945 26.3851C55.2171 26.4957 55.1508 26.6366 55.1038 26.8052C55.0596 26.9683 55.0403 27.159 55.0403 27.3773ZM60.3935 27.2778L60.714 23.6021L61.2778 23.5082L60.8439 28.0544L60.1143 28.176L59.6169 25.9264L59.1194 28.3418L58.3843 28.4662L57.9587 24.0637L58.5225 23.9697L58.8375 27.5403L59.3129 25.2023L59.9236 25.1L60.399 27.2778H60.3935ZM63.7762 23.0881V23.7624L63.2318 23.8536V23.1793L63.7762 23.0881ZM63.7762 24.2433V27.0733L64.6827 26.9213V27.4105L62.328 27.8057V27.3165L63.229 27.1645V24.8209L62.328 24.9729V24.4865L63.7762 24.2433ZM66.5371 22.9471L67.0815 22.8559V23.6906L68.386 23.4722V23.9586L67.0815 24.177V26.0949C67.0815 26.1806 67.0815 26.2497 67.0871 26.305C67.0953 26.3575 67.1092 26.3989 67.1285 26.4266C67.1479 26.457 67.181 26.4736 67.2225 26.4791C67.2639 26.4846 67.3247 26.4791 67.3994 26.468L68.3832 26.3022V26.7914L67.2805 26.9766C67.134 27.0014 67.0152 27.0097 66.9185 27.007C66.8245 26.9987 66.7471 26.971 66.6863 26.9213C66.6311 26.8688 66.5924 26.7914 66.5675 26.6891C66.5426 26.5814 66.5316 26.4404 66.5316 26.2691V24.2709L65.6251 24.4229V23.9365L66.5316 23.7845V22.9499L66.5371 22.9471ZM71.3652 22.914C71.5587 22.8808 71.7189 22.8891 71.8461 22.9333C71.9732 22.9748 72.0727 23.0439 72.1501 23.1406C72.2275 23.2373 72.2828 23.3644 72.3159 23.5137C72.3463 23.6602 72.3629 23.826 72.3629 24.0111V26.1198L71.8184 26.211V24.2986C71.8184 24.1631 71.8129 24.036 71.7991 23.9199C71.7908 23.8011 71.7659 23.7044 71.7217 23.6242C71.683 23.5413 71.6195 23.4778 71.531 23.4391C71.4481 23.4004 71.332 23.3921 71.1883 23.417C70.9396 23.4584 70.7489 23.5855 70.619 23.7956C70.4891 24.0029 70.4228 24.2847 70.4228 24.644V26.4459L69.8784 26.5371V22.0628L70.4228 21.9716V23.5938C70.5057 23.4363 70.6218 23.2926 70.7655 23.1655C70.9175 23.0356 71.1165 22.9527 71.3652 22.9112V22.914ZM73.8055 21.4078L76.4504 20.9656V21.5211L74.3693 21.8693V23.2014L76.337 22.8725V23.428L74.3693 23.7569V25.7882L73.8055 25.8821V21.4078ZM77.8819 23.5524C77.8819 23.7735 77.9068 23.9614 77.9538 24.1079C78.0008 24.2571 78.0671 24.3759 78.15 24.4644C78.2329 24.5528 78.3269 24.6136 78.4347 24.644C78.5452 24.6717 78.6613 24.6744 78.7829 24.6551C78.9045 24.6357 79.0206 24.5943 79.1256 24.5279C79.2361 24.4589 79.3328 24.3677 79.4158 24.2516C79.4987 24.1355 79.5622 23.9946 79.612 23.8287C79.6589 23.6657 79.6838 23.4722 79.6838 23.2484C79.6838 23.0245 79.6589 22.8421 79.612 22.6929C79.565 22.5436 79.4987 22.4276 79.4158 22.3364C79.3328 22.2479 79.2361 22.1899 79.1256 22.1623C79.0178 22.1319 78.9045 22.1263 78.7829 22.1457C78.6613 22.165 78.5425 22.2092 78.4347 22.2783C78.3269 22.3419 78.2329 22.4303 78.15 22.5492C78.0671 22.6652 78.0008 22.8062 77.9538 22.9692C77.9068 23.1351 77.8819 23.3258 77.8819 23.5496V23.5524ZM77.3071 23.6491C77.3071 23.3506 77.3486 23.0826 77.4315 22.8504C77.5199 22.6183 77.6304 22.422 77.7714 22.2562C77.9123 22.0932 78.0699 21.9633 78.2467 21.8693C78.4236 21.7698 78.6032 21.7035 78.7856 21.6731C78.968 21.6427 79.1449 21.6482 79.319 21.6897C79.4959 21.7256 79.6562 21.8002 79.7944 21.9191C79.9353 22.0351 80.0486 22.1954 80.1315 22.3999C80.2172 22.6044 80.2615 22.8559 80.2615 23.1544C80.2615 23.4529 80.2172 23.721 80.1315 23.9531C80.0486 24.1853 79.9353 24.3842 79.7944 24.5473C79.6562 24.7104 79.4987 24.8402 79.319 24.9397C79.1449 25.0337 78.968 25.0973 78.7856 25.1277C78.6032 25.1581 78.4236 25.1553 78.2467 25.1194C78.0726 25.0779 77.9151 25.0005 77.7714 24.8845C77.6332 24.7684 77.5199 24.6081 77.4315 24.4036C77.3486 24.1991 77.3071 23.9476 77.3071 23.6463V23.6491ZM82.6548 21.0817V21.6731C82.7321 21.4741 82.8455 21.311 82.992 21.1839C83.1384 21.054 83.3098 20.9711 83.5088 20.9379L84.0532 20.8467V21.3663L83.5143 21.4575C83.2103 21.5073 82.9919 21.6454 82.862 21.8693C82.7321 22.0932 82.6658 22.3861 82.6658 22.7481V23.9144L83.7575 23.732V24.2212L81.2204 24.6468V24.1576L82.1214 24.0056V21.662L81.2149 21.814V21.3276L82.6575 21.0872L82.6548 21.0817ZM86.6123 20.7832C86.6787 20.6395 86.7643 20.5234 86.8666 20.4322C86.9744 20.341 87.1015 20.283 87.2452 20.2581C87.3281 20.2443 87.411 20.2443 87.4884 20.2609C87.5658 20.2719 87.6349 20.3106 87.6957 20.3742C87.7592 20.4377 87.809 20.5345 87.8449 20.6643C87.8836 20.7942 87.903 20.9683 87.903 21.1839V23.522L87.3585 23.6132V21.5653C87.3585 21.4465 87.3585 21.3359 87.353 21.2337C87.353 21.1259 87.3419 21.0374 87.3226 20.9683C87.306 20.8937 87.2784 20.8385 87.2397 20.8025C87.2038 20.7638 87.1513 20.75 87.0849 20.7611C86.9467 20.7832 86.8528 20.8854 86.8003 21.0623C86.7533 21.2364 86.7284 21.4934 86.7284 21.8389V23.721L86.184 23.8122V21.7643C86.184 21.6454 86.184 21.5349 86.1784 21.4326C86.1784 21.3249 86.1674 21.2364 86.148 21.1673C86.1315 21.0927 86.1066 21.0374 86.0706 21.0015C86.0347 20.9628 85.985 20.949 85.9159 20.9601C85.7777 20.9822 85.6837 21.0844 85.6312 21.2613C85.5815 21.4382 85.5538 21.7035 85.5538 22.0517V23.9227L85.0094 24.0139V20.6947L85.5317 20.6063V20.9573C85.587 20.8412 85.6589 20.7362 85.7501 20.6367C85.8413 20.54 85.9629 20.4764 86.1121 20.4515C86.2613 20.4267 86.3692 20.4515 86.4438 20.5262C86.5184 20.5953 86.5737 20.6837 86.6096 20.7887L86.6123 20.7832ZM89.6496 21.5321C89.6496 21.2198 89.6745 20.9214 89.727 20.6367C89.7795 20.3493 89.8431 20.0812 89.9232 19.8325C90.0006 19.5838 90.089 19.3599 90.183 19.1526C90.2769 18.9481 90.3709 18.7685 90.4621 18.6192L90.9126 18.5446C90.8131 18.727 90.7219 18.9232 90.6335 19.1416C90.5505 19.3571 90.4759 19.5865 90.4069 19.8325C90.3433 20.0729 90.2908 20.3299 90.2521 20.6035C90.2161 20.8744 90.1968 21.1535 90.1968 21.4382C90.1968 21.7228 90.2161 22.0047 90.2521 22.2617C90.2908 22.5188 90.3433 22.7592 90.4069 22.9831C90.4732 23.2042 90.5478 23.4059 90.6335 23.5938C90.7191 23.7818 90.8131 23.9476 90.9126 24.0968L90.4621 24.1714C90.3709 24.0498 90.2797 23.9034 90.183 23.7292C90.089 23.5551 90.0006 23.3589 89.9232 23.1378C89.8431 22.9167 89.7795 22.6735 89.727 22.4055C89.6745 22.1346 89.6496 21.8417 89.6496 21.5294V21.5321ZM94.6353 23.475C94.4584 23.5054 94.3119 23.5137 94.1958 23.4999C94.0853 23.4888 93.9996 23.4556 93.9361 23.3948C93.8725 23.334 93.8283 23.2484 93.8062 23.1323C93.7868 23.019 93.7757 22.878 93.7757 22.7039V21.7035C93.7757 21.604 93.7702 21.5183 93.7564 21.4409C93.7481 21.3636 93.7288 21.3028 93.6984 21.253C93.668 21.2005 93.621 21.1646 93.563 21.1452C93.5049 21.1259 93.4248 21.1259 93.3253 21.1425V20.6865C93.4248 20.6699 93.5022 20.6422 93.563 20.6035C93.621 20.5621 93.668 20.5096 93.6984 20.4515C93.7316 20.388 93.7509 20.3161 93.7564 20.2387C93.7675 20.1586 93.7757 20.0729 93.7757 19.9762V18.9757C93.7757 18.8016 93.7868 18.6579 93.8062 18.5391C93.831 18.4175 93.8753 18.3152 93.9361 18.2323C93.9996 18.1522 94.088 18.0886 94.1958 18.0416C94.3119 17.9891 94.4556 17.9477 94.6353 17.92L94.9199 17.873V18.3484L94.6463 18.3954C94.5081 18.4175 94.4169 18.4617 94.3727 18.528C94.334 18.5916 94.3147 18.7104 94.3147 18.8845V19.9016C94.3147 20.0453 94.3036 20.1697 94.2787 20.2719C94.2594 20.3686 94.229 20.4543 94.1848 20.5289C94.1406 20.6035 94.088 20.6616 94.0245 20.7113C93.9664 20.7583 93.8974 20.7998 93.8172 20.8329V20.844C93.8974 20.8495 93.9664 20.8689 94.0245 20.8965C94.088 20.9241 94.1406 20.9656 94.1848 21.0236C94.229 21.0817 94.2594 21.159 94.2787 21.2558C94.3036 21.347 94.3147 21.463 94.3147 21.6068V22.6265C94.3147 22.8007 94.334 22.9112 94.3727 22.961C94.4169 23.0107 94.5081 23.0245 94.6463 23.0024L94.9199 22.9554V23.4308L94.6353 23.4778V23.475ZM12.9192 41.0795C12.9579 41.0021 13.0077 40.9303 13.063 40.8584C13.1182 40.7838 13.1846 40.7175 13.2592 40.6595C13.3338 40.5987 13.4222 40.5461 13.519 40.4992C13.6185 40.4549 13.729 40.419 13.8561 40.3997C14.0496 40.3665 14.2099 40.3748 14.337 40.419C14.4669 40.4577 14.5692 40.5268 14.6465 40.6263C14.7239 40.723 14.7792 40.8501 14.8123 40.9994C14.8427 41.1459 14.8593 41.3117 14.8593 41.4968V43.6055L14.3149 43.6967V41.7843C14.3149 41.6488 14.3094 41.5245 14.2955 41.4112C14.2873 41.2923 14.2624 41.1928 14.2182 41.1099C14.1739 41.027 14.1104 40.969 14.0219 40.9331C13.939 40.8944 13.8257 40.8861 13.6793 40.9109C13.4305 40.9524 13.2398 41.0768 13.1099 41.284C12.9828 41.4913 12.9192 41.7732 12.9192 42.1297V43.9316L12.3748 44.0228V40.7037L12.9192 40.6125V41.0823V41.0795ZM17.1255 43.3043C16.9846 43.3292 16.8492 43.3264 16.722 43.3043C16.5949 43.2849 16.4844 43.2435 16.3904 43.1799C16.2965 43.1136 16.2218 43.0279 16.1638 42.9201C16.114 42.8096 16.0864 42.6797 16.0864 42.5332C16.0864 42.337 16.1334 42.1629 16.2301 42.0164C16.3296 41.8644 16.4706 41.729 16.6502 41.6129C16.8354 41.4913 17.0565 41.3808 17.3135 41.284C17.5733 41.1873 17.869 41.0934 18.1978 40.9994V40.8584C18.1978 40.7147 18.1785 40.5987 18.1426 40.5102C18.1066 40.4218 18.0597 40.3527 17.9961 40.3057C17.9325 40.2587 17.8552 40.2311 17.764 40.22C17.6783 40.209 17.5815 40.2145 17.4793 40.2311C17.2306 40.2725 17.0482 40.3637 16.9293 40.5019C16.8105 40.6373 16.7414 40.8087 16.722 41.0187L16.1638 41.1127C16.1748 40.9331 16.219 40.7672 16.2937 40.6152C16.3738 40.4632 16.4706 40.3278 16.5894 40.2145C16.711 40.0984 16.8492 40.0045 17.0039 39.9298C17.1587 39.8552 17.319 39.8027 17.4848 39.7751C17.927 39.7005 18.2476 39.7557 18.4466 39.9354C18.6483 40.1122 18.7451 40.4301 18.7368 40.8944L18.7312 41.7041C18.7257 41.986 18.7312 42.2347 18.7423 42.4558C18.7533 42.6769 18.7644 42.8427 18.7727 42.9505L18.2504 43.039L18.2448 42.5526C18.1453 42.7433 18.0072 42.9035 17.8303 43.0362C17.6562 43.1689 17.4212 43.2601 17.1228 43.3098L17.1255 43.3043ZM18.2393 41.4471C17.9933 41.5134 17.775 41.5798 17.5815 41.6433C17.3909 41.7069 17.2278 41.7787 17.0896 41.8561C16.9569 41.9335 16.8519 42.0192 16.7801 42.1131C16.7082 42.2043 16.6723 42.3094 16.6723 42.4282C16.6723 42.583 16.7248 42.699 16.8271 42.7737C16.9349 42.8427 17.0841 42.8593 17.2775 42.8262C17.3992 42.8068 17.518 42.7709 17.6341 42.7184C17.7501 42.6631 17.8496 42.5857 17.9381 42.489C18.0293 42.3867 18.1011 42.2596 18.1564 42.1076C18.2116 41.9556 18.2393 41.7649 18.2393 41.5438V41.4526V41.4471ZM21.4396 39.5457C21.5059 39.402 21.5916 39.2859 21.6939 39.1947C21.8017 39.1035 21.926 39.0455 22.0725 39.0206C22.1554 39.0068 22.2356 39.0068 22.3157 39.0234C22.3931 39.0344 22.4622 39.0731 22.523 39.1367C22.5865 39.2002 22.6363 39.297 22.6722 39.4269C22.7109 39.5568 22.7303 39.7309 22.7303 39.9464V42.2845L22.1858 42.3757V40.3278C22.1858 40.209 22.1858 40.0984 22.1803 39.9962C22.1803 39.8884 22.1692 39.8 22.1499 39.7309C22.1333 39.6562 22.1057 39.601 22.067 39.565C22.031 39.5264 21.9785 39.5125 21.9122 39.5236C21.774 39.5457 21.6773 39.648 21.6276 39.8248C21.5806 39.9989 21.5557 40.256 21.5557 40.6014V42.4835L21.0113 42.5747V40.5268C21.0113 40.408 21.0113 40.2974 21.0057 40.1952C21.0057 40.0874 20.9947 39.9989 20.9753 39.9298C20.9588 39.8552 20.9339 39.8 20.8979 39.764C20.862 39.7253 20.8095 39.7115 20.7432 39.7226C20.605 39.7447 20.511 39.8469 20.4585 40.0238C20.406 40.2007 20.3811 40.466 20.3811 40.8142V42.6852L19.8367 42.7764V39.4573L20.359 39.3688V39.7198C20.4143 39.6037 20.4861 39.4987 20.5773 39.3992C20.6685 39.3025 20.7874 39.2417 20.9394 39.2141C21.0914 39.1864 21.1964 39.2141 21.271 39.2887C21.3456 39.3578 21.4009 39.4462 21.4368 39.5512L21.4396 39.5457ZM25.1319 41.9639C24.8914 42.0054 24.6786 41.9971 24.499 41.939C24.3166 41.8782 24.1646 41.7843 24.043 41.6516C23.9242 41.5162 23.8357 41.3476 23.7777 41.1486C23.7197 40.9496 23.6892 40.7258 23.6892 40.4771C23.6892 40.209 23.7252 39.963 23.797 39.7392C23.8689 39.5153 23.9684 39.3163 24.0928 39.1477C24.2226 38.9736 24.3774 38.8327 24.5543 38.7249C24.7311 38.6143 24.9274 38.5397 25.1346 38.5038C25.3695 38.4651 25.5768 38.4734 25.7565 38.5287C25.9389 38.5839 26.0881 38.6862 26.2069 38.8299C26.3285 38.9709 26.4197 39.1533 26.4805 39.3771C26.5441 39.601 26.569 39.8608 26.5579 40.1592L24.2641 40.5434C24.2641 40.712 24.2834 40.8612 24.3221 40.9911C24.3663 41.121 24.4244 41.226 24.499 41.3062C24.5764 41.3891 24.6676 41.4471 24.7726 41.483C24.8804 41.519 24.9965 41.5272 25.1208 41.5051C25.3585 41.4664 25.5409 41.3808 25.6653 41.2536C25.7952 41.121 25.8891 40.9552 25.9444 40.7562L26.5082 40.6622C26.4778 40.8253 26.4225 40.9773 26.3423 41.121C26.2677 41.2647 26.171 41.3946 26.0522 41.5107C25.9333 41.624 25.7979 41.7207 25.6432 41.8008C25.4884 41.881 25.3198 41.9363 25.1319 41.9667V41.9639ZM25.1319 38.9736C24.8721 39.0178 24.6648 39.1311 24.51 39.3191C24.358 39.5015 24.2779 39.753 24.2669 40.0763L25.9748 39.7917C25.9748 39.6562 25.9582 39.5346 25.9223 39.4241C25.8891 39.3108 25.8394 39.2168 25.7675 39.1477C25.6957 39.0731 25.6072 39.0206 25.4994 38.9902C25.3917 38.9598 25.27 38.9543 25.1319 38.9764V38.9736ZM28.603 40.5931L29.2857 40.4798V41.2398L28.9236 42.1104L28.5809 42.1684L28.896 41.2564L28.6058 41.3062V40.5959L28.603 40.5931ZM13.939 47.1375V47.8118L13.3946 47.903V47.2287L13.939 47.1375ZM13.939 48.2927V51.1227L14.8455 50.9707V51.4599L12.4909 51.8551V51.3659L13.3918 51.2139V48.8703L12.4909 49.0223V48.5359L13.939 48.2927ZM18.1039 48.5C18.068 48.3203 17.985 48.207 17.8551 48.16C17.728 48.1075 17.576 48.0965 17.3936 48.1269C17.3162 48.1407 17.2361 48.1628 17.1559 48.1904C17.0813 48.2208 17.0122 48.2568 16.9542 48.3037C16.8962 48.3452 16.8464 48.3977 16.805 48.4585C16.769 48.5193 16.7524 48.5856 16.7524 48.6603C16.7524 48.7902 16.7912 48.8841 16.8713 48.9366C16.9542 48.9891 17.0758 49.0168 17.2333 49.0251L17.5898 49.0389C17.728 49.0444 17.8634 49.0582 17.9989 49.0803C18.137 49.0997 18.2586 49.1384 18.3664 49.1964C18.477 49.2517 18.5654 49.3318 18.6318 49.4369C18.7008 49.5419 18.734 49.6745 18.734 49.8403C18.734 50.0172 18.7008 50.1775 18.6318 50.3212C18.5654 50.4649 18.4715 50.5893 18.3526 50.6943C18.2393 50.7993 18.1039 50.885 17.9491 50.9541C17.7943 51.026 17.6313 51.0757 17.4572 51.1061C17.2472 51.142 17.0648 51.1393 16.9072 51.1061C16.7525 51.0702 16.6226 51.0121 16.5148 50.9292C16.407 50.8463 16.3241 50.7441 16.266 50.6252C16.208 50.5036 16.1693 50.3793 16.1527 50.2494L16.7276 50.1526C16.7635 50.3406 16.8381 50.4788 16.9542 50.5672C17.073 50.6501 17.2444 50.6722 17.4682 50.6335C17.5511 50.6197 17.6341 50.5976 17.717 50.5672C17.8054 50.5368 17.8828 50.4953 17.9491 50.4428C18.021 50.3903 18.0763 50.3295 18.1149 50.2604C18.1592 50.1858 18.1785 50.1001 18.1785 50.0034C18.1785 49.8486 18.1177 49.7381 17.9961 49.6773C17.8745 49.6165 17.7114 49.5833 17.5097 49.5806L17.1117 49.5667C16.9846 49.564 16.8658 49.5474 16.7552 49.5198C16.6474 49.4894 16.5535 49.4424 16.4705 49.3816C16.3932 49.318 16.3296 49.2379 16.2799 49.1411C16.2329 49.0416 16.208 48.92 16.208 48.7763C16.208 48.616 16.2467 48.4723 16.3213 48.3424C16.396 48.2153 16.4927 48.1048 16.606 48.0108C16.7248 47.9141 16.8547 47.8367 16.9984 47.7787C17.1394 47.7179 17.2775 47.6764 17.413 47.6543C17.7529 47.5963 18.032 47.6377 18.2476 47.7759C18.4687 47.9113 18.6096 48.1213 18.6704 48.4088L18.1011 48.5027L18.1039 48.5ZM21.2793 45.8275C21.5474 45.7833 21.7851 45.7999 21.9868 45.8828C22.1886 45.9657 22.3544 46.0983 22.4843 46.2807C22.6169 46.4604 22.7192 46.6842 22.7855 46.9578C22.8518 47.2314 22.8878 47.5354 22.8878 47.8726C22.8878 48.2098 22.8546 48.5276 22.7855 48.8206C22.7192 49.1163 22.6169 49.3761 22.4843 49.6054C22.3544 49.8348 22.1886 50.0227 21.9868 50.1692C21.7851 50.3185 21.5502 50.4152 21.2793 50.4622C21.0113 50.5064 20.7763 50.487 20.5746 50.4069C20.3728 50.3267 20.2043 50.1941 20.0688 50.0089C19.939 49.8265 19.8395 49.5971 19.7731 49.3263C19.7068 49.0527 19.6736 48.7487 19.6736 48.4115C19.6736 48.0744 19.7068 47.7593 19.7731 47.4636C19.8395 47.1679 19.939 46.9109 20.0688 46.687C20.2043 46.4604 20.3728 46.2697 20.5746 46.1205C20.7763 45.9712 21.0113 45.8745 21.2793 45.8303V45.8275ZM21.2793 46.3719C20.9228 46.4327 20.663 46.629 20.4972 46.9661C20.3342 47.2978 20.254 47.7483 20.254 48.3148C20.254 48.8814 20.3342 49.307 20.4972 49.5889C20.663 49.8707 20.9228 49.9785 21.2793 49.9205C21.6358 49.8625 21.8929 49.6635 22.0559 49.3291C22.2218 48.9891 22.3046 48.5359 22.3046 47.9721C22.3046 47.4083 22.2218 46.9855 22.0559 46.7063C21.8929 46.4245 21.6331 46.3139 21.2793 46.3747V46.3719ZM24.3967 47.0408C24.488 46.8639 24.6068 46.7146 24.7588 46.5847C24.908 46.4521 25.1015 46.3664 25.3391 46.3277C25.5215 46.2973 25.6901 46.3084 25.8504 46.3609C26.008 46.4134 26.1461 46.5018 26.2595 46.6317C26.3755 46.7616 26.464 46.9274 26.5275 47.1292C26.5939 47.3309 26.627 47.5686 26.627 47.8395C26.627 48.1103 26.5939 48.3646 26.5275 48.5912C26.464 48.815 26.3755 49.0112 26.2595 49.1798C26.1461 49.3484 26.008 49.4838 25.8504 49.5861C25.6929 49.6883 25.5215 49.7547 25.3391 49.7851C25.1015 49.8238 24.908 49.8044 24.7588 49.727C24.6068 49.6469 24.488 49.5336 24.3967 49.3926V50.943L23.8523 51.0342V46.6345L24.3967 46.5433V47.0435V47.0408ZM24.3719 48.2153C24.3719 48.4336 24.394 48.6188 24.4382 48.7708C24.4852 48.92 24.5487 49.0389 24.6289 49.1273C24.7063 49.2185 24.7975 49.2766 24.9025 49.3097C25.0047 49.3429 25.1125 49.3484 25.2286 49.3291C25.5022 49.2821 25.7067 49.1411 25.8449 48.9007C25.9831 48.6547 26.0522 48.3341 26.0522 47.9334C26.0522 47.5327 25.9831 47.237 25.8449 47.0435C25.7067 46.8501 25.5022 46.7754 25.2286 46.8197C25.1153 46.839 25.0047 46.8805 24.9025 46.9496C24.8002 47.0159 24.709 47.1071 24.6289 47.2232C24.5487 47.3365 24.4852 47.4746 24.4382 47.6432C24.394 47.8063 24.3719 47.997 24.3719 48.2153ZM28.9651 49.1743C28.7247 49.2158 28.5118 49.2075 28.3294 49.1494C28.147 49.0886 27.995 48.9919 27.8734 48.862C27.7546 48.7266 27.6662 48.558 27.6054 48.359C27.5473 48.16 27.5169 47.9362 27.5169 47.6875C27.5169 47.4194 27.5528 47.1734 27.6247 46.9496C27.6965 46.7257 27.7961 46.5267 27.9204 46.3581C28.0503 46.184 28.2051 46.0431 28.3819 45.9353C28.5588 45.8247 28.7551 45.7501 28.9623 45.7142C29.1945 45.6755 29.4045 45.6838 29.5842 45.7391C29.7666 45.7943 29.9158 45.8966 30.0346 46.0403C30.1562 46.1813 30.2474 46.3637 30.3082 46.5875C30.3718 46.8114 30.3966 47.0712 30.3856 47.3696L28.089 47.7538C28.089 47.9224 28.1083 48.0716 28.147 48.2015C28.1912 48.3286 28.2493 48.4364 28.3239 48.5166C28.4041 48.5995 28.4952 48.6575 28.5975 48.6934C28.7053 48.7294 28.8214 48.7376 28.9485 48.7155C29.1862 48.6768 29.3686 48.5912 29.4929 48.464C29.6228 48.3314 29.7168 48.1656 29.7721 47.9666L30.3359 47.8726C30.3055 48.0357 30.2474 48.1877 30.17 48.3314C30.0954 48.4751 29.9987 48.605 29.8798 48.7211C29.761 48.8344 29.6256 48.9311 29.4708 49.0112C29.3161 49.0914 29.1475 49.1467 28.9596 49.1771L28.9651 49.1743ZM28.9651 46.184C28.7053 46.2282 28.4953 46.3415 28.3433 46.5295C28.194 46.7119 28.1139 46.9634 28.1001 47.2867L29.808 47.0021C29.808 46.8666 29.7887 46.745 29.7527 46.6345C29.7223 46.5212 29.6698 46.4272 29.598 46.3581C29.5261 46.2835 29.4377 46.231 29.3326 46.2006C29.2249 46.1702 29.1033 46.1647 28.9651 46.1868V46.184ZM32.088 45.7225C32.1267 45.6451 32.1737 45.5732 32.229 45.5014C32.2842 45.4268 32.3478 45.3604 32.4252 45.3024C32.4998 45.2416 32.5882 45.1891 32.685 45.1421C32.7817 45.0951 32.895 45.062 33.0221 45.0426C33.2156 45.0095 33.3759 45.0178 33.503 45.062C33.6329 45.1007 33.7352 45.1698 33.8125 45.2692C33.8899 45.366 33.948 45.4931 33.9784 45.6423C34.0088 45.7888 34.0253 45.9546 34.0253 46.1398V48.2485L33.4809 48.3397V46.4272C33.4809 46.2918 33.4754 46.1674 33.4643 46.0541C33.456 45.9381 33.4312 45.8358 33.387 45.7529C33.3427 45.67 33.2792 45.6119 33.1907 45.576C33.1078 45.5373 32.9917 45.529 32.848 45.5539C32.5993 45.5954 32.4086 45.7197 32.2787 45.927C32.1516 46.1343 32.088 46.4162 32.088 46.7727V48.5746L31.5436 48.6658V45.3466L32.088 45.2554V45.7252V45.7225ZM36.2694 47.1624L36.9521 47.049V47.8091L36.59 48.6796L36.2473 48.7376L36.5624 47.8256L36.2722 47.8754V47.1651L36.2694 47.1624ZM12.712 58.0208C12.712 58.2419 12.7368 58.4298 12.7838 58.5763C12.8308 58.7255 12.8971 58.8444 12.98 58.9328C13.0629 59.0212 13.1569 59.082 13.2647 59.1124C13.3753 59.1401 13.4913 59.1428 13.6157 59.1235C13.7401 59.1042 13.8534 59.0627 13.9584 58.9964C14.0689 58.93 14.1657 58.8361 14.2486 58.72C14.3315 58.6039 14.3978 58.463 14.4448 58.2972C14.4918 58.1341 14.5167 57.9406 14.5167 57.7168C14.5167 57.4929 14.4918 57.3105 14.4448 57.1613C14.3978 57.0121 14.3315 56.896 14.2486 56.8048C14.1657 56.7163 14.0689 56.6583 13.9584 56.6307C13.8506 56.6003 13.7373 56.5947 13.6157 56.6141C13.4941 56.6334 13.3753 56.6777 13.2647 56.7467C13.1569 56.8103 13.0629 56.8987 12.98 57.0176C12.8971 57.1337 12.8336 57.2746 12.7838 57.4377C12.7368 57.6035 12.712 57.7942 12.712 58.018V58.0208ZM12.1344 58.1175C12.1344 57.819 12.1758 57.551 12.2587 57.3188C12.3444 57.0867 12.4577 56.8905 12.5959 56.7274C12.7396 56.5643 12.8971 56.4344 13.0713 56.3405C13.2481 56.241 13.4305 56.1747 13.6102 56.1443C13.7898 56.1139 13.9695 56.1194 14.1436 56.1608C14.3204 56.1968 14.478 56.2742 14.6189 56.3902C14.7599 56.5063 14.8732 56.6666 14.9561 56.8711C15.0445 57.0756 15.0859 57.3271 15.0859 57.6256C15.0859 57.9241 15.0417 58.1921 14.9561 58.4243C14.8732 58.6564 14.7599 58.8554 14.6189 59.0185C14.4807 59.1815 14.3232 59.3114 14.1436 59.4109C13.9695 59.5076 13.7898 59.5712 13.6102 59.5988C13.4305 59.6265 13.2481 59.6265 13.0713 59.5906C12.8971 59.5491 12.7396 59.4717 12.5959 59.3556C12.4577 59.2396 12.3444 59.0793 12.2587 58.8748C12.1758 58.6702 12.1344 58.4188 12.1344 58.1175ZM16.7524 56.1415C16.7911 56.0641 16.8409 55.9923 16.8962 55.9204C16.9514 55.8458 17.0178 55.7795 17.0924 55.7214C17.167 55.6606 17.2554 55.6081 17.3522 55.5611C17.4517 55.5141 17.565 55.481 17.6893 55.4616C17.8828 55.4285 18.0431 55.4368 18.1702 55.481C18.3001 55.5197 18.4051 55.5888 18.4797 55.6883C18.5599 55.785 18.6151 55.9121 18.6455 56.0614C18.6787 56.2078 18.6925 56.3737 18.6925 56.5588V58.6675L18.1481 58.7587V56.8462C18.1481 56.7108 18.1426 56.5865 18.1315 56.4731C18.1232 56.3543 18.0983 56.2548 18.0541 56.1719C18.0099 56.089 17.9463 56.0282 17.8579 55.995C17.775 55.9563 17.6617 55.948 17.5152 55.9729C17.2665 56.0144 17.0758 56.1387 16.9459 56.346C16.8188 56.5533 16.7552 56.8352 16.7552 57.1917V58.9936L16.2108 59.0848V55.7656L16.7552 55.6744V56.1443L16.7524 56.1415ZM22.791 56.592C22.7164 57.0867 22.5451 57.4819 22.2798 57.7748C22.0145 58.065 21.6856 58.2447 21.2959 58.311C21.0361 58.3552 20.8067 58.3331 20.6133 58.2502C20.4198 58.1673 20.2568 58.0346 20.1269 57.8494C19.9997 57.6643 19.9058 57.4377 19.8422 57.1641C19.7842 56.8905 19.7538 56.5809 19.7538 56.241C19.7538 55.9011 19.7869 55.575 19.8533 55.2792C19.9251 54.9808 20.0246 54.7182 20.1573 54.4944C20.2899 54.2705 20.4558 54.0853 20.6547 53.9416C20.851 53.7979 21.0803 53.7039 21.3374 53.6597C21.5225 53.6293 21.6966 53.6376 21.8542 53.6846C22.0172 53.7288 22.1582 53.8062 22.2798 53.9168C22.4069 54.0273 22.5092 54.1682 22.5948 54.3396C22.6833 54.5109 22.7441 54.7072 22.78 54.9255L22.2051 55.0222C22.1858 54.8979 22.1526 54.7818 22.1112 54.674C22.0725 54.5662 22.0145 54.475 21.9398 54.4004C21.868 54.323 21.7823 54.2677 21.68 54.2346C21.5778 54.1986 21.459 54.1931 21.3236 54.2152C21.0113 54.2677 20.7681 54.4584 20.5939 54.7873C20.4226 55.1162 20.3397 55.5694 20.3397 56.1443C20.3397 56.4206 20.359 56.6638 20.3977 56.8794C20.442 57.0922 20.5055 57.2663 20.5884 57.41C20.6713 57.5482 20.7736 57.6477 20.8979 57.7085C21.0251 57.7693 21.1715 57.7859 21.3374 57.7582C21.47 57.7361 21.5889 57.6947 21.6939 57.6311C21.8017 57.5675 21.8901 57.4902 21.9592 57.3934C22.0338 57.2995 22.0946 57.1917 22.1361 57.0756C22.1803 56.954 22.2107 56.8214 22.23 56.6832L22.7938 56.5892L22.791 56.592ZM25.4027 53.0711V57.0563L26.3092 56.9043V57.3934L23.9546 57.7886V57.2995L24.8555 57.1475V53.6431L23.9546 53.7952V53.3143L25.4027 53.0711ZM28.0448 55.4534C28.0448 55.6744 28.0696 55.8624 28.1166 56.0088C28.1636 56.1581 28.2299 56.2769 28.3128 56.3654C28.3957 56.4538 28.4897 56.5146 28.5975 56.545C28.7081 56.5726 28.8241 56.5754 28.9457 56.556C29.0673 56.5367 29.1834 56.4953 29.2884 56.4289C29.399 56.3598 29.4957 56.2686 29.5786 56.1526C29.6615 56.0365 29.7251 55.8955 29.7748 55.7297C29.8218 55.5667 29.8467 55.3732 29.8467 55.1493C29.8467 54.9255 29.8218 54.7431 29.7748 54.5938C29.7278 54.4446 29.6615 54.3285 29.5786 54.2373C29.4957 54.1489 29.399 54.0909 29.2884 54.0632C29.1806 54.0328 29.0673 54.0273 28.9457 54.0466C28.8241 54.066 28.7081 54.1102 28.5975 54.1793C28.4897 54.2429 28.3957 54.3313 28.3128 54.4501C28.2299 54.5662 28.1636 54.7072 28.1166 54.8702C28.0696 55.036 28.0448 55.2267 28.0448 55.4506V55.4534ZM27.4699 55.5501C27.4699 55.2516 27.5114 54.9835 27.5943 54.7514C27.6827 54.5192 27.796 54.323 27.9342 54.1572C28.0752 53.9941 28.2355 53.8642 28.4096 53.7703C28.5865 53.6708 28.7689 53.6045 28.9485 53.5741C29.1281 53.5437 29.3078 53.5492 29.4819 53.5906C29.6588 53.6266 29.8191 53.7012 29.9572 53.82C30.0982 53.9361 30.2115 54.0964 30.2944 54.3009C30.3828 54.5054 30.4243 54.7569 30.4243 55.0554C30.4243 55.3539 30.3801 55.6219 30.2944 55.8541C30.2115 56.0862 30.0982 56.2852 29.9572 56.4483C29.8191 56.6113 29.6615 56.7412 29.4819 56.8407C29.3078 56.9347 29.1309 56.9982 28.9485 57.0286C28.7661 57.059 28.5865 57.0563 28.4096 57.0203C28.2355 56.9789 28.0779 56.9015 27.9342 56.7854C27.796 56.6694 27.6827 56.5091 27.5943 56.3046C27.5114 56.1 27.4699 55.8486 27.4699 55.5473V55.5501ZM33.4394 53.7841C33.4035 53.6045 33.3206 53.4911 33.1907 53.4442C33.0636 53.3917 32.9088 53.3806 32.7292 53.411C32.6491 53.4248 32.5716 53.4469 32.4915 53.4746C32.4169 53.505 32.3506 53.5409 32.2898 53.5879C32.2317 53.6293 32.182 53.6818 32.1405 53.7426C32.1046 53.8034 32.088 53.8698 32.088 53.9444C32.088 54.0743 32.1267 54.1682 32.2069 54.2208C32.2898 54.2733 32.4086 54.3037 32.5689 54.3092L32.9254 54.323C33.0636 54.3285 33.199 54.3424 33.3344 54.3645C33.4726 54.3838 33.5942 54.4225 33.702 54.4805C33.8125 54.5358 33.901 54.616 33.9673 54.721C34.0336 54.826 34.0696 54.9587 34.0696 55.1245C34.0696 55.3013 34.0364 55.4616 33.9673 55.6053C33.901 55.7491 33.807 55.8734 33.6882 55.9784C33.5721 56.0835 33.4394 56.1691 33.2847 56.2382C33.1299 56.3101 32.9669 56.3598 32.7928 56.3902C32.5827 56.4262 32.4003 56.4234 32.2428 56.3902C32.088 56.3543 31.9581 56.2963 31.8503 56.2134C31.7426 56.1304 31.6596 56.0282 31.6016 55.9094C31.5436 55.7878 31.5049 55.6634 31.4883 55.5335L32.0632 55.4368C32.0991 55.6247 32.1737 55.7629 32.2898 55.8513C32.4086 55.9342 32.5799 55.9563 32.8038 55.9176C32.8867 55.9038 32.9696 55.8817 33.0525 55.8513C33.141 55.8209 33.2156 55.7795 33.2847 55.727C33.3565 55.6744 33.4118 55.6136 33.4505 55.5445C33.4947 55.4699 33.5141 55.3843 33.5141 55.2875C33.5141 55.1328 33.4533 55.0222 33.3317 54.9614C33.2101 54.9006 33.047 54.8675 32.8453 54.8647L32.4473 54.8509C32.3202 54.8481 32.2013 54.8315 32.0908 54.8039C31.983 54.7735 31.889 54.7265 31.8061 54.6657C31.7287 54.6021 31.6624 54.522 31.6154 54.4253C31.5685 54.3258 31.5436 54.2042 31.5436 54.0605C31.5436 53.9002 31.5823 53.7565 31.6569 53.6266C31.7315 53.4994 31.8255 53.3889 31.9415 53.2949C32.0604 53.1982 32.1903 53.1208 32.334 53.0628C32.4749 53.002 32.6131 52.9605 32.7485 52.9384C33.0885 52.8804 33.3676 52.9218 33.5832 53.06C33.8043 53.1954 33.9452 53.4055 34.006 53.6929L33.4367 53.7869L33.4394 53.7841ZM36.6315 55.7435C36.3911 55.785 36.1782 55.7767 35.9986 55.7187C35.8162 55.6579 35.6642 55.5639 35.5426 55.4312C35.4238 55.2958 35.3353 55.1272 35.2773 54.9282C35.2193 54.7293 35.1888 54.5054 35.1888 54.2567C35.1888 53.9886 35.2248 53.7426 35.2966 53.5188C35.3685 53.2949 35.468 53.0959 35.5924 52.9274C35.7222 52.7532 35.877 52.6123 36.0539 52.5045C36.2307 52.394 36.427 52.3194 36.6343 52.2834C36.8692 52.2447 37.0764 52.253 37.2561 52.3083C37.4385 52.3636 37.5877 52.4658 37.7065 52.6095C37.8281 52.7505 37.9194 52.9329 37.9802 53.1567C38.0437 53.3806 38.0686 53.6404 38.0575 53.9389L35.7637 54.323C35.7637 54.4916 35.783 54.6408 35.8217 54.7707C35.8659 54.9006 35.924 55.0056 35.9986 55.0858C36.076 55.1687 36.1672 55.2267 36.2722 55.2627C36.38 55.2986 36.4961 55.3069 36.6204 55.2848C36.8581 55.2461 37.0405 55.1604 37.1649 55.0333C37.2948 54.9006 37.3887 54.7348 37.444 54.5358L38.0078 54.4418C37.9774 54.6049 37.9221 54.7569 37.842 54.9006C37.7674 55.0443 37.6706 55.1742 37.5518 55.2903C37.4329 55.4036 37.2975 55.5003 37.1428 55.5805C36.988 55.6606 36.8194 55.7159 36.6315 55.7463V55.7435ZM36.6315 52.7505C36.3717 52.7947 36.1644 52.908 36.0097 53.0959C35.8577 53.2783 35.7775 53.5298 35.7665 53.8532L37.4744 53.5685C37.4744 53.4331 37.4578 53.3115 37.4219 53.201C37.3887 53.0876 37.339 52.9937 37.2671 52.9246C37.1953 52.85 37.1068 52.7975 36.9991 52.7671C36.8913 52.7367 36.7697 52.7311 36.6315 52.7532V52.7505ZM40.1026 54.3728L40.7853 54.2594V55.0195L40.4232 55.89L40.0805 55.948L40.3956 55.036L40.1054 55.0858V54.3755L40.1026 54.3728ZM13.671 63.9848C13.8561 63.9544 14.0247 63.9599 14.174 63.9986C14.3287 64.0345 14.4614 64.0981 14.5719 64.1921C14.6825 64.2805 14.7681 64.391 14.8317 64.5182C14.898 64.6481 14.9395 64.7835 14.9505 64.9299L14.3978 65.0212C14.3619 64.8222 14.2762 64.6702 14.1436 64.5652C14.0081 64.4601 13.8423 64.4242 13.6461 64.4574C13.5273 64.4767 13.414 64.5237 13.3089 64.5955C13.2067 64.6674 13.1155 64.7614 13.0353 64.8802C12.9579 64.9963 12.8916 65.1372 12.8446 65.3003C12.8004 65.4633 12.7811 65.6513 12.7811 65.8585C12.7811 66.0658 12.8032 66.251 12.8446 66.403C12.8916 66.5522 12.9552 66.6738 13.0353 66.765C13.1155 66.8562 13.2067 66.917 13.3089 66.953C13.4167 66.9889 13.53 66.9972 13.6461 66.9778C13.7539 66.9612 13.8506 66.9253 13.9363 66.8728C14.0275 66.8203 14.1049 66.7595 14.1684 66.6849C14.2348 66.6075 14.29 66.5246 14.3287 66.4361C14.3729 66.3477 14.4033 66.2565 14.4227 66.1598L14.9865 66.0658C14.9616 66.2344 14.9119 66.3947 14.8317 66.5495C14.7571 66.7015 14.6576 66.8396 14.536 66.964C14.4144 67.0884 14.2734 67.1906 14.1131 67.2735C13.9584 67.3564 13.7926 67.4145 13.6157 67.4449C13.3946 67.4808 13.1984 67.4725 13.0215 67.42C12.8474 67.362 12.6982 67.268 12.5766 67.1354C12.455 66.9999 12.361 66.8313 12.2974 66.6324C12.2339 66.4334 12.2035 66.2068 12.2035 65.9497C12.2035 65.6927 12.2366 65.4689 12.3057 65.2478C12.372 65.0267 12.4688 64.8305 12.5959 64.6563C12.723 64.4795 12.875 64.3302 13.0519 64.2142C13.2343 64.0953 13.4388 64.0124 13.6682 63.9765L13.671 63.9848ZM17.6949 63.3104C17.8883 63.2773 18.0486 63.2856 18.1757 63.3298C18.3029 63.3712 18.4024 63.4403 18.477 63.5371C18.5571 63.6338 18.6124 63.7609 18.6428 63.9102C18.6759 64.0566 18.6898 64.2225 18.6898 64.4076V66.5163L18.1453 66.6075V64.695C18.1453 64.5596 18.1398 64.4325 18.1287 64.3164C18.1205 64.1976 18.0956 64.1009 18.0514 64.0207C18.0127 63.935 17.9491 63.8742 17.8607 63.8355C17.7778 63.7968 17.6645 63.7886 17.518 63.8134C17.2693 63.8549 17.0785 63.982 16.9487 64.1921C16.8188 64.3993 16.7524 64.6812 16.7524 65.0377V66.8396L16.208 66.9308V62.4565L16.7524 62.3653V63.9875C16.8354 63.83 16.9487 63.6863 17.0951 63.5592C17.2444 63.432 17.4434 63.3464 17.6949 63.3049V63.3104ZM21.6055 61.5583V62.2326L21.061 62.3238V61.6495L21.6055 61.5583ZM21.6055 62.7135V65.5435L22.5119 65.3915V65.8806L20.1573 66.2759V65.7867L21.0582 65.6347V63.2911L20.1573 63.4431V62.9567L21.6055 62.7135ZM25.4027 60.9226V64.9078L26.3092 64.7558V65.245L23.9546 65.6402V65.151L24.8555 64.999V61.4947L23.9546 61.6467V61.1658L25.4027 60.9226ZM29.6643 60.2096L30.2087 60.1184V64.5928L29.6698 64.684L29.6643 64.2169C29.5731 64.3883 29.4543 64.5403 29.3023 64.6729C29.1558 64.8001 28.9623 64.8857 28.7219 64.9244C28.5367 64.9548 28.3653 64.9465 28.2078 64.8996C28.0531 64.847 27.9176 64.7586 27.8043 64.6287C27.691 64.4988 27.5971 64.3358 27.5307 64.1313C27.4672 63.9267 27.4368 63.6891 27.4368 63.4127C27.4368 63.1363 27.4672 62.8931 27.5307 62.6693C27.5971 62.4454 27.6883 62.2492 27.8043 62.0806C27.9176 61.912 28.0531 61.7794 28.2078 61.6744C28.3653 61.5693 28.5367 61.5002 28.7219 61.4698C28.9623 61.4284 29.1585 61.4505 29.3023 61.5334C29.4543 61.6108 29.5731 61.7213 29.6643 61.8678V60.2151V60.2096ZM29.6892 63.0313C29.6892 62.813 29.6643 62.6306 29.6173 62.4813C29.5731 62.3293 29.5123 62.2077 29.4321 62.1221C29.3548 62.0336 29.2636 61.9728 29.1585 61.9397C29.0563 61.9065 28.9485 61.901 28.8324 61.9203C28.5588 61.9673 28.3543 62.1082 28.2161 62.3487C28.0779 62.5919 28.0088 62.9097 28.0088 63.3077C28.0088 63.7056 28.0779 64.0069 28.2161 64.2059C28.3543 64.3993 28.5588 64.4739 28.8324 64.4297C28.9457 64.4104 29.0563 64.3689 29.1585 64.2998C29.2608 64.2335 29.352 64.1423 29.4321 64.0262C29.5123 63.9102 29.5731 63.7692 29.6173 63.6062C29.6643 63.4376 29.6892 63.2441 29.6892 63.0258V63.0313ZM32.8149 60.8342V61.4256C32.8922 61.2266 33.0055 61.0636 33.152 60.9365C33.2985 60.8066 33.4698 60.7237 33.6661 60.6905L34.2105 60.5993V61.1189L33.6716 61.2101C33.3676 61.2598 33.1493 61.398 33.0194 61.6218C32.8895 61.8457 32.8232 62.1387 32.8232 62.5007V63.667L33.9148 63.4846V63.9737L31.3778 64.3993V63.9102L32.2787 63.7582V61.4146L31.3722 61.5666V61.0802L32.8121 60.8397L32.8149 60.8342ZM36.6315 63.5979C36.3911 63.6393 36.1782 63.631 35.9986 63.573C35.8162 63.5122 35.6642 63.4182 35.5426 63.2856C35.4238 63.1502 35.3353 62.9816 35.2773 62.7826C35.2193 62.5836 35.1888 62.3597 35.1888 62.111C35.1888 61.8429 35.2248 61.597 35.2966 61.3731C35.3685 61.1493 35.468 60.9503 35.5924 60.7817C35.7222 60.6076 35.877 60.4666 36.0539 60.3589C36.2307 60.2483 36.427 60.1737 36.6343 60.1378C36.8692 60.0991 37.0764 60.1074 37.2561 60.1626C37.4385 60.2179 37.5877 60.3202 37.7065 60.4639C37.8281 60.6048 37.9194 60.7872 37.9802 61.0111C38.0437 61.2349 38.0686 61.4947 38.0575 61.7932L35.7637 62.1773C35.7637 62.3459 35.783 62.4952 35.8217 62.6251C35.8659 62.7549 35.924 62.86 35.9986 62.9401C36.076 63.023 36.1672 63.0811 36.2722 63.117C36.38 63.1529 36.4961 63.1612 36.6204 63.1391C36.8581 63.1004 37.0405 63.0147 37.1649 62.8876C37.2948 62.7549 37.3887 62.5891 37.444 62.3901L38.0078 62.2962C37.9774 62.4592 37.9221 62.6112 37.842 62.7549C37.7674 62.8987 37.6706 63.0285 37.5518 63.1446C37.4329 63.2579 37.2975 63.3547 37.1428 63.4348C36.988 63.515 36.8194 63.5702 36.6315 63.6006V63.5979ZM36.6315 60.6048C36.3717 60.649 36.1644 60.7623 36.0097 60.9503C35.8577 61.1327 35.7775 61.3842 35.7665 61.7075L37.4744 61.4229C37.4744 61.2874 37.4578 61.1658 37.4219 61.0553C37.3887 60.942 37.339 60.848 37.2671 60.7789C37.1953 60.7043 37.1068 60.6518 36.9991 60.6214C36.8913 60.591 36.7697 60.5855 36.6315 60.6076V60.6048ZM39.7544 60.1433C39.7931 60.0659 39.8429 59.994 39.8954 59.9222C39.9506 59.8476 40.017 59.7812 40.0916 59.7232C40.1662 59.6624 40.2546 59.6099 40.3514 59.5629C40.4509 59.5159 40.5642 59.4828 40.6885 59.4634C40.882 59.4303 41.0423 59.4386 41.1694 59.4828C41.2993 59.5215 41.4043 59.5906 41.4789 59.69C41.5591 59.7868 41.6144 59.9139 41.6448 60.0631C41.6779 60.2096 41.6917 60.3754 41.6917 60.5606V62.6693L41.1473 62.7605V60.848C41.1473 60.7126 41.1418 60.5882 41.1307 60.4749C41.1224 60.3561 41.0976 60.2566 41.0534 60.1737C41.0091 60.0908 40.9456 60.03 40.8571 59.9968C40.7742 59.9581 40.6609 59.9498 40.5144 59.9747C40.2657 60.0162 40.075 60.1405 39.9451 60.3478C39.818 60.5551 39.7544 60.837 39.7544 61.1935V62.9954L39.21 63.0866V59.7674L39.7544 59.6762V60.146V60.1433ZM43.9386 61.5832L44.6212 61.4698V62.2299L44.2592 63.1004L43.9165 63.1584L44.2316 62.2464L43.9414 62.2962V61.5859L43.9386 61.5832ZM13.0022 71.7645C13.0022 71.5904 13.0132 71.4467 13.0381 71.3278C13.063 71.2062 13.1072 71.104 13.168 71.0211C13.2315 70.9409 13.3172 70.8774 13.4222 70.8304C13.5328 70.7806 13.6737 70.7392 13.8478 70.7088L14.9754 70.5208V71.0017L13.8617 71.1897C13.7262 71.2118 13.6406 71.256 13.6019 71.3195C13.5659 71.3831 13.5466 71.5019 13.5466 71.6733V71.9137L14.9754 71.6733V72.1597L13.5466 72.4001V75.2329L13.0022 75.3241V72.4913L12.1537 72.6323V72.1459L13.0022 72.0049V71.7645ZM16.5452 73.0828C16.5452 73.3039 16.57 73.4918 16.617 73.6383C16.664 73.7875 16.7303 73.9063 16.8132 73.9948C16.8961 74.0832 16.9901 74.144 17.0979 74.1744C17.2085 74.202 17.3245 74.2048 17.4461 74.1855C17.5677 74.1661 17.6838 74.1247 17.7888 74.0583C17.8994 73.9892 17.9961 73.898 18.079 73.782C18.1619 73.6659 18.2255 73.525 18.2752 73.3591C18.3222 73.1961 18.3471 73.0026 18.3471 72.7788C18.3471 72.5549 18.3222 72.3725 18.2752 72.2233C18.2282 72.074 18.1619 71.9579 18.079 71.8667C17.9961 71.7783 17.8994 71.7203 17.7888 71.6926C17.681 71.6622 17.5677 71.6567 17.4461 71.6761C17.3245 71.6954 17.2085 71.7396 17.0979 71.8087C16.9901 71.8723 16.8961 71.9607 16.8132 72.0796C16.7303 72.1956 16.664 72.3366 16.617 72.4996C16.57 72.6654 16.5452 72.8561 16.5452 73.08V73.0828ZM15.9703 73.1795C15.9703 72.881 16.0118 72.6129 16.0947 72.3808C16.1831 72.1486 16.2964 71.9524 16.4319 71.7866C16.5756 71.6235 16.7331 71.4937 16.9072 71.3997C17.0841 71.3002 17.2665 71.2339 17.4461 71.2035C17.6258 71.1731 17.8054 71.1786 17.9795 71.22C18.1564 71.256 18.3167 71.3306 18.4549 71.4494C18.5986 71.5655 18.7091 71.7258 18.792 71.9303C18.8805 72.1348 18.9219 72.3863 18.9219 72.6848C18.9219 72.9833 18.8777 73.2513 18.792 73.4835C18.7091 73.7156 18.5958 73.9146 18.4549 74.0777C18.3167 74.2407 18.1592 74.3706 17.9795 74.4701C17.8054 74.5641 17.6285 74.6276 17.4461 74.658C17.2637 74.6884 17.0841 74.6857 16.9072 74.6498C16.7331 74.6083 16.5756 74.5309 16.4319 74.4148C16.2937 74.2988 16.1804 74.1385 16.0947 73.934C16.0118 73.7295 15.9703 73.478 15.9703 73.1767V73.1795ZM21.3153 70.612V71.2035C21.3926 71.0045 21.5059 70.8414 21.6524 70.7143C21.7989 70.5844 21.9702 70.5015 22.1665 70.4683L22.7109 70.3771V70.8967L22.172 70.9879C21.868 71.0376 21.6497 71.1758 21.5198 71.3997C21.3899 71.6235 21.3236 71.9165 21.3236 72.2785V73.4448L22.4152 73.2624V73.7516L19.8782 74.1772V73.688L20.7791 73.536V71.1924L19.8726 71.3444V70.858L21.3125 70.6176L21.3153 70.612ZM25.2728 70.3136C25.3419 70.1699 25.4248 70.0538 25.5271 69.9626C25.6349 69.8714 25.7592 69.8133 25.9057 69.7885C25.9886 69.7747 26.0688 69.7746 26.1489 69.7912C26.229 69.8023 26.2981 69.841 26.3562 69.9045C26.4197 69.9681 26.4695 70.0648 26.5027 70.1947C26.5414 70.3246 26.5607 70.4987 26.5607 70.7143V73.0524L26.0163 73.1436V71.0957C26.0163 70.9769 26.0162 70.8663 26.0107 70.764C26.0107 70.6563 25.9997 70.5678 25.9803 70.4987C25.9665 70.4214 25.9361 70.3688 25.8974 70.3329C25.8615 70.2942 25.8117 70.2804 25.7427 70.2915C25.6045 70.3136 25.5105 70.4158 25.458 70.5927C25.411 70.7668 25.3861 71.0238 25.3861 71.3693V73.2513L24.8417 73.3425V71.2947C24.8417 71.1758 24.8417 71.0653 24.8362 70.963C24.8362 70.8552 24.8251 70.7668 24.8058 70.6977C24.7919 70.6203 24.7643 70.5678 24.7284 70.5319C24.6924 70.4932 24.64 70.4794 24.5736 70.4904C24.4354 70.5125 24.3387 70.6148 24.289 70.7917C24.2365 70.9686 24.2116 71.2339 24.2116 71.5821V73.4531L23.6671 73.5443V70.2251L24.1895 70.1367V70.4877C24.2447 70.3716 24.3166 70.2666 24.4105 70.1671C24.5017 70.0704 24.6206 70.0096 24.7726 69.9819C24.9191 69.9571 25.0296 69.9819 25.1042 70.0565C25.1788 70.1256 25.2341 70.2141 25.27 70.3191L25.2728 70.3136ZM28.6611 68.7853L27.3677 69.0008V68.4453L30.5183 67.9175V68.473L29.2249 68.6885V72.6074L28.6611 72.7014V68.7825V68.7853ZM33.1078 67.4836V68.1579L32.5634 68.2491V67.5748L33.1078 67.4836ZM33.1078 68.6388V71.4688L34.0143 71.3168V71.8059L31.6597 72.2012V71.712L32.5606 71.56V69.2164L31.6597 69.3684V68.882L33.1078 68.6388ZM35.866 67.3426L36.4104 67.2514V68.0861L37.7148 67.8677V68.3541L36.4104 68.5725V70.4904C36.4104 70.5761 36.4104 70.6452 36.4159 70.7005C36.4242 70.753 36.438 70.7944 36.4574 70.8221C36.4767 70.8525 36.5071 70.8691 36.5513 70.8746C36.5956 70.8801 36.6536 70.8746 36.7282 70.8635L37.7121 70.6977V71.1869L36.6094 71.3721C36.4629 71.3969 36.3413 71.408 36.2473 71.4025C36.1534 71.3942 36.076 71.3665 36.0179 71.3168C35.9627 71.2643 35.924 71.1869 35.8991 71.0846C35.8742 70.9768 35.8632 70.8359 35.8632 70.6646V68.6664L34.9567 68.8184V68.332L35.8632 68.18V67.3454L35.866 67.3426ZM40.7383 66.2068V70.192L41.6448 70.04V70.5291L39.2901 70.9243V70.4352L40.1911 70.2832V66.7788L39.2901 66.9308V66.45L40.7383 66.2068ZM44.3007 70.1643C44.0602 70.2058 43.8474 70.1975 43.665 70.1395C43.4826 70.0787 43.3306 69.9847 43.209 69.852C43.0902 69.7166 43.0017 69.548 42.9409 69.3491C42.8829 69.1501 42.8525 68.9262 42.8525 68.6775C42.8525 68.4094 42.8884 68.1634 42.9603 67.9396C43.0321 67.7157 43.1289 67.5167 43.256 67.3482C43.3859 67.174 43.5406 67.0331 43.7175 66.9253C43.8944 66.8148 44.0879 66.7402 44.2979 66.7042C44.53 66.6655 44.7373 66.6738 44.9197 66.7291C45.1021 66.7844 45.2514 66.8866 45.3702 67.0303C45.4918 67.1713 45.583 67.3537 45.6438 67.5775C45.7074 67.8014 45.7322 68.0612 45.7212 68.3597L43.4246 68.7438C43.4246 68.9124 43.4439 69.0616 43.4826 69.1915C43.5268 69.3214 43.5849 69.4264 43.6595 69.5066C43.7369 69.5895 43.8308 69.6475 43.9331 69.6835C44.0409 69.7194 44.1569 69.7277 44.2841 69.7056C44.5217 69.6669 44.7014 69.5812 44.8285 69.4541C44.9584 69.3214 45.0524 69.1556 45.1076 68.9566L45.6714 68.8626C45.6383 69.0257 45.583 69.1777 45.5056 69.3214C45.431 69.4651 45.3343 69.595 45.2154 69.7111C45.0966 69.8244 44.9612 69.9211 44.8064 70.0013C44.6516 70.0814 44.4831 70.1367 44.2951 70.1671L44.3007 70.1643ZM44.3007 67.1713C44.0409 67.2155 43.8308 67.3288 43.6788 67.5167C43.5296 67.6991 43.4495 67.9506 43.4356 68.274L45.1436 67.9893C45.1436 67.8539 45.1242 67.7323 45.0883 67.6218C45.0579 67.5085 45.0054 67.4145 44.9335 67.3454C44.8617 67.2708 44.7732 67.2183 44.6682 67.1879C44.5604 67.1575 44.4388 67.1519 44.3007 67.174V67.1713ZM47.7718 68.7936L48.4544 68.6802V69.4402L48.0924 70.3108L47.7497 70.3688L48.0648 69.4568L47.7746 69.5066V68.7963L47.7718 68.7936ZM12.8944 80.3761C12.9856 80.1992 13.1044 80.05 13.2564 79.9201C13.4056 79.7874 13.6019 79.7017 13.8423 79.6603C14.0247 79.6299 14.1933 79.6409 14.3481 79.6934C14.5056 79.746 14.641 79.8344 14.7571 79.9643C14.8732 80.0942 14.9616 80.26 15.0252 80.4617C15.0915 80.6635 15.1246 80.9012 15.1246 81.172C15.1246 81.4428 15.0915 81.6971 15.0252 81.9237C14.9616 82.1476 14.8732 82.3438 14.7571 82.5124C14.6438 82.681 14.5056 82.8164 14.3481 82.9186C14.1933 83.0209 14.0247 83.0845 13.8423 83.1149C13.6019 83.1563 13.4056 83.137 13.2564 83.0596C13.1044 82.9794 12.9856 82.8661 12.8944 82.7252L12.8888 83.195L12.3499 83.2862V78.8118L12.8944 78.7206V80.3733V80.3761ZM12.8723 81.5506C12.8723 81.769 12.8971 81.9541 12.9441 82.1061C12.9911 82.2554 13.0519 82.3742 13.1293 82.4654C13.2067 82.5566 13.2979 82.6146 13.4029 82.6478C13.5051 82.681 13.6129 82.6865 13.729 82.6671C14.0054 82.6202 14.2126 82.4765 14.3453 82.2388C14.4835 81.9928 14.5526 81.6722 14.5526 81.2715C14.5526 80.8708 14.4835 80.575 14.3453 80.3816C14.2126 80.1854 14.0054 80.1108 13.729 80.1577C13.6157 80.1771 13.5051 80.2185 13.4029 80.2876C13.3006 80.354 13.2094 80.4452 13.1293 80.5612C13.0547 80.6718 12.9911 80.8127 12.9441 80.9813C12.8971 81.1444 12.8723 81.3378 12.8723 81.5534V81.5506ZM18.1343 81.8906C18.0486 82.0509 17.9325 82.189 17.7916 82.3134C17.6506 82.4322 17.4516 82.5124 17.1974 82.5538C17.0039 82.587 16.8436 82.5815 16.7165 82.54C16.5894 82.4958 16.4899 82.4239 16.4125 82.3244C16.3379 82.225 16.2854 82.1034 16.2522 81.9569C16.2218 81.8049 16.2052 81.6391 16.2052 81.4539V79.3203L16.7497 79.2292V81.1665C16.7497 81.3019 16.7552 81.429 16.7607 81.5479C16.7718 81.6612 16.7994 81.7579 16.8381 81.8436C16.8768 81.9237 16.9404 81.9818 17.0233 82.0232C17.1062 82.0591 17.2223 82.0647 17.3715 82.0398C17.6202 81.9983 17.8082 81.8767 17.9353 81.675C18.0652 81.4677 18.1315 81.1858 18.1315 80.8265V78.9998L18.6759 78.9086V82.2277L18.1315 82.3189V81.8933L18.1343 81.8906ZM20.5332 77.7644L21.0776 77.6732V78.5078L22.382 78.2895V78.7759L21.0776 78.9942V80.9122C21.0776 80.9979 21.0776 81.067 21.0831 81.1223C21.0914 81.1748 21.1052 81.2162 21.1245 81.2439C21.1439 81.2743 21.1771 81.2908 21.2185 81.2964C21.26 81.3019 21.3208 81.2964 21.3954 81.2853L22.3793 81.1195V81.6087L21.2766 81.7938C21.1301 81.8187 21.0113 81.827 20.9145 81.8242C20.8206 81.8159 20.7432 81.7883 20.6824 81.7386C20.6271 81.686 20.5884 81.6087 20.5635 81.5064C20.5387 81.3986 20.5276 81.2577 20.5276 81.0863V79.0882L19.6211 79.2402V78.7538L20.5276 78.6018V77.7672L20.5332 77.7644ZM24.3664 77.1205L24.9108 77.0293V77.8639L26.2152 77.6456V78.132L24.9108 78.3503V80.2683C24.9108 80.354 24.9108 80.423 24.9163 80.4783C24.9246 80.5308 24.9384 80.5723 24.9578 80.5999C24.9771 80.6303 25.0075 80.6469 25.0517 80.6524C25.096 80.658 25.154 80.6524 25.2286 80.6414L26.2125 80.4756V80.9647L25.1098 81.1499C24.9633 81.1748 24.8417 81.1858 24.7477 81.1803C24.6538 81.172 24.5764 81.1444 24.5183 81.0946C24.4631 81.0421 24.4244 80.9647 24.3995 80.8625C24.3746 80.7547 24.3636 80.6137 24.3636 80.4424V78.4443L23.4571 78.5963V78.1099L24.3636 77.9579V77.1232L24.3664 77.1205ZM28.0448 79.0108C28.0448 79.2319 28.0696 79.4198 28.1166 79.5663C28.1636 79.7156 28.2299 79.8344 28.3128 79.9228C28.3957 80.0113 28.4897 80.0721 28.5975 80.1025C28.7081 80.1301 28.8241 80.1329 28.9457 80.1135C29.0673 80.0942 29.1834 80.0527 29.2884 79.9864C29.399 79.9173 29.4957 79.8261 29.5786 79.71C29.6615 79.594 29.7251 79.453 29.7748 79.2872C29.8218 79.1241 29.8467 78.9307 29.8467 78.7068C29.8467 78.483 29.8218 78.3006 29.7748 78.1513C29.7278 78.0021 29.6615 77.886 29.5786 77.7948C29.4957 77.7064 29.399 77.6483 29.2884 77.6207C29.1806 77.5903 29.0673 77.5848 28.9457 77.6041C28.8241 77.6235 28.7081 77.6677 28.5975 77.7368C28.4897 77.8003 28.3957 77.8888 28.3128 78.0076C28.2299 78.1237 28.1636 78.2646 28.1166 78.4277C28.0696 78.5935 28.0448 78.7842 28.0448 79.0081V79.0108ZM27.4699 79.1075C27.4699 78.8091 27.5114 78.541 27.5943 78.3088C27.6827 78.0767 27.796 77.8805 27.9342 77.7147C28.0752 77.5516 28.2355 77.4217 28.4096 77.3277C28.5865 77.2283 28.7689 77.1619 28.9485 77.1315C29.1281 77.1011 29.3078 77.1067 29.4819 77.1481C29.6588 77.184 29.8191 77.2587 29.9572 77.3775C30.0982 77.4936 30.2115 77.6539 30.2944 77.8584C30.3828 78.0629 30.4243 78.3144 30.4243 78.6129C30.4243 78.9113 30.3801 79.1794 30.2944 79.4116C30.2115 79.6437 30.0982 79.8427 29.9572 80.0057C29.8191 80.1688 29.6615 80.2987 29.4819 80.3982C29.3078 80.4921 29.1309 80.5557 28.9485 80.5861C28.7661 80.6165 28.5865 80.6137 28.4096 80.5778C28.2355 80.5364 28.0779 80.459 27.9342 80.3429C27.796 80.2268 27.6827 80.0665 27.5943 79.862C27.5114 79.6575 27.4699 79.406 27.4699 79.1048V79.1075ZM32.088 77.1315C32.1267 77.0541 32.1737 76.9823 32.229 76.9104C32.2842 76.8358 32.3478 76.7695 32.4252 76.7114C32.4998 76.6506 32.5882 76.5981 32.685 76.5512C32.7817 76.5042 32.895 76.471 33.0221 76.4517C33.2156 76.4185 33.3759 76.4268 33.503 76.471C33.6329 76.5097 33.7352 76.5788 33.8125 76.6783C33.8899 76.775 33.948 76.9021 33.9784 77.0514C34.0088 77.1979 34.0253 77.3637 34.0253 77.5488V79.6575L33.4809 79.7487V77.8363C33.4809 77.7008 33.4754 77.5765 33.4643 77.4632C33.456 77.3471 33.4312 77.2448 33.387 77.1619C33.3427 77.079 33.2792 77.021 33.1907 76.9851C33.1078 76.9464 32.9917 76.9381 32.848 76.9629C32.5993 77.0044 32.4086 77.1288 32.2787 77.336C32.1516 77.5433 32.088 77.8252 32.088 78.1817V79.9836L31.5436 80.0748V76.7557L32.088 76.6645V77.1343V77.1315ZM36.3302 75.3517L35.0369 75.5673V75.0118L38.1847 74.4839V75.0394L36.8913 75.255V79.1739L36.3275 79.2678V75.349L36.3302 75.3517ZM40.4647 78.6598C40.2243 78.7013 40.0114 78.693 39.829 78.635C39.6466 78.5742 39.4946 78.4774 39.373 78.3475C39.2542 78.2121 39.1658 78.0435 39.105 77.8446C39.0469 77.6456 39.0165 77.4217 39.0165 77.173C39.0165 76.9049 39.0524 76.6589 39.1243 76.4351C39.1961 76.2112 39.2957 76.0122 39.42 75.8437C39.5499 75.6696 39.7047 75.5286 39.8816 75.4208C40.0584 75.3103 40.2547 75.2357 40.4619 75.1997C40.6941 75.161 40.9041 75.1693 41.0838 75.2246C41.2662 75.2799 41.4154 75.3821 41.5342 75.5258C41.6558 75.6668 41.747 75.8492 41.8078 76.073C41.8714 76.2969 41.8963 76.5567 41.8852 76.8552L39.5886 77.2393C39.5886 77.4079 39.6079 77.5571 39.6466 77.687C39.6908 77.8141 39.7489 77.9219 39.8235 78.0021C39.9037 78.085 39.9949 78.143 40.0971 78.179C40.2049 78.2149 40.321 78.2232 40.4481 78.2011C40.6858 78.1624 40.8682 78.0767 40.9925 77.9496C41.1224 77.8169 41.2164 77.6511 41.2717 77.4521L41.8355 77.3582C41.8051 77.5212 41.747 77.6732 41.6696 77.8169C41.595 77.9606 41.4983 78.0905 41.3795 78.2066C41.2606 78.3199 41.1252 78.4166 40.9704 78.4968C40.8157 78.5769 40.6471 78.6322 40.4592 78.6626L40.4647 78.6598ZM40.4647 75.6668C40.2049 75.711 39.9949 75.8243 39.8429 76.0122C39.6936 76.1946 39.6135 76.4461 39.5997 76.7695L41.3076 76.4848C41.3076 76.3494 41.2883 76.2278 41.2523 76.1173C41.2219 76.004 41.1694 75.91 41.0976 75.8409C41.0257 75.7663 40.9373 75.7138 40.8323 75.6834C40.7245 75.653 40.6029 75.6474 40.4647 75.6695V75.6668ZM44.5853 76.1781L45.6991 77.7008L45.0828 77.8031L44.2813 76.7032L43.4826 78.0712L42.8663 78.1734L43.9745 76.2858L42.9299 74.8432L43.5407 74.741L44.2813 75.758L45.0275 74.4922L45.6327 74.39L44.5825 76.1753L44.5853 76.1781ZM47.3683 73.2707L47.9128 73.1795V74.0141L49.2172 73.7958V74.2822L47.9128 74.5005V76.4185C47.9128 76.5042 47.9128 76.5733 47.9183 76.6285C47.9266 76.6811 47.9404 76.7225 47.9598 76.7501C47.9791 76.7805 48.0095 76.7971 48.0537 76.8027C48.0979 76.8082 48.156 76.8027 48.2306 76.7916L49.2144 76.6258V77.1149L48.1117 77.3001C47.9653 77.325 47.8437 77.336 47.7497 77.3305C47.6557 77.3222 47.5783 77.2946 47.5203 77.2448C47.465 77.1923 47.4264 77.115 47.4015 77.0127C47.3766 76.9049 47.3656 76.764 47.3656 76.5926V74.5945L46.4591 74.7465V74.2601L47.3656 74.1081V73.2734L47.3683 73.2707ZM51.605 76.004L52.2876 75.8906V76.6506L51.9256 77.5212L51.5829 77.5792L51.898 76.6672L51.6078 76.717V76.0067L51.605 76.004ZM12.712 89.4298C12.712 89.6509 12.7368 89.8389 12.7838 89.9853C12.8308 90.1346 12.8971 90.2534 12.98 90.3418C13.0629 90.4303 13.1569 90.4911 13.2647 90.5215C13.3753 90.5491 13.4913 90.5519 13.6157 90.5325C13.7401 90.5132 13.8534 90.4717 13.9584 90.4054C14.0689 90.3391 14.1657 90.2451 14.2486 90.129C14.3315 90.013 14.3978 89.872 14.4448 89.7062C14.4918 89.5431 14.5167 89.3497 14.5167 89.1258C14.5167 88.902 14.4918 88.7196 14.4448 88.5703C14.3978 88.4211 14.3315 88.305 14.2486 88.2138C14.1657 88.1254 14.0689 88.0673 13.9584 88.0397C13.8506 88.0093 13.7373 88.0038 13.6157 88.0231C13.4941 88.0425 13.3753 88.0867 13.2647 88.1558C13.1569 88.2193 13.0629 88.3078 12.98 88.4266C12.8971 88.5427 12.8336 88.6836 12.7838 88.8467C12.7368 89.0125 12.712 89.2032 12.712 89.4271V89.4298ZM12.1344 89.5266C12.1344 89.2281 12.1758 88.96 12.2587 88.7279C12.3444 88.4957 12.4577 88.2995 12.5959 88.1364C12.7396 87.9734 12.8971 87.8435 13.0713 87.7495C13.2481 87.65 13.4305 87.5837 13.6102 87.5533C13.7898 87.5229 13.9695 87.5284 14.1436 87.5699C14.3204 87.6058 14.478 87.6832 14.6189 87.7993C14.7599 87.9153 14.8732 88.0756 14.9561 88.2801C15.0445 88.4847 15.0859 88.7362 15.0859 89.0346C15.0859 89.3331 15.0417 89.6012 14.9561 89.8333C14.8732 90.0655 14.7599 90.2645 14.6189 90.4275C14.4807 90.5906 14.3232 90.7205 14.1436 90.82C13.9695 90.9167 13.7898 90.9802 13.6102 91.0079C13.4278 91.0383 13.2481 91.0355 13.0713 90.9996C12.8971 90.9581 12.7396 90.8808 12.5959 90.7647C12.4577 90.6486 12.3444 90.4883 12.2587 90.2838C12.1758 90.0793 12.1344 89.8278 12.1344 89.5266ZM16.7524 87.5505C16.7911 87.4732 16.8409 87.4013 16.8962 87.3294C16.9514 87.2548 17.0178 87.1885 17.0924 87.1305C17.167 87.0697 17.2554 87.0172 17.3522 86.9702C17.4517 86.9232 17.565 86.89 17.6893 86.8707C17.8828 86.8375 18.0431 86.8458 18.1702 86.89C18.3001 86.9287 18.4051 86.9978 18.4797 87.0973C18.5599 87.194 18.6151 87.3212 18.6455 87.4704C18.6787 87.6169 18.6925 87.7827 18.6925 87.9679V90.0765L18.1481 90.1677V88.2553C18.1481 88.1199 18.1426 87.9955 18.1315 87.8822C18.1232 87.7633 18.0983 87.6639 18.0541 87.5809C18.0099 87.498 17.9463 87.4372 17.8579 87.4041C17.775 87.3654 17.6617 87.3571 17.5152 87.382C17.2665 87.4234 17.0758 87.5478 16.9459 87.7551C16.8188 87.9623 16.7552 88.2442 16.7552 88.6007V90.4026L16.2108 90.4938V87.1747L16.7552 87.0835V87.5533L16.7524 87.5505ZM20.9366 87.592C20.7957 87.5837 20.6575 87.5588 20.5276 87.5174C20.3977 87.4732 20.2789 87.4096 20.1766 87.3294C20.0771 87.2465 19.9998 87.1443 19.939 87.0172C19.8809 86.8873 19.8505 86.7325 19.8505 86.5556C19.8505 86.3622 19.8864 86.1825 19.9638 86.0195C20.0384 85.8564 20.1407 85.7099 20.2678 85.5856C20.3977 85.4584 20.5469 85.3534 20.7183 85.2705C20.8869 85.1848 21.0693 85.124 21.2627 85.0936C21.4286 85.066 21.5916 85.0632 21.7491 85.0854C21.9122 85.1019 22.0587 85.1517 22.1886 85.2346C22.3212 85.3147 22.4345 85.428 22.5202 85.5745C22.6114 85.7155 22.6667 85.8951 22.6916 86.1134L22.1333 86.2074C22.1167 86.0747 22.0808 85.967 22.02 85.8868C21.962 85.8067 21.8873 85.7486 21.7989 85.7072C21.716 85.663 21.6248 85.6381 21.5253 85.6298C21.4258 85.6215 21.3291 85.627 21.2296 85.6436C21.1301 85.6602 21.0334 85.6906 20.9394 85.7348C20.8454 85.7763 20.7598 85.8288 20.6851 85.8951C20.6105 85.9614 20.5497 86.0416 20.5027 86.1355C20.4557 86.2267 20.4309 86.329 20.4309 86.4423C20.4309 86.6385 20.4889 86.7795 20.6077 86.8624C20.7293 86.9453 20.8786 86.9923 21.0527 87.0033L21.4783 87.031C21.6524 87.042 21.8155 87.0697 21.9702 87.1084C22.1278 87.1443 22.266 87.2023 22.3848 87.2852C22.5036 87.3654 22.5976 87.4732 22.6695 87.6141C22.7413 87.7495 22.7772 87.9264 22.7772 88.1392C22.7772 88.352 22.7385 88.5427 22.6639 88.7196C22.5921 88.8964 22.4926 89.0512 22.3627 89.1894C22.2328 89.3221 22.078 89.4354 21.9012 89.5266C21.7243 89.6178 21.5308 89.6813 21.3263 89.7172C21.108 89.7532 20.9062 89.7504 20.7211 89.7117C20.5359 89.673 20.3728 89.6012 20.2347 89.4962C20.0992 89.3884 19.9915 89.2474 19.9086 89.0816C19.8284 88.913 19.7842 88.7196 19.7704 88.5012L20.3286 88.4073C20.359 88.703 20.4668 88.9158 20.6492 89.0457C20.8344 89.1756 21.0665 89.217 21.3429 89.17C21.4507 89.1535 21.5529 89.1203 21.6579 89.0761C21.763 89.0319 21.8542 88.9683 21.9371 88.8937C22.02 88.8191 22.0835 88.7279 22.1333 88.6256C22.1858 88.5234 22.2107 88.4073 22.2107 88.2801C22.2107 88.1641 22.1913 88.0673 22.1527 87.9872C22.114 87.9071 22.0587 87.8435 21.9868 87.7937C21.915 87.744 21.8293 87.7081 21.7326 87.6832C21.6331 87.6583 21.5253 87.6417 21.4064 87.6335L20.9366 87.5948V87.592ZM25.8007 88.4598C25.7122 88.6201 25.5989 88.7583 25.458 88.8826C25.317 89.0015 25.118 89.0816 24.8638 89.1231C24.6703 89.1562 24.51 89.1507 24.3829 89.1092C24.2558 89.065 24.1563 88.9932 24.0817 88.8937C24.0071 88.7942 23.9546 88.6726 23.9214 88.5261C23.891 88.3741 23.8744 88.2083 23.8744 88.0231V85.8896L24.4188 85.7984V87.7357C24.4188 87.8711 24.4244 87.9983 24.4299 88.1171C24.441 88.2304 24.4686 88.3271 24.5073 88.4128C24.546 88.493 24.6068 88.551 24.6897 88.5924C24.7726 88.6284 24.8887 88.6339 25.0407 88.609C25.2894 88.5676 25.4773 88.446 25.6045 88.2442C25.7344 88.0369 25.8007 87.755 25.8007 87.3958V85.569L26.3451 85.4778V88.797L25.8007 88.8882V88.4626V88.4598ZM28.23 85.6602C28.3212 85.4833 28.44 85.3341 28.592 85.2042C28.744 85.0715 28.9374 84.9859 29.1806 84.9444C29.363 84.914 29.5289 84.9251 29.6836 84.9776C29.8412 85.0301 29.9793 85.1185 30.0927 85.2484C30.206 85.3783 30.2972 85.5441 30.358 85.7459C30.427 85.9476 30.4602 86.1853 30.4602 86.4561C30.4602 86.727 30.427 86.9812 30.358 87.2078C30.2944 87.4317 30.206 87.6279 30.0927 87.7965C29.9793 87.9651 29.8412 88.1005 29.6836 88.2028C29.5289 88.305 29.363 88.3686 29.1806 88.399C28.9402 88.4404 28.744 88.4211 28.592 88.3437C28.4427 88.2636 28.3212 88.1503 28.23 88.0093L28.2244 88.4791L27.6855 88.5703V84.096L28.23 84.0048V85.6574V85.6602ZM28.2051 86.8348C28.2051 87.0531 28.2299 87.2382 28.2769 87.3902C28.3239 87.5395 28.3847 87.6583 28.4593 87.7495C28.5395 87.8407 28.6307 87.8988 28.7329 87.9319C28.8352 87.9651 28.9457 87.9706 29.059 87.9513C29.3354 87.9043 29.5399 87.7606 29.6753 87.5229C29.8135 87.2769 29.8826 86.9564 29.8826 86.5556C29.8826 86.1549 29.8135 85.8592 29.6753 85.6657C29.5399 85.4695 29.3354 85.3949 29.059 85.4419C28.9457 85.4612 28.8352 85.5027 28.7329 85.5718C28.6307 85.6381 28.5395 85.7293 28.4593 85.8454C28.3847 85.9559 28.3239 86.0969 28.2769 86.2654C28.2299 86.4285 28.2051 86.622 28.2051 86.8375V86.8348ZM32.942 84.7344C33.0083 84.5907 33.094 84.4746 33.1962 84.3834C33.304 84.2922 33.4284 84.2341 33.5749 84.2093C33.6578 84.1955 33.7379 84.1955 33.8181 84.212C33.8955 84.2231 33.9645 84.2618 34.0253 84.3253C34.0889 84.3889 34.1387 84.4856 34.1746 84.6155C34.2133 84.7454 34.2326 84.9195 34.2326 85.1351V87.4732L33.6882 87.5644V85.5165C33.6882 85.3976 33.6882 85.2871 33.6827 85.1848C33.6827 85.0771 33.6716 84.9886 33.6523 84.9195C33.6357 84.8449 33.608 84.7896 33.5693 84.7537C33.5334 84.715 33.4809 84.7012 33.4146 84.7123C33.2764 84.7344 33.1797 84.8366 33.1299 85.0135C33.0829 85.1876 33.0581 85.4446 33.0581 85.7901V87.6721L32.5136 87.7633V85.7155C32.5136 85.5966 32.5136 85.4861 32.5081 85.3838C32.5081 85.276 32.497 85.1876 32.4777 85.1185C32.4611 85.0439 32.4362 84.9886 32.4003 84.9527C32.3644 84.914 32.3119 84.9002 32.2456 84.9112C32.1074 84.9334 32.0134 85.0356 31.9609 85.2125C31.9084 85.3894 31.8835 85.6547 31.8835 86.0029V87.8739L31.3391 87.9651V84.6459L31.8614 84.5575V84.9085C31.9167 84.7924 31.9885 84.6874 32.0797 84.5879C32.1709 84.4912 32.2898 84.4304 32.4418 84.4027C32.5938 84.3751 32.6988 84.4027 32.7734 84.4773C32.848 84.5464 32.9033 84.6349 32.9392 84.7399L32.942 84.7344ZM36.941 82.5483V83.2226L36.3966 83.3138V82.6395L36.941 82.5483ZM36.941 83.7008V86.5307L37.8475 86.3787V86.8679L35.4929 87.2631V86.7739L36.3938 86.622V84.2784L35.4929 84.4304V83.944L36.941 83.7008ZM41.1059 83.9108C41.0699 83.7312 40.987 83.6178 40.8571 83.5709C40.73 83.5184 40.578 83.5073 40.3956 83.5377C40.3182 83.5515 40.2381 83.5736 40.1579 83.6013C40.0833 83.6317 40.017 83.6676 39.9562 83.7146C39.8981 83.756 39.8484 83.8085 39.8069 83.8693C39.771 83.9301 39.7544 83.9965 39.7544 84.0711C39.7544 84.201 39.7931 84.2949 39.8733 84.3475C39.9562 84.4 40.0778 84.4276 40.2353 84.4359L40.5918 84.4497C40.73 84.4552 40.8654 84.4691 41.0008 84.4912C41.139 84.5105 41.2606 84.5492 41.3684 84.6072C41.4789 84.6625 41.5674 84.7427 41.6337 84.8477C41.7028 84.9527 41.736 85.0854 41.736 85.2512C41.736 85.4281 41.7028 85.5883 41.6337 85.7321C41.5674 85.8758 41.4734 86.0001 41.3546 86.1051C41.2413 86.2102 41.1059 86.2958 40.9511 86.3649C40.7963 86.4368 40.6333 86.4865 40.4592 86.5169C40.2491 86.5529 40.0667 86.5501 39.9092 86.5169C39.7544 86.481 39.6245 86.423 39.5167 86.3401C39.409 86.2572 39.326 86.1549 39.268 86.0361C39.21 85.9145 39.1713 85.7901 39.1547 85.6602L39.7296 85.5635C39.7655 85.7514 39.8401 85.8896 39.9562 85.978C40.075 86.0609 40.2463 86.083 40.4702 86.0443C40.5531 86.0305 40.636 86.0084 40.7189 85.978C40.8074 85.9476 40.8848 85.9062 40.9511 85.8537C41.023 85.8011 41.0782 85.7403 41.1169 85.6712C41.1611 85.5966 41.1805 85.511 41.1805 85.4142C41.1805 85.2595 41.1197 85.1489 40.9981 85.0881C40.8765 85.0273 40.7134 84.9942 40.5117 84.9914L40.1137 84.9776C39.9866 84.9748 39.8677 84.9582 39.7572 84.9306C39.6494 84.9002 39.5554 84.8532 39.4725 84.7924C39.3951 84.7288 39.3316 84.6487 39.2818 84.552C39.2349 84.4525 39.21 84.3309 39.21 84.1872C39.21 84.0269 39.2487 83.8832 39.3233 83.7533C39.3979 83.6261 39.4946 83.5156 39.6079 83.4216C39.7268 83.3249 39.8567 83.2475 40.0004 83.1895C40.1441 83.1287 40.2795 83.0872 40.4149 83.0651C40.7549 83.0071 41.034 83.0485 41.2496 83.1867C41.4707 83.3221 41.6116 83.5322 41.6724 83.8196L41.1031 83.9136L41.1059 83.9108ZM44.9391 83.2696C44.9031 83.09 44.8202 82.9767 44.6903 82.9297C44.5632 82.8772 44.4084 82.8661 44.2288 82.8965C44.1487 82.9103 44.0713 82.9325 43.9911 82.9601C43.9165 82.9905 43.8502 83.0264 43.7894 83.0734C43.7313 83.1149 43.6816 83.1674 43.6401 83.2282C43.6042 83.289 43.5876 83.3553 43.5876 83.4299C43.5876 83.5598 43.6263 83.6538 43.7065 83.7063C43.7894 83.7588 43.9082 83.7892 44.0685 83.7947L44.425 83.8085C44.5632 83.8141 44.6986 83.8279 44.834 83.85C44.9722 83.8693 45.0938 83.908 45.2016 83.9661C45.3122 84.0213 45.4006 84.1015 45.4669 84.2065C45.5332 84.3115 45.5692 84.4442 45.5692 84.61C45.5692 84.7869 45.536 84.9472 45.4669 85.0909C45.4006 85.2346 45.3066 85.359 45.1878 85.464C45.0717 85.569 44.9391 85.6547 44.7843 85.7238C44.6295 85.7956 44.4665 85.8454 44.2924 85.8758C44.0823 85.9117 43.8999 85.9089 43.7424 85.8758C43.5876 85.8398 43.4577 85.7818 43.3499 85.6989C43.2422 85.616 43.1592 85.5137 43.1012 85.3949C43.0432 85.2733 43.0045 85.1489 42.9879 85.019L43.5628 84.9223C43.5987 85.1102 43.6733 85.2484 43.7894 85.3368C43.9082 85.4198 44.0796 85.4419 44.3034 85.4032C44.3863 85.3894 44.4692 85.3672 44.5521 85.3368C44.6406 85.3064 44.7152 85.265 44.7843 85.2125C44.8562 85.16 44.9114 85.0992 44.9501 85.0301C44.9943 84.9555 45.0137 84.8698 45.0137 84.7731C45.0137 84.6183 44.9529 84.5077 44.8313 84.4469C44.7097 84.3861 44.5466 84.353 44.3449 84.3502L43.9469 84.3364C43.8198 84.3336 43.7009 84.3171 43.5904 84.2894C43.4826 84.259 43.3886 84.212 43.3057 84.1512C43.2283 84.0877 43.1648 84.0075 43.115 83.9108C43.0681 83.8113 43.0432 83.6897 43.0432 83.546C43.0432 83.3857 43.0819 83.242 43.1565 83.1121C43.2311 82.985 43.3251 82.8744 43.4411 82.7805C43.56 82.6837 43.6899 82.6064 43.8336 82.5483C43.9773 82.4875 44.1127 82.4461 44.2481 82.4239C44.5881 82.3659 44.8672 82.4074 45.0828 82.5455C45.3039 82.681 45.4448 82.891 45.5056 83.1784L44.9363 83.2724L44.9391 83.2696ZM48.4406 80.622V81.2964L47.8962 81.3876V80.7132L48.4406 80.622ZM48.4406 81.7772V84.6072L49.3471 84.4552V84.9444L46.9925 85.3396V84.8504L47.8934 84.6984V82.3549L46.9925 82.5069V82.0205L48.4406 81.7772ZM51.0467 83.0126C51.0467 83.2337 51.0716 83.4216 51.1186 83.5681C51.1656 83.7173 51.2319 83.8362 51.3148 83.9246C51.3978 84.013 51.4917 84.0738 51.5995 84.1042C51.71 84.1319 51.8261 84.1347 51.9477 84.1153C52.0693 84.096 52.1854 84.0545 52.2904 83.9882C52.4009 83.9191 52.4977 83.8279 52.5806 83.7118C52.6635 83.5957 52.7271 83.4548 52.7768 83.289C52.8238 83.1259 52.8487 82.9325 52.8487 82.7086C52.8487 82.4847 52.8238 82.3023 52.7768 82.1531C52.7298 82.0039 52.6635 81.8878 52.5806 81.7966C52.4977 81.7082 52.4009 81.6501 52.2904 81.6225C52.1826 81.5921 52.0693 81.5866 51.9477 81.6059C51.8261 81.6252 51.71 81.6695 51.5995 81.7386C51.4917 81.8021 51.3978 81.8906 51.3148 82.0094C51.2319 82.1255 51.1656 82.2664 51.1186 82.4295C51.0716 82.5953 51.0467 82.786 51.0467 83.0098V83.0126ZM50.4719 83.1066C50.4719 82.8081 50.5134 82.54 50.5963 82.3079C50.6847 82.0757 50.798 81.8795 50.9335 81.7137C51.0744 81.5506 51.2347 81.4207 51.4088 81.3268C51.5857 81.2273 51.7681 81.161 51.9477 81.1306C52.1273 81.1002 52.307 81.1057 52.4811 81.1471C52.658 81.1831 52.8183 81.2577 52.9564 81.3765C53.0974 81.4926 53.2107 81.6529 53.2936 81.8574C53.382 82.0619 53.4235 82.3134 53.4235 82.6119C53.4235 82.9103 53.3793 83.1784 53.2936 83.4106C53.2107 83.6427 53.0974 83.8417 52.9564 84.0048C52.8183 84.1678 52.6607 84.2977 52.4811 84.3972C52.307 84.4912 52.1301 84.5547 51.9477 84.5851C51.7653 84.6155 51.5857 84.6128 51.4088 84.5768C51.2347 84.5354 51.0772 84.458 50.9335 84.3419C50.7953 84.2259 50.6819 84.0656 50.5963 83.8611C50.5134 83.6565 50.4719 83.405 50.4719 83.1038V83.1066ZM55.09 81.1333C55.1287 81.0559 55.1757 80.9841 55.2337 80.9122C55.289 80.8376 55.3525 80.7713 55.4299 80.7132C55.5045 80.6524 55.593 80.5999 55.6897 80.5529C55.7892 80.506 55.8997 80.4728 56.0296 80.4535C56.2231 80.4203 56.3834 80.4286 56.5105 80.4728C56.6404 80.5115 56.7427 80.5806 56.82 80.6801C56.8974 80.7768 56.9555 80.9039 56.9859 81.0532C57.0163 81.1996 57.0328 81.3655 57.0328 81.5506V83.6593L56.4884 83.7505V81.838C56.4884 81.7026 56.4829 81.5783 56.4718 81.465C56.4635 81.3489 56.4387 81.2466 56.3945 81.1637C56.3502 81.0808 56.2867 81.0228 56.1982 80.9868C56.1153 80.9481 55.9992 80.9399 55.8555 80.9647C55.6068 81.0062 55.4161 81.1306 55.2862 81.3378C55.1591 81.5451 55.0955 81.827 55.0955 82.1835V83.9854L54.5511 84.0766V80.7575L55.0955 80.6663V81.1361L55.09 81.1333ZM59.2714 82.5732L59.954 82.4599V83.2199L59.592 84.0904L59.2493 84.1485L59.5644 83.2365L59.2742 83.2862V82.5759L59.2714 82.5732ZM5.14506 100.802L5.41313 100.758C5.55131 100.736 5.63977 100.692 5.67846 100.628C5.72268 100.565 5.74479 100.446 5.74479 100.272V99.2519C5.74479 99.1082 5.75584 98.9866 5.77518 98.8899C5.80005 98.7876 5.83322 98.6992 5.87744 98.6273C5.92165 98.5555 5.97138 98.4947 6.03218 98.4477C6.09575 98.4007 6.16484 98.3592 6.24499 98.3261V98.315C6.16484 98.3095 6.09298 98.2901 6.03218 98.2653C5.97415 98.2376 5.92165 98.1962 5.87744 98.1354C5.83322 98.0773 5.80005 98.0027 5.77518 97.9115C5.75584 97.8148 5.74479 97.6959 5.74479 97.5522V96.5352C5.74479 96.3611 5.72268 96.2506 5.67846 96.2008C5.63977 96.1511 5.55131 96.1372 5.41313 96.1594L5.14506 96.2036V95.7282L5.42419 95.6812C5.60107 95.6508 5.74476 95.6453 5.8553 95.6591C5.96862 95.6702 6.05984 95.7034 6.12341 95.7614C6.18697 95.8222 6.22841 95.9079 6.24776 96.0239C6.27263 96.1345 6.28369 96.2782 6.28369 96.4495V97.45C6.28369 97.5467 6.28922 97.6324 6.29475 97.707C6.30581 97.7844 6.32791 97.848 6.36108 97.9005C6.397 97.9474 6.44399 97.9834 6.50479 98.0055C6.56283 98.0248 6.64297 98.0248 6.74246 98.0082V98.4643C6.64297 98.4808 6.56559 98.5085 6.50479 98.5472C6.44676 98.5858 6.397 98.6384 6.36108 98.7019C6.32791 98.76 6.30581 98.8291 6.29475 98.9092C6.28646 98.9893 6.28369 99.0778 6.28369 99.1773V100.178C6.28369 100.352 6.27263 100.496 6.24776 100.614C6.22841 100.736 6.18697 100.838 6.12341 100.918C6.05984 100.999 5.97138 101.062 5.8553 101.112C5.74476 101.162 5.60107 101.203 5.42419 101.233L5.14506 101.28V100.805V100.802ZM10.4126 97.6186C10.4126 97.9309 10.3877 98.2321 10.3352 98.5195C10.2827 98.8042 10.2164 99.0695 10.1335 99.3182C10.0561 99.567 9.96488 99.7936 9.86815 99.9981C9.77419 100.203 9.68299 100.382 9.59455 100.531L9.1496 100.606C9.34306 100.241 9.50889 99.8129 9.64708 99.3237C9.78526 98.8318 9.85435 98.2929 9.85435 97.7098C9.85435 97.1266 9.78526 96.6126 9.64708 96.1732C9.50889 95.7282 9.34306 95.3524 9.1496 95.0539L9.59455 94.9793C9.68022 95.1009 9.77142 95.2473 9.86815 95.4215C9.96764 95.5956 10.0561 95.7918 10.1335 96.0129C10.2164 96.234 10.2827 96.4799 10.3352 96.7508C10.3877 97.0189 10.4126 97.3063 10.4126 97.6186ZM17.9629 99.1303C17.7861 99.1607 17.6396 99.169 17.5235 99.1552C17.413 99.1441 17.3273 99.1109 17.2637 99.0501C17.2002 98.9893 17.1559 98.9037 17.1338 98.7876C17.1145 98.6743 17.1034 98.5333 17.1034 98.362V97.3615C17.1034 97.2621 17.0979 97.1764 17.0868 97.099C17.0785 97.0216 17.0592 96.9608 17.0288 96.9111C16.9984 96.8586 16.9514 96.8226 16.8906 96.8033C16.8326 96.7839 16.7525 96.7839 16.653 96.8005V96.3445C16.7525 96.3279 16.8298 96.3003 16.8906 96.2616C16.9487 96.2202 16.9956 96.1676 17.0288 96.1096C17.0592 96.046 17.0813 95.9742 17.0868 95.8968C17.0979 95.8167 17.1034 95.731 17.1034 95.6343V94.6338C17.1034 94.4597 17.1145 94.316 17.1338 94.1972C17.1587 94.0756 17.2002 93.9733 17.2637 93.8904C17.3273 93.8102 17.413 93.7467 17.5235 93.6997C17.6368 93.6472 17.7833 93.6057 17.9629 93.5781L18.2476 93.5311V94.0065L17.974 94.0534C17.8358 94.0755 17.7446 94.1198 17.7004 94.1861C17.6617 94.2497 17.6423 94.3685 17.6423 94.5426V95.5596C17.6423 95.7033 17.6313 95.8277 17.6064 95.93C17.5871 96.0267 17.5539 96.1124 17.5125 96.187C17.4682 96.2616 17.4157 96.3196 17.3522 96.3694C17.2941 96.4164 17.225 96.4578 17.1449 96.491V96.502C17.2223 96.5103 17.2914 96.5269 17.3522 96.5546C17.4157 96.5822 17.471 96.6236 17.5125 96.6817C17.5567 96.7397 17.5871 96.8171 17.6064 96.9138C17.6313 97.005 17.6423 97.1211 17.6423 97.2648V98.2846C17.6423 98.4587 17.6617 98.5693 17.7004 98.619C17.7446 98.6688 17.8358 98.6826 17.974 98.6605L18.2476 98.6135V99.0888L17.9629 99.1358V99.1303ZM13.6489 103.306V103.898C13.7262 103.699 13.8395 103.536 13.986 103.408C14.1325 103.279 14.3038 103.196 14.5028 103.162L15.0473 103.071V103.591L14.5084 103.682C14.2043 103.732 13.986 103.87 13.8561 104.094C13.7262 104.318 13.6599 104.611 13.6599 104.973V106.139L14.7516 105.957V106.446L12.2145 106.871V106.382L13.1155 106.23V103.887L12.209 104.039V103.552L13.6516 103.312L13.6489 103.306ZM17.4627 106.067C17.2223 106.109 17.0095 106.1 16.8271 106.042C16.6447 105.981 16.4927 105.885 16.3711 105.755C16.2522 105.619 16.1638 105.451 16.103 105.252C16.045 105.053 16.0145 104.829 16.0145 104.58C16.0145 104.312 16.0505 104.066 16.1223 103.842C16.1942 103.616 16.2937 103.419 16.4181 103.251C16.5479 103.077 16.7027 102.936 16.8796 102.828C17.0564 102.718 17.2527 102.643 17.46 102.607C17.6921 102.568 17.9021 102.577 18.0818 102.632C18.2642 102.687 18.4134 102.789 18.5323 102.933C18.6539 103.074 18.7451 103.256 18.8059 103.48C18.8694 103.704 18.8943 103.964 18.8832 104.262L16.5866 104.647C16.5866 104.815 16.606 104.964 16.6447 105.094C16.6889 105.221 16.7469 105.329 16.8215 105.409C16.9017 105.492 16.9929 105.55 17.0951 105.586C17.2029 105.622 17.319 105.63 17.4461 105.608C17.6838 105.57 17.8662 105.484 17.9906 105.357C18.1205 105.224 18.2144 105.058 18.2697 104.859L18.8335 104.765C18.8031 104.928 18.7451 105.08 18.6677 105.224C18.5931 105.368 18.4963 105.498 18.3775 105.614C18.2586 105.727 18.1232 105.824 17.9685 105.904C17.8137 105.984 17.6451 106.039 17.4572 106.07L17.4627 106.067ZM17.4627 103.074C17.2029 103.118 16.9929 103.232 16.8409 103.419C16.6916 103.602 16.6115 103.853 16.5977 104.177L18.3056 103.892C18.3056 103.757 18.2863 103.635 18.2504 103.525C18.22 103.411 18.1674 103.317 18.0956 103.248C18.0237 103.174 17.9353 103.121 17.8303 103.091C17.7225 103.06 17.6009 103.055 17.4627 103.077V103.074ZM20.5332 101.319L21.0776 101.228V102.063L22.382 101.844V102.331L21.0776 102.549V104.467C21.0776 104.553 21.0776 104.622 21.0831 104.677C21.0914 104.729 21.1052 104.771 21.1245 104.799C21.1439 104.829 21.1771 104.846 21.2185 104.851C21.26 104.857 21.3208 104.851 21.3954 104.84L22.3793 104.674V105.163L21.2766 105.349C21.1301 105.373 21.0113 105.382 20.9145 105.379C20.8206 105.371 20.7432 105.343 20.6824 105.293C20.6271 105.241 20.5884 105.163 20.5635 105.061C20.5387 104.953 20.5276 104.812 20.5276 104.641V102.643L19.6211 102.795V102.309L20.5276 102.157V101.322L20.5332 101.319ZM25.8007 104.166C25.7122 104.326 25.5989 104.464 25.458 104.589C25.317 104.707 25.118 104.788 24.8638 104.829C24.6703 104.862 24.51 104.857 24.3829 104.815C24.2558 104.771 24.1563 104.699 24.0817 104.6C24.0071 104.5 23.9546 104.378 23.9214 104.232C23.891 104.08 23.8744 103.914 23.8744 103.729V101.595L24.4188 101.504V103.442C24.4188 103.577 24.4244 103.704 24.4299 103.823C24.441 103.936 24.4686 104.033 24.5073 104.119C24.546 104.199 24.6068 104.257 24.6897 104.298C24.7726 104.334 24.8887 104.34 25.0407 104.315C25.2894 104.273 25.4773 104.152 25.6045 103.95C25.7344 103.743 25.8007 103.461 25.8007 103.102V101.275L26.3451 101.184V104.503L25.8007 104.594V104.168V104.166ZM28.9817 100.739V101.33C29.0618 101.131 29.1723 100.968 29.3188 100.841C29.4653 100.711 29.6366 100.628 29.8329 100.595L30.3773 100.504V101.023L29.8384 101.115C29.5344 101.164 29.3161 101.303 29.1862 101.526C29.0563 101.75 28.99 102.043 28.99 102.405V103.571L30.0816 103.389V103.878L27.5446 104.304V103.815L28.4455 103.663V101.319L27.539 101.471V100.985L28.9789 100.744L28.9817 100.739ZM32.088 100.689C32.1267 100.612 32.1737 100.54 32.229 100.468C32.2842 100.393 32.3478 100.327 32.4252 100.269C32.4998 100.208 32.5882 100.156 32.685 100.109C32.7817 100.062 32.895 100.028 33.0221 100.009C33.2156 99.976 33.3759 99.9843 33.503 100.028C33.6329 100.067 33.7352 100.136 33.8125 100.236C33.8899 100.332 33.948 100.46 33.9784 100.609C34.0088 100.755 34.0253 100.921 34.0253 101.106V103.215L33.4809 103.306V101.394C33.4809 101.258 33.4754 101.134 33.4643 101.021C33.456 100.905 33.4312 100.802 33.387 100.719C33.3427 100.636 33.2792 100.578 33.1907 100.543C33.1078 100.504 32.9917 100.496 32.848 100.52C32.5993 100.562 32.4086 100.686 32.2787 100.894C32.1516 101.101 32.088 101.383 32.088 101.739V103.541L31.5436 103.632V100.313L32.088 100.222V100.692V100.689ZM39.8125 100.548C39.8125 100.236 39.8373 99.9373 39.8898 99.6526C39.9423 99.3652 40.0087 99.0944 40.0861 98.8484C40.1635 98.5997 40.2519 98.3758 40.3458 98.1685C40.4398 97.964 40.5338 97.7844 40.625 97.6352L41.0755 97.5605C40.9787 97.7429 40.8848 97.9392 40.7963 98.1575C40.7134 98.373 40.6388 98.6024 40.5697 98.8484C40.5062 99.0888 40.4564 99.3459 40.4149 99.6195C40.379 99.8903 40.3597 100.169 40.3597 100.454C40.3597 100.739 40.379 101.021 40.4149 101.278C40.4536 101.535 40.5062 101.775 40.5697 101.999C40.636 102.22 40.7106 102.422 40.7963 102.61C40.8848 102.798 40.976 102.963 41.0755 103.113L40.625 103.187C40.5338 103.066 40.4426 102.919 40.3458 102.745C40.2519 102.571 40.1635 102.375 40.0861 102.154C40.0087 101.933 39.9423 101.689 39.8898 101.421C39.8401 101.151 39.8125 100.858 39.8125 100.545V100.548Z" fill="white"></path></svg> 