<?xml version="1.0" encoding="UTF-8"?> <svg xmlns="http://www.w3.org/2000/svg" width="419" height="237" viewBox="0 0 419 237" fill="none"><g clip-path="url(#clip0_705_18262)"><path d="M73.1025 204.412L133.282 148.775C142.442 140.895 152.799 134.528 163.971 129.914L211.961 116.222L269.115 100.717L348.044 139.264C366.128 148.094 380.848 162.563 389.99 180.489L419.148 237.643L84.7111 241.335L73.1061 204.412H73.1025Z" fill="#65BD82" stroke="#1A1A1A" stroke-width="1.43404" stroke-miterlimit="10"></path><path d="M133.282 160.094C133.282 160.094 139.33 185.107 137.681 215.903Z" fill="#65BD82"></path><path d="M133.282 160.094C133.282 160.094 139.33 185.107 137.681 215.903" stroke="#1A1A1A" stroke-width="1.43404" stroke-miterlimit="10"></path><path d="M358.6 152.367L351.275 165.632C346.263 174.706 343.144 184.705 342.108 195.019L339.491 221.061" fill="#65BD82"></path><path d="M358.6 152.367L351.275 165.632C346.263 174.706 343.144 184.705 342.108 195.019L339.491 221.061" stroke="#1A1A1A" stroke-width="1.43404" stroke-miterlimit="10"></path><path d="M54.7073 149.199C54.7073 149.199 48.2039 133.93 42.1308 120.672C39.2483 114.38 34.7992 109.318 31.7913 106.267C29.4287 103.869 26.9156 102.083 23.9794 104.923C22.3374 106.357 22.1868 108.225 23.4057 110.519C25.3668 114.208 29.5542 120.098 31.2464 124.684C34.0284 132.23 36.4125 140.795 36.4125 140.795C36.4125 140.795 33.9926 132.313 27.2633 122.267C24.7753 118.553 21.3156 115.66 19.6414 113.932C17.225 111.44 14.6509 109.357 12.2202 111.096L12.2095 111.103C10.0261 112.67 9.56006 115.821 11.2128 118.084C13.3244 120.97 16.3574 124.3 18.8204 128.889C22.7891 136.274 27.6577 148.894 27.6577 148.894L20.5018 136.93C19.8099 135.74 19.0355 134.589 18.1894 133.492L10.8865 124.017C9.57082 122.239 7.08276 121.769 5.32606 122.966C3.67691 124.092 3.24669 126.311 4.34015 128.075L12.4102 139.659L18.5587 154.06L6.16138 136.249C4.89225 134.804 2.73402 134.543 1.2713 135.658C-0.123306 136.723 -0.410117 138.691 0.608054 140.207L11.3598 160.954L18.9889 180.511C20.5412 185.025 23.0293 189.219 26.2882 192.826L29.4502 196.321L43.6401 252.88L95.219 251.292" fill="#AF6852"></path><path d="M54.7073 149.199C54.7073 149.199 48.2039 133.93 42.1308 120.672C39.2483 114.38 34.7992 109.318 31.7913 106.267C29.4287 103.869 26.9156 102.083 23.9794 104.923C22.3374 106.357 22.1868 108.225 23.4057 110.519C25.3668 114.208 29.5542 120.098 31.2464 124.684C34.0284 132.23 36.4125 140.795 36.4125 140.795C36.4125 140.795 33.9926 132.313 27.2633 122.267C24.7753 118.553 21.3156 115.66 19.6414 113.932C17.225 111.44 14.6509 109.357 12.2202 111.096L12.2095 111.103C10.0261 112.67 9.56006 115.821 11.2128 118.084C13.3244 120.97 16.3574 124.3 18.8204 128.889C22.7891 136.274 27.6577 148.894 27.6577 148.894L20.5018 136.93C19.8099 135.74 19.0355 134.589 18.1894 133.492L10.8865 124.017C9.57082 122.239 7.08276 121.769 5.32606 122.966C3.67691 124.092 3.24669 126.311 4.34015 128.075L12.4102 139.659L18.5587 154.06L6.16138 136.249C4.89225 134.804 2.73402 134.543 1.2713 135.658C-0.123306 136.723 -0.410117 138.691 0.608054 140.207L11.3598 160.954L18.9889 180.511C20.5412 185.025 23.0293 189.219 26.2882 192.826L29.4502 196.321L43.6401 252.88L95.219 251.292" stroke="#1A1A1A" stroke-width="1.43404" stroke-linejoin="round"></path><path d="M40.3917 137.508L20.3115 155.821" stroke="#1A1A1A" stroke-width="1.43404" stroke-linejoin="round"></path><path d="M95.223 251.287L67.2591 177.312L68.4924 169.888C68.9728 167.891 69.256 165.847 69.3349 163.779L70.1272 143.286L73.3431 129.673C73.7697 127.87 73.0491 125.938 71.5039 124.751L71.4071 124.676C68.8366 122.693 65.1869 123.428 63.8604 126.185C60.4152 133.345 54.7077 149.194 54.7077 149.194C54.7077 149.194 43.0202 155.3 43.0597 168.407" fill="#AF6852"></path><path d="M95.223 251.287L67.2591 177.312L68.4924 169.888C68.9728 167.891 69.256 165.847 69.3349 163.779L70.1272 143.286L73.3431 129.673C73.7697 127.87 73.0491 125.938 71.5039 124.751L71.4071 124.676C68.8366 122.693 65.1869 123.428 63.8604 126.185C60.4152 133.345 54.7077 149.194 54.7077 149.194C54.7077 149.194 43.0202 155.3 43.0597 168.407" stroke="#1A1A1A" stroke-width="1.43404" stroke-linejoin="round"></path><path d="M71.4073 124.68L67.8975 135.772L72.0562 137.041" stroke="#1A1A1A" stroke-width="1.43404" stroke-linejoin="round"></path><path d="M206.838 105.359C206.838 105.359 200.926 114.265 193.121 121.324C185.994 127.77 176.945 129.476 178.039 133.94C179.577 140.21 191.605 135.17 199.252 130.269C210.832 122.84 212.23 115.355 212.23 115.355L206.841 105.363L206.838 105.359Z" fill="#1A1A1A" stroke="#1A1A1A" stroke-width="1.43404" stroke-miterlimit="10"></path><path d="M266.099 104.926C267.555 92.8121 269.114 79.834 269.114 79.834L249.4 80.949L243.531 112.2L203.747 125.021L206.375 138.45C206.375 138.45 217.822 146.768 237.644 144.348C261.145 141.48 271.541 125.021 271.541 125.021L266.103 104.926H266.099Z" fill="#AF6852" stroke="#1A1A1A" stroke-width="1.43404" stroke-miterlimit="10"></path><path d="M196.621 40.1973C196.621 40.1973 192.846 37.9028 194.047 31.2166C195.248 24.5268 202.396 20.8628 206.888 16.3707C211.381 11.8785 211.015 4.18131 219.537 0.969054C228.058 -2.23603 233.472 3.53599 233.472 3.53599C233.472 3.53599 245.095 -1.87394 252.573 0.879427C260.052 3.63279 262.716 6.83787 264.272 11.7853C265.831 16.7364 265.465 19.1169 269.312 20.8628C273.163 22.6052 279.763 23.3365 283.061 30.0299C286.363 36.7197 287.829 42.1297 287.005 48.6366C286.18 55.1472 282.151 73.7539 282.789 77.5111C283.427 81.2683 287.611 85.7568 292.404 93.7946C297.194 101.832 296.423 110.792 292.404 116.976L286.471 109.232C286.471 109.232 288.274 104.299 286.101 99.7961C283.929 95.2932 278.494 91.1775 278.494 91.1775C278.494 91.1775 277.874 95.2143 279.501 98.4768C281.132 101.736 289.364 111.365 289.364 111.365C289.364 111.365 294.361 121.726 296.405 125.688C299.538 131.557 300.42 136.676 296.774 137.762C291.665 139.835 288.044 131.782 287.27 129.144C287.27 129.144 284.165 133.259 280.516 133.026C276.866 132.793 275.626 127.979 277.877 124.175C280.129 120.371 281.993 116.954 281.993 116.954L277.49 113.305C277.49 113.305 272.184 134.417 268.771 138.917C265.354 143.42 259.919 143.032 259.22 138.451C258.521 133.869 264.526 119.123 265.767 112.53C267.011 105.93 263.515 91.0915 260.644 88.0334C260.644 88.0334 261.271 124.096 233.178 130.528C205.085 136.959 187.507 123.153 185.779 106.522C185.779 106.522 186.167 100.843 187.808 94.6873C189.45 88.5317 186.374 84.165 187.88 79.2965C189.386 74.4279 193.466 66.6948 193.466 66.6948L196.614 40.2152L196.631 40.1973H196.621Z" fill="#1A1A1A" stroke="#1A1A1A" stroke-width="1.43404" stroke-miterlimit="10"></path><path d="M209.201 24.4988C209.201 24.4988 219.777 14.1092 229.998 15.321C240.216 16.5327 249.569 27.2701 252.341 35.0641C255.112 42.8582 252.968 58.3243 249.623 67.0433C246.278 75.7623 244.056 87.0052 233.175 87.5429C233.175 87.5429 225.703 82.4378 217.82 83.2121C209.936 83.9901 201.669 86.7112 201.669 86.7112C201.669 86.7112 194.861 83.4523 195.094 76.2965C195.327 69.1406 197.137 44.2635 198.198 40.6318C200.916 31.3858 209.205 24.4953 209.205 24.4953H209.198L209.201 24.4988Z" fill="#AF6852" stroke="#1A1A1A" stroke-width="1.43404" stroke-miterlimit="10"></path><path d="M230.593 64.519C232.038 64.0637 233.124 62.2711 233.02 60.518C232.916 58.7613 231.658 57.7073 230.209 58.1626C228.765 58.6179 227.678 60.4105 227.782 62.1636C227.886 63.9203 229.145 64.9743 230.593 64.519Z" fill="#1A1A1A" stroke="#1A1A1A" stroke-width="1.43404" stroke-miterlimit="10"></path><path d="M206.114 63.4717C207.559 63.1956 208.842 61.4999 208.986 59.6786C209.129 57.861 208.072 56.6098 206.627 56.8858C205.182 57.1619 203.899 58.8576 203.755 60.6789C203.612 62.4965 204.669 63.7477 206.114 63.4717Z" fill="#1A1A1A" stroke="#1A1A1A" stroke-width="1.43404" stroke-miterlimit="10"></path><path d="M248.346 49.6421C248.346 49.6421 245.414 46.2434 238.211 44.8416C231.016 43.4399 227.234 44.5369 226.316 48.1364C225.402 51.7358 230.951 52.9547 237.053 53.3778C243.152 53.8008 246.644 55.5755 248.346 54.5967C250.049 53.618 250.042 51.069 248.346 49.6385V49.6421Z" fill="#1A1A1A" stroke="#1A1A1A" stroke-width="1.43404" stroke-miterlimit="10"></path><path d="M198.582 45.6147C199.063 45.2634 199.597 44.9766 200.153 44.7435C202.107 43.9118 207.33 42.5925 211.356 42.5996C215.432 42.8649 216.02 45.2992 215.461 46.8336C214.902 48.3681 212.249 50.0925 207.506 50.3506C202.759 50.6088 199.773 51.2111 197.987 49.6014C196.897 48.6226 196.514 47.1348 198.579 45.6111L198.582 45.6147Z" fill="#1A1A1A" stroke="#1A1A1A" stroke-width="1.43404" stroke-miterlimit="10"></path><path d="M216.565 54.8828C216.565 54.8828 217.93 61.3145 212.969 65.147C208.674 68.4596 201.299 72.4929 201.679 77.0173C202.145 82.5778 208.953 83.2052 212.718 83.5386" fill="#AF6852"></path><path d="M216.565 54.8828C216.565 54.8828 217.93 61.3145 212.969 65.147C208.674 68.4596 201.299 72.4929 201.679 77.0173C202.145 82.5778 208.953 83.2052 212.718 83.5386" stroke="#1A1A1A" stroke-width="1.43404" stroke-miterlimit="10"></path><path d="M214.002 80.3406C214.002 80.3406 218.702 79.577 221.642 81.3372L214.002 80.3406Z" fill="#AF6852"></path><path d="M214.002 80.3406C214.002 80.3406 218.702 79.577 221.642 81.3372" stroke="#1A1A1A" stroke-width="1.43404" stroke-miterlimit="10"></path><path d="M267.108 54.8837C267.108 54.8837 273.658 52.3634 275.36 57.3753C277.063 62.3873 270.434 66.6966 268.904 69.2169C267.376 71.7301 269.413 72.2464 266.186 76.319C262.956 80.3989 259.306 79.8002 259.306 79.8002C259.306 79.8002 257.754 58.9349 267.111 54.8873H267.104L267.108 54.8837Z" fill="#AF6852" stroke="#1A1A1A" stroke-width="1.43404" stroke-miterlimit="10"></path><path d="M211.961 93.6902C211.961 93.6902 221.906 95.5975 227.961 88.5312" stroke="#AF6852" stroke-width="1.80526" stroke-miterlimit="10"></path></g><defs><clipPath id="clip0_705_18262"><rect width="419" height="237" fill="white"></rect></clipPath></defs></svg> 