<?xml version="1.0" encoding="UTF-8"?> <svg xmlns="http://www.w3.org/2000/svg" width="80" height="80" viewBox="0 0 80 80" fill="none"><path fill-rule="evenodd" clip-rule="evenodd" d="M43.3335 16.666L40.0002 16.666V19.9993L36.6668 19.9993V23.3327H33.3335L30.0002 23.3327V26.666H26.6668V29.9993V33.3327L23.3335 33.3327H20.0002L20.0002 36.666L16.6668 36.666L16.6668 39.9993L13.3335 39.9993L13.3335 43.3327V46.666H16.6668V43.3327L16.6668 39.9993L20.0002 39.9993H23.3335L23.3335 43.3327H26.6668V46.666H30.0002L30.0002 49.9993H33.3335V53.3327H30.0002L30.0002 56.666L26.6668 56.666V53.3327H23.3335L23.3335 49.9993H20.0002L20.0002 46.666H16.6668L16.6668 49.9993H20.0002L20.0002 53.3327H23.3335L23.3335 56.666H26.6668V59.9993H30.0002V56.666L33.3335 56.666V53.3327H36.6668V49.9993V46.666L40.0002 46.666H43.3335V49.9993H46.6668V53.3327H50.0002V56.666H53.3335V59.9993H56.6668V63.3327H60.0002H63.3335V59.9993H66.6668V56.666V53.3327H63.3335V49.9993H60.0002V46.666H56.6668V43.3327H53.3335V39.9993H50.0002V36.666V33.3327V29.9993V26.666H53.3335H56.6668H60.0002V23.3327L63.3335 23.3327V19.9994L60.0002 19.9993V16.666H56.6668H53.3335H50.0002H46.6668H43.3335ZM60.0002 19.9993V23.3327H56.6668H53.3335L50.0002 23.3327V26.666H46.6668V29.9993V33.3327V36.666V39.9993H43.3335V43.3327H40.0002H36.6668H33.3335V46.666L30.0002 46.666V43.3327H26.6668V39.9993H23.3335V36.666H26.6668H30.0002V33.3327V29.9993L30.0002 26.666H33.3335H36.6668V23.3327L40.0002 23.3327V19.9993L43.3335 19.9993H46.6668H50.0002H53.3335H56.6668H60.0002Z" fill="#1A1A1A"></path></svg> 