<?xml version="1.0" encoding="UTF-8"?> <svg xmlns="http://www.w3.org/2000/svg" width="160" height="80" viewBox="0 0 160 80" fill="none"><path fill-rule="evenodd" clip-rule="evenodd" d="M62.4287 41.4954V35.0762H65.5575V41.7507C65.5575 42.4152 65.7619 42.9479 66.1711 43.3497C66.5806 43.7513 67.1021 43.9524 67.7356 43.9524C68.3533 43.9524 68.8633 43.7473 69.2651 43.338C69.6667 42.9288 69.8676 42.3993 69.8676 41.7507V35.0762H72.9961V41.4954C72.9961 43.0713 72.4977 44.354 71.5014 45.3424C70.5048 46.3315 69.2497 46.8257 67.7356 46.8257C66.1905 46.8257 64.9202 46.3352 63.9237 45.3538C62.9269 44.3729 62.4287 43.087 62.4287 41.4954Z" fill="#808080" fill-opacity="0.6"></path><path fill-rule="evenodd" clip-rule="evenodd" d="M83.3521 40.8243C83.3521 39.8821 83.0744 39.1175 82.5179 38.5297C81.9621 37.9433 81.2509 37.6496 80.3862 37.6496C79.552 37.6496 78.8602 37.9277 78.3121 38.4837C77.7633 39.04 77.4893 39.8123 77.4893 40.8012C77.4893 41.7901 77.7633 42.5664 78.3121 43.1296C78.8602 43.6943 79.552 43.9759 80.3862 43.9759C81.2355 43.9759 81.9425 43.6826 82.5065 43.0951C83.0704 42.508 83.3521 41.7513 83.3521 40.8243ZM84.9394 36.5256C85.9976 37.661 86.527 39.0862 86.527 40.8012C86.527 42.516 85.9976 43.9489 84.9394 45.0999C83.8815 46.2507 82.5566 46.8263 80.9653 46.8263C79.5284 46.8263 78.3851 46.3629 77.5355 45.4359V50.7193H74.4072V35.0768H77.2807V36.5142C78.0687 35.3862 79.2967 34.8223 80.9653 34.8223C82.5566 34.8223 83.8815 35.3897 84.9394 36.5256Z" fill="#808080" fill-opacity="0.6"></path><path fill-rule="evenodd" clip-rule="evenodd" d="M90.8125 39.6646H96.0268C96.0112 38.9695 95.7676 38.4095 95.2965 37.9846C94.8249 37.5599 94.2418 37.3476 93.547 37.3476C92.8827 37.3476 92.3031 37.5559 91.8089 37.9731C91.3142 38.3899 90.9822 38.9543 90.8125 39.6646ZM98.8534 41.8661H90.8125C90.9978 42.5927 91.3718 43.1527 91.9363 43.5463C92.4998 43.9406 93.1993 44.1376 94.0337 44.1376C95.1609 44.1376 96.227 43.7512 97.2315 42.9784L98.5291 45.1108C97.1543 46.2541 95.6246 46.8256 93.9406 46.8256C92.1794 46.8561 90.6849 46.2807 89.4566 45.0991C88.2284 43.9168 87.6296 42.4919 87.6609 40.8235C87.6296 39.1704 88.2088 37.7491 89.3988 36.5596C90.5881 35.3698 92.0093 34.7907 93.6629 34.8215C95.2389 34.8215 96.5325 35.3311 97.5442 36.351C98.5562 37.3707 99.0623 38.6374 99.0623 40.1518C99.0623 40.7073 98.9925 41.2797 98.8534 41.8661Z" fill="#808080" fill-opacity="0.6"></path><path fill-rule="evenodd" clip-rule="evenodd" d="M107.47 35.0761V37.8341H106.636C105.678 37.8341 104.924 38.0892 104.377 38.599C103.828 39.1086 103.554 39.8504 103.554 40.8236V46.5475H100.425V35.0761H103.299V36.4435C104.102 35.4397 105.153 34.9375 106.45 34.9375C106.837 34.9375 107.177 34.9837 107.47 35.0761Z" fill="#808080" fill-opacity="0.6"></path><path fill-rule="evenodd" clip-rule="evenodd" d="M116.342 46.5474H119.47V28.8887H116.342V46.5474ZM114.848 28.8887V31.6929H114.094C113.368 31.6929 112.839 31.832 112.507 32.1101C112.175 32.3878 112.009 32.8437 112.009 33.4772V35.076H114.848V37.718H112.009V46.5474H108.88V33.1993C108.88 31.7781 109.267 30.7045 110.039 29.9779C110.811 29.2522 111.9 28.8887 113.306 28.8887H114.848Z" fill="#808080" fill-opacity="0.6"></path><path fill-rule="evenodd" clip-rule="evenodd" d="M120.995 41.4954V35.0762H124.123V41.7507C124.123 42.4152 124.328 42.9479 124.737 43.3497C125.146 43.7513 125.668 43.9524 126.302 43.9524C126.919 43.9524 127.429 43.7473 127.831 43.338C128.233 42.9288 128.433 42.3993 128.433 41.7507V35.0762H131.562V41.4954C131.562 43.0713 131.064 44.354 130.067 45.3424C129.071 46.3315 127.815 46.8257 126.302 46.8257C124.756 46.8257 123.486 46.3352 122.49 45.3538C121.493 44.3729 120.995 43.087 120.995 41.4954Z" fill="#808080" fill-opacity="0.6"></path><path fill-rule="evenodd" clip-rule="evenodd" d="M133.086 46.5475H136.215V35.0762H133.086V46.5475Z" fill="#808080" fill-opacity="0.6"></path><path fill-rule="evenodd" clip-rule="evenodd" d="M146.096 43.1405C146.643 42.5844 146.918 41.8123 146.918 40.8235C146.918 39.8346 146.64 39.0583 146.084 38.4943C145.527 37.9304 144.84 37.6487 144.022 37.6487C143.171 37.6487 142.465 37.9425 141.901 38.5289C141.337 39.1166 141.055 39.8733 141.055 40.8004C141.055 41.743 141.333 42.5072 141.889 43.0943C142.446 43.6818 143.156 43.9751 144.022 43.9751C144.856 43.9751 145.547 43.697 146.096 43.1405ZM146.872 28.8887H150V46.5474H147.127V45.1336C146.339 46.2615 145.11 46.8255 143.442 46.8255C141.835 46.8255 140.506 46.2576 139.456 45.1222C138.405 43.9868 137.88 42.5539 137.88 40.8235C137.88 39.0933 138.405 37.6602 139.456 36.5248C140.506 35.3889 141.835 34.8214 143.442 34.8214C144.894 34.8214 146.037 35.2774 146.872 36.1888V28.8887Z" fill="#808080" fill-opacity="0.6"></path><path fill-rule="evenodd" clip-rule="evenodd" d="M57.5349 37.7644L55.7968 37C55.1169 36.6913 54.6497 36.4169 54.3949 36.1768C54.1401 35.9379 54.0125 35.625 54.0125 35.2388C54.0125 35.1814 54.0235 35.1305 54.0291 35.0762H50.8487C50.8452 35.1536 50.8378 35.229 50.8378 35.3081C50.8378 37.1468 52.0735 38.6144 54.5457 39.7113L56.1907 40.4526C56.9632 40.8085 57.4805 41.1057 57.7435 41.3449C58.0062 41.5843 58.1376 41.921 58.1376 42.3527C58.1376 42.8786 57.9442 43.2914 57.5582 43.5928C57.1718 43.8941 56.6387 44.0446 55.9592 44.0446C54.5375 44.0446 53.2861 43.3028 52.2049 41.82L50.0498 43.4419C50.6523 44.493 51.4671 45.319 52.4947 45.9217C53.5218 46.5244 54.6768 46.8257 55.9592 46.8257C57.5193 46.8257 58.8017 46.4047 59.8059 45.5626C60.81 44.7205 61.3123 43.6122 61.3123 42.2372C61.3123 41.2173 61.0109 40.3642 60.4086 39.6766C59.8059 38.9892 58.8479 38.3519 57.5349 37.7644Z" fill="#808080" fill-opacity="0.6"></path><path fill-rule="evenodd" clip-rule="evenodd" d="M61.3123 30.5254H56.7607V32.8014H59.0366V35.0771H61.3123V30.5254Z" fill="#808080" fill-opacity="0.6"></path><path fill-rule="evenodd" clip-rule="evenodd" d="M136.215 35.0759H139.663V31.627H136.215V35.0759Z" fill="#808080" fill-opacity="0.6"></path><path fill-rule="evenodd" clip-rule="evenodd" d="M35.7861 42.705H29.7052V36.6241H23.6241V30.543H35.7861V42.705ZM17.5432 48.7859H23.6241V42.705H17.5432V48.7859ZM10 26.6426V52.6868C10 54.6983 11.6308 56.3293 13.6426 56.3293H39.6868C41.6986 56.3293 43.3293 54.6983 43.3293 52.6868V26.6426C43.3293 24.6308 41.6986 23 39.6868 23H13.6426C11.6308 23 10 24.6308 10 26.6426Z" fill="#808080" fill-opacity="0.6"></path></svg> 