<?xml version="1.0" encoding="UTF-8"?> <svg xmlns="http://www.w3.org/2000/svg" width="97" height="96" viewBox="0 0 97 96" fill="none"><g clip-path="url(#clip0_2082_25216)"><path d="M48.2458 96C74.7558 96 96.2461 74.51 96.2461 47.9999C96.2461 21.4904 74.7558 0 48.2458 0C21.7363 0 0.246094 21.4904 0.246094 47.9999C0.246094 74.51 21.7363 96 48.2458 96Z" fill="white"></path><path fill-rule="evenodd" clip-rule="evenodd" d="M48.2458 93.5684C73.4183 93.5684 93.8181 73.1636 93.8181 47.9999C93.8181 22.8367 73.4183 2.43163 48.2458 2.43163C23.0739 2.43163 2.6741 22.8367 2.6741 47.9999C2.6741 73.1636 23.0739 93.5684 48.2458 93.5684ZM96.2461 47.9999C96.2461 74.51 74.7558 96 48.2458 96C21.7363 96 0.246094 74.51 0.246094 47.9999C0.246094 21.4904 21.7363 0 48.2458 0C74.7558 0 96.2461 21.4904 96.2461 47.9999Z" fill="#62C187"></path><path fill-rule="evenodd" clip-rule="evenodd" d="M5.24133 69.3337C16.2958 68.8633 28.761 68.7223 49.8044 68.7223C69.3972 68.7223 81.1665 68.9106 91.3423 69.3473C94.5439 62.9171 96.3443 55.668 96.3443 47.9988C96.3443 42.7181 95.4906 37.6366 93.9137 32.8844C81.7821 32.1002 66.4715 31.4095 49.4302 31.3182C30.4864 31.2165 14.7288 31.9334 2.69787 32.8205C1.10738 37.591 0.246094 42.6944 0.246094 47.9988C0.246094 55.6626 2.04396 62.9069 5.24133 69.3337Z" fill="#217D47"></path><path d="M33.4537 23.3793C32.1227 23.3793 30.9883 22.1975 30.9883 20.6662C30.9883 19.1349 32.1227 17.9531 33.4537 17.9531C34.6622 17.9531 35.4866 18.8769 35.7237 19.8673H34.8417C34.6781 19.318 34.205 18.7854 33.4537 18.7854C32.5964 18.7854 31.8373 19.5677 31.8373 20.6662C31.8373 21.7647 32.5964 22.5388 33.4537 22.5388C34.2133 22.5388 34.6863 22.0144 34.874 21.4652H35.756C35.5195 22.4555 34.6863 23.3793 33.4537 23.3793Z" fill="#135C37"></path><path d="M38.1015 23.3785C37.0971 23.3785 36.248 22.4963 36.248 21.3894C36.248 20.2825 37.0971 19.4004 38.1015 19.4004C39.1053 19.4004 39.9467 20.2825 39.9467 21.3894C39.9467 22.4963 39.1053 23.3785 38.1015 23.3785ZM38.1015 22.6128C38.6728 22.6128 39.1382 22.1135 39.1382 21.3894C39.1382 20.6737 38.6728 20.1743 38.1015 20.1743C37.5219 20.1743 37.0565 20.6737 37.0565 21.3894C37.0565 22.1135 37.5219 22.6128 38.1015 22.6128Z" fill="#135C37"></path><path d="M42.1189 23.3807C41.2452 23.3807 40.625 22.7232 40.625 21.7245V19.4941H41.4335V21.6663C41.4335 22.2239 41.7924 22.615 42.2825 22.615C42.7885 22.615 43.1474 22.2239 43.1474 21.6663V19.4941H43.9477V23.2891H43.3434L43.1969 22.8647H43.1639C43.0415 23.0228 42.6661 23.3807 42.1189 23.3807Z" fill="#135C37"></path><path d="M45.6913 23.2869H44.8828V19.4919H45.4871L45.6342 19.9164H45.6748C45.7807 19.7583 46.1155 19.4004 46.5892 19.4004C46.7198 19.4004 46.8098 19.4087 46.9075 19.442V20.2576C46.8016 20.2326 46.7033 20.2243 46.5727 20.2243C46.0502 20.2243 45.6913 20.5905 45.6913 21.198V23.2869Z" fill="#135C37"></path><path d="M48.6187 23.3785C47.7367 23.3785 47.1812 22.8042 47.1406 22.1301H47.9408C47.965 22.463 48.2186 22.696 48.6187 22.696C49.0182 22.696 49.2224 22.488 49.2224 22.2466C49.2224 21.4893 47.2306 21.8388 47.2306 20.5239C47.2306 19.8997 47.7284 19.4004 48.5857 19.4004C49.4024 19.4004 49.9331 19.9413 49.982 20.6154H49.1818C49.1412 20.2992 48.9529 20.0911 48.5857 20.0911C48.2268 20.0911 48.0385 20.2659 48.0385 20.4906C48.0385 21.2063 50.0226 20.8651 50.0226 22.205C50.0226 22.8708 49.5248 23.3785 48.6187 23.3785Z" fill="#135C37"></path><path d="M54.1457 21.3062C54.1457 21.4976 54.1293 21.6307 54.1045 21.714H51.3532C51.4597 22.2882 51.8516 22.6378 52.3817 22.6378C52.7983 22.6378 53.0513 22.4297 53.1819 22.2383H54.0233C53.8109 22.7876 53.2067 23.3785 52.39 23.3785C51.3615 23.3785 50.5371 22.5212 50.5371 21.3894C50.5371 20.2825 51.3862 19.4004 52.3741 19.4004C53.3696 19.4004 54.1457 20.2326 54.1457 21.3062ZM52.3741 20.141C51.8757 20.141 51.4597 20.5073 51.345 21.0898H53.3696C53.272 20.5322 52.8801 20.141 52.3741 20.141Z" fill="#135C37"></path><path d="M58.7592 23.288H57.7713L56.6692 21.2823H55.8202V23.288H54.9629V18.0449H56.9469C57.9184 18.0449 58.6368 18.744 58.6368 19.6761C58.6368 20.3668 58.1961 20.9328 57.5265 21.1658L58.7592 23.288ZM56.9222 18.8605H55.8202V20.4834H56.9222C57.4206 20.4834 57.7795 20.1421 57.7795 19.6844C57.7795 19.21 57.4206 18.8605 56.9222 18.8605Z" fill="#135C37"></path><path d="M62.7746 21.3062C62.7746 21.4976 62.7587 21.6307 62.734 21.714H59.9827C60.0886 22.2882 60.4805 22.6378 61.0112 22.6378C61.4278 22.6378 61.6808 22.4297 61.8114 22.2383H62.6522C62.4398 22.7876 61.8361 23.3785 61.0195 23.3785C59.9909 23.3785 59.166 22.5212 59.166 21.3894C59.166 20.2825 60.0151 19.4004 61.003 19.4004C61.9991 19.4004 62.7746 20.2326 62.7746 21.3062ZM61.003 20.141C60.5052 20.141 60.0886 20.5073 59.9745 21.0898H61.9991C61.9015 20.5322 61.5096 20.141 61.003 20.141Z" fill="#135C37"></path><path d="M64.3006 24.6351H63.4922V19.4919H64.0965L64.2436 19.9164H64.2842C64.3901 19.7832 64.7984 19.4004 65.3945 19.4004C66.3088 19.4004 67.109 20.2326 67.109 21.3894C67.109 22.5462 66.3088 23.3785 65.3945 23.3785C64.8231 23.3785 64.423 23.0206 64.3412 22.8874H64.3006V24.6351ZM65.305 22.6128C65.8352 22.6128 66.3006 22.1135 66.3006 21.3894C66.3006 20.6654 65.8352 20.1743 65.305 20.1743C64.7661 20.1743 64.3006 20.6654 64.3006 21.3894C64.3006 22.1135 64.7661 22.6128 65.305 22.6128Z" fill="#135C37"></path><path d="M69.4706 23.3785C68.4662 23.3785 67.6172 22.4963 67.6172 21.3894C67.6172 20.2825 68.4662 19.4004 69.4706 19.4004C70.4744 19.4004 71.3158 20.2825 71.3158 21.3894C71.3158 22.4963 70.4744 23.3785 69.4706 23.3785ZM69.4706 22.6128C70.042 22.6128 70.5074 22.1135 70.5074 21.3894C70.5074 20.6737 70.042 20.1743 69.4706 20.1743C68.8905 20.1743 68.4256 20.6737 68.4256 21.3894C68.4256 22.1135 68.8905 22.6128 69.4706 22.6128Z" fill="#135C37"></path><path d="M72.8319 23.2869H72.0234V19.4919H72.6277L72.7748 19.9164H72.8154C72.9219 19.7583 73.2561 19.4004 73.7298 19.4004C73.8604 19.4004 73.9504 19.4087 74.0481 19.442V20.2576C73.9422 20.2326 73.8439 20.2243 73.7133 20.2243C73.1908 20.2243 72.8319 20.5905 72.8319 21.198V23.2869Z" fill="#135C37"></path><path d="M76.0822 23.3778C75.4126 23.3778 74.9148 22.8952 74.9148 22.0546V20.232H74.3105V19.5413H74.5718C74.8654 19.5413 75.0207 19.3831 75.0207 19.0918V18.5176H75.7227V19.4913H76.5229V20.232H75.7227V21.9963C75.7227 22.4124 75.9351 22.5956 76.2699 22.5956C76.3676 22.5956 76.4494 22.5872 76.5229 22.5539V23.303C76.4329 23.3362 76.2864 23.3778 76.0822 23.3778Z" fill="#135C37"></path><path d="M20.043 22.3008H20.9097C22.1735 22.3008 23.1991 23.3456 23.1991 24.6345V25.5177H21.3822C21.0856 25.5177 20.3019 25.5176 20.043 25.5177V22.3008Z" fill="#339D5D"></path><path d="M20.043 22.3008H20.9097C22.1735 22.3008 23.1991 23.3456 23.1991 24.6345V25.5177H21.3822C21.0856 25.5177 20.3019 25.5176 20.043 25.5177V22.3008Z" fill="#339D5D"></path><path d="M26.48 24.8214C25.7998 25.2758 24.8854 25.5183 24.067 25.5183V21.3827H20.043C20.043 20.5647 20.2854 19.7651 20.7402 19.0851C21.195 18.405 21.8411 17.8749 22.5978 17.5618C23.3539 17.2488 23.9676 17.1544 24.8843 17.1543C25.8016 17.1543 27.4838 17.1544 28.2399 17.1543V20.5759C28.2399 21.4924 28.3175 22.2096 28.0045 22.9653C27.6909 23.721 27.1608 24.3669 26.48 24.8214Z" fill="#339D5D"></path><path d="M26.48 24.8214C25.7998 25.2758 24.8854 25.5183 24.067 25.5183V21.3827H20.043C20.043 20.5647 20.2854 19.7651 20.7402 19.0851C21.195 18.405 21.8411 17.8749 22.5978 17.5618C23.3539 17.2488 23.9676 17.1544 24.8843 17.1543C25.8016 17.1543 27.4838 17.1544 28.2399 17.1543V20.5759C28.2399 21.4924 28.3175 22.2096 28.0045 22.9653C27.6909 23.721 27.1608 24.3669 26.48 24.8214Z" fill="#43CC79"></path><path d="M72.0137 59.4996V52.4258H74.8045C75.3411 52.4258 75.7981 52.5283 76.1758 52.7332C76.5534 52.9358 76.8413 53.2179 77.0393 53.5794C77.2396 53.9386 77.3398 54.3531 77.3398 54.8229C77.3398 55.2926 77.2385 55.7071 77.0358 56.0663C76.8332 56.4255 76.5396 56.7053 76.155 56.9057C75.7728 57.106 75.31 57.2062 74.7665 57.2062H72.9877V56.0076H74.5247C74.8126 56.0076 75.0498 55.9581 75.2363 55.8591C75.4251 55.7578 75.5656 55.6185 75.6577 55.4411C75.7521 55.2615 75.7993 55.0554 75.7993 54.8229C75.7993 54.588 75.7521 54.3831 75.6577 54.2081C75.5656 54.0308 75.4251 53.8937 75.2363 53.797C75.0475 53.698 74.808 53.6485 74.5178 53.6485H73.5093V59.4996H72.0137Z" fill="white"></path><path d="M63.2109 52.4258H65.0554L67.0035 57.1785H67.0864L69.0344 52.4258H70.8789V59.4996H69.4282V54.8954H69.3695L67.5388 59.4651H66.551L64.7203 54.8781H64.6616V59.4996H63.2109V52.4258Z" fill="white"></path><path d="M57.2531 59.4996H55.6504L58.0924 52.4258H60.0197L62.4583 59.4996H60.8556L59.0837 54.0423H59.0284L57.2531 59.4996ZM57.1529 56.7191H60.9385V57.8866H57.1529V56.7191Z" fill="white"></path><path d="M55.19 54.9014H53.6771C53.6495 54.7056 53.5931 54.5318 53.5079 54.3798C53.4227 54.2255 53.3133 54.0943 53.1797 53.9861C53.0462 53.8778 52.8919 53.7949 52.7169 53.7374C52.5442 53.6798 52.3565 53.651 52.1539 53.651C51.7878 53.651 51.4689 53.742 51.1971 53.9239C50.9254 54.1035 50.7147 54.366 50.565 54.7114C50.4154 55.0545 50.3405 55.4713 50.3405 55.9618C50.3405 56.466 50.4154 56.8897 50.565 57.2328C50.717 57.5759 50.9289 57.835 51.2006 58.01C51.4723 58.185 51.7866 58.2725 52.1435 58.2725C52.3439 58.2725 52.5292 58.246 52.6996 58.1931C52.8723 58.1401 53.0255 58.063 53.159 57.9616C53.2926 57.858 53.4031 57.7325 53.4906 57.5852C53.5804 57.4378 53.6426 57.2697 53.6771 57.0809L55.19 57.0878C55.1508 57.4124 55.053 57.7256 54.8964 58.0273C54.7421 58.3266 54.5337 58.5949 54.2712 58.8321C54.011 59.0669 53.7001 59.2534 53.3386 59.3916C52.9794 59.5275 52.573 59.5954 52.1194 59.5954C51.4884 59.5954 50.9243 59.4526 50.4269 59.1671C49.9318 58.8816 49.5404 58.4682 49.2525 57.9271C48.967 57.386 48.8242 56.7309 48.8242 55.9618C48.8242 55.1904 48.9693 54.5341 49.2594 53.993C49.5496 53.4518 49.9433 53.0397 50.4407 52.7564C50.9381 52.4709 51.4976 52.3281 52.1194 52.3281C52.5292 52.3281 52.9092 52.3857 53.2592 52.5008C53.6115 52.616 53.9235 52.7841 54.1952 53.0051C54.4669 53.2239 54.688 53.4921 54.8584 53.8099C55.0311 54.1277 55.1416 54.4915 55.19 54.9014Z" fill="white"></path><path d="M42.6016 53.6589V52.4258H48.4112V53.6589H46.2456V59.4996H44.7672V53.6589H42.6016Z" fill="white"></path><path d="M42.1834 55.9618C42.1834 56.7332 42.0372 57.3894 41.7448 57.9306C41.4546 58.4717 41.0586 58.885 40.5566 59.1705C40.0569 59.4538 39.495 59.5954 38.871 59.5954C38.2424 59.5954 37.6782 59.4526 37.1785 59.1671C36.6788 58.8816 36.2839 58.4682 35.9938 57.9271C35.7037 57.386 35.5586 56.7309 35.5586 55.9618C35.5586 55.1904 35.7037 54.5341 35.9938 53.993C36.2839 53.4518 36.6788 53.0397 37.1785 52.7564C37.6782 52.4709 38.2424 52.3281 38.871 52.3281C39.495 52.3281 40.0569 52.4709 40.5566 52.7564C41.0586 53.0397 41.4546 53.4518 41.7448 53.993C42.0372 54.5341 42.1834 55.1904 42.1834 55.9618ZM40.6671 55.9618C40.6671 55.4621 40.5923 55.0407 40.4426 54.6976C40.2952 54.3545 40.0868 54.0943 39.8174 53.917C39.548 53.7397 39.2325 53.651 38.871 53.651C38.5095 53.651 38.194 53.7397 37.9246 53.917C37.6552 54.0943 37.4456 54.3545 37.296 54.6976C37.1486 55.0407 37.0749 55.4621 37.0749 55.9618C37.0749 56.4614 37.1486 56.8828 37.296 57.2259C37.4456 57.569 37.6552 57.8292 37.9246 58.0065C38.194 58.1838 38.5095 58.2725 38.871 58.2725C39.2325 58.2725 39.548 58.1838 39.8174 58.0065C40.0868 57.8292 40.2952 57.569 40.4426 57.2259C40.5923 56.8828 40.6671 56.4614 40.6671 55.9618Z" fill="white"></path><path d="M34.6736 55.9618C34.6736 56.7332 34.5274 57.3894 34.235 57.9306C33.9448 58.4717 33.5488 58.885 33.0468 59.1705C32.5471 59.4538 31.9853 59.5954 31.3612 59.5954C30.7326 59.5954 30.1684 59.4526 29.6688 59.1671C29.1691 58.8816 28.7742 58.4682 28.484 57.9271C28.1939 57.386 28.0488 56.7309 28.0488 55.9618C28.0488 55.1904 28.1939 54.5341 28.484 53.993C28.7742 53.4518 29.1691 53.0397 29.6688 52.7564C30.1684 52.4709 30.7326 52.3281 31.3612 52.3281C31.9853 52.3281 32.5471 52.4709 33.0468 52.7564C33.5488 53.0397 33.9448 53.4518 34.235 53.993C34.5274 54.5341 34.6736 55.1904 34.6736 55.9618ZM33.1573 55.9618C33.1573 55.4621 33.0825 55.0407 32.9328 54.6976C32.7854 54.3545 32.5771 54.0943 32.3076 53.917C32.0382 53.7397 31.7228 53.651 31.3612 53.651C30.9997 53.651 30.6843 53.7397 30.4148 53.917C30.1454 54.0943 29.9359 54.3545 29.7862 54.6976C29.6388 55.0407 29.5651 55.4621 29.5651 55.9618C29.5651 56.4614 29.6388 56.8828 29.7862 57.2259C29.9359 57.569 30.1454 57.8292 30.4148 58.0065C30.6843 58.1838 30.9997 58.2725 31.3612 58.2725C31.7228 58.2725 32.0382 58.1838 32.3076 58.0065C32.5771 57.8292 32.7854 57.569 32.9328 57.2259C33.0825 56.8828 33.1573 56.4614 33.1573 55.9618Z" fill="white"></path><path d="M21.8398 59.4996V52.4258H24.6721C25.1926 52.4258 25.6266 52.5029 25.9743 52.6572C26.322 52.8115 26.5834 53.0256 26.7584 53.2996C26.9334 53.5714 27.0209 53.8845 27.0209 54.2391C27.0209 54.5155 26.9656 54.7584 26.8551 54.9679C26.7446 55.1752 26.5926 55.3456 26.3992 55.4791C26.208 55.6104 25.9893 55.7037 25.7429 55.7589V55.828C26.0123 55.8395 26.2644 55.9155 26.4993 56.056C26.7365 56.1964 26.9288 56.3933 27.0761 56.6466C27.2235 56.8976 27.2972 57.1969 27.2972 57.5446C27.2972 57.92 27.2039 58.255 27.0174 58.5498C26.8332 58.8422 26.5603 59.0736 26.1988 59.244C25.8373 59.4144 25.3917 59.4996 24.8621 59.4996H21.8398ZM23.3354 58.2769H24.5547C24.9715 58.2769 25.2754 58.1975 25.4666 58.0386C25.6577 57.8774 25.7533 57.6632 25.7533 57.3961C25.7533 57.2004 25.706 57.0277 25.6116 56.878C25.5172 56.7283 25.3825 56.6109 25.2075 56.5257C25.0348 56.4405 24.8287 56.3979 24.5892 56.3979H23.3354V58.2769ZM23.3354 55.3859H24.4442C24.6491 55.3859 24.831 55.3502 24.9899 55.2788C25.1511 55.2051 25.2777 55.1015 25.3699 54.9679C25.4643 54.8344 25.5115 54.6744 25.5115 54.4878C25.5115 54.2322 25.4205 54.0261 25.2386 53.8696C25.059 53.713 24.8034 53.6347 24.4718 53.6347H23.3354V55.3859Z" fill="white"></path><path d="M80.2231 43.4184C80.1748 43.2503 80.1068 43.1018 80.0193 42.9729C79.9318 42.8416 79.8248 42.7311 79.6981 42.6413C79.5738 42.5492 79.431 42.4789 79.2698 42.4306C79.1109 42.3822 78.9348 42.358 78.7413 42.358C78.3798 42.358 78.062 42.4479 77.788 42.6275C77.5163 42.8071 77.3045 43.0684 77.1525 43.4115C77.0005 43.7523 76.9245 44.1691 76.9245 44.6619C76.9245 45.1547 76.9994 45.5737 77.149 45.9191C77.2987 46.2645 77.5106 46.5282 77.7846 46.7101C78.0586 46.8897 78.3821 46.9795 78.7552 46.9795C79.0937 46.9795 79.3826 46.9197 79.6221 46.7999C79.8639 46.6779 80.0481 46.5063 80.1748 46.2853C80.3037 46.0642 80.3682 45.8029 80.3682 45.5012L80.6721 45.5461H78.8484V44.4201H81.8085V45.3112C81.8085 45.933 81.6773 46.4672 81.4148 46.9139C81.1522 47.3583 80.7907 47.7014 80.3302 47.9432C79.8697 48.1827 79.3423 48.3024 78.7482 48.3024C78.0851 48.3024 77.5025 48.1562 77.0005 47.8638C76.4985 47.569 76.1071 47.1511 75.8261 46.61C75.5475 46.0665 75.4082 45.4218 75.4082 44.6757C75.4082 44.1023 75.4911 43.5911 75.6569 43.1421C75.825 42.6908 76.0599 42.3085 76.3615 41.9954C76.6632 41.6822 77.0143 41.4439 77.415 41.2804C77.8157 41.1169 78.2497 41.0352 78.7172 41.0352C79.1178 41.0352 79.4909 41.0939 79.8363 41.2113C80.1817 41.3264 80.4879 41.4899 80.755 41.7018C81.0244 41.9136 81.2444 42.1658 81.4148 42.4582C81.5852 42.7484 81.6945 43.0684 81.7429 43.4184H80.2231Z" fill="white"></path><path d="M74.3972 41.1309V48.2047H73.1054L70.0279 43.7525H69.9761V48.2047H68.4805V41.1309H69.793L72.8464 45.5796H72.9085V41.1309H74.3972Z" fill="white"></path><path d="M67.3452 41.1309V48.2047H65.8496V41.1309H67.3452Z" fill="white"></path><path d="M61.3787 48.2047H58.8711V41.1309H61.3994C62.111 41.1309 62.7235 41.2725 63.237 41.5557C63.7505 41.8366 64.1454 42.2408 64.4217 42.7681C64.7003 43.2954 64.8396 43.9263 64.8396 44.6609C64.8396 45.3977 64.7003 46.031 64.4217 46.5606C64.1454 47.0902 63.7482 47.4966 63.2301 47.7799C62.7143 48.0631 62.0972 48.2047 61.3787 48.2047ZM60.3667 46.9233H61.3165C61.7587 46.9233 62.1305 46.845 62.4322 46.6884C62.7361 46.5295 62.9641 46.2843 63.1161 45.9527C63.2704 45.6188 63.3475 45.1882 63.3475 44.6609C63.3475 44.1382 63.2704 43.711 63.1161 43.3794C62.9641 43.0478 62.7373 42.8038 62.4357 42.6472C62.134 42.4906 61.7621 42.4123 61.32 42.4123H60.3667V46.9233Z" fill="white"></path><path d="M57.8592 44.6688C57.8592 45.4402 57.713 46.0965 57.4205 46.6376C57.1304 47.1787 56.7343 47.592 56.2323 47.8776C55.7327 48.1608 55.1708 48.3024 54.5468 48.3024C53.9182 48.3024 53.354 48.1597 52.8543 47.8741C52.3546 47.5886 51.9597 47.1753 51.6696 46.6341C51.3794 46.093 51.2344 45.4379 51.2344 44.6688C51.2344 43.8974 51.3794 43.2411 51.6696 42.7C51.9597 42.1589 52.3546 41.7467 52.8543 41.4635C53.354 41.1779 53.9182 41.0352 54.5468 41.0352C55.1708 41.0352 55.7327 41.1779 56.2323 41.4635C56.7343 41.7467 57.1304 42.1589 57.4205 42.7C57.713 43.2411 57.8592 43.8974 57.8592 44.6688ZM56.3429 44.6688C56.3429 44.1691 56.268 43.7477 56.1184 43.4046C55.971 43.0615 55.7626 42.8013 55.4932 42.624C55.2238 42.4467 54.9083 42.358 54.5468 42.358C54.1853 42.358 53.8698 42.4467 53.6004 42.624C53.331 42.8013 53.1214 43.0615 52.9717 43.4046C52.8244 43.7477 52.7507 44.1691 52.7507 44.6688C52.7507 45.1685 52.8244 45.5899 52.9717 45.933C53.1214 46.2761 53.331 46.5363 53.6004 46.7136C53.8698 46.8909 54.1853 46.9795 54.5468 46.9795C54.9083 46.9795 55.2238 46.8909 55.4932 46.7136C55.7626 46.5363 55.971 46.2761 56.1184 45.933C56.268 45.5899 56.3429 45.1685 56.3429 44.6688Z" fill="white"></path><path d="M50.3853 43.6084H48.8724C48.8448 43.4127 48.7884 43.2388 48.7032 43.0868C48.618 42.9326 48.5086 42.8013 48.3751 42.6931C48.2415 42.5849 48.0872 42.502 47.9122 42.4444C47.7395 42.3868 47.5518 42.358 47.3492 42.358C46.9831 42.358 46.6642 42.449 46.3924 42.6309C46.1207 42.8105 45.91 43.073 45.7604 43.4184C45.6107 43.7615 45.5358 44.1783 45.5358 44.6688C45.5358 45.1731 45.6107 45.5968 45.7604 45.9399C45.9123 46.283 46.1242 46.542 46.3959 46.717C46.6676 46.892 46.9819 46.9795 47.3388 46.9795C47.5392 46.9795 47.7245 46.9531 47.8949 46.9001C48.0676 46.8471 48.2208 46.77 48.3543 46.6687C48.4879 46.565 48.5984 46.4396 48.6859 46.2922C48.7757 46.1448 48.8379 45.9767 48.8724 45.7879L50.3853 45.7948C50.3462 46.1195 50.2483 46.4326 50.0917 46.7343C49.9374 47.0336 49.729 47.3019 49.4665 47.5391C49.2063 47.774 48.8955 47.9605 48.5339 48.0986C48.1747 48.2345 47.7683 48.3024 47.3147 48.3024C46.6837 48.3024 46.1196 48.1597 45.6222 47.8741C45.1271 47.5886 44.7357 47.1753 44.4478 46.6341C44.1623 46.093 44.0195 45.4379 44.0195 44.6688C44.0195 43.8974 44.1646 43.2411 44.4547 42.7C44.7449 42.1589 45.1386 41.7467 45.636 41.4635C46.1334 41.1779 46.6929 41.0352 47.3147 41.0352C47.7245 41.0352 48.1045 41.0927 48.4545 41.2079C48.8068 41.323 49.1188 41.4911 49.3905 41.7121C49.6623 41.9309 49.8833 42.1992 50.0537 42.5169C50.2264 42.8347 50.3369 43.1985 50.3853 43.6084Z" fill="white"></path><path d="M35.3203 42.3639V41.1309H41.13V42.3639H38.9643V48.2047H37.486V42.3639H35.3203Z" fill="white"></path><path d="M33.1513 43.1663C33.1237 42.8877 33.0051 42.6712 32.7956 42.5169C32.586 42.3627 32.3016 42.2855 31.9424 42.2855C31.6983 42.2855 31.4922 42.3201 31.3241 42.3891C31.1561 42.4559 31.0271 42.5492 30.9373 42.6689C30.8498 42.7886 30.806 42.9245 30.806 43.0765C30.8014 43.2031 30.8279 43.3137 30.8855 43.4081C30.9454 43.5025 31.0271 43.5842 31.1307 43.6533C31.2343 43.7201 31.3541 43.7788 31.4899 43.8295C31.6258 43.8778 31.7709 43.9193 31.9251 43.9538L32.5607 44.1058C32.8692 44.1749 33.1525 44.267 33.4104 44.3821C33.6683 44.4972 33.8916 44.6389 34.0805 44.807C34.2693 44.975 34.4155 45.1731 34.5191 45.401C34.625 45.629 34.6792 45.8904 34.6815 46.1851C34.6792 46.618 34.5686 46.9933 34.3499 47.3111C34.1334 47.6266 33.8203 47.8718 33.4104 48.0468C33.0028 48.2195 32.5112 48.3059 31.9355 48.3059C31.3644 48.3059 30.8671 48.2184 30.4434 48.0434C30.022 47.8684 29.6927 47.6093 29.4555 47.2662C29.2206 46.9208 29.0975 46.4937 29.0859 45.9848H30.5332C30.5493 46.2219 30.6172 46.42 30.737 46.5789C30.859 46.7354 31.0213 46.854 31.224 46.9346C31.4289 47.0129 31.6603 47.0521 31.9182 47.0521C32.1715 47.0521 32.3914 47.0152 32.578 46.9415C32.7668 46.8679 32.913 46.7654 33.0166 46.6341C33.1202 46.5029 33.172 46.3521 33.172 46.1817C33.172 46.0228 33.1248 45.8892 33.0304 45.781C32.9383 45.6728 32.8025 45.5807 32.6229 45.5047C32.4456 45.4287 32.2279 45.3596 31.97 45.2974L31.1998 45.104C30.6034 44.9589 30.1325 44.7321 29.7871 44.4236C29.4417 44.115 29.2702 43.6994 29.2725 43.1767C29.2702 42.7484 29.3841 42.3742 29.6144 42.0541C29.847 41.734 30.1659 41.4842 30.5712 41.3046C30.9764 41.125 31.437 41.0352 31.9528 41.0352C32.4778 41.0352 32.936 41.125 33.3275 41.3046C33.7212 41.4842 34.0275 41.734 34.2462 42.0541C34.465 42.3742 34.5778 42.7449 34.5847 43.1663H33.1513Z" fill="white"></path><path d="M23.4551 48.2047V41.1309H28.2216V42.3639H24.9507V44.0495H27.9764V45.2826H24.9507V46.9716H28.2354V48.2047H23.4551Z" fill="white"></path><path d="M17.1211 48.2047V41.1309H19.9534C20.4738 41.1309 20.9079 41.208 21.2556 41.3623C21.6033 41.5166 21.8646 41.7307 22.0396 42.0047C22.2146 42.2764 22.3021 42.5896 22.3021 42.9442C22.3021 43.2205 22.2469 43.4635 22.1363 43.673C22.0258 43.8803 21.8738 44.0507 21.6804 44.1842C21.4893 44.3155 21.2705 44.4087 21.0241 44.464V44.5331C21.2936 44.5446 21.5457 44.6206 21.7806 44.761C22.0177 44.9015 22.21 45.0984 22.3574 45.3517C22.5048 45.6027 22.5785 45.902 22.5785 46.2497C22.5785 46.6251 22.4852 46.9601 22.2987 47.2548C22.1145 47.5473 21.8416 47.7787 21.4801 47.9491C21.1186 48.1195 20.673 48.2047 20.1434 48.2047H17.1211ZM18.6167 46.982H19.836C20.2527 46.982 20.5567 46.9025 20.7478 46.7436C20.9389 46.5825 21.0345 46.3683 21.0345 46.1012C21.0345 45.9055 20.9873 45.7328 20.8929 45.5831C20.7985 45.4334 20.6638 45.316 20.4888 45.2308C20.3161 45.1456 20.11 45.103 19.8705 45.103H18.6167V46.982ZM18.6167 44.091H19.7254C19.9304 44.091 20.1123 44.0553 20.2712 43.9839C20.4324 43.9102 20.559 43.8066 20.6511 43.673C20.7455 43.5395 20.7927 43.3794 20.7927 43.1929C20.7927 42.9373 20.7018 42.7312 20.5199 42.5746C20.3402 42.4181 20.0846 42.3398 19.7531 42.3398H18.6167V44.091Z" fill="white"></path><path d="M57.995 82.3424C57.5068 82.3424 57.0716 82.2526 56.6894 82.073C56.3094 81.8934 56.0078 81.6459 55.7844 81.3304C55.561 81.0149 55.4448 80.6534 55.4355 80.2458H56.8862C56.9024 80.5199 57.0175 80.7421 57.2316 80.9125C57.4458 81.0829 57.7002 81.1681 57.995 81.1681C58.2299 81.1681 58.4371 81.1163 58.6167 81.0126C58.7986 80.9067 58.9402 80.7605 59.0415 80.574C59.1452 80.3851 59.197 80.1687 59.197 79.9246C59.197 79.6759 59.144 79.4572 59.0381 79.2683C58.9345 79.0795 58.7906 78.9322 58.6063 78.8262C58.4221 78.7203 58.2114 78.6662 57.9743 78.6639C57.767 78.6639 57.5655 78.7065 57.3698 78.7917C57.1764 78.8769 57.0256 78.9932 56.9173 79.1405L55.5875 78.9022L55.9226 75.1719H60.247V76.3946H57.1557L56.9726 78.1665H57.014C57.1384 77.9915 57.3261 77.8464 57.577 77.7313C57.828 77.6162 58.109 77.5586 58.4198 77.5586C58.8458 77.5586 59.2258 77.6588 59.5597 77.8591C59.8935 78.0594 60.1572 78.3346 60.3506 78.6846C60.5441 79.0323 60.6396 79.433 60.6373 79.8866C60.6396 80.3633 60.5291 80.787 60.3057 81.1577C60.0847 81.5261 59.775 81.8163 59.3766 82.0281C58.9805 82.2377 58.52 82.3424 57.995 82.3424Z" fill="#61B783"></path><path d="M49.2839 82.2467V81.1691L51.8019 78.8376C52.0161 78.6304 52.1957 78.4438 52.3407 78.2781C52.4881 78.1123 52.5998 77.9499 52.6758 77.791C52.7518 77.6298 52.7898 77.456 52.7898 77.2695C52.7898 77.0622 52.7426 76.8838 52.6481 76.7341C52.5537 76.5821 52.4248 76.4658 52.2613 76.3852C52.0978 76.3024 51.9124 76.2609 51.7052 76.2609C51.4887 76.2609 51.2999 76.3047 51.1387 76.3922C50.9775 76.4797 50.8532 76.6052 50.7657 76.7686C50.6782 76.9321 50.6344 77.1267 50.6344 77.3524H49.2148C49.2148 76.8895 49.3196 76.4877 49.5292 76.1469C49.7387 75.8061 50.0323 75.5425 50.4099 75.3559C50.7876 75.1694 51.2228 75.0762 51.7156 75.0762C52.2221 75.0762 52.6631 75.166 53.0384 75.3456C53.4161 75.5229 53.7097 75.7693 53.9192 76.0847C54.1288 76.4002 54.2335 76.7617 54.2335 77.1693C54.2335 77.4364 54.1806 77.7001 54.0747 77.9603C53.971 78.2205 53.7857 78.5095 53.5186 78.8272C53.2514 79.1427 52.875 79.5215 52.3891 79.9636L51.3563 80.9756V81.024H54.3268V82.2467H49.2839Z" fill="#61B783"></path><path d="M45.3624 82.4022C44.7683 82.3999 44.2571 82.2536 43.8288 81.9635C43.4028 81.6734 43.0747 81.2531 42.8444 80.7028C42.6164 80.1524 42.5036 79.4904 42.5059 78.7167C42.5059 77.9453 42.6199 77.2879 42.8478 76.7445C43.0781 76.201 43.4062 75.7877 43.8322 75.5045C44.2605 75.2189 44.7706 75.0762 45.3624 75.0762C45.9542 75.0762 46.4631 75.2189 46.8891 75.5045C47.3174 75.79 47.6466 76.2045 47.8769 76.7479C48.1072 77.2891 48.2212 77.9453 48.2189 78.7167C48.2189 79.4927 48.1037 80.1559 47.8734 80.7062C47.6455 81.2566 47.3185 81.6768 46.8925 81.967C46.4665 82.2571 45.9565 82.4022 45.3624 82.4022ZM45.3624 81.1622C45.7676 81.1622 46.0912 80.9584 46.333 80.5508C46.5747 80.1432 46.6945 79.5319 46.6922 78.7167C46.6922 78.1802 46.6369 77.7335 46.5264 77.3766C46.4182 77.0196 46.2639 76.7514 46.0635 76.5718C45.8655 76.3922 45.6318 76.3024 45.3624 76.3024C44.9594 76.3024 44.637 76.5038 44.3952 76.9068C44.1535 77.3098 44.0314 77.9131 44.0291 78.7167C44.0291 79.2601 44.0832 79.7138 44.1915 80.0776C44.302 80.4391 44.4574 80.7108 44.6578 80.8927C44.8581 81.0724 45.093 81.1622 45.3624 81.1622Z" fill="#61B783"></path><path d="M36.4617 82.2467V81.1691L38.9796 78.8376C39.1938 78.6304 39.3734 78.4438 39.5185 78.2781C39.6658 78.1123 39.7775 77.9499 39.8535 77.791C39.9295 77.6298 39.9675 77.456 39.9675 77.2695C39.9675 77.0622 39.9203 76.8838 39.8259 76.7341C39.7315 76.5821 39.6025 76.4658 39.439 76.3852C39.2755 76.3024 39.0902 76.2609 38.8829 76.2609C38.6665 76.2609 38.4777 76.3047 38.3165 76.3922C38.1553 76.4797 38.0309 76.6052 37.9434 76.7686C37.8559 76.9321 37.8122 77.1267 37.8122 77.3524H36.3926C36.3926 76.8895 36.4974 76.4877 36.7069 76.1469C36.9164 75.8061 37.21 75.5425 37.5877 75.3559C37.9653 75.1694 38.4005 75.0762 38.8933 75.0762C39.3999 75.0762 39.8408 75.166 40.2162 75.3456C40.5938 75.5229 40.8874 75.7693 41.097 76.0847C41.3065 76.4002 41.4113 76.7617 41.4113 77.1693C41.4113 77.4364 41.3583 77.7001 41.2524 77.9603C41.1488 78.2205 40.9634 78.5095 40.6963 78.8272C40.4292 79.1427 40.0527 79.5215 39.5668 79.9636L38.5341 80.9756V81.024H41.5045V82.2467H36.4617Z" fill="#61B783"></path></g><defs><clipPath id="clip0_2082_25216"><rect width="96.0982" height="96" fill="white" transform="translate(0.246094)"></rect></clipPath></defs></svg> 