<?xml version="1.0" encoding="UTF-8"?> <svg xmlns="http://www.w3.org/2000/svg" width="25" height="24" viewBox="0 0 25 24" fill="none"><path fill-rule="evenodd" clip-rule="evenodd" d="M12.5 7.00073C13.0523 7.00073 13.5 7.44845 13.5 8.00073V10.9549L16.1484 9.95788C16.6653 9.76329 17.242 10.0245 17.4366 10.5414C17.6312 11.0583 17.3699 11.635 16.8531 11.8296L14.0304 12.8923L15.7324 15.4442C16.0388 15.9037 15.9148 16.5246 15.4553 16.831C14.9958 17.1375 14.3749 17.0134 14.0685 16.5539L12.5 14.2022L10.9315 16.5539C10.6251 17.0134 10.0042 17.1375 9.54472 16.831C9.08525 16.5246 8.9612 15.9037 9.26764 15.4442L10.9696 12.8923L8.14696 11.8296C7.63009 11.635 7.36883 11.0583 7.56342 10.5414C7.75801 10.0245 8.33476 9.76329 8.85163 9.95788L11.5 10.9549V8.00073C11.5 7.44845 11.9477 7.00073 12.5 7.00073Z" fill="black" fill-opacity="0.83"></path></svg> 