<?xml version="1.0" encoding="UTF-8"?> <svg xmlns="http://www.w3.org/2000/svg" width="16" height="16" viewBox="0 0 16 16" fill="none"> <path fill-rule="evenodd" clip-rule="evenodd" d="M8 0C3.58172 0 0 3.58172 0 8C0 12.4183 3.58172 16 8 16C12.4183 16 16 12.4183 16 8C16 3.58172 12.4183 0 8 0ZM9.29004 4.29746C9.29004 5.04312 8.72333 5.58 8.0075 5.58C7.27674 5.58 6.71004 5.04312 6.71004 4.29746C6.71004 3.55179 7.27674 3 8.0075 3C8.72333 3 9.29004 3.55179 9.29004 4.29746ZM7 11.5C7 12.0523 7.44772 12.5 8 12.5C8.55229 12.5 9 12.0523 9 11.5L9 8C9 7.44772 8.55228 7 8 7C7.44771 7 7 7.44772 7 8L7 11.5Z" fill="#808080"></path> </svg> 