<?xml version="1.0" encoding="UTF-8"?> <svg xmlns="http://www.w3.org/2000/svg" width="336" height="145" viewBox="0 0 336 145" fill="none"><g clip-path="url(#clip0_7_260)"><path d="M324 0H12C5.37258 0 0 5.37258 0 12V118C0 124.627 5.37258 130 12 130H324C330.627 130 336 124.627 336 118V12C336 5.37258 330.627 0 324 0Z" fill="#FF976B"></path><path d="M0 144.885C10.528 144.885 13.5149 137.113 13.7862 130.729C13.8916 128.251 15.7669 126 18.2472 126H25C27.2091 126 29.0574 127.818 28.6068 129.981C25.8156 143.376 8.85346 145.586 0 144.885Z" fill="#FF976B"></path></g><defs><clipPath id="clip0_7_260"><rect width="336" height="145" fill="white"></rect></clipPath></defs></svg> 