<?xml version="1.0" encoding="UTF-8"?> <svg xmlns="http://www.w3.org/2000/svg" width="72" height="72" viewBox="0 0 72 72" fill="none"> <path fill-rule="evenodd" clip-rule="evenodd" d="M16.5 22.5L16.5 19.5L19.5 19.5V16.5H25.5V13.5H46.5V16.5H40.5V19.5L37.5 19.5V25.5H43.5L43.5 22.5L49.5 22.5V19.5H46.5V16.5L52.5 16.5V19.5L55.5 19.5V22.5L52.5 22.5V25.5H46.5V28.5L37.5 28.5V34.5H46.5V28.5L49.5 28.5V34.5L58.5 34.5L58.5 28.5H61.5L61.5 43.5H58.5V37.5H49.5V43.5H46.5V37.5H37.5V43.5H46.5V46.5H52.5V49.5H55.5V52.5H52.5V55.5H46.5V52.5H49.5V49.5H43.5L43.5 46.5H37.5V52.5H40.5V55.5H46.5V58.5H25.5V55.5H31.5V52.5H34.5V46.5H28.5V49.5H22.5L22.5 52.5H25.5L25.5 55.5H19.5V52.5H16.5V49.5H19.5L19.5 46.5H25.5V43.5H34.5V37.5H25.5V43.5H22.5V37.5L13.5 37.5L13.5 43.5H10.5L10.5 28.5H13.5L13.5 34.5H22.5V28.5H25.5V34.5H34.5V28.5L25.5 28.5V25.5H19.5V22.5L16.5 22.5ZM25.5 16.5L31.5 16.5V19.5L28.5 19.5V22.5L22.5 22.5V19.5H25.5V16.5ZM28.5 22.5H31.5V19.5L34.5 19.5V25.5H28.5V22.5Z" fill="#131313"></path> <path d="M16.5 22.5L16.5 28.5L13.5 28.5L13.5 22.5H16.5Z" fill="#131313"></path> <path d="M13.5 43.5L13.5 49.5H16.5L16.5 43.5L13.5 43.5Z" fill="#131313"></path> <path d="M28.5 49.5H31.5V52.5H28.5V49.5Z" fill="#131313"></path> <path d="M40.5 52.5H43.5L43.5 49.5H40.5V52.5Z" fill="#131313"></path> <path d="M55.5 49.5V43.5L58.5 43.5V49.5H55.5Z" fill="#131313"></path> <path d="M58.5 28.5L58.5 22.5H55.5V28.5L58.5 28.5Z" fill="#131313"></path> <path d="M43.5 22.5H40.5V19.5L43.5 19.5L43.5 22.5Z" fill="#131313"></path> </svg> 