<?xml version="1.0" encoding="UTF-8"?> <svg xmlns="http://www.w3.org/2000/svg" width="24" height="24" fill="none"> <path fill="#000" fill-opacity=".83" d="M7.3 7.3A1 1 0 0 0 8 9h8a1 1 0 1 0 0-2H8a1 1 0 0 0-.7.3ZM7.3 11.3A1 1 0 0 0 8 13h8a1 1 0 0 0 0-2H8a1 1 0 0 0-.7.3ZM7.3 15.3A1 1 0 0 1 8 15h3a1 1 0 0 1 0 2H8a1 1 0 0 1-.7-1.7Z"></path> <path fill="#000" fill-opacity=".83" fill-rule="evenodd" d="M18.2 3.03a3 3 0 0 1 1.16.3 3 3 0 0 1 1.3 1.3h.01c.2.38.27.78.3 1.17.03.38.03.83.03 1.36v9.68c0 .53 0 .98-.03 1.35a3 3 0 0 1-.3 1.17 3 3 0 0 1-1.3 1.3v.01c-.38.2-.78.27-1.17.3-.38.03-.83.03-1.36.03H7.16c-.53 0-.98 0-1.35-.03a3 3 0 0 1-1.17-.3 3 3 0 0 1-1.3-1.3h-.01c-.2-.38-.27-.78-.3-1.17C3 17.82 3 17.37 3 16.84V7.16c0-.53 0-.98.03-1.35a3 3 0 0 1 .3-1.17 3 3 0 0 1 1.3-1.3v-.01c.38-.2.78-.27 1.17-.3C6.18 3 6.63 3 7.16 3h9.68c.53 0 .98 0 1.35.03ZM16.8 5c.58 0 .95 0 1.23.02.27.03.36.06.4.09h.02a1 1 0 0 1 .44.44c.03.05.06.15.09.42.02.28.02.65.02 1.23v9.6c0 .58 0 .95-.02 1.23-.03.27-.06.36-.09.4v.02a1 1 0 0 1-.44.44c-.05.03-.15.06-.42.09-.28.02-.65.02-1.23.02H7.2c-.58 0-.95 0-1.23-.02a1.08 1.08 0 0 1-.4-.09h-.02a1 1 0 0 1-.44-.44 1.15 1.15 0 0 1-.09-.42C5 17.75 5 17.38 5 16.8V7.2c0-.58 0-.95.02-1.23.03-.27.06-.36.09-.4v-.02a1 1 0 0 1 .44-.44c.05-.03.15-.06.42-.09C6.25 5 6.62 5 7.2 5h9.6Z" clip-rule="evenodd"></path> </svg> 