<?xml version="1.0" encoding="UTF-8"?> <svg xmlns="http://www.w3.org/2000/svg" width="30" height="88" viewBox="0 0 30 88" fill="none"> <ellipse cx="15" cy="15" rx="13" ry="13" transform="rotate(-90 15 15)" stroke="#FF8F60" stroke-width="3"></ellipse> <circle cx="15" cy="15" r="5" fill="#FF8F60"></circle> <ellipse cx="15" cy="73" rx="13" ry="13" transform="rotate(-90 15 73)" stroke="#FF8F60" stroke-width="3"></ellipse> <circle cx="15" cy="73" r="5" fill="#FF8F60"></circle> <path d="M10.5156 27.1885C13.1862 28.5046 15.0156 31.1914 15.0156 34.2919L15.0156 54.5002" stroke="#FF8F60" stroke-width="3"></path> <path d="M15.0041 29.1793C14.7799 28.7793 14.5273 28.397 14.2491 28.0349C14.195 27.9645 14.2509 27.8617 14.3394 27.87C14.747 27.908 15.0315 27.9227 15.4268 27.9073C15.4551 27.9062 15.4826 27.9171 15.5026 27.9371C16.0264 28.4621 16.6008 28.8633 17.1737 29.0375L17.7992 29.3171C17.8957 29.3602 17.8681 29.5039 17.7626 29.5083L15.3104 29.61C15.273 29.6116 15.2378 29.592 15.2193 29.5594L15.0041 29.1793Z" fill="#F2F1EE"></path> </svg> 