<?xml version="1.0" encoding="UTF-8"?> <svg xmlns="http://www.w3.org/2000/svg" width="24" height="24" fill="none"> <path fill="#2A2A2A" d="M14.5 15a1 1 0 1 0 0-2v2Zm4.5-1v-1h-2v1h2Zm-7 1h2.5v-2H12v2Zm-5-1v-4H5v4h2Zm8-5h-1.2v2H15V9Zm-1.2 0H12v2h1.8V9ZM9 12a3 3 0 0 0 3 3v-2a1 1 0 0 1-1-1H9Zm2 0c0-.6.4-1 1-1V9a3 3 0 0 0-3 3h2Zm8 1a4 4 0 0 0-4-4v2a2 2 0 0 1 2 2h2Zm-7 8a7 7 0 0 0 7-7h-2a5 5 0 0 1-5 5v2Zm0-2a5 5 0 0 1-5-5H5a7 7 0 0 0 7 7v-2Z"></path> <path stroke="#2A2A2A" stroke-width="2" d="M18 13V5a2 2 0 1 0-4 0v5.3M14 10V8a2 2 0 1 0-4 0v2M10 10v2a2 2 0 1 1-4 0v-2a2 2 0 1 1 4 0Z"></path> </svg> 