<?xml version="1.0" encoding="UTF-8"?> <svg xmlns="http://www.w3.org/2000/svg" width="158" height="158" viewBox="0 0 158 158" fill="none"> <path fill-rule="evenodd" clip-rule="evenodd" d="M49.5742 11.7201L89.2336 6.51102L90.5359 16.4259L110.366 13.8213L111.668 23.7362L121.583 22.4339L122.885 32.3487L132.8 31.0465L135.404 50.8762L145.319 49.5739L150.528 89.2333L140.613 90.5355L143.218 110.365L133.303 111.667L134.605 121.582L124.691 122.885L125.993 132.799L106.163 135.404L107.465 145.319L67.806 150.528L66.5037 140.613L46.674 143.218L45.3718 133.303L35.4569 134.605L34.1546 124.69L24.2398 125.992L21.6353 106.163L11.7204 107.465L6.51135 67.8057L16.4262 66.5034L13.8217 46.6737L23.7365 45.3714L22.4342 35.4566L32.3491 34.1543L31.0468 24.2395L50.8765 21.6349L49.5742 11.7201Z" fill="#F9D5FF"></path> <mask id="mask0_5798_84538" style="mask-type:alpha" maskUnits="userSpaceOnUse" x="6" y="6" width="145" height="145"> <path fill-rule="evenodd" clip-rule="evenodd" d="M49.5742 11.7201L89.2336 6.51102L90.5359 16.4259L110.366 13.8213L111.668 23.7362L121.583 22.4339L122.885 32.3487L132.8 31.0465L135.404 50.8762L145.319 49.5739L150.528 89.2333L140.613 90.5355L143.218 110.365L133.303 111.667L134.605 121.582L124.691 122.885L125.993 132.799L106.163 135.404L107.465 145.319L67.806 150.528L66.5037 140.613L46.674 143.218L45.3718 133.303L35.4569 134.605L34.1546 124.69L24.2398 125.992L21.6353 106.163L11.7204 107.465L6.51135 67.8057L16.4262 66.5034L13.8217 46.6737L23.7365 45.3714L22.4342 35.4566L32.3491 34.1543L31.0468 24.2395L50.8765 21.6349L49.5742 11.7201Z" fill="#FFDC81"></path> </mask> <g mask="url(#mask0_5798_84538)"> <g opacity="0.6" filter="url(#filter0_f_5798_84538)"> <path d="M202.841 22.1999C272.635 36.0982 340.154 22.6902 329.727 75.0537C319.299 127.417 276.251 152.18 206.458 138.281C136.664 124.383 57.4791 193.112 25.1592 165.133C9.43138 118.767 133.048 8.30161 202.841 22.1999Z" fill="#F4AFFF"></path> </g> <g opacity="0.5" filter="url(#filter1_f_5798_84538)"> <path d="M-75.2783 24.3366C-83.0635 -46.531 73.968 -128.981 148.744 -137.196C223.521 -145.411 290.45 -94.6202 298.235 -23.7527C306.02 47.1149 225.902 150.448 155.07 117.905C84.2379 85.3632 -67.4931 95.2042 -75.2783 24.3366Z" fill="#F4AFFF"></path> </g> </g> <path fill-rule="evenodd" clip-rule="evenodd" d="M62.9756 52.3208L64.9586 52.0603L66.9415 51.7999L68.9245 51.5394L70.9075 51.279L72.8904 51.0185L74.8734 50.7581L76.8564 50.4976L78.8393 50.2372L80.8223 49.9767L82.8053 49.7163L84.7882 49.4558L86.7712 49.1954L87.0317 51.1783L87.2921 53.1613L85.3091 53.4217L85.5696 55.4047L83.5866 55.6652L81.6037 55.9256L79.6207 56.1861L79.3602 54.2031L77.3773 54.4636L77.1168 52.4806L75.1339 52.741L73.1509 53.0015L73.4113 54.9845L71.4284 55.2449L71.6888 57.2279L69.7059 57.4883L67.7229 57.7488L65.7399 58.0093L65.4795 56.0263L63.4965 56.2867L63.236 54.3038L62.9756 52.3208Z" fill="#131313"></path> <path fill-rule="evenodd" clip-rule="evenodd" d="M68.9748 59.6014L66.9918 59.8618L67.2523 61.8448L69.2352 61.5843L69.4957 63.5673L71.4787 63.3068L71.7391 65.2898L73.7221 65.0294L75.7051 64.7689L77.688 64.5085L79.671 64.248L81.654 63.9875L81.3935 62.0046L83.3765 61.7441L83.116 59.7612L85.099 59.5007L84.8385 57.5177L82.8556 57.7782L83.116 59.7612L81.1331 60.0216L81.3935 62.0046L79.4105 62.265L77.4276 62.5255L75.4446 62.7859L73.4616 63.0464L71.4787 63.3068L71.2182 61.3239L69.2352 61.5843L68.9748 59.6014Z" fill="#131313"></path> <path fill-rule="evenodd" clip-rule="evenodd" d="M79.2596 38.0789L67.3617 39.6416L67.6222 41.6245L65.6392 41.885L63.6563 42.1455L63.9167 44.1284L61.9337 44.3889L62.1942 46.3718L60.2112 46.6323L60.7321 50.5982L58.7492 50.8587L60.3119 62.7565L62.2949 62.496L62.5553 64.479L62.8158 66.462L64.7987 66.2015L65.0592 68.1845L67.0422 67.924L67.3026 69.907L69.2856 69.6466L71.2686 69.3861L71.529 71.3691L83.4268 69.8064L83.1664 67.8234L85.1493 67.5629L87.1323 67.3025L86.8718 65.3195L88.8548 65.0591L88.5944 63.0761L90.5773 62.8156L90.3169 60.8327L90.0564 58.8497L92.0394 58.5892L90.4767 46.6914L88.4937 46.9519L88.2332 44.9689L87.9728 42.9859L85.9898 43.2464L85.7294 41.2634L83.7464 41.5239L83.4859 39.5409L81.503 39.8014L79.52 40.0618L79.2596 38.0789ZM79.52 40.0618L79.7805 42.0448L81.7634 41.7843L83.7464 41.5239L84.0069 43.5069L85.9898 43.2464L86.2503 45.2294L86.5107 47.2123L88.4937 46.9519L90.0564 58.8497L88.0735 59.1101L88.3339 61.0931L88.5944 63.0761L86.6114 63.3365L86.8718 65.3195L84.8889 65.58L82.9059 65.8404L83.1664 67.8234L71.2686 69.3861L71.0081 67.4031L69.0251 67.6636L67.0422 67.924L66.7817 65.9411L64.7987 66.2015L64.5383 64.2186L64.2778 62.2356L62.2949 62.496L60.7321 50.5982L62.7151 50.3378L62.1942 46.3718L64.1772 46.1114L63.9167 44.1284L65.8997 43.868L67.8827 43.6075L67.6222 41.6245L79.52 40.0618Z" fill="#131313"></path> <path d="M53.3192 96.1632L53.1629 94.9734C53.1629 94.9734 54.1436 96.297 56.0473 96.047C57.9509 95.7969 59.4395 94.2297 59.0645 91.3743C58.6894 88.5188 56.8466 87.3891 54.943 87.6392C53.0393 87.8892 52.4545 89.5798 52.4545 89.5798L51.9648 85.8518L49.9025 86.1227L51.2569 96.4341L53.3192 96.1632ZM56.9229 91.6555C57.1833 93.6385 56.2564 94.5671 55.2252 94.7026C54.1941 94.838 53.0587 94.1803 52.7983 92.1973C52.5378 90.2143 53.4648 89.2857 54.4959 89.1503C55.5271 89.0148 56.6624 89.6726 56.9229 91.6555ZM67.7654 90.6349L67.6821 90.0003C67.3695 87.6207 65.7334 86.2219 63.2745 86.5449C60.4984 86.9095 59.4 88.9903 59.7021 91.2905C60.0042 93.5907 61.6027 95.3173 64.3789 94.9526C66.8377 94.6297 67.6918 93.1458 67.8111 91.5971L65.7488 91.868C65.6944 92.682 65.2225 93.3895 64.2706 93.5145C63.1602 93.6603 62.2381 93.1521 61.9117 91.4037L67.7654 90.6349ZM63.4621 87.9726C64.4139 87.8476 65.2007 88.309 65.4467 89.5677L61.7822 90.049C61.8547 88.6356 62.6054 88.0851 63.4621 87.9726ZM75.8369 85.1369L73.7746 85.4078L73.9309 86.5976C73.9309 86.5976 72.9502 85.274 71.2052 85.5032C69.3808 85.7428 67.9716 87.2996 68.3154 89.9171C68.6696 92.614 70.4227 93.6747 72.247 93.4351C74.1506 93.185 74.5768 91.5153 74.5768 91.5153L74.7123 92.5465C74.8998 93.9742 74.1795 94.6336 73.1484 94.7691C71.9586 94.9253 71.4098 94.4326 71.2471 93.8085L69.1055 94.0898C69.6207 95.5551 70.7184 96.5406 73.3359 96.1968C75.7948 95.8738 77.0454 94.3379 76.712 91.7997L75.8369 85.1369ZM74.2643 89.1358C74.4935 90.8808 73.7251 91.7886 72.694 91.924C71.6629 92.0594 70.6862 91.3808 70.457 89.6358C70.2278 87.8908 70.9961 86.983 72.0272 86.8476C73.0584 86.7122 74.0351 87.3908 74.2643 89.1358ZM76.7004 84.378L78.7627 84.1071L78.5335 82.3621L76.4712 82.633L76.7004 84.378ZM77.8256 92.9444L79.8879 92.6735L78.8461 84.7417L76.7838 85.0125L77.8256 92.9444ZM82.9088 92.2768L82.3879 88.3108C82.1483 86.4865 83.0857 85.6372 84.0375 85.5122C84.9893 85.3872 85.6071 85.7901 85.7842 87.1386L86.3988 91.8184L88.4611 91.5475L87.7735 86.3125C87.5443 84.5674 86.5949 83.4818 84.6912 83.7319C82.9462 83.9611 82.0649 85.8519 82.0649 85.8519L81.867 84.3449L79.8047 84.6158L80.8465 92.5476L82.9088 92.2768ZM91.4759 91.1515L90.9549 87.1856C90.7153 85.3613 91.6527 84.5119 92.6045 84.3869C93.5564 84.2619 94.1741 84.6649 94.3512 86.0133L94.9659 90.6931L97.0282 90.4222L96.3406 85.1872C96.1114 83.4422 95.1619 82.3566 93.2583 82.6066C91.5132 82.8358 90.632 84.7267 90.632 84.7267L90.434 83.2196L88.3717 83.4905L89.4136 91.4224L91.4759 91.1515ZM105.364 85.6964L105.281 85.0619C104.968 82.6823 103.332 81.2834 100.873 81.6064C98.0973 81.971 96.9989 84.0518 97.3011 86.352C97.6032 88.6523 99.2016 90.3788 101.978 90.0142C104.437 89.6912 105.291 88.2074 105.41 86.6587L103.348 86.9295C103.293 87.7435 102.821 88.451 101.87 88.576C100.759 88.7219 99.8371 88.2136 99.5106 86.4653L105.364 85.6964ZM101.061 83.0341C102.013 82.9091 102.8 83.3706 103.046 84.6293L99.3811 85.1106C99.4536 83.6971 100.204 83.1467 101.061 83.0341ZM108.687 88.8909L108.26 85.6388C107.989 83.5765 109.175 82.7753 110.286 82.6294L110.841 82.5565L110.56 80.4149L110.322 80.4461C108.466 80.6899 107.942 82.9695 107.925 83.0847L107.646 80.959L105.583 81.2299L106.625 89.1617L108.687 88.8909ZM61.5244 102.146L59.7794 102.375L59.7585 102.216C59.6856 101.661 59.7337 101.413 60.2889 101.34L61.3994 101.194L61.191 99.6074L59.7633 99.795C58.2562 99.9929 57.415 100.345 57.6546 102.17L57.7171 102.646L56.1307 102.854L56.3391 104.44L57.9255 104.232L58.7589 110.578L60.8212 110.307L59.9877 103.961L61.7328 103.732L61.5244 102.146ZM65.4198 109.703L64.9927 106.451C64.7218 104.388 65.9076 103.587 67.018 103.441L67.5733 103.368L67.292 101.227L67.054 101.258C65.198 101.502 64.6744 103.781 64.6572 103.897L64.378 101.771L62.3157 102.042L63.3575 109.974L65.4198 109.703ZM68.0264 100.646L70.0886 100.375L69.8594 98.6302L67.7972 98.9011L68.0264 100.646ZM69.1515 109.213L71.2138 108.942L70.172 101.01L68.1097 101.281L69.1515 109.213ZM79.5562 104.215L79.4728 103.58C79.1603 101.201 77.5242 99.8021 75.0653 100.125C72.2892 100.49 71.1908 102.57 71.4929 104.871C71.795 107.171 73.3935 108.897 76.1696 108.533C78.6285 108.21 79.4826 106.726 79.6019 105.177L77.5396 105.448C77.4851 106.262 77.0133 106.97 76.0614 107.095C74.951 107.241 74.0289 106.732 73.7025 104.984L79.5562 104.215ZM75.2528 101.553C76.2047 101.428 76.9915 101.889 77.2375 103.148L73.5729 103.629C73.6455 102.216 74.3962 101.665 75.2528 101.553ZM82.8792 107.409L82.3583 103.444C82.1187 101.619 83.0561 100.77 84.0079 100.645C84.9597 100.52 85.5775 100.923 85.7546 102.271L86.3693 106.951L88.4316 106.68L87.744 101.445C87.5148 99.7002 86.5653 98.6146 84.6616 98.8646C82.9166 99.0938 82.0354 100.985 82.0354 100.985L81.8374 99.4776L79.7751 99.7485L80.817 107.68L82.8792 107.409ZM94.1372 95.4415L94.606 99.0108C94.606 99.0108 93.6253 97.6873 91.7216 97.9373C89.818 98.1873 88.3294 99.7545 88.7045 102.61C89.0795 105.465 90.9223 106.595 92.826 106.345C94.7296 106.095 95.3144 104.404 95.3144 104.404L95.4915 105.753L97.5538 105.482L96.1995 95.1706L94.1372 95.4415ZM90.8461 102.329C90.5856 100.346 91.5126 99.4171 92.5437 99.2817C93.5749 99.1463 94.7102 99.804 94.9706 101.787C95.2311 103.77 94.3041 104.699 93.273 104.834C92.2418 104.969 91.1065 104.312 90.8461 102.329ZM98.5088 105.357L100.571 105.086L99.2167 94.7743L97.1544 95.0452L98.5088 105.357ZM100.091 97.08L104.464 104.574C104.379 105.15 104.103 105.509 103.389 105.603C102.913 105.666 102.511 105.67 102.511 105.67L102.715 107.225C102.715 107.225 103.042 107.262 103.994 107.137C105.898 106.887 106.389 105.709 106.696 104.362L108.658 95.9549L106.357 96.257L105.254 102.228L102.392 96.7779L100.091 97.08Z" fill="#131313"></path> <defs> <filter id="filter0_f_5798_84538" x="-56.3257" y="-59.1166" width="467.239" height="311.133" filterUnits="userSpaceOnUse" color-interpolation-filters="sRGB"> <feFlood flood-opacity="0" result="BackgroundImageFix"></feFlood> <feBlend mode="normal" in="SourceGraphic" in2="BackgroundImageFix" result="shape"></feBlend> <feGaussianBlur stdDeviation="40.0583" result="effect1_foregroundBlur_5798_84538"></feGaussianBlur> </filter> <filter id="filter1_f_5798_84538" x="-143.662" y="-206.172" width="510.527" height="398.354" filterUnits="userSpaceOnUse" color-interpolation-filters="sRGB"> <feFlood flood-opacity="0" result="BackgroundImageFix"></feFlood> <feBlend mode="normal" in="SourceGraphic" in2="BackgroundImageFix" result="shape"></feBlend> <feGaussianBlur stdDeviation="34.0522" result="effect1_foregroundBlur_5798_84538"></feGaussianBlur> </filter> </defs> </svg> 