<?xml version="1.0" encoding="UTF-8"?> <svg xmlns="http://www.w3.org/2000/svg" width="48" height="48" viewBox="0 0 48 48" fill="none"> <path fill-rule="evenodd" clip-rule="evenodd" d="M21 16H23V18H25V20H23H21V22V24H19V22V20V18H21V16ZM23 26H21V24H23V26ZM23 26H25V28V30V32H23V34H21V32H19V30H21H23V28V26Z" fill="#131313"></path> <path fill-rule="evenodd" clip-rule="evenodd" d="M19 9H17V11H15V13H13V15H11V17V19V21H9V23V25V27V29H11V31V33V35H13V37H15V39H17V41H19H21H23H25H27H29H31V39H33V37H35V35H37V33V31V29H39V27V25V23V21H37V19V17V15H35V13H33V11H31V9H29H27H25H23H21H19ZM17 39V37H15V35H13V33V31V29H11V27V25V23V21H13V19V17V15H15V13H17V11H19H21H23H25H27V13H29V15H31V17V19V21H33V23V25V27V29H31V31V33V35H29V37H27V39H25H23H21H19H17Z" fill="#131313"></path> </svg> 