<?xml version="1.0" encoding="UTF-8"?> <svg xmlns="http://www.w3.org/2000/svg" width="426" height="195" viewBox="0 0 426 195" fill="none"> <path d="M298.095 10.2322L248.881 2.05883C243.281 1.12887 237.988 4.91427 237.058 10.5137L228.885 59.7276C227.955 65.3271 231.74 70.6202 237.34 71.5502L286.554 79.7235C292.153 80.6535 297.446 76.8681 298.376 71.2686L306.55 22.0548C307.48 16.4553 303.694 11.1621 298.095 10.2322Z" fill="#131313" stroke="#131313" stroke-width="2.02714" stroke-miterlimit="10"></path> <path d="M296.883 14.304L248.709 6.30338C242.823 5.32574 237.258 9.30525 236.281 15.1919L227.031 70.885C226.054 76.7716 230.033 82.3362 235.92 83.3138L284.094 91.3145C289.98 92.2921 295.545 88.3126 296.523 82.426L305.772 26.7329C306.75 20.8463 302.77 15.2817 296.883 14.304Z" fill="#131313" stroke="#131313" stroke-width="2.02714" stroke-miterlimit="10"></path> <path d="M242.365 22.3472L243.262 16.9478C243.596 14.9667 244.701 13.1986 246.336 12.0299C247.97 10.8612 250 10.387 251.983 10.7109L255.783 11.3419L242.365 22.3472Z" fill="#F5F2EC"></path> <path d="M303.007 59.3369L300.954 71.6954C300.394 74.4568 298.761 76.8833 296.414 78.4428C294.067 80.0022 291.198 80.5672 288.435 80.014L235.762 71.2661C232.97 70.8968 230.44 69.4343 228.726 67.2C227.013 64.9656 226.256 62.1423 226.623 59.3506L228.433 48.452" stroke="#F5F2EC" stroke-width="2.02714" stroke-miterlimit="10"></path> <path d="M251.29 54.9675L242.171 53.453L253.004 44.6487L253.442 42.0091L240.244 39.8171L239.805 42.4568L248.924 43.9712L238.091 52.7755L237.653 55.4152L250.851 57.6071L251.29 54.9675Z" fill="#F5F2EC"></path> <path d="M212.037 84.3476L126.627 105.367C119.376 107.151 114.945 114.476 116.729 121.727L128.166 168.201C129.951 175.452 137.276 179.884 144.527 178.099L229.936 157.08C237.187 155.296 241.619 147.971 239.834 140.72L228.397 94.2458C226.613 86.9947 219.288 82.5631 212.037 84.3476Z" fill="#131313" stroke="#131313" stroke-width="2.02714" stroke-miterlimit="10"></path> <path d="M226.978 143.614L140.781 164.827C137.403 165.658 133.834 165.113 130.858 163.313C127.881 161.512 125.742 158.603 124.911 155.225L114.341 112.275C113.51 108.897 114.055 105.327 115.855 102.351C117.656 99.3751 120.565 97.2361 123.943 96.4049L210.139 75.1921C213.517 74.3609 217.087 74.9055 220.063 76.7061C223.039 78.5067 225.178 81.4158 226.009 84.7935L236.569 127.705C236.987 129.379 237.07 131.12 236.814 132.826C236.558 134.533 235.967 136.172 235.076 137.65C234.185 139.128 233.011 140.416 231.621 141.439C230.232 142.463 228.654 143.202 226.978 143.614Z" fill="#131313" stroke="#131313" stroke-width="2.02714" stroke-miterlimit="10"></path> <path d="M237.112 118.802L239.157 127.109C239.541 128.827 239.584 130.603 239.282 132.337C238.98 134.071 238.339 135.729 237.396 137.215C236.453 138.702 235.227 139.987 233.787 141C232.347 142.012 230.722 142.731 229.004 143.114L139.264 165.199C137.565 165.656 135.793 165.773 134.049 165.545C132.305 165.316 130.623 164.745 129.099 163.865C127.576 162.986 126.241 161.814 125.171 160.418C124.101 159.022 123.316 157.428 122.863 155.729L121.036 148.308" stroke="#F5F2EC" stroke-width="2.02714" stroke-miterlimit="10"></path> <path d="M123.78 116.444L122.467 111.11C121.988 109.163 122.302 107.105 123.34 105.389C124.378 103.673 126.055 102.44 128.002 101.961L135.502 100.115L123.78 116.444Z" fill="#F5F2EC"></path> <path d="M133.411 139.882C132.394 135.748 133.934 133.866 136.178 133.314C138.422 132.762 140.041 133.741 140.801 135.809L144.344 134.937C143.441 131.777 140.41 129.642 135.568 130.834C130.49 132.084 128.734 136.148 129.868 140.754C131.001 145.36 134.442 148.146 139.521 146.896C144.387 145.699 146.057 142.407 145.39 139.189L141.847 140.061C142.163 142.363 141.155 143.864 138.911 144.416C136.667 144.968 134.428 144.016 133.411 139.882ZM145.371 135.06L147.733 134.479L149.216 140.502C149.913 143.336 150.707 144.018 153.187 143.407C154.25 143.146 155.728 142.532 155.728 142.532L155.175 140.288C155.175 140.288 154.26 140.638 153.787 140.755C152.96 140.958 152.548 140.809 152.286 139.746L150.804 133.723L153.402 133.083L152.821 130.721L150.223 131.361L149.351 127.818L146.28 128.573L147.152 132.116L144.79 132.698L145.371 135.06ZM160.092 141.458L158.9 136.615C158.145 133.545 159.802 132.135 161.455 131.728L162.282 131.525L161.497 128.336L161.143 128.423C158.379 129.103 157.971 132.636 157.964 132.813L157.185 129.647L154.115 130.403L157.021 142.213L160.092 141.458ZM165.648 140.09L168.719 139.335L164.941 123.981L161.87 124.737L165.648 140.09Z" fill="#F5F2EC"></path> <rect x="90" y="151.395" width="8" height="8" fill="#131313"></rect> <rect x="98.0469" y="159.504" width="8" height="8" fill="#131313"></rect> <rect x="306" y="86.8711" width="8" height="8" fill="#131313"></rect> <rect x="314" y="78.6777" width="8" height="8" fill="#131313"></rect> <rect x="201" y="50" width="8" height="8" fill="#131313"></rect> <path d="M325.787 33.7891L327.462 24.593C327.51 24.4221 327.611 24.2718 327.749 24.1648C327.888 24.0579 328.057 24 328.23 24C328.404 24 328.573 24.0579 328.712 24.1648C328.85 24.2718 328.951 24.4221 328.999 24.593L330.674 33.7891C330.703 33.9415 330.773 34.0826 330.876 34.1965C330.979 34.3104 331.111 34.3926 331.258 34.4337L337.866 36.1314C338.033 36.1802 338.18 36.2833 338.284 36.4251C338.389 36.567 338.446 36.7397 338.446 36.9174C338.446 37.095 338.389 37.2679 338.284 37.4098C338.18 37.5516 338.033 37.6546 337.866 37.7034L331.273 39.3855C331.123 39.4269 330.987 39.5107 330.881 39.6275C330.775 39.7442 330.703 39.8891 330.674 40.0456L328.999 50.2166C328.951 50.3874 328.85 50.5375 328.712 50.6445C328.573 50.7515 328.404 50.8093 328.23 50.8093C328.057 50.8093 327.888 50.7515 327.749 50.6445C327.611 50.5375 327.51 50.3874 327.462 50.2166L325.772 40.0456C325.749 39.8888 325.681 39.7425 325.578 39.625C325.474 39.5075 325.338 39.4242 325.188 39.3855L318.58 37.7034C318.413 37.6546 318.266 37.5516 318.161 37.4098C318.057 37.2679 318 37.095 318 36.9174C318 36.7397 318.057 36.567 318.161 36.4251C318.266 36.2833 318.413 36.1802 318.58 36.1314L325.188 34.4337C325.337 34.3951 325.472 34.3142 325.578 34.2001C325.685 34.0861 325.757 33.9435 325.787 33.7891Z" fill="#FFDC81"></path> <path d="M81.5468 84.7727L84.2458 69.9554C84.3226 69.6802 84.4851 69.438 84.7084 69.2656C84.9318 69.0932 85.204 69 85.4838 69C85.7636 69 86.0359 69.0932 86.2592 69.2656C86.4826 69.438 86.645 69.6802 86.7219 69.9554L89.4208 84.7727C89.4674 85.0183 89.5803 85.2456 89.7466 85.4291C89.9128 85.6126 90.1259 85.745 90.3617 85.8112L101.009 88.5466C101.278 88.6253 101.515 88.7915 101.683 89.02C101.852 89.2485 101.943 89.5269 101.943 89.8131C101.943 90.0993 101.852 90.378 101.683 90.6065C101.515 90.835 101.278 91.0009 101.009 91.0795L90.3865 93.7899C90.1442 93.8566 89.9251 93.9916 89.7543 94.1798C89.5836 94.3679 89.4679 94.6013 89.4208 94.8535L86.7219 111.241C86.645 111.517 86.4826 111.759 86.2592 111.931C86.0359 112.103 85.7636 112.197 85.4838 112.197C85.204 112.197 84.9318 112.103 84.7084 111.931C84.4851 111.759 84.3226 111.517 84.2458 111.241L81.5221 94.8535C81.4856 94.6009 81.3767 94.3651 81.2093 94.1757C81.0418 93.9864 80.8232 93.8522 80.5812 93.7899L69.9339 91.0795C69.6649 91.0009 69.4281 90.835 69.2596 90.6065C69.0911 90.378 69 90.0993 69 89.8131C69 89.5269 69.0911 89.2485 69.2596 89.02C69.4281 88.7915 69.6649 88.6253 69.9339 88.5466L80.5812 85.8112C80.8216 85.7492 81.0399 85.6188 81.2108 85.435C81.3817 85.2512 81.4982 85.0214 81.5468 84.7727Z" fill="#FFDC81"></path> </svg> 