<?xml version="1.0" encoding="UTF-8"?> <svg xmlns="http://www.w3.org/2000/svg" width="201" height="211" viewBox="0 0 201 211" fill="none"> <path d="M193.135 132.302L181.633 135.535L155.419 89.5259H168.772L193.135 132.302Z" fill="#131313" stroke="#131313" stroke-width="2.5" stroke-miterlimit="10"></path> <path d="M174.273 121.69L181.16 111.359L193.131 132.302L181.887 136.542L174.273 121.69Z" fill="#A1634B" stroke="#131313" stroke-width="2.5" stroke-miterlimit="10"></path> <path d="M184.79 128.506C186.055 127.783 187.556 127.588 188.964 127.966C190.372 128.343 191.575 129.262 192.309 130.521L195.003 135.206C195.367 135.83 195.604 136.519 195.7 137.235C195.796 137.95 195.748 138.678 195.561 139.375C195.374 140.072 195.05 140.725 194.608 141.296C194.167 141.868 193.616 142.346 192.989 142.703L192.098 143.218C190.837 143.95 189.337 144.151 187.927 143.778C186.517 143.405 185.313 142.487 184.579 141.227L181.885 136.542C181.162 135.279 180.969 133.782 181.346 132.378C181.723 130.973 182.641 129.775 183.899 129.045L184.79 128.506Z" fill="#A1634B" stroke="#131313" stroke-width="2.5" stroke-miterlimit="10"></path> <path d="M44.0505 98.5917L12.7064 96.6942V50.7791L44.0505 46.8201V98.5917Z" fill="#7ACA5E" stroke="#131313" stroke-width="2.5" stroke-miterlimit="10"></path> <path d="M83.8271 22.0354H156.729V39.4409" stroke="#131313" stroke-width="6" stroke-miterlimit="10"></path> <path d="M117.139 172.15H83.9916" stroke="#131313" stroke-width="6" stroke-miterlimit="10"></path> <path d="M156.729 172.15H138.645" stroke="#131313" stroke-width="6" stroke-miterlimit="10"></path> <path d="M86.8972 57.2676L119.623 24.9631H153.661L86.8972 72.7054V57.2676Z" fill="#7ACA5E"></path> <path d="M86.8972 85.3555L156.73 59.4697V113.162L86.8972 93.2969V85.3555Z" fill="#7ACA5E"></path> <path d="M86.8972 112.413L156.73 138.486V168.753L86.8972 123.564V112.413Z" fill="#7ACA5E"></path> <path d="M80.7583 192.577L2 172.43V21.8944L80.7583 1.74805" stroke="#131313" stroke-width="2.5" stroke-miterlimit="10"></path> <path d="M86.8946 1.74805H80.757V192.577H86.8946V1.74805Z" fill="#131313" stroke="#131313" stroke-width="2.3426" stroke-miterlimit="10"></path> <path d="M14.249 113.442C15.9051 113.442 17.2476 111.943 17.2476 110.093C17.2476 108.242 15.9051 106.743 14.249 106.743C12.593 106.743 11.2505 108.242 11.2505 110.093C11.2505 111.943 12.593 113.442 14.249 113.442Z" fill="#7ACA5E"></path> <path d="M22.1696 112.459L63.4697 116.746" stroke="#131313" stroke-width="2.5" stroke-miterlimit="10"></path> <path d="M14.249 124.688C15.9051 124.688 17.2476 123.189 17.2476 121.338C17.2476 119.488 15.9051 117.988 14.249 117.988C12.593 117.988 11.2505 119.488 11.2505 121.338C11.2505 123.189 12.593 124.688 14.249 124.688Z" fill="#7ACA5E"></path> <path d="M22.1696 121.923L63.8445 127.569" stroke="#131313" stroke-width="2.5" stroke-miterlimit="10"></path> <path d="M14.249 135.839C15.9051 135.839 17.2476 134.339 17.2476 132.489C17.2476 130.639 15.9051 129.139 14.249 129.139C12.593 129.139 11.2505 130.639 11.2505 132.489C11.2505 134.339 12.593 135.839 14.249 135.839Z" fill="#7ACA5E"></path> <path d="M22.1696 131.997L63.8445 138.486" stroke="#131313" stroke-width="2.5" stroke-miterlimit="10"></path> <path d="M11.2064 34.3572L67.1947 22.3397" stroke="#131313" stroke-width="2.5" stroke-miterlimit="10"></path> <path d="M11.792 40.9861L48.9925 34.3566" stroke="#131313" stroke-width="2.5" stroke-miterlimit="10"></path> <path d="M130.21 183.182H124.822C123.674 183.178 122.558 182.808 121.635 182.125C120.712 181.443 120.031 180.483 119.692 179.387L115.662 166.338C115.404 165.529 115.34 164.67 115.477 163.831C115.614 162.992 115.947 162.198 116.45 161.512C116.953 160.827 117.61 160.27 118.369 159.888C119.128 159.505 119.967 159.307 120.816 159.311L129.648 165.097L130.21 183.182Z" fill="#7ACA5E" stroke="#131313" stroke-width="2.5" stroke-miterlimit="10"></path> <path d="M159.845 68.2539C159.845 74.4384 157.128 78.6082 150.475 78.374C143.822 78.1397 140.144 73.8527 139.02 65.6536C137.427 54.0812 146.844 51.9025 153.263 53.9406C159.682 55.9787 159.799 62.046 159.845 68.2539Z" fill="#A1634B" stroke="#131313" stroke-width="2.5" stroke-miterlimit="10"></path> <path d="M128.5 160.131L128.313 179.926C128.318 180.634 128.554 181.321 128.987 181.881C129.419 182.442 130.024 182.844 130.707 183.028C131.391 183.211 132.116 183.166 132.771 182.897C133.426 182.629 133.975 182.153 134.333 181.543L165.35 127.124L146.374 122.251L128.5 160.131Z" fill="#131313" stroke="#131313" stroke-width="2.5" stroke-miterlimit="10"></path> <path d="M139.652 126.258L136.232 89.2211C135.929 87.6798 135.977 86.0902 136.372 84.5699C136.767 83.0496 137.499 81.6376 138.513 80.4385C139.528 79.2394 140.799 78.2839 142.233 77.6428C143.667 77.0018 145.227 76.6915 146.797 76.735H155.793C159.251 76.8444 162.564 78.1481 165.169 80.4244C167.774 82.7007 169.51 85.8092 170.083 89.2211L176.572 126.258H139.652Z" fill="#7ACA5E" stroke="#131313" stroke-width="2.5" stroke-miterlimit="10"></path> <path d="M179.825 199.768L145.342 126.257H171.111L197.231 178.122C194.495 176.825 191.378 176.575 188.47 177.419C187.168 177.794 186.016 178.568 185.175 179.631C184.335 180.694 183.849 181.993 183.785 183.346V198.995" fill="#F5F2EC"></path> <path d="M179.825 199.768L145.342 126.257H171.111L197.231 178.122C194.495 176.825 191.378 176.575 188.47 177.419C187.168 177.794 186.016 178.568 185.175 179.631C184.335 180.694 183.849 181.993 183.784 183.346V198.995" stroke="#131313" stroke-width="2.5" stroke-miterlimit="10"></path> <path d="M193.016 177.233H190.112C189.31 177.233 188.516 177.391 187.775 177.699C187.035 178.007 186.362 178.457 185.796 179.025C185.231 179.593 184.782 180.268 184.478 181.009C184.173 181.751 184.018 182.546 184.021 183.347V198.996H182.428C181.854 198.993 181.285 199.103 180.753 199.321C180.222 199.538 179.739 199.859 179.332 200.264C178.925 200.669 178.602 201.15 178.381 201.68C178.161 202.211 178.047 202.779 178.047 203.353V205.344C178.047 205.919 178.161 206.487 178.381 207.017C178.602 207.547 178.925 208.029 179.332 208.434C179.739 208.839 180.222 209.159 180.753 209.377C181.285 209.594 181.854 209.705 182.428 209.702H193.016C194.638 209.702 196.193 209.057 197.34 207.911C198.486 206.764 199.131 205.209 199.131 203.587V183.347C199.131 182.544 198.973 181.749 198.665 181.008C198.358 180.266 197.908 179.592 197.34 179.024C196.772 178.456 196.098 178.006 195.356 177.699C194.614 177.391 193.819 177.233 193.016 177.233Z" fill="#7ACA5E" stroke="#131313" stroke-width="2.5" stroke-miterlimit="10"></path> <path d="M193.064 178.123H195.266C196.248 178.123 197.189 178.513 197.883 179.207C198.577 179.901 198.967 180.843 198.967 181.824V205.063C198.967 206.306 198.474 207.497 197.595 208.376C196.716 209.255 195.525 209.748 194.282 209.748H193.04C192.059 209.748 191.117 209.358 190.423 208.664C189.729 207.97 189.339 207.029 189.339 206.047V181.824C189.339 181.336 189.436 180.853 189.623 180.403C189.811 179.952 190.085 179.543 190.431 179.199C190.778 178.855 191.188 178.583 191.64 178.398C192.092 178.213 192.576 178.12 193.064 178.123Z" fill="#131313" stroke="#131313" stroke-width="2.3426" stroke-miterlimit="10"></path> <path d="M129.459 183.183L128.381 180.63H123.907L116.879 161.092C116.081 162.274 115.739 163.706 115.919 165.122C117.588 170.923 119.567 176.632 121.846 182.223L129.459 183.183Z" fill="#131313"></path> <path d="M127.61 109.133L121.614 114.029L114.187 117.145C113.676 117.423 113.256 117.843 112.977 118.354C112.699 118.865 112.574 119.446 112.618 120.026L113.016 125.601C113.152 126.345 113.48 127.04 113.966 127.619C114.453 128.198 115.081 128.64 115.79 128.902C116.499 129.164 117.264 129.238 118.01 129.115C118.755 128.992 119.456 128.677 120.044 128.202L123.698 125.672L129.532 121.549" fill="#A1634B"></path> <path d="M127.61 109.133L121.614 114.029L114.187 117.145C113.676 117.423 113.256 117.843 112.977 118.354C112.699 118.865 112.574 119.446 112.618 120.026L113.016 125.601C113.152 126.345 113.48 127.04 113.966 127.619C114.453 128.198 115.081 128.64 115.79 128.902C116.499 129.164 117.264 129.238 118.01 129.115C118.755 128.992 119.456 128.677 120.044 128.202L123.698 125.672L129.532 121.549" stroke="#131313" stroke-width="2.5" stroke-miterlimit="10"></path> <path d="M136.111 86.2693L132.246 104.682L127.561 109.133L129.435 121.549L139.438 114.334C141.252 112.542 142.624 110.353 143.444 107.938L148.34 94.9369" fill="#7ACA5E"></path> <path d="M136.111 86.2693L132.246 104.682L127.561 109.133L129.435 121.549L139.438 114.334C141.252 112.542 142.624 110.353 143.444 107.938L148.34 94.9369" stroke="#131313" stroke-width="2.5" stroke-miterlimit="10"></path> <path d="M41.0055 159.827L67.1958 164.442" stroke="#131313" stroke-width="2.5" stroke-miterlimit="10"></path> <path d="M41.0055 167.253L57.0055 170.275" stroke="#131313" stroke-width="2.5" stroke-miterlimit="10"></path> <path d="M172.778 86.4567C172.614 86.1522 172.45 85.8476 172.286 85.4962C172.611 85.1719 172.867 84.7841 173.036 84.357C173.205 83.9298 173.285 83.4723 173.27 83.0131C173.225 82.0538 172.827 81.1449 172.152 80.4615C171.478 79.7781 170.574 79.3686 169.615 79.3118H169.24L168.608 78.0468C169.207 77.4155 169.535 76.5745 169.521 75.7042C169.488 74.7452 169.096 73.8336 168.424 73.1486C167.753 72.4636 166.849 72.0549 165.891 72.0028H165.539L165.117 71.1595C165.583 70.5577 165.824 69.8117 165.797 69.0512C165.764 68.096 165.375 67.1875 164.708 66.5031C164.041 65.8187 163.143 65.4075 162.189 65.3499L161.861 64.7408C162.032 64.2755 162.119 63.7839 162.119 63.2883C161.799 61.613 161.096 60.0346 160.063 58.677C159.031 57.3194 157.698 56.2196 156.169 55.4641C148.391 51.2474 142.535 54.4333 141.715 56.5651L153.428 88.893H153.709C153.709 88.893 153.709 89.1273 153.709 89.2444C153.748 90.2016 154.141 91.1103 154.812 91.7942C155.483 92.4781 156.384 92.8885 157.34 92.9457C157.798 92.9693 158.257 92.8963 158.685 92.7316C159.114 92.5669 159.503 92.314 159.827 91.9894C160.152 91.6649 160.405 91.2757 160.569 90.8473C160.734 90.4188 160.807 89.9605 160.784 89.5021C160.806 89.3154 160.806 89.1266 160.784 88.9399H161.229C161.217 89.1349 161.217 89.3305 161.229 89.5255C161.273 90.4848 161.671 91.3937 162.346 92.0771C163.021 92.7605 163.924 93.17 164.883 93.2268C165.341 93.2467 165.797 93.1713 166.224 93.0053C166.651 92.8393 167.039 92.5863 167.362 92.2625C167.686 91.9387 167.939 91.551 168.105 91.1242C168.271 90.6974 168.347 90.2407 168.327 89.7832C168.361 89.5188 168.361 89.2511 168.327 88.9867H168.842C168.818 89.2517 168.818 89.5182 168.842 89.7832C168.881 90.7404 169.274 91.6491 169.945 92.333C170.616 93.0169 171.517 93.4272 172.473 93.4845C172.932 93.5042 173.389 93.4288 173.817 93.263C174.245 93.0972 174.634 92.8447 174.96 92.5212C175.286 92.1978 175.541 91.8104 175.71 91.3836C175.878 90.9567 175.957 90.4996 175.94 90.0409C175.895 89.1741 175.558 88.3479 174.984 87.6971C174.41 87.0462 173.632 86.609 172.778 86.4567Z" fill="#131313" stroke="#131313" stroke-width="2.3426" stroke-miterlimit="10"></path> <path d="M141.173 56.8924L144.664 64.6699C144.664 64.6699 144.664 63.0066 145.554 62.585C145.775 62.4238 146.028 62.3112 146.295 62.2544C146.563 62.1976 146.84 62.1979 147.108 62.2554C147.375 62.3129 147.627 62.4262 147.848 62.588C148.069 62.7497 148.253 62.9562 148.388 63.194L146.608 54.4093C145.598 54.4302 144.602 54.6533 143.68 55.0652C142.709 55.4635 141.849 56.0904 141.173 56.8924Z" fill="#F5F2EC" stroke="#131313" stroke-width="2.5" stroke-miterlimit="10"></path> <path d="M146.385 66.7628C146.453 64.9528 145.754 63.4569 144.824 63.4216C143.893 63.3863 143.083 64.8251 143.014 66.6351C142.945 68.4451 143.644 69.941 144.575 69.9763C145.506 70.0116 146.316 68.5728 146.385 66.7628Z" fill="#A1634B"></path> <path d="M34.5648 67.9037C34.5648 67.9037 33.2998 60.4542 27.537 60.5245C21.7742 60.5948 20.5092 67.5523 20.5092 67.5523" fill="#F5F2EC"></path> <path d="M34.5648 67.9037C34.5648 67.9037 33.2998 60.4542 27.537 60.5245C21.7742 60.5948 20.5092 67.5523 20.5092 67.5523" stroke="#131313" stroke-width="2.3426" stroke-miterlimit="10"></path> <path d="M34.5605 75.8917C36.346 75.8917 37.7933 74.4443 37.7933 72.6589C37.7933 70.8735 36.346 69.4261 34.5605 69.4261C32.7751 69.4261 31.3278 70.8735 31.3278 72.6589C31.3278 74.4443 32.7751 75.8917 34.5605 75.8917Z" fill="#131313" stroke="#131313" stroke-width="2.3426" stroke-miterlimit="10"></path> <path d="M36.6702 81.677C38.4556 81.677 39.903 80.2297 39.903 78.4443C39.903 76.6588 38.4556 75.2115 36.6702 75.2115C34.8847 75.2115 33.4374 76.6588 33.4374 78.4443C33.4374 80.2297 34.8847 81.677 36.6702 81.677Z" fill="#131313" stroke="#131313" stroke-width="2.3426" stroke-miterlimit="10"></path> <path d="M33.2328 70.2136C35.0182 70.2136 36.4656 68.7663 36.4656 66.9808C36.4656 65.1954 35.0182 63.748 33.2328 63.748C31.4474 63.748 30 65.1954 30 66.9808C30 68.7663 31.4474 70.2136 33.2328 70.2136Z" fill="#131313" stroke="#131313" stroke-width="2.3426" stroke-miterlimit="10"></path> <path d="M30.3915 65.7944C32.1769 65.7944 33.6243 64.347 33.6243 62.5616C33.6243 60.7762 32.1769 59.3288 30.3915 59.3288C28.6061 59.3288 27.1587 60.7762 27.1587 62.5616C27.1587 64.347 28.6061 65.7944 30.3915 65.7944Z" fill="#131313" stroke="#131313" stroke-width="2.3426" stroke-miterlimit="10"></path> <path d="M25.3541 65.7944C27.1396 65.7944 28.5869 64.347 28.5869 62.5616C28.5869 60.7762 27.1396 59.3288 25.3541 59.3288C23.5687 59.3288 22.1213 60.7762 22.1213 62.5616C22.1213 64.347 23.5687 65.7944 25.3541 65.7944Z" fill="#131313" stroke="#131313" stroke-width="2.3426" stroke-miterlimit="10"></path> <path d="M22.2328 69.2136C24.0182 69.2136 25.4656 67.7663 25.4656 65.9808C25.4656 64.1954 24.0182 62.748 22.2328 62.748C20.4474 62.748 19 64.1954 19 65.9808C19 67.7663 20.4474 69.2136 22.2328 69.2136Z" fill="#131313" stroke="#131313" stroke-width="2.3426" stroke-miterlimit="10"></path> <path d="M20.391 75.1412C22.1764 75.1412 23.6238 73.6938 23.6238 71.9084C23.6238 70.123 22.1764 68.6756 20.391 68.6756C18.6056 68.6756 17.1582 70.123 17.1582 71.9084C17.1582 73.6938 18.6056 75.1412 20.391 75.1412Z" fill="#131313" stroke="#131313" stroke-width="2.3426" stroke-miterlimit="10"></path> <path d="M18.9111 80.9506C20.6966 80.9506 22.1439 79.5033 22.1439 77.7178C22.1439 75.9324 20.6966 74.485 18.9111 74.485C17.1257 74.485 15.6783 75.9324 15.6783 77.7178C15.6783 79.5033 17.1257 80.9506 18.9111 80.9506Z" fill="#131313" stroke="#131313" stroke-width="2.3426" stroke-miterlimit="10"></path> <path d="M16.5929 86.1279C18.3783 86.1279 19.8257 84.6805 19.8257 82.8951C19.8257 81.1096 18.3783 79.6623 16.5929 79.6623C14.8075 79.6623 13.3601 81.1096 13.3601 82.8951C13.3601 84.6805 14.8075 86.1279 16.5929 86.1279Z" fill="#131313" stroke="#131313" stroke-width="2.3426" stroke-miterlimit="10"></path> <path d="M39.2711 86.9726C41.0565 86.9726 42.5039 85.5252 42.5039 83.7398C42.5039 81.9544 41.0565 80.507 39.2711 80.507C37.4857 80.507 36.0383 81.9544 36.0383 83.7398C36.0383 85.5252 37.4857 86.9726 39.2711 86.9726Z" fill="#131313" stroke="#131313" stroke-width="2.3426" stroke-miterlimit="10"></path> <path d="M34.1661 69.4727C34.0021 74.4391 31.6596 78.4449 27.4663 78.4449C23.273 78.4449 20.6495 74.6733 20.6495 69.707C20.6495 64.7407 21.399 60.524 27.4663 60.524C31.6596 60.524 34.4238 61.7421 34.1661 69.4727Z" fill="#A1634B" stroke="#131313" stroke-width="2.3426" stroke-miterlimit="10"></path> <path d="M31.3762 77.2742C31.3762 77.2742 30.5561 78.4456 27.4405 78.4456C25.7312 78.3368 24.0962 77.7073 22.7553 76.6418L15.7274 82.2171C14.7825 83.161 14.0332 84.2822 13.5227 85.5163C13.0121 86.7505 12.7506 88.0733 12.7526 89.4089V96.6944L44.0732 98.8028V91.6344C44.0762 89.9069 43.7074 88.199 42.992 86.6267C42.2765 85.0543 41.2311 83.6543 39.9267 82.5217L31.4465 77.2742" fill="#7ACA5E"></path> <path d="M31.3762 77.2742C31.3762 77.2742 30.5561 78.4456 27.4405 78.4456C25.7312 78.3368 24.0962 77.7073 22.7553 76.6418L15.7274 82.2171C14.7825 83.161 14.0332 84.2822 13.5227 85.5163C13.0121 86.7505 12.7506 88.0733 12.7526 89.4089V96.6944L44.0732 98.8028V91.6344C44.0762 89.9069 43.7074 88.199 42.992 86.6267C42.2765 85.0543 41.2311 83.6543 39.9267 82.5217L31.4465 77.2742" stroke="#131313" stroke-width="2.5" stroke-miterlimit="10"></path> <path d="M21 68.748C21.78 67.7432 22.7759 66.9169 23.9177 66.327C25.0596 65.7371 26.3197 65.3979 27.6101 65.3331C28.8674 65.4077 30.0923 65.7525 31.197 66.3429C32.3017 66.9333 33.2588 67.7546 34 68.748C34 68.748 34 60.748 27.5611 60.748C21.1222 60.748 21 68.748 21 68.748Z" fill="#7ACA5E" stroke="#131313" stroke-width="2.5" stroke-miterlimit="10"></path> </svg> 