<?xml version="1.0" encoding="UTF-8"?> <svg xmlns="http://www.w3.org/2000/svg" width="181" height="151" viewBox="0 0 181 151" fill="none"> <path d="M162.082 95.748V111.98" stroke="#131313" stroke-width="2.5" stroke-miterlimit="10"></path> <path d="M45.652 89.4152L12 12L54.8796 12.006L66 39.2021" stroke="#131313" stroke-width="2" stroke-miterlimit="10"></path> <path d="M75 66.5801L84 89.0801" stroke="#131313" stroke-width="2"></path> <path d="M171.993 88.4434H45.6523V94.7755H171.993V88.4434Z" fill="#131313" stroke="#131313" stroke-width="2" stroke-miterlimit="10"></path> <path d="M45.6523 95.748H164.368C166.392 95.748 168.333 96.5608 169.764 98.0075C171.195 99.4541 171.999 101.416 171.999 103.462V104.266C171.999 106.312 171.195 108.274 169.764 109.721C168.333 111.168 166.392 111.98 164.368 111.98H45.6523V95.748Z" stroke="#131313" stroke-width="2" stroke-miterlimit="10"></path> <path d="M171.994 128.205L53.2782 128.205C51.2544 128.205 49.3135 127.392 47.8825 125.946C46.4514 124.499 45.6475 122.537 45.6475 120.491V119.687C45.6475 117.641 46.4514 115.679 47.8825 114.232C49.3135 112.785 51.2544 111.973 53.2782 111.973L171.994 111.973V128.199V128.205Z" stroke="#131313" stroke-width="2" stroke-miterlimit="10"></path> <path d="M170.803 138.285L50.6443 138.293C49.9889 138.293 49.3398 138.163 48.7343 137.909C48.1288 137.655 47.5786 137.284 47.1151 136.815C46.6517 136.347 46.284 135.791 46.0332 135.178C45.7824 134.566 45.6533 133.91 45.6533 133.248C45.6533 131.91 46.1791 130.626 47.1151 129.68C48.0511 128.734 49.3206 128.202 50.6443 128.202H171.994V138.285H170.803Z" stroke="#131313" stroke-width="2" stroke-miterlimit="10"></path> <path d="M12 12H17.8512L50.036 95.4018H44.4087L12 12Z" fill="#131313" stroke="#131313" stroke-width="2" stroke-miterlimit="10"></path> <path d="M56.6348 138.302V128.205" stroke="#131313" stroke-width="2" stroke-miterlimit="10"></path> <path d="M45.6523 100.816H148.476" stroke="#131313" stroke-width="2" stroke-miterlimit="10"></path> <path d="M45.6523 105.879H127.988" stroke="#131313" stroke-width="2" stroke-miterlimit="10"></path> <path d="M88.8027 133.252H171.144" stroke="#131313" stroke-width="2" stroke-miterlimit="10"></path> <path d="M57.668 111.98V128.207" stroke="#131313" stroke-width="5" stroke-miterlimit="10"></path> <path d="M69.1445 111.98V128.207" stroke="#131313" stroke-width="5" stroke-miterlimit="10"></path> <path d="M80.6309 111.98V128.207" stroke="#131313" stroke-width="5" stroke-miterlimit="10"></path> <path d="M92.1152 111.98V128.207" stroke="#131313" stroke-width="5" stroke-miterlimit="10"></path> <path d="M103.594 111.98V128.207" stroke="#131313" stroke-width="5" stroke-miterlimit="10"></path> <path d="M115.076 111.98V128.207" stroke="#131313" stroke-width="5" stroke-miterlimit="10"></path> <path d="M126.561 111.98V128.207" stroke="#131313" stroke-width="5" stroke-miterlimit="10"></path> <path d="M138.041 111.98V128.207" stroke="#131313" stroke-width="5" stroke-miterlimit="10"></path> <path d="M149.525 111.98V128.207" stroke="#131313" stroke-width="5" stroke-miterlimit="10"></path> <path d="M161.004 111.98V128.207" stroke="#131313" stroke-width="5" stroke-miterlimit="10"></path> <path d="M57.6667 18.4805H20.3496" stroke="#131313" stroke-width="2" stroke-miterlimit="10"></path> <path d="M24.8644 14.2578H22.9199V16.2226H24.8644V14.2578Z" fill="#131313"></path> <path d="M28.5422 14.2578H26.5977V16.2226H28.5422V14.2578Z" fill="#131313"></path> <path d="M31.9933 14.2578H30.0488V16.2226H31.9933V14.2578Z" fill="#131313"></path> <path d="M52.8359 54.9778C58.5008 70.156 62.837 81.0937 64.783 79.9542C66.729 78.8148 62.0844 67.9658 62.0844 67.9658C60.3558 68.0059 58.8475 66.0185 54.8366 54.4828C51.5813 45.1204 50.6147 40.9303 51.4422 39.3943C51.4422 39.3943 47.738 29.3679 46.4307 30.7479C45.1237 32.1277 47.1711 39.7996 52.8359 54.9778Z" fill="#131313" stroke="#131313" stroke-width="2.5" stroke-miterlimit="10"></path> <rect x="71" y="37.5801" width="2" height="2" fill="#131313"></rect> <rect x="69" y="37.5801" width="2" height="2" fill="#131313"></rect> <rect x="67" y="37.5801" width="2" height="2" fill="#131313"></rect> <rect x="65" y="37.5801" width="2" height="2" fill="#131313"></rect> <rect x="77" y="65.5801" width="2" height="2" fill="#131313"></rect> <rect x="63" y="37.5801" width="2" height="2" fill="#131313"></rect> <rect x="61" y="37.5801" width="2" height="2" fill="#131313"></rect> <rect x="59" y="37.5801" width="2" height="2" fill="#131313"></rect> <rect x="57" y="37.5801" width="2" height="2" fill="#131313"></rect> <rect x="55" y="37.5801" width="2" height="2" fill="#131313"></rect> <rect x="53" y="37.5801" width="2" height="2" fill="#131313"></rect> <rect x="51" y="37.5801" width="2" height="2" fill="#131313"></rect> <rect x="73" y="37.5801" width="2" height="2" fill="#131313"></rect> <rect x="73" y="39.5801" width="2" height="2" fill="#131313"></rect> <rect x="73" y="41.5801" width="2" height="2" fill="#131313"></rect> <rect x="73" y="43.5801" width="2" height="2" fill="#131313"></rect> <rect x="73" y="45.5801" width="2" height="2" fill="#131313"></rect> <rect x="73" y="47.5801" width="2" height="2" fill="#131313"></rect> <rect x="73" y="49.5801" width="2" height="2" fill="#131313"></rect> <rect x="73" y="51.5801" width="2" height="2" fill="#131313"></rect> <rect x="73" y="53.5801" width="2" height="2" fill="#131313"></rect> <rect x="73" y="55.5801" width="2" height="2" fill="#131313"></rect> <rect x="73" y="57.5801" width="2" height="2" fill="#131313"></rect> <rect x="73" y="59.5801" width="2" height="2" fill="#131313"></rect> <rect x="73" y="61.5801" width="2" height="2" fill="#131313"></rect> <rect x="73" y="63.5801" width="2" height="2" fill="#131313"></rect> <rect x="75" y="35.5801" width="2" height="2" fill="#131313"></rect> <rect x="77" y="35.5801" width="2" height="2" fill="#131313"></rect> <rect x="79" y="33.5801" width="2" height="2" fill="#131313"></rect> <rect x="81" y="33.5801" width="2" height="2" fill="#131313"></rect> <rect x="83" y="31.5801" width="2" height="2" fill="#131313"></rect> <rect x="83" y="29.5801" width="2" height="2" fill="#131313"></rect> <rect x="85" y="27.5801" width="2" height="2" fill="#131313"></rect> <rect x="85" y="25.5801" width="2" height="2" fill="#131313"></rect> <rect x="85" y="23.5801" width="2" height="2" fill="#131313"></rect> <rect x="85" y="21.5801" width="2" height="2" fill="#131313"></rect> <rect x="85" y="19.5801" width="2" height="2" fill="#131313"></rect> <rect x="85" y="17.5801" width="2" height="2" fill="#131313"></rect> <rect x="87" y="13.5801" width="2" height="2" fill="#131313"></rect> <rect x="85" y="15.5801" width="2" height="2" fill="#131313"></rect> <rect x="89" y="13.5801" width="2" height="2" fill="#131313"></rect> <rect x="91" y="13.5801" width="2" height="2" fill="#131313"></rect> <rect x="93" y="15.5801" width="2" height="2" fill="#131313"></rect> <rect x="95" y="19.5801" width="2" height="2" fill="#131313"></rect> <rect x="95" y="17.5801" width="2" height="2" fill="#131313"></rect> <rect x="95" y="21.5801" width="2" height="2" fill="#131313"></rect> <rect x="95" y="23.5801" width="2" height="2" fill="#131313"></rect> <rect x="95" y="25.5801" width="2" height="2" fill="#131313"></rect> <rect x="95" y="27.5801" width="2" height="2" fill="#131313"></rect> <rect x="95" y="29.5801" width="2" height="2" fill="#131313"></rect> <rect x="95" y="31.5801" width="2" height="2" fill="#131313"></rect> <rect x="97" y="33.5801" width="2" height="2" fill="#131313"></rect> <rect x="95" y="33.5801" width="2" height="2" fill="#131313"></rect> <rect x="93" y="33.5801" width="2" height="2" fill="#131313"></rect> <rect x="99" y="33.5801" width="2" height="2" fill="#131313"></rect> <rect x="101" y="33.5801" width="2" height="2" fill="#131313"></rect> <rect x="103" y="33.5801" width="2" height="2" fill="#131313"></rect> <rect x="105" y="33.5801" width="2" height="2" fill="#131313"></rect> <rect x="107" y="33.5801" width="2" height="2" fill="#131313"></rect> <rect x="109" y="33.5801" width="2" height="2" fill="#131313"></rect> <rect x="111" y="35.5801" width="2" height="2" fill="#131313"></rect> <rect x="113" y="37.5801" width="2" height="2" fill="#131313"></rect> <rect x="113" y="41.5801" width="2" height="2" fill="#131313"></rect> <rect x="113" y="43.5801" width="2" height="2" fill="#131313"></rect> <rect x="111" y="41.5801" width="2" height="2" fill="#131313"></rect> <rect x="111" y="48.5801" width="2" height="2" fill="#131313"></rect> <rect x="111" y="56.0801" width="2" height="2" fill="#131313"></rect> <rect x="109" y="41.5801" width="2" height="2" fill="#131313"></rect> <rect x="109" y="48.5801" width="2" height="2" fill="#131313"></rect> <rect x="109" y="56.0801" width="2" height="2" fill="#131313"></rect> <rect x="113" y="45.5801" width="2" height="2" fill="#131313"></rect> <rect x="113" y="47.5801" width="2" height="2" fill="#131313"></rect> <rect x="113" y="49.5801" width="2" height="2" fill="#131313"></rect> <rect x="113" y="51.5801" width="2" height="2" fill="#131313"></rect> <rect x="113" y="53.5801" width="2" height="2" fill="#131313"></rect> <rect x="113" y="55.5801" width="2" height="2" fill="#131313"></rect> <rect x="113" y="57.5801" width="2" height="2" fill="#131313"></rect> <rect x="113" y="59.5801" width="2" height="2" fill="#131313"></rect> <rect x="111" y="61.5801" width="2" height="2" fill="#131313"></rect> <rect x="109" y="63.5801" width="2" height="2" fill="#131313"></rect> <rect x="107" y="65.5801" width="2" height="2" fill="#131313"></rect> <rect x="105" y="65.5801" width="2" height="2" fill="#131313"></rect> <rect x="103" y="65.5801" width="2" height="2" fill="#131313"></rect> <rect x="101" y="65.5801" width="2" height="2" fill="#131313"></rect> <rect x="99" y="65.5801" width="2" height="2" fill="#131313"></rect> <rect x="97" y="65.5801" width="2" height="2" fill="#131313"></rect> <rect x="95" y="65.5801" width="2" height="2" fill="#131313"></rect> <rect x="93" y="65.5801" width="2" height="2" fill="#131313"></rect> <rect x="91" y="65.5801" width="2" height="2" fill="#131313"></rect> <rect x="89" y="65.5801" width="2" height="2" fill="#131313"></rect> <rect x="87" y="65.5801" width="2" height="2" fill="#131313"></rect> <rect x="85" y="65.5801" width="2" height="2" fill="#131313"></rect> <rect x="83" y="65.5801" width="2" height="2" fill="#131313"></rect> <rect x="81" y="65.5801" width="2" height="2" fill="#131313"></rect> <rect x="79" y="65.5801" width="2" height="2" fill="#131313"></rect> <rect x="77" y="65.5801" width="2" height="2" fill="#131313"></rect> <rect x="75" y="65.5801" width="2" height="2" fill="#131313"></rect> <rect x="73" y="65.5801" width="2" height="2" fill="#131313"></rect> <rect x="71" y="65.5801" width="2" height="2" fill="#131313"></rect> <rect x="69" y="65.5801" width="2" height="2" fill="#131313"></rect> <rect x="67" y="65.5801" width="2" height="2" fill="#131313"></rect> <rect x="65" y="65.5801" width="2" height="2" fill="#131313"></rect> <rect x="63" y="65.5801" width="2" height="2" fill="#131313"></rect> <rect x="61" y="65.5801" width="2" height="2" fill="#131313"></rect> <rect x="113" y="39.5801" width="2" height="2" fill="#131313"></rect> </svg> 