<?xml version="1.0" encoding="UTF-8"?> <svg xmlns="http://www.w3.org/2000/svg" width="63" height="63" viewBox="0 0 63 63" fill="none"> <path fill-rule="evenodd" clip-rule="evenodd" d="M39.375 23.625H42V26.25H39.375V23.625ZM36.75 28.875V26.25H39.375V28.875H36.75ZM34.125 31.5V28.875H36.75V31.5H34.125ZM31.5 34.125V31.5H34.125V34.125H31.5ZM28.875 36.75V34.125H31.5V36.75H28.875ZM26.25 36.75V39.375H28.875V36.75H26.25ZM23.625 34.125V36.75H26.25V34.125H23.625ZM23.625 34.125H21V31.5H23.625V34.125Z" fill="#131313"></path> <path fill-rule="evenodd" clip-rule="evenodd" d="M23.625 10.5H39.375H42V13.125H39.375H23.625V10.5ZM18.375 15.75V13.125H21H23.625V15.75H21H18.375ZM15.75 18.375V15.75H18.375V18.375H15.75ZM13.125 23.625L13.125 18.375H15.75V23.625H13.125ZM13.125 39.375H10.5L10.5 23.625H13.125L13.125 39.375ZM15.75 44.625H13.125V42V39.375H15.75V42V44.625ZM18.375 47.25H15.75V44.625H18.375V47.25ZM23.625 49.875H21H18.375V47.25H21H23.625V49.875ZM42 49.875V52.5H39.375H23.625V49.875H39.375H42ZM49.875 39.375H47.25V42V44.625H44.625V47.25H42V49.875H44.625H47.25V47.25H49.875V44.625H52.5V42V39.375H55.125V23.625H52.5V21V18.375H49.875V15.75H47.25V13.125H44.625H42V15.75H44.625V18.375H47.25V21V23.625H49.875V39.375Z" fill="#131313"></path> </svg> 