<?xml version="1.0" encoding="UTF-8"?> <svg xmlns="http://www.w3.org/2000/svg" width="92" height="19" viewBox="0 0 92 19" fill="none"> <path fill-rule="evenodd" clip-rule="evenodd" d="M1.97862e-07 3.33673C1.97862e-07 2.98221 0.140834 2.64221 0.391519 2.39152C0.642204 2.14084 0.982205 2 1.33673 2H14.6618C14.8375 1.99971 15.0115 2.03408 15.1739 2.10114C15.3363 2.1682 15.4839 2.26663 15.6082 2.39079C15.7325 2.51496 15.8311 2.66242 15.8983 2.82474C15.9655 2.98705 16.0001 3.16104 16 3.33673V16.6618C16.0002 16.8375 15.9657 17.0116 15.8986 17.174C15.8315 17.3364 15.733 17.4839 15.6087 17.6082C15.4845 17.7325 15.337 17.8311 15.1746 17.8983C15.0123 17.9655 14.8383 18.0001 14.6625 18H1.33673C1.16112 18 0.987243 17.9654 0.825016 17.8982C0.662789 17.831 0.515397 17.7324 0.391261 17.6082C0.267125 17.484 0.168678 17.3366 0.101544 17.1743C0.0344096 17.012 -9.53423e-05 16.8381 1.97862e-07 16.6625V3.33673ZM6.33309 8.10037H8.49964V9.18837C8.81236 8.56291 9.61236 8 10.8145 8C13.1193 8 13.6655 9.24582 13.6655 11.5316V15.7658H11.3331V12.0524C11.3331 10.7505 11.0204 10.016 10.2262 10.016C9.12436 10.016 8.66618 10.808 8.66618 12.0524V15.7658H6.33309V8.10037ZM2.33309 15.6662H4.66618V8H2.33309V15.6655V15.6662ZM5 5.49964C5.0044 5.6994 4.96885 5.89803 4.89545 6.08387C4.82204 6.2697 4.71226 6.43901 4.57253 6.58184C4.43281 6.72468 4.26596 6.83816 4.08179 6.91564C3.89761 6.99312 3.69981 7.03303 3.5 7.03303C3.30019 7.03303 3.10239 6.99312 2.91821 6.91564C2.73404 6.83816 2.56719 6.72468 2.42747 6.58184C2.28774 6.43901 2.17796 6.2697 2.10455 6.08387C2.03115 5.89803 1.9956 5.6994 2 5.49964C2.00863 5.10753 2.17046 4.7344 2.45083 4.46014C2.73119 4.18588 3.1078 4.03231 3.5 4.03231C3.8922 4.03231 4.26881 4.18588 4.54917 4.46014C4.82954 4.7344 4.99137 5.10753 5 5.49964V5.49964Z" fill="white"></path> <path d="M26.2181 13.288H32.0581V15H24.1861V3.4H26.2181V13.288ZM35.201 3.4V5.32H33.297V3.4H35.201ZM35.201 6.392V15H33.297V6.392H35.201ZM39.4079 7.592C39.9039 6.696 40.8159 6.2 42.0159 6.2C44.0959 6.2 44.9439 7.544 44.9439 9.592V15H43.0399V10.056C43.0399 8.888 42.8639 7.752 41.4079 7.752C39.9519 7.752 39.4079 8.872 39.4079 10.424V15H37.5039V6.392H39.4079V7.592ZM48.9897 3.4V9.848L52.1737 6.392H54.4617L51.1657 9.928L54.8297 15H52.6057L49.9017 11.272L48.9897 12.248V15H47.0857V3.4H48.9897ZM56.9339 11.24C57.0619 12.84 58.1819 13.624 59.2699 13.624C60.2619 13.624 61.0459 13.224 61.3819 12.424H63.2539C62.8539 13.8 61.5739 15.208 59.3499 15.208C56.5819 15.208 54.9979 13.096 54.9979 10.632C54.9979 8.04 56.7739 6.2 59.2219 6.2C61.8619 6.2 63.5099 8.344 63.3499 11.24H56.9339ZM56.9339 9.848H61.4139C61.3659 8.504 60.3419 7.688 59.2219 7.688C58.3259 7.688 57.0939 8.216 56.9339 9.848ZM70.8834 3.4H72.7874V15H70.8834V13.864C70.3714 14.712 69.4754 15.208 68.3234 15.208C66.2914 15.208 64.5794 13.464 64.5794 10.696C64.5794 7.944 66.2914 6.2 68.3234 6.2C69.4754 6.2 70.3714 6.696 70.8834 7.544V3.4ZM68.7394 7.752C67.4754 7.752 66.5634 8.888 66.5634 10.696C66.5634 12.52 67.4754 13.656 68.7394 13.656C69.9874 13.656 70.9634 12.68 70.9634 10.696C70.9634 8.712 69.9874 7.752 68.7394 7.752ZM77.225 15H75.193V3.4H77.225V15ZM81.536 7.592C82.032 6.696 82.944 6.2 84.144 6.2C86.224 6.2 87.072 7.544 87.072 9.592V15H85.168V10.056C85.168 8.888 84.992 7.752 83.536 7.752C82.08 7.752 81.536 8.872 81.536 10.424V15H79.632V6.392H81.536V7.592Z" fill="white"></path> </svg> 