<?xml version="1.0" encoding="UTF-8"?> <svg xmlns="http://www.w3.org/2000/svg" width="100" height="100" viewBox="0 0 100 100" fill="none"> <path fill-rule="evenodd" clip-rule="evenodd" d="M71 14H68V17H65V20H62V23H59H56H53H50H47H44H41H38H35H32H29H26V26H23H20V29H23V32H26H29V35H35V38H41V41H44H47V44H50H54.5V47H59V50H62H65V53H68H71V56V59H74V62V65V68V71V74V77H71V80H68V83H65V86H68H71H74H77H80H83H86V83V80V77H89V74V71V68V65V62V59V56V53V50V47V44V41V38V35V32V29V26V23V20V17H86H84.5V14H71ZM68 27.5V29H71V32H74V29V27.5H68Z" fill="white"></path> <path fill-rule="evenodd" clip-rule="evenodd" d="M20 29H23V32H29V35H35V38H41V41H47V44H54.5V47H59V50H65V53H71V50V47H74H77H80V50H83V53V56V59H80V62H77H74H71V77H68V80H65V83H17V80H14V35H17V32H20V29Z" fill="#EFAF87"></path> <path fill-rule="evenodd" clip-rule="evenodd" d="M65 23H62H59V26H62V29H65H68V32H71H74H77V29H74V26H71H68V23H65ZM17 29H20V32H17V29ZM14 35V32H17V35H14ZM14 80H11V77V74V71V68V65V62V59V56V53V50V47V44V41V38V35H14V38V41V44V47V50V53V56V59V62V65V68V71V74V77V80ZM17 83H14V80H17V83ZM65 83V86H62H59H56H53H50H47H44H41H38H35H32H29H26H23H20H17V83H20H23H26H29H32H35H38H41H44H47H50H53H56H59H62H65ZM68 80V83H65V80H68ZM71 77V80H68V77H71ZM71 77V74V71V68V65V62H74V65V68V71V74V77H71ZM20 50H23V53H20V50ZM47 50H44V53H47V50ZM30.5 50H33.5V53H30.5V50ZM27.5 56V53H30.5V56H27.5ZM24.5 59V56H27.5V59H24.5ZM21.5 62V59H24.5V62H21.5ZM21.5 65H18.5V62H21.5V65ZM27.5 65H24.5H21.5V68H24.5H27.5H30.5V65H27.5ZM42.5 69.5H45.5H48.5V72.5H45.5H42.5V69.5Z" fill="#131313"></path> </svg> 