<?xml version="1.0" encoding="UTF-8"?> <svg xmlns="http://www.w3.org/2000/svg" width="49" height="48" viewBox="0 0 49 48" fill="none"> <path fill-rule="evenodd" clip-rule="evenodd" d="M21.5 0H23.5V2V4H21.5V2V0ZM23.5 8H25.5V6V4H23.5V6V8ZM23.5 8H21.5V10H23.5V8Z" fill="#131313"></path> <path fill-rule="evenodd" clip-rule="evenodd" d="M9.5 12H11.5V14V16V18V20V22V24V26V28V30V32V34V36V38H9.5V36V34V32V30V28V26V24V22V20V18V16V14V12ZM33.5 38V40H31.5H29.5H27.5H25.5H23.5H21.5H19.5H17.5H15.5H13.5H11.5V38H13.5H15.5H17.5H19.5H21.5H23.5H25.5H27.5H29.5H31.5H33.5ZM39.5 21V19H37.5H35.5V18V16V14V12H33.5V14V16V18V20V22V24V26V28V30V32V34V36V38H35.5V36V34V33H37.5H39.5V31H41.5V29H43.5V27V25V23H41.5V21H39.5ZM39.5 21H37.5H35.5V22V24V26V28V30V31H37.5H39.5V29H41.5V27V25V23H39.5V21ZM13.5 12H15.5H17.5H19.5H21.5H23.5H25.5H27.5H29.5H31.5V14H29.5V16H27.5H25.5V18H23.5H21.5H19.5V16H17.5H15.5V14H13.5V12Z" fill="#131313"></path> </svg> 