<?xml version="1.0" encoding="UTF-8"?> <svg xmlns="http://www.w3.org/2000/svg" width="20" height="16" viewBox="0 0 20 16" fill="none"> <rect width="4" height="4" transform="matrix(-1 0 0 1 8 0)" fill="#131313"></rect> <rect width="4" height="4" transform="matrix(-1 0 0 1 8 4)" fill="#131313"></rect> <rect width="4" height="4" transform="matrix(-1 0 0 1 4 0)" fill="#131313"></rect> <rect width="4" height="4" transform="matrix(-1 0 0 1 4 4)" fill="#131313"></rect> <rect width="4" height="4" transform="matrix(-1 0 0 1 4 8)" fill="#131313"></rect> <rect width="4" height="4" transform="matrix(-1 0 0 1 8 12)" fill="#131313"></rect> <rect width="4" height="4" transform="matrix(-1 0 0 1 20 0)" fill="#131313"></rect> <rect width="4" height="4" transform="matrix(-1 0 0 1 20 4)" fill="#131313"></rect> <rect width="4" height="4" transform="matrix(-1 0 0 1 16 0)" fill="#131313"></rect> <rect width="4" height="4" transform="matrix(-1 0 0 1 16 4)" fill="#131313"></rect> <rect width="4" height="4" transform="matrix(-1 0 0 1 16 8)" fill="#131313"></rect> <rect width="4" height="4" transform="matrix(-1 0 0 1 20 12)" fill="#131313"></rect> </svg> 