<?xml version="1.0" encoding="UTF-8"?> <svg xmlns="http://www.w3.org/2000/svg" width="420" height="300" viewBox="0 0 420 300" fill="none"> <path d="M23.1277 55.0429C23.1277 55.0429 26.8395 54.9464 31.605 55.0429C37.3214 55.1395 42.9797 56.2063 48.3374 58.1977L47.6799 57.6188H59.7047C66.0968 57.621 72.4213 58.9242 78.2916 61.4489C84.1618 63.9736 89.4543 67.6667 93.8459 72.3024L93.7883 72.1867H96.8137C116.001 72.1867 133.091 81.9115 141.143 97.4248L162.003 131.76H293.223C332.623 131.76 348.92 157.433 364.56 191.354C382.268 229.751 428 348.117 428 348.117H259.507L234.375 265.409L114.513 225.439C104.409 221.972 95.1236 216.476 87.23 209.29C79.3365 202.103 73.002 193.379 68.6172 183.655L12.5528 71.299C11.7738 69.5394 11.446 67.6138 11.5999 65.6961C11.7537 63.7784 12.3839 61.9292 13.4335 60.3156C14.4832 58.7021 15.9195 57.375 17.612 56.4544C19.3045 55.5339 21.2001 55.0487 23.1277 55.0429V55.0429Z" fill="#EFAF87"></path> <path d="M132.705 131.771L101.377 82.867C97.4065 75.2596 91.4225 68.8843 84.0754 64.4345C76.7282 59.9847 68.2993 57.6309 59.7053 57.6289H47.6805" stroke="#131313" stroke-width="3" stroke-miterlimit="10"></path> <path d="M242.195 188.102L160.689 187.003C150.415 186.806 140.424 183.607 131.953 177.803C123.481 171.999 116.9 163.844 113.024 154.346L112.676 153.477C106.78 139.353 116.088 131.76 127.311 131.76H293.223C332.623 131.76 348.92 157.433 364.56 191.354C382.268 229.751 428 348.117 428 348.117H259.507L234.375 265.409L114.513 225.439C104.409 221.972 95.1236 216.476 87.23 209.29C79.3365 202.103 73.002 193.379 68.6172 183.655L12.5528 71.299C11.775 69.5423 11.4474 67.6202 11.5994 65.7056C11.7513 63.7911 12.378 61.9443 13.4231 60.3317C14.4683 58.7192 15.8992 57.3914 17.5865 56.4681C19.2739 55.5449 21.1647 55.0551 23.089 55.0429C23.089 55.0429 26.8008 54.9464 31.5663 55.0429C49.6906 55.4095 65.1471 64.7677 73.2474 80.281L110.946 142.633" stroke="#131313" stroke-width="3" stroke-miterlimit="10"></path> <path d="M93.7891 72.1875L132.705 131.761H162.004L141.144 97.4256C133.092 81.9123 116.012 72.1875 96.8145 72.1875H93.7891" fill="#131313"></path> <path d="M93.7891 72.1875L132.705 131.761H162.004L141.144 97.4256C133.092 81.9123 116.012 72.1875 96.8145 72.1875H93.7891" stroke="#131313" stroke-width="3" stroke-miterlimit="10"></path> <rect width="6" height="6" transform="matrix(-1 0 0 1 207 36)" fill="#131313"></rect> <rect x="213" y="36" width="6" height="6" fill="#131313"></rect> <rect width="6" height="6" transform="matrix(-1 0 0 1 201 30)" fill="#131313"></rect> <rect x="219" y="30" width="6" height="6" fill="#131313"></rect> <rect width="6" height="6" transform="matrix(-1 0 0 1 177 36)" fill="#131313"></rect> <rect x="243" y="36" width="6" height="6" fill="#131313"></rect> <rect x="237" y="36" width="6" height="6" fill="#131313"></rect> <rect x="231" y="36" width="6" height="6" fill="#131313"></rect> <rect x="237" y="42" width="6" height="6" fill="#131313"></rect> <rect x="183" y="42" width="6" height="6" fill="#131313"></rect> <rect x="177" y="48" width="6" height="6" fill="#131313"></rect> <rect x="207" y="108" width="6" height="6" fill="#131313"></rect> <rect width="6" height="6" transform="matrix(-1 0 0 1 213 42)" fill="#131313"></rect> <rect x="207" y="42" width="6" height="6" fill="#131313"></rect> <rect x="177" y="30" width="18" height="6" fill="#131313"></rect> <rect width="18" height="6" transform="matrix(-1 0 0 1 243 30)" fill="#131313"></rect> <rect x="171" y="72" width="6" height="6" fill="#131313"></rect> <rect width="6" height="6" transform="matrix(-1 0 0 1 249 72)" fill="#131313"></rect> <rect width="6" height="6" transform="matrix(-1 0 0 1 249 66)" fill="#131313"></rect> <rect width="6" height="24" transform="matrix(-1 0 0 1 249 42)" fill="#131313"></rect> <rect x="177" y="78" width="6" height="6" fill="#131313"></rect> <rect width="6" height="6" transform="matrix(-1 0 0 1 243 78)" fill="#131313"></rect> <rect width="6" height="6" transform="matrix(-1 0 0 1 243 72)" fill="#131313"></rect> <rect x="165" y="66" width="6" height="6" fill="#131313"></rect> <rect width="6" height="6" transform="matrix(-1 0 0 1 255 66)" fill="#131313"></rect> <rect x="183" y="84" width="6" height="6" fill="#131313"></rect> <rect width="6" height="6" transform="matrix(-1 0 0 1 237 84)" fill="#131313"></rect> <rect width="6" height="6" transform="matrix(-1 0 0 1 237 78)" fill="#131313"></rect> <rect x="189" y="90" width="6" height="6" fill="#131313"></rect> <rect width="6" height="6" transform="matrix(-1 0 0 1 231 90)" fill="#131313"></rect> <rect width="6" height="6" transform="matrix(-1 0 0 1 231 84)" fill="#131313"></rect> <rect x="195" y="96" width="6" height="6" fill="#131313"></rect> <rect width="6" height="6" transform="matrix(-1 0 0 1 225 96)" fill="#131313"></rect> <rect width="6" height="6" transform="matrix(-1 0 0 1 225 90)" fill="#131313"></rect> <rect x="201" y="102" width="6" height="6" fill="#131313"></rect> <rect width="6" height="6" transform="matrix(-1 0 0 1 219 102)" fill="#131313"></rect> <rect width="6" height="6" transform="matrix(-1 0 0 1 219 96)" fill="#131313"></rect> <rect width="6" height="6" transform="matrix(-1 0 0 1 213 108)" fill="#131313"></rect> <rect x="207" y="108" width="6" height="6" fill="#131313"></rect> <rect x="207" y="102" width="6" height="6" fill="#131313"></rect> <rect x="165" y="42" width="6" height="24" fill="#131313"></rect> <rect width="6" height="24" transform="matrix(-1 0 0 1 255 42)" fill="#131313"></rect> </svg> 