<?xml version="1.0" encoding="UTF-8"?> <svg xmlns="http://www.w3.org/2000/svg" width="48" height="48" viewBox="0 0 48 48" fill="none"> <path fill-rule="evenodd" clip-rule="evenodd" d="M21 10L23 10H25L27 10V12H29V14V16V18H27V20H25H23H21V18H19V16V14V12H21V10ZM21 10H19V12H17V14V16V18H19V20H21V22V24V26V28V30H19H17H15H13H11L11 32H9V34V36H11V38V40H13H15H17H19H21H23H25H27H29H31H33H35H37V38V36H39V34V32H37V30H35H33H31H29H27V28V26V24V22V20H29V18H31V16V14V12H29V10L27 10V8H25H23H21V10ZM37 32V34V36H35H33H31H29H27H25H23H21H19H17H15H13H11V34V32H13H15H17H19H21H23H25H27H29H31H33H35H37ZM24 11V13H22V11H24ZM22 13H20V15H22V13Z" fill="#131313"></path> </svg> 