<?xml version="1.0" encoding="UTF-8"?> <svg xmlns="http://www.w3.org/2000/svg" width="360" height="72" viewBox="0 0 360 72" fill="none"> <path d="M26 29H14.5L13 31L21 39V45V51H18V57H24L33 48H39L48 57.5L52.5 59L56.5 54.5L48 42L58 29L44.5 27.5L39 17.5L34.5 13L31.5 17.5L28 25L26 29Z" fill="#FFC85F"></path> <rect x="33" y="12" width="3" height="3" fill="#131313"></rect> <rect x="30" y="15" width="3" height="3" fill="#131313"></rect> <rect width="3" height="3" transform="matrix(-1 0 0 1 42 15)" fill="#131313"></rect> <rect width="3" height="3" transform="matrix(-1 0 0 1 39 15)" fill="#131313"></rect> <rect width="3" height="3" transform="matrix(-1 0 0 1 39 18)" fill="#131313"></rect> <rect width="3" height="3" transform="matrix(-1 0 0 1 39 12)" fill="#131313"></rect> <rect x="27" y="21" width="3" height="3" fill="#131313"></rect> <rect width="3" height="3" transform="matrix(-1 0 0 1 45 21)" fill="#131313"></rect> <rect width="3" height="3" transform="matrix(-1 0 0 1 42 21)" fill="#131313"></rect> <rect x="30" y="18" width="3" height="3" fill="#131313"></rect> <rect width="3" height="3" transform="matrix(-1 0 0 1 42 18)" fill="#131313"></rect> <rect x="27" y="24" width="3" height="3" fill="#131313"></rect> <rect x="30" y="30" width="3" height="3" fill="#131313"></rect> <rect x="27" y="33" width="3" height="3" fill="#131313"></rect> <rect width="3" height="3" transform="matrix(-1 0 0 1 45 24)" fill="#131313"></rect> <rect width="3" height="3" transform="matrix(-1 0 0 1 45 27)" fill="#131313"></rect> <rect width="3" height="3" transform="matrix(-1 0 0 1 42 24)" fill="#131313"></rect> <rect x="24" y="27" width="3" height="3" fill="#131313"></rect> <rect width="3" height="3" transform="matrix(-1 0 0 1 48 27)" fill="#131313"></rect> <rect x="21" y="27" width="3" height="3" fill="#131313"></rect> <rect width="3" height="3" transform="matrix(-1 0 0 1 51 27)" fill="#131313"></rect> <rect x="18" y="27" width="3" height="3" fill="#131313"></rect> <rect width="3" height="3" transform="matrix(-1 0 0 1 54 27)" fill="#131313"></rect> <rect x="15" y="27" width="3" height="3" fill="#131313"></rect> <rect width="3" height="3" transform="matrix(-1 0 0 1 57 27)" fill="#131313"></rect> <rect x="12" y="27" width="3" height="3" fill="#131313"></rect> <rect width="3" height="3" transform="matrix(-1 0 0 1 60 27)" fill="#131313"></rect> <rect x="12" y="30" width="3" height="3" fill="#131313"></rect> <rect width="3" height="3" transform="matrix(-1 0 0 1 60 30)" fill="#131313"></rect> <rect width="3" height="3" transform="matrix(-1 0 0 1 57 30)" fill="#131313"></rect> <rect x="15" y="33" width="3" height="3" fill="#131313"></rect> <rect width="3" height="3" transform="matrix(-1 0 0 1 57 33)" fill="#131313"></rect> <rect width="3" height="3" transform="matrix(-1 0 0 1 54 33)" fill="#131313"></rect> <rect x="18" y="36" width="3" height="3" fill="#131313"></rect> <rect width="3" height="3" transform="matrix(-1 0 0 1 54 36)" fill="#131313"></rect> <rect width="3" height="3" transform="matrix(-1 0 0 1 51 36)" fill="#131313"></rect> <rect x="21" y="39" width="3" height="3" fill="#131313"></rect> <rect width="3" height="3" transform="matrix(-1 0 0 1 51 39)" fill="#131313"></rect> <rect width="3" height="3" transform="matrix(-1 0 0 1 48 39)" fill="#131313"></rect> <rect x="18" y="45" width="3" height="3" fill="#131313"></rect> <rect width="3" height="3" transform="matrix(-1 0 0 1 54 45)" fill="#131313"></rect> <rect width="3" height="3" transform="matrix(-1 0 0 1 51 45)" fill="#131313"></rect> <rect x="21" y="42" width="3" height="3" fill="#131313"></rect> <rect width="3" height="3" transform="matrix(-1 0 0 1 51 42)" fill="#131313"></rect> <rect width="3" height="3" transform="matrix(-1 0 0 1 48 42)" fill="#131313"></rect> <rect x="18" y="48" width="3" height="3" fill="#131313"></rect> <rect width="3" height="3" transform="matrix(-1 0 0 1 54 48)" fill="#131313"></rect> <rect x="15" y="51" width="3" height="3" fill="#131313"></rect> <rect width="3" height="3" transform="matrix(-1 0 0 1 57 51)" fill="#131313"></rect> <rect x="15" y="54" width="3" height="3" fill="#131313"></rect> <rect width="3" height="3" transform="matrix(-1 0 0 1 57 54)" fill="#131313"></rect> <rect x="18" y="57" width="3" height="3" fill="#131313"></rect> <rect width="3" height="3" transform="matrix(-1 0 0 1 54 57)" fill="#131313"></rect> <rect x="21" y="57" width="3" height="3" fill="#131313"></rect> <rect width="3" height="3" transform="matrix(-1 0 0 1 51 57)" fill="#131313"></rect> <rect x="24" y="54" width="3" height="3" fill="#131313"></rect> <rect width="3" height="3" transform="matrix(-1 0 0 1 48 54)" fill="#131313"></rect> <rect x="27" y="51" width="3" height="3" fill="#131313"></rect> <rect width="3" height="3" transform="matrix(-1 0 0 1 45 51)" fill="#131313"></rect> <rect x="33" y="45" width="3" height="3" fill="#131313"></rect> <rect x="30" y="48" width="3" height="3" fill="#131313"></rect> <rect width="3" height="3" transform="matrix(-1 0 0 1 42 48)" fill="#131313"></rect> <rect width="3" height="3" transform="matrix(-1 0 0 1 39 45)" fill="#131313"></rect> <path d="M98 29H86.5L85 31L93 39V45V51H90V57H96L105 48H111L120 57.5L124.5 59L128.5 54.5L120 42L130 29L116.5 27.5L111 17.5L106.5 13L103.5 17.5L100 25L98 29Z" fill="#FFC85F"></path> <rect x="105" y="12" width="3" height="3" fill="#131313"></rect> <rect x="102" y="15" width="3" height="3" fill="#131313"></rect> <rect width="3" height="3" transform="matrix(-1 0 0 1 114 15)" fill="#131313"></rect> <rect width="3" height="3" transform="matrix(-1 0 0 1 111 15)" fill="#131313"></rect> <rect width="3" height="3" transform="matrix(-1 0 0 1 111 18)" fill="#131313"></rect> <rect width="3" height="3" transform="matrix(-1 0 0 1 111 12)" fill="#131313"></rect> <rect x="99" y="21" width="3" height="3" fill="#131313"></rect> <rect width="3" height="3" transform="matrix(-1 0 0 1 117 21)" fill="#131313"></rect> <rect width="3" height="3" transform="matrix(-1 0 0 1 114 21)" fill="#131313"></rect> <rect x="102" y="18" width="3" height="3" fill="#131313"></rect> <rect width="3" height="3" transform="matrix(-1 0 0 1 114 18)" fill="#131313"></rect> <rect x="99" y="24" width="3" height="3" fill="#131313"></rect> <rect x="102" y="30" width="3" height="3" fill="#131313"></rect> <rect x="99" y="33" width="3" height="3" fill="#131313"></rect> <rect width="3" height="3" transform="matrix(-1 0 0 1 117 24)" fill="#131313"></rect> <rect width="3" height="3" transform="matrix(-1 0 0 1 117 27)" fill="#131313"></rect> <rect width="3" height="3" transform="matrix(-1 0 0 1 114 24)" fill="#131313"></rect> <rect x="96" y="27" width="3" height="3" fill="#131313"></rect> <rect width="3" height="3" transform="matrix(-1 0 0 1 120 27)" fill="#131313"></rect> <rect x="93" y="27" width="3" height="3" fill="#131313"></rect> <rect width="3" height="3" transform="matrix(-1 0 0 1 123 27)" fill="#131313"></rect> <rect x="90" y="27" width="3" height="3" fill="#131313"></rect> <rect width="3" height="3" transform="matrix(-1 0 0 1 126 27)" fill="#131313"></rect> <rect x="87" y="27" width="3" height="3" fill="#131313"></rect> <rect width="3" height="3" transform="matrix(-1 0 0 1 129 27)" fill="#131313"></rect> <rect x="84" y="27" width="3" height="3" fill="#131313"></rect> <rect width="3" height="3" transform="matrix(-1 0 0 1 132 27)" fill="#131313"></rect> <rect x="84" y="30" width="3" height="3" fill="#131313"></rect> <rect width="3" height="3" transform="matrix(-1 0 0 1 132 30)" fill="#131313"></rect> <rect width="3" height="3" transform="matrix(-1 0 0 1 129 30)" fill="#131313"></rect> <rect x="87" y="33" width="3" height="3" fill="#131313"></rect> <rect width="3" height="3" transform="matrix(-1 0 0 1 129 33)" fill="#131313"></rect> <rect width="3" height="3" transform="matrix(-1 0 0 1 126 33)" fill="#131313"></rect> <rect x="90" y="36" width="3" height="3" fill="#131313"></rect> <rect width="3" height="3" transform="matrix(-1 0 0 1 126 36)" fill="#131313"></rect> <rect width="3" height="3" transform="matrix(-1 0 0 1 123 36)" fill="#131313"></rect> <rect x="93" y="39" width="3" height="3" fill="#131313"></rect> <rect width="3" height="3" transform="matrix(-1 0 0 1 123 39)" fill="#131313"></rect> <rect width="3" height="3" transform="matrix(-1 0 0 1 120 39)" fill="#131313"></rect> <rect x="90" y="45" width="3" height="3" fill="#131313"></rect> <rect width="3" height="3" transform="matrix(-1 0 0 1 126 45)" fill="#131313"></rect> <rect width="3" height="3" transform="matrix(-1 0 0 1 123 45)" fill="#131313"></rect> <rect x="93" y="42" width="3" height="3" fill="#131313"></rect> <rect width="3" height="3" transform="matrix(-1 0 0 1 123 42)" fill="#131313"></rect> <rect width="3" height="3" transform="matrix(-1 0 0 1 120 42)" fill="#131313"></rect> <rect x="90" y="48" width="3" height="3" fill="#131313"></rect> <rect width="3" height="3" transform="matrix(-1 0 0 1 126 48)" fill="#131313"></rect> <rect x="87" y="51" width="3" height="3" fill="#131313"></rect> <rect width="3" height="3" transform="matrix(-1 0 0 1 129 51)" fill="#131313"></rect> <rect x="87" y="54" width="3" height="3" fill="#131313"></rect> <rect width="3" height="3" transform="matrix(-1 0 0 1 129 54)" fill="#131313"></rect> <rect x="90" y="57" width="3" height="3" fill="#131313"></rect> <rect width="3" height="3" transform="matrix(-1 0 0 1 126 57)" fill="#131313"></rect> <rect x="93" y="57" width="3" height="3" fill="#131313"></rect> <rect width="3" height="3" transform="matrix(-1 0 0 1 123 57)" fill="#131313"></rect> <rect x="96" y="54" width="3" height="3" fill="#131313"></rect> <rect width="3" height="3" transform="matrix(-1 0 0 1 120 54)" fill="#131313"></rect> <rect x="99" y="51" width="3" height="3" fill="#131313"></rect> <rect width="3" height="3" transform="matrix(-1 0 0 1 117 51)" fill="#131313"></rect> <rect x="105" y="45" width="3" height="3" fill="#131313"></rect> <rect x="102" y="48" width="3" height="3" fill="#131313"></rect> <rect width="3" height="3" transform="matrix(-1 0 0 1 114 48)" fill="#131313"></rect> <rect width="3" height="3" transform="matrix(-1 0 0 1 111 45)" fill="#131313"></rect> <path d="M170 29H158.5L157 31L165 39V45V51H162V57H168L177 48H183L192 57.5L196.5 59L200.5 54.5L192 42L202 29L188.5 27.5L183 17.5L178.5 13L175.5 17.5L172 25L170 29Z" fill="#FFC85F"></path> <rect x="177" y="12" width="3" height="3" fill="#131313"></rect> <rect x="174" y="15" width="3" height="3" fill="#131313"></rect> <rect width="3" height="3" transform="matrix(-1 0 0 1 186 15)" fill="#131313"></rect> <rect width="3" height="3" transform="matrix(-1 0 0 1 183 15)" fill="#131313"></rect> <rect width="3" height="3" transform="matrix(-1 0 0 1 183 18)" fill="#131313"></rect> <rect width="3" height="3" transform="matrix(-1 0 0 1 183 12)" fill="#131313"></rect> <rect x="171" y="21" width="3" height="3" fill="#131313"></rect> <rect width="3" height="3" transform="matrix(-1 0 0 1 189 21)" fill="#131313"></rect> <rect width="3" height="3" transform="matrix(-1 0 0 1 186 21)" fill="#131313"></rect> <rect x="174" y="18" width="3" height="3" fill="#131313"></rect> <rect width="3" height="3" transform="matrix(-1 0 0 1 186 18)" fill="#131313"></rect> <rect x="171" y="24" width="3" height="3" fill="#131313"></rect> <rect x="174" y="30" width="3" height="3" fill="#131313"></rect> <rect x="171" y="33" width="3" height="3" fill="#131313"></rect> <rect width="3" height="3" transform="matrix(-1 0 0 1 189 24)" fill="#131313"></rect> <rect width="3" height="3" transform="matrix(-1 0 0 1 189 27)" fill="#131313"></rect> <rect width="3" height="3" transform="matrix(-1 0 0 1 186 24)" fill="#131313"></rect> <rect x="168" y="27" width="3" height="3" fill="#131313"></rect> <rect width="3" height="3" transform="matrix(-1 0 0 1 192 27)" fill="#131313"></rect> <rect x="165" y="27" width="3" height="3" fill="#131313"></rect> <rect width="3" height="3" transform="matrix(-1 0 0 1 195 27)" fill="#131313"></rect> <rect x="162" y="27" width="3" height="3" fill="#131313"></rect> <rect width="3" height="3" transform="matrix(-1 0 0 1 198 27)" fill="#131313"></rect> <rect x="159" y="27" width="3" height="3" fill="#131313"></rect> <rect width="3" height="3" transform="matrix(-1 0 0 1 201 27)" fill="#131313"></rect> <rect x="156" y="27" width="3" height="3" fill="#131313"></rect> <rect width="3" height="3" transform="matrix(-1 0 0 1 204 27)" fill="#131313"></rect> <rect x="156" y="30" width="3" height="3" fill="#131313"></rect> <rect width="3" height="3" transform="matrix(-1 0 0 1 204 30)" fill="#131313"></rect> <rect width="3" height="3" transform="matrix(-1 0 0 1 201 30)" fill="#131313"></rect> <rect x="159" y="33" width="3" height="3" fill="#131313"></rect> <rect width="3" height="3" transform="matrix(-1 0 0 1 201 33)" fill="#131313"></rect> <rect width="3" height="3" transform="matrix(-1 0 0 1 198 33)" fill="#131313"></rect> <rect x="162" y="36" width="3" height="3" fill="#131313"></rect> <rect width="3" height="3" transform="matrix(-1 0 0 1 198 36)" fill="#131313"></rect> <rect width="3" height="3" transform="matrix(-1 0 0 1 195 36)" fill="#131313"></rect> <rect x="165" y="39" width="3" height="3" fill="#131313"></rect> <rect width="3" height="3" transform="matrix(-1 0 0 1 195 39)" fill="#131313"></rect> <rect width="3" height="3" transform="matrix(-1 0 0 1 192 39)" fill="#131313"></rect> <rect x="162" y="45" width="3" height="3" fill="#131313"></rect> <rect width="3" height="3" transform="matrix(-1 0 0 1 198 45)" fill="#131313"></rect> <rect width="3" height="3" transform="matrix(-1 0 0 1 195 45)" fill="#131313"></rect> <rect x="165" y="42" width="3" height="3" fill="#131313"></rect> <rect width="3" height="3" transform="matrix(-1 0 0 1 195 42)" fill="#131313"></rect> <rect width="3" height="3" transform="matrix(-1 0 0 1 192 42)" fill="#131313"></rect> <rect x="162" y="48" width="3" height="3" fill="#131313"></rect> <rect width="3" height="3" transform="matrix(-1 0 0 1 198 48)" fill="#131313"></rect> <rect x="159" y="51" width="3" height="3" fill="#131313"></rect> <rect width="3" height="3" transform="matrix(-1 0 0 1 201 51)" fill="#131313"></rect> <rect x="159" y="54" width="3" height="3" fill="#131313"></rect> <rect width="3" height="3" transform="matrix(-1 0 0 1 201 54)" fill="#131313"></rect> <rect x="162" y="57" width="3" height="3" fill="#131313"></rect> <rect width="3" height="3" transform="matrix(-1 0 0 1 198 57)" fill="#131313"></rect> <rect x="165" y="57" width="3" height="3" fill="#131313"></rect> <rect width="3" height="3" transform="matrix(-1 0 0 1 195 57)" fill="#131313"></rect> <rect x="168" y="54" width="3" height="3" fill="#131313"></rect> <rect width="3" height="3" transform="matrix(-1 0 0 1 192 54)" fill="#131313"></rect> <rect x="171" y="51" width="3" height="3" fill="#131313"></rect> <rect width="3" height="3" transform="matrix(-1 0 0 1 189 51)" fill="#131313"></rect> <rect x="177" y="45" width="3" height="3" fill="#131313"></rect> <rect x="174" y="48" width="3" height="3" fill="#131313"></rect> <rect width="3" height="3" transform="matrix(-1 0 0 1 186 48)" fill="#131313"></rect> <rect width="3" height="3" transform="matrix(-1 0 0 1 183 45)" fill="#131313"></rect> <path d="M242 29H230.5L229 31L237 39V45V51H234V57H240L249 48H255L264 57.5L268.5 59L272.5 54.5L264 42L274 29L260.5 27.5L255 17.5L250.5 13L247.5 17.5L244 25L242 29Z" fill="#FFC85F"></path> <rect x="249" y="12" width="3" height="3" fill="#131313"></rect> <rect x="246" y="15" width="3" height="3" fill="#131313"></rect> <rect width="3" height="3" transform="matrix(-1 0 0 1 258 15)" fill="#131313"></rect> <rect width="3" height="3" transform="matrix(-1 0 0 1 255 15)" fill="#131313"></rect> <rect width="3" height="3" transform="matrix(-1 0 0 1 255 18)" fill="#131313"></rect> <rect width="3" height="3" transform="matrix(-1 0 0 1 255 12)" fill="#131313"></rect> <rect x="243" y="21" width="3" height="3" fill="#131313"></rect> <rect width="3" height="3" transform="matrix(-1 0 0 1 261 21)" fill="#131313"></rect> <rect width="3" height="3" transform="matrix(-1 0 0 1 258 21)" fill="#131313"></rect> <rect x="246" y="18" width="3" height="3" fill="#131313"></rect> <rect width="3" height="3" transform="matrix(-1 0 0 1 258 18)" fill="#131313"></rect> <rect x="243" y="24" width="3" height="3" fill="#131313"></rect> <rect x="246" y="30" width="3" height="3" fill="#131313"></rect> <rect x="243" y="33" width="3" height="3" fill="#131313"></rect> <rect width="3" height="3" transform="matrix(-1 0 0 1 261 24)" fill="#131313"></rect> <rect width="3" height="3" transform="matrix(-1 0 0 1 261 27)" fill="#131313"></rect> <rect width="3" height="3" transform="matrix(-1 0 0 1 258 24)" fill="#131313"></rect> <rect x="240" y="27" width="3" height="3" fill="#131313"></rect> <rect width="3" height="3" transform="matrix(-1 0 0 1 264 27)" fill="#131313"></rect> <rect x="237" y="27" width="3" height="3" fill="#131313"></rect> <rect width="3" height="3" transform="matrix(-1 0 0 1 267 27)" fill="#131313"></rect> <rect x="234" y="27" width="3" height="3" fill="#131313"></rect> <rect width="3" height="3" transform="matrix(-1 0 0 1 270 27)" fill="#131313"></rect> <rect x="231" y="27" width="3" height="3" fill="#131313"></rect> <rect width="3" height="3" transform="matrix(-1 0 0 1 273 27)" fill="#131313"></rect> <rect x="228" y="27" width="3" height="3" fill="#131313"></rect> <rect width="3" height="3" transform="matrix(-1 0 0 1 276 27)" fill="#131313"></rect> <rect x="228" y="30" width="3" height="3" fill="#131313"></rect> <rect width="3" height="3" transform="matrix(-1 0 0 1 276 30)" fill="#131313"></rect> <rect width="3" height="3" transform="matrix(-1 0 0 1 273 30)" fill="#131313"></rect> <rect x="231" y="33" width="3" height="3" fill="#131313"></rect> <rect width="3" height="3" transform="matrix(-1 0 0 1 273 33)" fill="#131313"></rect> <rect width="3" height="3" transform="matrix(-1 0 0 1 270 33)" fill="#131313"></rect> <rect x="234" y="36" width="3" height="3" fill="#131313"></rect> <rect width="3" height="3" transform="matrix(-1 0 0 1 270 36)" fill="#131313"></rect> <rect width="3" height="3" transform="matrix(-1 0 0 1 267 36)" fill="#131313"></rect> <rect x="237" y="39" width="3" height="3" fill="#131313"></rect> <rect width="3" height="3" transform="matrix(-1 0 0 1 267 39)" fill="#131313"></rect> <rect width="3" height="3" transform="matrix(-1 0 0 1 264 39)" fill="#131313"></rect> <rect x="234" y="45" width="3" height="3" fill="#131313"></rect> <rect width="3" height="3" transform="matrix(-1 0 0 1 270 45)" fill="#131313"></rect> <rect width="3" height="3" transform="matrix(-1 0 0 1 267 45)" fill="#131313"></rect> <rect x="237" y="42" width="3" height="3" fill="#131313"></rect> <rect width="3" height="3" transform="matrix(-1 0 0 1 267 42)" fill="#131313"></rect> <rect width="3" height="3" transform="matrix(-1 0 0 1 264 42)" fill="#131313"></rect> <rect x="234" y="48" width="3" height="3" fill="#131313"></rect> <rect width="3" height="3" transform="matrix(-1 0 0 1 270 48)" fill="#131313"></rect> <rect x="231" y="51" width="3" height="3" fill="#131313"></rect> <rect width="3" height="3" transform="matrix(-1 0 0 1 273 51)" fill="#131313"></rect> <rect x="231" y="54" width="3" height="3" fill="#131313"></rect> <rect width="3" height="3" transform="matrix(-1 0 0 1 273 54)" fill="#131313"></rect> <rect x="234" y="57" width="3" height="3" fill="#131313"></rect> <rect width="3" height="3" transform="matrix(-1 0 0 1 270 57)" fill="#131313"></rect> <rect x="237" y="57" width="3" height="3" fill="#131313"></rect> <rect width="3" height="3" transform="matrix(-1 0 0 1 267 57)" fill="#131313"></rect> <rect x="240" y="54" width="3" height="3" fill="#131313"></rect> <rect width="3" height="3" transform="matrix(-1 0 0 1 264 54)" fill="#131313"></rect> <rect x="243" y="51" width="3" height="3" fill="#131313"></rect> <rect width="3" height="3" transform="matrix(-1 0 0 1 261 51)" fill="#131313"></rect> <rect x="249" y="45" width="3" height="3" fill="#131313"></rect> <rect x="246" y="48" width="3" height="3" fill="#131313"></rect> <rect width="3" height="3" transform="matrix(-1 0 0 1 258 48)" fill="#131313"></rect> <rect width="3" height="3" transform="matrix(-1 0 0 1 255 45)" fill="#131313"></rect> <path d="M314 29H302.5L301 31L309 39V45V51H306V57H312L321 48H327V41.5V25.5V17.5L322.5 13L319.5 17.5L316 25L314 29Z" fill="#FFC85F"></path> <rect x="321" y="12" width="3" height="3" fill="#131313"></rect> <rect x="318" y="15" width="3" height="3" fill="#131313"></rect> <rect width="3" height="3" transform="matrix(-1 0 0 1 330 15)" fill="#131313"></rect> <rect width="3" height="3" transform="matrix(-1 0 0 1 327 15)" fill="#131313"></rect> <rect width="3" height="3" transform="matrix(-1 0 0 1 327 18)" fill="#131313"></rect> <rect width="3" height="3" transform="matrix(-1 0 0 1 327 12)" fill="#131313"></rect> <rect x="315" y="21" width="3" height="3" fill="#131313"></rect> <rect width="3" height="3" transform="matrix(-1 0 0 1 333 21)" fill="#131313"></rect> <rect width="3" height="3" transform="matrix(-1 0 0 1 330 21)" fill="#131313"></rect> <rect x="318" y="18" width="3" height="3" fill="#131313"></rect> <rect width="3" height="3" transform="matrix(-1 0 0 1 330 18)" fill="#131313"></rect> <rect x="315" y="24" width="3" height="3" fill="#131313"></rect> <rect x="318" y="30" width="3" height="3" fill="#131313"></rect> <rect x="315" y="33" width="3" height="3" fill="#131313"></rect> <rect width="3" height="3" transform="matrix(-1 0 0 1 333 24)" fill="#131313"></rect> <rect width="3" height="3" transform="matrix(-1 0 0 1 333 27)" fill="#131313"></rect> <rect width="3" height="3" transform="matrix(-1 0 0 1 330 24)" fill="#131313"></rect> <rect x="312" y="27" width="3" height="3" fill="#131313"></rect> <rect width="3" height="3" transform="matrix(-1 0 0 1 336 27)" fill="#131313"></rect> <rect x="309" y="27" width="3" height="3" fill="#131313"></rect> <rect width="3" height="3" transform="matrix(-1 0 0 1 339 27)" fill="#131313"></rect> <rect x="306" y="27" width="3" height="3" fill="#131313"></rect> <rect width="3" height="3" transform="matrix(-1 0 0 1 342 27)" fill="#131313"></rect> <rect x="303" y="27" width="3" height="3" fill="#131313"></rect> <rect width="3" height="3" transform="matrix(-1 0 0 1 345 27)" fill="#131313"></rect> <rect x="300" y="27" width="3" height="3" fill="#131313"></rect> <rect width="3" height="3" transform="matrix(-1 0 0 1 348 27)" fill="#131313"></rect> <rect x="300" y="30" width="3" height="3" fill="#131313"></rect> <rect width="3" height="3" transform="matrix(-1 0 0 1 348 30)" fill="#131313"></rect> <rect width="3" height="3" transform="matrix(-1 0 0 1 345 30)" fill="#131313"></rect> <rect x="303" y="33" width="3" height="3" fill="#131313"></rect> <rect width="3" height="3" transform="matrix(-1 0 0 1 345 33)" fill="#131313"></rect> <rect width="3" height="3" transform="matrix(-1 0 0 1 342 33)" fill="#131313"></rect> <rect x="306" y="36" width="3" height="3" fill="#131313"></rect> <rect width="3" height="3" transform="matrix(-1 0 0 1 342 36)" fill="#131313"></rect> <rect width="3" height="3" transform="matrix(-1 0 0 1 339 36)" fill="#131313"></rect> <rect x="309" y="39" width="3" height="3" fill="#131313"></rect> <rect width="3" height="3" transform="matrix(-1 0 0 1 339 39)" fill="#131313"></rect> <rect width="3" height="3" transform="matrix(-1 0 0 1 336 39)" fill="#131313"></rect> <rect x="306" y="45" width="3" height="3" fill="#131313"></rect> <rect width="3" height="3" transform="matrix(-1 0 0 1 342 45)" fill="#131313"></rect> <rect width="3" height="3" transform="matrix(-1 0 0 1 339 45)" fill="#131313"></rect> <rect x="309" y="42" width="3" height="3" fill="#131313"></rect> <rect width="3" height="3" transform="matrix(-1 0 0 1 339 42)" fill="#131313"></rect> <rect width="3" height="3" transform="matrix(-1 0 0 1 336 42)" fill="#131313"></rect> <rect x="306" y="48" width="3" height="3" fill="#131313"></rect> <rect width="3" height="3" transform="matrix(-1 0 0 1 342 48)" fill="#131313"></rect> <rect x="303" y="51" width="3" height="3" fill="#131313"></rect> <rect width="3" height="3" transform="matrix(-1 0 0 1 345 51)" fill="#131313"></rect> <rect x="303" y="54" width="3" height="3" fill="#131313"></rect> <rect width="3" height="3" transform="matrix(-1 0 0 1 345 54)" fill="#131313"></rect> <rect x="306" y="57" width="3" height="3" fill="#131313"></rect> <rect width="3" height="3" transform="matrix(-1 0 0 1 342 57)" fill="#131313"></rect> <rect x="309" y="57" width="3" height="3" fill="#131313"></rect> <rect width="3" height="3" transform="matrix(-1 0 0 1 339 57)" fill="#131313"></rect> <rect x="312" y="54" width="3" height="3" fill="#131313"></rect> <rect width="3" height="3" transform="matrix(-1 0 0 1 336 54)" fill="#131313"></rect> <rect x="315" y="51" width="3" height="3" fill="#131313"></rect> <rect width="3" height="3" transform="matrix(-1 0 0 1 333 51)" fill="#131313"></rect> <rect x="321" y="45" width="3" height="3" fill="#131313"></rect> <rect x="318" y="48" width="3" height="3" fill="#131313"></rect> <rect width="3" height="3" transform="matrix(-1 0 0 1 330 48)" fill="#131313"></rect> <rect width="3" height="3" transform="matrix(-1 0 0 1 327 45)" fill="#131313"></rect> </svg> 