<?xml version="1.0" encoding="UTF-8"?> <svg xmlns="http://www.w3.org/2000/svg" width="155" height="155" viewBox="0 0 155 155" fill="none"> <path fill-rule="evenodd" clip-rule="evenodd" d="M33.0991 7.7821L139.829 24.2959L138.649 31.9195L146.273 33.0991L129.759 139.829L122.135 138.649L120.956 146.273L14.2262 129.759L15.4057 122.135L7.78217 120.956L24.296 14.2261L31.9196 15.4057L33.0991 7.7821Z" fill="#7ACA5E"></path> <mask id="mask0_5296_65708" style="mask-type:alpha" maskUnits="userSpaceOnUse" x="7" y="7" width="140" height="140"> <path fill-rule="evenodd" clip-rule="evenodd" d="M33.0991 7.7821L139.829 24.2959L138.649 31.9195L146.273 33.0991L129.759 139.829L122.135 138.649L120.956 146.273L14.2262 129.759L15.4057 122.135L7.78217 120.956L24.296 14.2261L31.9196 15.4057L33.0991 7.7821Z" fill="#FFA8A6"></path> </mask> <g mask="url(#mask0_5296_65708)"> <g opacity="0.6" filter="url(#filter0_f_5296_65708)"> <path d="M82.8856 29.5317C143.732 61.2607 209.853 67.0995 186.048 112.75C162.243 158.401 115.704 169.686 54.8576 137.957C-5.98869 106.228 -97.8614 148.443 -120.215 113.809C-122.241 66.6407 22.0392 -2.19738 82.8856 29.5317Z" fill="#A8EA91"></path> </g> <g opacity="0.2" filter="url(#filter1_f_5296_65708)"> <path d="M-168.356 -85.7648C-156.408 -153.466 11.2305 -187.341 82.6658 -174.733C154.101 -162.126 202.325 -97.0225 190.376 -29.3212C178.428 38.38 76.3382 112.372 19.5699 63.1054C-37.1983 13.8384 -180.305 -18.0636 -168.356 -85.7648Z" fill="#A8EA91"></path> </g> <path d="M47.9628 88.468L50.5322 88.8655C50.6392 88.1738 51.058 87.429 52.738 87.689C54.2204 87.9183 54.6228 88.5877 54.5157 89.2795C54.4393 89.7736 54.1652 90.2372 52.1887 89.9314C48.9275 89.4268 47.444 90.5127 47.1382 92.4892C46.8783 94.1692 47.6371 95.8045 50.0089 96.1714C52.3807 96.5384 53.6442 94.9125 53.6442 94.9125L53.6289 95.0113C53.4454 96.1972 53.7113 96.4407 53.7113 96.4407L56.4784 96.8688L56.4936 96.77C56.4936 96.77 56.0607 96.2983 56.3665 94.3218L57.0699 89.7759C57.4063 87.6018 55.978 86.3689 52.9144 85.8949C50.2462 85.482 48.2839 86.3927 47.9628 88.468ZM54.0723 92.1454C53.7818 94.0231 52.2759 94.5996 51.09 94.4161C50.003 94.2479 49.4865 93.662 49.6394 92.6738C49.7617 91.8832 50.4464 91.382 51.7311 91.5808C53.4704 91.8499 54.184 91.2925 54.2069 91.2758L54.0723 92.1454ZM57.2597 96.9897L59.8291 97.3873L61.8169 84.5402L59.2475 84.1426L57.2597 96.9897ZM69.4702 88.76L68.7057 93.7012C68.354 95.9742 66.9317 96.6648 65.7458 96.4813C64.5599 96.2979 63.9599 95.5979 64.2198 93.9179L65.122 88.0872L62.5526 87.6897L61.5434 94.2121C61.207 96.3862 61.9659 98.0215 64.3376 98.3885C66.5118 98.7248 68.2317 96.7648 68.2317 96.7648L67.9412 98.6424L70.5106 99.04L72.0397 89.1576L69.4702 88.76ZM74.2667 99.6212L75.0771 94.3835C75.3982 92.3082 76.4099 91.6552 77.2993 91.7928C77.9911 91.8999 78.5229 92.3869 78.3394 93.5728L77.3302 100.095L79.8997 100.493L80.7101 95.2551C81.0312 93.1797 82.0429 92.5268 82.9323 92.6644C83.6241 92.7714 84.1559 93.2585 83.9724 94.4444L82.9632 100.967L85.5326 101.364L86.603 94.4466C86.8935 92.569 86.317 91.0631 84.3405 90.7573C82.6407 90.4943 81.3561 91.9955 81.0288 92.4103C80.928 91.0995 80.2492 90.1242 78.7075 89.8857C76.9287 89.6105 75.5205 91.5176 75.5205 91.5176L75.7957 89.7388L73.2263 89.3412L71.6973 99.2236L74.2667 99.6212ZM89.2833 101.945L90.0478 97.0034C90.3995 94.7305 91.8219 94.0398 93.0077 94.2233C94.1936 94.4068 94.7937 95.1068 94.5337 96.7868L93.6316 102.617L96.201 103.015L97.2102 96.4926C97.5466 94.3185 96.7877 92.6832 94.4159 92.3162C92.2418 91.9798 90.5219 93.9399 90.5219 93.9399L90.8124 92.0622L88.2429 91.6647L86.7139 101.547L89.2833 101.945ZM99.039 92.5256L101.608 92.9231L101.945 90.749L99.3754 90.3514L99.039 92.5256ZM97.3877 103.199L99.9571 103.596L101.486 93.7137L98.9167 93.3162L97.3877 103.199Z" fill="#131313"></path> <path d="M57.9663 78.1257L61.9418 52.4315L58.5818 51.9116C57.8807 53.8269 55.7655 55.7258 52.0101 55.1447L51.4172 55.053L50.9585 58.0177L55.5044 58.7211L52.6298 77.3L57.9663 78.1257ZM65.4784 79.288L66.243 74.3468L69.7822 71.6159L73.582 80.5419L79.9067 81.5205L73.8296 68.4779L82.5696 61.6945L76.6401 60.7771L67.1604 68.4174L69.454 53.5938L64.3151 52.7987L60.3396 78.4929L65.4784 79.288ZM93.0998 82.5499L94.6289 72.6675L104.511 74.1965L105.123 70.2436L95.2405 68.7145L96.7695 58.8321L92.8166 58.2205L91.2875 68.1029L81.4051 66.5738L80.7935 70.5268L90.6759 72.0558L89.1468 81.9383L93.0998 82.5499Z" fill="#131313"></path> </g> <defs> <filter id="filter0_f_5296_65708" x="-200.353" y="-58.659" width="471.492" height="294.746" filterUnits="userSpaceOnUse" color-interpolation-filters="sRGB"> <feFlood flood-opacity="0" result="BackgroundImageFix"></feFlood> <feBlend mode="normal" in="SourceGraphic" in2="BackgroundImageFix" result="shape"></feBlend> <feGaussianBlur stdDeviation="40.0583" result="effect1_foregroundBlur_5296_65708"></feGaussianBlur> </filter> <filter id="filter1_f_5296_65708" x="-237.166" y="-245.435" width="497.464" height="392.657" filterUnits="userSpaceOnUse" color-interpolation-filters="sRGB"> <feFlood flood-opacity="0" result="BackgroundImageFix"></feFlood> <feBlend mode="normal" in="SourceGraphic" in2="BackgroundImageFix" result="shape"></feBlend> <feGaussianBlur stdDeviation="34.0522" result="effect1_foregroundBlur_5296_65708"></feGaussianBlur> </filter> </defs> </svg> 