<?xml version="1.0" encoding="UTF-8"?> <svg xmlns="http://www.w3.org/2000/svg" width="100" height="100" viewBox="0 0 100 100" fill="none"> <path fill-rule="evenodd" clip-rule="evenodd" d="M66 20H33V26H27V71H33V80H36V86H42V89H54V86H60V80H66V71H72V62H78V50H72V23H66V20Z" fill="#EFAF87"></path> <path fill-rule="evenodd" clip-rule="evenodd" d="M24 38H27V41V44V47V50V53V56V59V62H24V59V56V53V50V47V44V41V38ZM30 71H27V68V65V62H30V65V68V71ZM33 77H30V74V71H33V74V77ZM36 80H33V77H36V80ZM39 86H36V83V80H39V83V86ZM42 89H39V86H42V89ZM54 89V92H51H48H45H42V89H45H48H51H54ZM57 86V89H54V86H57ZM60 83V86H57V83H60ZM63 80V83H60V80H63ZM66 77V80H63V77H66ZM69 71V74V77H66V74V71H69ZM72 65V68V71H69V68V65H72ZM78 62V65H75H72V62H75H78ZM78 50V53V56V59V62H81V59V56V53V50H78ZM75 50H78V47H75H72V50H75ZM55.5 48.5H52.5V51.5H55.5V48.5ZM37.5 48.5H40.5V51.5H37.5V48.5ZM46.5 48.5H43.5V51.5V54.5V57.5V60.5H40.5V63.5V66.5H43.5V69.5H46.5H49.5V66.5H46.5H43.5V63.5V60.5H46.5V57.5V54.5V51.5V48.5ZM46.5 74H43.5V77H46.5H49.5H52.5V74H49.5H46.5Z" fill="#131313"></path> <path fill-rule="evenodd" clip-rule="evenodd" d="M36 8H39H42H45V11H48H51V8H54H57H60V11H63V14V17H66V14H69H72H75V17H78V20V23V26H81V29H84V32V35V38V41V44H81V47V50H78V47H75H72V44H69H66H63V41V38H60H57V35H54V32H51H45V29H42H40.5V32H37.5V29H30V32V35H27V38H24H21V35H18V32H15V29H18H21V26H24V23H21V20H18V17H21H24H27V14H30V11H33H36V8ZM81 62H78V65H72V68V71H69V77H78V71V68H81V65V62Z" fill="white"></path> </svg> 