<?xml version="1.0" encoding="UTF-8"?> <svg xmlns="http://www.w3.org/2000/svg" width="96" height="96" viewBox="0 0 96 96" fill="none"><g clip-path="url(#clip0_2089_25590)"><path d="M47.9997 96C74.5097 96 96 74.51 96 47.9999C96 21.4904 74.5097 0 47.9997 0C21.4902 0 0 21.4904 0 47.9999C0 74.51 21.4902 96 47.9997 96Z" fill="white"></path><path fill-rule="evenodd" clip-rule="evenodd" d="M47.9997 93.5684C73.1722 93.5684 93.572 73.1636 93.572 47.9999C93.572 22.8367 73.1722 2.43163 47.9997 2.43163C22.8278 2.43163 2.42801 22.8367 2.42801 47.9999C2.42801 73.1636 22.8278 93.5684 47.9997 93.5684ZM96 47.9999C96 74.51 74.5097 96 47.9997 96C21.4902 96 0 74.51 0 47.9999C0 21.4904 21.4902 0 47.9997 0C74.5097 0 96 21.4904 96 47.9999Z" fill="#62C187"></path><path fill-rule="evenodd" clip-rule="evenodd" d="M4.99073 69.3377C16.034 68.8672 28.4865 68.7262 49.5087 68.7262C69.0805 68.7262 80.8375 68.9145 91.0026 69.3511C94.2012 62.9206 96 55.6711 96 48.0015C96 42.7212 95.1474 37.6401 93.5724 32.8883C81.4532 32.104 66.1584 31.4134 49.1348 31.3221C30.2097 31.2204 14.4677 31.9374 2.44883 32.8245C0.86025 37.5946 0 42.6976 0 48.0015C0 55.6658 1.79625 62.9105 4.99073 69.3377Z" fill="#217D47"></path><path d="M33.1738 23.3793C31.8442 23.3793 30.7109 22.1975 30.7109 20.6662C30.7109 19.1349 31.8442 17.9531 33.1738 17.9531C34.3811 17.9531 35.2046 18.8769 35.4415 19.8673H34.5604C34.397 19.318 33.9244 18.7854 33.1738 18.7854C32.3174 18.7854 31.5591 19.5677 31.5591 20.6662C31.5591 21.7647 32.3174 22.5388 33.1738 22.5388C33.9326 22.5388 34.4052 22.0144 34.5927 21.4652H35.4738C35.2375 22.4555 34.4052 23.3793 33.1738 23.3793Z" fill="#135C37"></path><path d="M37.8183 23.3804C36.815 23.3804 35.9668 22.4982 35.9668 21.3914C35.9668 20.2845 36.815 19.4023 37.8183 19.4023C38.8211 19.4023 39.6617 20.2845 39.6617 21.3914C39.6617 22.4982 38.8211 23.3804 37.8183 23.3804ZM37.8183 22.6147C38.3891 22.6147 38.854 22.1154 38.854 21.3914C38.854 20.6757 38.3891 20.1763 37.8183 20.1763C37.2394 20.1763 36.7744 20.6757 36.7744 21.3914C36.7744 22.1154 37.2394 22.6147 37.8183 22.6147Z" fill="#135C37"></path><path d="M41.8283 23.3787C40.9555 23.3787 40.3359 22.7213 40.3359 21.7226V19.4922H41.1436V21.6643C41.1436 22.222 41.5021 22.6131 41.9918 22.6131C42.4973 22.6131 42.8558 22.222 42.8558 21.6643V19.4922H43.6552V23.2872H43.0515L42.9052 22.8628H42.8723C42.75 23.0209 42.375 23.3787 41.8283 23.3787Z" fill="#135C37"></path><path d="M45.3975 23.2888H44.5898V19.4939H45.1935L45.3405 19.9183H45.381C45.4868 19.7602 45.8213 19.4023 46.2944 19.4023C46.4249 19.4023 46.5149 19.4107 46.6124 19.4439V20.2595C46.5066 20.2346 46.4085 20.2262 46.278 20.2262C45.756 20.2262 45.3975 20.5924 45.3975 21.1999V23.2888Z" fill="#135C37"></path><path d="M48.3242 23.3804C47.4431 23.3804 46.8882 22.8062 46.8477 22.1321H47.6471C47.6712 22.465 47.9245 22.698 48.3242 22.698C48.7233 22.698 48.9273 22.4899 48.9273 22.2486C48.9273 21.4913 46.9376 21.8408 46.9376 20.5258C46.9376 19.9017 47.4349 19.4023 48.2913 19.4023C49.1071 19.4023 49.6373 19.9433 49.6861 20.6174H48.8867C48.8461 20.3012 48.6581 20.0931 48.2913 20.0931C47.9327 20.0931 47.7446 20.2679 47.7446 20.4926C47.7446 21.2083 49.7267 20.8671 49.7267 22.2069C49.7267 22.8728 49.2294 23.3804 48.3242 23.3804Z" fill="#135C37"></path><path d="M53.8452 21.3081C53.8452 21.4995 53.8287 21.6327 53.804 21.7159H51.0555C51.1619 22.2902 51.5534 22.6397 52.083 22.6397C52.4991 22.6397 52.7519 22.4317 52.8824 22.2402H53.7229C53.5107 22.7895 52.9071 23.3804 52.0912 23.3804C51.0637 23.3804 50.2402 22.5232 50.2402 21.3914C50.2402 20.2845 51.0884 19.4023 52.0753 19.4023C53.0699 19.4023 53.8452 20.2346 53.8452 21.3081ZM52.0753 20.143C51.5775 20.143 51.1619 20.5092 51.0473 21.0917H53.0699C52.9723 20.5342 52.5808 20.143 52.0753 20.143Z" fill="#135C37"></path><path d="M58.4526 23.2899H57.4657L56.3648 21.2842H55.5166V23.2899H54.6602V18.0469H56.6422C57.6126 18.0469 58.3303 18.7459 58.3303 19.6781C58.3303 20.3688 57.8901 20.9347 57.2212 21.1678L58.4526 23.2899ZM56.6175 18.8625H55.5166V20.4853H56.6175C57.1154 20.4853 57.4739 20.1441 57.4739 19.6863C57.4739 19.212 57.1154 18.8625 56.6175 18.8625Z" fill="#135C37"></path><path d="M62.4643 21.3081C62.4643 21.4995 62.4484 21.6327 62.4237 21.7159H59.6752C59.781 22.2902 60.1725 22.6397 60.7027 22.6397C61.1189 22.6397 61.3716 22.4317 61.5021 22.2402H62.342C62.1299 22.7895 61.5268 23.3804 60.7109 23.3804C59.6835 23.3804 58.8594 22.5232 58.8594 21.3914C58.8594 20.2845 59.7076 19.4023 60.6945 19.4023C61.6896 19.4023 62.4643 20.2346 62.4643 21.3081ZM60.6945 20.143C60.1972 20.143 59.781 20.5092 59.667 21.0917H61.6896C61.592 20.5342 61.2005 20.143 60.6945 20.143Z" fill="#135C37"></path><path d="M63.9873 24.6371H63.1797V19.4939H63.7834L63.9303 19.9183H63.9709C64.0767 19.7852 64.4846 19.4023 65.08 19.4023C65.9935 19.4023 66.7929 20.2346 66.7929 21.3914C66.7929 22.5482 65.9935 23.3804 65.08 23.3804C64.5093 23.3804 64.1096 23.0225 64.0279 22.8894H63.9873V24.6371ZM64.9907 22.6147C65.5203 22.6147 65.9852 22.1154 65.9852 21.3914C65.9852 20.6673 65.5203 20.1763 64.9907 20.1763C64.4523 20.1763 63.9873 20.6673 63.9873 21.3914C63.9873 22.1154 64.4523 22.6147 64.9907 22.6147Z" fill="#135C37"></path><path d="M69.1523 23.3804C68.149 23.3804 67.3008 22.4982 67.3008 21.3914C67.3008 20.2845 68.149 19.4023 69.1523 19.4023C70.1551 19.4023 70.9956 20.2845 70.9956 21.3914C70.9956 22.4982 70.1551 23.3804 69.1523 23.3804ZM69.1523 22.6147C69.7231 22.6147 70.188 22.1154 70.188 21.3914C70.188 20.6757 69.7231 20.1763 69.1523 20.1763C68.5728 20.1763 68.1084 20.6757 68.1084 21.3914C68.1084 22.1154 68.5728 22.6147 69.1523 22.6147Z" fill="#135C37"></path><path d="M72.5107 23.2888H71.7031V19.4939H72.3068L72.4537 19.9183H72.4943C72.6007 19.7602 72.9345 19.4023 73.4077 19.4023C73.5382 19.4023 73.6281 19.4107 73.7257 19.4439V20.2595C73.6199 20.2346 73.5218 20.2262 73.3913 20.2262C72.8693 20.2262 72.5107 20.5924 72.5107 21.1999V23.2888Z" fill="#135C37"></path><path d="M75.7581 23.3798C75.0892 23.3798 74.5919 22.8971 74.5919 22.0566V20.2339H73.9883V19.5432H74.2493C74.5426 19.5432 74.6977 19.3851 74.6977 19.0938V18.5195H75.399V19.4932H76.1984V20.2339H75.399V21.9983C75.399 22.4144 75.6112 22.5975 75.9456 22.5975C76.0432 22.5975 76.1249 22.5892 76.1984 22.5559V23.3049C76.1085 23.3382 75.9621 23.3798 75.7581 23.3798Z" fill="#135C37"></path><path d="M19.7773 22.3008H20.6432C21.9057 22.3008 22.9303 23.3456 22.9303 24.6345V25.5177H21.1152C20.8189 25.5177 20.036 25.5176 19.7773 25.5177V22.3008Z" fill="#339D5D"></path><path d="M19.7773 22.3008H20.6432C21.9057 22.3008 22.9303 23.3456 22.9303 24.6345V25.5177H21.1152C20.8189 25.5177 20.036 25.5176 19.7773 25.5177V22.3008Z" fill="#339D5D"></path><path d="M26.2078 24.8233C25.5283 25.2777 24.6149 25.5203 23.7973 25.5203V21.3846H19.7773C19.7773 20.5667 20.0195 19.7671 20.4739 19.087C20.9282 18.4069 21.5736 17.8768 22.3295 17.5638C23.0849 17.2508 23.6979 17.1563 24.6137 17.1563C25.5301 17.1562 27.2106 17.1563 27.9659 17.1563V20.5778C27.9659 21.4944 28.0435 22.2116 27.7308 22.9673C27.4175 23.723 26.8879 24.3689 26.2078 24.8233Z" fill="#339D5D"></path><path d="M26.2078 24.8233C25.5283 25.2777 24.6149 25.5203 23.7973 25.5203V21.3846H19.7773C19.7773 20.5667 20.0195 19.7671 20.4739 19.087C20.9282 18.4069 21.5736 17.8768 22.3295 17.5638C23.0849 17.2508 23.6979 17.1563 24.6137 17.1563C25.5301 17.1562 27.2106 17.1563 27.9659 17.1563V20.5778C27.9659 21.4944 28.0435 22.2116 27.7308 22.9673C27.4175 23.723 26.8879 24.3689 26.2078 24.8233Z" fill="#43CC79"></path><path d="M67.6836 57.8792V51.7188H70.1141C70.5813 51.7188 70.9794 51.808 71.3083 51.9865C71.6371 52.1629 71.8878 52.4086 72.0603 52.7234C72.2347 53.0363 72.322 53.3972 72.322 53.8063C72.322 54.2154 72.2337 54.5764 72.0573 54.8892C71.8808 55.202 71.6251 55.4457 71.2902 55.6202C70.9573 55.7946 70.5543 55.8819 70.081 55.8819H68.5319V54.8381H69.8704C70.1211 54.8381 70.3276 54.795 70.4901 54.7087C70.6545 54.6205 70.7768 54.4992 70.8571 54.3448C70.9393 54.1883 70.9804 54.0089 70.9804 53.8063C70.9804 53.6018 70.9393 53.4233 70.8571 53.2709C70.7768 53.1165 70.6545 52.9972 70.4901 52.9129C70.3256 52.8267 70.1171 52.7836 69.8644 52.7836H68.9861V57.8792H67.6836Z" fill="white"></path><path d="M60.0176 51.7188H61.6239L63.3204 55.8578H63.3926L65.0891 51.7188H66.6954V57.8792H65.432V53.8695H65.3809L63.7866 57.8491H62.9263L61.3321 53.8544H61.2809V57.8792H60.0176V51.7188Z" fill="white"></path><path d="M54.8274 57.8792H53.4316L55.5583 51.7188H57.2368L59.3605 57.8792H57.9647L56.4216 53.1265H56.3735L54.8274 57.8792ZM54.7401 55.4577H58.0369V56.4744H54.7401V55.4577Z" fill="white"></path><path d="M53.0321 53.8777H51.7146C51.6905 53.7072 51.6414 53.5558 51.5672 53.4235C51.493 53.2891 51.3977 53.1748 51.2814 53.0806C51.1651 52.9863 51.0307 52.9141 50.8783 52.864C50.7279 52.8139 50.5645 52.7888 50.388 52.7888C50.0692 52.7888 49.7914 52.868 49.5548 53.0264C49.3182 53.1828 49.1347 53.4115 49.0043 53.7123C48.874 54.0111 48.8088 54.374 48.8088 54.8012C48.8088 55.2403 48.874 55.6093 49.0043 55.9081C49.1367 56.2069 49.3212 56.4325 49.5578 56.5849C49.7944 56.7373 50.0682 56.8135 50.379 56.8135C50.5535 56.8135 50.7149 56.7905 50.8633 56.7443C51.0137 56.6982 51.147 56.631 51.2634 56.5428C51.3797 56.4526 51.4759 56.3433 51.5521 56.2149C51.6303 56.0866 51.6845 55.9402 51.7146 55.7758L53.0321 55.7818C52.998 56.0645 52.9127 56.3373 52.7764 56.6C52.642 56.8607 52.4605 57.0943 52.2319 57.3008C52.0053 57.5054 51.7346 57.6678 51.4198 57.7881C51.1069 57.9064 50.753 57.9656 50.3579 57.9656C49.8085 57.9656 49.3172 57.8413 48.884 57.5926C48.4529 57.3439 48.1119 56.984 47.8613 56.5127C47.6126 56.0415 47.4883 55.4709 47.4883 54.8012C47.4883 54.1294 47.6146 53.5578 47.8673 53.0866C48.12 52.6153 48.4629 52.2564 48.896 52.0097C49.3292 51.7611 49.8165 51.6367 50.3579 51.6367C50.7149 51.6367 51.0458 51.6869 51.3506 51.7871C51.6574 51.8874 51.9291 52.0338 52.1658 52.2263C52.4024 52.4168 52.5949 52.6504 52.7433 52.9272C52.8937 53.2039 52.99 53.5207 53.0321 53.8777Z" fill="white"></path><path d="M42.0703 52.7926V51.7188H47.1298V52.7926H45.2438V57.8792H43.9563V52.7926H42.0703Z" fill="white"></path><path d="M41.7049 54.8012C41.7049 55.4729 41.5776 56.0445 41.3229 56.5157C41.0702 56.987 40.7253 57.3469 40.2882 57.5956C39.853 57.8423 39.3637 57.9656 38.8202 57.9656C38.2728 57.9656 37.7815 57.8413 37.3463 57.5926C36.9111 57.3439 36.5672 56.984 36.3146 56.5127C36.0619 56.0415 35.9355 55.4709 35.9355 54.8012C35.9355 54.1294 36.0619 53.5578 36.3146 53.0866C36.5672 52.6153 36.9111 52.2564 37.3463 52.0097C37.7815 51.7611 38.2728 51.6367 38.8202 51.6367C39.3637 51.6367 39.853 51.7611 40.2882 52.0097C40.7253 52.2564 41.0702 52.6153 41.3229 53.0866C41.5776 53.5578 41.7049 54.1294 41.7049 54.8012ZM40.3844 54.8012C40.3844 54.366 40.3192 53.999 40.1889 53.7002C40.0605 53.4014 39.8791 53.1748 39.6444 53.0204C39.4098 52.866 39.1351 52.7888 38.8202 52.7888C38.5054 52.7888 38.2307 52.866 37.996 53.0204C37.7614 53.1748 37.5789 53.4014 37.4486 53.7002C37.3202 53.999 37.2561 54.366 37.2561 54.8012C37.2561 55.2363 37.3202 55.6033 37.4486 55.9021C37.5789 56.2009 37.7614 56.4275 37.996 56.5819C38.2307 56.7363 38.5054 56.8135 38.8202 56.8135C39.1351 56.8135 39.4098 56.7363 39.6444 56.5819C39.8791 56.4275 40.0605 56.2009 40.1889 55.9021C40.3192 55.6033 40.3844 55.2363 40.3844 54.8012Z" fill="white"></path><path d="M35.1639 54.8012C35.1639 55.4729 35.0366 56.0445 34.7819 56.5157C34.5292 56.987 34.1843 57.3469 33.7471 57.5956C33.312 57.8423 32.8227 57.9656 32.2792 57.9656C31.7318 57.9656 31.2405 57.8413 30.8053 57.5926C30.3701 57.3439 30.0262 56.984 29.7735 56.5127C29.5209 56.0415 29.3945 55.4709 29.3945 54.8012C29.3945 54.1294 29.5209 53.5578 29.7735 53.0866C30.0262 52.6153 30.3701 52.2564 30.8053 52.0097C31.2405 51.7611 31.7318 51.6367 32.2792 51.6367C32.8227 51.6367 33.312 51.7611 33.7471 52.0097C34.1843 52.2564 34.5292 52.6153 34.7819 53.0866C35.0366 53.5578 35.1639 54.1294 35.1639 54.8012ZM33.8434 54.8012C33.8434 54.366 33.7782 53.999 33.6479 53.7002C33.5195 53.4014 33.338 53.1748 33.1034 53.0204C32.8688 52.866 32.5941 52.7888 32.2792 52.7888C31.9644 52.7888 31.6897 52.866 31.455 53.0204C31.2204 53.1748 31.0379 53.4014 30.9076 53.7002C30.7792 53.999 30.7151 54.366 30.7151 54.8012C30.7151 55.2363 30.7792 55.6033 30.9076 55.9021C31.0379 56.2009 31.2204 56.4275 31.455 56.5819C31.6897 56.7363 31.9644 56.8135 32.2792 56.8135C32.5941 56.8135 32.8688 56.7363 33.1034 56.5819C33.338 56.4275 33.5195 56.2009 33.6479 55.9021C33.7782 55.6033 33.8434 55.2363 33.8434 54.8012Z" fill="white"></path><path d="M23.9883 57.8792V51.7188H26.4549C26.9081 51.7188 27.2861 51.7859 27.5889 51.9203C27.8917 52.0546 28.1193 52.2411 28.2717 52.4798C28.4241 52.7164 28.5003 52.9891 28.5003 53.298C28.5003 53.5386 28.4522 53.7502 28.3559 53.9327C28.2597 54.1131 28.1273 54.2615 27.9589 54.3778C27.7924 54.4921 27.6019 54.5734 27.3873 54.6215V54.6817C27.622 54.6917 27.8416 54.7579 28.0461 54.8802C28.2527 55.0025 28.4201 55.174 28.5484 55.3946C28.6768 55.6131 28.741 55.8738 28.741 56.1766C28.741 56.5035 28.6597 56.7953 28.4973 57.052C28.3369 57.3067 28.0992 57.5082 27.7844 57.6566C27.4696 57.805 27.0815 57.8792 26.6203 57.8792H23.9883ZM25.2908 56.8143H26.3526C26.7156 56.8143 26.9803 56.7452 27.1467 56.6068C27.3131 56.4664 27.3964 56.2799 27.3964 56.0473C27.3964 55.8768 27.3553 55.7264 27.273 55.5961C27.1908 55.4657 27.0735 55.3635 26.9211 55.2893C26.7707 55.2151 26.5912 55.178 26.3827 55.178H25.2908V56.8143ZM25.2908 54.2966H26.2563C26.4348 54.2966 26.5932 54.2655 26.7316 54.2034C26.872 54.1392 26.9823 54.049 27.0625 53.9327C27.1447 53.8163 27.1858 53.677 27.1858 53.5145C27.1858 53.2919 27.1066 53.1125 26.9482 52.9761C26.7918 52.8397 26.5692 52.7716 26.2804 52.7716H25.2908V54.2966Z" fill="white"></path><path d="M83.3983 43.8294C83.3562 43.6831 83.297 43.5537 83.2208 43.4414C83.1446 43.3271 83.0513 43.2308 82.941 43.1526C82.8328 43.0724 82.7084 43.0113 82.568 42.9691C82.4297 42.927 82.2763 42.906 82.1078 42.906C81.793 42.906 81.5162 42.9842 81.2776 43.1406C81.041 43.297 80.8565 43.5246 80.7241 43.8234C80.5918 44.1202 80.5256 44.4832 80.5256 44.9123C80.5256 45.3415 80.5908 45.7064 80.7211 46.0072C80.8515 46.3081 81.036 46.5377 81.2746 46.6961C81.5132 46.8525 81.795 46.9307 82.1199 46.9307C82.4146 46.9307 82.6663 46.8786 82.8749 46.7743C83.0854 46.668 83.2459 46.5186 83.3561 46.3261C83.4684 46.1336 83.5246 45.906 83.5246 45.6433L83.7893 45.6824H82.2011V44.7018H84.7789V45.4778C84.7789 46.0193 84.6646 46.4845 84.436 46.8736C84.2074 47.2606 83.8926 47.5594 83.4915 47.7699C83.0904 47.9785 82.6312 48.0828 82.1138 48.0828C81.5363 48.0828 81.0289 47.9554 80.5918 47.7008C80.1546 47.4441 79.8137 47.0801 79.569 46.6089C79.3264 46.1356 79.2051 45.5741 79.2051 44.9244C79.2051 44.425 79.2773 43.9798 79.4217 43.5888C79.568 43.1958 79.7726 42.8629 80.0353 42.5901C80.298 42.3174 80.6038 42.1099 80.9527 41.9675C81.3017 41.8251 81.6797 41.7539 82.0868 41.7539C82.4357 41.7539 82.7606 41.805 83.0614 41.9073C83.3622 42.0076 83.6289 42.15 83.8615 42.3345C84.0961 42.5189 84.2876 42.7385 84.436 42.9932C84.5844 43.2459 84.6797 43.5246 84.7218 43.8294H83.3983Z" fill="white"></path><path d="M78.3227 41.8398V48.0003H77.1977L74.5175 44.1229H74.4724V48.0003H73.1699V41.8398H74.313L76.9721 45.7142H77.0262V41.8398H78.3227Z" fill="white"></path><path d="M72.1833 41.8398V48.0003H70.8809V41.8398H72.1833Z" fill="white"></path><path d="M65.0723 42.9137V41.8398H70.1318V42.9137H68.2457V48.0003H66.9583V42.9137H65.0723Z" fill="white"></path><path d="M63.183 43.6099C63.159 43.3672 63.0557 43.1787 62.8732 43.0443C62.6907 42.91 62.443 42.8428 62.1302 42.8428C61.9176 42.8428 61.7382 42.8729 61.5918 42.9331C61.4454 42.9912 61.3331 43.0724 61.2549 43.1767C61.1787 43.281 61.1406 43.3993 61.1406 43.5316C61.1366 43.6419 61.1596 43.7382 61.2098 43.8204C61.2619 43.9026 61.3331 43.9738 61.4233 44.034C61.5136 44.0921 61.6178 44.1433 61.7362 44.1874C61.8545 44.2295 61.9808 44.2656 62.1152 44.2957L62.6686 44.428C62.9374 44.4882 63.184 44.5684 63.4086 44.6687C63.6332 44.7689 63.8277 44.8923 63.9922 45.0387C64.1566 45.1851 64.284 45.3575 64.3742 45.556C64.4664 45.7546 64.5136 45.9822 64.5156 46.2389C64.5136 46.6159 64.4173 46.9427 64.2268 47.2195C64.0383 47.4942 63.7656 47.7078 63.4086 47.8602C63.0537 48.0106 62.6255 48.0858 62.1242 48.0858C61.6269 48.0858 61.1937 48.0096 60.8247 47.8572C60.4577 47.7048 60.171 47.4792 59.9644 47.1804C59.7599 46.8796 59.6526 46.5076 59.6426 46.0644H60.9029C60.917 46.271 60.9761 46.4434 61.0804 46.5818C61.1867 46.7181 61.3281 46.8214 61.5045 46.8916C61.683 46.9598 61.8846 46.9939 62.1092 46.9939C62.3297 46.9939 62.5213 46.9618 62.6837 46.8976C62.8481 46.8335 62.9755 46.7442 63.0657 46.6299C63.1559 46.5156 63.2011 46.3843 63.2011 46.2359C63.2011 46.0975 63.16 45.9812 63.0777 45.8869C62.9975 45.7927 62.8792 45.7125 62.7228 45.6463C62.5684 45.5801 62.3789 45.5199 62.1543 45.4658L61.4835 45.2974C60.9641 45.171 60.554 44.9735 60.2532 44.7048C59.9524 44.4361 59.803 44.0741 59.805 43.6189C59.803 43.2459 59.9023 42.92 60.1028 42.6413C60.3053 42.3625 60.5831 42.1449 60.936 41.9885C61.289 41.8321 61.69 41.7539 62.1392 41.7539C62.5965 41.7539 62.9955 41.8321 63.3364 41.9885C63.6793 42.1449 63.9461 42.3625 64.1366 42.6413C64.3271 42.92 64.4253 43.2429 64.4313 43.6099H63.183Z" fill="white"></path><path d="M54.7402 48.0003V41.8398H58.8913V42.9137H56.0427V44.3816H58.6777V45.4555H56.0427V46.9264H58.9033V48.0003H54.7402Z" fill="white"></path><path d="M48.9316 42.9137V41.8398H53.9911V42.9137H52.1051V48.0003H50.8177V42.9137H48.9316Z" fill="white"></path><path d="M42.1008 48.0003H40.7051L42.8318 41.8398H44.5102L46.6339 48.0003H45.2382L43.6951 43.2476H43.6469L42.1008 48.0003ZM42.0136 45.5788H45.3104V46.5955H42.0136V45.5788Z" fill="white"></path><path d="M37.1698 45.8568H38.2768L38.8333 46.5728L39.3807 47.2105L40.4125 48.5039H39.1972L38.4873 47.6316L38.1234 47.1142L37.1698 45.8568ZM40.5057 44.9183C40.5057 45.5901 40.3784 46.1617 40.1237 46.6329C39.871 47.1042 39.5261 47.4641 39.0889 47.7128C38.6538 47.9595 38.1645 48.0828 37.621 48.0828C37.0736 48.0828 36.5823 47.9585 36.1471 47.7098C35.7119 47.4611 35.368 47.1012 35.1153 46.6299C34.8627 46.1587 34.7363 45.5881 34.7363 44.9183C34.7363 44.2466 34.8627 43.675 35.1153 43.2038C35.368 42.7325 35.7119 42.3736 36.1471 42.1269C36.5823 41.8782 37.0736 41.7539 37.621 41.7539C38.1645 41.7539 38.6538 41.8782 39.0889 42.1269C39.5261 42.3736 39.871 42.7325 40.1237 43.2038C40.3784 43.675 40.5057 44.2466 40.5057 44.9183ZM39.1852 44.9183C39.1852 44.4832 39.12 44.1162 38.9897 43.8174C38.8613 43.5186 38.6798 43.292 38.4452 43.1376C38.2106 42.9832 37.9359 42.906 37.621 42.906C37.3062 42.906 37.0314 42.9832 36.7968 43.1376C36.5622 43.292 36.3797 43.5186 36.2494 43.8174C36.121 44.1162 36.0568 44.4832 36.0568 44.9183C36.0568 45.3535 36.121 45.7205 36.2494 46.0193C36.3797 46.3181 36.5622 46.5447 36.7968 46.6991C37.0314 46.8535 37.3062 46.9307 37.621 46.9307C37.9359 46.9307 38.2106 46.8535 38.4452 46.6991C38.6798 46.5447 38.8613 46.3181 38.9897 46.0193C39.12 45.7205 39.1852 45.3535 39.1852 44.9183Z" fill="white"></path><path d="M27.1602 42.9137V41.8398H32.2196V42.9137H30.3336V48.0003H29.0462V42.9137H27.1602Z" fill="white"></path><path d="M25.2709 43.6099C25.2468 43.3672 25.1436 43.1787 24.9611 43.0443C24.7786 42.91 24.5309 42.8428 24.2181 42.8428C24.0055 42.8428 23.8261 42.8729 23.6797 42.9331C23.5333 42.9912 23.421 43.0724 23.3428 43.1767C23.2666 43.281 23.2285 43.3993 23.2285 43.5316C23.2245 43.6419 23.2475 43.7382 23.2976 43.8204C23.3498 43.9026 23.421 43.9738 23.5112 44.034C23.6015 44.0921 23.7057 44.1433 23.8241 44.1874C23.9424 44.2295 24.0687 44.2656 24.2031 44.2957L24.7565 44.428C25.0253 44.4882 25.2719 44.5684 25.4965 44.6687C25.7211 44.7689 25.9156 44.8923 26.0801 45.0387C26.2445 45.1851 26.3718 45.3575 26.4621 45.556C26.5543 45.7546 26.6015 45.9822 26.6035 46.2389C26.6015 46.6159 26.5052 46.9427 26.3147 47.2195C26.1262 47.4942 25.8535 47.7078 25.4965 47.8602C25.1416 48.0106 24.7134 48.0858 24.2121 48.0858C23.7148 48.0858 23.2816 48.0096 22.9126 47.8572C22.5456 47.7048 22.2589 47.4792 22.0523 47.1804C21.8478 46.8796 21.7405 46.5076 21.7305 46.0644H22.9908C23.0049 46.271 23.064 46.4434 23.1683 46.5818C23.2746 46.7181 23.416 46.8214 23.5924 46.8916C23.7709 46.9598 23.9724 46.9939 24.197 46.9939C24.4176 46.9939 24.6091 46.9618 24.7716 46.8976C24.936 46.8335 25.0634 46.7442 25.1536 46.6299C25.2438 46.5156 25.289 46.3843 25.289 46.2359C25.289 46.0975 25.2478 45.9812 25.1656 45.8869C25.0854 45.7927 24.9671 45.7125 24.8107 45.6463C24.6563 45.5801 24.4668 45.5199 24.2422 45.4658L23.5714 45.2974C23.052 45.171 22.6419 44.9735 22.3411 44.7048C22.0403 44.4361 21.8909 44.0741 21.8929 43.6189C21.8909 43.2459 21.9902 42.92 22.1907 42.6413C22.3932 42.3625 22.671 42.1449 23.0239 41.9885C23.3769 41.8321 23.7779 41.7539 24.2271 41.7539C24.6843 41.7539 25.0834 41.8321 25.4243 41.9885C25.7672 42.1449 26.0339 42.3625 26.2245 42.6413C26.415 42.92 26.5132 43.2429 26.5192 43.6099H25.2709Z" fill="white"></path><path d="M16.8281 48.0003V41.8398H20.9792V42.9137H18.1306V44.3816H20.7656V45.4555H18.1306V46.9264H20.9912V48.0003H16.8281Z" fill="white"></path><path d="M11.3125 48.0003V41.8398H13.7791C14.2323 41.8398 14.6103 41.907 14.9131 42.0414C15.2159 42.1757 15.4435 42.3622 15.5959 42.6009C15.7483 42.8375 15.8245 43.1102 15.8245 43.4191C15.8245 43.6597 15.7764 43.8713 15.6801 44.0537C15.5839 44.2342 15.4515 44.3826 15.2831 44.4989C15.1166 44.6132 14.9261 44.6945 14.7116 44.7426V44.8027C14.9462 44.8128 15.1658 44.8789 15.3703 45.0013C15.5769 45.1236 15.7443 45.2951 15.8727 45.5156C16.001 45.7342 16.0652 45.9949 16.0652 46.2977C16.0652 46.6246 15.984 46.9164 15.8215 47.1731C15.6611 47.4277 15.4235 47.6293 15.1086 47.7777C14.7938 47.9261 14.4057 48.0003 13.9445 48.0003H11.3125ZM12.615 46.9354H13.6768C14.0398 46.9354 14.3045 46.8662 14.4709 46.7279C14.6374 46.5875 14.7206 46.401 14.7206 46.1684C14.7206 45.9979 14.6795 45.8475 14.5973 45.7172C14.515 45.5868 14.3977 45.4846 14.2453 45.4104C14.0949 45.3362 13.9154 45.2991 13.7069 45.2991H12.615V46.9354ZM12.615 44.4177H13.5805C13.759 44.4177 13.9174 44.3866 14.0558 44.3245C14.1962 44.2603 14.3065 44.1701 14.3867 44.0537C14.4689 43.9374 14.51 43.7981 14.51 43.6356C14.51 43.413 14.4308 43.2336 14.2724 43.0972C14.116 42.9608 13.8934 42.8927 13.6046 42.8927H12.615V44.4177Z" fill="white"></path><path d="M54.8223 81.0062V79.8284L57.7755 75.1758H58.7909V76.8061H58.1899L56.3282 79.7524V79.8076H60.5249V81.0062H54.8223ZM58.2176 82.2496V80.647L58.2452 80.1254V75.1758H59.6475V82.2496H58.2176Z" fill="#61B783"></path><path d="M48.9538 82.2487V81.171L51.4718 78.8396C51.686 78.6323 51.8656 78.4458 52.0107 78.28C52.158 78.1142 52.2697 77.9519 52.3457 77.793C52.4217 77.6318 52.4597 77.4579 52.4597 77.2714C52.4597 77.0642 52.4125 76.8857 52.3181 76.7361C52.2237 76.5841 52.0947 76.4678 51.9312 76.3872C51.7677 76.3043 51.5824 76.2629 51.3751 76.2629C51.1587 76.2629 50.9698 76.3066 50.8087 76.3941C50.6475 76.4816 50.5231 76.6071 50.4356 76.7706C50.3481 76.9341 50.3044 77.1287 50.3044 77.3543H48.8848C48.8848 76.8915 48.9895 76.4897 49.1991 76.1489C49.4086 75.8081 49.7022 75.5444 50.0799 75.3579C50.4575 75.1714 50.8927 75.0781 51.3855 75.0781C51.8921 75.0781 52.333 75.1679 52.7084 75.3475C53.086 75.5248 53.3796 75.7712 53.5891 76.0867C53.7987 76.4022 53.9035 76.7637 53.9035 77.1713C53.9035 77.4384 53.8505 77.702 53.7446 77.9622C53.641 78.2224 53.4556 78.5114 53.1885 78.8292C52.9214 79.1447 52.5449 79.5235 52.059 79.9656L51.0263 80.9776V81.026H53.9967V82.2487H48.9538Z" fill="#61B783"></path><path d="M45.0323 82.4041C44.4382 82.4018 43.927 82.2556 43.4987 81.9655C43.0727 81.6753 42.7446 81.2551 42.5143 80.7047C42.2863 80.1544 42.1735 79.4924 42.1758 78.7187C42.1758 77.9473 42.2898 77.2899 42.5178 76.7464C42.748 76.203 43.0762 75.7897 43.5022 75.5064C43.9305 75.2209 44.4405 75.0781 45.0323 75.0781C45.6241 75.0781 46.133 75.2209 46.559 75.5064C46.9873 75.792 47.3166 76.2064 47.5468 76.7499C47.7771 77.291 47.8911 77.9473 47.8888 78.7187C47.8888 79.4947 47.7736 80.1578 47.5434 80.7082C47.3154 81.2585 46.9884 81.6788 46.5624 81.9689C46.1364 82.259 45.6264 82.4041 45.0323 82.4041ZM45.0323 81.1641C45.4376 81.1641 45.7611 80.9603 46.0029 80.5528C46.2447 80.1452 46.3644 79.5338 46.3621 78.7187C46.3621 78.1821 46.3068 77.7354 46.1963 77.3785C46.0881 77.0216 45.9338 76.7533 45.7335 76.5737C45.5354 76.3941 45.3017 76.3043 45.0323 76.3043C44.6293 76.3043 44.3069 76.5058 44.0652 76.9088C43.8234 77.3117 43.7013 77.915 43.699 78.7187C43.699 79.2621 43.7532 79.7157 43.8614 80.0796C43.9719 80.4411 44.1273 80.7128 44.3277 80.8947C44.528 81.0743 44.7629 81.1641 45.0323 81.1641Z" fill="#61B783"></path><path d="M36.1316 82.2487V81.171L38.6496 78.8396C38.8637 78.6323 39.0433 78.4458 39.1884 78.28C39.3358 78.1142 39.4474 77.9519 39.5234 77.793C39.5994 77.6318 39.6374 77.4579 39.6374 77.2714C39.6374 77.0642 39.5902 76.8857 39.4958 76.7361C39.4014 76.5841 39.2724 76.4678 39.1089 76.3872C38.9455 76.3043 38.7601 76.2629 38.5529 76.2629C38.3364 76.2629 38.1476 76.3066 37.9864 76.3941C37.8252 76.4816 37.7009 76.6071 37.6134 76.7706C37.5259 76.9341 37.4821 77.1287 37.4821 77.3543H36.0625C36.0625 76.8915 36.1673 76.4897 36.3768 76.1489C36.5864 75.8081 36.88 75.5444 37.2576 75.3579C37.6352 75.1714 38.0704 75.0781 38.5632 75.0781C39.0698 75.0781 39.5108 75.1679 39.8861 75.3475C40.2637 75.5248 40.5573 75.7712 40.7669 76.0867C40.9764 76.4022 41.0812 76.7637 41.0812 77.1713C41.0812 77.4384 41.0282 77.702 40.9223 77.9622C40.8187 78.2224 40.6333 78.5114 40.3662 78.8292C40.0991 79.1447 39.7226 79.5235 39.2367 79.9656L38.204 80.9776V81.026H41.1745V82.2487H36.1316Z" fill="#61B783"></path></g><defs><clipPath id="clip0_2089_25590"><rect width="96" height="96" fill="white"></rect></clipPath></defs></svg> 