<?xml version="1.0" encoding="UTF-8"?> <svg xmlns="http://www.w3.org/2000/svg" width="172" height="172" viewBox="0 0 172 172" fill="none"> <path fill-rule="evenodd" clip-rule="evenodd" d="M14.6412 44.3221L116.974 9.79777L119.44 17.1073L126.75 14.6412L161.274 116.974L153.964 119.44L156.43 126.75L54.0975 161.274L51.6315 153.964L44.322 156.43L9.79769 54.0976L17.1072 51.6316L14.6412 44.3221Z" fill="#A8EA91"></path> <mask id="mask0_5798_84523" style="mask-type:alpha" maskUnits="userSpaceOnUse" x="9" y="9" width="153" height="153"> <path fill-rule="evenodd" clip-rule="evenodd" d="M14.6412 44.3221L116.974 9.79777L119.44 17.1073L126.75 14.6412L161.274 116.974L153.964 119.44L156.43 126.75L54.0975 161.274L51.6315 153.964L44.322 156.43L9.79769 54.0976L17.1072 51.6316L14.6412 44.3221Z" fill="#FFA8A6"></path> </mask> <g mask="url(#mask0_5798_84523)"> <g opacity="0.6" filter="url(#filter0_f_5798_84523)"> <path d="M103.211 69.4027C171.833 69.5249 233.227 32.5531 233.093 107.727C232.96 182.902 196.83 228.869 128.208 228.746C59.5861 228.624 -2.56474 345.194 -38.3464 315.382C-61.8459 255.64 34.5885 69.2806 103.211 69.4027Z" fill="#FFDC81"></path> </g> <g opacity="0.4" filter="url(#filter1_f_5798_84523)"> <path d="M-142.688 105.971C-163.28 40.38 -30.1095 -66.9307 39.0994 -88.6584C108.308 -110.386 181.106 -74.8277 201.698 -9.23658C222.29 56.3546 165.78 169.066 92.696 151.499C19.6118 133.933 -122.096 171.562 -142.688 105.971Z" fill="#7ACA5E"></path> </g> <path d="M68.4447 108.159L66.8463 103.422C66.1111 101.243 67.0552 99.9742 68.1922 99.5906C69.3292 99.207 70.1843 99.5517 70.7277 101.163L72.6138 106.753L75.0774 105.922L72.9675 99.6681C72.2643 97.5835 70.8372 96.4819 68.5632 97.2491C66.4786 97.9524 65.8553 100.484 65.8553 100.484L64.2889 95.8416L61.8254 96.6727L65.9811 108.991L68.4447 108.159ZM74.4273 100.864C75.3543 103.612 77.6376 105.375 81.0487 104.224C84.4598 103.073 85.2086 100.287 84.2816 97.5397C83.3545 94.7918 81.0713 93.0292 77.6602 94.18C74.2491 95.3308 73.5002 98.1164 74.4273 100.864ZM76.9856 100.001C76.1545 97.5375 77.0038 96.3012 78.2356 95.8856C79.4674 95.47 80.8921 95.9392 81.7233 98.4028C82.5544 100.866 81.7051 102.103 80.4733 102.518C79.2415 102.934 77.8167 102.465 76.9856 100.001ZM90.2553 90.2474L91.8537 94.985C92.5889 97.1644 91.6448 98.4327 90.5078 98.8163C89.3708 99.1999 88.5157 98.8552 87.9722 97.2444L86.0862 91.6539L83.6226 92.4851L85.7324 98.7388C86.4357 100.823 87.8627 101.925 90.1368 101.158C92.2214 100.454 92.8446 97.9224 92.8446 97.9224L93.452 99.7227L95.9156 98.8915L92.7189 89.4163L90.2553 90.2474ZM99.5169 97.6765L98.2063 93.7917C97.3752 91.3281 98.6355 90.0586 99.962 89.6111L100.625 89.3873L99.7622 86.829L99.4779 86.9249C97.2607 87.6729 97.1701 90.5952 97.177 90.7406L96.3202 88.2013L93.8567 89.0324L97.0534 98.5077L99.5169 97.6765ZM102.451 93.2041C103.026 94.9096 104.738 96.2316 108.244 95.0488C111.371 93.9939 112.281 91.9983 111.674 90.198C110.938 88.0187 109.104 87.8989 106.356 88.8259C104.461 89.4653 103.985 88.9927 103.825 88.5189C103.665 88.0451 103.915 87.222 105.242 86.7745C106.663 86.295 107.36 86.7984 107.616 87.5564L110.08 86.7253C109.728 85.683 108.551 83.7583 104.761 85.037C101.824 86.0279 100.85 87.834 101.393 89.4448C101.969 91.1503 103.425 91.7143 106.363 90.7233C108.353 90.052 108.923 90.4926 109.147 91.1559C109.371 91.8192 109.28 92.7998 107.669 93.3433C106.437 93.7588 105.392 93.478 105.009 92.341L102.451 93.2041ZM62.8653 133.26L61.4268 128.996C61.4268 128.996 62.9497 130.382 65.2238 129.615C67.4978 128.848 68.9442 126.566 67.7934 123.154C66.6426 119.743 64.1093 118.804 61.8353 119.571C59.5612 120.338 59.253 122.553 59.253 122.553L58.7096 120.942L56.246 121.773L60.4017 134.091L62.8653 133.26ZM65.2351 124.018C66.0342 126.386 65.1221 127.75 63.8903 128.165C62.6585 128.581 61.1071 128.049 60.3079 125.68C59.5087 123.311 60.4209 121.948 61.6526 121.532C62.8844 121.117 64.4359 121.649 65.2351 124.018ZM78.285 120.143L78.0293 119.385C77.0702 116.542 74.7254 115.222 71.788 116.213C68.4717 117.332 67.6281 120.15 68.5551 122.897C69.4822 125.645 71.8602 127.376 75.1765 126.257C78.1139 125.266 78.8022 123.24 78.5738 121.312L76.1103 122.143C76.2404 123.154 75.8329 124.136 74.6959 124.52C73.3693 124.967 72.1156 124.567 71.2922 122.502L78.285 120.143ZM72.3634 117.919C73.5005 117.535 74.577 117.911 75.1832 119.395L70.8056 120.872C70.5526 119.121 71.3401 118.264 72.3634 117.919ZM83.1331 123.256L81.8225 119.371C80.9913 116.908 82.2517 115.638 83.5782 115.191L84.2415 114.967L83.3784 112.409L83.0941 112.504C80.8769 113.253 80.7863 116.175 80.7931 116.32L79.9364 113.781L77.4729 114.612L80.6696 124.087L83.1331 123.256ZM100.061 114.907L95.9578 108.376L93.4942 109.207L94.1862 116.889L90.2726 110.294L87.7143 111.157L93.2798 119.833L96.4067 118.778L95.7809 111.918L99.4388 117.755L102.566 116.7L101.738 106.426L99.1794 107.289L100.061 114.907ZM113.17 108.373L112.914 107.615C111.955 104.773 109.61 103.453 106.673 104.444C103.356 105.563 102.513 108.381 103.44 111.128C104.367 113.876 106.745 115.607 110.061 114.488C112.998 113.497 113.687 111.471 113.458 109.542L110.995 110.374C111.125 111.385 110.718 112.367 109.58 112.75C108.254 113.198 107 112.798 106.177 110.733L113.17 108.373ZM107.248 106.15C108.385 105.766 109.462 106.142 110.068 107.626L105.69 109.103C105.437 107.352 106.225 106.495 107.248 106.15ZM123.496 104.89L123.24 104.132C122.281 101.289 119.937 99.9693 116.999 100.96C113.683 102.079 112.839 104.897 113.766 107.644C114.693 110.392 117.071 112.123 120.388 111.004C123.325 110.013 124.013 107.987 123.785 106.059L121.321 106.89C121.452 107.901 121.044 108.883 119.907 109.267C118.581 109.714 117.327 109.314 116.503 107.249L123.496 104.89ZM117.575 102.666C118.712 102.282 119.788 102.658 120.394 104.142L116.017 105.619C115.764 103.868 116.551 103.011 117.575 102.666ZM128.344 108.003L127.545 105.634L128.486 103.607L132.229 106.692L135.261 105.67L129.56 101.282L131.875 96.2582L129.032 97.2172L126.586 102.792L124.189 95.6853L121.725 96.5164L125.881 108.834L128.344 108.003Z" fill="#131313"></path> <path d="M77.2066 80.9294L68.8952 56.2937L65.6736 57.3805C65.9339 59.4035 64.9316 62.0634 61.331 63.2782L60.7625 63.47L61.7215 66.3126L66.0801 64.8421L72.0899 82.6556L77.2066 80.9294ZM76.7264 72.6484C78.1329 76.8175 82.6971 79.7103 89.8984 77.2808C96.7206 74.9792 99.232 69.9104 97.4419 64.6042C95.8435 59.8666 91.2793 56.9738 85.2151 59.0197C81.425 60.2984 80.1455 63.2629 80.1455 63.2629L79.2011 57.4604L92.277 53.0489L90.8704 48.8798L73.2464 54.8257L75.6965 67.719L81.1329 66.9403C81.1329 66.9403 82.1991 64.4698 84.8522 63.5747C88.2633 62.4239 90.8616 63.8691 91.8206 66.7117C92.7796 69.5543 91.5878 72.2782 88.5557 73.3012C85.5237 74.3241 83.1788 73.0045 82.4116 70.7304L82.2198 70.1619L76.5346 72.0799L76.7264 72.6484Z" fill="#131313"></path> </g> <defs> <filter id="filter0_f_5798_84523" x="-91.953" y="10.4185" width="375.047" height="359.842" filterUnits="userSpaceOnUse" color-interpolation-filters="sRGB"> <feFlood flood-opacity="0" result="BackgroundImageFix"></feFlood> <feBlend mode="normal" in="SourceGraphic" in2="BackgroundImageFix" result="shape"></feBlend> <feGaussianBlur stdDeviation="25" result="effect1_foregroundBlur_5798_84523"></feGaussianBlur> </filter> <filter id="filter1_f_5798_84523" x="-174.827" y="-125.039" width="410.807" height="308.374" filterUnits="userSpaceOnUse" color-interpolation-filters="sRGB"> <feFlood flood-opacity="0" result="BackgroundImageFix"></feFlood> <feBlend mode="normal" in="SourceGraphic" in2="BackgroundImageFix" result="shape"></feBlend> <feGaussianBlur stdDeviation="15" result="effect1_foregroundBlur_5798_84523"></feGaussianBlur> </filter> </defs> </svg> 