<?xml version="1.0" encoding="UTF-8"?> <svg xmlns="http://www.w3.org/2000/svg" width="38" height="251" fill="none"> <path fill="#FF8F60" fill-rule="evenodd" d="M28 20a10 10 0 1 0 0-20 10 10 0 0 0 0 20Zm0-4a6 6 0 1 0 0-12 6 6 0 0 0 0 12ZM28 68a10 10 0 1 0 0-20 10 10 0 0 0 0 20Zm0-4a6 6 0 1 0 0-12 6 6 0 0 0 0 12ZM28 164a10 10 0 1 0 0-20 10 10 0 0 0 0 20Zm0-4a6 6 0 1 0 0-12 6 6 0 0 0 0 12ZM28 213a10 10 0 1 0 0-20 10 10 0 0 0 0 20Zm0-4a6 6 0 1 0 0-12 6 6 0 0 0 0 12Z" clip-rule="evenodd"></path> <path fill="#FF8F60" d="M16.2 12a12 12 0 0 1 0-4l-6.8.1c-1.5.1-2.8.4-4 1a10 10 0 0 0-4.3 4.4c-.6 1.1-.9 2.4-1 3.9a71 71 0 0 0-.1 5.3v22.6l.1 5.3c.1 1.5.4 2.8 1 4l1.4 2a12 12 0 0 1 3.7-2 6 6 0 0 1-1.5-1.9c-.3-.5-.5-1.2-.6-2.4L4 45.2V22.8l.1-5c.1-1.3.3-2 .6-2.5a6 6 0 0 1 2.6-2.6c.5-.3 1.2-.5 2.4-.6 2.2-.2 4.3-.1 6.5-.1ZM3.8 58.1a10 10 0 0 1 5.7-2 90 90 0 0 1 6.7-.1 12 12 0 0 0 0 4h-1.4l-5 .1c-1.3.1-2 .3-2.5.6a6 6 0 0 0-2.6 2.6c-.3.5-.5 1.2-.6 2.4L4 70.8v70.4l.1 5c.1 1.3.3 2 .6 2.5a6 6 0 0 0 1.5 2c-.6.1-1.1.3-1.6.6-.8.4-1.5.8-2 1.3a10 10 0 0 1-1.5-2c-.6-1.2-.9-2.5-1-4a71 71 0 0 1-.1-5.3v-69l.1-6.8c.2-1.8.5-3 1-4A10 10 0 0 1 3.8 58ZM14.8 156h1.4a12 12 0 0 1 0-4l-6.7.1c-2.1.2-4 .7-5.7 2-1.1 1-2 2-2.7 3.4-.5 1-.8 2.2-1 4l-.1 6.8v22l.1 5.3c.1 1.5.4 2.8 1 4l1.4 2a12 12 0 0 1 3.7-2 6 6 0 0 1-1.5-1.9c-.3-.5-.5-1.2-.6-2.4l-.1-5.1v-23.4l.1-5c.1-1.3.3-2 .6-2.5a6 6 0 0 1 2.6-2.6c.5-.3 1.2-.5 2.4-.6a70 70 0 0 1 5.1-.1ZM3.8 203.1a10 10 0 0 1 5.7-2l6.7-.1a12 12 0 0 0 0 4h-1.4a70 70 0 0 0-5 .1c-1.3.1-2 .3-2.5.6a6 6 0 0 0-2.6 2.6c-.3.5-.5 1.2-.6 2.4l-.1 5.1V251H0v-33.7l.1-6.8c.2-1.8.5-3 1-4a10 10 0 0 1 2.7-3.4Z"></path> </svg> 