<?xml version="1.0" encoding="UTF-8"?> <svg xmlns="http://www.w3.org/2000/svg" width="154" height="154" viewBox="0 0 154 154" fill="none"> <path d="M108.223 6.66189L66.349 0.776849L64.8854 11.1905L43.9514 8.24843L42.4878 18.6621L30.8953 17.0329L29.4317 27.4465L17.8367 25.817L14.8916 46.7723L6.6799 45.6183L0.753735 87.7851L8.96219 88.9388L6.01711 109.894L17.6114 111.524L15.919 122.35L28.0384 124.053L26.6055 134.249L47.2225 136.924L45.759 147.338L87.6332 153.223L89.0967 142.809L110.032 145.751L111.496 135.338L123.088 136.967L124.552 126.553L136.149 128.183L139.094 107.228L147.313 108.383L153.24 66.2159L145.024 65.0612L147.969 44.1059L136.372 42.476L137.836 32.0624L126.236 30.4322L127.7 20.0185L106.76 17.0756L108.223 6.66189Z" fill="#EF6446"></path> <path d="M19.3775 57.7672L27.1967 58.8661C30.7458 59.3649 34.3648 60.9762 33.7802 65.1353C33.5153 67.0208 32.0614 68.513 30.9104 69.0581C32.3341 69.9933 33.6322 71.4199 33.2464 74.1649C32.6346 78.5181 28.8356 79.5959 24.7042 79.0153L16.5523 77.8696L19.3775 57.7672ZM22.1774 66.6149L26.2811 67.1917C28.1388 67.4528 29.4042 66.6975 29.6497 64.9507C29.8719 63.3702 28.8398 62.2638 27.0098 62.0066L22.9061 61.4299L22.1774 66.6149ZM20.9538 75.3214L25.3347 75.9371C27.6361 76.2605 28.941 75.426 29.1982 73.596C29.4593 71.7382 28.4389 70.5486 25.9711 70.2018L21.7565 69.6095L20.9538 75.3214ZM38.8548 74.4724C38.6904 77.0507 40.2896 78.5478 42.0919 78.8011C43.2564 78.9648 44.5071 78.7164 45.4667 77.5223L49.404 78.0757C48.2881 80.1809 45.7508 82.3408 41.7026 81.7718C36.9058 81.0977 34.608 77.1272 35.212 72.8295C35.8355 68.3931 39.377 65.5261 43.7856 66.1457C48.3884 66.7925 50.7694 70.7746 49.8626 76.0195L38.8548 74.4724ZM39.2804 71.8461L46.351 72.8398C46.6224 70.3049 44.9725 69.1682 43.3643 68.9422C41.9225 68.7396 39.9362 69.3935 39.2804 71.8461ZM61.1321 73.5034C61.0302 72.2167 59.9903 71.1658 58.2435 70.9203C56.8294 70.7215 55.7572 71.1081 55.6286 72.0231C55.5156 72.8272 56.0121 73.519 57.3833 74.0227L59.3174 74.747C62.1907 75.8294 64.6087 76.9326 64.1761 80.0104C63.7553 83.005 60.4203 84.4024 57.0376 83.927C53.3775 83.4126 50.8698 81.1375 50.9886 77.6763L54.6764 78.1946C54.6956 79.6676 55.5695 80.8932 57.5382 81.1698C59.1741 81.3998 60.3135 80.9378 60.4654 79.8565C60.6213 78.7474 59.5191 78.1401 58.2826 77.6835L56.1307 76.9004C53.412 75.9246 51.7179 74.4989 52.0998 71.7816C52.4778 69.092 55.607 67.7505 58.8234 68.2025C61.9289 68.639 64.6931 70.4978 64.709 74.0061L61.1321 73.5034ZM69.0263 65.9041L72.8527 66.4419L72.2837 70.4901L75.3892 70.9265L75.019 73.5607L71.9135 73.1242L70.8302 80.8325C70.6159 82.3575 71.0998 82.7365 72.4585 82.9275L73.623 83.0911L73.2372 85.8361L70.4368 85.4426C67.0263 84.9633 66.5089 83.8161 66.9259 80.8492L68.0871 72.5864L65.9798 72.2903L66.35 69.6562L68.4573 69.9523L69.0263 65.9041ZM91.2207 88.3636L91.4857 86.4781C90.3131 87.9815 88.425 88.3382 86.8723 88.12C83.3232 87.6212 80.8127 84.1581 81.483 79.389C82.1415 74.703 85.4617 72.0028 89.0662 72.5094C90.9517 72.7744 92.4391 73.86 93.0483 75.3594L94.0459 68.2611L97.8723 68.7989L95.0471 88.9013L91.2207 88.3636ZM92.4076 80.9243C92.8285 77.9298 91.7032 75.8772 89.5959 75.581C87.6272 75.3044 85.9087 77.0704 85.4996 79.9818C85.0904 82.8931 86.2594 85.0367 88.2281 85.3134C90.3354 85.6095 91.979 83.9744 92.4076 80.9243ZM101.922 83.336C101.758 85.9142 103.357 87.4114 105.16 87.6647C106.324 87.8283 107.575 87.58 108.534 86.3859L112.472 86.9393C111.356 89.0445 108.819 91.2043 104.77 90.6354C99.9735 89.9613 97.6757 85.9908 98.2797 81.6931C98.9032 77.2567 102.445 74.3896 106.853 75.0092C111.456 75.6561 113.837 79.6382 112.93 84.8831L101.922 83.336ZM102.348 80.7097L109.419 81.7034C109.69 79.1685 108.04 78.0318 106.432 77.8058C104.99 77.6032 103.004 78.2571 102.348 80.7097ZM118.916 92.6235C116.06 92.2221 113.771 90.2039 114.153 87.4866C114.648 83.9652 118.761 83.4688 124.705 83.6255L124.74 83.376C125.063 81.0746 123.929 80.0952 122.376 79.8769C120.906 79.6704 119.577 80.2753 119.264 81.8995L115.687 81.3968C116.378 78.4967 119.122 76.6769 122.948 77.2146C126.497 77.7134 129.166 79.6437 128.457 84.6901C128.391 85.1615 128.059 87.1224 127.868 88.481C127.537 90.8378 127.516 92.1921 127.618 93.4788L124.096 92.9839C124.052 92.497 124.062 91.8198 124.108 91.0911C122.836 92.4958 121.162 92.9391 118.916 92.6235ZM124.473 86.0811C120.14 85.9247 118.351 86.1822 118.117 87.8458C117.965 88.9272 118.7 89.9353 120.419 90.1769C122.804 90.512 124.013 89.353 124.317 87.1902L124.473 86.0811ZM133.947 94.3683L130.12 93.8305L132.945 73.7281L136.772 74.2658L133.947 94.3683Z" fill="#FFF1BE"></path> </svg> 