<?xml version="1.0" encoding="UTF-8"?> <svg xmlns="http://www.w3.org/2000/svg" width="16" height="18" viewBox="0 0 16 18" fill="none"><g clip-path="url(#clip0_14104_3950)"><path fill-rule="evenodd" clip-rule="evenodd" d="M8 18.0029C12.4183 18.0029 16 14.4212 16 10.0029C16 5.58465 12.4183 2.00293 8 2.00293C3.58172 2.00293 0 5.58465 0 10.0029C0 14.4212 3.58172 18.0029 8 18.0029ZM6.70996 13.7055C6.70996 12.9598 7.27667 12.4229 7.9925 12.4229C8.72326 12.4229 9.28996 12.9598 9.28996 13.7055C9.28996 14.4512 8.72326 15.0029 7.9925 15.0029C7.27667 15.0029 6.70996 14.4512 6.70996 13.7055ZM7.46502 5.00293H8.53489C8.97368 5.00293 9.31875 5.37795 9.2823 5.81522L8.88821 10.544C8.86661 10.8031 8.64998 11.0024 8.38994 11.0024H7.61006C7.35002 11.0024 7.13338 10.8031 7.11178 10.544L6.71761 5.81523C6.68116 5.37796 7.02623 5.00293 7.46502 5.00293Z" fill="black" fill-opacity="0.83"></path></g><defs><clipPath id="clip0_14104_3950"><rect width="16" height="16" fill="white" transform="translate(0 2)"></rect></clipPath></defs></svg> 