<?xml version="1.0" encoding="UTF-8"?> <svg xmlns="http://www.w3.org/2000/svg" width="247" height="204" viewBox="0 0 247 204" fill="none"> <path d="M20 12L16.8 12C12.3196 12 10.0794 12 8.36808 12.8719C6.86278 13.6389 5.63894 14.8628 4.87195 16.3681C4 18.0794 4 20.3196 4 24.8L4 47.2C4 51.6804 4 53.9206 4.87195 55.6319C5.63893 57.1372 6.86278 58.3611 8.36807 59.1281C10.0794 60 12.3196 60 16.8 60L20 60" stroke="#FF8F60" stroke-width="4"></path> <path d="M20 60L16.8 60C12.3196 60 10.0794 60 8.36808 60.8719C6.86278 61.6389 5.63894 62.8628 4.87195 64.3681C4 66.0794 4 68.3196 4 72.8L4 143.2C4 147.68 4 149.921 4.87194 151.632C5.63893 153.137 6.86278 154.361 8.36807 155.128C10.0794 156 12.3196 156 16.8 156L20 156" stroke="#FF8F60" stroke-width="4"></path> <path d="M4 204L4 168.8C4 164.32 4 162.079 4.87195 160.368C5.63894 158.863 6.86278 157.639 8.36808 156.872C10.0794 156 12.3196 156 16.8 156L20 156" stroke="#FF8F60" stroke-width="4"></path> <circle cx="30" cy="12" r="11" stroke="white" stroke-width="2"></circle> <circle cx="30" cy="60" r="11" stroke="white" stroke-width="2"></circle> <circle cx="30" cy="156" r="11" stroke="white" stroke-width="2"></circle> <circle cx="30" cy="12" r="8" stroke="#FF8F60" stroke-width="4"></circle> <circle cx="30" cy="60" r="8" stroke="#FF8F60" stroke-width="4"></circle> <circle cx="30" cy="156" r="8" stroke="#FF8F60" stroke-width="4"></circle> <path d="M18 57V57C12.4047 57 9.6071 57 7.43043 57.994C5.02341 59.0933 3.0933 61.0234 1.99405 63.4304C1 65.6071 1 68.4047 1 74V74" stroke="white" stroke-width="2"></path> <path d="M18 153V153C12.4047 153 9.6071 153 7.43043 153.994C5.02341 155.093 3.0933 157.023 1.99405 159.43C1 161.607 1 164.405 1 170V170" stroke="white" stroke-width="2"></path> </svg> 