<?xml version="1.0" encoding="UTF-8"?> <svg xmlns="http://www.w3.org/2000/svg" width="1080" height="88" viewBox="0 0 1080 88" fill="none"> <path d="M1080 46H111.2C104.479 46 101.119 46 98.5521 47.3079C96.2942 48.4584 94.4584 50.2942 93.3079 52.5521C92 55.1191 92 58.4794 92 65.2V70" stroke="#FF8F60" stroke-width="4"></path> <path d="M12 22L12 26.8C12 33.5206 12 36.8809 13.3079 39.4479C14.4584 41.7058 16.2942 43.5416 18.5521 44.6921C21.1191 46 24.4794 46 31.2 46H72.8C79.5206 46 82.8809 46 85.4479 47.3079C87.7058 48.4584 89.5416 50.2942 90.6921 52.5521C92 55.1191 92 58.4794 92 65.2V70" stroke="#FF8F60" stroke-width="4"></path> <path d="M116 43H113C104.599 43 100.399 43 97.1901 44.6349C94.3677 46.073 92.073 48.3677 90.6349 51.1901C89 54.3988 89 58.5992 89 67V70" stroke="white" stroke-width="2"></path> <path d="M356 49H353C344.599 49 340.399 49 337.19 47.3651C334.368 45.927 332.073 43.6323 330.635 40.8099C329 37.6012 329 33.4008 329 25V22" stroke="white" stroke-width="2"></path> <path d="M676 49H673C664.599 49 660.399 49 657.19 47.3651C654.368 45.927 652.073 43.6323 650.635 40.8099C649 37.6012 649 33.4008 649 25V22" stroke="white" stroke-width="2"></path> <path d="M356 46H351.2C344.479 46 341.119 46 338.552 44.6921C336.294 43.5416 334.458 41.7058 333.308 39.4479C332 36.8809 332 33.5206 332 26.8L332 22" stroke="#FF8F60" stroke-width="4"></path> <path d="M676 46H671.2C664.479 46 661.119 46 658.552 44.6921C656.294 43.5416 654.458 41.7058 653.308 39.4479C652 36.8809 652 33.5206 652 26.8V22" stroke="#FF8F60" stroke-width="4"></path> <circle cx="12" cy="12" r="11" stroke="white" stroke-width="2"></circle> <circle cx="332" cy="12" r="11" stroke="white" stroke-width="2"></circle> <circle cx="652" cy="12" r="11" stroke="white" stroke-width="2"></circle> <circle cx="92" cy="76" r="8" stroke="#FF8F60" stroke-width="4"></circle> <circle cx="12" cy="12" r="8" stroke="#FF8F60" stroke-width="4"></circle> <circle cx="332" cy="12" r="8" stroke="#FF8F60" stroke-width="4"></circle> <circle cx="652" cy="12" r="8" stroke="#FF8F60" stroke-width="4"></circle> <circle cx="92" cy="76" r="11" stroke="white" stroke-width="2"></circle> </svg> 