<?xml version="1.0" encoding="UTF-8"?> <svg xmlns="http://www.w3.org/2000/svg" width="1080" height="92" viewBox="0 0 1080 92" fill="none"> <path d="M12 22L12 26.8C12 33.5206 12 36.8809 13.3079 39.4479C14.4584 41.7058 16.2942 43.5416 18.5521 44.6921C21.1191 46 24.4794 46 31.2 46H72.8C79.5206 46 82.8809 46 85.4479 47.3079C87.7058 48.4584 89.5416 50.2942 90.6921 52.5521C92 55.1191 92 58.4794 92 65.2V70" stroke="#FF8F60" stroke-width="4"></path> <path d="M1080 46H939.2C932.479 46 929.119 46 926.552 47.3079C924.294 48.4584 922.458 50.2942 921.308 52.5521C920 55.1191 920 58.4794 920 65.2V70" stroke="#FF8F60" stroke-width="4"></path> <path d="M92 70V65.2C92 58.4794 92 55.1191 93.3079 52.5521C94.4584 50.2942 96.2942 48.4584 98.5521 47.3079C101.119 46 104.479 46 111.2 46H900.8C907.521 46 910.881 46 913.448 47.3079C915.706 48.4584 917.542 50.2942 918.692 52.5521C920 55.1191 920 58.4794 920 65.2V70" stroke="#FF8F60" stroke-width="4"></path> <circle cx="92" cy="80" r="8" stroke="#FF8F60" stroke-width="4"></circle> <circle cx="92" cy="80" r="11" stroke="white" stroke-width="2"></circle> <circle cx="920" cy="80" r="11" stroke="white" stroke-width="2"></circle> <circle cx="12" cy="12" r="11" stroke="white" stroke-width="2"></circle> <circle cx="920" cy="80" r="8" stroke="#FF8F60" stroke-width="4"></circle> <circle cx="12" cy="12" r="8" stroke="#FF8F60" stroke-width="4"></circle> <path d="M116 43H113C104.599 43 100.399 43 97.1901 44.6349C94.3677 46.073 92.073 48.3677 90.6349 51.1901C89 54.3988 89 58.5992 89 67V70" stroke="white" stroke-width="2"></path> <path d="M944 43H941C932.599 43 928.399 43 925.19 44.6349C922.368 46.073 920.073 48.3677 918.635 51.1901C917 54.3988 917 58.5992 917 67V70" stroke="white" stroke-width="2"></path> </svg> 