<?xml version="1.0" encoding="UTF-8"?> <svg xmlns="http://www.w3.org/2000/svg" width="120" height="36" viewBox="0 0 120 36" fill="none"><path d="M70.6958 10.6801C70.3202 10.686 69.9472 10.6177 69.5982 10.479C69.2492 10.3403 68.931 10.134 68.662 9.87196C68.393 9.6099 68.1784 9.29725 68.0306 8.95198C67.8828 8.60671 67.8047 8.23563 67.8008 7.86008C67.8087 7.10682 68.1145 6.38733 68.6514 5.8589C69.1882 5.33046 69.9125 5.03607 70.6658 5.04008C72.3158 5.04008 73.6658 6.31508 73.6508 7.89008C73.6508 9.40508 72.3008 10.6801 70.6958 10.6801Z" fill="#1A1A1A"></path><path fill-rule="evenodd" clip-rule="evenodd" d="M104.431 5.13006H109.261V13.9801C109.369 13.8972 109.475 13.8136 109.581 13.7303C109.916 13.4666 110.246 13.2066 110.611 12.9901C111.43 12.4635 112.366 12.147 113.337 12.0685C114.308 11.99 115.283 12.152 116.176 12.5401C116.802 12.8138 117.367 13.2095 117.838 13.704C118.309 14.1985 118.677 14.7818 118.921 15.4201C119.611 16.9157 119.96 18.5457 119.945 20.1927C119.929 21.8396 119.549 23.4627 118.831 24.9451C118.328 26.1276 117.475 27.1272 116.386 27.8087C115.296 28.4901 114.024 28.8205 112.741 28.7551C112.09 28.7495 111.447 28.6063 110.855 28.3348C110.263 28.0634 109.735 27.6699 109.306 27.1801C109.256 27.1221 109.216 27.055 109.174 26.9863C109.141 26.9307 109.106 26.8738 109.066 26.8201L108.961 26.9101L108.811 27.5851C108.646 28.2601 108.361 28.5001 107.641 28.5151C106.93 28.5351 106.213 28.5284 105.498 28.5217C105.141 28.5184 104.785 28.5151 104.431 28.5151V5.13006ZM109.351 17.1451C109.296 17.2514 109.27 17.3704 109.276 17.4901V23.8201C109.276 23.9701 109.336 24.1501 109.426 24.2551C110.926 25.8901 113.581 25.3951 114.406 23.3551C114.811 22.3351 114.901 21.2851 114.886 20.2201C114.886 19.1701 114.826 18.1201 114.406 17.1451C114.106 16.4251 113.611 15.9001 112.801 15.7501C112.153 15.6479 111.49 15.7238 110.883 15.9695C110.275 16.2153 109.745 16.6216 109.351 17.1451Z" fill="#1A1A1A"></path><path d="M77.2508 28.5001V12.3001H80.2958C80.9258 12.3151 81.2708 12.6001 81.4658 13.2001L81.6758 13.9051C81.8396 13.7856 82.0007 13.6622 82.1619 13.5387C82.5471 13.2437 82.9328 12.9483 83.3558 12.7051C84.439 12.076 85.7227 11.888 86.9408 12.1801C88.3208 12.4801 89.1758 13.5751 89.7458 14.7751C89.7506 14.7727 89.7557 14.7704 89.7611 14.7679C89.7897 14.7546 89.8256 14.738 89.8508 14.7001C90.2551 14.0248 90.8061 13.449 91.463 13.0154C92.1199 12.5818 92.8659 12.3015 93.6458 12.1951C95.1554 11.8715 96.7306 12.0836 98.1008 12.7951C99.4958 13.5601 100.231 14.7901 100.531 16.2901C100.651 16.9351 100.726 17.6251 100.726 18.2851L100.741 28.5001H95.8658V18.4201C95.8658 18.0751 95.8658 17.7451 95.8058 17.4151C95.5958 16.3051 94.9508 15.7501 93.9008 15.7051C92.7158 15.6751 91.8308 16.2451 91.5758 17.2951C91.4708 17.6701 91.4408 18.0751 91.4408 18.4501V28.5001H86.5958V18.3751C86.5958 18.0301 86.5658 17.6551 86.5058 17.3101C86.3708 16.3501 85.7558 15.8101 84.7958 15.7201C84.3225 15.6797 83.8462 15.7464 83.4022 15.9152C82.9581 16.0839 82.5578 16.3505 82.2308 16.6951C82.1258 16.7851 82.0808 17.0101 82.0808 17.1601V28.5001H77.2508Z" fill="#1A1A1A"></path><path d="M56.1908 14.4601C55.3658 13.6351 54.4658 13.0051 53.4158 12.6001C51.7937 12.0037 50.0359 11.8789 48.3458 12.2401C47.2389 12.4075 46.1889 12.8401 45.2852 13.5008C44.3815 14.1616 43.651 15.0311 43.1558 16.0351C42.5409 17.252 42.1884 18.5844 42.1212 19.9462C42.054 21.3079 42.2736 22.6686 42.7658 23.9401C43.1176 24.9955 43.7163 25.9516 44.512 26.7291C45.3078 27.5065 46.2775 28.0828 47.3408 28.4101C48.7208 28.8601 50.1458 28.8301 51.5558 28.6051C53.4072 28.3372 55.0976 27.404 56.3108 25.9801C55.999 25.5413 55.6427 25.1202 55.2899 24.7032C55.1845 24.5786 55.0794 24.4544 54.9758 24.3301C54.4958 23.7301 53.8358 23.6701 53.2208 24.1201L52.5908 24.5851C50.7158 25.8751 48.3458 25.1851 47.5658 23.0251C46.9533 21.3253 46.9427 19.4668 47.5358 17.7601C48.0008 16.3351 49.0508 15.6601 50.5808 15.6301C51.4943 15.6568 52.3803 15.9486 53.1308 16.4701C53.8508 16.9201 54.3758 16.8301 54.9008 16.1701C55.3508 15.6001 55.7708 15.0301 56.1908 14.4601Z" fill="#1A1A1A"></path><path d="M63.9008 28.5001H59.1008V5.1451H63.9008V28.5001Z" fill="#1A1A1A"></path><path d="M68.2508 12.3001H73.0508V28.5001H68.2508V12.3001Z" fill="#1A1A1A"></path><path d="M25.2005 7.54506C24.5377 6.75106 23.7067 6.11438 22.7675 5.68113C21.8284 5.24788 20.8047 5.02891 19.7705 5.04006C18.841 5.02015 17.9181 5.20001 17.0641 5.56747C16.2102 5.93494 15.445 6.48145 14.8205 7.17006C10.3205 12.4201 5.82045 17.8801 1.36545 23.2951C0.900213 23.8624 0.637312 24.5686 0.618297 25.3021C0.599281 26.0355 0.825236 26.7544 1.26045 27.3451C2.34045 28.7251 3.46545 30.0451 4.63545 31.3351C5.41545 32.2051 6.99045 32.2801 7.69545 31.4701C9.31545 29.5951 11.0855 27.5101 12.7505 25.6051C13.7255 24.4801 15.0905 24.5401 16.0505 25.6801C16.6655 26.4301 17.2805 27.1801 17.9555 27.9001C19.0955 29.1001 20.8505 28.9951 21.9155 27.7201L25.7555 23.2051C26.7455 22.0351 28.0955 22.0351 29.1005 23.2051L30.1655 24.4501C31.0055 25.3951 32.1155 25.4101 32.9705 24.4801C33.4355 23.9551 33.9155 23.4301 34.3505 22.8751C35.3555 21.6301 35.4305 19.8301 34.4255 18.6001C31.3655 14.8501 28.3205 11.1901 25.2155 7.54506H25.2005Z" fill="#7D79FF"></path></svg> 