<?xml version="1.0" encoding="UTF-8"?> <svg xmlns="http://www.w3.org/2000/svg" width="108" height="25" viewBox="0 0 108 25" fill="none"><g clip-path="url(#clip0_14104_3854)"><path d="M18.6531 9.19547C16.5288 9.19547 15.3994 9.97483 15.3994 12.2336V19.4927H10.9629V5.02794H15.2373V7.77123C15.9098 6.07801 17.1202 5.00207 19.1893 4.92103C19.4049 4.92103 19.6463 4.92103 19.8618 4.94689V9.2765C19.3773 9.22305 19.0549 9.19547 18.6514 9.19547" fill="#1A1A1A"></path><path d="M21.6102 19.4945H26.0743V5.02794H21.6102V19.4945ZM21.6102 3.55025H26.0467V0H21.6102V3.55025Z" fill="#1A1A1A"></path><path d="M35.5716 16.4011C37.3459 16.4011 38.7977 14.9493 38.7977 12.2612C38.7977 9.57308 37.3459 8.14712 35.5716 8.14712C33.7973 8.14712 32.3714 9.27651 32.3714 12.2612C32.3714 15.2459 33.8232 16.4011 35.5716 16.4011ZM37.0234 4.7055C40.734 4.7055 43.3963 7.52811 43.3963 12.2612C43.3963 16.9943 40.734 19.8445 37.0234 19.8445C35.4371 19.8445 33.5283 19.1444 32.5869 17.5598V24.2017H28.1504V5.02794H32.5869V6.99014C33.5283 5.40382 35.4371 4.7055 37.0234 4.7055Z" fill="#1A1A1A"></path><path d="M49.2036 0H44.7671V19.4945H49.2036V0Z" fill="#1A1A1A"></path><path d="M61.2269 10.7007C61.1735 8.89889 59.8561 7.98504 58.1888 7.98504C56.63 7.98504 55.2041 8.79199 54.9627 10.7007H61.2269ZM58.3767 19.8428C53.6712 19.8428 50.4451 16.965 50.4451 12.1802C50.4451 7.39534 53.9678 4.59859 58.1888 4.59859C62.9753 4.59859 65.9325 8.25575 65.6376 13.3906H54.9092C55.0437 15.4338 56.63 16.4029 58.244 16.4029C59.8579 16.4029 60.9855 15.8114 61.4976 14.951H65.5842C64.2944 18.3651 61.2821 19.8445 58.3784 19.8445" fill="#1A1A1A"></path><path d="M87.9341 10.7007C87.8806 8.89889 86.5633 7.98504 84.8959 7.98504C83.3372 7.98504 81.9112 8.79199 81.6698 10.7007H87.9341ZM85.0839 19.8428C80.3783 19.8428 77.1523 16.965 77.1523 12.1802C77.1523 7.39534 80.6749 4.59859 84.8959 4.59859C89.6825 4.59859 92.6396 8.25575 92.343 13.3906H81.6146C81.7491 15.4338 83.3355 16.4029 84.9494 16.4029C86.5633 16.4029 87.691 15.8114 88.2031 14.951H92.2896C90.9981 18.3651 87.9875 19.8445 85.0839 19.8445" fill="#1A1A1A"></path><path d="M102.858 4.7055C106.568 4.7055 107.723 6.88324 107.723 10.8094V19.4945H103.287V11.9129C103.287 9.84206 103.206 8.14884 101.056 8.14884C99.1746 8.14884 98.3676 9.41272 98.3676 12.075V19.4962H93.9311V5.02794H98.3676V6.93669C99.0125 5.86075 100.599 4.7055 102.858 4.7055Z" fill="#1A1A1A"></path><path d="M71.6656 15.7735L71.6605 8.17298H76.078V5.02794H71.6605V1.07594H67.2239V11.537C67.2239 13.3475 67.3515 15.7735 70.8242 15.7735C70.8242 16.4029 71.5311 19.7807 76.5798 19.4738V15.7735H71.6656Z" fill="#1A1A1A"></path><path d="M4.44171 15.7735L4.43653 8.17298H8.8541V5.02794H4.43653V1.07594H0V11.537C0 13.3475 0.127596 15.7735 3.60027 15.7735C3.60027 16.4029 4.30721 19.7807 9.35586 19.4738V15.7735H4.44171Z" fill="#1A1A1A"></path></g><defs><clipPath id="clip0_14104_3854"><rect width="108" height="24.2017" fill="white"></rect></clipPath></defs></svg> 