<?xml version="1.0" encoding="UTF-8"?> <svg xmlns="http://www.w3.org/2000/svg" width="1078" height="88" viewBox="0 0 1078 88" fill="none"> <g clip-path="url(#clip0_741_35295)"> <path fill-rule="evenodd" clip-rule="evenodd" d="M650 20C652.652 20 655.196 18.9464 657.071 17.0711C658.946 15.1957 660 12.6522 660 10C660 7.34784 658.946 4.8043 657.071 2.92893C655.196 1.05357 652.652 0 650 0C647.348 0 644.804 1.05357 642.929 2.92893C641.054 4.8043 640 7.34784 640 10C640 12.6522 641.054 15.1957 642.929 17.0711C644.804 18.9464 647.348 20 650 20ZM650 16C651.591 16 653.117 15.3679 654.243 14.2426C655.368 13.1174 656 11.5913 656 10C656 8.4087 655.368 6.88258 654.243 5.75736C653.117 4.63214 651.591 4 650 4C648.409 4 646.883 4.63214 645.757 5.75736C644.632 6.88258 644 8.4087 644 10C644 11.5913 644.632 13.1174 645.757 14.2426C646.883 15.3679 648.409 16 650 16ZM10 88C12.6522 88 15.1957 86.9464 17.0711 85.0711C18.9464 83.1957 20 80.6522 20 78C20 75.3478 18.9464 72.8043 17.0711 70.9289C15.1957 69.0536 12.6522 68 10 68C7.34784 68 4.8043 69.0536 2.92893 70.9289C1.05357 72.8043 0 75.3478 0 78C0 80.6522 1.05357 83.1957 2.92893 85.0711C4.8043 86.9464 7.34784 88 10 88ZM10 84C11.5913 84 13.1174 83.3679 14.2426 82.2426C15.3679 81.1174 16 79.5913 16 78C16 76.4087 15.3679 74.8826 14.2426 73.7574C13.1174 72.6321 11.5913 72 10 72C8.4087 72 6.88258 72.6321 5.75736 73.7574C4.63214 74.8826 4 76.4087 4 78C4 79.5913 4.63214 81.1174 5.75736 82.2426C6.88258 83.3679 8.4087 84 10 84ZM490 88C492.652 88 495.196 86.9464 497.071 85.0711C498.946 83.1957 500 80.6522 500 78C500 75.3478 498.946 72.8043 497.071 70.9289C495.196 69.0536 492.652 68 490 68C487.348 68 484.804 69.0536 482.929 70.9289C481.054 72.8043 480 75.3478 480 78C480 80.6522 481.054 83.1957 482.929 85.0711C484.804 86.9464 487.348 88 490 88ZM490 84C491.591 84 493.117 83.3679 494.243 82.2426C495.368 81.1174 496 79.5913 496 78C496 76.4087 495.368 74.8826 494.243 73.7574C493.117 72.6321 491.591 72 490 72C488.409 72 486.883 72.6321 485.757 73.7574C484.632 74.8826 484 76.4087 484 78C484 79.5913 484.632 81.1174 485.757 82.2426C486.883 83.3679 488.409 84 490 84ZM180 78C180 80.6522 178.946 83.1957 177.071 85.0711C175.196 86.9464 172.652 88 170 88C167.348 88 164.804 86.9464 162.929 85.0711C161.054 83.1957 160 80.6522 160 78C160 75.3478 161.054 72.8043 162.929 70.9289C164.804 69.0536 167.348 68 170 68C172.652 68 175.196 69.0536 177.071 70.9289C178.946 72.8043 180 75.3478 180 78ZM176 78C176 79.5913 175.368 81.1174 174.243 82.2426C173.117 83.3679 171.591 84 170 84C168.409 84 166.883 83.3679 165.757 82.2426C164.632 81.1174 164 79.5913 164 78C164 76.4087 164.632 74.8826 165.757 73.7574C166.883 72.6321 168.409 72 170 72C171.591 72 173.117 72.6321 174.243 73.7574C175.368 74.8826 176 76.4087 176 78Z" fill="#FF8F60"></path> <path d="M648 23.0008V21.8008C649.324 22.0246 650.676 22.0246 652 21.8008V24.8008C652 28.2008 652 30.6008 652.2 32.5008C652.3 34.4008 652.6 35.5008 653.1 36.5008C654.061 38.3981 655.603 39.9394 657.5 40.9008C658.5 41.4008 659.6 41.7008 661.5 41.9008L669.2 42.0008H1078V46.0008H671C666.8 46.0008 663.7 46.0008 661.2 45.8008C658.8 45.6008 657.1 45.2008 655.6 44.5008C653.012 43.1434 650.914 41.0104 649.6 38.4008C648.8 36.9008 648.4 35.2008 648.2 32.8008C648 30.3008 648 27.2008 648 23.0008ZM647.7 39.3008L648.7 41.0008C647.514 42.4424 646.052 43.6324 644.4 44.5008C642.7 45.3008 641 45.7008 638.8 45.8008C636.8 46.0008 634.2 46.0008 630.8 46.0008H509.3C505.9 46.0008 503.5 46.0008 501.6 46.2008C499.7 46.3008 498.6 46.6008 497.6 47.1008C495.703 48.0622 494.161 49.6035 493.2 51.5008C492.7 52.5008 492.4 53.6008 492.2 55.5008C492.073 58.0654 492.039 60.6338 492.1 63.2008V66.2008C490.776 65.977 489.424 65.977 488.1 66.2008V65.0008C488.1 60.8008 488.1 57.7008 488.3 55.2008C488.5 53.0008 488.9 50.8008 490.1 48.8008C491.434 46.5448 493.374 44.7085 495.7 43.5008C497.2 42.8008 498.9 42.4008 501.3 42.2008C503.8 42.0008 506.9 42.0008 511.1 42.0008H630.9C634.3 42.0008 636.7 42.0008 638.6 41.8008C640.5 41.7008 641.6 41.4008 642.6 40.9008C644.43 39.9749 645.931 38.5086 646.9 36.7008C647.1 37.7008 647.4 38.5008 647.9 39.3008H647.7ZM488.8 47.0008C487.585 45.5486 486.088 44.3579 484.4 43.5008C482.7 42.7008 481 42.3008 478.8 42.2008C476.8 42.0008 474.2 42.0008 470.8 42.0008H191C186.8 42.0008 183.7 42.0008 181.2 42.2008C178.8 42.4008 177.1 42.8008 175.6 43.5008C173.274 44.7085 171.334 46.5448 170 48.8008C168.8 50.8008 168.4 53.0008 168.2 55.2008C168 57.7008 168 60.8008 168 65.0008V66.2008C169.324 65.977 170.676 65.977 172 66.2008V63.2008C172 59.8008 172 57.4008 172.2 55.5008C172.3 53.6008 172.6 52.5008 173.1 51.5008C174.061 49.6035 175.603 48.0622 177.5 47.1008C178.5 46.6008 179.6 46.3008 181.5 46.1008L189.2 46.0008H470.8C474.2 46.0008 476.6 46.0008 478.5 46.2008C480.4 46.3008 481.5 46.6008 482.5 47.1008C484.33 48.0267 485.831 49.4929 486.8 51.3008C487.181 49.7513 487.861 48.2908 488.8 47.0008ZM167.7 48.7008C167.3 49.5008 167 50.4008 166.8 51.3008C165.831 49.4929 164.33 48.0267 162.5 47.1008C161.5 46.6008 160.4 46.3008 158.5 46.1008C155.935 45.9733 153.367 45.94 150.8 46.0008H29.2C25.8 46.0008 23.4 46.0008 21.5 46.2008C19.6 46.3008 18.5 46.6008 17.5 47.1008C15.6027 48.0622 14.0614 49.6035 13.1 51.5008C12.6 52.5008 12.3 53.6008 12.1 55.5008C11.9725 58.0654 11.9392 60.6338 12 63.2008V66.2008C10.6761 65.977 9.32394 65.977 8 66.2008V63.2008C8 59.8008 8 57.2008 8.2 55.2008C8.3 53.0008 8.7 51.2008 9.5 49.6008C10.8574 47.0132 12.9904 44.9152 15.6 43.6008C17.3 42.7008 19 42.3008 21.2 42.2008C23.2 42.0008 25.8 42.0008 29.2 42.0008H150.9C154.2 42.0008 156.8 42.0008 158.9 42.2008C160.9 42.3008 162.7 42.7008 164.4 43.5008C166.1 44.4008 167.5 45.5008 168.7 47.0008C168.332 47.5463 167.998 48.1141 167.7 48.7008Z" fill="#FF8F60"></path> </g> <defs> <clipPath id="clip0_741_35295"> <rect width="1078" height="88" fill="white"></rect> </clipPath> </defs> </svg> 