<?xml version="1.0" encoding="UTF-8"?> <svg xmlns="http://www.w3.org/2000/svg" width="114" height="25" viewBox="0 0 114 25" fill="none"><path d="M68.6489 3.83789H65.2969V20.2395H68.6489V3.83789Z" fill="#052B42"></path><path fill-rule="evenodd" clip-rule="evenodd" d="M41.571 6.9408V3.83789H24.4688V20.2411H41.571V17.1404H27.8193V13.5785H40.08V10.4756H27.8193V6.9408H41.571ZM54.7044 3.85148L54.7006 3.84016H44.9971V20.2411H55.7123V20.2448C60.6543 20.2448 62.2677 18.3589 62.2677 15.5995C62.2677 13.2289 60.4897 11.9742 59.5974 11.7077C60.4935 11.118 61.2371 9.98936 61.2371 8.31409C61.2371 4.50302 57.568 3.86884 54.7067 3.85148H54.7044ZM55.2993 6.93703H48.3491V10.5473H55.7583C56.6666 10.5375 58.0202 10.2226 58.0202 8.86144C58.0202 7.50024 56.8372 6.93627 55.3008 6.93627L55.2993 6.93703ZM55.71 13.4547H48.3468V17.1389H55.7561C57.3053 17.1344 58.8001 16.8724 58.8001 15.324C58.8001 13.7748 57.1528 13.463 55.71 13.463V13.4554V13.4547Z" fill="#052B42"></path><path d="M111.954 12.3684C110.269 11.0208 108.83 10.9068 105.993 10.6177C105.666 10.5905 101.05 10.2069 100.701 10.176C97.5444 9.88533 97.7709 8.45996 97.7709 8.45996C97.7709 6.88434 100.958 6.75901 100.958 6.75901C103.604 6.49478 108.782 6.57027 109.105 8.89784H112.771V8.89557C112.442 4.30386 106.732 3.64251 103.067 3.5957C100.639 3.6561 97.9936 3.80256 95.8926 5.16226C93.5371 6.70919 93.7696 9.79021 95.2456 11.1718C95.8208 11.6701 96.6921 12.3511 98.4814 12.6847C99.3043 12.8357 100.653 13.0358 102.502 13.1672C102.502 13.1672 105.453 13.3469 106.086 13.3967C107.028 13.4699 109.249 13.5877 109.429 15.2033C109.621 16.9277 106.64 17.4267 103.58 17.4267C102.24 17.4176 100.875 17.3671 99.4651 16.9737C98.2722 16.634 97.5867 15.9364 97.4727 14.7737H93.8489C93.8436 19.7158 99.4862 20.4813 103.426 20.4813C106.11 20.4179 109.018 20.2306 111.344 18.7456C113.906 17.0741 113.639 13.827 111.952 12.3662L111.954 12.3684ZM75.9343 3.83729H72.3859V12.1933C72.3859 14.5057 74.253 15.722 76.3216 16.3622C76.0113 14.7428 75.932 12.7912 75.932 11.7848V3.83729H75.9343ZM91.165 12.1933V3.83729H87.6174V11.7848C87.6174 12.7927 87.5381 14.7428 87.2278 16.3622C89.2964 15.722 91.1635 14.505 91.1635 12.1933H91.165ZM81.7671 17.0605C78.2792 17.0605 76.3216 16.3622 76.3216 16.3622C76.4122 16.8386 76.5224 17.2878 76.6583 17.6736C77.2524 19.3745 78.8311 20.4526 81.7747 20.4526C84.7183 20.4526 86.2969 19.3745 86.8911 17.6743C87.027 17.2878 87.1372 16.8386 87.2278 16.3622C87.2278 16.3622 85.2974 17.0605 81.7671 17.0605ZM17.3987 3.84937V17.8283C17.3987 17.8283 20.7281 17.6275 20.7281 13.821V3.84937H17.3987ZM4.08331 20.2405V6.26149C4.08331 6.26149 0.753906 6.46231 0.753906 10.2689V20.2405H4.08331Z" fill="#052B42"></path><path d="M14.336 15.6691L10.1474 6.04099C9.46193 4.48274 8.34306 3.60547 6.75461 3.60547C5.16692 3.60547 4.08203 4.8874 4.08203 6.26069C4.08203 6.26069 6.0842 5.98286 7.14569 8.41838L11.3365 18.0472C12.0198 19.6032 13.1409 20.4828 14.7278 20.4828C16.3132 20.4828 17.4004 19.2001 17.4004 17.8275C17.4004 17.8275 15.3975 18.1046 14.336 15.6691Z" fill="#052B42"></path></svg> 