<?xml version="1.0" encoding="UTF-8"?> <svg xmlns="http://www.w3.org/2000/svg" width="478" height="159" viewBox="0 0 478 159" fill="none"><g filter="url(#filter0_d_4014_29194)"><path fill-rule="evenodd" clip-rule="evenodd" d="M159.197 94.5882C149.477 106.439 134.72 114 118.197 114C103.32 114 89.8753 107.871 80.2494 98.0002L26.0034 98C24.3921 98 23.4423 96.1921 24.3565 94.8652L43.7154 66.7695C44.6569 65.403 44.6569 63.597 43.7154 62.2305L24.3566 34.1348C23.4423 32.8079 24.3922 31 26.0035 31L74.4984 31.0001C84.0536 17.1084 100.061 8 118.197 8C134.72 8 149.477 15.561 159.197 27.4118C168.916 15.561 183.674 8 200.197 8C214.768 8 227.967 13.8806 237.548 23.398C238.507 20.097 241.348 17.5289 244.981 17.0427C253.071 15.96 269.202 14.0115 280.825 14.0001C292.695 13.9884 309.191 15.9602 317.4 17.0481C320.21 17.4205 322.548 19.0388 323.91 21.2793C333.257 13.0155 345.543 8 359 8C377.135 8 393.143 17.1084 402.698 31.0001L451.193 31C452.804 31 453.754 32.8079 452.84 34.1348L433.481 62.2305C432.54 63.597 432.54 65.403 433.481 66.7695L452.84 94.8652C453.754 96.1921 452.804 98 451.193 98L396.947 98.0002C387.321 107.871 373.876 114 359 114C344.067 114 330.576 107.824 320.943 97.8871L283.79 118.246C281.941 119.259 279.692 119.251 277.851 118.224L241.046 97.6884C240.478 97.3714 239.961 96.9882 239.504 96.5519C229.806 107.268 215.788 114 200.197 114C183.674 114 168.916 106.439 159.197 94.5882Z" fill="white"></path></g><defs><filter id="filter0_d_4014_29194" x="0" y="0" width="477.195" height="159" filterUnits="userSpaceOnUse" color-interpolation-filters="sRGB"><feFlood flood-opacity="0" result="BackgroundImageFix"></feFlood><feColorMatrix in="SourceAlpha" type="matrix" values="0 0 0 0 0 0 0 0 0 0 0 0 0 0 0 0 0 0 127 0" result="hardAlpha"></feColorMatrix><feOffset dy="16"></feOffset><feGaussianBlur stdDeviation="12"></feGaussianBlur><feComposite in2="hardAlpha" operator="out"></feComposite><feColorMatrix type="matrix" values="0 0 0 0 0 0 0 0 0 0 0 0 0 0 0 0 0 0 0.14 0"></feColorMatrix><feBlend mode="normal" in2="BackgroundImageFix" result="effect1_dropShadow_4014_29194"></feBlend><feBlend mode="normal" in="SourceGraphic" in2="effect1_dropShadow_4014_29194" result="shape"></feBlend></filter></defs></svg> 