<?xml version="1.0" encoding="UTF-8"?> <svg xmlns="http://www.w3.org/2000/svg" width="16" height="17" viewBox="0 0 16 17" fill="none"><g clip-path="url(#clip0_2089_37790)"><path d="M14.5474 1.99414H7.66797C7.66797 2.81777 7.99515 3.60766 8.57754 4.19005C9.15993 4.77244 9.94982 5.09962 10.7734 5.09962H12.0407V6.32319C12.0418 8.03674 13.4306 9.4256 15.1442 9.42671V2.59093C15.1442 2.26143 14.8771 1.99414 14.5474 1.99414Z" fill="#2684FF"></path><path d="M11.1411 5.42383H4.26172C4.26278 7.13738 5.65158 8.52623 7.36518 8.52735H8.63246V9.75484C8.63464 11.4684 10.0244 12.8563 11.7379 12.8563V6.02073C11.7379 5.69111 11.4707 5.42383 11.1411 5.42383Z" fill="url(#paint0_linear_2089_37790)"></path><path d="M7.73489 8.84961H0.855469C0.855469 10.5647 2.24589 11.9551 3.96095 11.9551H5.23219V13.1786C5.23331 14.8906 6.6197 16.2788 8.33174 16.2821V9.44646C8.33174 9.11684 8.06451 8.84961 7.73489 8.84961Z" fill="url(#paint1_linear_2089_37790)"></path></g><defs><linearGradient id="paint0_linear_2089_37790" x1="1875.53" y1="8.8457" x2="1133.38" y2="876.156" gradientUnits="userSpaceOnUse"><stop offset="0.18" stop-color="#0052CC"></stop><stop offset="1" stop-color="#2684FF"></stop></linearGradient><linearGradient id="paint1_linear_2089_37790" x1="1922.42" y1="18.52" x2="1063.95" y2="964.484" gradientUnits="userSpaceOnUse"><stop offset="0.18" stop-color="#0052CC"></stop><stop offset="1" stop-color="#2684FF"></stop></linearGradient><clipPath id="clip0_2089_37790"><rect width="16" height="16" fill="white" transform="translate(0 0.28125)"></rect></clipPath></defs></svg> 