<?xml version="1.0" encoding="UTF-8"?> <svg xmlns="http://www.w3.org/2000/svg" width="97" height="17" viewBox="0 0 97 17" fill="none"><path d="M3.76852 3.30471H6.14321C7.02081 3.30471 8.1049 3.30471 8.72438 4.13462C8.93088 4.39397 9.08575 4.75705 9.13737 5.48322C9.13737 6.77996 8.62114 7.55799 7.33055 7.76547C6.96918 7.81734 6.71106 7.81734 6.03996 7.81734H3.76852V3.30471ZM0 0.503774V15.5459H3.76852V10.6183H6.29808C8.46627 10.5664 10.5828 10.4627 11.9767 8.43977C12.8026 7.24678 12.8543 5.95005 12.8543 5.43135C12.8543 3.92715 12.338 2.83789 12.0283 2.37107C11.7702 2.00798 11.5121 1.74864 11.3572 1.6449C10.2215 0.659381 8.87926 0.503774 7.43379 0.451904L0 0.503774Z" fill="#808080"></path><path d="M16.8804 10.4626C17.2418 9.2177 17.6547 7.97284 18.0161 6.72797C18.2742 5.8462 18.4807 4.96442 18.7388 4.08264L20.7005 10.4626H16.8804ZM20.7522 0.503662H16.8288L11.2534 15.5457H15.2284L15.9512 13.1598H21.5781L22.3009 15.5457H26.2759L20.7522 0.503662Z" fill="#808080"></path><path d="M31.1813 0.503662L34.4336 6.05367C35.2079 7.40227 35.9823 8.80275 36.705 10.1513L36.5501 0.503662H40.1638V15.5457H36.4985L33.7108 10.7738C33.2462 10.0476 32.7816 9.26957 32.3686 8.49153C31.904 7.71349 31.5426 6.88358 31.078 6.10554L31.1813 15.5976H27.5676V0.555531L31.1813 0.503662Z" fill="#808080"></path><path d="M53.0175 0.503662V3.46021H49.1458V15.5457H45.3772V3.46021H41.4539V0.503662H53.0175Z" fill="#808080"></path><path d="M64.3237 8.38795C64.2721 9.58094 63.9623 10.7739 63.1363 11.7076C62.2071 12.6931 61.0198 12.8487 60.5552 12.8487C59.5743 12.8487 58.6967 12.4856 58.0256 11.7595C57.4061 11.0852 56.7866 9.9959 56.7866 7.92113C56.7866 6.31318 57.3029 4.44589 58.8 3.61598C59.0581 3.46037 59.6259 3.20102 60.4519 3.20102C60.71 3.20102 61.2779 3.20102 61.8974 3.46037C62.7234 3.82345 63.1363 4.34215 63.3428 4.60149C63.8075 5.22392 64.3753 6.52066 64.3237 8.38795ZM65.2529 14.4567C67.1114 12.9524 68.0922 10.4627 68.0922 8.18047C68.0922 6.1057 67.2662 3.66785 65.8208 2.16364C65.0464 1.33373 63.2912 0.0888672 60.4519 0.0888672C56.9931 0.0888672 55.2379 2.00803 54.4636 3.14915C53.173 5.06832 53.0181 7.24683 53.0181 8.02487C53.0181 8.90664 53.1214 11.7595 55.1863 13.938C57.0964 15.9609 59.5743 16.1165 60.5035 16.1165C62.9815 16.0127 64.4269 15.131 65.2529 14.4567Z" fill="#808080"></path><path d="M73.5635 0.503662L76.8158 6.05367C77.5902 7.40227 78.3645 8.80275 79.0873 10.1513L78.9324 0.503662H82.546V15.5457H78.8808L76.0931 10.7738C75.6285 10.0476 75.1639 9.26957 74.7509 8.49153C74.2863 7.71349 73.9249 6.88358 73.4603 6.10554L73.5635 15.5976H69.9499V0.555531L73.5635 0.503662Z" fill="#808080"></path><path d="M96.0719 0.503662V3.40834H88.7414V6.15741H95.6073V9.01022H88.7414V12.5892H96.743V15.5457H84.9728V0.503662H96.0719Z" fill="#808080"></path></svg> 