<?xml version="1.0" encoding="UTF-8"?> <svg xmlns="http://www.w3.org/2000/svg" width="122" height="30" viewBox="0 0 122 30" fill="none"><g clip-path="url(#clip0_2089_37640)"><mask id="mask0_2089_37640" style="mask-type:luminance" maskUnits="userSpaceOnUse" x="0" y="0" width="122" height="30"><path d="M122 0.304688H0V29.0669H122V0.304688Z" fill="white"></path></mask><g mask="url(#mask0_2089_37640)"><path d="M53.933 6.80932V4.04297H46.9101H43.5396H36.5508V6.80932H43.5396V25.4229H46.9101V6.80932H53.933Z" fill="#1E2126"></path><path d="M63.2358 10.5022C62.0153 9.86331 60.6486 9.54521 59.2671 9.57855H59.1125C57.7487 9.55165 56.4013 9.87537 55.203 10.5179C54.065 11.1427 53.1436 12.0901 52.558 13.2371C51.8991 14.5886 51.5777 16.0761 51.6211 17.575V17.7992C51.5817 19.2772 51.9088 20.7424 52.574 22.0675C53.1598 23.2092 54.0743 24.155 55.203 24.7869C56.3981 25.431 57.7438 25.7548 59.1058 25.7261H59.2604C60.6436 25.7592 62.0116 25.4353 63.2289 24.7869C64.3665 24.1613 65.2939 23.2216 65.8967 22.0832C66.581 20.7535 66.9163 19.2761 66.8723 17.7857V17.5616C66.9166 16.0539 66.5839 14.5588 65.9034 13.208C65.3072 12.0645 64.3783 11.1224 63.2358 10.5022ZM63.4381 17.7857C63.4773 18.8246 63.3016 19.8603 62.9219 20.8301C62.6416 21.5362 62.1396 22.1355 61.4892 22.5405C60.8136 22.9219 60.0453 23.1141 59.2671 23.0965H59.1125C58.3466 23.1194 57.5896 22.9282 56.9293 22.545C56.2909 22.1308 55.8038 21.5258 55.5397 20.8188C55.1853 19.8539 55.0209 18.8314 55.0552 17.8059V17.5616C55.0235 16.5317 55.1879 15.5052 55.5397 14.5351C55.8026 13.8204 56.2892 13.2065 56.9293 12.7821C57.5856 12.3876 58.3442 12.1897 59.1125 12.2126H59.2671C60.0439 12.1929 60.8112 12.3844 61.4846 12.7664C62.1414 13.1762 62.6445 13.7862 62.9173 14.5037C63.2835 15.4815 63.4534 16.52 63.4177 17.5616L63.4381 17.7857Z" fill="#1E2126"></path><path d="M72.9356 4.04102H69.6289V25.4186H72.9356V4.04102Z" fill="#1E2126"></path><path d="M87.3361 10.5022C86.116 9.86291 84.7491 9.54478 83.3676 9.57862H83.213C81.8499 9.55263 80.5035 9.87631 79.3058 10.5179C78.1704 11.1449 77.251 12.0918 76.6652 13.2372C76.0069 14.5889 75.6865 16.0762 75.7306 17.575V17.7992C75.6877 19.2802 76.0142 20.7488 76.6813 22.0765C77.2673 23.2143 78.18 24.1569 79.3058 24.7869C80.5011 25.4307 81.8466 25.7546 83.2084 25.7261H83.363C84.7464 25.7592 86.1144 25.4354 87.3317 24.7869C88.4677 24.1607 89.3933 23.221 89.9948 22.0833C90.6789 20.7534 91.015 19.2763 90.9728 17.7857V17.5616C91.0129 16.0541 90.6771 14.56 89.9948 13.2103C89.402 12.0668 88.4762 11.1238 87.3361 10.5022ZM87.5386 17.7857C87.5777 18.8246 87.4022 19.8603 87.0223 20.8301C86.742 21.5363 86.24 22.1356 85.5895 22.5405C84.922 22.9116 84.1655 23.0982 83.3995 23.0808H83.2449C82.4788 23.1037 81.7218 22.9125 81.0615 22.5294C80.4225 22.1157 79.9354 21.5106 79.6719 20.8033C79.3131 19.8378 79.1449 18.8136 79.1762 17.7857V17.5459C79.144 16.5154 79.3082 15.488 79.6605 14.5173C79.9222 13.8018 80.4091 13.1876 81.0501 12.7642C81.7063 12.3691 82.4648 12.1704 83.2334 12.1925H83.3995C84.1765 12.1725 84.944 12.3649 85.6168 12.7485C86.2711 13.1614 86.7702 13.7739 87.0383 14.4926C87.4089 15.4732 87.5819 16.5157 87.5476 17.5616L87.5386 17.7857Z" fill="#1E2126"></path><path d="M107.357 9.94588H103.582L97.0614 16.7765V4.04102H93.75V25.4209H97.0614V17.9737L103.864 25.4209H107.98L100.368 17.1756L107.357 9.94588Z" fill="#1E2126"></path><path d="M121.79 24.1569C121.719 23.6172 121.683 23.0737 121.683 22.5294V14.9948C121.683 13.0669 121.121 11.6814 119.996 10.8385C118.871 9.99562 117.286 9.57566 115.242 9.57864H115.151C113.945 9.56808 112.743 9.71891 111.578 10.027C110.758 10.2194 109.965 10.514 109.22 10.9035V13.8873C109.657 13.5422 110.153 13.2772 110.685 13.105C111.368 12.8632 112.069 12.6736 112.781 12.5378C113.495 12.3881 114.222 12.313 114.951 12.3136H115.074C115.944 12.2572 116.81 12.4662 117.555 12.9122C118.128 13.3112 118.414 14.0233 118.413 15.0486V15.9699H115.911C113.415 15.9699 111.538 16.3706 110.28 17.1716C109.021 17.9726 108.393 19.1921 108.395 20.8301V20.987C108.395 22.4815 108.883 23.6398 109.859 24.4619C110.903 25.3048 112.224 25.7418 113.573 25.6903H113.759C114.75 25.7241 115.734 25.5244 116.63 25.1074C117.414 24.7071 118.056 24.0817 118.472 23.314C118.47 23.7363 118.506 24.1578 118.579 24.574C118.625 24.8733 118.715 25.1648 118.845 25.4393H122.065C121.93 25.022 121.837 24.5924 121.79 24.1569ZM118.408 20.8974C118.146 21.5496 117.664 22.0928 117.044 22.4353C116.319 22.8408 115.495 23.0424 114.662 23.0182H114.535C113.792 23.0612 113.054 22.8678 112.431 22.4666C112.179 22.2837 111.976 22.0416 111.842 21.762C111.709 21.4825 111.648 21.1746 111.665 20.8659V20.7539C111.637 20.3802 111.72 20.0068 111.904 19.6787C112.088 19.3509 112.364 19.0826 112.7 18.9066C113.398 18.5391 114.474 18.3508 115.931 18.3508H118.408V20.8974Z" fill="#1E2126"></path><mask id="mask1_2089_37640" style="mask-type:luminance" maskUnits="userSpaceOnUse" x="0" y="0" width="29" height="30"><path d="M28.7623 0.304688H0V29.0669H28.7623V0.304688Z" fill="white"></path></mask><g mask="url(#mask1_2089_37640)"><path fill-rule="evenodd" clip-rule="evenodd" d="M14.3792 0.916016C14.5821 0.916016 14.7466 1.08052 14.7466 1.28345V10.9621C14.7466 11.165 14.5821 11.3295 14.3792 11.3295C14.1762 11.3295 14.0117 11.165 14.0117 10.9621V1.28345C14.0117 1.08052 14.1762 0.916016 14.3792 0.916016Z" fill="#1E2126"></path><path fill-rule="evenodd" clip-rule="evenodd" d="M9.11364 1.96557C9.3011 1.8879 9.51605 1.97693 9.59371 2.16442L13.2977 11.1063C13.3754 11.2938 13.2864 11.5087 13.0989 11.5864C12.9114 11.664 12.6965 11.575 12.6188 11.3875L8.91479 2.44564C8.83712 2.25816 8.92615 2.04322 9.11364 1.96557Z" fill="#1E2126"></path><path fill-rule="evenodd" clip-rule="evenodd" d="M4.64668 4.94942C4.79017 4.80592 5.02282 4.80592 5.16631 4.94942L12.0103 11.7934C12.1538 11.9369 12.1538 12.1695 12.0103 12.313C11.8668 12.4565 11.6342 12.4565 11.4906 12.313L4.64668 5.46905C4.50319 5.32555 4.50319 5.09291 4.64668 4.94942Z" fill="#1E2126"></path><path fill-rule="evenodd" clip-rule="evenodd" d="M1.66088 9.41636C1.73854 9.22888 1.95348 9.13987 2.14096 9.21752L11.0828 12.9215C11.2703 12.9992 11.3593 13.2141 11.2817 13.4016C11.204 13.5891 10.9891 13.6781 10.8016 13.6004L1.85972 9.89643C1.67225 9.81878 1.58322 9.60385 1.66088 9.41636Z" fill="#1E2126"></path><path fill-rule="evenodd" clip-rule="evenodd" d="M0.613281 14.6858C0.613281 14.4829 0.777786 14.3184 0.980713 14.3184H10.6593C10.8622 14.3184 11.0268 14.4829 11.0268 14.6858C11.0268 14.8887 10.8622 15.0532 10.6593 15.0532H0.980713C0.777786 15.0532 0.613281 14.8887 0.613281 14.6858Z" fill="#1E2126"></path><path fill-rule="evenodd" clip-rule="evenodd" d="M11.2817 15.9691C11.3593 16.1567 11.2703 16.3715 11.0828 16.4492L2.14096 20.1532C1.95348 20.2309 1.73854 20.1418 1.66088 19.9544C1.58322 19.7669 1.67225 19.5519 1.85972 19.4743L10.8016 15.7702C10.9891 15.6926 11.204 15.7817 11.2817 15.9691Z" fill="#1E2126"></path><path fill-rule="evenodd" clip-rule="evenodd" d="M12.0103 17.0587C12.1538 17.2022 12.1538 17.4349 12.0103 17.5784L5.16631 24.4223C5.02282 24.5658 4.79017 24.5658 4.64668 24.4223C4.50319 24.2788 4.50319 24.0462 4.64668 23.9027L11.4906 17.0587C11.6342 16.9153 11.8668 16.9153 12.0103 17.0587Z" fill="#1E2126"></path><path fill-rule="evenodd" clip-rule="evenodd" d="M13.0989 17.7859C13.2864 17.8635 13.3754 18.0785 13.2977 18.2659L9.59371 27.2079C9.51605 27.3953 9.3011 27.4844 9.11364 27.4068C8.92615 27.329 8.83712 27.1141 8.91479 26.9266L12.6188 17.9847C12.6965 17.7973 12.9114 17.7082 13.0989 17.7859Z" fill="#1E2126"></path><path fill-rule="evenodd" clip-rule="evenodd" d="M14.3792 18.041C14.5821 18.041 14.7466 18.2056 14.7466 18.4084V28.0871C14.7466 28.2899 14.5821 28.4545 14.3792 28.4545C14.1762 28.4545 14.0117 28.2899 14.0117 28.0871V18.4084C14.0117 18.2056 14.1762 18.041 14.3792 18.041Z" fill="#1E2126"></path><path fill-rule="evenodd" clip-rule="evenodd" d="M15.6644 17.7859C15.8518 17.7082 16.0668 17.7973 16.1445 17.9847L19.8485 26.9266C19.9262 27.1141 19.8371 27.329 19.6497 27.4068C19.4621 27.4844 19.2472 27.3953 19.1696 27.2079L15.4655 18.2659C15.3879 18.0785 15.477 17.8635 15.6644 17.7859Z" fill="#1E2126"></path><path fill-rule="evenodd" clip-rule="evenodd" d="M16.7522 17.0587C16.8957 16.9153 17.1282 16.9153 17.2717 17.0587L24.1158 23.9027C24.2591 24.0462 24.2591 24.2788 24.1158 24.4223C23.9723 24.5658 23.7396 24.5658 23.5961 24.4223L16.7522 17.5784C16.6087 17.4349 16.6087 17.2022 16.7522 17.0587Z" fill="#1E2126"></path><path fill-rule="evenodd" clip-rule="evenodd" d="M17.4812 15.9691C17.5588 15.7817 17.7737 15.6926 17.9613 15.7702L26.9031 19.4743C27.0905 19.5519 27.1796 19.7669 27.102 19.9544C27.0243 20.1418 26.8093 20.2309 26.6219 20.1532L17.68 16.4492C17.4925 16.3715 17.4036 16.1567 17.4812 15.9691Z" fill="#1E2126"></path><path fill-rule="evenodd" clip-rule="evenodd" d="M17.7344 14.6858C17.7344 14.4829 17.8989 14.3184 18.1019 14.3184H27.7805C27.9834 14.3184 28.1478 14.4829 28.1478 14.6858C28.1478 14.8887 27.9834 15.0532 27.7805 15.0532H18.1019C17.8989 15.0532 17.7344 14.8887 17.7344 14.6858Z" fill="#1E2126"></path><path fill-rule="evenodd" clip-rule="evenodd" d="M27.102 9.41636C27.1796 9.60385 27.0905 9.81878 26.9031 9.89643L17.9613 13.6004C17.7737 13.6781 17.5588 13.5891 17.4812 13.4016C17.4036 13.2141 17.4925 12.9992 17.68 12.9215L26.6219 9.21752C26.8093 9.13987 27.0243 9.22888 27.102 9.41636Z" fill="#1E2126"></path><path fill-rule="evenodd" clip-rule="evenodd" d="M24.1158 4.94942C24.2593 5.09291 24.2593 5.32555 24.1158 5.46905L17.2717 12.313C17.1282 12.4565 16.8957 12.4565 16.7522 12.313C16.6087 12.1695 16.6087 11.9369 16.7522 11.7934L23.5961 4.94942C23.7396 4.80592 23.9723 4.80592 24.1158 4.94942Z" fill="#1E2126"></path><path fill-rule="evenodd" clip-rule="evenodd" d="M19.6497 1.96557C19.8371 2.04322 19.9262 2.25816 19.8485 2.44564L16.1445 11.3875C16.0668 11.575 15.8518 11.664 15.6644 11.5864C15.477 11.5087 15.3879 11.2938 15.4655 11.1063L19.1696 2.16442C19.2472 1.97693 19.4621 1.8879 19.6497 1.96557Z" fill="#1E2126"></path><path fill-rule="evenodd" clip-rule="evenodd" d="M14.3822 0.304688C14.9233 0.304688 15.362 0.743367 15.362 1.28451V6.0332C15.362 6.57434 14.9233 7.01303 14.3822 7.01303C13.841 7.01303 13.4023 6.57434 13.4023 6.0332V1.28451C13.4023 0.743367 13.841 0.304688 14.3822 0.304688Z" fill="#1E2126"></path><path fill-rule="evenodd" clip-rule="evenodd" d="M8.87855 1.40101C9.3785 1.19393 9.95166 1.43134 10.1588 1.9313L12.2875 7.07067C12.4946 7.57062 12.2572 8.14378 11.7572 8.35087C11.2573 8.55795 10.6841 8.32054 10.477 7.82059L8.34828 2.6812C8.1412 2.18126 8.37861 1.60809 8.87855 1.40101Z" fill="#1E2126"></path><path fill-rule="evenodd" clip-rule="evenodd" d="M4.21276 4.51746C4.5954 4.13481 5.2158 4.13481 5.59844 4.51746L9.97285 8.89188C10.3555 9.27451 10.3555 9.89491 9.97285 10.2776C9.59022 10.6602 8.96981 10.6602 8.58718 10.2776L4.21276 5.90313C3.83012 5.52048 3.83012 4.9001 4.21276 4.51746Z" fill="#1E2126"></path><path fill-rule="evenodd" clip-rule="evenodd" d="M1.09439 9.18321C1.30149 8.68327 1.87467 8.44587 2.37461 8.65298L8.44376 11.1672C8.9437 11.3743 9.1811 11.9475 8.97399 12.4474C8.76689 12.9474 8.1937 13.1847 7.69378 12.9776L1.62461 10.4634C1.12467 10.2563 0.887281 9.68315 1.09439 9.18321Z" fill="#1E2126"></path><path fill-rule="evenodd" clip-rule="evenodd" d="M0 14.6868C0 14.1457 0.43868 13.707 0.97982 13.707H7.68065C8.22179 13.707 8.66048 14.1457 8.66048 14.6868C8.66048 15.228 8.22179 15.6667 7.68065 15.6667H0.97982C0.43868 15.6667 0 15.228 0 14.6868Z" fill="#1E2126"></path><path fill-rule="evenodd" clip-rule="evenodd" d="M8.97399 16.9234C9.1811 17.4235 8.9437 17.9966 8.44376 18.2037L2.37461 20.7179C1.87467 20.925 1.30149 20.6876 1.09439 20.1877C0.887281 19.6878 1.12467 19.1146 1.62461 18.9075L7.69378 16.3932C8.1937 16.1861 8.76689 16.4235 8.97399 16.9234Z" fill="#1E2126"></path><path fill-rule="evenodd" clip-rule="evenodd" d="M9.97281 19.0935C10.3555 19.4762 10.3555 20.0965 9.9729 20.4793L5.59849 24.8544C5.21588 25.237 4.59549 25.237 4.21281 24.8544C3.83014 24.4717 3.8301 23.8514 4.21272 23.4688L8.58714 19.0937C8.96974 18.7111 9.59013 18.7109 9.97281 19.0935Z" fill="#1E2126"></path><path fill-rule="evenodd" clip-rule="evenodd" d="M11.7572 21.0221C12.2572 21.2292 12.4946 21.8023 12.2875 22.3023L10.1588 27.4417C9.95166 27.9416 9.3785 28.1791 8.87855 27.972C8.37861 27.7649 8.1412 27.1916 8.34828 26.6918L10.477 21.5524C10.6841 21.0525 11.2573 20.815 11.7572 21.0221Z" fill="#1E2126"></path><path fill-rule="evenodd" clip-rule="evenodd" d="M14.3822 22.3594C14.9233 22.3594 15.362 22.798 15.362 23.3392V28.0879C15.362 28.629 14.9233 29.0677 14.3822 29.0677C13.841 29.0677 13.4023 28.629 13.4023 28.0879V23.3392C13.4023 22.798 13.841 22.3594 14.3822 22.3594Z" fill="#1E2126"></path><path fill-rule="evenodd" clip-rule="evenodd" d="M17.6597 22.6003C18.1596 22.3932 18.7328 22.6305 18.9399 23.1303L20.4148 26.69C20.6219 27.1899 20.3844 27.7631 19.8845 27.9702C19.3846 28.1773 18.8114 27.9399 18.6043 27.44L17.1296 23.8805C16.9224 23.3806 17.1598 22.8074 17.6597 22.6003Z" fill="#1E2126"></path><path fill-rule="evenodd" clip-rule="evenodd" d="M21.0213 21.326C21.404 20.9434 22.0243 20.9434 22.4071 21.326L24.5484 23.4673C24.931 23.8499 24.931 24.4703 24.5484 24.8529C24.1656 25.2357 23.5452 25.2357 23.1626 24.8529L21.0213 22.7118C20.6387 22.329 20.6387 21.7087 21.0213 21.326Z" fill="#1E2126"></path><path fill-rule="evenodd" clip-rule="evenodd" d="M23.5983 18.5035C23.8054 18.0036 24.3785 17.7662 24.8784 17.9733L27.136 18.9083C27.6359 19.1154 27.8733 19.6884 27.6662 20.1885C27.4591 20.6884 26.886 20.9258 26.386 20.7187L24.1285 19.7838C23.6286 19.5767 23.3912 19.0036 23.5983 18.5035Z" fill="#1E2126"></path><path fill-rule="evenodd" clip-rule="evenodd" d="M24.5703 14.6868C24.5703 14.1457 25.0091 13.707 25.5501 13.707H27.7839C28.325 13.707 28.7638 14.1457 28.7638 14.6868C28.7638 15.228 28.325 15.6667 27.7839 15.6667H25.5501C25.0091 15.6667 24.5703 15.228 24.5703 14.6868Z" fill="#1E2126"></path><path fill-rule="evenodd" clip-rule="evenodd" d="M27.6662 9.18326C27.8733 9.68321 27.6359 10.2564 27.136 10.4634L24.8784 11.3985C24.3785 11.6056 23.8054 11.3681 23.5983 10.8682C23.3912 10.3682 23.6286 9.79507 24.1285 9.58799L26.386 8.65295C26.886 8.44589 27.4591 8.6833 27.6662 9.18326Z" fill="#1E2126"></path><path fill-rule="evenodd" clip-rule="evenodd" d="M24.5484 4.51745C24.931 4.90009 24.931 5.52048 24.5484 5.90313L22.4071 8.04437C22.0243 8.42702 21.404 8.42702 21.0213 8.04437C20.6387 7.66173 20.6387 7.04134 21.0213 6.65869L23.1626 4.51745C23.5452 4.13482 24.1656 4.1348 24.5484 4.51745Z" fill="#1E2126"></path><path fill-rule="evenodd" clip-rule="evenodd" d="M19.8845 1.40105C20.3844 1.60818 20.6219 2.18135 20.4148 2.68129L18.9399 6.24084C18.7328 6.74077 18.1596 6.97813 17.6597 6.77101C17.1598 6.56388 16.9224 5.99069 17.1296 5.49075L18.6043 1.93121C18.8114 1.43128 19.3846 1.19392 19.8845 1.40105Z" fill="#1E2126"></path></g></g></g><defs><clipPath id="clip0_2089_37640"><rect width="122" height="29.28" fill="white"></rect></clipPath></defs></svg> 