<?xml version="1.0" encoding="UTF-8"?> <svg xmlns="http://www.w3.org/2000/svg" width="24" height="25" viewBox="0 0 24 25" fill="none"><path fill-rule="evenodd" clip-rule="evenodd" d="M12 4.42383C11.4477 4.42383 11 4.87154 11 5.42383V11.2161C11 11.6893 11.0336 12.1619 11.1005 12.6303L11.2375 13.5892L11.1915 13.6353L10.727 12.8935C10.3268 12.2542 9.85552 11.6623 9.32221 11.129L8.90969 10.7164C8.51946 10.3262 7.88679 10.3262 7.49656 10.7164C7.10634 11.1067 7.10634 11.7394 7.49656 12.1296L11.2961 15.9291C11.6869 16.3199 12.3204 16.3196 12.7109 15.9286L16.5042 12.1298C16.8941 11.7394 16.8939 11.1069 16.5037 10.7167C16.1133 10.3263 15.4804 10.3263 15.0901 10.7167L14.6828 11.124C14.151 11.6557 13.6809 12.2458 13.2814 12.883L12.8093 13.636L12.7625 13.5892L12.8995 12.6303C12.9664 12.1619 13 11.6893 13 11.2161V5.42383C13 4.87154 12.5523 4.42383 12 4.42383ZM7 18.4238C7 17.8716 7.44772 17.4238 8 17.4238L16 17.4267C16.5523 17.4267 17 17.8745 17 18.4267C17 18.979 16.5523 19.4267 16 19.4267L8 19.4238C7.44772 19.4238 7 18.9761 7 18.4238Z" fill="#1A1A1A"></path></svg> 