<?xml version="1.0" encoding="UTF-8"?> <svg xmlns="http://www.w3.org/2000/svg" width="16" height="10" viewBox="0 0 16 10" fill="none"><g clip-path="url(#clip0_2575_35080)"><path fill-rule="evenodd" clip-rule="evenodd" d="M15.9928 2.56947C15.9928 3.46432 15.2674 4.18973 14.3725 4.18973C13.6176 4.18973 12.9832 3.67337 12.8033 2.97454H10.5412C10.1452 2.97454 9.80719 3.26085 9.74208 3.65148L9.67549 4.05103C9.61226 4.43039 9.42036 4.76056 9.14899 4.99985C9.42036 5.23914 9.61226 5.56931 9.67549 5.94867L9.74208 6.34823C9.80719 6.73885 10.1452 7.02517 10.5412 7.02517H11.1831C11.3629 6.32633 11.9973 5.80998 12.7523 5.80998C13.6471 5.80998 14.3725 6.53539 14.3725 7.43023C14.3725 8.32508 13.6471 9.05048 12.7523 9.05048C11.9973 9.05048 11.3629 8.53413 11.1831 7.83529H10.5412C9.74915 7.83529 9.0732 7.26268 8.94299 6.48141L8.87638 6.08186C8.81129 5.69123 8.4733 5.40491 8.07729 5.40491H7.41645C7.2142 6.06924 6.59664 6.5526 5.86619 6.5526C5.13574 6.5526 4.5182 6.06924 4.31595 5.40491H3.36582C3.16357 6.06924 2.54601 6.5526 1.81557 6.5526C0.920726 6.5526 0.195312 5.82717 0.195312 4.93235C0.195312 4.0375 0.920726 3.31209 1.81557 3.31209C2.59466 3.31209 3.24531 3.86197 3.40061 4.59479H4.28116C4.43646 3.86197 5.08711 3.31209 5.86619 3.31209C6.64529 3.31209 7.29594 3.86197 7.45125 4.59479H8.07729C8.4733 4.59479 8.81129 4.30847 8.87638 3.91785L8.94299 3.51829C9.0732 2.73703 9.74915 2.16441 10.5412 2.16441H12.8033C12.9832 1.46558 13.6176 0.949219 14.3725 0.949219C15.2674 0.949219 15.9928 1.67463 15.9928 2.56947ZM15.1826 2.56947C15.1826 3.01688 14.82 3.3796 14.3725 3.3796C13.9251 3.3796 13.5624 3.01688 13.5624 2.56947C13.5624 2.12205 13.9251 1.75935 14.3725 1.75935C14.82 1.75935 15.1826 2.12205 15.1826 2.56947ZM1.81557 5.74247C2.26299 5.74247 2.62569 5.37976 2.62569 4.93235C2.62569 4.48492 2.26299 4.12222 1.81557 4.12222C1.36814 4.12222 1.00544 4.48492 1.00544 4.93235C1.00544 5.37976 1.36814 5.74247 1.81557 5.74247ZM5.86619 5.74247C6.31362 5.74247 6.67632 5.37976 6.67632 4.93235C6.67632 4.48492 6.31362 4.12222 5.86619 4.12222C5.41878 4.12222 5.05607 4.48492 5.05607 4.93235C5.05607 5.37976 5.41878 5.74247 5.86619 5.74247ZM12.7523 8.24036C13.1997 8.24036 13.5624 7.87764 13.5624 7.43023C13.5624 6.98282 13.1997 6.6201 12.7523 6.6201C12.3049 6.6201 11.9421 6.98282 11.9421 7.43023C11.9421 7.87764 12.3049 8.24036 12.7523 8.24036Z" fill="#EA4B71"></path></g><defs><clipPath id="clip0_2575_35080"><rect width="16" height="8.10127" fill="white" transform="translate(0 0.949219)"></rect></clipPath></defs></svg> 