<?xml version="1.0" encoding="UTF-8"?> <svg xmlns="http://www.w3.org/2000/svg" width="16" height="17" viewBox="0 0 16 17" fill="none"><g clip-path="url(#clip0_2089_37796)"><path d="M12.014 5.69748V3.81847C12.2623 3.70241 12.4725 3.51822 12.6202 3.28733C12.7679 3.05643 12.847 2.78834 12.8483 2.51425V2.47114C12.8483 1.67199 12.2004 1.02415 11.4013 1.02415H11.3582C10.559 1.02415 9.91116 1.67199 9.91116 2.47114V2.51425C9.91243 2.78834 9.99151 3.05643 10.1392 3.28733C10.2869 3.51822 10.4972 3.70241 10.7455 3.81847V5.69748C10.0318 5.80677 9.35968 6.10269 8.79717 6.55528L3.64386 2.54138C3.68061 2.40873 3.69978 2.27232 3.70194 2.13541C3.70257 1.81292 3.60754 1.4975 3.42888 1.22903C3.25022 0.960561 2.99596 0.751109 2.69824 0.627168C2.40053 0.503227 2.07274 0.470365 1.75635 0.532739C1.43996 0.595113 1.14917 0.749921 0.920772 0.977581C0.692373 1.20524 0.536623 1.49552 0.473223 1.81171C0.409824 2.1279 0.441622 2.45579 0.564597 2.7539C0.687572 3.05202 0.896198 3.30697 1.16409 3.4865C1.43197 3.66603 1.74709 3.76207 2.06957 3.76249C2.35168 3.76116 2.62851 3.68584 2.87241 3.54406L7.94694 7.49281C7.014 8.90216 7.03896 10.739 8.0098 12.1225L6.46639 13.6664C6.34157 13.6265 6.21166 13.6053 6.08067 13.6035C5.34151 13.6042 4.7427 14.2036 4.74289 14.9428C4.74308 15.6819 5.34227 16.281 6.08137 16.2812C6.82053 16.2814 7.41997 15.6826 7.42061 14.9434C7.41887 14.8124 7.39766 14.6825 7.35769 14.5577L8.88454 13.0303C10.2488 14.0806 12.1225 14.1711 13.5817 13.2571C15.0408 12.3432 15.7771 10.6178 15.4275 8.93197C15.0779 7.24611 13.7162 5.9559 12.014 5.69748ZM11.3811 11.8774C11.099 11.885 10.8183 11.836 10.5554 11.7333C10.2926 11.6306 10.053 11.4763 9.85083 11.2794C9.64864 11.0826 9.48793 10.8473 9.37819 10.5873C9.26846 10.3273 9.21192 10.048 9.21192 9.76582C9.21192 9.48365 9.26846 9.20433 9.37819 8.94436C9.48793 8.68439 9.64864 8.44905 9.85083 8.25222C10.053 8.05539 10.2926 7.90107 10.5554 7.79836C10.8183 7.69566 11.099 7.64666 11.3811 7.65424C12.5178 7.69405 13.4189 8.6268 13.4195 9.7643C13.4201 10.9017 12.5199 11.8354 11.3832 11.8763" fill="#FF7A59"></path></g><defs><clipPath id="clip0_2089_37796"><rect width="16" height="16" fill="white" transform="translate(0 0.28125)"></rect></clipPath></defs></svg> 