<?xml version="1.0" encoding="UTF-8"?> <svg xmlns="http://www.w3.org/2000/svg" width="15" height="16" viewBox="0 0 15 16" fill="none"><rect y="0.78125" width="15" height="15" rx="2" fill="black"></rect><path d="M11.1425 2.28125V5.91725H12.5V11.0913H11.0325V14.2812L7.514 11.1842V14.2568H6.9685V11.1807L3.446 14.2812V11.0487H2V5.87525H3.442V2.28125L6.9685 5.52825V2.37625H7.5135V5.62125L11.1425 2.28125ZM7.514 6.80325V10.4628L10.487 13.0798V9.50125L7.514 6.80325ZM6.9645 6.76325L3.9915 9.46225V13.0798L6.9645 10.4628V6.76375V6.76325ZM11.0325 10.5533H11.9545V6.45575H7.98L11.0325 9.22575V10.5533ZM6.5415 6.41325H2.545V10.5107H3.445V9.22275L6.541 6.41275L6.5415 6.41325ZM3.9875 3.51925V5.87425H6.545L3.9875 3.51925ZM10.597 3.51925L8.0395 5.87425H10.597V3.51925Z" fill="white"></path></svg> 