<?xml version="1.0" encoding="UTF-8"?> <svg xmlns="http://www.w3.org/2000/svg" width="16" height="17" viewBox="0 0 16 17" fill="none"><g clip-path="url(#clip0_2089_37809)"><path d="M14.8554 6.82823C15.0342 6.28954 15.096 5.71891 15.0366 5.15444C14.9773 4.58997 14.7983 4.04465 14.5114 3.55489C14.086 2.81447 13.4365 2.22826 12.6565 1.88079C11.8765 1.53332 11.0063 1.44255 10.1714 1.62156C9.69718 1.09401 9.09251 0.700497 8.41811 0.48054C7.74371 0.260583 7.02331 0.221921 6.32924 0.368435C5.63518 0.514949 4.99187 0.841483 4.46391 1.31525C3.93595 1.78902 3.54193 2.39335 3.32139 3.06756C2.76514 3.18161 2.23963 3.41306 1.78 3.74647C1.32036 4.07987 0.937178 4.50754 0.65606 5.00089C0.226027 5.74009 0.0422442 6.5969 0.131288 7.44743C0.220332 8.29796 0.577588 9.09813 1.15139 9.73223C0.971708 10.2707 0.909088 10.8413 0.967723 11.406C1.02636 11.9706 1.2049 12.5162 1.49139 13.0062C1.91731 13.7469 2.56741 14.3333 3.34799 14.6807C4.12857 15.0282 4.99932 15.1188 5.83473 14.9396C6.21153 15.3641 6.67459 15.7034 7.19296 15.9347C7.71133 16.166 8.2731 16.284 8.84073 16.2809C9.69652 16.2817 10.5304 16.0105 11.2221 15.5065C11.9137 15.0025 12.4273 14.2918 12.6887 13.4769C13.2448 13.3626 13.7701 13.131 14.2296 12.7976C14.6891 12.4642 15.0722 12.0367 15.3534 11.5436C15.7783 10.8055 15.959 9.952 15.8695 9.10509C15.7801 8.25817 15.4251 7.46123 14.8554 6.82823ZM8.84073 15.2342C8.14004 15.2354 7.46128 14.9899 6.92339 14.5409L7.01739 14.4869L10.2034 12.6482C10.2826 12.6017 10.3483 12.5354 10.3941 12.4558C10.4399 12.3762 10.4642 12.2861 10.4647 12.1942V7.7029L11.8114 8.48156C11.8181 8.48493 11.8238 8.48983 11.8282 8.49586C11.8326 8.50188 11.8355 8.50886 11.8367 8.51623V12.2382C11.835 13.0323 11.5188 13.7933 10.9573 14.3548C10.3958 14.9163 9.63478 15.2325 8.84073 15.2342ZM2.40073 12.4836C2.04906 11.8766 1.92276 11.1651 2.04406 10.4742L2.13873 10.5309L5.32739 12.3702C5.40624 12.4165 5.49599 12.4408 5.58739 12.4408C5.6788 12.4408 5.76855 12.4165 5.84739 12.3702L9.74273 10.1242V11.6789C9.74245 11.687 9.74032 11.6949 9.73651 11.7021C9.73269 11.7093 9.7273 11.7155 9.72073 11.7202L6.49406 13.5809C5.80553 13.9773 4.98787 14.0844 4.22049 13.8786C3.45311 13.6729 2.79866 13.1712 2.40073 12.4836ZM1.56073 5.54489C1.91471 4.93396 2.47347 4.46801 3.13806 4.22956V8.01423C3.1369 8.10562 3.16029 8.19565 3.20579 8.27492C3.25129 8.35419 3.31723 8.4198 3.39673 8.4649L7.27339 10.7016L5.92673 11.4802C5.91943 11.4841 5.91131 11.4861 5.90306 11.4861C5.89481 11.4861 5.88669 11.4841 5.87939 11.4802L2.65939 9.62289C1.97188 9.22468 1.47022 8.57022 1.2643 7.80286C1.05837 7.03551 1.16496 6.21782 1.56073 5.52889V5.54489ZM12.6254 8.11489L8.73673 5.85689L10.0801 5.08089C10.0874 5.07704 10.0955 5.07503 10.1037 5.07503C10.112 5.07503 10.1201 5.07704 10.1274 5.08089L13.3474 6.94156C13.84 7.22551 14.2417 7.64378 14.5054 8.14751C14.7692 8.65124 14.8841 9.21962 14.8369 9.78625C14.7896 10.3529 14.5821 10.8944 14.2385 11.3474C13.895 11.8005 13.4296 12.1465 12.8967 12.3449V8.55956C12.8939 8.46828 12.8675 8.37929 12.8199 8.30133C12.7723 8.22338 12.7053 8.15913 12.6254 8.11489ZM13.9654 6.09956L13.8714 6.04289L10.6887 4.18823C10.6094 4.1417 10.519 4.11717 10.4271 4.11717C10.3351 4.11717 10.2447 4.1417 10.1654 4.18823L6.27339 6.43423V4.87889C6.27258 4.87107 6.27389 4.86316 6.27717 4.85601C6.28046 4.84886 6.2856 4.84272 6.29206 4.83823L9.51206 2.98023C10.0056 2.69618 10.5698 2.55847 11.1388 2.58321C11.7077 2.60795 12.2578 2.7941 12.7249 3.11992C13.1919 3.44573 13.5566 3.89775 13.7763 4.42315C13.9959 4.94854 14.0615 5.5256 13.9654 6.08689V6.09956ZM5.53873 8.85623L4.19206 8.08023C4.18529 8.07617 4.1795 8.07065 4.17512 8.06408C4.17074 8.05751 4.16787 8.05004 4.16673 8.04223V4.33089C4.16785 3.76163 4.33091 3.20443 4.63688 2.72437C4.94284 2.24432 5.37908 1.86123 5.89464 1.61984C6.4102 1.37845 6.98379 1.28874 7.54844 1.36117C8.11308 1.4336 8.64546 1.66519 9.08339 2.02889L8.98873 2.08223L5.80339 3.92089C5.72411 3.96736 5.65827 4.03364 5.61234 4.11324C5.56641 4.19283 5.54196 4.283 5.54139 4.37489L5.53873 8.85623ZM6.27006 7.27956L8.00473 6.27956L9.74273 7.27956V9.27889L8.01139 10.2789L6.27339 9.27889L6.27006 7.27956Z" fill="black"></path></g><defs><clipPath id="clip0_2089_37809"><rect width="16" height="16" fill="white" transform="translate(0 0.28125)"></rect></clipPath></defs></svg> 