<?xml version="1.0" encoding="UTF-8"?> <svg xmlns="http://www.w3.org/2000/svg" width="79" height="37" viewBox="0 0 79 37" fill="none"><path d="M78 23.931L49.4669 1.64026C48.9595 1.24386 48.2795 1.14719 47.6818 1.38645L2.75787 19.3668C1.49996 19.8703 1.22219 21.5273 2.24716 22.4134L17.9621 36" stroke="#1A1A1A" stroke-width="0.904109" stroke-miterlimit="10"></path><path d="M39 11.2976L41.546 10.273C42.8328 9.75125 44.2851 9.98841 45.3605 10.8897L52.5021 16.8853L57.346 16.3351L54.8276 19.0578L60.8754 23.8202C62.3277 24.9586 62.3829 27.1975 60.9858 28.4118L60.3148 29" stroke="#1A1A1A" stroke-width="0.904109" stroke-miterlimit="10"></path><path d="M23.3878 17L21.2152 18.0727C19.7607 18.791 19.5722 20.8619 20.865 21.8507L28.3078 28.3432L23.9624 31.0297L30.283 30.1062L37.2948 34.9196C38.6864 36.0204 40.5179 36.3002 42.1519 35.6659L47 33.7816" stroke="#1A1A1A" stroke-width="0.904109" stroke-miterlimit="10"></path></svg> 