<?xml version="1.0" encoding="UTF-8"?> <svg xmlns="http://www.w3.org/2000/svg" width="99" height="111" viewBox="0 0 99 111" fill="none"><path d="M85.7234 81.2367V21.463C85.7234 18.793 83.7786 16.5281 81.1326 16.1708C73.6169 15.1558 58.458 13.3076 47.798 13.3184C37.4195 13.3289 23.0765 15.1355 15.8418 16.1489C13.2104 16.5175 11.2773 18.7762 11.2773 21.4333V81.2562C11.2773 82.6193 12.0107 83.8771 13.1971 84.5485L47.8356 104.152C48.0402 104.268 48.2904 104.269 48.4959 104.154L83.7783 84.5432C84.9789 83.8759 85.7234 82.6102 85.7234 81.2367Z" fill="white"></path><path d="M42.8979 87.75L43.353 89.1491H44.8255L43.6342 90.0137L44.0892 91.4128L42.8979 90.5481L41.7066 91.4128L42.1616 90.0137L40.9703 89.1491H42.4429L42.8979 87.75Z" fill="#C92818"></path><path d="M53.7065 87.75L54.1615 89.1491H55.6341L54.4428 90.0137L54.8978 91.4128L53.7065 90.5481L52.5152 91.4128L52.9702 90.0137L51.7789 89.1491H53.2515L53.7065 87.75Z" fill="#C92818"></path><path d="M48.3022 90.4512L48.7573 91.8502H50.2298L49.0385 92.7149L49.4935 94.114L48.3022 93.2493L47.1109 94.114L47.5659 92.7149L46.3746 91.8502H47.8472L48.3022 90.4512Z" fill="#C92818"></path><path d="M43.0716 49.1068C43.0646 50.5058 42.0793 51.2088 40.1159 51.2159C39.6584 51.2159 39.2116 51.2018 38.7752 51.1737V44.0555C39.3242 44.0344 39.9223 44.0238 40.5698 44.0238C41.0413 44.0238 41.4495 44.0906 41.7943 44.2242C42.4981 44.5054 42.85 45.0186 42.85 45.7638C42.85 46.031 42.7901 46.2806 42.6705 46.5126C42.4453 46.9836 42.0829 47.2859 41.5832 47.4195C41.8788 47.4757 42.1427 47.5847 42.3749 47.7464C42.8394 48.0768 43.0716 48.5303 43.0716 49.1068ZM40.517 44.7725C40.3481 44.7725 40.0666 44.7796 39.6725 44.7936V47.1347H40.5065C40.7809 47.1347 41.0237 47.089 41.2348 46.9977C41.7064 46.8008 41.9421 46.4387 41.9421 45.9115C41.9421 45.8552 41.9386 45.799 41.9316 45.7427C41.8541 45.0959 41.3826 44.7725 40.517 44.7725ZM40.4326 50.4671C41.5234 50.446 42.0969 49.9961 42.1532 49.1173C42.1532 48.9978 42.1427 48.8853 42.1216 48.7798C41.9738 48.1541 41.4741 47.8413 40.6226 47.8413H39.6725V50.4249C39.9188 50.4531 40.1722 50.4671 40.4326 50.4671Z" fill="#3A3A45"></path><path d="M48.4152 50.4249V51.1737H44.7944V44.0555H48.3202V44.8042H45.6917V47.1031H48.0141V47.8518H45.6917V50.4249H48.4152Z" fill="#3A3A45"></path><path d="M54.0016 49.2544C54.0016 49.7536 53.8679 50.1789 53.6005 50.5304C53.1994 51.0366 52.6188 51.2897 51.8587 51.2897C51.162 51.2897 50.504 51.0682 49.8847 50.6253L50.2542 49.9715C50.789 50.323 51.3344 50.5023 51.8904 50.5093C52.0945 50.5093 52.281 50.4706 52.4499 50.3933C52.8792 50.2035 53.0938 49.8485 53.0938 49.3282C53.0938 49.1595 53.0586 49.0013 52.9882 48.8537C52.8545 48.5725 52.5273 48.3088 52.0065 48.0628C51.4224 47.7815 51.0775 47.6093 50.972 47.546C50.3386 47.1523 50.0219 46.5969 50.0219 45.8798C50.0219 45.3666 50.1943 44.9307 50.5392 44.5722C50.9544 44.1504 51.4892 43.9395 52.1437 43.9395C52.3197 43.9395 52.4921 43.957 52.661 43.9922C53.3225 44.1328 53.7659 44.4913 53.9911 45.0678L53.3155 45.4264C53.2873 45.3772 53.2592 45.3279 53.231 45.2787C52.9566 44.8921 52.5801 44.6987 52.1015 44.6987C51.9045 44.6987 51.718 44.7409 51.542 44.8253C51.1268 45.0221 50.9192 45.3631 50.9192 45.8482C50.9192 46.0029 50.9509 46.147 51.0142 46.2806C51.1409 46.5477 51.4611 46.8043 51.9748 47.0504C52.566 47.3316 52.9179 47.5038 53.0305 47.5671C53.6779 47.9749 54.0016 48.5373 54.0016 49.2544Z" fill="#3A3A45"></path><path d="M54.8271 44.0449H59.0497V44.8042H57.3712V51.1737H56.4845V44.8042H54.8271V44.0449Z" fill="#3A3A45"></path><path d="M26.2027 59.0968C26.1956 60.4958 25.2104 61.1988 23.2469 61.2059C22.7895 61.2059 22.3426 61.1918 21.9062 61.1637V54.0455C22.4552 54.0244 23.0534 54.0138 23.7008 54.0138C24.1723 54.0138 24.5805 54.0806 24.9254 54.2142C25.6291 54.4954 25.981 55.0086 25.981 55.7538C25.981 56.021 25.9212 56.2706 25.8015 56.5026C25.5763 56.9736 25.2139 57.2759 24.7142 57.4095C25.0098 57.4657 25.2737 57.5747 25.506 57.7364C25.9704 58.0668 26.2027 58.5203 26.2027 59.0968ZM23.648 54.7625C23.4791 54.7625 23.1976 54.7696 22.8035 54.7836V57.1247H23.6375C23.9119 57.1247 24.1547 57.079 24.3659 56.9877C24.8374 56.7908 25.0731 56.4287 25.0731 55.9015C25.0731 55.8452 25.0696 55.789 25.0626 55.7327C24.9852 55.0859 24.5137 54.7625 23.648 54.7625ZM23.5636 60.4571C24.6544 60.436 25.228 59.9861 25.2843 59.1073C25.2843 58.9878 25.2737 58.8753 25.2526 58.7698C25.1048 58.1441 24.6051 57.8313 23.7536 57.8313H22.8035V60.4149C23.0498 60.4431 23.3032 60.4571 23.5636 60.4571Z" fill="#3A3A45"></path><path d="M33.1297 57.6204C33.1297 58.5132 32.9608 59.2725 32.623 59.8982C32.1233 60.8192 31.3598 61.2797 30.3323 61.2797C29.6708 61.2797 29.1148 61.0934 28.6644 60.7208C27.9114 60.1021 27.5349 59.0686 27.5349 57.6204C27.5349 56.6924 27.7214 55.905 28.0944 55.2582C28.6081 54.3724 29.3611 53.9295 30.3534 53.9295C31.029 53.9295 31.5955 54.1298 32.053 54.5305C32.7708 55.1703 33.1297 56.2003 33.1297 57.6204ZM28.4849 57.6204C28.4849 58.1898 28.5553 58.6925 28.6961 59.1284C28.9916 60.0353 29.5371 60.4888 30.3323 60.4888C30.7334 60.4888 31.0783 60.3552 31.3668 60.088C31.9017 59.5959 32.1691 58.7734 32.1691 57.6204C32.1691 57.0298 32.0952 56.5131 31.9474 56.0702C31.6518 55.1703 31.1205 54.7204 30.3534 54.7204C29.9312 54.7204 29.5652 54.8715 29.2556 55.1738C28.7418 55.687 28.4849 56.5026 28.4849 57.6204Z" fill="#3A3A45"></path><path d="M40.0251 57.6204C40.0251 58.5132 39.8562 59.2725 39.5184 59.8982C39.0187 60.8192 38.2552 61.2797 37.2277 61.2797C36.5661 61.2797 36.0102 61.0934 35.5598 60.7208C34.8068 60.1021 34.4303 59.0686 34.4303 57.6204C34.4303 56.6924 34.6167 55.905 34.9897 55.2582C35.5035 54.3724 36.2565 53.9295 37.2488 53.9295C37.9244 53.9295 38.4909 54.1298 38.9484 54.5305C39.6662 55.1703 40.0251 56.2003 40.0251 57.6204ZM35.3803 57.6204C35.3803 58.1898 35.4507 58.6925 35.5914 59.1284C35.887 60.0353 36.4324 60.4888 37.2277 60.4888C37.6288 60.4888 37.9737 60.3552 38.2622 60.088C38.797 59.5959 39.0645 58.7734 39.0645 57.6204C39.0645 57.0298 38.9906 56.5131 38.8428 56.0702C38.5472 55.1703 38.0159 54.7204 37.2488 54.7204C36.8265 54.7204 36.4606 54.8715 36.1509 55.1738C35.6372 55.687 35.3803 56.5026 35.3803 57.6204Z" fill="#3A3A45"></path><path d="M40.7028 54.0349H44.9253V54.7942H43.2469V61.1637H42.3601V54.7942H40.7028V54.0349Z" fill="#3A3A45"></path><path d="M48.5905 60.4677C49.1042 60.4677 49.6637 60.2814 50.2689 59.9088L50.6173 60.552C49.8713 61.0301 49.1535 61.2726 48.4638 61.2797C47.8093 61.2797 47.2498 61.0723 46.7854 60.6575C46.0534 60.0037 45.6875 58.9913 45.6875 57.6204C45.6875 56.5588 45.9197 55.6976 46.3842 55.0367C46.898 54.2985 47.6017 53.9295 48.4955 53.9295C48.6925 53.9295 48.8825 53.947 49.0655 53.9822C49.91 54.165 50.4765 54.7028 50.7651 55.5956L49.8995 55.8276C49.632 55.1035 49.157 54.7344 48.4744 54.7204C48.1577 54.7204 47.8727 54.8012 47.6193 54.9629C46.9718 55.3988 46.6481 56.2846 46.6481 57.6204C46.6481 58.2109 46.7255 58.7241 46.8804 59.16C47.19 60.0318 47.7601 60.4677 48.5905 60.4677Z" fill="#3A3A45"></path><path d="M52.1817 61.1637H51.2739L53.4907 54.0455H54.6308L56.8265 61.1637H55.8764L55.3803 59.4869H52.6884L52.1817 61.1637ZM53.6279 56.3866L52.8996 58.7909H55.1692L54.4513 56.3549C54.4091 56.2073 54.3247 55.8839 54.198 55.3847C54.1276 55.1176 54.0784 54.9278 54.0502 54.8153C54.015 54.9559 53.9517 55.1914 53.8602 55.5218C53.7476 55.9647 53.6702 56.253 53.6279 56.3866Z" fill="#3A3A45"></path><path d="M58.486 61.1637H57.6626L58.6021 54.0455H59.6049L60.935 58.6855C60.9773 58.8191 61.03 59.0405 61.0934 59.3498C61.1356 59.5678 61.1708 59.7295 61.1989 59.8349C61.3678 59.153 61.4664 58.7593 61.4945 58.6538L62.8879 54.0455H63.8591L64.7142 61.1637H63.8169L63.3735 56.8717C63.3172 56.3795 63.268 55.8769 63.2257 55.3636C63.1835 55.4972 63.1237 55.7116 63.0463 56.0069C62.9407 56.4076 62.8563 56.7029 62.7929 56.8927L61.5473 60.8895L60.7345 60.9211L59.5627 56.8717C59.5064 56.6889 59.429 56.4041 59.3305 56.0175C59.2601 55.7292 59.2038 55.5148 59.1616 55.3742C59.1405 55.5499 59.1088 55.8276 59.0666 56.2073C59.0243 56.5166 58.9962 56.7416 58.9821 56.8822L58.486 61.1637Z" fill="#3A3A45"></path><path d="M67.2076 61.1637H66.3209V54.0455C66.8557 54.0244 67.4433 54.0138 68.0838 54.0138C68.5553 54.0138 68.967 54.0806 69.3188 54.2142C70.1211 54.5305 70.5223 55.1422 70.5223 56.0491C70.5223 56.5131 70.4097 56.9279 70.1845 57.2935C69.7692 57.9614 69.0866 58.2953 68.1365 58.2953H67.2076V61.1637ZM68.0521 54.7625C67.841 54.7625 67.5595 54.7696 67.2076 54.7836V57.5466H68.031C68.2421 57.5466 68.4356 57.5255 68.6116 57.4833C69.2661 57.3146 69.5933 56.8787 69.5933 56.1756C69.5933 56.0913 69.5898 56.0104 69.5827 55.9331C69.5053 55.1527 68.9951 54.7625 68.0521 54.7625Z" fill="#3A3A45"></path><path d="M75.5808 59.2444C75.5808 59.7435 75.4471 60.1689 75.1797 60.5204C74.7786 61.0266 74.198 61.2797 73.4379 61.2797C72.7412 61.2797 72.0832 61.0582 71.4639 60.6153L71.8334 59.9615C72.3682 60.313 72.9136 60.4923 73.4696 60.4993C73.6737 60.4993 73.8602 60.4606 74.0291 60.3833C74.4584 60.1935 74.673 59.8385 74.673 59.3182C74.673 59.1495 74.6378 58.9913 74.5674 58.8437C74.4337 58.5625 74.1065 58.2988 73.5857 58.0528C73.0016 57.7715 72.6567 57.5993 72.5512 57.536C71.9178 57.1423 71.6011 56.5869 71.6011 55.8698C71.6011 55.3566 71.7735 54.9207 72.1184 54.5622C72.5336 54.1404 73.0684 53.9295 73.7229 53.9295C73.8989 53.9295 74.0713 53.947 74.2402 53.9822C74.9017 54.1228 75.3451 54.4813 75.5703 55.0578L74.8947 55.4164C74.8665 55.3672 74.8384 55.3179 74.8102 55.2687C74.5358 54.8821 74.1593 54.6887 73.6807 54.6887C73.4837 54.6887 73.2972 54.7309 73.1212 54.8153C72.706 55.0121 72.4984 55.3531 72.4984 55.8382C72.4984 55.9929 72.5301 56.137 72.5934 56.2706C72.7201 56.5377 73.0403 56.7943 73.554 57.0404C74.1452 57.3216 74.4971 57.4938 74.6097 57.5571C75.2571 57.9649 75.5808 58.5273 75.5808 59.2444Z" fill="#3A3A45"></path><path fill-rule="evenodd" clip-rule="evenodd" d="M43.3159 49.1056V49.1068C43.312 49.8704 43.0366 50.4754 42.4698 50.8799C41.9178 51.2738 41.1212 51.4541 40.1178 51.4577C39.6554 51.4577 39.2024 51.4434 38.7606 51.415L38.533 51.4003V43.8205L38.7669 43.8115C39.3194 43.7903 39.9208 43.7797 40.5708 43.7797C41.0645 43.7797 41.5039 43.8495 41.8833 43.9965L41.8857 43.9974C42.2725 44.152 42.5792 44.3773 42.7877 44.6815C42.9965 44.986 43.0942 45.3509 43.0942 45.7627C43.0942 46.0663 43.0261 46.3531 42.8894 46.6194C42.7338 46.9436 42.5178 47.1999 42.2444 47.385C42.3382 47.432 42.4285 47.4856 42.515 47.5459L42.517 47.5473C43.0465 47.924 43.3159 48.4516 43.3159 49.1056ZM41.9814 47.5331C41.856 47.4831 41.7237 47.4448 41.5842 47.4183C41.7224 47.3814 41.8501 47.3315 41.9673 47.2688C42.2739 47.1046 42.5086 46.8522 42.6715 46.5114C42.7912 46.2794 42.851 46.0298 42.851 45.7627C42.851 45.0174 42.4991 44.5042 41.7954 44.223C41.4505 44.0894 41.0423 44.0226 40.5708 44.0226C39.9234 44.0226 39.3252 44.0332 38.7763 44.0543V51.1725C39.2126 51.2006 39.6595 51.2147 40.1169 51.2147C42.0804 51.2077 43.0656 50.5046 43.0727 49.1056C43.0727 48.5291 42.8404 48.0756 42.376 47.7452C42.2533 47.6598 42.1217 47.5891 41.9814 47.5331ZM41.1421 46.7723C41.3412 46.6892 41.4758 46.5779 41.5625 46.4448C41.6495 46.3111 41.6999 46.1374 41.6999 45.9103C41.6999 45.8642 41.6971 45.818 41.6913 45.7717L41.6911 45.7704C41.6594 45.5056 41.5529 45.3306 41.3832 45.2142C41.2039 45.0912 40.9254 45.0143 40.518 45.0143C40.3886 45.0143 40.1887 45.0186 39.9168 45.0273V46.8906H40.5075C40.755 46.8906 40.9639 46.8494 41.1392 46.7735L41.1421 46.7723ZM39.6735 47.1336V44.7925C40.0676 44.7784 40.3491 44.7714 40.518 44.7714C41.3837 44.7714 41.8552 45.0948 41.9326 45.7416C41.9396 45.7978 41.9431 45.8541 41.9431 45.9103C41.9431 46.4376 41.7074 46.7996 41.2359 46.9965C41.0247 47.0879 40.782 47.1336 40.5075 47.1336H39.6735ZM41.911 49.1084C41.9106 49.0078 41.9016 48.9153 41.8849 48.8304C41.8239 48.5757 41.6973 48.3992 41.5078 48.2806C41.3103 48.1569 41.0229 48.0831 40.6236 48.0831H39.9168V50.2031C40.0846 50.2163 40.2561 50.2229 40.4312 50.223C40.9475 50.2127 41.3029 50.1011 41.5317 49.9216C41.7513 49.7493 41.885 49.4902 41.911 49.1084ZM40.4336 50.466C41.5244 50.4449 42.098 49.9949 42.1543 49.1161C42.1543 48.9966 42.1437 48.8841 42.1226 48.7787C41.9748 48.153 41.4752 47.8401 40.6236 47.8401H39.6735V50.4238C39.9199 50.4519 40.1732 50.466 40.4336 50.466ZM48.6595 50.1808V51.4155H44.5522V43.8113H48.5645V45.046H45.936V46.859H48.2584V48.0936H45.936V50.1808H48.6595ZM45.6927 47.8507H48.0151V47.1019H45.6927V44.803H48.3213V44.0543H44.7955V51.1725H48.4163V50.4238H45.6927V47.8507ZM53.7922 50.68C53.3366 51.255 52.6795 51.5315 51.8597 51.5315C51.1075 51.5315 50.4007 51.2912 49.7441 50.8217L49.5665 50.6947L50.1714 49.6244L50.3889 49.7673C50.8904 50.097 51.3907 50.2585 51.8929 50.2652C52.0649 50.265 52.2159 50.2325 52.3496 50.1713L52.3524 50.1699C52.5277 50.0925 52.6474 49.9873 52.7257 49.8579C52.8049 49.7268 52.8516 49.554 52.8516 49.327C52.8516 49.1933 52.824 49.0709 52.7697 48.957C52.6733 48.7544 52.4114 48.5212 51.9035 48.2812L51.9019 48.2805C51.3233 48.0019 50.9655 47.8237 50.8479 47.7532L50.8445 47.7512C50.1432 47.3152 49.7797 46.6836 49.7797 45.8787C49.7797 45.3049 49.9749 44.8081 50.3648 44.4027L50.3668 44.4006C50.8328 43.9273 51.4326 43.6953 52.1448 43.6953C52.337 43.6953 52.5261 43.7145 52.7116 43.7531C53.4445 43.9089 53.9606 44.3177 54.2187 44.9783L54.2974 45.1798L53.2223 45.7503L53.027 45.4088C52.7994 45.0933 52.4992 44.9405 52.1025 44.9405C51.9416 44.9405 51.7911 44.9747 51.6483 45.0431C51.4769 45.1244 51.3593 45.2296 51.2837 45.3537C51.2076 45.4787 51.1634 45.6394 51.1634 45.847C51.1634 45.9674 51.1878 46.0758 51.235 46.1754C51.324 46.363 51.5774 46.5889 52.0807 46.83C52.6677 47.1092 53.0291 47.2858 53.1507 47.3542L53.1614 47.3601C53.8738 47.8089 54.2459 48.4463 54.2459 49.2532C54.2459 49.7982 54.0989 50.277 53.7952 50.6762L53.7922 50.68ZM51.9759 47.0492C51.4621 46.8031 51.1419 46.5465 51.0152 46.2794C50.9519 46.1458 50.9202 46.0017 50.9202 45.847C50.9202 45.3619 51.1278 45.021 51.5431 44.8241C51.719 44.7397 51.9055 44.6976 52.1025 44.6976C52.5811 44.6976 52.9576 44.8909 53.2321 45.2776L53.3165 45.4252L53.9921 45.0667C53.7669 44.4902 53.3236 44.1316 52.662 43.991C52.4931 43.9559 52.3207 43.9383 52.1448 43.9383C51.4903 43.9383 50.9554 44.1492 50.5402 44.571C50.1954 44.9296 50.0229 45.3654 50.0229 45.8787C50.0229 46.5958 50.3396 47.1511 50.973 47.5448C51.0786 47.6081 51.4234 47.7804 52.0075 48.0616C52.5283 48.3076 52.8556 48.5713 52.9893 48.8525C53.0596 49.0001 53.0948 49.1583 53.0948 49.327C53.0948 49.8473 52.8802 50.2023 52.4509 50.3921C52.282 50.4695 52.0955 50.5081 51.8914 50.5081C51.4071 50.502 50.9308 50.3652 50.4625 50.0977C50.3932 50.0581 50.3241 50.0156 50.2552 49.9703L49.8857 50.6241C50.505 51.0671 51.163 51.2885 51.8597 51.2885C52.6198 51.2885 53.2004 51.0354 53.6015 50.5292C53.869 50.1777 54.0027 49.7524 54.0027 49.2532C54.0027 48.5361 53.6789 47.9737 53.0315 47.5659C52.9189 47.5027 52.567 47.3304 51.9759 47.0492ZM54.585 43.8008H59.2939V45.046H57.6155V51.4155H56.2423V45.046H54.585V43.8008ZM56.4855 44.803V51.1725H57.3722V44.803H59.0507V44.0437H54.8282V44.803H56.4855ZM26.4469 59.0956V59.0968C26.4431 59.8604 26.1676 60.4654 25.6008 60.8699C25.0488 61.2638 24.2523 61.4441 23.2488 61.4477C22.7864 61.4477 22.3334 61.4334 21.8916 61.405L21.6641 61.3903V53.8105L21.8979 53.8015C22.4505 53.7803 23.0518 53.7697 23.7019 53.7697C24.1955 53.7697 24.6349 53.8395 25.0143 53.9865L25.0167 53.9874C25.4035 54.142 25.7102 54.3673 25.9188 54.6715C26.1275 54.976 26.2252 55.3409 26.2252 55.7527C26.2252 56.0563 26.1571 56.3431 26.0205 56.6094C25.8648 56.9336 25.6488 57.1898 25.3754 57.375C25.4693 57.422 25.5595 57.4756 25.6461 57.5359L25.6481 57.5373C26.1775 57.914 26.4469 58.4416 26.4469 59.0956ZM25.1124 57.5231C24.987 57.4731 24.8547 57.4348 24.7153 57.4083C24.8534 57.3714 24.9811 57.3215 25.0983 57.2588C25.4049 57.0946 25.6396 56.8422 25.8026 56.5014C25.9222 56.2694 25.982 56.0198 25.982 55.7527C25.982 55.0074 25.6301 54.4942 24.9264 54.213C24.5815 54.0794 24.1734 54.0126 23.7019 54.0126C23.0544 54.0126 22.4562 54.0232 21.9073 54.0443V61.1625C22.3436 61.1906 22.7905 61.2047 23.2479 61.2047C25.2114 61.1977 26.1967 60.4946 26.2037 59.0956C26.2037 58.5191 25.9715 58.0656 25.507 57.7352C25.3843 57.6498 25.2527 57.5791 25.1124 57.5231ZM24.2731 56.7623C24.4722 56.6792 24.6068 56.5679 24.6935 56.4348C24.7805 56.3011 24.831 56.1274 24.831 55.9003C24.831 55.8542 24.8281 55.808 24.8223 55.7617L24.8221 55.7604C24.7904 55.4956 24.6839 55.3206 24.5143 55.2042C24.3349 55.0812 24.0564 55.0043 23.6491 55.0043C23.5197 55.0043 23.3197 55.0086 23.0478 55.0173V56.8806H23.6385C23.886 56.8806 24.0949 56.8394 24.2702 56.7635L24.2731 56.7623ZM22.8046 57.1236V54.7825C23.1987 54.7684 23.4802 54.7614 23.6491 54.7614C24.5147 54.7614 24.9862 55.0848 25.0636 55.7316C25.0707 55.7878 25.0742 55.8441 25.0742 55.9003C25.0742 56.4276 24.8384 56.7896 24.3669 56.9865C24.1558 57.0779 23.913 57.1236 23.6385 57.1236H22.8046ZM25.0421 59.0984C25.0416 58.9978 25.0326 58.9053 25.0159 58.8204C24.9549 58.5657 24.8283 58.3892 24.6389 58.2706C24.4413 58.1469 24.1539 58.0731 23.7546 58.0731H23.0478V60.1931C23.2157 60.2063 23.3871 60.2129 23.5623 60.213C24.0785 60.2027 24.4339 60.0911 24.6627 59.9116C24.8823 59.7393 25.016 59.4802 25.0421 59.0984ZM23.5646 60.456C24.6554 60.4349 25.229 59.9849 25.2853 59.1061C25.2853 58.9866 25.2747 58.8741 25.2536 58.7687C25.1058 58.143 24.6062 57.8301 23.7546 57.8301H22.8046V60.4138C23.0509 60.4419 23.3042 60.456 23.5646 60.456ZM32.8379 60.0128C32.5711 60.5046 32.2272 60.8849 31.8023 61.1411C31.3771 61.3976 30.8845 61.5215 30.3333 61.5215C29.6232 61.5215 29.0103 61.3202 28.5106 60.907C27.6786 60.2232 27.2927 59.1037 27.2927 57.6192C27.2927 56.6589 27.4858 55.8274 27.8846 55.1357C28.4401 54.1779 29.2719 53.6853 30.3544 53.6853C31.082 53.6853 31.7076 53.9027 32.2144 54.3467L32.2159 54.3481C33.0061 55.0523 33.374 56.1633 33.374 57.6192C33.374 58.5422 33.1991 59.3437 32.8379 60.0128ZM28.6654 60.7196C29.1158 61.0922 29.6718 61.2785 30.3333 61.2785C31.3608 61.2785 32.1244 60.818 32.624 59.897C32.9618 59.2713 33.1307 58.5121 33.1307 57.6192C33.1307 56.1991 32.7718 55.1691 32.054 54.5294C31.5966 54.1286 31.03 53.9283 30.3544 53.9283C29.3621 53.9283 28.6091 54.3712 28.0954 55.257C27.7224 55.9038 27.5359 56.6912 27.5359 57.6192C27.5359 59.0675 27.9124 60.1009 28.6654 60.7196ZM31.2031 59.9081C31.665 59.4831 31.9269 58.7433 31.9269 57.6192C31.9269 57.0482 31.8554 56.5584 31.7177 56.1459L31.7173 56.1448C31.5787 55.7226 31.3921 55.4293 31.171 55.242C30.9538 55.0581 30.6866 54.9622 30.3544 54.9622C29.998 54.9622 29.6929 55.0869 29.4276 55.3454C28.9795 55.7937 28.7292 56.5326 28.7292 57.6192C28.7292 58.1691 28.7972 58.6456 28.9284 59.0523C29.0668 59.4766 29.2562 59.7719 29.4834 59.9607C29.7071 60.1467 29.9852 60.2446 30.3333 60.2446C30.6745 60.2446 30.9605 60.1328 31.2031 59.9081ZM39.7333 60.0128C39.4664 60.5046 39.1226 60.8849 38.6977 61.1411C38.2725 61.3976 37.7799 61.5215 37.2287 61.5215C36.5186 61.5215 35.9057 61.3202 35.406 60.907C34.574 60.2232 34.1881 59.1037 34.1881 57.6192C34.1881 56.6589 34.3812 55.8274 34.78 55.1357C35.3355 54.1779 36.1673 53.6853 37.2498 53.6853C37.9774 53.6853 38.6029 53.9027 39.1097 54.3467L39.1113 54.3481C39.9015 55.0523 40.2693 56.1633 40.2693 57.6192C40.2693 58.5422 40.0945 59.3437 39.7333 60.0128ZM35.5608 60.7196C36.0112 61.0922 36.5672 61.2785 37.2287 61.2785C38.2562 61.2785 39.0198 60.818 39.5194 59.897C39.8572 59.2713 40.0261 58.5121 40.0261 57.6192C40.0261 56.1991 39.6672 55.1691 38.9494 54.5294C38.4919 54.1286 37.9254 53.9283 37.2498 53.9283C36.2575 53.9283 35.5045 54.3712 34.9908 55.257C34.6178 55.9038 34.4313 56.6912 34.4313 57.6192C34.4313 59.0675 34.8078 60.1009 35.5608 60.7196ZM38.8438 56.069C38.9916 56.5119 39.0655 57.0287 39.0655 57.6192C39.0655 58.7722 38.7981 59.5947 38.2632 60.0869C37.9747 60.354 37.6298 60.4876 37.2287 60.4876C36.4335 60.4876 35.8881 60.0341 35.5925 59.1272C35.4517 58.6913 35.3813 58.1887 35.3813 57.6192C35.3813 56.5014 35.6382 55.6859 36.152 55.1727C36.4616 54.8703 36.8276 54.7192 37.2498 54.7192C38.0169 54.7192 38.5482 55.1691 38.8438 56.069ZM35.8239 59.0526C35.9623 59.4768 36.1517 59.7719 36.3788 59.9607C36.6025 60.1467 36.8806 60.2446 37.2287 60.2446C37.5699 60.2446 37.8553 60.1333 38.0979 59.9087C38.5599 59.4836 38.8223 58.7433 38.8223 57.6192C38.8223 57.0482 38.7507 56.5584 38.6131 56.1459L38.6127 56.1448C38.4741 55.7226 38.2875 55.4293 38.0664 55.242C37.8492 55.0581 37.582 54.9622 37.2498 54.9622C36.8933 54.9622 36.5882 55.0869 36.323 55.3454C35.8749 55.7937 35.6246 56.5326 35.6246 57.6192C35.6246 58.1692 35.6926 58.6459 35.8239 59.0526ZM40.4606 53.7908H45.1696V55.036H43.4911V61.4055H42.118V55.036H40.4606V53.7908ZM42.3612 54.793V61.1625H43.2479V54.793H44.9264V54.0337H40.7038V54.793H42.3612ZM50.3614 59.5659L50.9397 60.6336L50.7496 60.7554C49.976 61.2512 49.2141 61.5139 48.4673 61.5215L48.4648 61.5215C47.7538 61.5215 47.1358 61.2942 46.6243 60.8375C45.8228 60.1215 45.4453 59.0308 45.4453 57.6192C45.4453 56.5235 45.685 55.6092 46.1859 54.8964C46.7447 54.0937 47.5226 53.6853 48.4965 53.6853C48.7081 53.6853 48.9135 53.7042 49.1125 53.7424L49.1181 53.7435C50.0559 53.9465 50.6852 54.5532 50.9976 55.5198L51.0761 55.7629L49.7491 56.1186L49.6723 55.9106C49.5499 55.5791 49.3872 55.3482 49.1943 55.1983C49.0041 55.0506 48.768 54.9687 48.4729 54.9622C48.2021 54.9626 47.9646 55.031 47.7538 55.1649C47.2116 55.5316 46.8924 56.3088 46.8924 57.6192C46.8924 58.1894 46.9672 58.6739 47.1106 59.0776C47.2542 59.4819 47.4508 59.7645 47.689 59.9467C47.9251 60.1272 48.221 60.2235 48.5915 60.2235C49.0461 60.2235 49.5614 60.0584 50.1424 59.7007L50.3614 59.5659ZM48.4754 54.7192C49.158 54.7333 49.6331 55.1023 49.9005 55.8265L50.7661 55.5945C50.7405 55.5153 50.7127 55.4389 50.6828 55.3652C50.3749 54.609 49.8361 54.1476 49.0665 53.981C48.8836 53.9459 48.6936 53.9283 48.4965 53.9283C47.6027 53.9283 46.899 54.2974 46.3852 55.0356C45.9208 55.6964 45.6885 56.5576 45.6885 57.6192C45.6885 58.9901 46.0545 60.0025 46.7864 60.6563C47.2509 61.0711 47.8103 61.2785 48.4648 61.2785C49.1545 61.2715 49.8723 61.0289 50.6183 60.5509L50.27 59.9076C50.1993 59.9511 50.1293 59.992 50.06 60.0304C49.5348 60.3211 49.0453 60.4665 48.5915 60.4665C47.7611 60.4665 47.191 60.0306 46.8814 59.1589C46.7266 58.723 46.6492 58.2098 46.6492 57.6192C46.6492 56.2834 46.9729 55.3976 47.6203 54.9617C47.8737 54.8 48.1587 54.7192 48.4754 54.7192ZM52.3634 61.4055H50.9445L53.3127 53.8013H54.8114L57.157 61.4055H55.6957L55.1996 59.7287H52.8701L52.3634 61.4055ZM52.6895 59.4858H55.3813L55.8775 61.1625H56.8275L54.6318 54.0443H53.4917L51.2749 61.1625H52.1828L52.6895 59.4858ZM54.2185 56.4205C54.1856 56.3053 54.1284 56.0891 54.0475 55.7737C53.9616 56.1077 53.8992 56.3371 53.8613 56.4572C53.8612 56.4576 53.8611 56.4581 53.8609 56.4586L53.2283 58.5468H54.8451L54.2185 56.4205ZM55.1702 58.7898H52.9006L53.629 56.3854C53.6712 56.2518 53.7486 55.9636 53.8612 55.5207C53.8838 55.4391 53.9047 55.3633 53.9238 55.2933C53.9823 55.0797 54.0247 54.92 54.0512 54.8141C54.0761 54.9137 54.1176 55.0738 54.1756 55.2945C54.1831 55.3232 54.1909 55.3529 54.199 55.3836C54.3257 55.8827 54.4101 56.2061 54.4524 56.3538L55.1702 58.7898ZM58.7037 61.4055H57.3862L58.3899 53.8013H59.7893L61.169 58.6143C61.1831 58.6593 61.198 58.7121 61.2137 58.7726C61.236 58.6843 61.2516 58.6235 61.2605 58.5901L61.2626 58.5824L62.7084 53.8013H64.0759L64.9894 61.4055H63.5985L63.1329 56.8981C63.1329 56.8976 63.1328 56.8972 63.1328 56.8967C63.125 56.8292 63.1174 56.7614 63.11 56.6935C63.0789 56.7994 63.0507 56.8904 63.0254 56.9662C63.0252 56.9669 63.025 56.9677 63.0247 56.9684L61.7295 61.1244L60.5547 61.1702L59.3313 56.9419C59.3311 56.9412 59.3308 56.9405 59.3306 56.9398C59.3077 56.8651 59.2815 56.7748 59.2522 56.669C59.2403 56.7652 59.2313 56.8439 59.2252 56.9052L59.2248 56.909L58.7037 61.4055ZM59.0864 56.0378C59.1193 55.7432 59.1447 55.5217 59.1626 55.373C59.2048 55.5136 59.2611 55.728 59.3315 56.0163C59.332 56.0181 59.3324 56.02 59.3329 56.0218C59.4308 56.4057 59.5077 56.6886 59.5637 56.8705L60.7355 60.92L61.5483 60.8883L62.794 56.8916C62.8562 56.7052 62.9387 56.4171 63.0416 56.0273C63.0435 56.0201 63.0454 56.0129 63.0473 56.0057C63.1247 55.7105 63.1846 55.496 63.2268 55.3625C63.2457 55.5928 63.2661 55.821 63.2879 56.0472C63.3146 56.3248 63.3435 56.5992 63.3746 56.8705L63.8179 61.1625H64.7152L63.8602 54.0443H62.889L61.4955 58.6527C61.4758 58.7266 61.4215 58.9422 61.3326 59.2995C61.3325 59.2996 61.3326 59.2993 61.3326 59.2995C61.3323 59.3004 61.332 59.3019 61.3317 59.3028C61.294 59.4544 61.2501 59.6314 61.2 59.8338C61.1718 59.7283 61.1366 59.5666 61.0944 59.3487C61.0906 59.3303 61.0869 59.3122 61.0832 59.2944C61.0248 59.0133 60.9758 58.8099 60.9361 58.6843L59.606 54.0443H58.6031L57.6636 61.1625H58.487L58.9831 56.881C58.9972 56.7404 59.0254 56.5154 59.0676 56.2061C59.0741 56.1476 59.0804 56.0914 59.0864 56.0378ZM67.4518 61.4055H66.0787V53.8107L66.3123 53.8015C66.8509 53.7803 67.4418 53.7697 68.0848 53.7697C68.5787 53.7697 69.0208 53.8396 69.4063 53.9859L69.4092 53.987C69.8485 54.1602 70.1931 54.421 70.4259 54.7759C70.658 55.1298 70.7665 55.5586 70.7665 56.0479C70.7665 56.5531 70.6433 57.0127 70.3926 57.4196C69.9233 58.1745 69.1515 58.5371 68.1376 58.5371H67.4518V61.4055ZM67.2086 61.1625H66.3219V54.0443C66.8567 54.0232 67.4444 54.0126 68.0848 54.0126C68.5563 54.0126 68.968 54.0794 69.3199 54.213C70.1222 54.5294 70.5233 55.141 70.5233 56.0479C70.5233 56.5119 70.4107 56.9267 70.1855 57.2923C69.7703 57.9602 69.0876 58.2941 68.1376 58.2941H67.2086V61.1625ZM67.2086 57.5454H68.032C68.2431 57.5454 68.4367 57.5243 68.6126 57.4821C69.2671 57.3134 69.5943 56.8775 69.5943 56.1745C69.5943 56.0901 69.5908 56.0093 69.5838 55.9319C69.5064 55.1516 68.9961 54.7614 68.0531 54.7614C67.842 54.7614 67.5605 54.7685 67.2086 54.7825V57.5454ZM67.4518 55.0166C67.6946 55.0084 67.8948 55.0043 68.0531 55.0043C68.4952 55.0043 68.7983 55.0964 68.9952 55.2469C69.1852 55.3922 69.3079 55.6162 69.3416 55.9549C69.3479 56.0241 69.3511 56.0972 69.3511 56.1745C69.3511 56.4888 69.2783 56.7178 69.1543 56.8829C69.0314 57.0466 68.8396 57.1723 68.5539 57.2463C68.3998 57.2831 68.2263 57.3024 68.032 57.3024H67.4518V55.0166ZM75.3714 60.67C74.9158 61.245 74.2587 61.5215 73.4389 61.5215C72.6867 61.5215 71.9799 61.2812 71.3233 60.8117L71.1458 60.6847L71.7506 59.6144L71.9681 59.7573C72.4696 60.087 72.9699 60.2485 73.4722 60.2552C73.6441 60.255 73.7951 60.2225 73.9288 60.1613L73.9316 60.1599C74.1069 60.0825 74.2266 59.9773 74.3049 59.8479C74.3841 59.7168 74.4308 59.544 74.4308 59.317C74.4308 59.1833 74.4032 59.0609 74.3489 58.947C74.2525 58.7444 73.9906 58.5112 73.4827 58.2712L73.4811 58.2705C72.9025 57.9919 72.5447 57.8137 72.4271 57.7432L72.4237 57.7412C71.7224 57.3052 71.3589 56.6736 71.3589 55.8687C71.3589 55.2949 71.5541 54.7981 71.944 54.3927L71.946 54.3906C72.412 53.9173 73.0118 53.6853 73.724 53.6853C73.9162 53.6853 74.1053 53.7045 74.2908 53.7431C75.0237 53.8989 75.5398 54.3077 75.7979 54.9683L75.8766 55.1698L74.8016 55.7403L74.6062 55.3988C74.3786 55.0833 74.0784 54.9305 73.6817 54.9305C73.5208 54.9305 73.3703 54.9647 73.2275 55.0331C73.0561 55.1144 72.9385 55.2196 72.8629 55.3437C72.7868 55.4687 72.7427 55.6294 72.7427 55.837C72.7427 55.9574 72.767 56.0658 72.8142 56.1654C72.9032 56.3529 73.1566 56.5788 73.6596 56.8198M74.8113 55.2676L74.8957 55.4152L75.5713 55.0567C75.3461 54.4802 74.9028 54.1216 74.2412 53.981C74.0723 53.9459 73.8999 53.9283 73.724 53.9283C73.0695 53.9283 72.5346 54.1392 72.1194 54.561C71.7746 54.9196 71.6021 55.3554 71.6021 55.8687C71.6021 56.5858 71.9188 57.1411 72.5522 57.5348C72.6578 57.5981 73.0026 57.7704 73.5867 58.0516C74.1075 58.2976 74.4348 58.5613 74.5685 58.8425C74.6388 58.9901 74.674 59.1483 74.674 59.317C74.674 59.8373 74.4594 60.1923 74.0301 60.3821C73.8612 60.4595 73.6747 60.4981 73.4706 60.4981C72.9863 60.492 72.51 60.3552 72.0417 60.0877C71.9724 60.0481 71.9033 60.0056 71.8344 59.9603L71.4649 60.6141C72.0842 61.0571 72.7422 61.2785 73.4389 61.2785C74.199 61.2785 74.7796 61.0254 75.1807 60.5192C75.4482 60.1677 75.5819 59.7424 75.5819 59.2432C75.5819 58.5261 75.2581 57.9637 74.6107 57.5559C74.4981 57.4927 74.1462 57.3204 73.5551 57.0392C73.0413 56.7931 72.7211 56.5365 72.5944 56.2694C72.5311 56.1358 72.4994 55.9917 72.4994 55.837C72.4994 55.3519 72.707 55.011 73.1223 54.8141C73.2982 54.7297 73.4847 54.6876 73.6817 54.6876C74.1603 54.6876 74.5368 54.8809 74.8113 55.2676ZM28.6971 59.1272C28.5563 58.6913 28.486 58.1887 28.486 57.6192C28.486 56.5014 28.7428 55.6859 29.2566 55.1727C29.5662 54.8703 29.9322 54.7192 30.3544 54.7192C31.1215 54.7192 31.6529 55.1691 31.9484 56.069C32.0962 56.5119 32.1701 57.0287 32.1701 57.6192C32.1701 58.7722 31.9027 59.5947 31.3678 60.0869C31.0793 60.354 30.7345 60.4876 30.3333 60.4876C29.5381 60.4876 28.9927 60.0341 28.6971 59.1272Z" fill="#3A3A45"></path><path fill-rule="evenodd" clip-rule="evenodd" d="M46.6524 102.594L45.3212 104.943L12.5433 86.4093C10.4248 85.2114 9.11523 82.9676 9.11523 80.5358V21.5881C9.11523 17.5929 12.0408 14.1666 16.048 13.6231C23.2522 12.6459 37.6183 10.8873 47.9689 10.877C58.5406 10.8665 73.2309 12.6461 80.5419 13.628C84.5541 14.1669 87.4854 17.5953 87.4854 21.5948V80.5149C87.4854 82.9653 86.1559 85.2232 84.012 86.4138L50.6097 104.964C48.9637 105.878 46.9601 105.87 45.3212 104.943L46.6524 102.594ZM84.7829 21.5948V80.5149C84.7829 81.9851 83.9852 83.3399 82.6989 84.0542L49.2966 102.604C48.4736 103.061 47.4718 103.057 46.6524 102.594L13.8745 84.0599C12.6034 83.3412 11.8176 81.9949 11.8176 80.5358V21.5881C11.8176 18.9211 13.7661 16.657 16.4116 16.2982C23.6233 15.32 37.8241 13.5868 47.9716 13.5767C58.339 13.5663 72.8631 15.3206 80.1818 16.3036C82.8306 16.6593 84.7829 18.9249 84.7829 21.5948Z" fill="#33333C"></path><path fill-rule="evenodd" clip-rule="evenodd" d="M11.1426 16.3266L13.1241 18.1666C13.946 17.1746 15.1246 16.4832 16.4885 16.2982C23.7002 15.32 37.9011 13.5868 48.0486 13.5767C58.4161 13.5663 72.9402 15.3207 80.2589 16.3036C82.9077 16.6594 84.8601 18.9249 84.8601 21.5949V80.5151C84.8601 81.6792 84.36 82.7708 83.5133 83.5296L85.4977 85.3722C86.7996 84.1171 87.5625 82.3714 87.5625 80.5151V21.5949C87.5625 17.5953 84.6312 14.1669 80.619 13.628C73.308 12.6461 58.6177 10.8665 48.0459 10.877C37.6953 10.8873 23.3292 12.6459 16.1249 13.6231C14.1141 13.8959 12.3757 14.8944 11.1426 16.3266Z" fill="#B61C0D"></path><g clip-path="url(#clip0_2082_25215)"><ellipse cx="32.1802" cy="27.4227" rx="5.40484" ry="5.3993" fill="#C71F0E"></ellipse><path d="M29.649 31.1274L31.9193 29.5568L33.85 27.9001L31.209 28.0351L30.3369 27.4338L32.4988 25.6913L32.7322 24.7096L32.6339 23.7157L38.8004 27.532C38.8004 27.532 36.9464 32.4216 35.7583 33.1767C34.8562 33.7501 33.4121 33.8271 33.4121 33.8271L29.649 31.1274Z" fill="url(#paint0_linear_2082_25215)"></path><path d="M29.6504 31.1302C29.6504 31.1302 33.5935 28.3692 33.4338 28.0624C33.2741 27.7557 30.6699 29.9399 29.9821 28.9091L30.3874 27.9029L31.0139 27.0807C30.326 28.6146 32.2291 27.2822 32.8687 27.1544C33.3284 27.0625 34.0177 26.8353 34.2691 27.4366C34.7153 28.5042 29.6504 31.1302 29.6504 31.1302Z" fill="url(#paint1_linear_2082_25215)"></path><path d="M32.6585 24.6016V26.6631C31.3224 26.954 29.9533 27.6645 30.561 29.1664C30.561 29.1664 30.036 29.2298 29.7841 28.6142C29.1204 26.9922 32.6585 24.6016 32.6585 24.6016Z" fill="white"></path><path d="M32.6387 27.7908V23.7168L34.7023 24.993L32.6387 27.7908Z" fill="white"></path></g><path d="M41.8123 30.2212C41.5589 30.2212 41.2883 30.188 41.0008 30.1215C40.7132 30.055 40.4889 29.9635 40.3281 29.8471V28.9576C40.5182 29.0906 40.7448 29.1987 41.0081 29.2818C41.2713 29.3594 41.5199 29.3982 41.7539 29.3982C41.9878 29.3982 42.1584 29.376 42.2657 29.3317C42.3729 29.2818 42.4265 29.1932 42.4265 29.0657C42.4265 28.9659 42.3973 28.8856 42.3388 28.8246C42.2852 28.7581 42.195 28.6999 42.0683 28.65C41.9464 28.5946 41.7563 28.5281 41.4979 28.4505C41.2055 28.3563 40.9739 28.2593 40.8033 28.1596C40.6376 28.0598 40.5109 27.9351 40.4231 27.7855C40.3403 27.6303 40.2988 27.4308 40.2988 27.1869C40.2988 26.7879 40.4378 26.4886 40.7156 26.2891C40.9934 26.0841 41.3688 25.9815 41.8416 25.9815C42.0853 25.9815 42.3266 26.0092 42.5655 26.0647C42.8092 26.1145 42.9993 26.1866 43.1358 26.2808V27.137C42.9895 27.0373 42.8116 26.9569 42.602 26.896C42.3924 26.835 42.1779 26.8045 41.9586 26.8045C41.7197 26.8045 41.5394 26.8322 41.4175 26.8877C41.2957 26.9375 41.2347 27.0373 41.2347 27.1869C41.2347 27.2867 41.2664 27.367 41.3298 27.428C41.398 27.4834 41.4858 27.5333 41.593 27.5776C41.7002 27.6164 41.8952 27.6774 42.1779 27.7605C42.4801 27.8547 42.7166 27.9573 42.8872 28.0681C43.0578 28.179 43.1796 28.312 43.2528 28.4671C43.3259 28.6223 43.3624 28.8163 43.3624 29.0491C43.3624 29.4038 43.2284 29.6892 42.9603 29.9053C42.6971 30.1159 42.3144 30.2212 41.8123 30.2212Z" fill="#3A3A45"></path><path d="M43.4728 26.1062H44.3941L45.1107 28.808L45.8126 26.1062H46.6169L47.3188 28.808L48.0353 26.1062H48.9566L47.8087 30.0965H46.9605L46.2147 27.3864L45.4689 30.0965H44.6208L43.4728 26.1062Z" fill="#3A3A45"></path><path d="M50.0612 25.4079C49.915 25.4079 49.7907 25.3525 49.6884 25.2417C49.5909 25.1308 49.5421 24.9923 49.5421 24.826C49.5421 24.6597 49.5909 24.5212 49.6884 24.4103C49.7907 24.294 49.915 24.2358 50.0612 24.2358C50.2075 24.2358 50.3318 24.294 50.4341 24.4103C50.5365 24.5212 50.5877 24.6597 50.5877 24.826C50.5877 24.9923 50.5365 25.1308 50.4341 25.2417C50.3318 25.3525 50.2075 25.4079 50.0612 25.4079ZM49.5933 26.1062H50.5292V30.0965H49.5933V26.1062Z" fill="#3A3A45"></path><path d="M52.7278 30.2212C52.3427 30.2212 52.0502 30.0993 51.8504 29.8554C51.6505 29.6116 51.5506 29.268 51.5506 28.8246V26.9043H51.0242V26.1062H51.5506V24.9091H52.4719V26.1062H53.3127V26.9043H52.4719V28.6916C52.4719 28.9465 52.5133 29.1294 52.5962 29.2403C52.679 29.3456 52.8302 29.3982 53.0495 29.3982C53.2006 29.3982 53.3493 29.3594 53.4955 29.2818V30.0799C53.2859 30.1741 53.03 30.2212 52.7278 30.2212Z" fill="#3A3A45"></path><path d="M55.8778 30.2212C55.4683 30.2212 55.1076 30.1381 54.7956 29.9718C54.4885 29.8056 54.2497 29.5645 54.0791 29.2486C53.9085 28.9327 53.8232 28.553 53.8232 28.1097C53.8232 27.6663 53.9085 27.2867 54.0791 26.9708C54.2546 26.6493 54.4958 26.4055 54.8029 26.2392C55.1149 26.0674 55.4781 25.9815 55.8924 25.9815C56.4383 25.9815 56.8746 26.1035 57.2012 26.3473V27.1869C56.8843 26.932 56.4798 26.8045 55.9874 26.8045C55.6121 26.8045 55.3123 26.9126 55.0881 27.1287C54.8687 27.3393 54.7591 27.6663 54.7591 28.1097C54.7591 28.5475 54.8687 28.8717 55.0881 29.0823C55.3123 29.2929 55.6072 29.3982 55.9728 29.3982C56.4651 29.3982 56.8892 29.2652 57.245 28.9992V29.8305C57.0696 29.9635 56.8697 30.0605 56.6455 30.1215C56.4261 30.188 56.1702 30.2212 55.8778 30.2212Z" fill="#3A3A45"></path><path d="M57.8289 23.9531H58.7502V26.6133C59.0816 26.1921 59.5106 25.9815 60.037 25.9815C60.5098 25.9815 60.8632 26.1284 61.0972 26.4221C61.3312 26.7103 61.4482 27.0955 61.4482 27.5776V30.0965H60.5269V27.6774C60.5269 27.0955 60.2881 26.8045 59.8104 26.8045C59.6008 26.8045 59.4033 26.8627 59.2181 26.9791C59.0329 27.0899 58.8769 27.259 58.7502 27.4862V30.0965H57.8289V23.9531Z" fill="#3A3A45"></path><path d="M63.52 30.2212C63.0471 30.2212 62.6937 30.0771 62.4598 29.7889C62.2258 29.4952 62.1088 29.1073 62.1088 28.6251V26.1062H63.0301V28.5253C63.0301 29.1073 63.2689 29.3982 63.7466 29.3982C63.9562 29.3982 64.1536 29.3428 64.3389 29.232C64.5241 29.1156 64.6801 28.9438 64.8068 28.7165V26.1062H65.7281V30.0965H64.8361V29.5562C64.6703 29.7834 64.4729 29.9524 64.2438 30.0633C64.0147 30.1686 63.7734 30.2212 63.52 30.2212Z" fill="#3A3A45"></path><path d="M66.4618 26.1062H67.3539V26.5884C67.544 26.3833 67.7511 26.2309 67.9754 26.1312C68.1996 26.0314 68.4555 25.9815 68.7431 25.9815C69.0989 25.9815 69.4158 26.0702 69.6936 26.2475C69.9763 26.4193 70.1957 26.666 70.3516 26.9874C70.5125 27.3033 70.5929 27.6719 70.5929 28.0931C70.5929 28.5087 70.5125 28.8773 70.3516 29.1987C70.1957 29.5201 69.9763 29.7723 69.6936 29.9552C69.4158 30.1325 69.0989 30.2212 68.7431 30.2212C68.475 30.2212 68.2215 30.1796 67.9827 30.0965C67.7487 30.0078 67.5488 29.8776 67.3831 29.7058V31.9171H66.4618V26.1062ZM68.5164 29.3982C68.8479 29.3982 69.1208 29.2763 69.3353 29.0324C69.5498 28.7886 69.657 28.4755 69.657 28.0931C69.657 27.7107 69.5498 27.4003 69.3353 27.162C69.1208 26.9237 68.8479 26.8045 68.5164 26.8045C68.2532 26.8045 68.0192 26.8849 67.8145 27.0456C67.6098 27.2063 67.466 27.4225 67.3831 27.694V28.5004C67.4611 28.772 67.6025 28.9909 67.8072 29.1571C68.0168 29.3179 68.2532 29.3982 68.5164 29.3982Z" fill="#3A3A45"></path><path d="M56.11 81.1706C55.7021 81.1706 55.3335 81.1236 55.0041 81.0295C54.6825 80.9355 54.3962 80.8101 54.1452 80.6534C53.8942 80.4967 53.6707 80.3204 53.4746 80.1246L54.2511 79.0315C54.4786 79.2352 54.7256 79.4115 54.9923 79.5604C55.259 79.7014 55.5492 79.772 55.8629 79.772C56.1139 79.772 56.3335 79.7289 56.5217 79.6427C56.71 79.5487 56.8551 79.4155 56.957 79.2431C57.0668 79.0707 57.1217 78.8592 57.1217 78.6084C57.1217 78.2323 57.0119 77.9463 56.7923 77.7505C56.5727 77.5546 56.2904 77.4566 55.9453 77.4566C55.7335 77.4566 55.5531 77.4841 55.4041 77.5389C55.255 77.5938 55.0668 77.6917 54.8393 77.8327L54.0629 77.3391L54.2746 73.5664H58.51V75.0238H55.7688L55.6394 76.4224C55.7884 76.3597 55.9256 76.3166 56.0511 76.2931C56.1766 76.2617 56.3178 76.2461 56.4747 76.2461C56.9061 76.2461 57.3021 76.3283 57.6629 76.4929C58.0237 76.6574 58.31 76.9121 58.5218 77.2568C58.7414 77.6016 58.8512 78.0364 58.8512 78.5614C58.8512 79.1177 58.7218 79.5918 58.463 79.9835C58.212 80.3674 57.8786 80.6613 57.4629 80.865C57.0472 81.0687 56.5962 81.1706 56.11 81.1706Z" fill="#C92818"></path><path d="M48.0119 81.028V79.9585C48.6394 79.4022 49.1962 78.8811 49.6825 78.3953C50.1767 77.9095 50.561 77.459 50.8355 77.0437C51.1179 76.6285 51.259 76.2485 51.259 75.9037C51.259 75.5354 51.1649 75.2573 50.9767 75.0692C50.7884 74.8734 50.5296 74.7754 50.2002 74.7754C49.9335 74.7754 49.6904 74.8538 49.4708 75.0105C49.259 75.1593 49.059 75.3356 48.8707 75.5394L47.9648 74.6461C48.3256 74.2387 48.6943 73.9331 49.0708 73.7294C49.4551 73.5257 49.91 73.4238 50.4355 73.4238C50.9218 73.4238 51.3492 73.5218 51.7179 73.7177C52.0943 73.9135 52.3845 74.1878 52.5885 74.5404C52.8002 74.8929 52.9061 75.3082 52.9061 75.7862C52.9061 76.2328 52.7846 76.6716 52.5414 77.1025C52.3061 77.5256 51.9924 77.9487 51.6002 78.3718C51.2081 78.7949 50.7924 79.2259 50.3531 79.6646C50.5414 79.6411 50.7531 79.6215 50.9884 79.6059C51.2237 79.5824 51.4277 79.5706 51.6002 79.5706H53.2708V81.028H48.0119Z" fill="#C92818"></path><path d="M45.0554 81.169C44.2554 81.169 43.6083 80.836 43.1142 80.17C42.6279 79.504 42.3848 78.5364 42.3848 77.267C42.3848 75.9899 42.6279 75.0301 43.1142 74.3876C43.6083 73.7451 44.2554 73.4238 45.0554 73.4238C45.8554 73.4238 46.4986 73.749 46.9849 74.3993C47.479 75.0418 47.7261 75.9977 47.7261 77.267C47.7261 78.5364 47.479 79.504 46.9849 80.17C46.4986 80.836 45.8554 81.169 45.0554 81.169ZM45.0554 79.8292C45.2515 79.8292 45.428 79.7587 45.5848 79.6176C45.7417 79.4688 45.8633 79.2102 45.9496 78.8419C46.0437 78.4658 46.0907 77.9409 46.0907 77.267C46.0907 76.5854 46.0437 76.0643 45.9496 75.7039C45.8633 75.3435 45.7417 75.0967 45.5848 74.9635C45.428 74.8303 45.2515 74.7637 45.0554 74.7637C44.8593 74.7637 44.6829 74.8303 44.526 74.9635C44.3691 75.0967 44.2436 75.3435 44.1495 75.7039C44.0632 76.0643 44.0201 76.5854 44.0201 77.267C44.0201 77.9409 44.0632 78.4658 44.1495 78.8419C44.2436 79.2102 44.3691 79.4688 44.526 79.6176C44.6829 79.7587 44.8593 79.8292 45.0554 79.8292Z" fill="#C92818"></path><path d="M36.756 81.028V79.9585C37.3835 79.4022 37.9404 78.8811 38.4267 78.3953C38.9208 77.9095 39.3051 77.459 39.5796 77.0437C39.862 76.6285 40.0032 76.2485 40.0032 75.9037C40.0032 75.5354 39.9091 75.2573 39.7208 75.0692C39.5326 74.8734 39.2737 74.7754 38.9443 74.7754C38.6777 74.7754 38.4345 74.8538 38.2149 75.0105C38.0031 75.1593 37.8031 75.3356 37.6149 75.5394L36.709 74.6461C37.0698 74.2387 37.4384 73.9331 37.8149 73.7294C38.1992 73.5257 38.6541 73.4238 39.1796 73.4238C39.6659 73.4238 40.0934 73.5218 40.462 73.7177C40.8385 73.9135 41.1287 74.1878 41.3326 74.5404C41.5444 74.8929 41.6503 75.3082 41.6503 75.7862C41.6503 76.2328 41.5287 76.6716 41.2856 77.1025C41.0503 77.5256 40.7365 77.9487 40.3444 78.3718C39.9522 78.7949 39.5365 79.2259 39.0973 79.6646C39.2855 79.6411 39.4973 79.6215 39.7326 79.6059C39.9679 79.5824 40.1718 79.5706 40.3444 79.5706H42.015V81.028H36.756Z" fill="#C92818"></path><defs><linearGradient id="paint0_linear_2082_25215" x1="32.1303" y1="29.3849" x2="34.1708" y2="32.1468" gradientUnits="userSpaceOnUse"><stop stop-color="#A02519"></stop><stop offset="1" stop-color="#C21E0E"></stop></linearGradient><linearGradient id="paint1_linear_2082_25215" x1="30.7559" y1="27.4734" x2="32.7323" y2="28.8497" gradientUnits="userSpaceOnUse"><stop stop-color="#B0B0B0"></stop><stop offset="0.392295" stop-color="#F1F1F1"></stop><stop offset="1" stop-color="#F7FBFF"></stop></linearGradient><clipPath id="clip0_2082_25215"><rect x="26.7754" y="22.0234" width="10.8097" height="10.7986" rx="5.3993" fill="white"></rect></clipPath></defs></svg> 