<?xml version="1.0" encoding="UTF-8"?> <svg xmlns="http://www.w3.org/2000/svg" width="97" height="96" viewBox="0 0 97 96" fill="none"><circle cx="48.4141" cy="48" r="48" fill="#FFF9D5"></circle><path d="M47.1066 5.82397L47.8929 8.24129L47.9352 8.37142H48.072H50.6158L48.558 9.86498L48.4471 9.94545L48.4895 10.0757L49.2756 12.4927L47.2173 10.9987L47.1066 10.9184L46.9959 10.9987L44.9376 12.4927L45.7237 10.0757L45.7661 9.94545L45.6552 9.86498L43.5974 8.37142H46.1412H46.278L46.3204 8.24129L47.1066 5.82397Z" stroke="#87732A" stroke-width="0.376806"></path><path d="M85.5798 35.2165L86.2644 37.3214L86.3067 37.4516H86.4436H88.6585L86.8667 38.752L86.7559 38.8325L86.7982 38.9628L87.4827 41.0673L85.6904 39.7664L85.5798 39.6861L85.4691 39.7664L83.6768 41.0673L84.3613 38.9628L84.4037 38.8325L84.2928 38.752L82.501 37.4516H84.716H84.8528L84.8952 37.3214L85.5798 35.2165Z" fill="#877428" stroke="#87732A" stroke-width="0.376806"></path><path d="M10.8942 35.2165L11.5788 37.3214L11.6212 37.4516H11.758H13.9729L12.1812 38.752L12.0703 38.8325L12.1127 38.9628L12.7972 41.0673L11.0049 39.7664L10.8942 39.6861L10.7836 39.7664L8.99126 41.0673L9.67576 38.9628L9.71813 38.8325L9.60726 38.752L7.8155 37.4516H10.0304H10.1673L10.2096 37.3214L10.8942 35.2165Z" fill="#877428" stroke="#87732A" stroke-width="0.376806"></path><rect x="30.5859" y="16.0645" width="34.3998" height="11.7563" fill="#030300"></rect><path d="M32.8496 25.8904H34.2871L34.2965 22.7388H35.6119V21.456H34.2965V19.3217H35.9031V17.9836H32.8496V25.8904Z" fill="#FFF9D5"></path><path d="M38.5343 26.012C39.7839 26.012 40.5919 25.249 40.5919 23.6013V20.2395C40.5919 18.5918 39.7557 17.873 38.5343 17.873C37.3598 17.873 36.4861 18.625 36.4861 20.2506V23.6455C36.4861 25.2711 37.2847 26.012 38.5343 26.012ZM38.5343 24.6408C38.1303 24.6408 37.9612 24.3533 37.9612 23.6345V20.2395C37.9612 19.5318 38.1491 19.2443 38.5343 19.2443C38.9383 19.2443 39.1168 19.5429 39.1168 20.2395V23.6234C39.1168 24.3422 38.9383 24.6408 38.5343 24.6408Z" fill="#FFF9D5"></path><path d="M41.4189 25.8904H42.8658V22.595H43.1288L43.8711 25.8904H45.3743L44.4912 22.3296C44.9328 22.0752 45.1864 21.655 45.1864 20.7593V19.952C45.1864 18.6361 44.6509 17.9836 43.251 17.9836H41.4189V25.8904ZM42.8658 21.5002V19.2885H43.204C43.608 19.2885 43.7771 19.4765 43.7771 20.0073V20.7372C43.7771 21.3012 43.608 21.5002 43.204 21.5002H42.8658Z" fill="#FFF9D5"></path><path d="M46.7929 25.8904H48.2304L48.2398 19.3217H49.3109V17.9836H45.7124V19.3217H46.7929V25.8904Z" fill="#FFF9D5"></path><path d="M52.4404 17.9836V23.734C52.4404 24.3975 52.2994 24.6297 51.933 24.6297C51.5478 24.6297 51.4163 24.4086 51.4163 23.7451V17.9836H49.9694V23.7782C49.9694 25.3264 50.674 26.012 51.9236 26.012C53.1638 26.012 53.8966 25.3264 53.8966 23.7893V17.9836H52.4404Z" fill="#FFF9D5"></path><path d="M54.7545 25.8904H56.0041V20.9805L57.3382 25.8904H58.71V17.9836H57.451V22.2079L56.3141 17.9836H54.7545V25.8904Z" fill="#FFF9D5"></path><path d="M59.585 25.8904H62.7231V24.5523H61.0319V22.3628H62.2909V21.091H61.0319V19.3217H62.6292V17.9836H59.585V25.8904Z" fill="#FFF9D5"></path><path d="M41.4492 42.63V31.4395H43.1352C43.4354 31.4395 43.6845 31.5846 43.8824 31.875C44.0868 32.1653 44.189 32.6387 44.189 33.2951V34.6773C44.189 35.0308 44.1603 35.3464 44.1028 35.6241C44.0517 35.8892 43.9846 36.1038 43.9016 36.2679C43.8058 36.4446 43.694 36.5645 43.5663 36.6276C43.4386 36.6781 43.3332 36.7097 43.2502 36.7223V36.6844C43.3907 36.6844 43.5216 36.7097 43.643 36.7602C43.7643 36.8107 43.8665 36.918 43.9495 37.0821C44.0453 37.2714 44.1187 37.4986 44.1698 37.7637C44.2209 38.0288 44.2465 38.3381 44.2465 38.6915V40.3389C44.2465 40.9827 44.1954 41.4687 44.0932 41.7969C43.991 42.1251 43.8505 42.346 43.6717 42.4596C43.4929 42.5732 43.2821 42.63 43.0394 42.63H41.4492ZM41.9186 42.0809H42.9628C43.1288 42.0809 43.2725 42.0367 43.3939 41.9484C43.5152 41.86 43.6078 41.6896 43.6717 41.4371C43.7419 41.172 43.7771 40.7807 43.7771 40.2631V38.6915C43.7771 38.0478 43.6908 37.6249 43.5184 37.4229C43.346 37.2083 43.1288 37.101 42.867 37.101H41.9186V42.0809ZM41.9186 36.4762H42.8574C43.1448 36.4762 43.3619 36.331 43.5088 36.0406C43.6621 35.7377 43.7387 35.3148 43.7387 34.772V33.4466C43.7387 32.9542 43.6685 32.5945 43.528 32.3673C43.3875 32.1274 43.2214 32.0075 43.0299 32.0075H41.9186V36.4762Z" fill="black"></path><path d="M45.4064 42.63V31.4395H47.8109V32.1211H45.895V36.4004H47.399V37.1199H45.895V41.9673H47.8109V42.63H45.4064Z" fill="black"></path><path d="M49.7723 42.7436C49.5041 42.7436 49.2678 42.6489 49.0634 42.4596C48.8655 42.2576 48.7122 41.9231 48.6036 41.456C48.4951 40.9764 48.4408 40.3136 48.4408 39.4679V38.862C48.5174 38.862 48.594 38.862 48.6707 38.862C48.7537 38.862 48.8303 38.862 48.9006 38.862V39.5247C48.9006 40.1937 48.9357 40.7176 49.006 41.0963C49.0826 41.475 49.188 41.7401 49.3221 41.8915C49.4562 42.043 49.6095 42.1188 49.7819 42.1188C50.0501 42.1188 50.2705 41.9547 50.4429 41.6265C50.6217 41.2856 50.7111 40.6797 50.7111 39.8087C50.7111 39.228 50.6664 38.7862 50.577 38.4833C50.494 38.1803 50.3663 37.9405 50.1938 37.7637C50.0214 37.587 49.8107 37.404 49.5616 37.2146C49.3572 37.0505 49.172 36.8612 49.006 36.6466C48.8399 36.4193 48.709 36.1227 48.6132 35.7566C48.5174 35.3779 48.4695 34.8982 48.4695 34.3176C48.4695 33.6738 48.5142 33.1373 48.6036 32.7081C48.693 32.2789 48.8367 31.9633 49.0347 31.7613C49.2327 31.5468 49.4913 31.4395 49.8107 31.4395C50.2258 31.4395 50.5483 31.654 50.7782 32.0832C51.0145 32.4998 51.1326 33.0994 51.1326 33.8821V35.0939C51.056 35.0939 50.9794 35.0939 50.9027 35.0939C50.8325 35.0939 50.759 35.0939 50.6824 35.0939V34.0903C50.6824 33.4592 50.6058 32.9795 50.4525 32.6513C50.3056 32.3231 50.0917 32.159 49.8107 32.159C49.5041 32.159 49.2806 32.3357 49.1401 32.6892C48.9996 33.0426 48.9293 33.5728 48.9293 34.2797C48.9293 34.7973 48.9804 35.2075 49.0826 35.5105C49.1848 35.8008 49.3125 36.028 49.4658 36.1921C49.6254 36.3562 49.7947 36.5077 49.9735 36.6466C50.2609 36.8612 50.494 37.0884 50.6728 37.3282C50.8516 37.5554 50.9826 37.8521 51.0656 38.2182C51.1486 38.5716 51.1901 39.0702 51.1901 39.714C51.1901 40.4714 51.1294 41.071 51.0081 41.5128C50.8868 41.9547 50.7207 42.2702 50.51 42.4596C50.2992 42.6489 50.0533 42.7436 49.7723 42.7436Z" fill="black"></path><path d="M52.6667 42.63V32.1211H51.6896V31.4395H54.1228V32.1211H53.1265V42.63H52.6667Z" fill="black"></path><path d="M22.9587 45.6207H25.028C25.7013 45.6207 26.2063 45.8609 26.543 46.3411C26.8797 46.8213 27.048 47.5253 27.048 48.453V54.2486C27.048 55.1763 26.8797 55.8803 26.543 56.3605C26.2063 56.8407 25.7013 57.0808 25.028 57.0808H22.9587V45.6207ZM25.0033 55.4437C25.2251 55.4437 25.3934 55.3564 25.5084 55.1817C25.6315 55.0071 25.6931 54.7233 25.6931 54.3304V48.3712C25.6931 47.9783 25.6315 47.6945 25.5084 47.5198C25.3934 47.3452 25.2251 47.2579 25.0033 47.2579H24.3136V55.4437H25.0033Z" fill="black"></path><path d="M28.9854 45.6207H30.8207L32.2248 57.0808H30.87L30.6236 54.8052V54.8379H29.084L28.8376 57.0808H27.5813L28.9854 45.6207ZM30.4635 53.2826L29.8599 47.6181H29.8353L29.2441 53.2826H30.4635Z" fill="black"></path><path d="M33.3761 47.2579H31.9596V45.6207H36.1474V47.2579H34.731V57.0808H33.3761V47.2579Z" fill="black"></path><path d="M37.285 45.6207H39.1203L40.5244 57.0808H39.1696L38.9232 54.8052V54.8379H37.3836L37.1372 57.0808H35.8809L37.285 45.6207ZM38.7631 53.2826L38.1596 47.6181H38.1349L37.5437 53.2826H38.7631Z" fill="black"></path><path d="M44.9158 57.2446C44.2589 57.2446 43.7621 56.999 43.4254 56.5078C43.0887 56.0058 42.9204 55.2909 42.9204 54.3632V53.7083H44.2014V54.4941C44.2014 55.2363 44.4354 55.6074 44.9035 55.6074C45.1334 55.6074 45.3058 55.5201 45.4208 55.3455C45.544 55.1599 45.6055 54.8652 45.6055 54.4614C45.6055 53.9812 45.5234 53.561 45.3592 53.2008C45.195 52.8297 44.8912 52.3877 44.4477 51.8747C43.8894 51.2198 43.4993 50.6304 43.2776 50.1066C43.0559 49.5717 42.945 48.9715 42.945 48.3057C42.945 47.3998 43.1175 46.7013 43.4624 46.2101C43.8072 45.7081 44.3081 45.457 44.9651 45.457C45.6138 45.457 46.1023 45.7081 46.4308 46.2101C46.7675 46.7013 46.9358 47.4107 46.9358 48.3384V48.8132H45.6548V48.2238C45.6548 47.8309 45.5973 47.5471 45.4824 47.3725C45.3674 47.187 45.1991 47.0942 44.9774 47.0942C44.5257 47.0942 44.2999 47.4598 44.2999 48.1911C44.2999 48.6058 44.382 48.9933 44.5463 49.3535C44.7187 49.7136 45.0266 50.1502 45.4701 50.6632C46.0366 51.318 46.4267 51.9129 46.6402 52.4477C46.8537 52.9825 46.9604 53.6101 46.9604 54.3304C46.9604 55.269 46.7839 55.9894 46.4308 56.4915C46.0859 56.9935 45.5809 57.2446 44.9158 57.2446Z" fill="black"></path><path d="M49.6464 57.2446C48.9977 57.2446 48.5009 56.999 48.1561 56.5078C47.8194 56.0167 47.6511 55.3236 47.6511 54.4286V48.2729C47.6511 47.378 47.8194 46.6849 48.1561 46.1938C48.5009 45.7026 48.9977 45.457 49.6464 45.457C50.2951 45.457 50.7878 45.7026 51.1245 46.1938C51.4694 46.6849 51.6418 47.378 51.6418 48.2729V49.4844H50.3608V48.1583C50.3608 47.4489 50.135 47.0942 49.6834 47.0942C49.2317 47.0942 49.0059 47.4489 49.0059 48.1583V54.5596C49.0059 55.2581 49.2317 55.6074 49.6834 55.6074C50.135 55.6074 50.3608 55.2581 50.3608 54.5596V52.8079H51.6418V54.4286C51.6418 55.3236 51.4694 56.0167 51.1245 56.5078C50.7878 56.999 50.2951 57.2446 49.6464 57.2446Z" fill="black"></path><path d="M52.4524 45.6207H53.8073V57.0808H52.4524V45.6207Z" fill="black"></path><path d="M54.822 45.6207H58.5172V47.2579H56.1769V50.2866H58.0368V51.9238H56.1769V55.4437H58.5172V57.0808H54.822V45.6207Z" fill="black"></path><path d="M59.2966 45.6207H60.9964L62.3143 52.4804H62.3389V45.6207H63.546V57.0808H62.1542L60.5283 48.715H60.5037V57.0808H59.2966V45.6207Z" fill="black"></path><path d="M66.4622 57.2446C65.8135 57.2446 65.3167 56.999 64.9718 56.5078C64.6351 56.0167 64.4668 55.3236 64.4668 54.4286V48.2729C64.4668 47.378 64.6351 46.6849 64.9718 46.1938C65.3167 45.7026 65.8135 45.457 66.4622 45.457C67.1109 45.457 67.6036 45.7026 67.9402 46.1938C68.2851 46.6849 68.4575 47.378 68.4575 48.2729V49.4844H67.1766V48.1583C67.1766 47.4489 66.9507 47.0942 66.4991 47.0942C66.0475 47.0942 65.8217 47.4489 65.8217 48.1583V54.5596C65.8217 55.2581 66.0475 55.6074 66.4991 55.6074C66.9507 55.6074 67.1766 55.2581 67.1766 54.5596V52.8079H68.4575V54.4286C68.4575 55.3236 68.2851 56.0167 67.9402 56.5078C67.6036 56.999 67.1109 57.2446 66.4622 57.2446Z" fill="black"></path><path d="M69.2682 45.6207H72.9633V47.2579H70.623V50.2866H72.4829V51.9238H70.623V55.4437H72.9633V57.0808H69.2682V45.6207Z" fill="black"></path><path d="M21.1249 58.718H22.9601L24.3643 70.1781H23.0094L22.763 67.9024V67.9352H21.2234L20.977 70.1781H19.7207L21.1249 58.718ZM22.6029 66.3799L21.9994 60.7153H21.9747L21.3835 66.3799H22.6029Z" fill="black"></path><path d="M25.0216 58.718H26.7213L28.0393 65.5777H28.0639V58.718H29.271V70.1781H27.8792L26.2533 61.8122H26.2287V70.1781H25.0216V58.718Z" fill="black"></path><path d="M30.278 58.718H32.3473C33.0206 58.718 33.5256 58.9581 33.8623 59.4383C34.199 59.9186 34.3673 60.6225 34.3673 61.5503V67.3458C34.3673 68.2735 34.199 68.9775 33.8623 69.4577C33.5256 69.938 33.0206 70.1781 32.3473 70.1781H30.278V58.718ZM32.3226 68.5409C32.5444 68.5409 32.7127 68.4536 32.8276 68.279C32.9508 68.1043 33.0124 67.8206 33.0124 67.4277V61.4684C33.0124 61.0755 32.9508 60.7917 32.8276 60.6171C32.7127 60.4425 32.5444 60.3551 32.3226 60.3551H31.6329V68.5409H32.3226Z" fill="black"></path><path d="M38.3015 58.718H40.1367L41.5409 70.1781H40.186L39.9396 67.9024V67.9352H38.4L38.1536 70.1781H36.8973L38.3015 58.718ZM39.7795 66.3799L39.176 60.7153H39.1513L38.5601 66.3799H39.7795Z" fill="black"></path><path d="M42.1982 58.718H43.8979L45.2159 65.5777H45.2405V58.718H46.4476V70.1781H45.0558L43.4299 61.8122H43.4053V70.1781H42.1982V58.718Z" fill="black"></path><path d="M48.5016 58.718H50.3368L51.741 70.1781H50.3861L50.1397 67.9024V67.9352H48.6001L48.3538 70.1781H47.0974L48.5016 58.718ZM49.9796 66.3799L49.3761 60.7153H49.3514L48.7602 66.3799H49.9796Z" fill="black"></path><path d="M52.3983 58.718H53.7532V68.5409H55.9826V70.1781H52.3983V58.718Z" fill="black"></path><path d="M56.7938 65.2994L55.1556 58.718H56.5967L57.5205 62.9255H57.5451L58.4689 58.718H59.7868L58.1486 65.2994V70.1781H56.7938V65.2994Z" fill="black"></path><path d="M61.5046 60.3551H60.0881V58.718H64.2759V60.3551H62.8595V70.1781H61.5046V60.3551Z" fill="black"></path><path d="M64.9319 58.718H66.2868V70.1781H64.9319V58.718Z" fill="black"></path><path d="M69.2107 70.3418C68.562 70.3418 68.0652 70.0962 67.7203 69.6051C67.3836 69.1139 67.2153 68.4209 67.2153 67.5259V61.3702C67.2153 60.4752 67.3836 59.7821 67.7203 59.291C68.0652 58.7998 68.562 58.5543 69.2107 58.5543C69.8594 58.5543 70.3521 58.7998 70.6887 59.291C71.0336 59.7821 71.206 60.4752 71.206 61.3702V62.5817H69.9251V61.2556C69.9251 60.5461 69.6992 60.1914 69.2476 60.1914C68.796 60.1914 68.5702 60.5461 68.5702 61.2556V67.6569C68.5702 68.3554 68.796 68.7046 69.2476 68.7046C69.6992 68.7046 69.9251 68.3554 69.9251 67.6569V65.9051H71.206V67.5259C71.206 68.4209 71.0336 69.1139 70.6887 69.6051C70.3521 70.0962 69.8594 70.3418 69.2107 70.3418Z" fill="black"></path><path d="M73.8021 70.3418C73.1451 70.3418 72.6484 70.0962 72.3117 69.6051C71.975 69.103 71.8067 68.3881 71.8067 67.4604V66.8055H73.0877V67.5914C73.0877 68.3336 73.3217 68.7046 73.7897 68.7046C74.0197 68.7046 74.1921 68.6173 74.3071 68.4427C74.4302 68.2572 74.4918 67.9625 74.4918 67.5586C74.4918 67.0784 74.4097 66.6582 74.2455 66.298C74.0812 65.9269 73.7774 65.4849 73.334 64.9719C72.7756 64.3171 72.3856 63.7277 72.1639 63.2038C71.9422 62.669 71.8313 62.0687 71.8313 61.4029C71.8313 60.497 72.0038 59.7985 72.3486 59.3074C72.6935 58.8053 73.1944 58.5543 73.8513 58.5543C74.5 58.5543 74.9886 58.8053 75.3171 59.3074C75.6537 59.7985 75.8221 60.5079 75.8221 61.4357V61.9104H74.5411V61.3211C74.5411 60.9282 74.4836 60.6444 74.3686 60.4697C74.2537 60.2842 74.0854 60.1914 73.8636 60.1914C73.412 60.1914 73.1862 60.5571 73.1862 61.2883C73.1862 61.7031 73.2683 62.0905 73.4325 62.4507C73.605 62.8109 73.9129 63.2475 74.3563 63.7604C74.9229 64.4153 75.313 65.0101 75.5265 65.5449C75.74 66.0797 75.8467 66.7073 75.8467 67.4277C75.8467 68.3663 75.6702 69.0866 75.3171 69.5887C74.9722 70.0908 74.4672 70.3418 73.8021 70.3418Z" fill="black"></path><path d="M25.8997 71.8152H27.9443C28.6423 71.8152 29.1514 72.0335 29.4716 72.4701C29.7919 72.8958 29.952 73.5561 29.952 74.4511V74.9095C29.952 75.4988 29.8781 75.9791 29.7303 76.3502C29.5907 76.7212 29.3731 76.9886 29.0775 77.1524V77.1851C29.7508 77.4907 30.0875 78.2875 30.0875 79.5754V80.5576C30.0875 81.4417 29.9109 82.1184 29.5578 82.5877C29.213 83.0461 28.7039 83.2753 28.0305 83.2753H25.8997V71.8152ZM27.7842 76.4811C28.0552 76.4811 28.2563 76.3884 28.3877 76.2028C28.5273 76.0173 28.5971 75.7062 28.5971 75.2696V74.6311C28.5971 74.2164 28.5396 73.9163 28.4247 73.7307C28.3179 73.5452 28.1455 73.4524 27.9073 73.4524H27.2545V76.4811H27.7842ZM28.0305 81.6382C28.2687 81.6382 28.4452 81.5563 28.5602 81.3926C28.6751 81.218 28.7326 80.9233 28.7326 80.5085V79.5099C28.7326 78.986 28.6628 78.6258 28.5232 78.4293C28.3918 78.222 28.1701 78.1183 27.8581 78.1183H27.2545V81.6382H28.0305Z" fill="black"></path><path d="M32.8378 83.439C32.1727 83.439 31.6636 83.188 31.3105 82.6859C30.9574 82.1839 30.7809 81.4745 30.7809 80.5576V74.5329C30.7809 73.6161 30.9574 72.9067 31.3105 72.4046C31.6636 71.9025 32.1727 71.6515 32.8378 71.6515C33.503 71.6515 34.0121 71.9025 34.3652 72.4046C34.7183 72.9067 34.8948 73.6161 34.8948 74.5329V80.5576C34.8948 81.4745 34.7183 82.1839 34.3652 82.6859C34.0121 83.188 33.503 83.439 32.8378 83.439ZM32.8378 81.8019C33.3059 81.8019 33.5399 81.4253 33.5399 80.6722V74.4183C33.5399 73.6652 33.3059 73.2887 32.8378 73.2887C32.3698 73.2887 32.1358 73.6652 32.1358 74.4183V80.6722C32.1358 81.4253 32.3698 81.8019 32.8378 81.8019Z" fill="black"></path><path d="M37.7695 83.439C37.1044 83.439 36.5953 83.188 36.2422 82.6859C35.8891 82.1839 35.7125 81.4745 35.7125 80.5576V74.5329C35.7125 73.6161 35.8891 72.9067 36.2422 72.4046C36.5953 71.9025 37.1044 71.6515 37.7695 71.6515C38.4346 71.6515 38.9437 71.9025 39.2968 72.4046C39.6499 72.9067 39.8265 73.6161 39.8265 74.5329V80.5576C39.8265 81.4745 39.6499 82.1839 39.2968 82.6859C38.9437 83.188 38.4346 83.439 37.7695 83.439ZM37.7695 81.8019C38.2376 81.8019 38.4716 81.4253 38.4716 80.6722V74.4183C38.4716 73.6652 38.2376 73.2887 37.7695 73.2887C37.3015 73.2887 37.0674 73.6652 37.0674 74.4183V80.6722C37.0674 81.4253 37.3015 81.8019 37.7695 81.8019Z" fill="black"></path><path d="M41.7539 73.4524H40.3374V71.8152H44.5252V73.4524H43.1088V83.2753H41.7539V73.4524Z" fill="black"></path><path d="M47.0423 83.439C46.3936 83.439 45.8968 83.1935 45.5519 82.7023C45.2152 82.2112 45.0469 81.5181 45.0469 80.6231V74.4674C45.0469 73.5724 45.2152 72.8794 45.5519 72.3882C45.8968 71.8971 46.3936 71.6515 47.0423 71.6515C47.691 71.6515 48.1837 71.8971 48.5203 72.3882C48.8652 72.8794 49.0376 73.5724 49.0376 74.4674V75.6789H47.7567V74.3528C47.7567 73.6434 47.5308 73.2887 47.0792 73.2887C46.6276 73.2887 46.4018 73.6434 46.4018 74.3528V80.7541C46.4018 81.4526 46.6276 81.8019 47.0792 81.8019C47.5308 81.8019 47.7567 81.4526 47.7567 80.7541V79.0023H49.0376V80.6231C49.0376 81.5181 48.8652 82.2112 48.5203 82.7023C48.1837 83.1935 47.691 83.439 47.0423 83.439Z" fill="black"></path><path d="M50.8952 71.8152H52.7305L54.1346 83.2753H52.7797L52.5334 80.9997V81.0324H50.9938L50.7474 83.2753H49.4911L50.8952 71.8152ZM52.3733 79.4771L51.7697 73.8126H51.7451L51.1539 79.4771H52.3733Z" fill="black"></path><path d="M54.7919 71.8152H56.7257L57.5879 80.0174H57.6126L58.4748 71.8152H60.4086V83.2753H59.1276V74.5984H59.1029L58.1176 83.2753H56.9844L55.999 74.5984H55.9744V83.2753H54.7919V71.8152Z" fill="black"></path><path d="M61.4196 71.8152H63.415C64.0883 71.8152 64.5933 72.0553 64.93 72.5356C65.2667 73.0158 65.435 73.7198 65.435 74.6475V75.7772C65.435 76.7049 65.2667 77.4088 64.93 77.8891C64.5933 78.3693 64.0883 78.6094 63.415 78.6094H62.7745V83.2753H61.4196V71.8152ZM63.415 76.9723C63.6367 76.9723 63.8009 76.8904 63.9077 76.7267C64.0226 76.563 64.0801 76.2847 64.0801 75.8918V74.5329C64.0801 74.14 64.0226 73.8617 63.9077 73.698C63.8009 73.5342 63.6367 73.4524 63.415 73.4524H62.7745V76.9723H63.415Z" fill="black"></path><path d="M67.9803 83.439C67.3234 83.439 66.8266 83.1935 66.4899 82.7023C66.1533 82.2003 65.9849 81.4854 65.9849 80.5576V79.9028H67.2659V80.6886C67.2659 81.4308 67.4999 81.8019 67.968 81.8019C68.1979 81.8019 68.3703 81.7146 68.4853 81.5399C68.6085 81.3544 68.6701 81.0597 68.6701 80.6559C68.6701 80.1756 68.5879 79.7554 68.4237 79.3953C68.2595 79.0242 67.9557 78.5821 67.5122 78.0692C66.9539 77.4143 66.5638 76.8249 66.3421 76.301C66.1204 75.7662 66.0096 75.1659 66.0096 74.5002C66.0096 73.5943 66.182 72.8958 66.5269 72.4046C66.8718 71.9025 67.3727 71.6515 68.0296 71.6515C68.6783 71.6515 69.1668 71.9025 69.4953 72.4046C69.832 72.8958 70.0003 73.6052 70.0003 74.5329V75.0077H68.7193V74.4183C68.7193 74.0254 68.6618 73.7416 68.5469 73.567C68.4319 73.3814 68.2636 73.2887 68.0419 73.2887C67.5903 73.2887 67.3644 73.6543 67.3644 74.3856C67.3644 74.8003 67.4466 75.1878 67.6108 75.5479C67.7832 75.9081 68.0912 76.3447 68.5346 76.8577C69.1012 77.5125 69.4912 78.1074 69.7047 78.6422C69.9182 79.177 70.0249 79.8046 70.0249 80.5249C70.0249 81.4635 69.8484 82.1839 69.4953 82.6859C69.1504 83.188 68.6454 83.439 67.9803 83.439Z" fill="black"></path></svg> 