<?xml version="1.0" encoding="UTF-8"?> <svg xmlns="http://www.w3.org/2000/svg" width="220" height="28" fill="none"><path d="M117.5 23.2V22h-8V11.6h6.2v-1.2h-6.2V1.6h7.6V.3h-9.2v22.9h9.6Zm7.3 0c5 0 7.2-2.8 7.2-7.4v-8c0-4.8-2.4-7.5-7.2-7.5H120v22.9h4.8Zm-.2-1.3h-3V1.6h3c4.1 0 5.8 2.2 5.8 6v8.2c0 4-1.7 6.1-5.8 6.1Zm15.8 1.5c3.7 0 5.7-2 5.7-6.2V.3h-1.6v16.8c0 3.6-1.4 5-4.1 5-2.7 0-4.2-1.4-4.2-4.8V.3h-1.6v17.1c0 4.1 2.2 6 5.8 6Zm14.8 0c3.5 0 6-1.8 6.2-6.4h-1.5c-.1 3.7-2 5.1-4.7 5.1-3.2 0-5-2.1-5-6V7.4c0-4 2-6.1 5-6.1 2.6 0 4.2 1.2 4.4 4.5h1.5c-.2-4.1-2.7-5.8-6-5.8-3.8 0-6.4 2.7-6.4 7.4V16c0 4.6 2.4 7.4 6.5 7.4Zm8.5-.2 1.3-6.3h6.8l1.3 6.3h1.6L169.6.3h-2.3l-5 22.9h1.4Zm7.8-7.5h-6.2l3.1-14.1 3 14Zm8.7 7.5V1.6h4.7V.3h-11v1.3h4.7v21.6h1.6Zm8.4 0V.3H187v22.9h1.6Zm9.6.3c4 0 6.7-3 6.7-7.5V7.4c0-4.5-2.6-7.3-6.7-7.3-4 0-6.7 2.8-6.7 7.4V16c0 4.5 2.6 7.4 6.7 7.4Zm0-1.4c-3.3 0-5.1-2.2-5.1-6V7.5c0-3.9 1.8-6.1 5.1-6.1 3.2 0 5 2.3 5 6V16c0 3.7-1.8 6.1-5 6.1Zm10.9 1.1V2.7l8.3 20.5h1.7V.3h-1.4V20l-8-19.7h-2v22.9h1.4ZM99.6 0h-.8v22.4h.8V0ZM75 .3v12.3L71.3.3h-3.8v22.5h3.8v-11l3.5 11h4.2V.3h-3.8ZM9.7 4.1V.3H.4v22.5h3.8v-9.6h3.6V9.4H4.2V4h5.5ZM16 17.9V5.3c0-.8.7-1.5 1.5-1.5s1.5.7 1.5 1.5v12.6a1.5 1.5 0 0 1-3 0M12.2 5.3v12.6a5.3 5.3 0 0 0 10.6 0V5.3a5.3 5.3 0 0 0-10.6 0ZM50 .3H39.4v3.8h3.4v18.7h3.8V4.1H50V.3ZM60 .3V18a1.5 1.5 0 0 1-3 0V.3h-3.8V18a5.3 5.3 0 0 0 10.6 0V.3H60ZM92 4.1V.3h-9.4v22.5H92V19h-5.5v-5.8H90V9.4h-3.5V4H92ZM37.7 22.8h-4L31 12.1s2.4-.4 2.4-3V5.6c0-.8-.6-1.4-1.4-1.4h-1.5v18.6h-3.8V.3h5.3c2.8 0 5.1 2.2 5.3 5v3.8c0 2.2-.8 3.8-2.1 4.8l2.6 9Z" fill="#000"></path></svg> 