<?xml version="1.0" encoding="UTF-8"?> <svg xmlns="http://www.w3.org/2000/svg" width="128" height="21" viewBox="0 0 128 21" fill="none"><path d="M11.2187 9.0816V16.538H9.21638V9.42997C9.21638 7.16014 7.87269 5.81859 5.65671 5.84022C3.53544 5.84022 2.02655 7.35488 2.00232 8.99072V16.538H0V4.33638H1.88557V6.11935C2.68738 4.96172 4.19627 4.08105 6.16775 4.08105C9.35736 4.08105 11.2187 6.05011 11.2187 9.0816Z" fill="#808080"></path><path d="M19.8778 14.9627C21.9043 14.9627 23.0365 14.1989 23.6489 12.7859L25.3935 13.8288C24.4749 15.5599 22.7502 16.8149 19.8073 16.8149C15.9899 16.8149 13.3972 14.0842 13.3972 10.449C13.3972 6.90469 16.1529 4.05713 19.6663 4.05713C23.411 4.05713 25.7944 6.95229 25.7944 10.1699C25.7944 10.5182 25.7702 10.9337 25.7481 11.1652H15.4194C15.7762 13.435 17.5913 14.9627 19.8778 14.9627ZM23.7436 9.45364C23.4374 7.16002 21.8118 5.77519 19.7368 5.77519C17.6618 5.77519 15.8247 7.14271 15.4458 9.45364H23.7436Z" fill="#808080"></path><path d="M38.8767 4.33643V16.5381H36.9669V14.8071C36.4863 15.438 35.8596 15.9473 35.1386 16.2927C34.4176 16.6382 33.6232 16.8098 32.8213 16.7934C29.6405 16.7934 27.8716 14.7551 27.8716 11.86V4.33643H29.8762V11.6284C29.8762 13.6905 31.2176 15.0559 33.3389 15.0321C35.4602 15.0083 36.8523 13.552 36.8766 12.0028V4.33643H38.8767Z" fill="#808080"></path><path d="M47.256 4.08105V5.90947C44.9915 5.93327 43.4122 7.43927 43.4122 9.17464V16.5316H41.412V4.33638H43.2976V6.11935C43.741 5.49102 44.3326 4.97745 45.0219 4.6225C45.7112 4.26756 46.4777 4.08178 47.256 4.08105Z" fill="#808080"></path><path d="M89.3068 5.86831C88.2649 4.6198 86.7163 3.93604 84.9013 3.93604C81.2094 3.93604 78.5309 6.66459 78.5309 10.4274C78.4949 12.1727 79.1377 13.8659 80.3283 15.1618C80.9164 15.7701 81.6263 16.2524 82.4132 16.5782C83.2002 16.904 84.0473 17.0664 84.9013 17.0552C86.7053 17.0552 88.2561 16.3476 89.3068 15.0515V16.7998H91.699V4.07452H89.3068V5.86831ZM89.2363 10.4253C89.2363 12.998 87.5512 14.7961 85.1413 14.7961C82.8064 14.7961 81.0464 12.9158 81.0464 10.4253C81.0464 7.93474 82.8086 6.0782 85.1413 6.0782C87.5512 6.0782 89.2363 7.8655 89.2363 10.4253Z" fill="#808080"></path><path d="M104.209 5.95721L104.233 5.92908V4.07471H94.415V6.21687H100.977L94.0846 15.0127V16.7978H104.49V14.6579H97.3645L104.209 5.95721Z" fill="#808080"></path><path d="M112.315 3.79116C111.447 3.78881 110.587 3.96029 109.789 4.29511C108.99 4.62994 108.27 5.12109 107.671 5.73858C106.443 7.00613 105.765 8.6929 105.779 10.4427C105.743 12.1956 106.407 13.8927 107.629 15.1706C108.841 16.3953 110.555 17.0704 112.456 17.0704C115.22 17.0769 117.187 16.0253 118.289 13.961L118.403 13.7446L116.174 12.4074L116.055 12.6844C115.456 14.0627 114.337 14.7032 112.531 14.7032C111.56 14.7199 110.614 14.401 109.858 13.8022C109.102 13.2034 108.585 12.3628 108.396 11.4272H118.641L118.665 11.1914C118.69 10.9555 118.714 10.5292 118.714 10.17C118.726 8.53057 118.105 6.94741 116.978 5.73858C116.382 5.11286 115.659 4.61642 114.856 4.28106C114.053 3.94571 113.187 3.77885 112.315 3.79116ZM108.416 9.20066C108.6 8.30355 109.097 7.49749 109.82 6.92097C110.544 6.34446 111.449 6.0335 112.381 6.04151C114.266 6.04151 115.705 7.27704 116.077 9.20066H108.416Z" fill="#808080"></path><path d="M127.1 3.82129C126.408 3.82048 125.723 3.95886 125.088 4.22792C124.453 4.49698 123.88 4.89101 123.406 5.38572V4.07446H120.983V16.7976H123.516V9.17453C123.516 7.51057 125.089 6.19065 127.095 6.17118H127.357V3.82129H127.1Z" fill="#808080"></path><path d="M54.7806 4.1089C53.5181 4.11104 52.2846 4.48061 51.2358 5.17093C50.187 5.86126 49.3699 6.8414 48.8878 7.98756C48.4057 9.13373 48.2801 10.3945 48.5269 11.6108C48.7737 12.827 49.3819 13.9441 50.2746 14.821C51.1674 15.6979 52.3046 16.2954 53.5427 16.5378C54.7808 16.7803 56.0643 16.6569 57.2311 16.1833C58.398 15.7097 59.3957 14.9071 60.0985 13.8769C60.8013 12.8466 61.1775 11.6349 61.1797 10.3947C61.1811 9.56887 61.0166 8.75084 60.6955 7.98756C60.3745 7.22429 59.9032 6.53078 59.3087 5.9468C58.7142 5.36282 58.0082 4.89986 57.2311 4.58447C56.4541 4.26909 55.6214 4.10747 54.7806 4.1089ZM54.7806 14.9495C53.8662 14.9474 52.9729 14.6791 52.2137 14.1785C51.4544 13.6779 50.8632 12.9675 50.5148 12.137C50.1664 11.3065 50.0763 10.3932 50.2561 9.51245C50.4358 8.63172 50.8772 7.82307 51.5246 7.18867C52.172 6.55426 52.9962 6.12257 53.8932 5.94811C54.7903 5.77365 55.7198 5.86427 56.5644 6.20851C57.409 6.55275 58.1308 7.13516 58.6386 7.88218C59.1464 8.6292 59.4175 9.5073 59.4175 10.4056C59.414 11.6115 58.924 12.7669 58.0548 13.6187C57.1857 14.4704 56.0083 14.949 54.7806 14.9495Z" fill="#808080"></path><path d="M69.8872 3.83203C68.5657 3.8316 67.2738 4.21614 66.1748 4.93701C65.0758 5.65788 64.2192 6.6827 63.7132 7.88186C63.2072 9.08102 63.0745 10.4006 63.3321 11.6738C63.5896 12.947 64.2258 14.1166 65.16 15.0347C66.0943 15.9527 67.2847 16.578 68.5808 16.8314C69.8768 17.0848 71.2202 16.9549 72.4412 16.4583C73.6621 15.9616 74.7057 15.1205 75.4399 14.0412C76.1741 12.9619 76.566 11.6929 76.566 10.3948C76.566 8.65465 75.8624 6.9857 74.6099 5.755C73.3575 4.52429 71.6587 3.83261 69.8872 3.83203ZM69.8872 14.5125C69.0594 14.5125 68.2502 14.2714 67.562 13.8197C66.8737 13.3679 66.3373 12.7258 66.0205 11.9746C65.7037 11.2234 65.6208 10.3968 65.7823 9.59927C65.9438 8.80177 66.3424 8.06922 66.9277 7.49426C67.5131 6.91929 68.2588 6.52774 69.0707 6.3691C69.8825 6.21047 70.7241 6.29189 71.4888 6.60306C72.2536 6.91422 72.9072 7.44117 73.3671 8.11726C73.827 8.79334 74.0724 9.5882 74.0724 10.4013C74.0724 11.4917 73.6315 12.5374 72.8466 13.3084C72.0617 14.0794 70.9972 14.5125 69.8872 14.5125Z" fill="#808080"></path><path d="M74.0813 3.49243C74.8489 3.49243 75.4712 2.88114 75.4712 2.12708C75.4712 1.37301 74.8489 0.761719 74.0813 0.761719C73.3136 0.761719 72.6913 1.37301 72.6913 2.12708C72.6913 2.88114 73.3136 3.49243 74.0813 3.49243Z" fill="#808080"></path><path d="M72.8962 17.7412C70.9602 18.5086 68.7966 18.5086 66.8606 17.7412H64.2635C64.8679 18.6672 65.6996 19.4291 66.6821 19.9568C67.6646 20.4845 68.7663 20.761 69.8861 20.761C71.0059 20.761 72.1077 20.4845 73.0902 19.9568C74.0727 19.4291 74.9043 18.6672 75.5087 17.7412H72.8962Z" fill="#808080"></path></svg> 