<?xml version="1.0" encoding="UTF-8"?> <svg xmlns="http://www.w3.org/2000/svg" width="97" height="96" viewBox="0 0 97 96" fill="none"><g clip-path="url(#clip0_2082_25213)"><path d="M48.0839 95.9998C74.5935 95.9998 96.0838 74.5095 96.0838 47.9999C96.0838 21.4903 74.5935 0 48.0839 0C21.5743 0 0.0839844 21.4903 0.0839844 47.9999C0.0839844 74.5095 21.5743 95.9998 48.0839 95.9998Z" fill="#416786"></path><path d="M4.32008 67.4224L91.931 67.4224C94.287 62.3894 95.7801 56.8807 96.2225 51.082H0.222656C0.665015 56.8807 1.49655 62.1169 4.32008 67.4224Z" fill="#9F2335"></path><g filter="url(#filter0_d_2082_25213)"><path d="M41.9256 23.0924C42.3063 23.1725 42.6121 23.3606 42.843 23.6565C43.074 23.9463 43.1894 24.2792 43.1894 24.6553C43.1894 25.1978 42.9959 25.6293 42.609 25.9499C42.2283 26.2644 41.6946 26.4216 41.0081 26.4216H37.9467V19.9297H40.9051C41.5729 19.9297 42.0941 20.0807 42.4685 20.3828C42.8493 20.6849 43.0396 21.0949 43.0396 21.6128C43.0396 21.995 42.9366 22.3125 42.7307 22.5653C42.531 22.818 42.2626 22.9938 41.9256 23.0924ZM39.5476 22.556H40.5961C40.8583 22.556 41.058 22.5005 41.1953 22.3896C41.3389 22.2724 41.4106 22.1029 41.4106 21.881C41.4106 21.659 41.3389 21.4895 41.1953 21.3723C41.058 21.2552 40.8583 21.1966 40.5961 21.1966H39.5476V22.556ZM40.7272 25.1454C40.9956 25.1454 41.2016 25.0868 41.3451 24.9697C41.4949 24.8464 41.5698 24.6707 41.5698 24.4426C41.5698 24.2144 41.4918 24.0357 41.3357 23.9062C41.186 23.7767 40.9769 23.712 40.7085 23.712H39.5476V25.1454H40.7272ZM49.0425 23.7582C49.0425 23.9062 49.0331 24.0603 49.0144 24.2206H45.3913C45.4162 24.5412 45.5192 24.7878 45.7002 24.9604C45.8875 25.1269 46.1153 25.2101 46.3836 25.2101C46.7831 25.2101 47.0608 25.0437 47.2169 24.7107H48.9207C48.8334 25.0498 48.6742 25.355 48.4433 25.6263C48.2186 25.8975 47.9346 26.1102 47.5913 26.2644C47.2481 26.4185 46.8642 26.4955 46.4398 26.4955C45.928 26.4955 45.4724 26.3877 45.073 26.1719C44.6735 25.9561 44.3615 25.6478 44.1368 25.2471C43.9121 24.8464 43.7997 24.3778 43.7997 23.8415C43.7997 23.3051 43.909 22.8365 44.1274 22.4358C44.3521 22.0351 44.6642 21.7268 45.0636 21.511C45.463 21.2953 45.9218 21.1874 46.4398 21.1874C46.9454 21.1874 47.3947 21.2922 47.7879 21.5018C48.1812 21.7114 48.487 22.0104 48.7054 22.3988C48.9301 22.7872 49.0425 23.2404 49.0425 23.7582ZM47.4041 23.3421C47.4041 23.0708 47.3105 22.855 47.1232 22.6947C46.936 22.5345 46.702 22.4543 46.4211 22.4543C46.1527 22.4543 45.9249 22.5314 45.7377 22.6855C45.5567 22.8396 45.4443 23.0585 45.4006 23.3421H47.4041ZM52.012 26.4955C51.5564 26.4955 51.1507 26.4185 50.7949 26.2644C50.4392 26.1102 50.1583 25.9006 49.9523 25.6355C49.7464 25.3642 49.6309 25.0622 49.606 24.7292H51.1881C51.2069 24.908 51.2911 25.0529 51.4409 25.1639C51.5907 25.2748 51.7748 25.3303 51.9933 25.3303C52.193 25.3303 52.3459 25.2933 52.452 25.2194C52.5643 25.1392 52.6205 25.0375 52.6205 24.9142C52.6205 24.7662 52.5425 24.6583 52.3865 24.5905C52.2304 24.5165 51.9777 24.4364 51.6281 24.3501C51.2537 24.2638 50.9416 24.1744 50.6919 24.0819C50.4423 23.9833 50.227 23.8322 50.046 23.6288C49.865 23.4191 49.7745 23.1386 49.7745 22.7872C49.7745 22.4913 49.8556 22.2231 50.0179 21.9827C50.1864 21.7361 50.4298 21.5419 50.7481 21.4001C51.0727 21.2583 51.4565 21.1874 51.8996 21.1874C52.555 21.1874 53.0699 21.3477 53.4444 21.6683C53.8251 21.9888 54.0435 22.4142 54.0997 22.9444H52.6205C52.5956 22.7656 52.5144 22.6238 52.3771 22.519C52.246 22.4142 52.0713 22.3618 51.8528 22.3618C51.6656 22.3618 51.522 22.3988 51.4222 22.4728C51.3223 22.5406 51.2724 22.6362 51.2724 22.7595C51.2724 22.9074 51.3504 23.0184 51.5064 23.0924C51.6687 23.1664 51.9184 23.2404 52.2554 23.3143C52.6424 23.413 52.9576 23.5116 53.201 23.6103C53.4444 23.7027 53.6566 23.8569 53.8376 24.0727C54.0248 24.2823 54.1216 24.5659 54.1278 24.9234C54.1278 25.2255 54.0404 25.4968 53.8657 25.7372C53.6971 25.9715 53.4506 26.1565 53.1261 26.2921C52.8078 26.4277 52.4364 26.4955 52.012 26.4955ZM58.0188 25.0807V26.4216H57.2043C56.6239 26.4216 56.1714 26.2828 55.8468 26.0054C55.5223 25.7218 55.36 25.2625 55.36 24.6275V22.5745H54.7234V21.2614H55.36V20.0037H56.9609V21.2614H58.0095V22.5745H56.9609V24.646C56.9609 24.8001 56.9984 24.9111 57.0733 24.9789C57.1482 25.0467 57.273 25.0807 57.4477 25.0807H58.0188ZM24.7054 33.2208C25.0861 33.301 25.392 33.489 25.6229 33.7849C25.8538 34.0747 25.9693 34.4076 25.9693 34.7837C25.9693 35.3262 25.7758 35.7578 25.3888 36.0784C25.0081 36.3928 24.4745 36.55 23.7879 36.55H20.7266V30.0581H23.685C24.3528 30.0581 24.8739 30.2092 25.2484 30.5112C25.6291 30.8133 25.8195 31.2233 25.8195 31.7412C25.8195 32.1234 25.7165 32.4409 25.5105 32.6937C25.3108 32.9465 25.0424 33.1222 24.7054 33.2208ZM22.3275 32.6845H23.376C23.6381 32.6845 23.8379 32.629 23.9752 32.518C24.1187 32.4009 24.1905 32.2313 24.1905 32.0094C24.1905 31.7874 24.1187 31.6179 23.9752 31.5007C23.8379 31.3836 23.6381 31.325 23.376 31.325H22.3275V32.6845ZM23.5071 35.2738C23.7755 35.2738 23.9814 35.2152 24.125 35.0981C24.2748 34.9748 24.3497 34.7991 24.3497 34.571C24.3497 34.3429 24.2716 34.1641 24.1156 34.0346C23.9658 33.9051 23.7567 33.8404 23.4884 33.8404H22.3275V35.2738H23.5071ZM29.2757 36.624C28.7639 36.624 28.3021 36.5161 27.8902 36.3003C27.4845 36.0845 27.1631 35.7763 26.9259 35.3755C26.695 34.9748 26.5795 34.5062 26.5795 33.9699C26.5795 33.4397 26.6981 32.9742 26.9353 32.5735C27.1724 32.1666 27.497 31.8552 27.9089 31.6395C28.3208 31.4237 28.7826 31.3158 29.2944 31.3158C29.8062 31.3158 30.2681 31.4237 30.68 31.6395C31.0919 31.8552 31.4165 32.1666 31.6537 32.5735C31.8908 32.9742 32.0094 33.4397 32.0094 33.9699C32.0094 34.5001 31.8877 34.9686 31.6443 35.3755C31.4071 35.7763 31.0795 36.0845 30.6613 36.3003C30.2494 36.5161 29.7875 36.624 29.2757 36.624ZM29.2757 35.2553C29.5815 35.2553 29.8406 35.1443 30.0528 34.9224C30.2712 34.7004 30.3804 34.3829 30.3804 33.9699C30.3804 33.5568 30.2743 33.2393 30.0621 33.0174C29.8562 32.7954 29.6003 32.6845 29.2944 32.6845C28.9824 32.6845 28.7234 32.7954 28.5174 33.0174C28.3114 33.2331 28.2084 33.5507 28.2084 33.9699C28.2084 34.3829 28.3083 34.7004 28.508 34.9224C28.714 35.1443 28.9699 35.2553 29.2757 35.2553ZM35.2366 36.624C34.7248 36.624 34.263 36.5161 33.8511 36.3003C33.4454 36.0845 33.1239 35.7763 32.8868 35.3755C32.6558 34.9748 32.5404 34.5062 32.5404 33.9699C32.5404 33.4397 32.659 32.9742 32.8961 32.5735C33.1333 32.1666 33.4578 31.8552 33.8698 31.6395C34.2817 31.4237 34.7436 31.3158 35.2554 31.3158C35.7671 31.3158 36.229 31.4237 36.6409 31.6395C37.0529 31.8552 37.3774 32.1666 37.6146 32.5735C37.8517 32.9742 37.9703 33.4397 37.9703 33.9699C37.9703 34.5001 37.8486 34.9686 37.6052 35.3755C37.368 35.7763 37.0404 36.0845 36.6222 36.3003C36.2103 36.5161 35.7484 36.624 35.2366 36.624ZM35.2366 35.2553C35.5425 35.2553 35.8015 35.1443 36.0137 34.9224C36.2321 34.7004 36.3413 34.3829 36.3413 33.9699C36.3413 33.5568 36.2352 33.2393 36.023 33.0174C35.8171 32.7954 35.5612 32.6845 35.2554 32.6845C34.9433 32.6845 34.6843 32.7954 34.4783 33.0174C34.2723 33.2331 34.1694 33.5507 34.1694 33.9699C34.1694 34.3829 34.2692 34.7004 34.4689 34.9224C34.6749 35.1443 34.9308 35.2553 35.2366 35.2553ZM41.7312 35.2091V36.55H40.9167C40.3362 36.55 39.8837 36.4113 39.5592 36.1338C39.2346 35.8502 39.0724 35.3909 39.0724 34.7559V32.7029H38.4358V31.3898H39.0724V30.1321H40.6733V31.3898H41.7218V32.7029H40.6733V34.7744C40.6733 34.9286 40.7107 35.0395 40.7856 35.1073C40.8605 35.1752 40.9853 35.2091 41.1601 35.2091H41.7312ZM42.3049 33.9699C42.3049 33.4335 42.4142 32.965 42.6326 32.5642C42.8573 32.1635 43.1662 31.8552 43.5594 31.6395C43.9589 31.4237 44.4145 31.3158 44.9263 31.3158C45.5816 31.3158 46.1278 31.4853 46.5646 31.8244C47.0078 32.1635 47.298 32.6413 47.4353 33.2578H45.7314C45.5879 32.8632 45.3101 32.666 44.8982 32.666C44.6049 32.666 44.3708 32.78 44.1961 33.0081C44.0213 33.2301 43.9339 33.5507 43.9339 33.9699C43.9339 34.3891 44.0213 34.7128 44.1961 34.9409C44.3708 35.1628 44.6049 35.2738 44.8982 35.2738C45.3101 35.2738 45.5879 35.0765 45.7314 34.682H47.4353C47.298 35.2861 47.0078 35.7608 46.5646 36.1061C46.1215 36.4513 45.5754 36.624 44.9263 36.624C44.4145 36.624 43.9589 36.5161 43.5594 36.3003C43.1662 36.0845 42.8573 35.7763 42.6326 35.3755C42.4142 34.9748 42.3049 34.5062 42.3049 33.9699ZM47.973 33.9606C47.973 33.4304 48.0728 32.965 48.2725 32.5642C48.4785 32.1635 48.7562 31.8552 49.1058 31.6395C49.4553 31.4237 49.8454 31.3158 50.276 31.3158C50.6442 31.3158 50.9657 31.3898 51.2403 31.5377C51.5211 31.6857 51.7365 31.8799 51.8863 32.1203V31.3898H53.4872V36.55H51.8863V35.8194C51.7302 36.0599 51.5118 36.2541 51.2309 36.402C50.9563 36.55 50.6349 36.624 50.2666 36.624C49.8422 36.624 49.4553 36.5161 49.1058 36.3003C48.7562 36.0784 48.4785 35.767 48.2725 35.3663C48.0728 34.9594 47.973 34.4908 47.973 33.9606ZM51.8863 33.9699C51.8863 33.5753 51.7739 33.264 51.5492 33.0359C51.3308 32.8078 51.0624 32.6937 50.7441 32.6937C50.4258 32.6937 50.1543 32.8078 49.9296 33.0359C49.7112 33.2578 49.6019 33.5661 49.6019 33.9606C49.6019 34.3552 49.7112 34.6696 49.9296 34.9039C50.1543 35.132 50.4258 35.2461 50.7441 35.2461C51.0624 35.2461 51.3308 35.132 51.5492 34.9039C51.7739 34.6758 51.8863 34.3644 51.8863 33.9699ZM61.3111 31.3343C61.9602 31.3343 62.4751 31.5285 62.8559 31.9169C63.2428 32.3053 63.4363 32.8447 63.4363 33.5352V36.55H61.8448V33.7479C61.8448 33.415 61.7543 33.1592 61.5733 32.9804C61.3985 32.7954 61.1551 32.7029 60.843 32.7029C60.531 32.7029 60.2844 32.7954 60.1034 32.9804C59.9287 33.1592 59.8413 33.415 59.8413 33.7479V36.55H58.2498V33.7479C58.2498 33.415 58.1593 33.1592 57.9783 32.9804C57.8035 32.7954 57.5601 32.7029 57.248 32.7029C56.936 32.7029 56.6894 32.7954 56.5084 32.9804C56.3337 33.1592 56.2463 33.415 56.2463 33.7479V36.55H54.6454V31.3898H56.2463V32.0371C56.4086 31.8213 56.6208 31.6518 56.8829 31.5285C57.145 31.399 57.4415 31.3343 57.7723 31.3343C58.1655 31.3343 58.515 31.4175 58.8208 31.584C59.1329 31.7504 59.3763 31.9878 59.5511 32.296C59.7321 32.0125 59.9786 31.7813 60.2907 31.6025C60.6027 31.4237 60.9429 31.3343 61.3111 31.3343ZM66.1571 32.1203C66.3131 31.8799 66.5284 31.6857 66.803 31.5377C67.0777 31.3898 67.3991 31.3158 67.7673 31.3158C68.198 31.3158 68.5881 31.4237 68.9376 31.6395C69.2871 31.8552 69.5617 32.1635 69.7614 32.5642C69.9674 32.965 70.0704 33.4304 70.0704 33.9606C70.0704 34.4908 69.9674 34.9594 69.7614 35.3663C69.5617 35.767 69.2871 36.0784 68.9376 36.3003C68.5881 36.5161 68.198 36.624 67.7673 36.624C67.4053 36.624 67.0839 36.55 66.803 36.402C66.5284 36.2541 66.3131 36.0629 66.1571 35.8287V39.0099H64.5562V31.3898H66.1571V32.1203ZM68.4414 33.9606C68.4414 33.5661 68.3291 33.2578 68.1044 33.0359C67.8859 32.8078 67.6144 32.6937 67.2899 32.6937C66.9716 32.6937 66.7001 32.8078 66.4754 33.0359C66.2569 33.264 66.1477 33.5753 66.1477 33.9699C66.1477 34.3644 66.2569 34.6758 66.4754 34.9039C66.7001 35.132 66.9716 35.2461 67.2899 35.2461C67.6082 35.2461 67.8797 35.132 68.1044 34.9039C68.3291 34.6696 68.4414 34.3552 68.4414 33.9606ZM73.0355 36.624C72.5798 36.624 72.1742 36.5469 71.8184 36.3928C71.4626 36.2386 71.1818 36.029 70.9758 35.7639C70.7699 35.4927 70.6544 35.1906 70.6294 34.8577H72.2116C72.2303 35.0364 72.3146 35.1813 72.4644 35.2923C72.6142 35.4033 72.7983 35.4588 73.0167 35.4588C73.2165 35.4588 73.3694 35.4218 73.4755 35.3478C73.5878 35.2676 73.644 35.1659 73.644 35.0426C73.644 34.8947 73.566 34.7868 73.4099 34.7189C73.2539 34.645 73.0011 34.5648 72.6516 34.4785C72.2771 34.3922 71.9651 34.3028 71.7154 34.2103C71.4658 34.1117 71.2504 33.9606 71.0694 33.7572C70.8884 33.5476 70.7979 33.2671 70.7979 32.9156C70.7979 32.6197 70.8791 32.3515 71.0414 32.1111C71.2099 31.8645 71.4533 31.6703 71.7716 31.5285C72.0961 31.3867 72.48 31.3158 72.9231 31.3158C73.5785 31.3158 74.0934 31.4761 74.4678 31.7967C74.8486 32.1173 75.067 32.5427 75.1232 33.0729H73.644C73.619 32.8941 73.5379 32.7523 73.4006 32.6475C73.2695 32.5427 73.0948 32.4902 72.8763 32.4902C72.6891 32.4902 72.5455 32.5272 72.4457 32.6012C72.3458 32.669 72.2959 32.7646 72.2959 32.8879C72.2959 33.0359 72.3739 33.1468 72.5299 33.2208C72.6922 33.2948 72.9418 33.3688 73.2789 33.4428C73.6658 33.5414 73.981 33.64 74.2244 33.7387C74.4678 33.8312 74.68 33.9853 74.861 34.2011C75.0483 34.4107 75.145 34.6943 75.1513 35.0519C75.1513 35.354 75.0639 35.6252 74.8891 35.8657C74.7206 36.0999 74.4741 36.2849 74.1495 36.4205C73.8312 36.5562 73.4599 36.624 73.0355 36.624ZM36.6432 45.4115C36.8554 45.245 36.9521 45.1679 36.9334 45.1803C37.545 44.6809 38.0256 44.2709 38.3751 43.9503C38.7309 43.6298 39.0305 43.2938 39.2739 42.9423C39.5173 42.5909 39.639 42.2488 39.639 41.9158C39.639 41.6631 39.5797 41.4658 39.4611 41.324C39.3425 41.1822 39.1647 41.1113 38.9275 41.1113C38.6903 41.1113 38.5031 41.2007 38.3658 41.3795C38.2347 41.5521 38.1692 41.7987 38.1692 42.1193H36.6244C36.6369 41.5953 36.7493 41.1575 36.9615 40.8061C37.1799 40.4547 37.4639 40.1958 37.8134 40.0293C38.1692 39.8629 38.5624 39.7796 38.993 39.7796C39.7357 39.7796 40.2943 39.9677 40.6688 40.3437C41.0495 40.7198 41.2399 41.2099 41.2399 41.8141C41.2399 42.4738 41.0121 43.0872 40.5565 43.6544C40.1009 44.2154 39.5204 44.7641 38.8151 45.3005H41.3429V46.5859H36.6432V45.4115ZM42.0477 43.2105C42.0477 42.1501 42.2537 41.3147 42.6656 40.7044C43.0838 40.094 43.7547 39.7889 44.6784 39.7889C45.6021 39.7889 46.27 40.094 46.6819 40.7044C47.1001 41.3147 47.3091 42.1501 47.3091 43.2105C47.3091 44.2833 47.1001 45.1248 46.6819 45.7351C46.27 46.3455 45.6021 46.6507 44.6784 46.6507C43.7547 46.6507 43.0838 46.3455 42.6656 45.7351C42.2537 45.1248 42.0477 44.2833 42.0477 43.2105ZM45.7363 43.2105C45.7363 42.5878 45.6677 42.11 45.5304 41.7771C45.3931 41.438 45.1091 41.2685 44.6784 41.2685C44.2478 41.2685 43.9638 41.438 43.8265 41.7771C43.6892 42.11 43.6205 42.5878 43.6205 43.2105C43.6205 43.6298 43.6455 43.9781 43.6954 44.2555C43.7453 44.5268 43.8452 44.7487 43.995 44.9213C44.151 45.0878 44.3788 45.171 44.6784 45.171C44.978 45.171 45.2027 45.0878 45.3525 44.9213C45.5085 44.7487 45.6115 44.5268 45.6614 44.2555C45.7114 43.9781 45.7363 43.6298 45.7363 43.2105ZM48.0991 45.4115C48.3113 45.245 48.4081 45.1679 48.3893 45.1803C49.001 44.6809 49.4816 44.2709 49.8311 43.9503C50.1868 43.6298 50.4864 43.2938 50.7298 42.9423C50.9733 42.5909 51.095 42.2488 51.095 41.9158C51.095 41.6631 51.0357 41.4658 50.9171 41.324C50.7985 41.1822 50.6206 41.1113 50.3834 41.1113C50.1463 41.1113 49.959 41.2007 49.8217 41.3795C49.6907 41.5521 49.6251 41.7987 49.6251 42.1193H48.0804C48.0929 41.5953 48.2052 41.1575 48.4174 40.8061C48.6359 40.4547 48.9199 40.1958 49.2694 40.0293C49.6251 39.8629 50.0183 39.7796 50.449 39.7796C51.1917 39.7796 51.7503 39.9677 52.1248 40.3437C52.5055 40.7198 52.6959 41.2099 52.6959 41.8141C52.6959 42.4738 52.4681 43.0872 52.0124 43.6544C51.5568 44.2154 50.9764 44.7641 50.2711 45.3005H52.7988V46.5859H48.0991V45.4115ZM53.5411 45.4762V44.2L56.4995 40.0201H58.2876V44.1075H59.0553V45.4762H58.2876V46.6784H56.6867V45.4762H53.5411ZM56.7991 41.7586L55.2263 44.1075H56.7991V41.7586Z" fill="white"></path></g><g filter="url(#filter1_d_2082_25213)"><path d="M23.872 71.4121V75.74H22.8047V71.4121H23.872ZM27.7973 71.4121V72.2567H26.6364V75.74H25.5691V72.2567H24.4082V71.4121H27.7973Z" fill="#F63154"></path><path d="M29.4688 73.5689C29.4688 73.1413 29.5624 72.7613 29.7496 72.4284C29.9369 72.0915 30.1968 71.8304 30.5298 71.6454C30.8668 71.4565 31.2475 71.3618 31.6719 71.3618C32.1922 71.3618 32.6371 71.4974 33.0076 71.7687C33.3781 72.04 33.6255 72.4099 33.7503 72.8784H32.5769C32.4896 72.6974 32.3647 72.56 32.2025 72.4654C32.0442 72.3707 31.8632 72.3236 31.6595 72.3236C31.3309 72.3236 31.0643 72.4367 30.8606 72.6627C30.6568 72.8886 30.5547 73.1907 30.5547 73.5689C30.5547 73.9472 30.6568 74.2493 30.8606 74.4752C31.0643 74.7011 31.3309 74.8143 31.6595 74.8143C31.8632 74.8143 32.0442 74.7672 32.2025 74.6725C32.3647 74.5778 32.4896 74.4404 32.5769 74.2594H33.7503C33.6255 74.728 33.3781 75.0979 33.0076 75.3691C32.6371 75.6364 32.1922 75.7699 31.6719 75.7699C31.2475 75.7699 30.8668 75.6774 30.5298 75.4924C30.1968 75.3035 29.9369 75.0424 29.7496 74.7095C29.5624 74.3766 29.4688 73.9965 29.4688 73.5689ZM34.1917 74.0128C34.1917 73.6592 34.2581 73.3492 34.3914 73.0819C34.5287 72.8146 34.7137 72.6094 34.9469 72.4654C35.18 72.3214 35.4399 72.2496 35.727 72.2496C35.9727 72.2496 36.1867 72.2989 36.3699 72.3976C36.5571 72.4962 36.7007 72.6257 36.8005 72.786V72.2989H37.8678V75.739H36.8005V75.252C36.6967 75.4123 36.5509 75.5418 36.3636 75.6404C36.1804 75.7391 35.9664 75.7884 35.7208 75.7884C35.4377 75.7884 35.18 75.7166 34.9469 75.5726C34.7137 75.4246 34.5287 75.2172 34.3914 74.9499C34.2581 74.6786 34.1917 74.3664 34.1917 74.0128ZM36.8005 74.019C36.8005 73.7561 36.7256 73.5482 36.5758 73.3963C36.4301 73.2444 36.2513 73.1682 36.0391 73.1682C35.8269 73.1682 35.6459 73.2444 35.4961 73.3963C35.3503 73.5443 35.2776 73.7499 35.2776 74.0128C35.2776 74.2757 35.3503 74.4853 35.4961 74.6417C35.6459 74.7936 35.8269 74.8698 36.0391 74.8698C36.2513 74.8698 36.4301 74.7936 36.5758 74.6417C36.7256 74.4897 36.8005 74.2819 36.8005 74.019ZM39.7072 72.8723C39.832 72.6834 39.9881 72.5354 40.1753 72.4284C40.3625 72.3174 40.5707 72.2619 40.7994 72.2619V73.3778H40.5061C40.2399 73.3778 40.0402 73.4355 39.9069 73.5504C39.7736 73.6614 39.7072 73.8587 39.7072 74.1423V75.739H38.6399V72.2989H39.7072V72.8723ZM44.5924 73.9635C44.5924 74.0621 44.5861 74.1647 44.5737 74.2717H42.1583C42.1752 74.4853 42.2439 74.65 42.3642 74.765C42.4891 74.8759 42.6411 74.9314 42.8198 74.9314C43.0864 74.9314 43.2715 74.8204 43.3753 74.5985H44.5112C44.4533 74.8244 44.3472 75.0279 44.1929 75.2089C44.0431 75.3898 43.8541 75.5316 43.625 75.6342C43.3963 75.7368 43.1404 75.7884 42.8573 75.7884C42.5163 75.7884 42.2127 75.7166 41.9461 75.5726C41.6799 75.4286 41.4717 75.2234 41.3219 74.9561C41.1721 74.6888 41.0972 74.3766 41.0972 74.019C41.0972 73.6614 41.1704 73.3492 41.3157 73.0819C41.4655 72.8146 41.6737 72.6094 41.9398 72.4654C42.2064 72.3214 42.5122 72.2496 42.8573 72.2496C43.1943 72.2496 43.4939 72.3196 43.756 72.4592C44.0182 72.5988 44.2224 72.7983 44.3677 73.0572C44.5175 73.3162 44.5924 73.6182 44.5924 73.9635ZM43.5002 73.6861C43.5002 73.5051 43.4377 73.3615 43.3129 73.2545C43.1881 73.1475 43.0321 73.0942 42.8448 73.0942C42.666 73.0942 42.514 73.1457 42.3892 73.2483C42.2688 73.3509 42.1939 73.4971 42.1645 73.6861H43.5002ZM48.4384 73.9635C48.4384 74.0621 48.4321 74.1647 48.4197 74.2717H46.0043C46.0212 74.4853 46.0899 74.65 46.2102 74.765C46.3351 74.8759 46.4871 74.9314 46.6658 74.9314C46.9324 74.9314 47.1174 74.8204 47.2213 74.5985H48.3572C48.2993 74.8244 48.1932 75.0279 48.0389 75.2089C47.8891 75.3898 47.7001 75.5316 47.471 75.6342C47.2423 75.7368 46.9864 75.7884 46.7033 75.7884C46.3622 75.7884 46.0586 75.7166 45.7921 75.5726C45.5259 75.4286 45.3177 75.2234 45.1679 74.9561C45.0181 74.6888 44.9432 74.3766 44.9432 74.019C44.9432 73.6614 45.0163 73.3492 45.1617 73.0819C45.3115 72.8146 45.5197 72.6094 45.7858 72.4654C46.0524 72.3214 46.3582 72.2496 46.7033 72.2496C47.0403 72.2496 47.3399 72.3196 47.602 72.4592C47.8642 72.5988 48.0684 72.7983 48.2137 73.0572C48.3635 73.3162 48.4384 73.6182 48.4384 73.9635ZM47.3461 73.6861C47.3461 73.5051 47.2837 73.3615 47.1589 73.2545C47.0341 73.1475 46.878 73.0942 46.6908 73.0942C46.512 73.0942 46.36 73.1457 46.2352 73.2483C46.1148 73.3509 46.0399 73.4971 46.0105 73.6861H47.3461ZM50.0687 72.8723C50.1935 72.6834 50.3496 72.5354 50.5368 72.4284C50.724 72.3174 50.9322 72.2619 51.1609 72.2619V73.3778H50.8676C50.6014 73.3778 50.4017 73.4355 50.2684 73.5504C50.1356 73.6614 50.0687 73.8587 50.0687 74.1423V75.739H49.0014V72.2989H50.0687V72.8723ZM55.8459 71.4111V72.2558H54.0609V73.1682H55.3966V73.9882H54.0609V75.739H52.9937V71.4111H55.8459ZM56.944 71.9413C56.7567 71.9413 56.6025 71.888 56.4821 71.781C56.3653 71.6701 56.3074 71.5344 56.3074 71.3741C56.3074 71.2099 56.3653 71.0743 56.4821 70.9672C56.6025 70.8563 56.7567 70.8008 56.944 70.8008C57.1268 70.8008 57.2766 70.8563 57.3934 70.9672C57.5137 71.0743 57.5743 71.2099 57.5743 71.3741C57.5743 71.5344 57.5137 71.6701 57.3934 71.781C57.2766 71.888 57.1268 71.9413 56.944 71.9413ZM57.4745 72.2989V75.739H56.4072V72.2989H57.4745ZM60.3696 72.2619C60.7775 72.2619 61.102 72.3936 61.3432 72.6565C61.5889 72.9154 61.7115 73.273 61.7115 73.7292V75.739H60.6504V73.871C60.6504 73.6407 60.5902 73.4619 60.4694 73.3346C60.3491 73.2074 60.1868 73.1435 59.9826 73.1435C59.7789 73.1435 59.6166 73.2074 59.4958 73.3346C59.3754 73.4619 59.3148 73.6407 59.3148 73.871V75.739H58.2475V72.2989H59.3148V72.7551C59.4231 72.6032 59.5689 72.4839 59.7517 72.3976C59.9349 72.3073 60.1409 72.2619 60.3696 72.2619ZM62.2411 74.0128C62.2411 73.6592 62.3075 73.3492 62.4408 73.0819C62.5781 72.8146 62.7631 72.6094 62.9963 72.4654C63.2294 72.3214 63.4893 72.2496 63.7764 72.2496C64.0051 72.2496 64.2133 72.2967 64.4006 72.3914C64.5918 72.4861 64.7416 72.6133 64.85 72.7736V71.1769H65.9172V75.739H64.85V75.2458C64.7501 75.4101 64.6065 75.5418 64.4193 75.6404C64.2361 75.7391 64.0221 75.7884 63.7764 75.7884C63.4893 75.7884 63.2294 75.7166 62.9963 75.5726C62.7631 75.4246 62.5781 75.2172 62.4408 74.9499C62.3075 74.6786 62.2411 74.3664 62.2411 74.0128ZM64.85 74.019C64.85 73.7561 64.7751 73.5482 64.6253 73.3963C64.4795 73.2444 64.3007 73.1682 64.0885 73.1682C63.8763 73.1682 63.6953 73.2444 63.5455 73.3963C63.3997 73.5443 63.3271 73.7499 63.3271 74.0128C63.3271 74.2757 63.3997 74.4853 63.5455 74.6417C63.6953 74.7936 63.8763 74.8698 64.0885 74.8698C64.3007 74.8698 64.4795 74.7936 64.6253 74.6417C64.7751 74.4897 64.85 74.2819 64.85 74.019ZM69.9723 73.9635C69.9723 74.0621 69.9661 74.1647 69.9536 74.2717H67.5382C67.5547 74.4853 67.6233 74.65 67.7441 74.765C67.869 74.8759 68.021 74.9314 68.1998 74.9314C68.4659 74.9314 68.6514 74.8204 68.7552 74.5985H69.8912C69.8328 74.8244 69.7267 75.0279 69.5729 75.2089C69.4231 75.3898 69.2336 75.5316 69.0049 75.6342C68.7762 75.7368 68.5203 75.7884 68.2372 75.7884C67.8962 75.7884 67.5921 75.7166 67.326 75.5726C67.0598 75.4286 66.8516 75.2234 66.7018 74.9561C66.5521 74.6888 66.4772 74.3766 66.4772 74.019C66.4772 73.6614 66.5498 73.3492 66.6956 73.0819C66.8454 72.8146 67.0536 72.6094 67.3197 72.4654C67.5859 72.3214 67.8917 72.2496 68.2372 72.2496C68.5742 72.2496 68.8738 72.3196 69.136 72.4592C69.3981 72.5988 69.6018 72.7983 69.7476 73.0572C69.8974 73.3162 69.9723 73.6182 69.9723 73.9635ZM68.8801 73.6861C68.8801 73.5051 68.8177 73.3615 68.6928 73.2545C68.568 73.1475 68.412 73.0942 68.2247 73.0942C68.046 73.0942 67.8939 73.1457 67.7691 73.2483C67.6483 73.3509 67.5734 73.4971 67.5444 73.6861H68.8801ZM71.6026 72.8723C71.7275 72.6834 71.8835 72.5354 72.0707 72.4284C72.258 72.3174 72.4662 72.2619 72.6949 72.2619V73.3778H72.4015C72.1354 73.3778 71.9356 73.4355 71.8024 73.5504C71.6691 73.6614 71.6026 73.8587 71.6026 74.1423V75.739H70.5354V72.2989H71.6026V72.8723Z" fill="white"></path></g><g filter="url(#filter2_d_2082_25213)"><path d="M40.0474 11.0137L40.5819 12.0484L41.7433 12.2308L40.9123 13.0527L41.0955 14.2002L40.0474 13.6735L38.9993 14.2002L39.1826 13.0527L38.3516 12.2308L39.5129 12.0484L40.0474 11.0137Z" fill="white"></path></g><g filter="url(#filter3_d_2082_25213)"><path d="M47.6201 9.69141L48.5554 11.5021L50.5878 11.8214L49.1336 13.2598L49.4542 15.2678L47.6201 14.3461L45.786 15.2678L46.1066 13.2598L44.6523 11.8214L46.6848 11.5021L47.6201 9.69141Z" fill="white"></path></g><g filter="url(#filter4_d_2082_25213)"><path d="M55.19 11.0137L55.7245 12.0484L56.8859 12.2308L56.0549 13.0527L56.2381 14.2002L55.19 13.6735L54.1419 14.2002L54.3251 13.0527L53.4941 12.2308L54.6555 12.0484L55.19 11.0137Z" fill="white"></path></g><g filter="url(#filter5_d_2082_25213)"><path d="M40.0474 81.4688L40.5819 82.5036L41.7433 82.6859L40.9123 83.5076L41.0955 84.6552L40.0474 84.1286L38.9993 84.6552L39.1826 83.5076L38.3516 82.6859L39.5129 82.5036L40.0474 81.4688Z" fill="white"></path></g><g filter="url(#filter6_d_2082_25213)"><path d="M47.6201 80.1465L48.5554 81.9573L50.5878 82.2765L49.1336 83.7148L49.4542 85.7228L47.6201 84.8012L45.786 85.7228L46.1066 83.7148L44.6523 82.2765L46.6848 81.9573L47.6201 80.1465Z" fill="white"></path></g><g filter="url(#filter7_d_2082_25213)"><path d="M55.19 81.4688L55.7245 82.5036L56.8859 82.6859L56.0549 83.5076L56.2381 84.6552L55.19 84.1286L54.1419 84.6552L54.3251 83.5076L53.4941 82.6859L54.6555 82.5036L55.19 81.4688Z" fill="white"></path></g><g filter="url(#filter8_d_2082_25213)"><path d="M7.43705 61.6956C7.1116 61.6956 6.81737 61.6405 6.55434 61.5304C6.29577 61.4203 6.0907 61.2618 5.93913 61.0548C5.78755 60.8479 5.70954 60.6035 5.70508 60.3216H6.70815C6.72152 60.511 6.78839 60.6607 6.90876 60.7708C7.03359 60.8809 7.203 60.936 7.41698 60.936C7.63543 60.936 7.80707 60.8853 7.93189 60.784C8.05672 60.6783 8.11913 60.5418 8.11913 60.3745C8.11913 60.238 8.07678 60.1257 7.99208 60.0376C7.90738 59.9495 7.80038 59.8813 7.6711 59.8328C7.54627 59.78 7.3724 59.7227 7.1495 59.6611C6.84635 59.573 6.59893 59.4871 6.40723 59.4035C6.21999 59.3154 6.05727 59.1855 5.91907 59.0138C5.78532 58.8376 5.71845 58.6042 5.71845 58.3136C5.71845 58.0405 5.78755 57.8027 5.92575 57.6002C6.06395 57.3976 6.25788 57.2435 6.50753 57.1378C6.75719 57.0277 7.04251 56.9727 7.36349 56.9727C7.84496 56.9727 8.23504 57.0894 8.53374 57.3227C8.83689 57.5517 9.00407 57.8732 9.03527 58.2871H8.00545C7.99654 58.1286 7.92744 57.9987 7.79815 57.8974C7.67332 57.7917 7.50615 57.7389 7.29662 57.7389C7.11383 57.7389 6.96672 57.7851 6.85527 57.8776C6.74827 57.9701 6.69477 58.1044 6.69477 58.2805C6.69477 58.4038 6.7349 58.5073 6.81514 58.591C6.89985 58.6703 7.00238 58.7363 7.12275 58.7892C7.24758 58.8376 7.42144 58.8949 7.64435 58.9609C7.9475 59.049 8.19492 59.1371 8.38662 59.2251C8.57832 59.3132 8.74327 59.4453 8.88147 59.6215C9.01967 59.7976 9.08877 60.0288 9.08877 60.315C9.08877 60.5616 9.02413 60.7906 8.89484 61.002C8.76556 61.2134 8.57609 61.3829 8.32644 61.5106C8.07678 61.6339 7.78032 61.6956 7.43705 61.6956ZM12.2008 61.6956C11.7639 61.6956 11.3627 61.5943 10.9971 61.3917C10.6316 61.1892 10.3418 60.9095 10.1278 60.5528C9.91383 60.1917 9.80683 59.7844 9.80683 59.3308C9.80683 58.8816 9.91383 58.4787 10.1278 58.122C10.3418 57.7609 10.6316 57.4791 10.9971 57.2765C11.3627 57.0739 11.7639 56.9727 12.2008 56.9727C12.6422 56.9727 13.0434 57.0739 13.4045 57.2765C13.7701 57.4791 14.0576 57.7609 14.2672 58.122C14.4811 58.4787 14.5881 58.8816 14.5881 59.3308C14.5881 59.7844 14.4811 60.1917 14.2672 60.5528C14.0576 60.9095 13.7701 61.1892 13.4045 61.3917C13.0389 61.5943 12.6377 61.6956 12.2008 61.6956ZM12.2008 60.8699C12.4817 60.8699 12.7291 60.8082 12.9431 60.6849C13.1571 60.5572 13.3243 60.3767 13.4446 60.1433C13.565 59.9099 13.6252 59.6391 13.6252 59.3308C13.6252 59.0226 13.565 58.7539 13.4446 58.5249C13.3243 58.2915 13.1571 58.1132 12.9431 57.9899C12.7291 57.8666 12.4817 57.8049 12.2008 57.8049C11.92 57.8049 11.6703 57.8666 11.4519 57.9899C11.2379 58.1132 11.0707 58.2915 10.9503 58.5249C10.83 58.7539 10.7698 59.0226 10.7698 59.3308C10.7698 59.6391 10.83 59.9099 10.9503 60.1433C11.0707 60.3767 11.2379 60.5572 11.4519 60.6849C11.6703 60.8082 11.92 60.8699 12.2008 60.8699ZM18.3005 57.0387V57.7851H16.3546V58.9675H17.8458V59.7007H16.3546V61.6493H15.4184V57.0387H18.3005ZM22.2745 57.0387V57.7851H21.0307V61.6493H20.0945V57.7851H18.8507V57.0387H22.2745ZM29.3306 57.0387L28.0266 61.6493H26.923L26.047 58.3664L25.1309 61.6493L24.0342 61.6559L22.777 57.0387H23.7801L24.6026 60.6189L25.5522 57.0387H26.5954L27.4915 60.5991L28.3208 57.0387H29.3306ZM32.9376 60.7708H31.0786L30.771 61.6493H29.788L31.4664 57.0321H32.5564L34.2349 61.6493H33.2452L32.9376 60.7708ZM32.6835 60.031L32.0081 58.1022L31.3327 60.031H32.6835ZM37.4033 61.6493L36.3734 59.8526H35.9321V61.6493H34.9959V57.0387H36.7479C37.109 57.0387 37.4166 57.1026 37.6707 57.2303C37.9249 57.3536 38.1143 57.5231 38.2392 57.7389C38.3684 57.9503 38.4331 58.1881 38.4331 58.4523C38.4331 58.7561 38.3439 59.0314 38.1656 59.278C37.9873 59.5202 37.722 59.6875 37.3698 59.78L38.4866 61.6493H37.4033ZM35.9321 59.1591H36.7145C36.9686 59.1591 37.1581 59.0996 37.2829 58.9807C37.4077 58.8574 37.4701 58.6879 37.4701 58.4721C37.4701 58.2607 37.4077 58.0978 37.2829 57.9833C37.1581 57.8644 36.9686 57.8049 36.7145 57.8049H35.9321V59.1591ZM40.3501 57.7851V58.9411H41.9215V59.6743H40.3501V60.8963H42.1221V61.6493H39.4139V57.0321H42.1221V57.7851H40.3501ZM45.7698 57.7851V58.9411H47.3412V59.6743H45.7698V60.8963H47.5418V61.6493H44.8336V57.0321H47.5418V57.7851H45.7698ZM52.5189 61.6493H51.5827L49.4628 58.4853V61.6493H48.5266V57.0321H49.4628L51.5827 60.2027V57.0321H52.5189V61.6493ZM56.8276 58.4259C56.7206 58.2321 56.5735 58.0846 56.3863 57.9833C56.199 57.882 55.9806 57.8314 55.7309 57.8314C55.4545 57.8314 55.2093 57.893 54.9953 58.0163C54.7813 58.1396 54.6142 58.3158 54.4938 58.5448C54.3734 58.7737 54.3132 59.038 54.3132 59.3374C54.3132 59.6457 54.3734 59.9143 54.4938 60.1433C54.6186 60.3723 54.7903 60.5484 55.0087 60.6717C55.2271 60.795 55.4813 60.8567 55.771 60.8567C56.1277 60.8567 56.4197 60.7642 56.6471 60.5793C56.8744 60.3899 57.0238 60.1279 57.0951 59.7932H55.4902V59.0864H58.0179V59.8923C57.9555 60.2137 57.8218 60.511 57.6167 60.784C57.4116 61.0571 57.1464 61.2772 56.8209 61.4446C56.4999 61.6075 56.1388 61.689 55.7376 61.689C55.2873 61.689 54.8794 61.5899 54.5139 61.3917C54.1527 61.1892 53.8674 60.9095 53.6579 60.5528C53.4528 60.1961 53.3503 59.791 53.3503 59.3374C53.3503 58.8838 53.4528 58.4787 53.6579 58.122C53.8674 57.7609 54.1527 57.4813 54.5139 57.2831C54.8794 57.0805 55.2851 56.9793 55.7309 56.9793C56.257 56.9793 56.7139 57.107 57.1018 57.3624C57.4896 57.6134 57.7571 57.9679 57.9042 58.4259H56.8276ZM59.7806 57.0387V61.6493H58.8444V57.0387H59.7806ZM64.8312 61.6493H63.895L61.7752 58.4853V61.6493H60.839V57.0321H61.7752L63.895 60.2027V57.0321H64.8312V61.6493ZM66.8267 57.7851V58.9411H68.3981V59.6743H66.8267V60.8963H68.5987V61.6493H65.8905V57.0321H68.5987V57.7851H66.8267ZM70.5193 57.7851V58.9411H72.0908V59.6743H70.5193V60.8963H72.2914V61.6493H69.5831V57.0321H72.2914V57.7851H70.5193ZM75.6831 61.6493L74.6533 59.8526H74.2119V61.6493H73.2757V57.0387H75.0278C75.3889 57.0387 75.6965 57.1026 75.9506 57.2303C76.2047 57.3536 76.3942 57.5231 76.519 57.7389C76.6483 57.9503 76.7129 58.1881 76.7129 58.4523C76.7129 58.7561 76.6237 59.0314 76.4454 59.278C76.2671 59.5202 76.0019 59.6875 75.6497 59.78L76.7664 61.6493H75.6831ZM74.2119 59.1591H74.9943C75.2484 59.1591 75.4379 59.0996 75.5627 58.9807C75.6876 58.8574 75.75 58.6879 75.75 58.4721C75.75 58.2607 75.6876 58.0978 75.5627 57.9833C75.4379 57.8644 75.2484 57.8049 74.9943 57.8049H74.2119V59.1591ZM78.6299 57.0387V61.6493H77.6937V57.0387H78.6299ZM83.6809 61.6493H82.7447L80.6249 58.4853V61.6493H79.6887V57.0321H80.6249L82.7447 60.2027V57.0321H83.6809V61.6493ZM87.9897 58.4259C87.8827 58.2321 87.7355 58.0846 87.5483 57.9833C87.3611 57.882 87.1426 57.8314 86.893 57.8314C86.6166 57.8314 86.3714 57.893 86.1574 58.0163C85.9434 58.1396 85.7762 58.3158 85.6558 58.5448C85.5355 58.7737 85.4753 59.038 85.4753 59.3374C85.4753 59.6457 85.5355 59.9143 85.6558 60.1433C85.7807 60.3723 85.9523 60.5484 86.1708 60.6717C86.3892 60.795 86.6433 60.8567 86.9331 60.8567C87.2897 60.8567 87.5817 60.7642 87.8091 60.5793C88.0365 60.3899 88.1858 60.1279 88.2571 59.7932H86.6522V59.0864H89.18V59.8923C89.1175 60.2137 88.9838 60.511 88.7787 60.784C88.5737 61.0571 88.3084 61.2772 87.983 61.4446C87.662 61.6075 87.3009 61.689 86.8997 61.689C86.4494 61.689 86.0415 61.5899 85.6759 61.3917C85.3148 61.1892 85.0295 60.9095 84.82 60.5528C84.6149 60.1961 84.5123 59.791 84.5123 59.3374C84.5123 58.8838 84.6149 58.4787 84.82 58.122C85.0295 57.7609 85.3148 57.4813 85.6759 57.2831C86.0415 57.0805 86.4472 56.9793 86.893 56.9793C87.419 56.9793 87.876 57.107 88.2638 57.3624C88.6517 57.6134 88.9192 57.9679 89.0663 58.4259H87.9897Z" fill="white"></path></g></g><defs><filter id="filter0_d_2082_25213" x="20.7266" y="19.9297" width="54.4238" height="27.2343" filterUnits="userSpaceOnUse" color-interpolation-filters="sRGB"><feFlood flood-opacity="0" result="BackgroundImageFix"></feFlood><feColorMatrix in="SourceAlpha" type="matrix" values="0 0 0 0 0 0 0 0 0 0 0 0 0 0 0 0 0 0 127 0" result="hardAlpha"></feColorMatrix><feOffset dy="0.486295"></feOffset><feComposite in2="hardAlpha" operator="out"></feComposite><feColorMatrix type="matrix" values="0 0 0 0 0.156863 0 0 0 0 0.266667 0 0 0 0 0.352941 0 0 0 1 0"></feColorMatrix><feBlend mode="normal" in2="BackgroundImageFix" result="effect1_dropShadow_2082_25213"></feBlend><feBlend mode="normal" in="SourceGraphic" in2="effect1_dropShadow_2082_25213" result="shape"></feBlend></filter><filter id="filter1_d_2082_25213" x="22.8047" y="70.8008" width="49.8906" height="5.47458" filterUnits="userSpaceOnUse" color-interpolation-filters="sRGB"><feFlood flood-opacity="0" result="BackgroundImageFix"></feFlood><feColorMatrix in="SourceAlpha" type="matrix" values="0 0 0 0 0 0 0 0 0 0 0 0 0 0 0 0 0 0 127 0" result="hardAlpha"></feColorMatrix><feOffset dy="0.486295"></feOffset><feComposite in2="hardAlpha" operator="out"></feComposite><feColorMatrix type="matrix" values="0 0 0 0 0.156863 0 0 0 0 0.266667 0 0 0 0 0.352941 0 0 0 1 0"></feColorMatrix><feBlend mode="normal" in2="BackgroundImageFix" result="effect1_dropShadow_2082_25213"></feBlend><feBlend mode="normal" in="SourceGraphic" in2="effect1_dropShadow_2082_25213" result="shape"></feBlend></filter><filter id="filter2_d_2082_25213" x="38.3516" y="11.0137" width="3.39258" height="3.6738" filterUnits="userSpaceOnUse" color-interpolation-filters="sRGB"><feFlood flood-opacity="0" result="BackgroundImageFix"></feFlood><feColorMatrix in="SourceAlpha" type="matrix" values="0 0 0 0 0 0 0 0 0 0 0 0 0 0 0 0 0 0 127 0" result="hardAlpha"></feColorMatrix><feOffset dy="0.486295"></feOffset><feComposite in2="hardAlpha" operator="out"></feComposite><feColorMatrix type="matrix" values="0 0 0 0 0.156863 0 0 0 0 0.266667 0 0 0 0 0.352941 0 0 0 1 0"></feColorMatrix><feBlend mode="normal" in2="BackgroundImageFix" result="effect1_dropShadow_2082_25213"></feBlend><feBlend mode="normal" in="SourceGraphic" in2="effect1_dropShadow_2082_25213" result="shape"></feBlend></filter><filter id="filter3_d_2082_25213" x="44.6523" y="9.69141" width="5.93555" height="6.06247" filterUnits="userSpaceOnUse" color-interpolation-filters="sRGB"><feFlood flood-opacity="0" result="BackgroundImageFix"></feFlood><feColorMatrix in="SourceAlpha" type="matrix" values="0 0 0 0 0 0 0 0 0 0 0 0 0 0 0 0 0 0 127 0" result="hardAlpha"></feColorMatrix><feOffset dy="0.486295"></feOffset><feComposite in2="hardAlpha" operator="out"></feComposite><feColorMatrix type="matrix" values="0 0 0 0 0.156863 0 0 0 0 0.266667 0 0 0 0 0.352941 0 0 0 1 0"></feColorMatrix><feBlend mode="normal" in2="BackgroundImageFix" result="effect1_dropShadow_2082_25213"></feBlend><feBlend mode="normal" in="SourceGraphic" in2="effect1_dropShadow_2082_25213" result="shape"></feBlend></filter><filter id="filter4_d_2082_25213" x="53.4941" y="11.0137" width="3.39258" height="3.6738" filterUnits="userSpaceOnUse" color-interpolation-filters="sRGB"><feFlood flood-opacity="0" result="BackgroundImageFix"></feFlood><feColorMatrix in="SourceAlpha" type="matrix" values="0 0 0 0 0 0 0 0 0 0 0 0 0 0 0 0 0 0 127 0" result="hardAlpha"></feColorMatrix><feOffset dy="0.486295"></feOffset><feComposite in2="hardAlpha" operator="out"></feComposite><feColorMatrix type="matrix" values="0 0 0 0 0.156863 0 0 0 0 0.266667 0 0 0 0 0.352941 0 0 0 1 0"></feColorMatrix><feBlend mode="normal" in2="BackgroundImageFix" result="effect1_dropShadow_2082_25213"></feBlend><feBlend mode="normal" in="SourceGraphic" in2="effect1_dropShadow_2082_25213" result="shape"></feBlend></filter><filter id="filter5_d_2082_25213" x="38.3516" y="81.4688" width="3.39258" height="3.67184" filterUnits="userSpaceOnUse" color-interpolation-filters="sRGB"><feFlood flood-opacity="0" result="BackgroundImageFix"></feFlood><feColorMatrix in="SourceAlpha" type="matrix" values="0 0 0 0 0 0 0 0 0 0 0 0 0 0 0 0 0 0 127 0" result="hardAlpha"></feColorMatrix><feOffset dy="0.486295"></feOffset><feComposite in2="hardAlpha" operator="out"></feComposite><feColorMatrix type="matrix" values="0 0 0 0 0.156863 0 0 0 0 0.266667 0 0 0 0 0.352941 0 0 0 1 0"></feColorMatrix><feBlend mode="normal" in2="BackgroundImageFix" result="effect1_dropShadow_2082_25213"></feBlend><feBlend mode="normal" in="SourceGraphic" in2="effect1_dropShadow_2082_25213" result="shape"></feBlend></filter><filter id="filter6_d_2082_25213" x="44.6523" y="80.1465" width="5.93555" height="6.06247" filterUnits="userSpaceOnUse" color-interpolation-filters="sRGB"><feFlood flood-opacity="0" result="BackgroundImageFix"></feFlood><feColorMatrix in="SourceAlpha" type="matrix" values="0 0 0 0 0 0 0 0 0 0 0 0 0 0 0 0 0 0 127 0" result="hardAlpha"></feColorMatrix><feOffset dy="0.486295"></feOffset><feComposite in2="hardAlpha" operator="out"></feComposite><feColorMatrix type="matrix" values="0 0 0 0 0.156863 0 0 0 0 0.266667 0 0 0 0 0.352941 0 0 0 1 0"></feColorMatrix><feBlend mode="normal" in2="BackgroundImageFix" result="effect1_dropShadow_2082_25213"></feBlend><feBlend mode="normal" in="SourceGraphic" in2="effect1_dropShadow_2082_25213" result="shape"></feBlend></filter><filter id="filter7_d_2082_25213" x="53.4941" y="81.4688" width="3.39258" height="3.67184" filterUnits="userSpaceOnUse" color-interpolation-filters="sRGB"><feFlood flood-opacity="0" result="BackgroundImageFix"></feFlood><feColorMatrix in="SourceAlpha" type="matrix" values="0 0 0 0 0 0 0 0 0 0 0 0 0 0 0 0 0 0 127 0" result="hardAlpha"></feColorMatrix><feOffset dy="0.486295"></feOffset><feComposite in2="hardAlpha" operator="out"></feComposite><feColorMatrix type="matrix" values="0 0 0 0 0.156863 0 0 0 0 0.266667 0 0 0 0 0.352941 0 0 0 1 0"></feColorMatrix><feBlend mode="normal" in2="BackgroundImageFix" result="effect1_dropShadow_2082_25213"></feBlend><feBlend mode="normal" in="SourceGraphic" in2="effect1_dropShadow_2082_25213" result="shape"></feBlend></filter><filter id="filter8_d_2082_25213" x="5.70508" y="56.9727" width="83.4746" height="5.20895" filterUnits="userSpaceOnUse" color-interpolation-filters="sRGB"><feFlood flood-opacity="0" result="BackgroundImageFix"></feFlood><feColorMatrix in="SourceAlpha" type="matrix" values="0 0 0 0 0 0 0 0 0 0 0 0 0 0 0 0 0 0 127 0" result="hardAlpha"></feColorMatrix><feOffset dy="0.486295"></feOffset><feComposite in2="hardAlpha" operator="out"></feComposite><feColorMatrix type="matrix" values="0 0 0 0 0.454902 0 0 0 0 0.0705882 0 0 0 0 0.12549 0 0 0 1 0"></feColorMatrix><feBlend mode="normal" in2="BackgroundImageFix" result="effect1_dropShadow_2082_25213"></feBlend><feBlend mode="normal" in="SourceGraphic" in2="effect1_dropShadow_2082_25213" result="shape"></feBlend></filter><clipPath id="clip0_2082_25213"><rect width="96.0983" height="96" fill="white" transform="translate(0.0839844)"></rect></clipPath></defs></svg> 