<?xml version="1.0" encoding="UTF-8"?> <svg xmlns="http://www.w3.org/2000/svg" width="24" height="24" viewBox="0 0 24 24" fill="none"><path fill-rule="evenodd" clip-rule="evenodd" d="M10.9568 8.98507C11.5974 8.18469 12.358 7.31412 13.2588 6.43366C16.6918 2.97167 20.515 2.76156 20.8653 3.13176C21.2456 3.49196 21.0154 7.28417 17.5625 10.7561C16.6817 11.6567 15.821 12.4171 15.0103 13.0574L15.0104 15.6191C15.0116 16.493 15.0117 16.5407 14.4098 16.9897C14.3453 17.037 14.2409 17.1179 14.1034 17.2245C13.5131 17.682 12.3129 18.6122 11.0469 19.3909C10.6666 19.6211 10.3463 19.431 10.5965 19.0908C11.1622 18.3145 11.6357 17.475 12.0077 16.5894C12.2879 15.929 12.2879 15.3287 12.0077 14.8084C11.0069 15.1286 10.1862 15.0285 9.57562 14.4381C8.9551 13.8379 8.87503 12.9974 9.19531 11.9867C8.62762 11.7061 7.96145 11.7061 7.39376 11.9867C6.63312 12.2669 5.81241 12.7473 4.89162 13.3876C4.53131 13.6478 4.34115 13.3276 4.59137 12.9474C5.4022 11.6022 6.39888 10.346 6.83178 9.80049C6.90115 9.71309 6.9561 9.64381 6.99342 9.59548C7.44381 8.99509 7.49385 8.99509 8.4947 8.99509H10.9268L10.9568 8.98507ZM7.88418 14.3881C7.93774 14.447 7.77631 14.5776 7.51109 14.7921C6.78522 15.3791 5.28196 16.5947 5.28196 18.6906C7.38725 18.6906 8.60625 17.2068 9.19633 16.4885C9.41416 16.2233 9.54628 16.0625 9.60566 16.1191C9.80583 16.3192 9.13525 17.9502 7.98427 19.0908C6.66202 20.3936 4.85429 21.0832 3 20.992C3 18.6906 3.75065 17.1497 4.90163 16.0091C6.05262 14.8584 7.674 14.188 7.88418 14.4082V14.3881Z" fill="black" fill-opacity="0.83"></path></svg> 