<?xml version="1.0" encoding="UTF-8"?> <svg xmlns="http://www.w3.org/2000/svg" width="140" height="26" viewBox="0 0 140 26" fill="none"> <path d="M3.09426 6.06468V2.67211H0V6.06468H3.09426ZM3.09426 25.4492V10.9839H0V25.4492H3.09426Z" fill="black"></path> <path d="M21.2956 21.2503C21.2956 19.0042 19.769 17.3489 16.3296 16.5417C14.5924 16.1205 13.6565 15.5707 13.6565 14.4652C13.6565 13.4065 14.335 12.6402 16.119 12.6402C17.558 12.6402 19.0905 13.2778 20.1901 13.9563L20.74 11.7921C20.5294 11.6634 18.4938 10.435 16.119 10.435C12.4281 10.435 10.9424 12.5583 10.9424 14.8454C10.9424 16.84 12.2176 18.5363 15.3996 19.3025C17.7744 19.8524 18.5757 20.5718 18.5757 21.6305C18.5757 23.0344 17.517 23.7129 15.8207 23.7129C13.6565 23.7129 11.8374 22.6483 10.8605 22.0575L10.2639 24.3914C10.5622 24.561 12.7674 25.9999 15.7798 25.9999C19.301 25.9999 21.2956 24.0931 21.2956 21.2503Z" fill="black"></path> <path d="M43.5629 25.4501V10.9849H40.8079L40.6383 13.2778C39.41 11.3709 36.9065 10.4351 35.0406 10.4351C31.18 10.4351 27.998 13.658 27.998 18.197C27.998 22.818 31.18 26 35.0406 26C36.9884 26 39.41 25.0699 40.6383 23.1572L40.8079 25.4501H43.5629ZM35.76 12.8099C37.9243 12.8099 40.6383 14.4243 40.6383 18.238C40.6383 22.0166 37.9243 23.6252 35.76 23.6252C33.4262 23.6252 31.0923 21.8002 31.0923 18.238C31.0923 14.6758 33.4262 12.8099 35.76 12.8099Z" fill="black"></path> <path d="M58.4516 25.4502H60.5749L66.5997 8.01935C66.7225 7.68009 66.9799 6.70326 67.0208 6.62137C67.0618 6.74421 67.3191 7.68009 67.4478 8.01935L73.4667 25.4502H75.59L84.3698 0H81.0591L74.9524 18.7937C74.7828 19.2558 74.6132 20.3613 74.6132 20.3613C74.6132 20.3613 74.3617 19.2558 74.192 18.7937L68.1673 0H66.044L60.0251 18.7937C59.8555 19.2558 59.5981 20.2326 59.5981 20.3613C59.5571 20.2326 59.3875 19.2149 59.2588 18.7937L53.1522 0H49.6777L58.4516 25.4502Z" fill="black"></path> <path d="M105.135 25.4501V10.9849H102.38L102.211 13.2778C100.982 11.3709 98.4787 10.4351 96.6128 10.4351C92.7523 10.4351 89.5703 13.658 89.5703 18.197C89.5703 22.818 92.7523 26 96.6128 26C98.5606 26 100.982 25.0699 102.211 23.1572L102.38 25.4501H105.135ZM97.3323 12.8099C99.4965 12.8099 102.211 14.4243 102.211 18.238C102.211 22.0166 99.4965 23.6252 97.3323 23.6252C94.9984 23.6252 92.6646 21.8002 92.6646 18.238C92.6646 14.6758 94.9984 12.8099 97.3323 12.8099Z" fill="black"></path> <path d="M129.063 18.1971C129.063 13.658 125.881 10.4351 122.02 10.4351C120.155 10.4351 117.868 11.2423 116.592 13.0673V0H113.498V25.4502H116.253L116.423 23.1573C117.651 25.07 120.073 26 122.02 26C125.881 26 129.063 22.818 129.063 18.1971ZM125.969 18.238C125.969 21.8002 123.635 23.6252 121.26 23.6252C119.137 23.6252 116.423 22.0166 116.423 18.238C116.423 14.4243 119.137 12.8099 121.26 12.8099C123.635 12.8099 125.969 14.6758 125.969 18.238Z" fill="black"></path> <path d="M139.711 6.06445V2.67188H136.617V6.06445H139.711ZM139.711 25.4489V10.9837H136.617V25.4489H139.711Z" fill="black"></path> </svg> 