<?xml version="1.0" encoding="UTF-8"?> <svg xmlns="http://www.w3.org/2000/svg" width="151" height="24" viewBox="0 0 151 24" fill="none"> <g clip-path="url(#clip0_1116_33433)"> <path d="M13.2243 9.98377V18.9315H10.864V10.4018C10.864 7.67803 9.2801 6.06816 6.66796 6.09413C4.16748 6.09413 2.38883 7.91172 2.36027 9.87472V18.9315H0V4.28952H2.22265V6.42908C3.1678 5.03992 4.94645 3.98312 7.27037 3.98312C11.0302 3.98312 13.2243 6.34599 13.2243 9.98377Z" fill="#131313"></path> <path d="M23.4301 17.0413C25.8189 17.0413 27.1536 16.1247 27.8754 14.4291L29.9319 15.6807C28.8491 17.7579 26.816 19.2639 23.347 19.2639C18.8472 19.2639 15.791 15.987 15.791 11.6248C15.791 7.37166 19.0393 3.95459 23.1808 3.95459C27.595 3.95459 30.4044 7.42879 30.4044 11.2899C30.4044 11.7079 30.3759 12.2065 30.3499 12.4843H18.1747C18.5953 15.2081 20.7349 17.0413 23.4301 17.0413ZM27.9871 10.4304C27.6261 7.67806 25.7099 6.01626 23.2639 6.01626C20.818 6.01626 18.6524 7.65728 18.2058 10.4304H27.9871Z" fill="#131313"></path> <path d="M45.8259 4.28955V18.9315H43.5747V16.8543C43.0082 17.6114 42.2695 18.2225 41.4196 18.6371C40.5698 19.0516 39.6333 19.2576 38.688 19.2379C34.9386 19.2379 32.8535 16.792 32.8535 13.3178V4.28955H35.2164V13.04C35.2164 15.5145 36.7977 17.1529 39.2982 17.1243C41.7987 17.0958 43.4397 15.3483 43.4683 13.4892V4.28955H45.8259Z" fill="#131313"></path> <path d="M55.7031 3.98291V6.177C53.0339 6.20557 51.1721 8.01277 51.1721 10.0952V18.9235H48.8145V4.2893H51.0371V6.42887C51.5597 5.67487 52.2571 5.05859 53.0696 4.63265C53.8822 4.20671 54.7857 3.98378 55.7031 3.98291Z" fill="#131313"></path> <path d="M105.272 6.12781C104.044 4.6296 102.219 3.80908 100.079 3.80908C95.7275 3.80908 92.57 7.08334 92.57 11.5988C92.5276 13.6931 93.2854 15.7249 94.6888 17.28C95.3821 18.01 96.2188 18.5887 97.1465 18.9797C98.0742 19.3707 99.0727 19.5655 100.079 19.552C102.206 19.552 104.034 18.7029 105.272 17.1476V19.2456H108.092V3.97526H105.272V6.12781ZM105.189 11.5962C105.189 14.6835 103.203 16.8412 100.362 16.8412C97.61 16.8412 95.5353 14.5848 95.5353 11.5962C95.5353 8.60752 97.6126 6.37968 100.362 6.37968C103.203 6.37968 105.189 8.52443 105.189 11.5962Z" fill="#131313"></path> <path d="M122.838 6.23433L122.867 6.20058V3.97533H111.294V6.54592H119.029L110.904 17.1009V19.2431H123.17V16.6751H114.771L122.838 6.23433Z" fill="#131313"></path> <path d="M132.393 3.63515C131.37 3.63233 130.357 3.83809 129.416 4.23989C128.475 4.64168 127.625 5.23106 126.92 5.97205C125.472 7.49311 124.672 9.51724 124.689 11.617C124.647 13.7205 125.43 15.757 126.87 17.2904C128.298 18.7601 130.318 19.5702 132.559 19.5702C135.818 19.578 138.137 18.3161 139.435 15.839L139.57 15.5793L136.942 13.9746L136.802 14.307C136.096 15.961 134.777 16.7296 132.648 16.7296C131.503 16.7496 130.388 16.3669 129.497 15.6484C128.607 14.9298 127.996 13.9211 127.774 12.7984H139.85L139.879 12.5154C139.908 12.2324 139.936 11.7208 139.936 11.2898C139.95 9.32243 139.219 7.42264 137.89 5.97205C137.187 5.22118 136.335 4.62545 135.388 4.22303C134.442 3.8206 133.422 3.62037 132.393 3.63515ZM127.797 10.1265C128.014 9.05001 128.6 8.08274 129.453 7.39092C130.306 6.6991 131.373 6.32595 132.471 6.33557C134.694 6.33557 136.389 7.8182 136.828 10.1265H127.797Z" fill="#131313"></path> <path d="M149.82 3.67188C149.004 3.6709 148.197 3.83696 147.448 4.15984C146.7 4.48271 146.025 4.95554 145.466 5.54919V3.97568H142.609V19.2435H145.595V10.0958C145.595 8.09901 147.449 6.51511 149.815 6.49174H150.124V3.67188H149.82Z" fill="#131313"></path> <path d="M64.5756 4.01661C63.0874 4.01918 61.6334 4.46266 60.3971 5.29106C59.1607 6.11945 58.1976 7.29561 57.6293 8.67101C57.061 10.0464 56.913 11.5594 57.2039 13.0188C57.4949 14.4783 58.2118 15.8188 59.2641 16.8712C60.3164 17.9235 61.6569 18.6404 63.1164 18.9313C64.5759 19.2223 66.0888 19.0743 67.4642 18.5059C68.8396 17.9376 70.0158 16.9745 70.8442 15.7382C71.6726 14.5019 72.1161 13.0478 72.1186 11.5596C72.1203 10.5686 71.9264 9.58694 71.5479 8.67101C71.1695 7.75508 70.6139 6.92287 69.9132 6.22209C69.2124 5.52132 68.3802 4.96577 67.4642 4.58731C66.5483 4.20884 65.5667 4.0149 64.5756 4.01661ZM64.5756 17.0254C63.4977 17.0228 62.4448 16.7008 61.5498 16.1001C60.6548 15.4994 59.9579 14.6469 59.5472 13.6503C59.1365 12.6537 59.0303 11.5578 59.2422 10.5009C59.4541 9.444 59.9744 8.47363 60.7375 7.71234C61.5006 6.95105 62.4722 6.43302 63.5296 6.22367C64.587 6.01432 65.6827 6.12306 66.6783 6.53615C67.6739 6.94923 68.5247 7.64813 69.1233 8.54455C69.7219 9.44097 70.0414 10.4947 70.0414 11.5726C70.0373 13.0197 69.4597 14.4063 68.4352 15.4283C67.4107 16.4504 66.0228 17.0247 64.5756 17.0254Z" fill="#131313"></path> <path d="M82.3799 3.68457C80.8222 3.68406 79.2993 4.1455 78.0039 5.01055C76.7085 5.87559 75.6986 7.10537 75.1022 8.54436C74.5057 9.98335 74.3494 11.5669 74.653 13.0948C74.9565 14.6226 75.7064 16.0261 76.8077 17.1277C77.909 18.2294 79.3122 18.9797 80.84 19.2838C82.3677 19.5879 83.9513 19.4321 85.3905 18.8361C86.8297 18.2401 88.0598 17.2307 88.9253 15.9355C89.7907 14.6404 90.2527 13.1176 90.2527 11.5599C90.2527 9.47171 89.4233 7.46897 87.947 5.99213C86.4706 4.51529 84.4681 3.68526 82.3799 3.68457ZM82.3799 16.5012C81.4042 16.5012 80.4503 16.2118 79.639 15.6698C78.8277 15.1277 78.1954 14.3572 77.822 13.4557C77.4486 12.5542 77.3509 11.5623 77.5412 10.6053C77.7316 9.64826 78.2015 8.7692 78.8914 8.07924C79.5814 7.38928 80.4605 6.91942 81.4174 6.72906C82.3744 6.5387 83.3664 6.6364 84.2679 7.0098C85.1693 7.3832 85.9398 8.01554 86.4819 8.82684C87.024 9.63814 87.3134 10.592 87.3134 11.5677C87.3134 12.8762 86.7936 14.131 85.8684 15.0562C84.9432 15.9814 83.6884 16.5012 82.3799 16.5012Z" fill="#131313"></path> <path d="M87.3241 3.27686C88.229 3.27686 88.9625 2.54331 88.9625 1.63843C88.9625 0.73355 88.229 0 87.3241 0C86.4192 0 85.6857 0.73355 85.6857 1.63843C85.6857 2.54331 86.4192 3.27686 87.3241 3.27686Z" fill="#131313"></path> <path d="M85.9279 20.3752C83.6457 21.2961 81.0954 21.2961 78.8133 20.3752H75.752C76.4643 21.4864 77.4447 22.4007 78.6028 23.0339C79.761 23.6671 81.0597 23.999 82.3797 23.999C83.6996 23.999 84.9984 23.6671 86.1565 23.0339C87.3147 22.4007 88.295 21.4864 89.0074 20.3752H85.9279Z" fill="#131313"></path> </g> <defs> <clipPath id="clip0_1116_33433"> <rect width="150.138" height="24" fill="white"></rect> </clipPath> </defs> </svg> 