<?xml version="1.0" encoding="UTF-8"?> <svg xmlns="http://www.w3.org/2000/svg" width="106" height="32" viewBox="0 0 106 32" fill="none"> <g clip-path="url(#clip0_0_50)"> <path d="M15.8254 0.0523682C7.11134 0.0523682 0.0468292 7.19389 0.0468292 16.0032C0.0468292 24.8129 7.11134 31.9539 15.8254 31.9539C24.5405 31.9539 31.6042 24.8129 31.6042 16.0032C31.6042 7.19446 24.5405 0.0531301 15.8253 0.0531301L15.8254 0.0523682ZM23.0614 23.0581C22.7788 23.5267 22.1721 23.6752 21.7086 23.3876C18.0039 21.1 13.3402 20.5819 7.84786 21.8505C7.3186 21.9724 6.79103 21.6371 6.67044 21.1019C6.54929 20.5667 6.87959 20.0333 7.41017 19.9114C13.4207 18.5232 18.5763 19.1209 22.7354 21.6905C23.1989 21.9781 23.3459 22.5895 23.0614 23.0581ZM24.9927 18.7148C24.6366 19.3 23.8791 19.4847 23.3007 19.1247C19.0594 16.4893 12.5943 15.7261 7.57767 17.2655C6.92707 17.4642 6.23991 17.0935 6.04245 16.4369C5.84649 15.7792 6.21334 15.0859 6.86282 14.8859C12.5931 13.1282 19.717 13.9796 24.5876 17.0053C25.166 17.3653 25.3488 18.131 24.9927 18.715V18.7148ZM25.1585 14.1922C20.0731 11.1387 11.6829 10.8579 6.82758 12.3476C6.04791 12.5867 5.2234 12.1417 4.98712 11.3535C4.75085 10.5649 5.19061 9.73199 5.97085 9.49237C11.5444 7.78189 20.8098 8.11237 26.6647 11.6261C27.3675 12.0468 27.5974 12.9625 27.181 13.6705C26.7664 14.3794 25.8583 14.6131 25.1592 14.1922H25.1585ZM42.9752 14.7773C40.2507 14.1206 39.7665 13.6596 39.7665 12.691C39.7665 11.776 40.6181 11.1602 41.8862 11.1602C43.1146 11.1602 44.3318 11.6278 45.6093 12.5905C45.647 12.6196 45.6959 12.6312 45.743 12.6236C45.792 12.6164 45.8335 12.5899 45.8618 12.5501L47.192 10.6545C47.2466 10.5764 47.2315 10.4687 47.1581 10.4091C45.6375 9.17618 43.9267 8.57675 41.9257 8.57675C38.9845 8.57675 36.9289 10.3613 36.9289 12.9147C36.9289 15.6527 38.7019 16.6223 41.7656 17.3707C44.3714 17.9777 44.8123 18.4863 44.8123 19.3952C44.8123 20.4028 43.9229 21.0295 42.491 21.0295C40.9007 21.0295 39.6025 20.4867 38.1517 19.2181C38.1159 19.1857 38.0669 19.1724 38.0217 19.1743C37.9727 19.1781 37.9294 19.2009 37.8992 19.2371L36.407 21.0314C36.3448 21.1076 36.3523 21.2181 36.4239 21.2828C38.1122 22.8067 40.1885 23.6105 42.4307 23.6105C45.5999 23.6105 47.6479 21.86 47.6479 19.1495C47.6536 16.8625 46.2989 15.5958 42.9809 14.7798L42.9752 14.7773ZM54.8191 12.0611C53.4455 12.0611 52.3188 12.6082 51.388 13.7291V12.4674C51.388 12.3678 51.3089 12.2867 51.2109 12.2867H48.7709C48.6729 12.2867 48.5938 12.3678 48.5938 12.4674V26.4867C48.5938 26.5857 48.6729 26.6676 48.7709 26.6676H51.2109C51.3089 26.6676 51.388 26.5857 51.388 26.4867V22.0619C52.3188 23.1152 53.4455 23.6314 54.8191 23.6314C57.3722 23.6314 59.9572 21.6447 59.9572 17.8468C59.961 14.0482 57.3759 12.0609 54.821 12.0609L54.8191 12.0611ZM57.1197 17.8468C57.1197 19.78 55.9421 21.1305 54.2539 21.1305C52.5864 21.1305 51.3277 19.719 51.3277 17.8468C51.3277 15.9745 52.5864 14.5634 54.2539 14.5634C55.9138 14.5632 57.1197 15.9438 57.1197 17.8467V17.8468ZM66.5801 12.0611C63.2922 12.0611 60.7166 14.6204 60.7166 17.8882C60.7166 21.1209 63.2753 23.6524 66.5405 23.6524C69.8397 23.6524 72.4229 21.1019 72.4229 17.8468C72.4229 14.6028 69.8567 12.0615 66.5801 12.0615V12.0611ZM66.5801 21.1495C64.8316 21.1495 63.5127 19.7286 63.5127 17.8459C63.5127 15.9547 64.7864 14.5823 66.5405 14.5823C68.3003 14.5823 69.6268 16.0027 69.6268 17.8872C69.6268 19.7781 68.3456 21.1495 66.5801 21.1495ZM79.4433 12.2867H76.7584V9.51218C76.7584 9.41275 76.6793 9.33161 76.5813 9.33161H74.1413C74.0433 9.33161 73.9623 9.41275 73.9623 9.51218V12.2867H72.7903C72.6923 12.2867 72.6132 12.3678 72.6132 12.4674V14.5868C72.6132 14.6863 72.6923 14.7676 72.7903 14.7676H73.9623V20.2524C73.9623 22.4676 75.0532 23.5914 77.2068 23.5914C78.0811 23.5914 78.8065 23.4086 79.4904 23.0162C79.547 22.9857 79.5809 22.9247 79.5809 22.86V20.8409C79.5809 20.78 79.5488 20.7209 79.4961 20.6886C79.4433 20.6543 79.3774 20.6524 79.3227 20.6809C78.8536 20.919 78.3995 21.0295 77.8908 21.0295C77.1088 21.0295 76.7584 20.6695 76.7584 19.8657V14.7686H79.4433C79.5413 14.7686 79.6204 14.6874 79.6204 14.5878V12.4686C79.6242 12.3689 79.5451 12.2878 79.4452 12.2878L79.4433 12.2867ZM88.7963 12.2975V11.9567C88.7963 10.9543 89.1769 10.5072 90.0286 10.5072C90.5373 10.5072 90.9462 10.6093 91.404 10.7636C91.4606 10.7815 91.519 10.7726 91.5642 10.7385C91.6113 10.7044 91.6377 10.6497 91.6377 10.5918V8.5137C91.6377 8.43427 91.5887 8.36399 91.5114 8.34056C91.0291 8.19523 90.4111 8.04608 89.4841 8.04608C87.2325 8.04608 86.0398 9.32875 86.0398 11.7541V12.276H84.8679C84.7699 12.276 84.6889 12.3571 84.6889 12.4566V14.5868C84.6889 14.6863 84.7699 14.7676 84.8679 14.7676H86.0398V23.2257C86.0398 23.3267 86.1208 23.4067 86.2188 23.4067H88.6569C88.7568 23.4067 88.8359 23.3267 88.8359 23.2257V14.7682H91.1139L94.6034 23.2257C94.2077 24.1133 93.8177 24.2905 93.2863 24.2905C92.8567 24.2905 92.4026 24.1609 91.941 23.9038C91.8977 23.8809 91.8449 23.8771 91.7997 23.8905C91.7526 23.9076 91.713 23.9419 91.6942 23.9876L90.8671 25.8219C90.8275 25.9095 90.8614 26.0105 90.9443 26.0562C91.8073 26.5286 92.5854 26.7305 93.5482 26.7305C95.3495 26.7305 96.3462 25.8809 97.2224 23.599L101.454 12.5444C101.477 12.4887 101.469 12.4259 101.435 12.3766C101.403 12.3276 101.349 12.2981 101.29 12.2981H98.7504C98.6732 12.2981 98.6053 12.347 98.5808 12.4192L95.9788 19.9305L93.1299 12.4143C93.1036 12.3444 93.0376 12.2981 92.9641 12.2981H88.7963V12.2975ZM83.3737 12.2867H80.9337C80.8357 12.2867 80.7547 12.3678 80.7547 12.4674V23.2257C80.7547 23.3267 80.8357 23.4067 80.9337 23.4067H83.3737C83.4717 23.4067 83.5527 23.3267 83.5527 23.2257V12.4682C83.5527 12.3686 83.4736 12.2874 83.3737 12.2874V12.2867ZM82.1678 7.3878C81.2013 7.3878 80.4174 8.17865 80.4174 9.15561C80.4174 10.1331 81.2013 10.9249 82.1678 10.9249C83.1344 10.9249 83.9163 10.1331 83.9163 9.15561C83.9163 8.17884 83.1325 7.3878 82.1678 7.3878ZM103.538 15.7459C102.573 15.7459 101.822 14.9621 101.822 14.0103C101.822 13.0585 102.583 12.2657 103.548 12.2657C104.512 12.2657 105.264 13.0493 105.264 14.0004C105.264 14.9522 104.503 15.7459 103.538 15.7459ZM103.548 12.4383C102.668 12.4383 102.002 13.1449 102.002 14.0103C102.002 14.8752 102.664 15.5724 103.538 15.5724C104.418 15.5724 105.083 14.8663 105.083 14.0004C105.083 13.1354 104.422 12.4383 103.548 12.4383ZM103.928 14.1788L104.414 14.8661H104.003L103.566 14.2356H103.191V14.8661H102.848V13.0444H103.651C104.071 13.0444 104.346 13.2609 104.346 13.6255C104.348 13.9242 104.177 14.1067 103.93 14.1788H103.928ZM103.638 13.3569H103.191V13.9331H103.638C103.86 13.9331 103.994 13.8228 103.994 13.6447C103.994 13.4573 103.86 13.3569 103.638 13.3569Z" fill="#131313"></path> </g> <defs> <clipPath id="clip0_0_50"> <rect width="105.325" height="32" fill="white"></rect> </clipPath> </defs> </svg> 