<?xml version="1.0" encoding="UTF-8"?> <svg xmlns="http://www.w3.org/2000/svg" width="16" height="16" viewBox="0 0 16 16" fill="none"><path d="M7.56388 7.96155C7.45002 7.98448 7.33616 7.99976 7.21472 7.99976C6.25832 7.99976 5.4765 7.21263 5.4765 6.24973V5.43967C5.4765 4.47678 6.25832 3.68964 7.21472 3.68964C8.17112 3.68964 8.95294 4.47678 8.95294 5.43967V6.56306M12.4294 8.00012V2.75003C12.4294 1.77949 11.6476 1 10.6912 1C9.72722 1 8.953 1.78713 8.953 2.75003V5.84506M2 7.12164C2 8.08816 2.77823 8.87167 3.73822 8.87167C4.69821 8.87167 5.47644 8.08816 5.47644 7.12164V6.74718C5.47644 5.78067 4.69821 4.99715 3.73822 4.99715C2.77823 4.99715 2 5.78067 2 6.74718M2 7.12164V6.74718M2 7.12164V7.05991M2 6.74718V7.05991M9.19577 10.6899L8.35323 10.1855C7.53346 9.69642 7.29056 8.61889 7.81431 7.81647C8.30769 7.06755 9.29445 6.83829 10.0611 7.29681L12.4065 8.20622C13.2643 8.71823 13.6742 9.64292 13.6666 10.56C13.6438 13.1201 11.1921 15 8.55817 15H7.32092C4.38341 15 2 12.6004 2 9.64292V7.05991" stroke="black" stroke-opacity="0.83" stroke-width="1.5" stroke-linecap="round" stroke-linejoin="round"></path></svg> 