<?xml version="1.0" encoding="UTF-8"?> <svg xmlns="http://www.w3.org/2000/svg" width="131" height="30" viewBox="0 0 131 30" fill="none"> <path fill-rule="evenodd" clip-rule="evenodd" d="M101.354 4.66841C101.358 3.87551 101.978 3.20921 102.74 3.18304C103.502 3.15616 104.118 3.77719 104.115 4.57151C104.111 5.36512 103.492 6.0307 102.729 6.05758C101.966 6.08446 101.35 5.46202 101.354 4.66841ZM80.4188 4.17682C80.4224 3.3436 81.1039 2.64548 81.9425 2.61719C82.7788 2.5889 83.3563 3.24175 83.3534 4.07497C83.3497 4.90819 82.7665 5.60702 81.9279 5.6346C81.0915 5.6629 80.4152 5.00934 80.4188 4.17682ZM54.1228 9.39046C54.9992 9.39046 55.5025 10.1756 55.4145 11.3073C55.3126 12.6335 54.3214 14.1507 52.5992 15.3461C51.6981 12.8514 52.3694 9.39046 54.1228 9.39046ZM42.3992 27.403C41.4974 27.403 41.0203 26.5705 41.0203 25.6255C41.0203 23.0841 42.9345 21.7353 45.2952 20.5767C45.1861 26.1341 43.8639 27.403 42.3985 27.403M103.85 10.3849C103.85 8.89887 103.76 7.9058 102.761 7.9058C102.305 7.9058 102.085 7.99209 101.684 8.12224C102.038 13.1484 100.873 17.5741 99.4508 17.5741C97.5861 17.5741 98.5177 6.80168 94.5657 6.80168C90.9221 6.80168 90.3985 15.4012 89.9846 15.4012C89.7025 15.4012 89.6603 13.1442 89.6741 11.4219C89.8283 10.5964 89.909 9.85587 89.909 9.29285C89.909 8.49216 89.5752 7.10653 87.7105 7.7997C87.7766 13.9477 86.5119 17.6661 85.0894 17.6661C83.0035 17.6661 82.981 12.0896 82.981 10.5526C82.981 9.05236 83.0901 7.04641 80.8035 7.7608C80.4603 13.1258 79.0195 17.1731 78.1112 17.1731C76.7541 17.1731 77.0261 7.90721 74.0937 7.90721C71.4595 7.90721 70.6435 16.6829 70.0945 16.6829C69.1126 16.6829 70.4014 6.80168 66.5948 6.80168C64.5992 6.80168 63.8057 10.102 63.0239 13.7935C62.8719 14.51 62.7112 14.5312 62.6865 13.7242C62.6668 13.0347 62.6607 12.345 62.6683 11.6553C63.629 7.94399 62.4574 6.57251 60.6915 7.56204C61.2617 14.411 58.037 17.7587 55.5606 17.7587C54.6646 17.7587 53.9635 17.3881 53.437 16.8017C56.4043 15.0285 57.7243 12.9921 57.7243 11.0053C57.7243 8.84794 56.4545 7.60731 54.3425 7.60731C51.3985 7.60731 49.7519 10.5625 49.7519 13.0727C49.7519 14.4237 50.0115 15.5724 50.4377 16.5195C49.4268 16.9899 48.4726 17.3952 47.5846 17.7913C47.5097 15.2067 47.2086 12.4935 46.9803 9.98955C45.4145 9.57012 44.957 10.3043 44.8355 11.6645C44.5585 14.7654 43.3781 16.6921 42.3359 16.6921C41.5505 16.6921 41.0726 15.7613 41.0159 14.771C40.7243 9.8007 44.8661 8.41648 47.0319 9.13653C47.4814 8.0416 46.9883 7.25153 45.0348 7.25153C42.6654 7.25153 40.893 8.65556 39.5934 10.4543C38.7272 11.6553 37.7257 12.5076 36.3955 13.5367C36.429 13.2397 36.4457 12.944 36.4457 12.6526C36.4457 9.14572 34.4981 7.60731 32.6355 7.60731C31.0952 7.60731 30.1265 8.50914 29.5672 9.88841C29.4283 8.5049 29.1454 7.90721 28.3192 7.90721C27.9628 7.90721 27.4755 8.00482 26.9468 8.25309C27.1883 9.02619 27.2828 10.7393 27.2828 11.8675C27.2828 16.0845 26.0428 17.973 24.8501 17.973C23.4865 17.973 23.2697 12.9723 23.157 11.0272C22.9435 10.9472 22.7167 10.9062 22.4879 10.9062C21.2566 10.9062 21.0959 12.5203 20.7912 14.0043C20.4537 15.6481 19.4814 17.7177 18.0421 17.7177C17.1723 17.7177 16.6305 16.8986 16.5614 15.4295C16.4203 12.4482 18.965 8.91655 22.9468 10.015C23.469 8.82673 22.6486 7.92348 20.9977 7.92348C18.0865 7.92348 15.6814 10.0468 14.6312 12.5599C13.565 14.8616 11.7017 18.2447 7.90682 18.2447C5.22827 18.2447 3.17955 15.9699 3.17955 11.192C3.17955 7.07258 5.84282 3.16041 8.685 3.16041C10.6741 3.16041 11.1359 5.06663 10.9599 6.85543C11.9883 7.66177 13.6792 6.91414 13.6792 4.8997C13.6792 3.51195 12.5228 1.15941 8.79118 1.15941C4.17155 1.16012 0.0908203 5.64804 0.0908203 11.5478C0.0908203 17.2594 3.06537 20.6354 7.27627 20.6354C9.93227 20.6354 12.4399 19.1571 14.1708 16.4311C14.6043 18.8183 16.2726 19.8227 17.5235 19.8227C19.5483 19.8227 20.869 18.5453 21.5912 16.8166C22.0421 18.5495 22.9934 19.8298 24.5708 19.8298C25.6835 19.8298 26.5519 19.2802 27.205 18.3981C26.9454 24.4174 26.6181 28.2553 30.2668 27.4992C29.7039 25.7896 29.525 22.6725 29.525 19.8764C29.525 12.2233 30.8195 9.70451 32.4435 9.70451C33.6195 9.70451 33.9999 11.1651 33.9999 12.7248C33.9999 13.5594 33.9192 14.5185 33.7003 15.3857C31.7025 16.61 30.1112 17.5784 30.1112 18.8091C30.1112 19.7824 30.8508 19.8729 31.493 19.8729C33.0261 19.8729 34.8683 18.408 35.8872 15.6424C36.7781 15.1176 37.6712 14.515 38.5272 13.6959C38.4974 13.976 38.4814 14.2589 38.4814 14.5461C38.4814 17.2912 39.7155 18.9477 41.6835 18.9477C43.2246 18.9477 44.3817 17.8832 45.1963 16.2875C45.2486 17.207 45.2814 18.0544 45.2945 18.8338C42.1672 20.2421 38.7061 21.6751 38.7061 25.651C38.7061 27.7078 40.2305 29.2569 42.2159 29.2569C46.5737 29.2569 47.5657 24.776 47.6079 19.5702C49.0254 18.9697 50.0821 18.5078 51.301 17.92C52.3439 19.1917 53.7599 19.8298 55.061 19.8298C57.5192 19.8298 59.365 18.5594 60.8494 15.9848C61.1097 17.944 61.6334 19.8298 62.7017 19.8298C64.6508 19.8298 65.0443 9.8969 66.4945 9.8969C67.6057 9.8969 66.693 20.6432 69.6246 20.6432C72.1345 20.6432 72.6043 11.1863 73.8261 11.1863C74.6915 11.1863 74.7585 19.8305 77.4908 19.8305C78.8341 19.8305 80.2937 18.2581 81.0239 14.9577C81.3665 17.1526 82.5039 19.8312 84.7257 19.8312C86.0203 19.8312 87.1352 18.5523 87.9941 16.8548C88.2319 18.6018 88.7395 19.8305 89.7199 19.8305C92.2741 19.8305 92.1868 9.91882 94.2086 9.91882C95.7854 9.91882 95.2974 19.8305 99.0508 19.8305C100.838 19.8305 101.684 18.3472 102.188 16.4863C102.878 19.2236 103.995 19.8305 104.911 19.8305C105.493 19.8305 105.933 19.6317 106.508 18.9619C103.605 17.734 103.85 13.268 103.85 10.3857M130.638 11.3596C130.008 10.1282 128.678 9.59982 127.316 9.66207C126 9.7229 125.04 10.5391 124.308 11.5428C123.479 12.6781 122.898 13.9746 122.221 15.1968C121.569 16.3759 120.868 17.5303 119.929 18.5163C118.889 19.6105 117.58 20.4345 116.111 20.8681C116.79 21.3448 117.732 21.4523 118.544 21.482C119.46 21.516 120.389 21.4347 121.292 21.2769C122.942 20.989 124.723 20.426 125.941 19.2519C124.039 19.2759 122.504 18.0282 122.368 16.1489C123.593 17.5939 125.444 18.1499 127.297 17.6364C128.921 17.1858 130.225 15.9346 130.752 14.3763C131.084 13.3861 131.117 12.311 130.638 11.3596ZM130.578 9.99238C129.96 7.98997 128.708 6.23441 127.045 4.74621C125.249 3.14768 123.118 1.93534 120.881 1.02077C120.701 0.947611 120.52 0.876168 120.338 0.806458L120.337 0.806458C117.584 4.02051 108.048 6.42043 108.048 13.159C108.048 15.7945 109.758 18.2581 112.266 19.2462C113.824 19.7618 115.504 19.6657 117.001 19.0008C118.448 18.3592 119.55 17.2289 120.438 15.9671C121.373 14.6373 122.087 13.176 122.977 11.8166C123.804 10.5554 124.862 9.29568 126.43 8.9399C127.852 8.61736 129.537 8.97738 130.578 9.99238Z" fill="#808080"></path> </svg> 