<?xml version="1.0" encoding="UTF-8"?> <svg xmlns="http://www.w3.org/2000/svg" width="105" height="27" viewBox="0 0 105 27" fill="none"> <path d="M33.6295 20.9789L34.9367 17.9428C36.3494 18.997 38.2259 19.5452 40.0813 19.5452C41.4518 19.5452 42.3163 19.0181 42.3163 18.2169C42.2952 15.9819 34.1145 17.7319 34.0512 12.1235C34.0301 9.27713 36.5602 7.08436 40.1446 7.08436C42.2741 7.08436 44.4036 7.61147 45.9217 8.81327L44.6988 11.9127C43.3072 11.0271 41.5783 10.3946 39.9337 10.3946C38.8163 10.3946 38.0783 10.9217 38.0783 11.5964C38.0994 13.7892 46.3434 12.5874 46.4277 17.9428C46.4277 20.8524 43.9608 22.8976 40.4187 22.8976C37.8253 22.8976 35.4428 22.2862 33.6295 20.9789ZM83.7892 16.8464C83.1355 17.985 81.9126 18.7651 80.5 18.7651C78.4126 18.7651 76.7259 17.0783 76.7259 14.991C76.7259 12.9036 78.4126 11.2169 80.5 11.2169C81.9126 11.2169 83.1355 11.997 83.7892 13.1356L87.3946 11.1326C86.0452 8.72894 83.4518 7.08436 80.5 7.08436C76.1355 7.08436 72.5934 10.6265 72.5934 14.991C72.5934 19.3554 76.1355 22.8976 80.5 22.8976C83.4729 22.8976 86.0452 21.2741 87.3946 18.8494L83.7892 16.8464ZM48.241 0.52713H52.753V22.6024H48.241V0.52713ZM89.1657 0.52713V22.6024H93.6777V15.9819L99.0331 22.6024H104.81L98 14.738L104.304 7.40062H98.7801L93.6777 13.494V0.52713H89.1657ZM66.1626 16.8886C65.509 17.9639 64.1596 18.7651 62.6416 18.7651C60.5542 18.7651 58.8675 17.0783 58.8675 14.991C58.8675 12.9036 60.5542 11.2169 62.6416 11.2169C64.1596 11.2169 65.509 12.0603 66.1626 13.1566V16.8886ZM66.1626 7.40062V9.19279C65.4247 7.94882 63.5904 7.08436 61.6717 7.08436C57.7078 7.08436 54.5873 10.5844 54.5873 14.9699C54.5873 19.3554 57.7078 22.8976 61.6717 22.8976C63.5904 22.8976 65.4247 22.0332 66.1626 20.7892V22.5813H70.6747V7.40062H66.1626Z" fill="#808080"></path> <path d="M5.73497 16.8675C5.73497 18.4066 4.49099 19.6506 2.95183 19.6506C1.41268 19.6506 0.168701 18.4066 0.168701 16.8675C0.168701 15.3283 1.41268 14.0844 2.95183 14.0844H5.73497V16.8675ZM7.12653 16.8675C7.12653 15.3283 8.37051 14.0844 9.90967 14.0844C11.4488 14.0844 12.6928 15.3283 12.6928 16.8675V23.8253C12.6928 25.3645 11.4488 26.6084 9.90967 26.6084C8.37051 26.6084 7.12653 25.3645 7.12653 23.8253V16.8675Z" fill="#808080"></path> <path d="M9.90963 5.69276C8.37047 5.69276 7.1265 4.44878 7.1265 2.90963C7.1265 1.37047 8.37047 0.126495 9.90963 0.126495C11.4488 0.126495 12.6928 1.37047 12.6928 2.90963V5.69276H9.90963ZM9.90963 7.10541C11.4488 7.10541 12.6928 8.34939 12.6928 9.88854C12.6928 11.4277 11.4488 12.6717 9.90963 12.6717H2.93072C1.39156 12.6717 0.147583 11.4277 0.147583 9.88854C0.147583 8.34939 1.39156 7.10541 2.93072 7.10541H9.90963Z" fill="#808080"></path> <path d="M21.0632 9.88854C21.0632 8.34939 22.3072 7.10541 23.8463 7.10541C25.3855 7.10541 26.6294 8.34939 26.6294 9.88854C26.6294 11.4277 25.3855 12.6717 23.8463 12.6717H21.0632V9.88854ZM19.6716 9.88854C19.6716 11.4277 18.4276 12.6717 16.8885 12.6717C15.3493 12.6717 14.1053 11.4277 14.1053 9.88854V2.90963C14.1053 1.37047 15.3493 0.126495 16.8885 0.126495C18.4276 0.126495 19.6716 1.37047 19.6716 2.90963V9.88854Z" fill="#808080"></path> <path d="M16.8885 21.0422C18.4276 21.0422 19.6716 22.2862 19.6716 23.8253C19.6716 25.3645 18.4276 26.6084 16.8885 26.6084C15.3493 26.6084 14.1053 25.3645 14.1053 23.8253V21.0422H16.8885ZM16.8885 19.6506C15.3493 19.6506 14.1053 18.4066 14.1053 16.8675C14.1053 15.3283 15.3493 14.0844 16.8885 14.0844H23.8674C25.4066 14.0844 26.6505 15.3283 26.6505 16.8675C26.6505 18.4066 25.4066 19.6506 23.8674 19.6506H16.8885Z" fill="#808080"></path> </svg> 