<?xml version="1.0" encoding="UTF-8"?> <svg xmlns="http://www.w3.org/2000/svg" width="95" height="25" viewBox="0 0 95 25" fill="none"> <g clip-path="url(#clip0_8747_17229)"> <path d="M10.4536 0H0V25L10.4536 0Z" fill="#808080"></path> <path d="M17.8085 0H28.2484V25L17.8085 0Z" fill="#808080"></path> <path d="M14.131 9.21411L20.7845 25H16.4192L14.4306 19.9741H9.5614L14.131 9.21411Z" fill="#808080"></path> <path d="M45.3026 15.8984L46.5352 19.4329C46.5761 19.5214 46.6373 19.5623 46.7463 19.5623H49.1162C49.2456 19.5623 49.2661 19.501 49.2456 19.3716L44.3491 5.77176C44.3287 5.6628 44.3083 5.64236 44.1993 5.64236H41.2573C41.1756 5.64236 41.1279 5.70366 41.1279 5.79219C41.0871 6.50725 41.0258 6.72518 40.9373 6.93629L36.572 19.3512C36.5515 19.501 36.5992 19.5623 36.7218 19.5623H38.8397C38.9691 19.5623 39.0304 19.5214 39.0781 19.392L40.2426 15.8984H45.3026ZM40.9168 13.5898C41.557 11.6557 42.4014 9.17682 42.7419 7.76032H42.7624C43.1846 9.24492 44.1789 12.1869 44.6284 13.5898H40.9168Z" fill="#808080"></path> <path d="M55.5405 19.7734C56.814 19.7734 58.1692 19.5418 59.5449 18.9493C59.6538 18.9085 59.6742 18.8608 59.6742 18.7587C59.6334 18.3773 59.5857 17.8257 59.5857 17.4034V4.6004C59.5857 4.51868 59.5857 4.47781 59.4836 4.47781H57.1749C57.0864 4.47781 57.0455 4.51868 57.0455 4.62764V8.96569C56.6846 8.92483 56.4326 8.9044 56.133 8.9044C52.4078 8.9044 50.1196 11.3629 50.1196 14.4342C50.1196 17.9959 52.4691 19.7734 55.5405 19.7734ZM57.0455 17.4034C56.6642 17.526 56.2419 17.5737 55.8129 17.5737C54.124 17.5737 52.7415 16.6203 52.7415 14.3048C52.7415 12.255 54.1648 11.0428 56.0513 11.0428C56.4326 11.0428 56.7663 11.0836 57.0455 11.1926V17.4034Z" fill="#808080"></path> <path d="M67.0392 8.90442C63.8589 8.90442 61.8907 11.3424 61.8907 14.3525C61.8907 17.0425 63.4571 19.7734 66.9915 19.7734C69.9812 19.7734 72.0787 17.5737 72.0787 14.2844C72.0787 11.3833 70.3013 8.90442 67.0392 8.90442ZM66.9098 11.0428C68.7077 11.0428 69.4704 12.5887 69.4704 14.3525C69.4704 16.5318 68.3468 17.6146 67.0392 17.6146C65.4252 17.6146 64.4718 16.2594 64.4718 14.3049C64.4718 12.2959 65.4865 11.0428 66.9098 11.0428Z" fill="#808080"></path> <path d="M74.4656 4.47781C74.3771 4.47781 74.3158 4.51868 74.3158 4.62764V19.1196C74.3158 19.1809 74.3771 19.2899 74.4656 19.3103C75.4803 19.6236 76.5427 19.7734 77.6391 19.7734C80.7786 19.7734 83.8296 17.8257 83.8296 13.903C83.8296 11.0632 81.8819 8.9044 78.8309 8.9044C78.1295 8.9044 77.4757 9.01336 76.9036 9.20405L76.8764 4.64807C76.8764 4.49824 76.8355 4.47781 76.6857 4.47781H74.4656ZM81.2213 14.1618C81.2213 16.5113 79.6141 17.6146 77.8775 17.6146C77.5166 17.6146 77.1965 17.5941 76.9036 17.5056V11.322C77.2373 11.1926 77.6391 11.0836 78.3814 11.0836C80.0567 11.0836 81.2213 12.146 81.2213 14.1618Z" fill="#808080"></path> <path d="M92.4452 14.9246C93.4804 14.9246 94.3316 14.9041 94.6245 14.836C94.7334 14.8156 94.7743 14.7748 94.7947 14.6862C94.856 14.4547 94.8833 13.9712 94.8833 13.3787C94.8833 11.3629 93.6711 8.90442 90.5384 8.90442C87.3376 8.90442 85.5602 11.5127 85.5602 14.4547C85.5602 17.063 86.9358 19.7734 90.7904 19.7734C92.2341 19.7734 93.1671 19.5418 93.9707 19.1605C94.0524 19.1196 94.0933 19.0515 94.0933 18.9289V17.1651C94.0933 17.063 94.032 17.0425 93.9707 17.0834C93.1671 17.4239 92.2954 17.5941 91.342 17.5941C89.1832 17.5941 88.2025 16.4024 88.1412 14.9246H92.4452ZM88.1412 13.0995C88.3115 12.0643 88.9652 10.9406 90.4294 10.9406C92.0434 10.9406 92.4656 12.2959 92.4656 12.9088C92.4656 12.9292 92.4656 13.0177 92.4656 13.079C92.3771 13.0995 92.1047 13.0995 91.3011 13.0995H88.1412Z" fill="#808080"></path> </g> <defs> <clipPath id="clip0_8747_17229"> <rect width="94.8833" height="25" fill="white"></rect> </clipPath> </defs> </svg> 