<?xml version="1.0" encoding="UTF-8"?> <svg xmlns="http://www.w3.org/2000/svg" width="83" height="35" viewBox="0 0 83 35" fill="none"> <g clip-path="url(#clip0_8747_17248)"> <path d="M76.7921 23.8914C76.57 23.8914 76.4171 23.7375 76.4171 23.5161V12.5191H72.6814C72.4592 12.5191 72.3061 12.3658 72.3061 12.1442V10.6273C72.3061 10.4051 72.4593 10.2515 72.6814 10.2515H82.6253C82.8472 10.2515 82.9999 10.4053 82.9999 10.6273V12.1441C82.9999 12.3656 82.8472 12.5191 82.6253 12.5191H78.8898V23.5159C78.8898 23.7375 78.7361 23.8914 78.5148 23.8914H76.7921ZM48.1756 18.4011L46.2146 12.7752L44.236 18.4011H48.1756ZM52.525 23.447C52.6107 23.6693 52.474 23.8914 52.2352 23.8914H50.4617C50.2057 23.8914 50.052 23.7724 49.9665 23.5326L48.9606 20.6352H43.452L42.4444 23.5326C42.3598 23.7725 42.2057 23.8914 41.9504 23.8914H40.2795C40.0574 23.8914 39.9036 23.6692 39.989 23.447L44.6111 10.5932C44.6966 10.3537 44.8501 10.252 45.1054 10.252H47.3909C47.647 10.252 47.8176 10.3538 47.9028 10.5932L52.525 23.447ZM65.7736 22.0497C66.8647 22.0497 67.5985 21.522 68.1956 20.618L65.433 17.651C64.375 18.2482 63.6924 18.8442 63.6924 20.038C63.6926 21.2146 64.6473 22.0497 65.7736 22.0497ZM66.541 12.0586C65.6544 12.0586 65.1427 12.6218 65.1427 13.3718C65.1427 13.9514 65.4491 14.463 66.1487 15.2134C67.3595 14.5139 67.8715 14.0879 67.8715 13.3379C67.8715 12.6383 67.4282 12.0586 66.541 12.0586ZM74.0974 23.4139C74.3189 23.6528 74.1827 23.8914 73.909 23.8914H71.743C71.4531 23.8914 71.2996 23.8228 71.1121 23.601L69.8159 22.1694C68.9462 23.3289 67.7342 24.1982 65.7221 24.1982C63.2321 24.1982 61.2701 22.6979 61.2701 20.1239C61.2701 18.1456 62.3281 17.0883 63.9316 16.2019C63.1464 15.2983 62.7889 14.3435 62.7889 13.5085C62.7889 11.3938 64.2726 9.94485 66.5066 9.94485C68.7921 9.94485 70.191 11.2923 70.191 13.2866C70.191 14.9916 68.9632 15.9455 67.6665 16.6621L69.5771 18.7258L70.6514 16.8496C70.7877 16.6283 70.9413 16.5428 71.2138 16.5428H72.8679C73.1412 16.5428 73.2947 16.7308 73.1247 17.0205L71.2141 20.2935L74.0974 23.4139ZM57.076 23.8914C57.2977 23.8914 57.452 23.7375 57.452 23.5161V12.5191H61.1867C61.4084 12.5191 61.5617 12.3658 61.5617 12.1442V10.6273C61.5617 10.4051 61.4084 10.2515 61.1867 10.2515H51.2428C51.0207 10.2515 50.8675 10.4053 50.8675 10.6273V12.1441C50.8675 12.3656 51.0208 12.5191 51.2428 12.5191H54.9774V23.5159C54.9774 23.7375 55.1314 23.8914 55.3529 23.8914H57.076Z" fill="#808080"></path> <path d="M6.59911 30.5247C9.49165 32.7637 13.1223 34.1091 17.0613 34.1091C21.3719 34.1091 25.3017 32.5087 28.3009 29.8816C28.3372 29.8495 28.3193 29.8282 28.2834 29.8495C26.9376 30.7483 23.1019 32.7103 17.0615 32.7103C11.8121 32.7103 8.49475 31.5391 6.62135 30.4934C6.58551 30.4757 6.57223 30.5026 6.59911 30.5247ZM18.2194 31.3964C22.418 31.3964 27.0316 30.2519 29.791 27.9864C30.5461 27.3691 31.2653 26.5475 31.9095 25.4434C32.2803 24.8081 32.643 24.0534 32.9384 23.3115C32.9515 23.2753 32.9292 23.2577 32.902 23.2984C30.336 27.0745 22.9054 29.4298 15.2329 29.4298C9.8097 29.4298 3.97444 27.6956 1.68989 24.3842C1.6674 24.3536 1.64491 24.3667 1.6586 24.4019C3.78682 28.9253 10.2433 31.3964 18.2194 31.3964ZM13.6322 23.8922C4.90006 23.8922 0.782688 19.8253 0.0358026 17.0499C0.0265921 17.0098 0.00012207 17.0186 0.00012207 17.0547C0.00012207 17.989 0.0936383 19.1948 0.254533 19.9951C0.331287 20.3847 0.648346 20.996 1.11319 21.4834C3.22764 23.6874 8.49923 26.7756 17.6288 26.7756C30.0675 26.7756 32.9115 22.6322 33.4923 21.2696C33.9076 20.2951 34.1228 18.5341 34.1228 17.0548C34.1228 16.6968 34.1138 16.4108 34.1003 16.1301C34.1003 16.0846 34.0739 16.0808 34.0648 16.1252C33.4432 19.4594 22.8158 23.8922 13.6322 23.8922ZM1.64491 9.73833C1.14455 10.7313 0.58993 12.4066 0.425052 13.2736C0.352779 13.6451 0.383563 13.8235 0.513839 14.1007C1.56044 16.3213 6.85435 19.8743 19.203 19.8743C26.7366 19.8743 32.5888 18.0234 33.5369 14.646C33.7115 14.0242 33.7209 13.3678 33.4966 12.4832C33.246 11.4948 32.7767 10.3422 32.3795 9.5328C32.3664 9.50641 32.3432 9.51031 32.3479 9.54151C32.4955 13.9714 20.142 16.8264 13.9089 16.8264C7.15739 16.8264 1.52476 14.1364 1.52476 10.7398C1.52476 10.4134 1.5923 10.087 1.67661 9.7473C1.68507 9.71626 1.65852 9.71112 1.64491 9.73833ZM28.3285 4.29937C28.4002 4.41173 28.4359 4.53163 28.4359 4.69302C28.4359 6.58791 22.6365 9.94005 13.4046 9.94005C6.62135 9.94005 5.35137 7.42366 5.35137 5.82335C5.35137 5.2513 5.57077 4.66597 6.05395 4.07152C6.08034 4.03617 6.05793 4.02256 6.02748 4.04886C5.14625 4.79567 4.33655 5.63598 3.62626 6.5431C3.28688 6.9721 3.0762 7.35214 3.0762 7.57983C3.0762 10.8962 11.3919 13.3007 19.1674 13.3007C27.4522 13.3007 31.1497 10.5962 31.1497 8.21934C31.1497 7.36989 30.8191 6.87402 29.9732 5.91263C29.4241 5.28723 28.9048 4.77799 28.355 4.27672C28.3285 4.25482 28.31 4.27266 28.3285 4.29937ZM25.7886 2.4049C23.2317 0.872299 20.2625 0.000366211 17.0615 0.000366211C13.8381 0.000366211 10.7795 0.902752 8.21337 2.47593C7.44367 2.94965 7.01044 3.32928 7.01044 3.81727C7.01044 5.25578 10.3723 6.80249 16.3367 6.80249C22.2391 6.80249 26.8172 5.10833 26.8172 3.47756C26.8172 3.08831 26.477 2.81598 25.7886 2.4049Z" fill="#808080"></path> </g> <defs> <clipPath id="clip0_8747_17248"> <rect width="83" height="34.1106" fill="white"></rect> </clipPath> </defs> </svg> 