<?xml version="1.0" encoding="UTF-8"?> <svg xmlns="http://www.w3.org/2000/svg" width="99" height="20" viewBox="0 0 99 20" fill="none"> <g clip-path="url(#clip0_8747_17270)"> <path fill-rule="evenodd" clip-rule="evenodd" d="M96.5047 14.8968C96.5646 15.5793 97.1105 16.448 98.0563 16.448H98.6097C98.8241 16.448 99 16.2722 99 16.0575V3.88764H98.9976C98.9864 3.68262 98.817 3.51841 98.6097 3.51841H96.895C96.6877 3.51841 96.5183 3.68262 96.5069 3.88764H96.5047V4.87652C95.4542 3.58156 93.7979 3.04407 92.137 3.04407C88.3614 3.04407 85.3009 6.10697 85.3009 9.88548C85.3009 13.6642 88.3614 16.7272 92.137 16.7272V16.7276C93.7979 16.7276 95.6079 16.0827 96.5044 14.8953L96.5047 14.8968ZM92.1436 14.3327C89.7424 14.3327 87.7957 12.3419 87.7957 9.88549C87.7957 7.42957 89.7424 5.43853 92.1436 5.43853C94.5446 5.43853 96.4911 7.42957 96.4911 9.88549C96.4911 12.3419 94.5446 14.3327 92.1436 14.3327Z" fill="#808080"></path> <path fill-rule="evenodd" clip-rule="evenodd" d="M83.1331 15.3154L83.1324 9.01801H83.1326C83.1326 5.46821 80.8948 3.07346 77.3264 3.07346C75.623 3.07346 74.2266 4.05922 73.7335 4.90601C73.6269 4.24388 73.2756 3.5479 72.1863 3.5479H71.6311C71.4164 3.5479 71.241 3.72385 71.241 3.93853V14.9273C71.241 14.9276 71.241 14.9285 71.241 14.929V16.1094H71.2431C71.2544 16.3141 71.424 16.4786 71.6313 16.4786H73.346C73.3722 16.4786 73.398 16.4754 73.4228 16.4705C73.4342 16.4684 73.4448 16.4639 73.4558 16.4607C73.4686 16.4569 73.4818 16.4538 73.4939 16.4489C73.5093 16.4425 73.523 16.434 73.5373 16.4261C73.5442 16.4218 73.5514 16.4189 73.5582 16.4143C73.5753 16.4033 73.591 16.3901 73.6062 16.3765C73.6086 16.3739 73.6116 16.3723 73.6141 16.3701C73.6311 16.3535 73.6467 16.3353 73.6605 16.3164C73.6606 16.3161 73.6606 16.3161 73.6606 16.3161C73.7036 16.2571 73.7296 16.1861 73.7339 16.1094H73.7361V8.92039C73.7361 7.01388 75.2806 5.46821 77.1858 5.46821C79.0909 5.46821 80.6354 7.01388 80.6354 8.92039L80.637 14.9294L80.6374 14.9273C80.6374 14.9327 80.6382 14.9381 80.6382 14.9439V16.1094H80.6405C80.6518 16.3141 80.8212 16.4786 81.0285 16.4786H82.7433C82.7696 16.4786 82.7953 16.4754 82.8201 16.4705C82.8302 16.4687 82.8396 16.4646 82.8495 16.4618C82.8636 16.4578 82.8779 16.4542 82.8915 16.4489C82.9054 16.443 82.9182 16.4349 82.9315 16.4275C82.9396 16.4229 82.9481 16.4196 82.9559 16.4143C82.9717 16.404 82.9862 16.3914 83.0004 16.379C83.004 16.3756 83.0081 16.3731 83.0116 16.3697C83.0278 16.354 83.0423 16.3371 83.0555 16.3194C83.0564 16.318 83.0575 16.3169 83.0585 16.3156C83.1008 16.2571 83.1266 16.1866 83.1311 16.1105C83.1311 16.11 83.1313 16.1094 83.1313 16.1094H83.1335V15.3156L83.1331 15.3154Z" fill="#808080"></path> <path fill-rule="evenodd" clip-rule="evenodd" d="M65.2757 14.8968C65.3357 15.5793 65.8816 16.448 66.8273 16.448H67.3807C67.5952 16.448 67.7707 16.2722 67.7707 16.0575V3.88764H67.7685C67.7574 3.68262 67.5878 3.51841 67.3807 3.51841H65.666C65.4587 3.51841 65.2893 3.68262 65.2777 3.88764H65.2757V4.87652C64.225 3.58156 62.5688 3.04407 60.9077 3.04407C57.1324 3.04407 54.0719 6.10697 54.0719 9.88548C54.0719 13.6642 57.1324 16.7272 60.9077 16.7272V16.7276C62.5688 16.7276 64.379 16.0827 65.2755 14.8953L65.2757 14.8968ZM60.9144 14.3327C58.5134 14.3327 56.5668 12.3419 56.5668 9.88549C56.5668 7.42957 58.5134 5.43853 60.9144 5.43853C63.3156 5.43853 65.2619 7.42957 65.2619 9.88549C65.2619 12.3419 63.3156 14.3327 60.9144 14.3327Z" fill="#808080"></path> <path fill-rule="evenodd" clip-rule="evenodd" d="M43.9318 13.1538C45.0764 13.9474 46.3259 14.3328 47.5266 14.3328C48.6704 14.3328 49.853 13.7394 49.853 12.7064C49.853 11.3274 47.2762 11.1128 45.6572 10.5621C44.0379 10.0115 42.6433 8.87312 42.6433 7.02967C42.6433 4.20888 45.1548 3.04385 47.4988 3.04385C48.984 3.04385 50.5164 3.53398 51.5099 4.23609C51.852 4.49554 51.6436 4.79341 51.6436 4.79341L50.6953 6.14892C50.5887 6.3016 50.4023 6.43351 50.1347 6.26825C49.8673 6.10311 48.9288 5.4384 47.4988 5.4384C46.0686 5.4384 45.2071 6.09938 45.2071 6.91864C45.2071 7.90107 46.3268 8.21007 47.6383 8.54492C49.9237 9.16144 52.4168 9.90247 52.4168 12.7064C52.4168 15.1918 50.0939 16.7277 47.5266 16.7277C45.581 16.7277 43.9247 16.1726 42.5354 15.1524C42.246 14.8626 42.4482 14.5935 42.4482 14.5935L43.3919 13.2448C43.5838 12.9927 43.826 13.0806 43.9318 13.1538Z" fill="#808080"></path> <path fill-rule="evenodd" clip-rule="evenodd" d="M37.3401 14.8968C37.4001 15.5793 37.946 16.448 38.8917 16.448H39.4451C39.6596 16.448 39.8354 16.2722 39.8354 16.0575V3.88764H39.833C39.8218 3.68262 39.6524 3.51841 39.4451 3.51841H37.7304C37.5231 3.51841 37.3537 3.68262 37.3422 3.88764H37.3401V4.87652C36.2896 3.58156 34.6332 3.04407 32.9723 3.04407C29.1969 3.04407 26.1364 6.10697 26.1364 9.88548C26.1364 13.6642 29.1969 16.7272 32.9723 16.7272V16.7276C34.6332 16.7276 36.4433 16.0827 37.3399 14.8953L37.3401 14.8968ZM32.979 14.3327C30.5779 14.3327 28.6313 12.3419 28.6313 9.88549C28.6313 7.42957 30.5779 5.43853 32.979 5.43853C35.3801 5.43853 37.3264 7.42957 37.3264 9.88549C37.3264 12.3419 35.3801 14.3327 32.979 14.3327Z" fill="#808080"></path> <path fill-rule="evenodd" clip-rule="evenodd" d="M16.5525 10.3508C14.0118 10.3508 11.9522 12.4105 11.9522 14.9514C11.9522 17.4921 14.0118 19.5518 16.5525 19.5518C19.0932 19.5518 21.1528 17.4921 21.1528 14.9514C21.1528 12.4105 19.0932 10.3508 16.5525 10.3508ZM4.60036 10.3512C2.05968 10.3512 0 12.4105 0 14.9514C0 17.4921 2.05968 19.5518 4.60036 19.5518C7.14116 19.5518 9.20093 17.4921 9.20093 14.9514C9.20093 12.4105 7.14116 10.3512 4.60036 10.3512ZM15.1767 4.60026C15.1767 7.14116 13.1171 9.20104 10.5765 9.20104C8.03564 9.20104 5.97607 7.14116 5.97607 4.60026C5.97607 2.05987 8.03564 0 10.5765 0C13.1171 0 15.1767 2.05987 15.1767 4.60026Z" fill="#808080"></path> </g> <defs> <clipPath id="clip0_8747_17270"> <rect width="99" height="19.602" fill="white"></rect> </clipPath> </defs> </svg> 