<?xml version="1.0" encoding="UTF-8"?> <svg xmlns="http://www.w3.org/2000/svg" width="56" height="56" viewBox="0 0 56 56" fill="none"><path d="M0 28C0 12.536 12.536 0 28 0V0C43.464 0 56 12.536 56 28V28C56 43.464 43.464 56 28 56V56C12.536 56 0 43.464 0 28V28Z" fill="#FF8F60"></path><path fill-rule="evenodd" clip-rule="evenodd" d="M21.1526 20.7644C21 21.0639 21 21.4559 21 22.24V34.56C21 35.3441 21 35.7361 21.1526 36.0356C21.2868 36.299 21.501 36.5132 21.7644 36.6474C22.0639 36.8 22.4559 36.8 23.24 36.8H23.4267C24.2108 36.8 24.6028 36.8 24.9023 36.6474C25.1657 36.5132 25.3799 36.299 25.5141 36.0356C25.6667 35.7361 25.6667 35.3441 25.6667 34.56V22.24C25.6667 21.4559 25.6667 21.0639 25.5141 20.7644C25.3799 20.501 25.1657 20.2868 24.9023 20.1526C24.6028 20 24.2108 20 23.4267 20H23.24C22.4559 20 22.0639 20 21.7644 20.1526C21.501 20.2868 21.2868 20.501 21.1526 20.7644ZM29.5526 20.7644C29.4 21.0639 29.4 21.4559 29.4 22.24V34.56C29.4 35.3441 29.4 35.7361 29.5526 36.0356C29.6868 36.299 29.901 36.5132 30.1644 36.6474C30.4639 36.8 30.8559 36.8 31.64 36.8H31.8267C32.6108 36.8 33.0028 36.8 33.3023 36.6474C33.5657 36.5132 33.7799 36.299 33.9141 36.0356C34.0667 35.7361 34.0667 35.3441 34.0667 34.56V22.24C34.0667 21.4559 34.0667 21.0639 33.9141 20.7644C33.7799 20.501 33.5657 20.2868 33.3023 20.1526C33.0028 20 32.6108 20 31.8267 20H31.64C30.8559 20 30.4639 20 30.1644 20.1526C29.901 20.2868 29.6868 20.501 29.5526 20.7644Z" fill="black" fill-opacity="0.83"></path></svg> 