<?xml version="1.0" encoding="UTF-8"?> <svg xmlns="http://www.w3.org/2000/svg" width="18" height="18" viewBox="0 0 18 18" fill="none"> <g clip-path="url(#clip0_1218_6831)"> <path d="M13.207 12.6797C13.207 12.4297 13.0898 12.2305 12.8555 12.082C11.3477 11.1836 9.60156 10.7344 7.61719 10.7344C6.57813 10.7344 5.45703 10.8672 4.25391 11.1328C3.92578 11.2031 3.76172 11.4063 3.76172 11.7422C3.76172 11.8984 3.81445 12.0332 3.91992 12.1465C4.02539 12.2598 4.16406 12.3164 4.33594 12.3164C4.375 12.3164 4.51953 12.2852 4.76953 12.2227C5.80078 12.0117 6.75 11.9062 7.61719 11.9062C9.38281 11.9062 10.9336 12.3086 12.2695 13.1133C12.418 13.1992 12.5469 13.2422 12.6562 13.2422C12.8047 13.2422 12.9336 13.1895 13.043 13.084C13.1523 12.9785 13.207 12.8438 13.207 12.6797ZM14.332 10.1602C14.332 9.84766 14.1953 9.60938 13.9219 9.44531C12.0703 8.34375 9.92969 7.79297 7.5 7.79297C6.30469 7.79297 5.12109 7.95703 3.94922 8.28516C3.57422 8.38672 3.38672 8.63672 3.38672 9.03516C3.38672 9.23047 3.45508 9.39648 3.5918 9.5332C3.72852 9.66992 3.89453 9.73828 4.08984 9.73828C4.14453 9.73828 4.28906 9.70703 4.52344 9.64453C5.47656 9.38672 6.45703 9.25781 7.46484 9.25781C9.64453 9.25781 11.5508 9.74219 13.1836 10.7109C13.3711 10.8125 13.5195 10.8633 13.6289 10.8633C13.8242 10.8633 13.9902 10.7949 14.127 10.6582C14.2637 10.5215 14.332 10.3555 14.332 10.1602ZM15.5977 7.25391C15.5977 6.88672 15.4414 6.61328 15.1289 6.43359C14.1445 5.86328 13 5.43164 11.6953 5.13867C10.3906 4.8457 9.05078 4.69922 7.67578 4.69922C6.08203 4.69922 4.66016 4.88281 3.41016 5.25C3.23047 5.30469 3.08008 5.4043 2.95898 5.54883C2.83789 5.69336 2.77734 5.88281 2.77734 6.11719C2.77734 6.35937 2.85742 6.5625 3.01758 6.72656C3.17773 6.89062 3.37891 6.97266 3.62109 6.97266C3.70703 6.97266 3.86328 6.94141 4.08984 6.87891C5.12891 6.58984 6.32812 6.44531 7.6875 6.44531C8.92969 6.44531 10.1387 6.57813 11.3145 6.84375C12.4902 7.10937 13.4805 7.48047 14.2852 7.95703C14.4492 8.05078 14.6055 8.09766 14.7539 8.09766C14.9805 8.09766 15.1777 8.01758 15.3457 7.85742C15.5137 7.69727 15.5977 7.49609 15.5977 7.25391ZM18 9C18 10.6328 17.5977 12.1387 16.793 13.5176C15.9883 14.8965 14.8965 15.9883 13.5176 16.793C12.1387 17.5977 10.6328 18 9 18C7.36719 18 5.86133 17.5977 4.48242 16.793C3.10352 15.9883 2.01172 14.8965 1.20703 13.5176C0.402344 12.1387 0 10.6328 0 9C0 7.36719 0.402344 5.86133 1.20703 4.48242C2.01172 3.10352 3.10352 2.01172 4.48242 1.20703C5.86133 0.402344 7.36719 0 9 0C10.6328 0 12.1387 0.402344 13.5176 1.20703C14.8965 2.01172 15.9883 3.10352 16.793 4.48242C17.5977 5.86133 18 7.36719 18 9Z" fill="#1A1A1A"></path> </g> <defs> <clipPath id="clip0_1218_6831"> <rect width="18" height="18" fill="white"></rect> </clipPath> </defs> </svg> 