<?xml version="1.0" encoding="UTF-8"?> <svg xmlns="http://www.w3.org/2000/svg" width="34" height="34" viewBox="0 0 34 34" fill="none"> <path d="M7.56502 1.91891e-05C6.57094 -0.00222226 5.58621 0.191922 4.66737 0.571305C3.74853 0.950688 2.91368 1.50784 2.21076 2.21076C1.50784 2.91368 0.950688 3.74853 0.571305 4.66737C0.191922 5.58621 -0.00222226 6.57094 1.91891e-05 7.56502V26.435C-0.00222226 27.4291 0.191922 28.4138 0.571305 29.3327C0.950688 30.2515 1.50784 31.0864 2.21076 31.7893C2.91368 32.4922 3.74853 33.0494 4.66737 33.4287C5.58621 33.8081 6.57094 34.0023 7.56502 34H26.435C27.4291 34.0023 28.4138 33.8081 29.3327 33.4287C30.2515 33.0494 31.0864 32.4922 31.7893 31.7893C32.4922 31.0864 33.0494 30.2515 33.4287 29.3327C33.8081 28.4138 34.0023 27.4291 34 26.435V7.56502C34.0023 6.57094 33.8081 5.58621 33.4287 4.66737C33.0494 3.74853 32.4922 2.91368 31.7893 2.21076C31.0864 1.50784 30.2515 0.950688 29.3327 0.571305C28.4138 0.191922 27.4291 -0.00222226 26.435 1.91891e-05H7.56502ZM16.8088 3.63802C20.1181 3.63802 23.1101 4.91585 25.3881 7.30294C27.1221 9.10494 28.0968 11.0132 28.5954 13.5249C28.7654 14.3608 28.7654 16.6416 28.6054 17.5823C28.0753 20.5721 26.436 23.2517 24.0154 25.0849C23.154 25.7366 21.046 26.8714 20.706 26.8714C20.5814 26.8714 20.57 26.7424 20.6267 26.2197C20.7287 25.381 20.8307 25.2068 21.3067 25.007C22.066 24.6897 23.358 23.7689 24.1514 22.9741C25.5345 21.5918 26.5175 19.8608 26.996 17.9648C27.2907 16.7974 27.2567 14.2021 26.928 13.0008C25.8967 9.18144 22.78 6.2121 18.9607 5.41877C17.85 5.1921 15.8327 5.1921 14.7107 5.41877C10.846 6.2121 7.65002 9.32877 6.67535 13.2501C6.41469 14.3154 6.41469 16.9108 6.67535 17.9761C7.32135 20.5714 8.99869 22.9514 11.1974 24.3681C11.628 24.6514 12.1494 24.9461 12.3647 25.0368C12.8407 25.2408 12.9427 25.4108 13.0334 26.2494C13.09 26.7594 13.0759 26.9068 12.954 26.9068C12.8747 26.9068 12.2967 26.6574 11.6847 26.3628L11.628 26.3203C8.12602 24.5976 5.88202 21.6821 5.06602 17.8033C4.86202 16.8031 4.82802 14.4146 5.02352 13.4966C5.53352 11.0316 6.50819 9.10494 8.12885 7.39927C10.4635 4.93852 13.4669 3.6366 16.8102 3.6366L16.8088 3.63802ZM16.9986 7.61885C17.578 7.62452 18.1362 7.67552 18.5654 7.76902C22.5094 8.64735 25.3088 12.597 24.7648 16.5155C24.5494 18.0937 24.0054 19.3914 23.0421 20.5955C22.5661 21.2047 21.4101 22.2247 21.2061 22.2247C21.1735 22.2247 21.1381 21.8394 21.1381 21.3704V20.5134L21.7274 19.8107C23.9488 17.1502 23.7901 13.4329 21.3648 10.9934C20.4241 10.0442 19.3361 9.48602 17.9308 9.22819C17.0241 9.06102 16.8314 9.06102 15.8794 9.21685C14.4344 9.45344 13.3153 10.013 12.3208 10.9962C9.8841 13.4102 9.72544 17.1474 11.9468 19.8107L12.5319 20.5134V21.3747C12.5319 21.8507 12.4936 22.236 12.4469 22.236C12.4044 22.236 12.0729 22.0094 11.7215 21.726L11.6734 21.7104C10.4947 20.7698 9.45202 19.1009 9.02135 17.4647C8.76069 16.4759 8.76069 14.5974 9.03269 13.6114C9.74669 10.9509 11.7074 8.88677 14.4274 7.91777C15.0082 7.71235 16.0339 7.6061 16.9986 7.61885ZM16.8144 11.8547C17.2536 11.8547 17.6928 11.9397 18.0101 12.1069C18.7147 12.4869 19.2433 13.1268 19.4834 13.8904C20.1408 16.1259 17.7721 18.0838 15.6301 17.0836H15.6089C14.6002 16.6147 14.0562 15.7293 14.0449 14.5761C14.0449 13.5377 14.6229 12.6339 15.6202 12.104C15.9375 11.9383 16.3753 11.8547 16.8144 11.8547ZM16.7989 18.5527C18.1985 18.547 19.2157 19.0471 19.5897 19.9269C19.8702 20.5842 19.7654 22.6639 19.2809 26.0214C18.9522 28.3674 18.7709 28.9595 18.3175 29.359C17.6942 29.9115 16.8102 30.0645 15.9715 29.767H15.9673C14.9529 29.4029 14.7348 28.9099 14.3183 26.0214C13.8352 22.6639 13.7289 20.5842 14.0094 19.9269C14.3806 19.0542 15.3893 18.5584 16.8003 18.5527H16.7989Z" fill="white"></path> </svg> 