<?xml version="1.0" encoding="UTF-8"?> <svg xmlns="http://www.w3.org/2000/svg" width="169" height="35" viewBox="0 0 169 35" fill="none"> <g clip-path="url(#clip0_222_1251)"> <path d="M24.9466 23.9505C24.9466 23.4783 24.7253 23.102 24.2826 22.8216C21.4345 21.1246 18.1363 20.276 14.388 20.276C12.4253 20.276 10.3077 20.5269 8.03516 21.0286C7.41536 21.1615 7.10547 21.5451 7.10547 22.1797C7.10547 22.4748 7.20508 22.7294 7.4043 22.9434C7.60352 23.1573 7.86545 23.2643 8.1901 23.2643C8.26389 23.2643 8.53689 23.2053 9.00911 23.0872C10.957 22.6888 12.75 22.4896 14.388 22.4896C17.7231 22.4896 20.6523 23.2496 23.1758 24.7695C23.4562 24.9319 23.6997 25.013 23.9062 25.013C24.1866 25.013 24.4301 24.9134 24.6367 24.7142C24.8433 24.515 24.9466 24.2604 24.9466 23.9505ZM27.0716 19.1914C27.0716 18.6011 26.8134 18.151 26.2969 17.8411C22.7995 15.7604 18.7561 14.7201 14.1667 14.7201C11.9089 14.7201 9.67318 15.0299 7.45964 15.6497C6.7513 15.8416 6.39714 16.3138 6.39714 17.0664C6.39714 17.4353 6.52626 17.7489 6.7845 18.0072C7.04275 18.2654 7.35634 18.3945 7.72526 18.3945C7.82856 18.3945 8.10156 18.3355 8.54427 18.2174C10.3446 17.7305 12.1966 17.487 14.1003 17.487C18.2174 17.487 21.8181 18.4019 24.9023 20.2318C25.2565 20.4236 25.5369 20.5195 25.7435 20.5195C26.1124 20.5195 26.426 20.3904 26.6842 20.1322C26.9425 19.8739 27.0716 19.5603 27.0716 19.1914ZM29.4622 13.7018C29.4622 13.0082 29.1671 12.4918 28.5768 12.1523C26.7174 11.0751 24.5556 10.2598 22.0911 9.70638C19.6267 9.15299 17.0959 8.8763 14.4987 8.8763C11.4883 8.8763 8.80252 9.22309 6.44141 9.91667C6.102 10.02 5.81792 10.2081 5.58919 10.4811C5.36046 10.7541 5.24609 11.112 5.24609 11.5547C5.24609 12.0122 5.39735 12.3958 5.69987 12.7057C6.00239 13.0156 6.38238 13.1706 6.83984 13.1706C7.00217 13.1706 7.29731 13.1115 7.72526 12.9935C9.68793 12.4475 11.9531 12.1745 14.5208 12.1745C16.8672 12.1745 19.1508 12.4253 21.3717 12.9271C23.5927 13.4288 25.4631 14.1298 26.9831 15.0299C27.293 15.207 27.5881 15.2956 27.8685 15.2956C28.2964 15.2956 28.6691 15.1443 28.9863 14.8418C29.3036 14.5393 29.4622 14.1593 29.4622 13.7018ZM34 17C34 20.0842 33.24 22.9286 31.7201 25.5332C30.2001 28.1378 28.1378 30.2001 25.5332 31.7201C22.9286 33.24 20.0842 34 17 34C13.9158 34 11.0714 33.24 8.4668 31.7201C5.8622 30.2001 3.79991 28.1378 2.27995 25.5332C0.759983 22.9286 0 20.0842 0 17C0 13.9158 0.759983 11.0714 2.27995 8.4668C3.79991 5.8622 5.8622 3.79991 8.4668 2.27995C11.0714 0.759983 13.9158 0 17 0C20.0842 0 22.9286 0.759983 25.5332 2.27995C28.1378 3.79991 30.2001 5.8622 31.7201 8.4668C33.24 11.0714 34 13.9158 34 17Z" fill="#1DD65F"></path> </g> <path d="M46.632 10.768H51.994V12H45.204V1.85H46.632V10.768ZM54.28 1.85V3.39H53.006V1.85H54.28ZM54.28 4.468V12H53.006V4.468H54.28ZM60.613 6.666C60.417 5.77 59.717 5.42 58.835 5.42C58.093 5.42 57.253 5.686 57.253 6.372C57.253 6.974 57.673 7.254 58.401 7.394L59.465 7.604C60.837 7.87 62.041 8.388 62.041 9.844C62.041 11.328 60.697 12.182 58.975 12.182C57.001 12.182 55.881 10.88 55.741 9.564H57.085C57.281 10.53 57.883 11.104 59.003 11.104C59.969 11.104 60.753 10.684 60.753 9.984C60.753 9.228 60.039 8.906 59.227 8.738L58.107 8.514C57.085 8.304 55.965 7.828 55.965 6.428C55.965 5.098 57.309 4.328 58.975 4.328C60.599 4.328 61.705 5.238 61.943 6.666H60.613ZM64.0204 2.578H65.2944V4.468H66.7224V5.49H65.2944V9.956C65.2944 10.74 65.3504 10.936 66.0784 10.936H66.7224V12H65.7984C64.3564 12 64.0204 11.678 64.0204 10.11V5.49H62.8304V4.468H64.0204V2.578ZM68.9948 8.654C69.0508 10.278 70.1988 11.062 71.3188 11.062C72.4388 11.062 73.0548 10.558 73.3768 9.816H74.6928C74.3428 11.118 73.1528 12.182 71.3188 12.182C68.9388 12.182 67.6228 10.474 67.6228 8.248C67.6228 5.868 69.2188 4.342 71.2768 4.342C73.5728 4.342 74.9588 6.274 74.7908 8.654H68.9948ZM69.0088 7.562H73.4468C73.4188 6.498 72.6208 5.434 71.2768 5.434C70.1428 5.434 69.1208 6.05 69.0088 7.562ZM77.5496 5.602C77.9836 4.888 78.7116 4.342 79.9856 4.342C81.8056 4.342 82.4636 5.518 82.4636 7.24V12H81.1896V7.618C81.1896 6.456 80.9936 5.448 79.5376 5.448C78.3056 5.448 77.5496 6.302 77.5496 7.912V12H76.2756V4.468H77.5496V5.602ZM94.4256 8.262C94.4256 10.992 92.5636 12.182 90.8136 12.182C89.0636 12.182 87.2016 10.992 87.2016 8.262C87.2016 5.532 89.0636 4.342 90.8136 4.342C92.5636 4.342 94.4256 5.532 94.4256 8.262ZM90.8136 11.062C91.9616 11.062 93.0676 10.194 93.0676 8.262C93.0676 6.26 91.9616 5.462 90.8136 5.462C89.6656 5.462 88.5596 6.204 88.5596 8.262C88.5596 10.264 89.6656 11.062 90.8136 11.062ZM97.2234 5.602C97.6574 4.888 98.3854 4.342 99.6594 4.342C101.479 4.342 102.137 5.518 102.137 7.24V12H100.863V7.618C100.863 6.456 100.667 5.448 99.2114 5.448C97.9794 5.448 97.2234 6.302 97.2234 7.912V12H95.9494V4.468H97.2234V5.602Z" fill="white"></path> <path d="M48.08 26.736C46.256 26.368 44.736 25.424 44.736 23.456C44.736 21.28 46.992 20.192 49.12 20.192C51.408 20.192 53.2 21.232 53.664 23.648H51.696C51.36 22.256 50.144 21.856 49.008 21.856C48.112 21.856 46.784 22.256 46.784 23.392C46.784 24.288 47.52 24.736 48.512 24.928L49.936 25.2C51.968 25.6 53.904 26.336 53.904 28.672C53.904 31.008 51.584 32.208 49.296 32.208C46.544 32.208 44.656 30.704 44.416 28.16H46.416C46.768 29.744 47.792 30.544 49.392 30.544C50.768 30.544 51.872 29.92 51.872 28.8C51.872 27.616 50.592 27.216 49.488 27.008L48.08 26.736ZM57.351 23.392V24.544C57.863 23.696 58.759 23.2 59.911 23.2C62.007 23.2 63.607 24.944 63.607 27.696C63.607 30.464 62.007 32.208 59.911 32.208C58.759 32.208 57.863 31.712 57.351 30.864V34.8H55.447V23.392H57.351ZM59.495 30.656C60.823 30.656 61.623 29.52 61.623 27.696C61.623 25.888 60.823 24.752 59.495 24.752C58.247 24.752 57.271 25.712 57.271 27.696C57.271 29.68 58.247 30.656 59.495 30.656ZM73.1635 27.712C73.1635 30.816 71.0195 32.208 68.9235 32.208C66.8275 32.208 64.6835 30.816 64.6835 27.712C64.6835 24.608 66.8275 23.2 68.9235 23.2C71.0195 23.2 73.1635 24.608 73.1635 27.712ZM68.9235 30.656C70.1235 30.656 71.1955 29.696 71.1955 27.712C71.1955 25.728 70.1235 24.752 68.9235 24.752C67.7235 24.752 66.6515 25.728 66.6515 27.712C66.6515 29.696 67.7235 30.656 68.9235 30.656ZM75.0003 21.12H76.9043V23.392H78.6323V24.768H76.9043V29.456C76.9043 30.336 77.1123 30.544 77.9283 30.544H78.6163V32H77.2083C75.3683 32 75.0003 31.504 75.0003 29.744V24.768H73.7203V23.392H75.0003V21.12ZM82.0698 20.4V22.32H80.1658V20.4H82.0698ZM82.0698 23.392V32H80.1658V23.392H82.0698ZM84.4686 22.864C84.4686 20.848 85.2366 20.4 87.3166 20.4H88.0686V21.856H87.5246C86.5806 21.856 86.3726 22.032 86.3726 22.928V23.392H88.0686V24.768H86.3726V32H84.4686V24.768H83.2686V23.392H84.4686V22.864ZM89.1266 34.8V33.344H89.8466C90.6786 33.344 91.0306 33.28 91.4146 32.16L91.5106 31.952L88.3906 23.392H90.4706L92.4226 29.568L94.3746 23.392H96.3266L93.3026 31.984C92.5026 34.208 91.9266 34.8 89.9906 34.8H89.1266Z" fill="#1DD65F"></path> <path d="M105.024 20.4C107.856 20.4 109.84 21.04 109.84 23.904C109.84 26.784 107.856 27.408 105.024 27.408H103.024V32H101.392V20.4H105.024ZM103.024 21.776V25.984H105.152C106.848 25.984 108.176 25.808 108.176 23.904C108.176 22.016 106.848 21.776 105.152 21.776H103.024ZM118.629 27.728C118.629 30.848 116.501 32.208 114.501 32.208C112.501 32.208 110.373 30.848 110.373 27.728C110.373 24.608 112.501 23.248 114.501 23.248C116.501 23.248 118.629 24.608 118.629 27.728ZM114.501 30.928C115.813 30.928 117.077 29.936 117.077 27.728C117.077 25.44 115.813 24.528 114.501 24.528C113.189 24.528 111.925 25.376 111.925 27.728C111.925 30.016 113.189 30.928 114.501 30.928ZM126.4 20.4H127.856V32H126.4V30.704C125.872 31.616 124.96 32.208 123.584 32.208C121.616 32.208 119.904 30.576 119.904 27.728C119.904 24.896 121.616 23.248 123.584 23.248C124.96 23.248 125.872 23.84 126.4 24.752V20.4ZM123.952 24.496C122.464 24.496 121.488 25.68 121.488 27.728C121.488 29.776 122.464 30.96 123.952 30.96C125.248 30.96 126.464 30 126.464 27.728C126.464 25.456 125.248 24.496 123.952 24.496ZM137.32 26.272H135.848C135.64 25.248 134.744 24.528 133.624 24.528C132.328 24.528 131.144 25.536 131.144 27.696C131.144 29.888 132.344 30.928 133.624 30.928C134.84 30.928 135.704 30.112 135.912 29.2H137.416C137.128 30.816 135.576 32.208 133.576 32.208C131.112 32.208 129.56 30.336 129.56 27.712C129.56 25.152 131.176 23.248 133.72 23.248C135.8 23.248 137.128 24.816 137.32 26.272ZM138.546 29.728C138.546 27.696 140.834 27.104 144.37 26.704V26.496C144.37 24.928 143.49 24.4 142.418 24.4C141.218 24.4 140.514 25.056 140.45 26.112H138.946C139.09 24.256 140.722 23.216 142.402 23.216C144.77 23.216 145.842 24.352 145.826 26.768L145.81 28.752C145.794 30.192 145.874 31.184 146.034 32H144.562C144.514 31.68 144.466 31.328 144.45 30.816C143.922 31.696 143.026 32.208 141.506 32.208C139.89 32.208 138.546 31.312 138.546 29.728ZM144.482 27.856C141.842 28.128 140.162 28.512 140.162 29.696C140.162 30.512 140.786 31.056 141.826 31.056C143.186 31.056 144.482 30.432 144.482 28.4V27.856ZM152.924 25.904C152.7 24.88 151.9 24.48 150.892 24.48C150.044 24.48 149.084 24.784 149.084 25.568C149.084 26.256 149.564 26.576 150.396 26.736L151.612 26.976C153.18 27.28 154.556 27.872 154.556 29.536C154.556 31.232 153.02 32.208 151.052 32.208C148.796 32.208 147.516 30.72 147.356 29.216H148.892C149.116 30.32 149.804 30.976 151.084 30.976C152.188 30.976 153.084 30.496 153.084 29.696C153.084 28.832 152.268 28.464 151.34 28.272L150.06 28.016C148.892 27.776 147.612 27.232 147.612 25.632C147.612 24.112 149.148 23.232 151.052 23.232C152.908 23.232 154.172 24.272 154.444 25.904H152.924ZM156.818 21.232H158.274V23.392H159.906V24.56H158.274V29.664C158.274 30.56 158.338 30.784 159.17 30.784H159.906V32H158.85C157.202 32 156.818 31.632 156.818 29.84V24.56H155.458V23.392H156.818V21.232ZM166.533 25.904C166.309 24.88 165.509 24.48 164.501 24.48C163.653 24.48 162.693 24.784 162.693 25.568C162.693 26.256 163.173 26.576 164.005 26.736L165.221 26.976C166.789 27.28 168.165 27.872 168.165 29.536C168.165 31.232 166.629 32.208 164.661 32.208C162.405 32.208 161.125 30.72 160.965 29.216H162.501C162.725 30.32 163.413 30.976 164.693 30.976C165.797 30.976 166.693 30.496 166.693 29.696C166.693 28.832 165.877 28.464 164.949 28.272L163.669 28.016C162.501 27.776 161.221 27.232 161.221 25.632C161.221 24.112 162.757 23.232 164.661 23.232C166.517 23.232 167.781 24.272 168.053 25.904H166.533Z" fill="white"></path> <defs> <clipPath id="clip0_222_1251"> <rect width="34" height="34" fill="white"></rect> </clipPath> </defs> </svg> 