<?xml version="1.0" encoding="UTF-8"?> <svg xmlns="http://www.w3.org/2000/svg" width="34" height="34" viewBox="0 0 34 34" fill="none"> <g clip-path="url(#clip0_68_3263)"> <path d="M24.9466 23.9505C24.9466 23.4783 24.7253 23.102 24.2826 22.8216C21.4345 21.1246 18.1363 20.276 14.388 20.276C12.4253 20.276 10.3077 20.5269 8.03516 21.0286C7.41536 21.1615 7.10547 21.5451 7.10547 22.1797C7.10547 22.4748 7.20508 22.7294 7.4043 22.9434C7.60352 23.1573 7.86545 23.2643 8.1901 23.2643C8.26389 23.2643 8.53689 23.2053 9.00911 23.0872C10.957 22.6888 12.75 22.4896 14.388 22.4896C17.7231 22.4896 20.6523 23.2496 23.1758 24.7695C23.4562 24.9319 23.6997 25.013 23.9062 25.013C24.1866 25.013 24.4301 24.9134 24.6367 24.7142C24.8433 24.515 24.9466 24.2604 24.9466 23.9505ZM27.0716 19.1914C27.0716 18.6011 26.8134 18.151 26.2969 17.8411C22.7995 15.7604 18.7561 14.7201 14.1667 14.7201C11.9089 14.7201 9.67318 15.0299 7.45964 15.6497C6.7513 15.8416 6.39714 16.3138 6.39714 17.0664C6.39714 17.4353 6.52626 17.7489 6.7845 18.0072C7.04275 18.2654 7.35634 18.3945 7.72526 18.3945C7.82856 18.3945 8.10156 18.3355 8.54427 18.2174C10.3446 17.7305 12.1966 17.487 14.1003 17.487C18.2174 17.487 21.8181 18.4019 24.9023 20.2318C25.2565 20.4236 25.5369 20.5195 25.7435 20.5195C26.1124 20.5195 26.426 20.3904 26.6842 20.1322C26.9425 19.8739 27.0716 19.5603 27.0716 19.1914ZM29.4622 13.7018C29.4622 13.0082 29.1671 12.4918 28.5768 12.1523C26.7174 11.0751 24.5556 10.2598 22.0911 9.70638C19.6267 9.15299 17.0959 8.8763 14.4987 8.8763C11.4883 8.8763 8.80252 9.22309 6.44141 9.91667C6.102 10.02 5.81792 10.2081 5.58919 10.4811C5.36046 10.7541 5.24609 11.112 5.24609 11.5547C5.24609 12.0122 5.39735 12.3958 5.69987 12.7057C6.00239 13.0156 6.38238 13.1706 6.83984 13.1706C7.00217 13.1706 7.29731 13.1115 7.72526 12.9935C9.68793 12.4475 11.9531 12.1745 14.5208 12.1745C16.8672 12.1745 19.1508 12.4253 21.3717 12.9271C23.5927 13.4288 25.4631 14.1298 26.9831 15.0299C27.293 15.207 27.5881 15.2956 27.8685 15.2956C28.2964 15.2956 28.6691 15.1443 28.9863 14.8418C29.3036 14.5393 29.4622 14.1593 29.4622 13.7018ZM34 17C34 20.0842 33.24 22.9286 31.7201 25.5332C30.2001 28.1378 28.1378 30.2001 25.5332 31.7201C22.9286 33.24 20.0842 34 17 34C13.9158 34 11.0714 33.24 8.4668 31.7201C5.8622 30.2001 3.79991 28.1378 2.27995 25.5332C0.759983 22.9286 0 20.0842 0 17C0 13.9158 0.759983 11.0714 2.27995 8.4668C3.79991 5.8622 5.8622 3.79991 8.4668 2.27995C11.0714 0.759983 13.9158 0 17 0C20.0842 0 22.9286 0.759983 25.5332 2.27995C28.1378 3.79991 30.2001 5.8622 31.7201 8.4668C33.24 11.0714 34 13.9158 34 17Z" fill="#1DD65F"></path> </g> <defs> <clipPath id="clip0_68_3263"> <rect width="34" height="34" fill="white"></rect> </clipPath> </defs> </svg> 