<?xml version="1.0" encoding="UTF-8"?> <svg xmlns="http://www.w3.org/2000/svg" width="72" height="72" viewBox="0 0 72 72" fill="none"> <path fill-rule="evenodd" clip-rule="evenodd" d="M45 12H27V15H24H21V18H18V21H15L15 27H12L12 45H15V48V51H18V54H21V57H24H27V60H45H48V57H51H54V54H57V51H60V48V45H63V27H60V24V21H57V18H54V15H51H48V12H45ZM48 15V18H51V21H54V24V27H57L57 45H54V48V51H51V54H48V57H45H27V54H24H21V51H18V48V45H15L15 27H18V21H21V18H24H27V15H45H48ZM48 27H45V30H42V33H39V36H36V39H33V42H30V39H27V36H24V39H27V42H30V45H33V42H36V39H39V36H42V33H45V30H48V27Z" fill="#1A1A1A"></path> </svg> 