<?xml version="1.0" encoding="UTF-8"?> <svg xmlns="http://www.w3.org/2000/svg" width="72" height="72" viewBox="0 0 72 72" fill="none"> <path fill-rule="evenodd" clip-rule="evenodd" d="M37.5 12L34.5 12H31.5V15L28.5 15V18V21V24V27V30H25.5H22.5H19.5H16.5H13.5V33H10.5V36L10.5 39V42V45V48V51V54H13.5V57H16.5V60H19.5H22.5H25.5H28.5H31.5H34.5H37.5H40.5H43.5H46.5H49.5H52.5H55.5H58.5V57H61.5V54V51V48V45V42V39V36V33V30V27V24V21V18V15H58.5V12H55.5H52.5H49.5H46.5H43.5H40.5H37.5ZM13.5 54V51V48V45V42V39V36V33H16.5H19.5H22.5H25.5H28.5V30H31.5V27V24V21V18V15H34.5H37.5H40.5H43.5H46.5H49.5H52.5H55.5V18V21V24V27V30V33V36V39V42V45V48V51V54H52.5H49.5H46.5H43.5H40.5H37.5H34.5H31.5H28.5H25.5H22.5H19.5H16.5H13.5ZM46.5 24V21H43.5V24V27V30V33V36V39V42H40.5H37.5H34.5H31.5V39H34.5V36H31.5V39H28.5V42H25.5V45H28.5V48H31.5V51H34.5V48H31.5V45H34.5H37.5H40.5H43.5V42H46.5V39V36V33V30V27V24ZM31.5 45V42H28.5V45H31.5Z" fill="#1A1A1A"></path> </svg> 