<?xml version="1.0" encoding="UTF-8"?> <svg xmlns="http://www.w3.org/2000/svg" width="18" height="18" viewBox="0 0 18 18" fill="none"> <g clip-path="url(#clip0_1217_6829)"> <path d="M4.00501 1.0159e-05C3.47873 -0.00117649 2.95741 0.101606 2.47096 0.302456C1.98452 0.503306 1.54254 0.798266 1.1704 1.1704C0.798266 1.54254 0.503306 1.98452 0.302456 2.47096C0.101606 2.95741 -0.00117649 3.47873 1.0159e-05 4.00501V13.995C-0.00117649 14.5213 0.101606 15.0426 0.302456 15.5291C0.503306 16.0155 0.798266 16.4575 1.1704 16.8296C1.54254 17.2018 1.98452 17.4967 2.47096 17.6976C2.95741 17.8984 3.47873 18.0012 4.00501 18H13.995C14.5213 18.0012 15.0426 17.8984 15.5291 17.6976C16.0155 17.4967 16.4575 17.2018 16.8296 16.8296C17.2018 16.4575 17.4967 16.0155 17.6976 15.5291C17.8984 15.0426 18.0012 14.5213 18 13.995V4.00501C18.0012 3.47873 17.8984 2.95741 17.6976 2.47096C17.4967 1.98452 17.2018 1.54254 16.8296 1.1704C16.4575 0.798266 16.0155 0.503306 15.5291 0.302456C15.0426 0.101606 14.5213 -0.00117649 13.995 1.0159e-05H4.00501ZM8.89876 1.92601C10.6508 1.92601 12.2348 2.60251 13.4408 3.86626C14.3588 4.82026 14.8748 5.83051 15.1388 7.16026C15.2288 7.60276 15.2288 8.81026 15.144 9.30826C14.8634 10.8911 13.9955 12.3097 12.714 13.2803C12.258 13.6253 11.142 14.226 10.962 14.226C10.896 14.226 10.89 14.1578 10.92 13.881C10.974 13.437 11.028 13.3448 11.28 13.239C11.682 13.071 12.366 12.5835 12.786 12.1628C13.5182 11.4309 14.0387 10.5145 14.292 9.51076C14.448 8.89276 14.43 7.51876 14.256 6.88276C13.71 4.86076 12.06 3.28876 10.038 2.86876C9.45001 2.74876 8.38201 2.74876 7.78801 2.86876C5.74201 3.28876 4.05001 4.93876 3.53401 7.01476C3.39601 7.57876 3.39601 8.95276 3.53401 9.51676C3.87601 10.8908 4.76401 12.1508 5.92801 12.9008C6.15601 13.0508 6.43201 13.2068 6.54601 13.2548C6.79801 13.3628 6.85201 13.4528 6.90001 13.8968C6.93001 14.1668 6.92251 14.2448 6.85801 14.2448C6.81601 14.2448 6.51001 14.1128 6.18601 13.9568L6.15601 13.9343C4.30201 13.0223 3.11401 11.4788 2.68201 9.42526C2.57401 8.89576 2.55601 7.63126 2.65951 7.14526C2.92951 5.84026 3.44551 4.82026 4.30351 3.91726C5.53951 2.61451 7.12951 1.92526 8.89951 1.92526L8.89876 1.92601ZM8.99926 4.03351C9.30601 4.03651 9.60151 4.06351 9.82876 4.11301C11.9168 4.57801 13.3988 6.66901 13.1108 8.74351C12.9968 9.57901 12.7088 10.266 12.1988 10.9035C11.9468 11.226 11.3348 11.766 11.2268 11.766C11.2095 11.766 11.1908 11.562 11.1908 11.3138V10.86L11.5028 10.488C12.6788 9.07951 12.5948 7.11151 11.3108 5.82001C10.8128 5.31751 10.2368 5.02201 9.49276 4.88551C9.01276 4.79701 8.91076 4.79701 8.40676 4.87951C7.64176 5.00476 7.04926 5.30101 6.52276 5.82151C5.23276 7.09951 5.14876 9.07801 6.32476 10.488L6.63451 10.86V11.316C6.63451 11.568 6.61426 11.772 6.58951 11.772C6.56701 11.772 6.39151 11.652 6.20551 11.502L6.18001 11.4938C5.55601 10.9958 5.00401 10.1123 4.77601 9.24601C4.63801 8.72251 4.63801 7.72801 4.78201 7.20601C5.16001 5.79751 6.19801 4.70476 7.63801 4.19176C7.94551 4.08301 8.48851 4.02676 8.99926 4.03351ZM8.90176 6.27601C9.13426 6.27601 9.36676 6.32101 9.53476 6.40951C9.90779 6.61069 10.1876 6.94946 10.3148 7.35376C10.6628 8.53726 9.40876 9.57376 8.27476 9.04426H8.26351C7.72951 8.79601 7.44151 8.32726 7.43551 7.71676C7.43551 7.16701 7.74151 6.68851 8.26951 6.40801C8.43751 6.32026 8.66926 6.27601 8.90176 6.27601ZM8.89351 9.82201C9.63451 9.81901 10.173 10.0838 10.371 10.5495C10.5195 10.8975 10.464 11.9985 10.2075 13.776C10.0335 15.018 9.93751 15.3315 9.69751 15.543C9.36751 15.8355 8.89951 15.9165 8.45551 15.759H8.45326C7.91626 15.5663 7.80076 15.3053 7.58026 13.776C7.32451 11.9985 7.26826 10.8975 7.41676 10.5495C7.61326 10.0875 8.14726 9.82501 8.89426 9.82201H8.89351Z" fill="#1A1A1A"></path> </g> <defs> <clipPath id="clip0_1217_6829"> <rect width="18" height="18" fill="white"></rect> </clipPath> </defs> </svg> 