<?xml version="1.0" encoding="UTF-8"?> <svg xmlns="http://www.w3.org/2000/svg" width="162" height="35" viewBox="0 0 162 35" fill="none"> <g clip-path="url(#clip0_222_1250)"> <path d="M7.56502 1.91891e-05C6.57094 -0.00222226 5.58621 0.191922 4.66737 0.571305C3.74853 0.950688 2.91368 1.50784 2.21076 2.21076C1.50784 2.91368 0.950688 3.74853 0.571305 4.66737C0.191922 5.58621 -0.00222226 6.57094 1.91891e-05 7.56502V26.435C-0.00222226 27.4291 0.191922 28.4138 0.571305 29.3327C0.950688 30.2515 1.50784 31.0864 2.21076 31.7893C2.91368 32.4922 3.74853 33.0494 4.66737 33.4287C5.58621 33.8081 6.57094 34.0023 7.56502 34H26.435C27.4291 34.0023 28.4138 33.8081 29.3327 33.4287C30.2515 33.0494 31.0864 32.4922 31.7893 31.7893C32.4922 31.0864 33.0494 30.2515 33.4287 29.3327C33.8081 28.4138 34.0023 27.4291 34 26.435V7.56502C34.0023 6.57094 33.8081 5.58621 33.4287 4.66737C33.0494 3.74853 32.4922 2.91368 31.7893 2.21076C31.0864 1.50784 30.2515 0.950688 29.3327 0.571305C28.4138 0.191922 27.4291 -0.00222226 26.435 1.91891e-05H7.56502ZM16.8088 3.63802C20.1181 3.63802 23.1101 4.91585 25.3881 7.30294C27.1221 9.10494 28.0968 11.0132 28.5954 13.5249C28.7654 14.3608 28.7654 16.6416 28.6054 17.5823C28.0753 20.5721 26.436 23.2517 24.0154 25.0849C23.154 25.7366 21.046 26.8714 20.706 26.8714C20.5814 26.8714 20.57 26.7424 20.6267 26.2197C20.7287 25.381 20.8307 25.2068 21.3067 25.007C22.066 24.6897 23.358 23.7689 24.1514 22.9741C25.5345 21.5918 26.5175 19.8608 26.996 17.9648C27.2907 16.7974 27.2567 14.2021 26.928 13.0008C25.8967 9.18144 22.78 6.2121 18.9607 5.41877C17.85 5.1921 15.8327 5.1921 14.7107 5.41877C10.846 6.2121 7.65002 9.32877 6.67535 13.2501C6.41469 14.3154 6.41469 16.9108 6.67535 17.9761C7.32135 20.5714 8.99869 22.9514 11.1974 24.3681C11.628 24.6514 12.1494 24.9461 12.3647 25.0368C12.8407 25.2408 12.9427 25.4108 13.0334 26.2494C13.09 26.7594 13.0759 26.9068 12.954 26.9068C12.8747 26.9068 12.2967 26.6574 11.6847 26.3628L11.628 26.3203C8.12602 24.5976 5.88202 21.6821 5.06602 17.8033C4.86202 16.8031 4.82802 14.4146 5.02352 13.4966C5.53352 11.0316 6.50819 9.10494 8.12885 7.39927C10.4635 4.93852 13.4669 3.6366 16.8102 3.6366L16.8088 3.63802ZM16.9986 7.61885C17.578 7.62452 18.1362 7.67552 18.5654 7.76902C22.5094 8.64735 25.3088 12.597 24.7648 16.5155C24.5494 18.0937 24.0054 19.3914 23.0421 20.5955C22.5661 21.2047 21.4101 22.2247 21.2061 22.2247C21.1735 22.2247 21.1381 21.8394 21.1381 21.3704V20.5134L21.7274 19.8107C23.9488 17.1502 23.7901 13.4329 21.3648 10.9934C20.4241 10.0442 19.3361 9.48602 17.9308 9.22819C17.0241 9.06102 16.8314 9.06102 15.8794 9.21685C14.4344 9.45344 13.3153 10.013 12.3208 10.9962C9.8841 13.4102 9.72544 17.1474 11.9468 19.8107L12.5319 20.5134V21.3747C12.5319 21.8507 12.4936 22.236 12.4469 22.236C12.4044 22.236 12.0729 22.0094 11.7215 21.726L11.6734 21.7104C10.4947 20.7698 9.45202 19.1009 9.02135 17.4647C8.76069 16.4759 8.76069 14.5974 9.03269 13.6114C9.74669 10.9509 11.7074 8.88677 14.4274 7.91777C15.0082 7.71235 16.0339 7.6061 16.9986 7.61885ZM16.8144 11.8547C17.2536 11.8547 17.6928 11.9397 18.0101 12.1069C18.7147 12.4869 19.2433 13.1268 19.4834 13.8904C20.1408 16.1259 17.7721 18.0838 15.6301 17.0836H15.6089C14.6002 16.6147 14.0562 15.7293 14.0449 14.5761C14.0449 13.5377 14.6229 12.6339 15.6202 12.104C15.9375 11.9383 16.3753 11.8547 16.8144 11.8547ZM16.7989 18.5527C18.1985 18.547 19.2157 19.0471 19.5897 19.9269C19.8702 20.5842 19.7654 22.6639 19.2809 26.0214C18.9522 28.3674 18.7709 28.9595 18.3175 29.359C17.6942 29.9115 16.8102 30.0645 15.9715 29.767H15.9673C14.9529 29.4029 14.7348 28.9099 14.3183 26.0214C13.8352 22.6639 13.7289 20.5842 14.0094 19.9269C14.3806 19.0542 15.3893 18.5584 16.8003 18.5527H16.7989Z" fill="white"></path> </g> <path d="M46.632 10.768H51.994V12H45.204V1.85H46.632V10.768ZM54.28 1.85V3.39H53.006V1.85H54.28ZM54.28 4.468V12H53.006V4.468H54.28ZM60.613 6.666C60.417 5.77 59.717 5.42 58.835 5.42C58.093 5.42 57.253 5.686 57.253 6.372C57.253 6.974 57.673 7.254 58.401 7.394L59.465 7.604C60.837 7.87 62.041 8.388 62.041 9.844C62.041 11.328 60.697 12.182 58.975 12.182C57.001 12.182 55.881 10.88 55.741 9.564H57.085C57.281 10.53 57.883 11.104 59.003 11.104C59.969 11.104 60.753 10.684 60.753 9.984C60.753 9.228 60.039 8.906 59.227 8.738L58.107 8.514C57.085 8.304 55.965 7.828 55.965 6.428C55.965 5.098 57.309 4.328 58.975 4.328C60.599 4.328 61.705 5.238 61.943 6.666H60.613ZM64.0204 2.578H65.2944V4.468H66.7224V5.49H65.2944V9.956C65.2944 10.74 65.3504 10.936 66.0784 10.936H66.7224V12H65.7984C64.3564 12 64.0204 11.678 64.0204 10.11V5.49H62.8304V4.468H64.0204V2.578ZM68.9948 8.654C69.0508 10.278 70.1988 11.062 71.3188 11.062C72.4388 11.062 73.0548 10.558 73.3768 9.816H74.6928C74.3428 11.118 73.1528 12.182 71.3188 12.182C68.9388 12.182 67.6228 10.474 67.6228 8.248C67.6228 5.868 69.2188 4.342 71.2768 4.342C73.5728 4.342 74.9588 6.274 74.7908 8.654H68.9948ZM69.0088 7.562H73.4468C73.4188 6.498 72.6208 5.434 71.2768 5.434C70.1428 5.434 69.1208 6.05 69.0088 7.562ZM77.5496 5.602C77.9836 4.888 78.7116 4.342 79.9856 4.342C81.8056 4.342 82.4636 5.518 82.4636 7.24V12H81.1896V7.618C81.1896 6.456 80.9936 5.448 79.5376 5.448C78.3056 5.448 77.5496 6.302 77.5496 7.912V12H76.2756V4.468H77.5496V5.602ZM94.4256 8.262C94.4256 10.992 92.5636 12.182 90.8136 12.182C89.0636 12.182 87.2016 10.992 87.2016 8.262C87.2016 5.532 89.0636 4.342 90.8136 4.342C92.5636 4.342 94.4256 5.532 94.4256 8.262ZM90.8136 11.062C91.9616 11.062 93.0676 10.194 93.0676 8.262C93.0676 6.26 91.9616 5.462 90.8136 5.462C89.6656 5.462 88.5596 6.204 88.5596 8.262C88.5596 10.264 89.6656 11.062 90.8136 11.062ZM97.2234 5.602C97.6574 4.888 98.3854 4.342 99.6594 4.342C101.479 4.342 102.137 5.518 102.137 7.24V12H100.863V7.618C100.863 6.456 100.667 5.448 99.2114 5.448C97.9794 5.448 97.2234 6.302 97.2234 7.912V12H95.9494V4.468H97.2234V5.602Z" fill="white"></path> <path d="M48.32 20.4H50.464L54.816 32H52.592L51.68 29.424H46.976L46.08 32H44L48.32 20.4ZM47.568 27.728H51.072L49.312 22.752L47.568 27.728ZM57.7885 23.392V24.544C58.3005 23.696 59.1965 23.2 60.3485 23.2C62.4445 23.2 64.0445 24.944 64.0445 27.696C64.0445 30.464 62.4445 32.208 60.3485 32.208C59.1965 32.208 58.3005 31.712 57.7885 30.864V34.8H55.8845V23.392H57.7885ZM59.9325 30.656C61.2605 30.656 62.0605 29.52 62.0605 27.696C62.0605 25.888 61.2605 24.752 59.9325 24.752C58.6845 24.752 57.7085 25.712 57.7085 27.696C57.7085 29.68 58.6845 30.656 59.9325 30.656ZM67.5073 23.392V24.544C68.0193 23.696 68.9153 23.2 70.0673 23.2C72.1633 23.2 73.7633 24.944 73.7633 27.696C73.7633 30.464 72.1633 32.208 70.0673 32.208C68.9153 32.208 68.0193 31.712 67.5073 30.864V34.8H65.6033V23.392H67.5073ZM69.6513 30.656C70.9793 30.656 71.7793 29.52 71.7793 27.696C71.7793 25.888 70.9793 24.752 69.6513 24.752C68.4033 24.752 67.4273 25.712 67.4273 27.696C67.4273 29.68 68.4033 30.656 69.6513 30.656ZM77.226 32H75.322V20.4H77.226V32ZM80.7289 28.24C80.8569 29.84 81.9769 30.624 83.0649 30.624C84.0569 30.624 84.8409 30.224 85.1769 29.424H87.0489C86.6489 30.8 85.3689 32.208 83.1449 32.208C80.3769 32.208 78.7929 30.096 78.7929 27.632C78.7929 25.04 80.5689 23.2 83.0169 23.2C85.6569 23.2 87.3049 25.344 87.1449 28.24H80.7289ZM80.7289 26.848H85.2089C85.1609 25.504 84.1369 24.688 83.0169 24.688C82.1209 24.688 80.8889 25.216 80.7289 26.848ZM96.3201 20.4C98.8641 20.4 101.248 20.816 101.248 24.048C101.248 26.976 99.0881 27.616 96.3521 27.616H94.5281V32H92.4961V20.4H96.3201ZM94.5281 22.032V25.952H96.4161C97.9521 25.952 99.1361 25.728 99.1361 24.064C99.1361 22.176 97.7441 22.032 96.3201 22.032H94.5281ZM110.242 27.712C110.242 30.816 108.098 32.208 106.002 32.208C103.906 32.208 101.762 30.816 101.762 27.712C101.762 24.608 103.906 23.2 106.002 23.2C108.098 23.2 110.242 24.608 110.242 27.712ZM106.002 30.656C107.202 30.656 108.274 29.696 108.274 27.712C108.274 25.728 107.202 24.752 106.002 24.752C104.802 24.752 103.73 25.728 103.73 27.712C103.73 29.696 104.802 30.656 106.002 30.656ZM117.612 20.4H119.516V32H117.612V30.864C117.1 31.712 116.204 32.208 115.052 32.208C113.02 32.208 111.308 30.464 111.308 27.696C111.308 24.944 113.02 23.2 115.052 23.2C116.204 23.2 117.1 23.696 117.612 24.544V20.4ZM115.468 24.752C114.204 24.752 113.292 25.888 113.292 27.696C113.292 29.52 114.204 30.656 115.468 30.656C116.716 30.656 117.692 29.68 117.692 27.696C117.692 25.712 116.716 24.752 115.468 24.752ZM129.154 26.336H127.298C127.138 25.424 126.338 24.784 125.298 24.784C124.114 24.784 123.042 25.664 123.042 27.696C123.042 29.744 124.13 30.624 125.25 30.624C126.178 30.624 127.122 30.208 127.362 29.056H129.218C128.834 31.072 127.058 32.208 125.218 32.208C122.722 32.208 121.074 30.272 121.074 27.712C121.074 25.152 122.738 23.2 125.298 23.2C127.17 23.2 128.834 24.416 129.154 26.336ZM130.107 29.632C130.107 27.488 132.747 26.944 135.899 26.624V26.464C135.899 24.992 135.051 24.544 134.107 24.544C133.147 24.544 132.427 25.056 132.379 26.096H130.507C130.635 24.336 132.091 23.136 134.171 23.136C136.235 23.136 137.851 24.08 137.803 26.832C137.803 27.264 137.771 28.272 137.771 29.056C137.771 30.144 137.867 31.28 138.027 32H136.283C136.219 31.632 136.155 31.424 136.123 30.832C135.579 31.76 134.555 32.208 133.291 32.208C131.419 32.208 130.107 31.2 130.107 29.632ZM135.947 27.952C133.227 28.208 132.123 28.592 132.123 29.584C132.123 30.336 132.747 30.784 133.707 30.784C135.115 30.784 135.947 30.064 135.947 28.608V27.952ZM144.64 25.744C144.432 24.96 143.712 24.656 142.752 24.656C141.92 24.656 141.152 25.024 141.152 25.6C141.152 26.176 141.568 26.48 142.304 26.624L143.52 26.864C145.264 27.2 146.592 27.744 146.592 29.424C146.592 31.216 144.896 32.208 142.944 32.208C140.832 32.208 139.424 31.008 139.216 29.376H141.072C141.248 30.256 141.888 30.768 143.008 30.768C144 30.768 144.736 30.352 144.736 29.648C144.736 28.944 144.096 28.624 143.248 28.464L141.952 28.208C140.496 27.92 139.36 27.264 139.36 25.696C139.36 24.176 140.992 23.2 142.864 23.2C144.544 23.2 146.08 24.016 146.432 25.744H144.64ZM148.532 21.12H150.436V23.392H152.164V24.768H150.436V29.456C150.436 30.336 150.644 30.544 151.46 30.544H152.148V32H150.74C148.9 32 148.532 31.504 148.532 29.744V24.768H147.252V23.392H148.532V21.12ZM158.609 25.744C158.401 24.96 157.681 24.656 156.721 24.656C155.889 24.656 155.121 25.024 155.121 25.6C155.121 26.176 155.537 26.48 156.273 26.624L157.489 26.864C159.233 27.2 160.561 27.744 160.561 29.424C160.561 31.216 158.865 32.208 156.913 32.208C154.801 32.208 153.393 31.008 153.185 29.376H155.041C155.217 30.256 155.857 30.768 156.977 30.768C157.969 30.768 158.705 30.352 158.705 29.648C158.705 28.944 158.065 28.624 157.217 28.464L155.921 28.208C154.465 27.92 153.329 27.264 153.329 25.696C153.329 24.176 154.961 23.2 156.833 23.2C158.513 23.2 160.049 24.016 160.401 25.744H158.609Z" fill="white"></path> <defs> <clipPath id="clip0_222_1250"> <rect width="34" height="34" fill="white"></rect> </clipPath> </defs> </svg> 