<?xml version="1.0" encoding="UTF-8"?> <svg xmlns="http://www.w3.org/2000/svg" width="99" height="26" viewBox="0 0 99 26" fill="none"> <path d="M16.9562 12.3589C15.0251 12.3589 13.9985 13.0674 13.9985 15.1207V21.7194H9.96556V8.57053H13.8512V11.0643C14.4624 9.52508 15.5628 8.54702 17.4437 8.47335C17.6396 8.47335 17.859 8.47335 18.0549 8.49686V12.4326C17.6145 12.384 17.3214 12.3589 16.9546 12.3589" fill="#1A1A1A"></path> <path d="M19.6443 21.721H23.7023V8.57053H19.6443V21.721ZM19.6443 7.22727H23.6772V4H19.6443V7.22727Z" fill="#1A1A1A"></path> <path d="M32.3356 18.9091C33.9484 18.9091 35.2682 17.5893 35.2682 15.1458C35.2682 12.7022 33.9484 11.406 32.3356 11.406C30.7227 11.406 29.4265 12.4326 29.4265 15.1458C29.4265 17.8589 30.7462 18.9091 32.3356 18.9091ZM33.6553 8.27743C37.0284 8.27743 39.4485 10.8433 39.4485 15.1458C39.4485 19.4483 37.0284 22.0392 33.6553 22.0392C32.2133 22.0392 30.4782 21.4028 29.6224 19.9624V26H25.5895V8.57053H29.6224V10.3542C30.4782 8.91223 32.2133 8.27743 33.6553 8.27743Z" fill="#1A1A1A"></path> <path d="M44.7275 4H40.6945V21.721H44.7275V4Z" fill="#1A1A1A"></path> <path d="M55.657 13.7273C55.6084 12.0893 54.4109 11.2586 52.8952 11.2586C51.4783 11.2586 50.182 11.9922 49.9626 13.7273H55.657ZM53.0661 22.0376C48.7886 22.0376 45.856 19.4216 45.856 15.0721C45.856 10.7226 49.0582 8.18025 52.8952 8.18025C57.2463 8.18025 59.9344 11.5047 59.6664 16.1724H49.914C50.0363 18.0298 51.4783 18.9107 52.9454 18.9107C54.4125 18.9107 55.4376 18.373 55.9031 17.5909H59.6178C58.4454 20.6944 55.7071 22.0392 53.0676 22.0392" fill="#1A1A1A"></path> <path d="M79.9345 13.7273C79.8859 12.0893 78.6884 11.2586 77.1728 11.2586C75.7558 11.2586 74.4596 11.9922 74.2401 13.7273H79.9345ZM77.3436 22.0376C73.0662 22.0376 70.1335 19.4216 70.1335 15.0721C70.1335 10.7226 73.3358 8.18025 77.1728 8.18025C81.5239 8.18025 84.212 11.5047 83.9424 16.1724H74.19C74.3122 18.0298 75.7543 18.9107 77.2213 18.9107C78.6884 18.9107 79.7135 18.373 80.179 17.5909H83.8938C82.7198 20.6944 79.9831 22.0392 77.3436 22.0392" fill="#1A1A1A"></path> <path d="M93.5004 8.27743C96.8735 8.27743 97.9236 10.2571 97.9236 13.826V21.721H93.8907V14.8292C93.8907 12.9467 93.817 11.4075 91.8625 11.4075C90.1524 11.4075 89.4189 12.5564 89.4189 14.9765V21.7226H85.386V8.57053H89.4189V10.3056C90.0051 9.32759 91.4471 8.27743 93.5004 8.27743Z" fill="#1A1A1A"></path> <path d="M65.1461 18.3386L65.1414 11.4295H69.157V8.57053H65.1414V4.97806H61.1084V14.4875C61.1084 16.1332 61.2244 18.3386 64.3812 18.3386C64.3812 18.9107 65.0238 21.9812 69.6132 21.7022V18.3386H65.1461Z" fill="#1A1A1A"></path> <path d="M4.03764 18.3386L4.03293 11.4295H8.04863V8.57053H4.03293V4.97806H0V14.4875C0 16.1332 0.115988 18.3386 3.27274 18.3386C3.27274 18.9107 3.91538 21.9812 8.50474 21.7022V18.3386H4.03764Z" fill="#1A1A1A"></path> </svg> 