<?xml version="1.0" encoding="UTF-8"?> <svg xmlns="http://www.w3.org/2000/svg" width="24" height="24" viewBox="0 0 24 24" fill="none"> <path fill-rule="evenodd" clip-rule="evenodd" d="M4 13C4 8.44772 7.44772 5 12 5C16.5523 5 20 8.44772 20 13V17C20 17.5523 19.5523 18 19 18H18V13C18 9.55228 15.4477 7 12 7C8.55228 7 6 9.55228 6 13V18H5C4.44772 18 4 17.5523 4 17V13Z" fill="black"></path> <path d="M7 13C7 12.4477 7.44772 12 8 12H9V20H8C7.44772 20 7 19.5523 7 19V13Z" fill="black"></path> <path d="M15 12H16C16.5523 12 17 12.4477 17 13V19C17 19.5523 16.5523 20 16 20H15V12Z" fill="black"></path> </svg> 