<?xml version="1.0" encoding="UTF-8"?> <svg xmlns="http://www.w3.org/2000/svg" width="16" height="16" viewBox="0 0 16 16" fill="none"><g clip-path="url(#clip0_2270_27244)"><path d="M0.792969 0.796875C1.1835 0.406351 1.8165 0.406352 2.20703 0.796875L15.207 13.7969C15.5975 14.1875 15.5975 14.8203 15.207 15.2109C14.8165 15.6014 14.1835 15.6014 13.793 15.2109L11.752 13.1699C10.6868 13.6786 9.4318 14.0039 8 14.0039C2.85714 14.0039 0 9.80391 0 8.00391C1.95094e-06 7.00969 0.871513 5.28296 2.51855 3.93652L0.792969 2.21094C0.402445 1.82042 0.402445 1.1874 0.792969 0.796875ZM3.94141 5.35938C3.76804 5.49303 3.60084 5.63543 3.44043 5.78613C2.54591 6.62653 2 7.64181 2 8.00391C2 8.36601 2.5459 9.3813 3.44043 10.2217C4.63234 11.3415 6.18997 12.0039 8 12.0039C8.79207 12.0039 9.53582 11.8772 10.2217 11.6406L8.75781 10.1758C8.52049 10.2586 8.26555 10.3037 8 10.3037C6.72974 10.3037 5.7002 9.27416 5.7002 8.00391C5.7002 7.73834 5.74532 7.48341 5.82812 7.24609L3.94141 5.35938ZM8 2.00391C13.1429 2.00391 16 6.2039 16 8.00391C16 8.75324 15.5048 9.9184 14.5557 11.0234L13.1357 9.60352C13.6828 8.93535 14 8.27991 14 8.00391C14 7.6418 13.4541 6.62653 12.5596 5.78613C11.3677 4.66638 9.81003 4.00391 8 4.00391C7.84814 4.00391 7.69804 4.00836 7.5498 4.01758L5.80566 2.27441C6.48238 2.10203 7.21464 2.00391 8 2.00391Z" fill="#1A1A1A"></path></g><defs><clipPath id="clip0_2270_27244"><rect width="16" height="16" fill="white"></rect></clipPath></defs></svg> 