<?xml version="1.0" encoding="UTF-8"?> <svg xmlns="http://www.w3.org/2000/svg" width="175" height="40" fill="none"> <path fill="#23282D" d="M30.38 20.62c0 4.51 3.03 7.65 7.6 7.65a7.06 7.06 0 0 0 6.21-3.03c.1-.16.1-.32-.05-.43l-2.23-2.28-.21-.1-.32.15a3.78 3.78 0 0 1-3.3 1.65c-2.23 0-3.66-1.49-3.66-3.67a3.49 3.49 0 0 1 3.66-3.66 4.04 4.04 0 0 1 3.5 1.9c.05.03.11.06.17.06l.21-.1 2.55-2.07c.16-.11.16-.27 0-.43-1.6-2.34-3.88-3.3-6.64-3.3-3.77.06-7.49 2.61-7.49 7.66ZM52.43 34.64l8.23-20.98c.1-.21 0-.43-.1-.43h-3.51c-.21 0-.37.06-.43.27l-3.72 9.35-3.29-9.35c-.05-.16-.16-.27-.37-.27h-3.67c-.16 0-.31.22-.2.43l5.52 14.13-2.6 6.69c-.11.21 0 .42.2.42H52c.21 0 .37-.1.43-.26Z"></path> <path fill="#23282D" fill-rule="evenodd" d="M62.41 27.63c0 .1.1.26.32.26l2.4.06c.15 0 .26-.11.31-.32l.53-1.44a5.26 5.26 0 0 0 4.36 2.08c4.46 0 7.38-3.09 7.38-7.65 0-4.57-2.92-7.7-7.38-7.65a5.31 5.31 0 0 0-3.93 1.64v-8.6c0-.16-.11-.32-.32-.32h-3.35c-.16 0-.32.1-.32.32v21.62Zm7.76-3.35c-2.23 0-3.72-1.49-3.72-3.66 0-2.23 1.54-3.72 3.72-3.67 2.18 0 3.6 1.49 3.6 3.67 0 2.17-1.48 3.66-3.6 3.66ZM90.56 23.54c-.58.53-1.64.95-3.02.95-2.02 0-3.24-.9-3.72-2.33h10.62c.16 0 .32-.11.32-.32.05-6.22-3.03-8.87-7.6-8.87-4.56 0-7.6 3.08-7.6 7.65 0 4.56 3.09 7.65 7.76 7.65 2.55 0 4.57-.59 5.95-2.08.1-.16.1-.32-.05-.47l-2.12-2.18c-.06-.1-.11-.16-.22-.16l-.32.16Zm-3.4-6.8c1.92 0 3.03 1 3.4 2.55h-6.8c.38-1.54 1.5-2.55 3.4-2.55Z" clip-rule="evenodd"></path> <path fill="#23282D" d="M101.4 18.6c.48-1.01 1.38-1.6 2.28-1.6.64 0 1.5.22 1.86.48l.16.06c.16 0 .27-.06.32-.22l.85-3.56c.05-.2 0-.37-.21-.42a6.46 6.46 0 0 0-2.18-.37 5.26 5.26 0 0 0-3.72 1.48l-.32-.9c0-.1-.16-.32-.42-.32h-2.34c-.16 0-.32.1-.32.32v14.13c0 .16.1.32.32.32h3.4c.16 0 .32-.1.32-.32V18.6ZM109 13.23c-.16 0-.32.1-.32.32v14.02c0 .16.1.27.32.27h3.4c.16 0 .31-.1.31-.27v-6.85c.06-2.65 1.44-3.82 2.93-3.87 1.59 0 2.76 1.22 2.76 3.4v7.32c0 .16.1.32.32.32h3.4c.16 0 .31-.1.31-.32v-8.12c0-4.1-2.28-6.59-5.57-6.59-2.02 0-3.45.74-4.41 2.07l-.32-1.38c-.1-.16-.21-.32-.42-.32H109Z"></path> <path fill="#23282D" fill-rule="evenodd" d="M135.87 23.54c-.58.53-1.64.95-3.03.95-1.96 0-3.24-.9-3.71-2.33h10.62c.16 0 .32-.11.32-.32.05-6.22-3.03-8.87-7.6-8.87-4.56 0-7.6 3.08-7.6 7.65 0 4.56 3.09 7.65 7.76 7.65 2.55 0 4.57-.59 5.95-2.08.1-.16.1-.32-.05-.47l-2.13-2.18c-.05-.1-.1-.16-.2-.16l-.33.16Zm-3.4-6.8c1.92 0 3.03 1 3.4 2.55h-6.8c.38-1.54 1.5-2.55 3.4-2.55Z" clip-rule="evenodd"></path> <path fill="#23282D" d="M149.95 13.23c-.16 0-.27.06-.32.27l-2.34 8.71-1.86-8.71c-.05-.16-.16-.27-.31-.27h-3.88c-.16 0-.27.16-.22.32l3.99 14.13c0 .1.16.21.32.21h3.5c.16 0 .32-.05.38-.2l2.17-8.67 2.13 8.66c.05.1.16.21.37.21h3.61c.16 0 .32-.05.37-.2l3.88-14.14c.05-.16 0-.32-.21-.32h-3.88c-.16 0-.27.1-.32.27l-1.75 9.24-2.4-9.24c-.04-.16-.15-.27-.36-.27h-2.87ZM164.29 23.48l-1.38 2.71c-.1.11-.1.32.1.43.59.42 2.93 1.6 5.85 1.6 3.56.05 5.95-1.81 5.84-4.79-.05-2.65-1.86-3.72-5.15-4.46-1.6-.37-2.55-.7-2.55-1.38 0-.53.74-.96 1.86-.96l.69.06c1.33.19 2.2.63 2.67.88l.14.07.22.05c.1 0 .2-.05.26-.2l1.38-2.56c.11-.16.06-.32-.1-.42a9.03 9.03 0 0 0-5.05-1.65c-3.4 0-6.27 1.65-6.1 4.73.05 2.23 1.59 3.56 4.45 4.35l.35.1c1.73.54 2.95.9 2.95 1.6 0 .54-.9.9-2.07.9l-.53-.05c-1.53-.1-2.69-.73-3.38-1.1l-.03-.01-.2-.05c-.06 0-.17.05-.22.15ZM0 30V8h21v8.25h-4.57v-3.67H4.57v12.84h3.65v-8.25h4.56v8.25h3.65v-3.67H21V30H0Z"></path> </svg> 