<?xml version="1.0" encoding="UTF-8"?> <svg xmlns="http://www.w3.org/2000/svg" width="24" height="24" viewBox="0 0 24 24" fill="none"> <path fill-rule="evenodd" clip-rule="evenodd" d="M12 4C7.58172 4 4 7.58172 4 12C4 16.4183 7.58172 20 12 20C16.4183 20 20 16.4183 20 12C20 7.58172 16.4183 4 12 4ZM13.29 8.29746C13.29 9.04312 12.7233 9.58 12.0075 9.58C11.2767 9.58 10.71 9.04312 10.71 8.29746C10.71 7.55179 11.2767 7 12.0075 7C12.7233 7 13.29 7.55179 13.29 8.29746ZM11 15.5C11 16.0523 11.4477 16.5 12 16.5C12.5523 16.5 13 16.0523 13 15.5L13 12C13 11.4477 12.5523 11 12 11C11.4477 11 11 11.4477 11 12L11 15.5Z" fill="#1A1A1A"></path> </svg> 