<?xml version="1.0" encoding="UTF-8"?> <svg xmlns="http://www.w3.org/2000/svg" width="185" height="40" viewBox="0 0 185 40" fill="none"><g clip-path="url(#clip0_587_17202)"><path d="M26.2984 13.8717V15.1798C25.547 14.2066 24.1557 13.5368 22.5443 13.5368C18.736 13.5368 15.9019 16.9057 15.9019 20.8612C15.9019 24.9283 18.7074 28.1854 22.5443 28.1854C24.1557 28.1854 25.547 27.5444 26.2984 26.514V27.8248H31.041V13.8717H26.2984ZM32.6923 7.68945V27.8277H37.612V20.3861C37.612 18.9378 38.3062 18.0734 39.4176 18.0734C40.5289 18.0734 41.1146 18.8262 41.1146 20.2172V27.8277H46.0114V19.0551C46.0114 15.6577 44.1773 13.5397 41.2289 13.5397C40.5271 13.5141 39.8291 13.6548 39.1918 13.9502C38.5544 14.2456 37.9955 14.6875 37.5605 15.2399V7.69232L32.6923 7.68945ZM77.6981 20.8554C77.6981 25.0342 74.5012 28.1797 70.2472 28.1797C65.9931 28.1797 62.7961 25.0314 62.7961 20.8554C62.7961 16.6795 65.9931 13.5312 70.2472 13.5312C74.5012 13.5312 77.6981 16.6795 77.6981 20.8554ZM61.9619 20.8554C61.9619 25.0342 58.7649 28.1797 54.5138 28.1797C50.2627 28.1797 47.0629 25.0314 47.0629 20.8554C47.0629 16.6795 50.2598 13.5312 54.5138 13.5312C58.7678 13.5312 61.9619 16.6795 61.9619 20.8554ZM0 13.866L5.9482 27.9308L3.80834 32.9996H9.03373L16.9562 13.866H11.7479L8.52233 22.0546L5.32539 13.866H0ZM23.5443 23.7233C23.1652 23.7318 22.7882 23.6638 22.4359 23.5234C22.0835 23.383 21.763 23.173 21.4933 22.906C21.2235 22.639 21.0101 22.3204 20.8658 21.9691C20.7215 21.6178 20.6491 21.2411 20.653 20.8612C20.6495 20.4814 20.7221 20.1048 20.8666 19.7537C21.0111 19.4026 21.2245 19.0841 21.4941 18.8172C21.7638 18.5503 22.0841 18.3403 22.4363 18.1998C22.7885 18.0592 23.1652 17.9909 23.5443 17.999C23.9207 17.9948 24.294 18.0659 24.6425 18.2083C24.9911 18.3506 25.3078 18.5613 25.5739 18.8279C25.84 19.0945 26.0503 19.4117 26.1924 19.7609C26.3345 20.1101 26.4055 20.4841 26.4012 20.8612C26.4059 21.2384 26.3351 21.6126 26.1932 21.9619C26.0512 22.3113 25.8409 22.6286 25.5746 22.8953C25.3085 23.162 24.9917 23.3727 24.6431 23.5149C24.2943 23.657 23.9208 23.728 23.5443 23.7233ZM57.2936 20.8612C57.3024 20.4916 57.2369 20.1241 57.1007 19.7807C56.9644 19.4372 56.7605 19.1248 56.501 18.8621C56.2415 18.5995 55.9317 18.3919 55.5902 18.252C55.2488 18.112 54.8828 18.0425 54.5138 18.0476C54.1449 18.0425 53.7788 18.112 53.4373 18.252C53.0959 18.3919 52.7861 18.5995 52.5266 18.8621C52.267 19.1248 52.0631 19.4372 51.9269 19.7807C51.7907 20.1241 51.7251 20.4916 51.734 20.8612C51.7251 21.2307 51.7907 21.5981 51.9269 21.9417C52.0631 22.2851 52.267 22.5975 52.5266 22.8602C52.7861 23.1228 53.0959 23.3305 53.4373 23.4703C53.7788 23.6103 54.1449 23.6798 54.5138 23.6747C54.8828 23.6798 55.2488 23.6103 55.5902 23.4703C55.9317 23.3305 56.2415 23.1228 56.501 22.8602C56.7605 22.5975 56.9644 22.2851 57.1007 21.9417C57.2369 21.5981 57.3024 21.2307 57.2936 20.8612ZM73.027 20.8612C73.0358 20.4916 72.9702 20.1241 72.8341 19.7807C72.6978 19.4372 72.4939 19.1248 72.2344 18.8621C71.9748 18.5995 71.665 18.3919 71.3236 18.252C70.9821 18.112 70.616 18.0425 70.2472 18.0476C69.8783 18.0425 69.5122 18.112 69.1707 18.252C68.8292 18.3919 68.5195 18.5995 68.2599 18.8621C68.0004 19.1248 67.7964 19.4372 67.6602 19.7807C67.5241 20.1241 67.4584 20.4916 67.4673 20.8612C67.4584 21.2307 67.5241 21.5981 67.6602 21.9417C67.7964 22.2851 68.0004 22.5975 68.2599 22.8602C68.5195 23.1228 68.8292 23.3305 69.1707 23.4703C69.5122 23.6103 69.8783 23.6798 70.2472 23.6747C70.616 23.6798 70.9821 23.6103 71.3236 23.4703C71.665 23.3305 71.9748 23.1228 72.2344 22.8602C72.4939 22.5975 72.6978 22.2851 72.8341 21.9417C72.9702 21.5981 73.0358 21.2307 73.027 20.8612ZM78.3095 24.8682C78.3049 25.2901 78.3844 25.7087 78.5435 26.0993C78.7025 26.49 78.9378 26.8449 79.2357 27.1431C79.5334 27.4414 79.8876 27.6773 80.2776 27.8365C80.6676 27.9959 81.0853 28.0756 81.5065 28.071C81.9419 28.0744 82.3736 27.991 82.7766 27.8257C83.1795 27.6604 83.5455 27.4164 83.8534 27.1079C84.1614 26.7994 84.4048 26.4326 84.5699 26.029C84.735 25.6253 84.8182 25.1928 84.8149 24.7566C84.8221 24.3339 84.7445 23.9142 84.5865 23.5223C84.4284 23.1304 84.1932 22.7743 83.8949 22.4754C83.5965 22.1766 83.2411 21.941 82.8499 21.7827C82.4587 21.6242 82.0398 21.5465 81.6179 21.5537C81.1816 21.5508 80.7491 21.6345 80.3455 21.8C79.9417 21.9655 79.5747 22.2095 79.2657 22.518C78.9567 22.8264 78.7119 23.1933 78.5452 23.5972C78.3787 24.001 78.2937 24.434 78.2952 24.8711L78.3095 24.8682ZM85.3148 7.69518L80.0894 20.3373H85.9262L91.1516 7.68945L85.3148 7.69518Z" fill="#6001D2"></path><path d="M97.7792 13.5887C97.7792 12.109 98.6992 11.465 99.8705 11.465C100.401 11.4606 100.925 11.5761 101.405 11.8027V7.58389C100.631 7.24897 99.7933 7.08683 98.9505 7.10876C95.0166 7.10876 92.7023 9.53874 92.7023 13.4771V13.9265H90.834V18.0337H92.7023V27.8967H97.7792V18.0337H101.208V13.9265H97.7792V13.5887ZM108.064 27.8996V13.9293H102.968V27.8996H108.064ZM108.37 9.82209C108.36 9.06996 108.054 8.35222 107.519 7.8241C106.985 7.29597 106.264 6.99993 105.513 7C104.762 6.99993 104.041 7.29597 103.507 7.8241C102.972 8.35222 102.667 9.06996 102.656 9.82209C102.667 10.5742 102.972 11.292 103.507 11.8201C104.041 12.3482 104.762 12.6443 105.513 12.6442C106.264 12.6443 106.985 12.3482 107.519 11.8201C108.054 11.292 108.36 10.5742 108.37 9.82209ZM135.926 13.9293V15.4091C135.069 14.207 133.557 13.5372 131.883 13.5372C128.089 13.5372 125.329 16.8058 125.329 20.913C125.329 25.0202 128.06 28.2888 131.883 28.2888C133.557 28.2888 135.026 27.619 135.926 26.4169V27.8996H140.948V13.9293H135.926ZM136.066 20.913C136.065 21.2882 135.991 21.6594 135.845 22.0052C135.699 22.351 135.488 22.6645 135.221 22.9272C134.953 23.1898 134.636 23.3966 134.289 23.5353C133.941 23.6741 133.569 23.7419 133.194 23.7352C132.82 23.7423 132.447 23.6747 132.098 23.5361C131.751 23.3977 131.434 23.191 131.166 22.9282C130.899 22.6655 130.685 22.352 130.541 22.0059C130.395 21.66 130.32 21.2884 130.32 20.913C130.32 20.5377 130.395 20.1661 130.541 19.8201C130.685 19.4741 130.899 19.1606 131.166 18.8979C131.434 18.6351 131.751 18.4284 132.098 18.2899C132.447 18.1513 132.82 18.0837 133.194 18.0909C133.569 18.0841 133.941 18.152 134.289 18.2907C134.636 18.4295 134.953 18.6362 135.221 18.8989C135.488 19.1616 135.699 19.475 135.845 19.8208C135.991 20.1667 136.065 20.5379 136.066 20.913ZM151.719 27.8967H156.822V19.024C156.822 15.6151 154.952 13.52 151.965 13.52C150.319 13.52 148.979 14.2184 148.17 15.5236V13.9036H143.07V27.8738H148.176V20.4323C148.176 19.0011 148.874 18.1425 149.988 18.1425C151.102 18.1425 151.719 18.9267 151.719 20.2661V27.8967ZM118.835 27.8967H123.94V19.024C123.94 15.6151 122.072 13.52 119.084 13.52C117.438 13.52 116.101 14.2184 115.29 15.5236V13.9036H110.19V27.8738H115.292V20.4323C115.292 19.0011 115.99 18.1425 117.107 18.1425C118.224 18.1425 118.821 18.9267 118.821 20.2661L118.835 27.8967ZM158.215 20.9101C158.215 25.4382 161.452 28.2859 165.663 28.2859C166.824 28.291 167.971 28.0233 169.009 27.5046V22.8651C168.274 23.4072 167.386 23.7008 166.472 23.7037C164.687 23.7037 163.375 22.5874 163.375 20.9101C163.375 19.2329 164.715 18.1167 166.472 18.1167C167.377 18.1176 168.261 18.3898 169.009 18.8981V14.2613C167.988 13.7837 166.873 13.5356 165.746 13.5344C161.341 13.5344 158.215 16.6341 158.215 20.9101ZM179.746 23.1741C179.49 23.5477 179.143 23.8492 178.739 24.0496C178.333 24.2501 177.883 24.3429 177.432 24.319C176.094 24.319 175.006 23.4603 174.923 22.1953H184.546C184.582 21.8425 184.6 21.4881 184.6 21.1335C184.6 16.5539 181.643 13.5344 177.349 13.5344C176.373 13.5149 175.403 13.6931 174.498 14.0583C173.592 14.4235 172.769 14.9682 172.079 15.6597C171.388 16.3512 170.845 17.1752 170.481 18.0824C170.116 18.9895 169.939 19.9611 169.957 20.9389C169.957 25.3808 172.857 28.2859 177.403 28.2859C180.471 28.2859 182.759 27.1124 184.097 24.8513L179.746 23.1741ZM174.949 19.2902C175.061 18.1453 176.037 17.3897 177.32 17.3897C178.603 17.3897 179.551 18.1453 179.663 19.2902H174.949Z" fill="black"></path></g><defs><clipPath id="clip0_587_17202"><rect width="184.6" height="26" fill="white" transform="translate(0 7)"></rect></clipPath></defs></svg> 