<?xml version="1.0" encoding="UTF-8"?> <svg xmlns="http://www.w3.org/2000/svg" width="16" height="16" viewBox="0 0 16 16" fill="none"><path d="M8 2.51953C10.7097 -0.470255 16 1.10702 16 5.89355C15.9998 9.2711 13.4477 12.3902 8.50879 15.3096C8.19496 15.4951 7.80504 15.4951 7.49121 15.3096C2.55229 12.3902 0.000213272 9.2711 0 5.89355C0 1.10702 5.29025 -0.470255 8 2.51953ZM14 5.89355C14 2.66845 10.1877 1.92968 8.91113 4.75C8.55648 5.5335 7.44352 5.5335 7.08887 4.75C5.8123 1.92968 2 2.66845 2 5.89355C2.00023 8.30707 3.95152 10.7874 8 13.2812C12.0485 10.7874 13.9998 8.30707 14 5.89355Z" fill="#1A1A1A"></path></svg> 