<?xml version="1.0" encoding="UTF-8"?> <svg xmlns="http://www.w3.org/2000/svg" width="202" height="40" fill="none"> <path fill="#000" d="M59 13.96V28h-5.15V13.96h-5.2v-4.5H64.2v4.5H59Zm17.23 8.48H68a2.2 2.2 0 0 0 2.36 2.23c1.27 0 2.52-.34 3.61-.98l1.87 3.1a10.79 10.79 0 0 1-5.61 1.6c-4.22 0-6.5-2.97-6.5-7.24 0-4.8 2.7-7.28 6.36-7.28 3.65 0 6.2 2.53 6.2 7.7-.05.34-.05.63-.07.87Zm-6.33-5.1c-1.1 0-1.7.75-1.85 2.14h3.97c-.23-1.42-.71-2.14-2.12-2.14Zm15 11c-4.09 0-6.52-2.6-6.52-7.3 0-4.22 2.17-7.22 6.63-7.22a5.8 5.8 0 0 1 5.35 3.15l-3.28 2.52c-.66-1.2-1.11-1.8-2.15-1.8-1.04 0-1.82 1.22-1.82 3.43 0 2.2.66 3.35 1.96 3.35.9 0 1.53-.5 2.42-1.82l3.02 2.36c-1.63 2.4-3.13 3.33-5.6 3.33h-.01Zm15.95-.3v-7.9c0-1.82-.6-2.3-1.59-2.3-.98 0-1.62.48-1.62 2.24v7.96h-4.78V10.61l4.78-1.9v6.33a5.4 5.4 0 0 1 3.5-1.22c3.06 0 4.52 2.05 4.52 5.7v8.52h-4.81Zm17.08.3c-5.52 0-8.42-4.09-8.42-9.58 0-5.97 3.5-9.58 8.42-9.58 4.57 0 6.37 1.95 7.64 5.46l-4.66 1.83c-.67-1.73-1.3-2.81-3-2.81-2.15 0-3.08 2.15-3.08 5.1 0 2.95.9 5.08 3.13 5.08 1.62 0 2.3-.87 3.32-2.63l4.35 2.32a8 8 0 0 1-7.7 4.8v.01Zm18.89-8.98a2.98 2.98 0 0 0-2.22-1.16c-1.17 0-1.88.56-1.88 2.26v7.59h-4.78v-13.9h4.78v1.01a4.21 4.21 0 0 1 5.22-.71l-1.12 4.91Zm10.9 8.69v-.93a5.28 5.28 0 0 1-3.48 1.22c-3.05 0-4.5-2.05-4.5-5.72v-8.47h4.78v7.87c0 1.8.62 2.27 1.6 2.27.99 0 1.6-.47 1.6-2.22v-7.92h4.8V28.1l-4.8-.04Zm16.24 0v-7.91c0-1.82-.62-2.3-1.58-2.3-.97 0-1.63.48-1.63 2.24v7.96h-4.78V14.15h4.78v.93a5.4 5.4 0 0 1 3.51-1.22c3.06 0 4.51 2.05 4.51 5.7v8.53l-4.8-.04Zm13.82.3c-4.09 0-6.53-2.6-6.53-7.31 0-4.22 2.17-7.22 6.63-7.22a5.84 5.84 0 0 1 5.36 3.14l-3.28 2.49c-.68-1.2-1.13-1.8-2.15-1.8-1.03 0-1.84 1.22-1.84 3.43 0 2.2.66 3.35 1.96 3.35.9 0 1.55-.51 2.42-1.82l3.02 2.36c-1.62 2.45-3.13 3.37-5.6 3.37Zm15.69-.3v-7.91c0-1.82-.6-2.3-1.59-2.3-.98 0-1.62.48-1.62 2.24v7.96h-4.77V10.61l4.77-1.9v6.33a5.33 5.33 0 0 1 3.5-1.22c3.06 0 4.51 2.05 4.51 5.7v8.52h-4.8Z"></path> <path fill="#58B273" d="M6.17 8H0v6.67h6.17V28h6.16V14.67h6.17V8H6.17ZM30.83 8h-6.16v6.67H37V8h-6.17Z"></path> <path fill="#58B273" d="M24.67 14.67H18.5V28H37v-6.67H24.67v-6.66Z"></path> </svg> 