<?xml version="1.0" encoding="UTF-8"?> <svg xmlns="http://www.w3.org/2000/svg" id="Layer_1" x="0" y="0" viewBox="0 0 230 40" style="enable-background:new 0 0 230 40" xml:space="preserve"> <style>.st0{fill-rule:evenodd;clip-rule:evenodd}</style> <path d="M156.5 15.7v.6l2.3-.1v7c0 .8-.1 1.4-.1 2.1.1.7.2 1.2.4 1.6.2.3.8 1.5 2.8 1.5h1.2c.4 0 .7-.1 1.1-.3.4-.4.9-.8 1.4-1.2l-.2-.6c-.6.2-1.3.3-2 .3-.5-.1-.9-.2-1.1-.3-.2-.1-.4-.3-.5-.5-.1-.2-.2-.4-.3-.8-.1-.3-.1-1.2 0-2.7l.1-6.1h4l.3-1.4-.1-.1c-.5 0-3.4.1-4.2.1.1-2.8.3-4.7.4-5.5l-.4-.3c-.7.4-1.5.8-2.6 1.1v4.6c-.8.3-1.5.6-2.5 1zM11.3 27.5l.6-1-.3-.5c-2.1 1-2.6.9-3.4.9-1.8 0-3.9-1-4.8-3.2-.4-1.1-.7-2.4-.7-3.7 0-1.1.2-2 .5-2.8.7-1.5 1.9-2.2 3.6-2.2 1.2 0 2.3.4 3.2 1 .1.1.2.3.3.4.1.2.1.8.2 1.8h.9c.2-3.6.4-3.9.4-3.9-.4-.3-.9-.5-1.4-.6-.7-.2-1.5-.3-2.4-.3-1 0-1.8.1-2.4.4l-1.9 1c-.9.5-1.5.9-1.9 1.3-.5.5-.9 1.2-1.2 2-.4 1-.5 2-.5 3.1 0 2.2.6 4 1.9 5.2 1.2 1.3 3 1.9 5.1 1.9 1.3.3 2.9-.1 4.2-.8z"></path> <path class="st0" d="m17.2 17.6.8.2c.1-.3.4-.8.7-1.4l.3-.6c.1-.1.4-.3.8-.4 1.2-.4 2.5-.3 3.7.3 1.3.7 1.6 1.8 1.6 3.5-1.3.1-2.6.4-3.9.7-1 .2-1.9.5-2.9.9-.9.5-1.5 1.2-1.9 2.1-.3.7-1 3 .6 4.5.7.6 1.6 1 2.9 1 .6 0 1.1-.1 1.5-.3 1.3-.8 2.5-1.7 3.7-2.6l-.1 2.7c1.5-.1 3-.1 4.6 0v-.9s-1.4-.1-1.6-.2c-.1-.1-.2-.2-.3-.4-.1-.3-.1-.7-.1-1l.1-7.3a5 5 0 0 0-.4-2.3 4.69 4.69 0 0 0-4.7-2.5c-.8 0-1.5.1-2.1.3-.8.3-1.9.9-3.1 1.7v2h-.2zm4.4 3.3c1.1-.3 2.2-.5 3.3-.7h.1v4.1c-.6.7-1.3 1.2-2 1.7-.7.4-1.4.6-2 .6-.8 0-1.3-.2-1.7-.6-.4-.4-.6-1-.6-1.7 0-.6.1-1.1.4-1.7.2-.3.4-.6.6-.8.3-.3 1-.6 1.9-.9z"></path> <path d="M32.4 28.1v-.9h.9c.6 0 1.3-.1 1.3-.2.1-.1.2-.2.2-.3.1-.2.2-.6.2-1.1.1-2.7.1-4.1.1-4.2 0 0 0-5.1-.1-5.5-.1-.1-.2-.2-.3-.2-.1-.1-.8-.1-2-.1v-.9c2-.3 3.5-.6 4.5-1.1.2-.1.3-.1.4-.1s.1 0 .1.1.1.1.1.2v.2c-.1.6-.1 1.6-.1 2.8.5-.5.9-1 1.2-1.6 0 0 .7-.9.8-1 .3-.3.6-.5 1-.6.4-.1.8-.2 1.2-.2s.9.1 1.2.3l.1.2c-.1 1.2-.2 2.3-.2 3.5h-.6c-.2-.5-.5-.8-.8-1.1-.3-.2-.7-.3-1.2-.3-.8 0-1.4.3-2 1-.5.6-.8 1.6-.8 2.9l.1 6.4c0 .2.1.3.2.4 0 .1.2.1.3.2.3.1 1.1.2 2.4.3v.9c-1.5-.1-3-.1-4.5-.1-1.2.1-2.4.1-3.7.1z"></path> <path class="st0" d="m58.7 26.9.5-1.1-.2-.2c-.9.5-1.6.9-2.2 1.1-1.5.5-3.1.4-4.4-.3a3.9 3.9 0 0 1-2-2c-.5-1.1-.8-2.3-.8-3.5h4.8c1.1 0 2.2 0 3.3-.1.6 0 1.2-.1 1.9-.3v-1c0-2.7-1.2-4.3-2.7-5.1-.9-.5-2-.8-3-.8-2.2 0-3.4.8-4.4 1.5-.6.4-1 .8-1.3 1.1-.8.8-1.6 2.8-1.6 5.2.1 3.4 1.6 5.4 3.5 6.3 1.1.6 2.4.8 3.6.8 2.2 0 3.6-.7 5-1.6zm-7.6-7.2c-.8 0-1.4 0-1.6-.1 0-1.8.3-3.1 1.1-3.9.7-.8 1.7-1.2 2.7-1.2 1.1 0 2 .4 2.6 1.1.6.7 1 1.9 1 3.5v.5c-1.1.2-2.7.2-5.8.1zm24.1 6.1-.5 1.1c-.8.5-2.5 1.6-5 1.6-1.2 0-2.5-.2-3.6-.8-2-1-3.5-3.3-3.5-6.4 0-2.8.9-4.5 1.6-5.2.3-.4.8-.7 1.3-1.1.6-.4 1.2-.8 1.8-1 1.4-.5 3.5-.9 5.7.3 1.7.9 2.6 2.6 2.6 5.1 0 .3-.1 1-.1 1-.7.1-1.4.2-1.9.3-1.1.1-2.2.1-3.3.1h-4.8c0 1.4.3 2.6.8 3.5.5.9 1.1 1.5 2 2 1.4.7 3 .8 4.4.3.6-.2 1.4-.6 2.2-1.1l.3.3zm-9.6-6.2c.3 0 4.1.1 4.7.1 1.3 0 2.2 0 2.7-.1v-.5c0-1.6-.3-2.8-1-3.5-.6-.8-1.6-1.2-2.6-1.1-1 0-2.1.4-2.7 1.2-.7.9-1.1 2.1-1.1 3.9z"></path> <path d="M79.6 27.3v.9l3.6-.1c1.2 0 2.8 0 4.5.1v-.9c-1.3-.1-2.1-.2-2.4-.3-.1 0-.2-.1-.3-.2-.1-.1-.1-.2-.2-.4 0-.4-.1-2.9-.1-2.9V20c0-1.3.3-2.2.8-2.9.5-.6 1.2-1 2-1 .4 0 .8.1 1.2.3.3.3.6.6.8 1.1h.7c0-1 .1-2.2.2-3.5l-.1-.2c-.4-.2-.8-.3-1.2-.3-.8 0-1.6.3-2.2.9-.1.1-.3.4-.6.7-.4.7-.9 1.3-1.5 1.8 0-1.3 0-2.2.1-2.9v-.2c0-.1 0-.1-.1-.2l-.1-.1c-.1 0-.2.1-.4.1-.9.5-2.4.8-4.4 1.1v.9c1.2 0 1.8 0 2 .1.2.1.3.1.3.2.1.1.2 2.6.2 3.7v1.8c0 .1 0 1.5-.1 4.2 0 .5-.1.9-.2 1.1 0 .1-.1.2-.2.3-.1 0-.2.1-.4.1-.7.1-1.3.1-1.9.2zm35.2-.9-.6 1c-1.3.7-2.9 1.1-4.4 1-2.1 0-3.8-.6-5.1-1.9-1.2-1.3-1.9-3-1.9-5.2 0-2.4.8-4.2 1.8-5.1.3-.3 1-.8 1.9-1.3l.8-.4c1-.7 2.3-1.1 3.6-1 .9 0 1.7.1 2.4.3.5.1.9.4 1.4.6 0 0-.2.5-.4 3.9h-.9c-.1-1-.1-1.6-.2-1.8 0-.1-.1-.3-.3-.4-1-.7-2.1-1-3.3-1-2.1 0-3.1.9-3.6 2.2-.3.8-.5 1.7-.5 2.8 0 1.4.2 2.6.7 3.7.4 1 1.1 1.8 2 2.4.8.5 1.8.8 2.8.8.8 0 1.3 0 3.4-.9.1-.1.4.3.4.3z"></path> <path class="st0" d="M120.7 15.7a8.15 8.15 0 0 0-2.2 5.5c0 1.3.3 2.4.7 3.5.4 1 1.4 2.4 3.2 3.3.8.4 1.8.6 2.9.6 1.5 0 2.9-.3 4.1-1 1.2-.7 2.2-1.7 2.9-2.9.7-1.2 1.1-2.6 1-4a7 7 0 0 0-6.7-7.2h-.5c-2.1 0-3.9.7-5.4 2.2zm1.3 8.1c-.4-1.3-.6-2.5-.6-3.8 0-3.9 1.8-5.5 4.2-5.5.9 0 1.7.3 2.4.7s1.3 1.3 1.8 2.5.7 2.5.7 4.1c0 4-1.9 5.7-4.1 5.7-.9 0-1.8-.3-2.6-.9-.9-.7-1.5-1.7-1.8-2.8z"></path> <path d="M136.4 28.1v-.9h1.4c.2 0 .4-.1.5-.1.1 0 .2-.1.3-.2.1-.2.2-.5.2-1.1l.1-4.3v-1.8c0-.8-.1-2.6-.1-2.6-.1-1.2-.2-1.2-.5-1.3-.1-.1-.8-.1-2-.1v-.9c2.1-.3 3.5-.6 4.4-1.1.2-.1.4-.1.4-.1.1 0 .1 0 .2.1 0 .1.1.1.1.2v.2c0 .8-.1 1.5-.1 2.3l2.8-2.4c.8-.3 1.6-.5 2.3-.5.8 0 1.6.1 2.3.5 1.7.9 2.2 1.8 2.4 3.1.1.5.1 1.7.1 3.8v2.7c0 1.3 0 2.2.1 2.7.1.3.1.5.2.6.1.1.3.2.5.2h1.6v.9c-1.7-.1-3.5-.1-5.2 0 .1-2.5.2-4 .2-4.7v-2.5c0-1.6-.1-2.6-.2-3.1-.2-.7-.6-1.3-1.1-1.6-1.2-.8-3-.8-4.3-.1-.6.4-1.1.8-1.3 1.2-.3.7-.5 1.6-.4 2.4v1.8c.1 2.6.1 4 .1 4.2 0 .5.1.9.2 1.1 0 .1.1.2.2.2.1.1.3.1.5.1h1.6v.9c-1.1-.1-2.2-.1-3.3-.1-.5 0-1.5.1-2.8.1l-1.4.2z"></path> <path class="st0" d="m181.7 25.8-.5 1.1c-.7.4-1.2.7-1.5.9-1.1.5-2.3.8-3.5.8-4 0-7-2.6-7-7.1 0-1.2.1-2.2.5-3.1.2-.8.6-1.5 1.1-2.1.4-.5 1.9-1.6 3.2-2.1.8-.3 1.7-.5 2.6-.5 1.1 0 2.1.2 3.1.8.9.5 1.6 1.2 2 2.1.4.9.6 1.9.6 3 0 .2 0 .6-.1.9v.1c-.7.1-1.4.2-1.9.3-1.1.1-2.2.1-3.2.1h-4.9c0 1.4.3 2.6.8 3.5.5.9 1.1 1.5 2 2 1.4.7 3 .8 4.4.3.6-.2 1.4-.6 2.2-1.1l.1.1zm-9.7-6.2 7.4.1v-.5c0-1.6-.3-2.8-1-3.5-.6-.8-1.6-1.2-2.6-1.1-1.1 0-2 .4-2.7 1.2-.7.8-1.1 2-1.1 3.8z"></path> <path d="M187.6 23.6h-.9V26.2c0 .4-.1.8-.2 1.3v.4c.1.1.5.2 1.3.3 1.4.3 2.6.4 3.5.4 1.6.1 3.2-.5 4.5-1.5 1.1-.9 1.7-2.2 1.7-3.5 0-.7-.1-1.3-.4-1.8-.3-.5-.7-.8-1.2-1.1-.5-.2-1.4-.5-2.6-.8l-2.5-.6c-.4-.1-.8-.3-1.1-.5-.3-.2-.5-.4-.6-.7-.5-1-.2-2.1.6-2.9.6-.5 1.3-.8 2.1-.8.6 0 1.2.1 1.6.2.6.2 1.2.6 1.6 1.1l.3.6c.1.3.1.8.2 1.5h.9c0-1.1.1-2.3.1-3.4-1.4-.6-2.8-.9-4.3-.9-1.7 0-3.8.6-4.9 2.3a4.04 4.04 0 0 0 .5 4.9c.3.3.8.5 1.3.8.3.1 4.4 1 5 1.3.4.2.7.4.9.8.2.4.3.7.3 1.1 0 1-.3 1.7-1 2.2-.7.5-1.5.8-2.5.8-1.5 0-2-.1-2.3-.3-.6-.2-1.1-.6-1.4-1.3-.1-.3-.2-.7-.2-1-.2-.6-.3-1-.3-1.5zm14.1 0h.9c0 .6 0 1 .1 1.4.1.4.1.7.2 1 .1.4.3.6.6.8.2.2.5.4.8.5.4.2.7.3 2.3.3 2.4 0 3.5-1.5 3.5-3 0-.8-.4-1.5-1.2-1.9-.4-.2-1.2-.4-2.5-.7l-2.5-.6c-.6-.2-1-.5-1.3-.8a4.04 4.04 0 0 1-.5-4.9c.8-1.3 2.7-2.3 4.9-2.3 1.5 0 2.9.3 4.3.9-.1 1.1-.1 2.3-.1 3.4h-.9c-.1-.7-.1-1.2-.2-1.5-.1-.2-.1-.4-.3-.6-.4-.5-1-.9-1.6-1.1-.5-.2-1.1-.2-1.6-.2-.9 0-1.6.3-2.1.8-.8.7-1 1.9-.6 2.9.1.3.4.5.6.7.3.2.6.3 1.1.5l2.5.6c1.3.4 2.2.6 2.6.8.5.2.9.6 1.1 1.1.3.5.4 1.1.4 1.8 0 1.4-.6 2.6-1.7 3.5a6.31 6.31 0 0 1-4.5 1.5c-.9 0-2-.1-3.5-.4-.8-.1-1.2-.2-1.3-.3v-.4c.1-.4.1-.9.2-1.3-.1-.3-.1-1.1 0-2.2.3 0 .3-.3.3-.3z"></path> <path class="st0" d="m217.4 17.6.8.2c.1-.3.3-.8.6-1.4l.3-.5c.1-.1.4-.3.8-.4.4-.1 1-.2 1.6-.2.8 0 1.5.2 2.1.5 1.3.7 1.6 1.8 1.6 3.5-1.3.1-2.6.4-3.9.7-2.9.7-3.3 1-3.9 1.6-.5.6-1.3 1.8-1.2 3.2 0 2.1 1.3 3.6 3.9 3.6.6 0 1.1-.1 1.5-.3 1.3-.8 2.5-1.7 3.7-2.6l-.1 2.6c1.5-.1 3-.1 4.6 0v-.9l-.9-.1c-.2 0-.4 0-.6-.1-.1-.1-.2-.2-.3-.4-.1-.3-.1-.7-.1-1l.1-7.3c0-.8-.1-1.6-.4-2.3-.4-.8-1-1.4-1.8-1.9-1.9-1.1-4.3-.6-5-.3-.8.3-1.9.9-3.1 1.7l-.3 2.1zm4.4 3.3c1.1-.3 2.2-.5 3.4-.7v4.1c-.6.7-1.3 1.2-2 1.7-.7.4-1.4.6-2 .6-.8 0-1.3-.2-1.7-.6-.4-.4-.6-1-.6-1.7 0-.6.1-1.1.4-1.7.2-.3.4-.6.6-.8.3-.3 1-.6 1.9-.9z"></path> </svg> 