<?xml version="1.0" encoding="UTF-8"?> <svg xmlns="http://www.w3.org/2000/svg" width="48" height="48" viewBox="0 0 48 48" fill="none"> <path fill-rule="evenodd" clip-rule="evenodd" d="M30 8H18V10H16H14V12H12V14H10L10 18H8V30H10L10 32L10 34H12V36H14V38H16H18V40H30H32V38H34H36V36H38V34H40V32V30H42V18H40V16V14H38V12H36V10H34H32V8H30ZM32 10V12H34V14H36V16V18H38V30H36V32V34H34V36H32V38H30H18V36H16H14V34H12V32V30H10L10 18H12V14H14V12H16H18V10H30H32ZM32 18H30V20H28V22H26V24H24V26H22V28H20V26H18V24H16V26H18V28H20V30H22V28H24V26H26V24H28V22H30V20H32V18Z" fill="#1A1A1A"></path> </svg> 