<?xml version="1.0" encoding="UTF-8"?> <svg xmlns="http://www.w3.org/2000/svg" width="48" height="48" viewBox="0 0 48 48" fill="none"> <path fill-rule="evenodd" clip-rule="evenodd" d="M25 8H23H21V10H19V12V14V16V18V20H17H15H13H11H9L9 22H7V24V26V28V30V32V34V36H9V38H11V40H13H15H17H19H21H23H25H27H29H31H33H35H37H39V38H41V36V34V32V30V28V26V24V22V20V18V16V14V12V10H39V8H37H35H33H31H29H27H25ZM9 36V34V32V30V28V26L9 24L9 22H11H13H15H17H19V20H21V18V16V14V12V10H23H25H27H29H31H33H35H37V12V14V16V18V20V22V24V26V28V30V32V34V36H35H33H31H29H27H25H23H21H19H17H15H13H11H9ZM31 16V14H29V16V18V20V22V24V26V28H27H25H23H21V26H23V24H21V26H19V28H17V30H19V32H21V34H23V32H21V30H23H25H27H29V28H31V26V24V22V20V18V16ZM21 30V28H19V30H21Z" fill="#1A1A1A"></path> </svg> 