<?xml version="1.0" encoding="UTF-8"?> <svg xmlns="http://www.w3.org/2000/svg" width="25" height="24" viewBox="0 0 25 24" fill="none"><path fill-rule="evenodd" clip-rule="evenodd" d="M2.5 9.00195C2.5 7.60195 2.5 6.90195 2.772 6.36695C3.01173 5.89631 3.39435 5.51368 3.865 5.27395C4.4 5.00195 5.1 5.00195 6.5 5.00195H18.5C19.9 5.00195 20.6 5.00195 21.135 5.27395C21.6053 5.51385 21.9875 5.89646 22.227 6.36695C22.5 6.90195 22.5 7.60195 22.5 9.00195H2.5ZM2.5 11.002H22.5V15.002C22.5 16.402 22.5 17.102 22.227 17.637C21.9874 18.1071 21.6051 18.4893 21.135 18.729C20.6 19.002 19.9 19.002 18.5 19.002H6.5C5.1 19.002 4.4 19.002 3.865 18.729C3.39451 18.4895 3.0119 18.1072 2.772 17.637C2.5 17.102 2.5 16.402 2.5 15.002V11.002ZM5.5 15.002C5.5 15.2672 5.60536 15.5215 5.79289 15.7091C5.98043 15.8966 6.23478 16.002 6.5 16.002H9.5C9.76522 16.002 10.0196 15.8966 10.2071 15.7091C10.3946 15.5215 10.5 15.2672 10.5 15.002C10.5 14.7367 10.3946 14.4824 10.2071 14.2948C10.0196 14.1073 9.76522 14.002 9.5 14.002H6.5C6.23478 14.002 5.98043 14.1073 5.79289 14.2948C5.60536 14.4824 5.5 14.7367 5.5 15.002Z" fill="black" fill-opacity="0.83"></path></svg> 