<?xml version="1.0" encoding="UTF-8"?> <svg xmlns="http://www.w3.org/2000/svg" width="752" height="827" viewBox="0 0 752 827" fill="none"><path fill-rule="evenodd" clip-rule="evenodd" d="M-1.19249e-06 100C-5.33895e-07 44.7715 44.7715 -8.43361e-06 100 -1.016e-05L744 -1.78396e-05C748.418 -1.78923e-05 752 3.5817 752 7.99998L752 121L752 692C752 692.007 752 692.014 752 692.021L752 727C752 782.228 707.228 827 652 827L7.99999 827C3.58172 827 -9.81916e-06 823.418 -9.76648e-06 819L-8.34742e-06 700L-1.53831e-06 129L-1.19249e-06 100Z" fill="black"></path><path fill-rule="evenodd" clip-rule="evenodd" d="M-1.19249e-06 100C-5.33895e-07 44.7715 44.7715 -8.43361e-06 100 -1.016e-05L744 -1.78396e-05C748.418 -1.78923e-05 752 3.5817 752 7.99998L752 121L752 692C752 692.007 752 692.014 752 692.021L752 727C752 782.228 707.228 827 652 827L7.99999 827C3.58172 827 -9.81916e-06 823.418 -9.76648e-06 819L-8.34742e-06 700L-1.53831e-06 129L-1.19249e-06 100Z" fill="url(#paint0_linear_11963_31669)"></path><defs><linearGradient id="paint0_linear_11963_31669" x1="344.5" y1="480.5" x2="344.5" y2="380" gradientUnits="userSpaceOnUse"><stop stop-opacity="0"></stop><stop offset="1"></stop></linearGradient></defs></svg> 