<?xml version="1.0" encoding="UTF-8"?> <svg xmlns="http://www.w3.org/2000/svg" width="56" height="56" viewBox="0 0 56 56" fill="none"><mask id="path-1-inside-1_2402_25173" fill="white"><path d="M0 28C0 12.536 12.536 0 28 0V0C43.464 0 56 12.536 56 28V28C56 43.464 43.464 56 28 56V56C12.536 56 0 43.464 0 28V28Z"></path></mask><path d="M0 28C0 12.536 12.536 0 28 0V0C43.464 0 56 12.536 56 28V28C56 43.464 43.464 56 28 56V56C12.536 56 0 43.464 0 28V28Z" fill="#6CC989"></path><path d="M0 0H56H0ZM56 30C56 45.464 43.464 58 28 58C12.536 58 0 45.464 0 30V28C0 42.3594 12.536 54 28 54C43.464 54 56 42.3594 56 28V30ZM0 56V0V56ZM56 0V56V0Z" fill="#3AA65E" mask="url(#path-1-inside-1_2402_25173)"></path><ellipse cx="28" cy="24" rx="26" ry="24" fill="url(#paint0_linear_2402_25173)"></ellipse><path d="M22 20.6816C22.0003 19.5085 23.2869 18.7895 24.2861 19.4043L36.1738 26.7197C37.1256 27.3054 37.1256 28.6887 36.1738 29.2744L24.2861 36.5908C23.2868 37.2058 22.0001 36.4869 22 35.3135V20.6816Z" fill="#1A1A1A"></path><defs><linearGradient id="paint0_linear_2402_25173" x1="28" y1="0" x2="28" y2="21" gradientUnits="userSpaceOnUse"><stop stop-color="white" stop-opacity="0.15"></stop><stop offset="1" stop-color="#2A2A2A" stop-opacity="0"></stop></linearGradient></defs></svg> 