<?xml version="1.0" encoding="UTF-8"?> <svg xmlns="http://www.w3.org/2000/svg" width="25" height="24" viewBox="0 0 25 24" fill="none"><path fill-rule="evenodd" clip-rule="evenodd" d="M12.5 3.00195C15.2614 3.00195 17.5 5.24053 17.5 8.00195V10.0075C18.2696 10.0223 18.746 10.0763 19.135 10.2745C19.6054 10.5142 19.9878 10.8966 20.2275 11.367C20.5 11.9018 20.5 12.6019 20.5 14.002V17.002C20.5 18.4021 20.5 19.1022 20.2275 19.637C19.9878 20.1074 19.6054 20.4898 19.135 20.7295C18.6002 21.002 17.9001 21.002 16.5 21.002H8.5C7.09987 21.002 6.3998 21.002 5.86502 20.7295C5.39462 20.4898 5.01217 20.1074 4.77248 19.637C4.5 19.1022 4.5 18.4021 4.5 17.002V14.002C4.5 12.6019 4.5 11.9018 4.77248 11.367C5.01217 10.8966 5.39462 10.5142 5.86502 10.2745C6.25399 10.0763 6.73039 10.0223 7.5 10.0075V8.00195C7.5 5.24053 9.73858 3.00195 12.5 3.00195ZM15.5 8.00195V10.002H9.5V8.00195C9.5 6.3451 10.8431 5.00195 12.5 5.00195C14.1569 5.00195 15.5 6.3451 15.5 8.00195Z" fill="black" fill-opacity="0.83"></path></svg> 