<?xml version="1.0" encoding="UTF-8"?> <svg xmlns="http://www.w3.org/2000/svg" width="81" height="81" viewBox="0 0 81 81" fill="none"><mask id="path-1-inside-1_2401_24807" fill="white"><path d="M0.949219 40.1484C0.949219 18.057 18.8578 0.148438 40.9492 0.148438V0.148438C63.0406 0.148438 80.9492 18.057 80.9492 40.1484V40.1484C80.9492 62.2398 63.0406 80.1484 40.9492 80.1484V80.1484C18.8578 80.1484 0.949219 62.2398 0.949219 40.1484V40.1484Z"></path></mask><path d="M0.949219 40.1484C0.949219 18.057 18.8578 0.148438 40.9492 0.148438V0.148438C63.0406 0.148438 80.9492 18.057 80.9492 40.1484V40.1484C80.9492 62.2398 63.0406 80.1484 40.9492 80.1484V80.1484C18.8578 80.1484 0.949219 62.2398 0.949219 40.1484V40.1484Z" fill="#6CC989"></path><path d="M0.949219 0.148438H80.9492H0.949219ZM80.9492 42.1484C80.9492 64.2398 63.0406 82.1484 40.9492 82.1484C18.8578 82.1484 0.949219 64.2398 0.949219 42.1484V40.1484C0.949219 61.1353 18.8578 78.1484 40.9492 78.1484C63.0406 78.1484 80.9492 61.1353 80.9492 40.1484V42.1484ZM0.949219 80.1484V0.148438V80.1484ZM80.9492 0.148438V80.1484V0.148438Z" fill="#3AA65E" mask="url(#path-1-inside-1_2401_24807)"></path><ellipse cx="40.9492" cy="32.1484" rx="36" ry="32" fill="url(#paint0_linear_2401_24807)"></ellipse><path d="M34.9492 32.8301C34.9495 31.6569 36.2361 30.9379 37.2354 31.5527L49.123 38.8682C50.0748 39.4539 50.0748 40.8371 49.123 41.4229L37.2354 48.7393C36.236 49.3542 34.9493 48.6353 34.9492 47.4619V32.8301Z" fill="#1A1A1A"></path><defs><linearGradient id="paint0_linear_2401_24807" x1="40.9492" y1="0.148437" x2="40.9492" y2="28.1484" gradientUnits="userSpaceOnUse"><stop stop-color="white" stop-opacity="0.15"></stop><stop offset="1" stop-color="#2A2A2A" stop-opacity="0"></stop></linearGradient></defs></svg> 