<?xml version="1.0" encoding="UTF-8"?> <svg xmlns="http://www.w3.org/2000/svg" width="24" height="24" viewBox="0 0 24 24" fill="none"><path d="M9.00195 3.00488C9.55423 3.00559 10.0017 3.45357 10.001 4.00586C10.0002 4.55796 9.55206 5.00535 9 5.00488L5.5 5C5.22385 5 5 5.22393 5 5.5L5.00098 18.0771C5.00098 18.5354 5.02259 18.6477 5.08301 18.7607C5.12054 18.8309 5.17005 18.8805 5.24023 18.918C5.35322 18.9783 5.46573 19 5.92383 19H18.0781C18.5363 19 18.6487 18.9784 18.7617 18.918C18.8319 18.8805 18.8814 18.8309 18.9189 18.7607C18.9793 18.6478 19.001 18.5353 19.001 18.0771V15C19.001 14.4477 19.4487 14 20.001 14C20.5532 14.0001 21.001 14.4477 21.001 15V18.0771C21.001 18.8376 20.9191 19.2618 20.6826 19.7041C20.4586 20.1228 20.1238 20.4576 19.7051 20.6816C19.2626 20.9182 18.8386 21 18.0781 21H5.92383C5.16341 21 4.73926 20.9181 4.29688 20.6816C3.87815 20.4576 3.54327 20.1228 3.31934 19.7041C3.08274 19.2617 3.00098 18.8376 3.00098 18.0771L3 5.5C3 4.11939 4.11912 3.00016 5.50098 3L9.00195 3.00488ZM19.502 3.00293C20.3299 3.00353 21.001 3.67491 21.001 4.50293V10C21.001 10.5523 20.5532 10.9999 20.001 11C19.4487 11 19.001 10.5523 19.001 10V8.63867C19.001 7.88205 19.0867 7.12787 19.2568 6.39062L19.3467 6H19.0518C18.6506 6.6424 18.1773 7.2378 17.6406 7.77441L11.708 13.707C11.3175 14.0975 10.6845 14.0975 10.2939 13.707C9.90341 13.3165 9.90341 12.6835 10.2939 12.293L16.2373 6.34863C16.7708 5.81515 17.3629 5.34494 18.001 4.94531V4.6543L17.6104 4.74414C16.8731 4.91426 16.1189 4.99997 15.3623 5H14.001C13.4487 5 13.001 4.55228 13.001 4C13.001 3.44772 13.4487 3 14.001 3L19.502 3.00293Z" fill="black" fill-opacity="0.83"></path></svg> 