<?xml version="1.0" encoding="UTF-8"?> <svg xmlns="http://www.w3.org/2000/svg" width="1248" height="578" viewBox="0 0 1248 578" fill="none"><path fill-rule="evenodd" clip-rule="evenodd" d="M1248 56C1248 47.1634 1240.84 40 1232 40L1114 40C1109.58 40 1106 36.4183 1106 32L1106 16C1106 7.16345 1098.84 -1.77876e-06 1090 -1.88413e-06L100 1.06281e-05C44.7715 1.12867e-05 -5.33895e-07 44.7715 -1.19249e-06 100L-6.22479e-06 522C-6.33016e-06 530.837 7.16345 538 16 538L134 538C138.418 538 142 541.582 142 546L142 562C142 570.837 149.163 578 158 578L1148 578C1203.23 578 1248 533.228 1248 478L1248 56Z" fill="black"></path><path fill-rule="evenodd" clip-rule="evenodd" d="M1248 56C1248 47.1634 1240.84 40 1232 40L1114 40C1109.58 40 1106 36.4183 1106 32L1106 16C1106 7.16345 1098.84 -1.77876e-06 1090 -1.88413e-06L100 1.06281e-05C44.7715 1.12867e-05 -5.33895e-07 44.7715 -1.19249e-06 100L-6.22479e-06 522C-6.33016e-06 530.837 7.16345 538 16 538L134 538C138.418 538 142 541.582 142 546L142 562C142 570.837 149.163 578 158 578L1148 578C1203.23 578 1248 533.228 1248 478L1248 56Z" fill="url(#paint0_linear_13523_2148)"></path><path fill-rule="evenodd" clip-rule="evenodd" d="M1248 56C1248 47.1634 1240.84 40 1232 40L1114 40C1109.58 40 1106 36.4183 1106 32L1106 16C1106 7.16345 1098.84 -1.77876e-06 1090 -1.88413e-06L100 1.06281e-05C44.7715 1.12867e-05 -5.33895e-07 44.7715 -1.19249e-06 100L-6.22479e-06 522C-6.33016e-06 530.837 7.16345 538 16 538L134 538C138.418 538 142 541.582 142 546L142 562C142 570.837 149.163 578 158 578L1148 578C1203.23 578 1248 533.228 1248 478L1248 56Z" fill="url(#paint1_linear_13523_2148)"></path><defs><linearGradient id="paint0_linear_13523_2148" x1="605" y1="287" x2="326" y2="287" gradientUnits="userSpaceOnUse"><stop stop-opacity="0"></stop><stop offset="1"></stop></linearGradient><linearGradient id="paint1_linear_13523_2148" x1="624" y1="462" x2="624" y2="539" gradientUnits="userSpaceOnUse"><stop stop-opacity="0"></stop><stop offset="1"></stop></linearGradient></defs></svg> 