<?xml version="1.0" encoding="UTF-8"?> <svg xmlns="http://www.w3.org/2000/svg" width="48" height="48" viewBox="0 0 48 48" fill="none"><path d="M21.002 15.0049C21.5542 15.0056 22.0017 15.4536 22.001 16.0059C22.0002 16.558 21.5521 17.0053 21 17.0049L17.5 17C17.2239 17 17 17.2239 17 17.5L17.001 30.0771C17.001 30.5354 17.0226 30.6477 17.083 30.7607C17.1205 30.8309 17.1701 30.8805 17.2402 30.918C17.3532 30.9783 17.4657 31 17.9238 31H30.0781C30.5363 31 30.6487 30.9784 30.7617 30.918C30.8319 30.8805 30.8814 30.8309 30.9189 30.7607C30.9793 30.6478 31.001 30.5353 31.001 30.0771V27C31.001 26.4477 31.4487 26 32.001 26C32.5532 26.0001 33.001 26.4477 33.001 27V30.0771C33.001 30.8376 32.9191 31.2618 32.6826 31.7041C32.4586 32.1228 32.1238 32.4576 31.7051 32.6816C31.2626 32.9182 30.8386 33 30.0781 33H17.9238C17.1634 33 16.7393 32.9181 16.2969 32.6816C15.8782 32.4576 15.5433 32.1228 15.3193 31.7041C15.0827 31.2617 15.001 30.8376 15.001 30.0771L15 17.5C15 16.1194 16.1191 15.0002 17.501 15L21.002 15.0049ZM31.502 15.0029C32.3299 15.0035 33.001 15.6749 33.001 16.5029V22C33.001 22.5523 32.5532 22.9999 32.001 23C31.4487 23 31.001 22.5523 31.001 22V20.6387C31.001 19.882 31.0867 19.1279 31.2568 18.3906L31.3467 18H31.0518C30.6506 18.6424 30.1773 19.2378 29.6406 19.7744L23.708 25.707C23.3175 26.0975 22.6845 26.0975 22.2939 25.707C21.9034 25.3165 21.9034 24.6835 22.2939 24.293L28.2373 18.3486C28.7708 17.8151 29.3629 17.3449 30.001 16.9453V16.6543L29.6104 16.7441C28.8731 16.9143 28.1189 17 27.3623 17H26.001C25.4487 17 25.001 16.5523 25.001 16C25.001 15.4477 25.4487 15 26.001 15L31.502 15.0029Z" fill="#1A1A1A"></path></svg> 