<?xml version="1.0" encoding="UTF-8"?> <svg xmlns="http://www.w3.org/2000/svg" width="24" height="24" viewBox="0 0 24 24" fill="none"><path fill-rule="evenodd" clip-rule="evenodd" d="M8 5V4C8 2.34315 9.34315 1 11 1H13C14.6569 1 16 2.34315 16 4V5H19C20.6569 5 22 6.34315 22 8V16C22 17.6569 20.6569 19 19 19H5C3.34315 19 2 17.6569 2 16V8C2 6.34315 3.34315 5 5 5H8ZM11 3H13C13.5523 3 14 3.44772 14 4V5H10V4C10 3.44772 10.4477 3 11 3ZM5 7C4.44772 7 4 7.44772 4 8C4 8.55229 4.44772 9 5 9H19C19.5523 9 20 8.55228 20 8C20 7.44771 19.5523 7 19 7H5ZM20 16V10.8293C19.6872 10.9398 19.3506 11 19 11H5C4.64936 11 4.31278 10.9398 4 10.8293V16C4 16.5523 4.44772 17 5 17H19C19.5523 17 20 16.5523 20 16Z" fill="black" fill-opacity="0.83"></path></svg> 