<?xml version="1.0" encoding="UTF-8"?> <svg xmlns="http://www.w3.org/2000/svg" width="60" height="60" viewBox="0 0 60 60" fill="none"> <g clip-path="url(#clip0_1301_23210)"> <path d="M48 0H12C5.37258 0 0 5.37258 0 12V48C0 54.6274 5.37258 60 12 60H48C54.6274 60 60 54.6274 60 48V12C60 5.37258 54.6274 0 48 0Z" fill="black" fill-opacity="0.3"></path> <path d="M25.0926 33.0015H22.5C21.6716 33.0015 21 32.3299 21 31.5015V28.5015C21 27.673 21.6716 27.0015 22.5 27.0015H25.0926L30.2741 21.533C30.8958 20.8768 32 21.3168 32 22.2208V37.7822C32 38.6862 30.8958 39.1262 30.2741 38.47L25.0926 33.0015Z" fill="black" fill-opacity="0.83"></path> <path d="M34.2926 28.2078C33.9022 27.8171 33.9025 27.1839 34.2932 26.7936C34.6839 26.4032 35.317 26.4035 35.7074 26.7941L37.5006 28.5888L39.2932 26.7977C39.6839 26.4073 40.317 26.4076 40.7074 26.7983C41.0978 27.189 41.0975 27.8221 40.7068 28.2125L38.9142 30.0036L40.7074 31.7983C41.0978 32.189 41.0975 32.8222 40.7068 33.2125C40.3161 33.6029 39.683 33.6026 39.2926 33.2119L37.4994 31.4173L35.7068 33.2084C35.3161 33.5987 34.683 33.5985 34.2926 33.2078C33.9022 32.8171 33.9025 32.1839 34.2932 31.7936L36.0858 30.0025L34.2926 28.2078Z" fill="black" fill-opacity="0.83"></path> </g> <defs> <clipPath id="clip0_1301_23210"> <rect width="60" height="60" fill="white"></rect> </clipPath> </defs> </svg> 