<?xml version="1.0" encoding="UTF-8"?> <svg xmlns="http://www.w3.org/2000/svg" width="60" height="60" viewBox="0 0 60 60" fill="none"> <g clip-path="url(#clip0_1301_23205)"> <path d="M48 0H12C5.37258 0 0 5.37258 0 12V48C0 54.6274 5.37258 60 12 60H48C54.6274 60 60 54.6274 60 48V12C60 5.37258 54.6274 0 48 0Z" fill="black" fill-opacity="0.3"></path> <path d="M25.0926 33.0015H22.5C21.6716 33.0015 21 32.3299 21 31.5015V28.5015C21 27.673 21.6716 27.0015 22.5 27.0015H25.0926L30.2741 21.533C30.8958 20.8768 32 21.3168 32 22.2208V37.7822C32 38.6862 30.8958 39.1262 30.2741 38.47L25.0926 33.0015Z" fill="black" fill-opacity="0.83"></path> <path d="M38.0743 37.0722C37.6838 37.4628 37.0507 37.4628 36.6601 37.0723C36.2696 36.6818 36.2695 36.0486 36.66 35.6581C38.1511 34.1668 39.0029 32.1529 39.0029 30.0015C39.0029 27.8502 38.1512 25.8363 36.6602 24.345C36.2697 23.9545 36.2697 23.3213 36.6603 22.9308C37.0508 22.5403 37.684 22.5404 38.0745 22.9309C39.9368 24.7935 41.0029 27.3143 41.0029 30.0015C41.0029 32.6887 39.9367 35.2096 38.0743 37.0722Z" fill="black" fill-opacity="0.83"></path> <path d="M34.3991 33.8028C34.8405 34.1348 35.4674 34.046 35.7994 33.6046C36.5747 32.5734 37.0013 31.3184 37.0013 30.0015C37.0013 28.6876 36.5767 27.4353 35.8046 26.4054C35.4733 25.9635 34.8465 25.8738 34.4046 26.2051C33.9627 26.5364 33.8731 27.1631 34.2043 27.605C34.7191 28.2917 35.0013 29.1239 35.0013 30.0015C35.0013 30.8811 34.7178 31.7151 34.2008 32.4026C33.8689 32.844 33.9577 33.4709 34.3991 33.8028Z" fill="black" fill-opacity="0.83"></path> </g> <defs> <clipPath id="clip0_1301_23205"> <rect width="60" height="60" fill="white"></rect> </clipPath> </defs> </svg> 