<?xml version="1.0" encoding="UTF-8"?> <svg xmlns="http://www.w3.org/2000/svg" width="337" height="255" viewBox="0 0 337 255" fill="none"> <path d="M211.199 172.578C211.199 172.578 259.614 152.042 266.049 147.787C268.806 145.975 271.721 144.414 274.758 143.125L298.167 107.333L315.74 109.819L330.846 127.066C330.846 127.066 318.984 157.188 280.604 190.336C257.188 210.568 232.635 220.083 218.06 220.083C212.071 220.111 211.199 172.578 211.199 172.578Z" fill="#CE907A"></path> <path d="M16.2092 64.5744C16.2092 64.5744 12.2101 63.6267 10.5991 67.0193C9.65148 69.0093 12.3239 73.6528 12.3239 73.6528C12.3239 73.6528 4.35421 81.0633 4.59112 83.8494C5.27342 91.9043 7.56667 114.657 10.5896 125.479C25.0317 177.183 47.4149 184.517 47.4149 184.517L57.8207 139.189C57.8207 139.189 51.9728 125.488 47.4149 111.254C40.4024 89.3537 36.2707 80.6464 31.1345 75.4533C22.312 66.3181 16.2092 64.5744 16.2092 64.5744Z" fill="#CE907A"></path> <path d="M224.379 220.139C278.328 211.724 323.076 143.447 322.706 144.006" stroke="#131313" stroke-width="2.10831" stroke-miterlimit="10"></path> <path d="M58.3481 137.607L96.7872 150.052L146.368 158.438L223.022 169.545L224.387 220.139C203.294 223.521 192.752 222.994 192.752 222.994L204.212 254.15H101.535L78.1091 195.946C78.1091 195.946 62.1319 197.68 46.2305 186.053L58.3481 137.607Z" fill="#131313" stroke="#131313" stroke-width="2.10831" stroke-miterlimit="10"></path> <path d="M6.5625 101.959C6.5625 101.959 14.9681 158.211 41.7958 182.509C43.2089 183.793 44.6893 185.001 46.2307 186.129" stroke="#131313" stroke-width="2.10831" stroke-miterlimit="10"></path> <path d="M156.911 110.2L153.222 107.037C151.321 103.867 150.13 103.268 148.88 99.789C147.987 97.0819 147.411 94.2802 147.165 91.4403C145.039 91.4967 143.011 92.345 141.479 93.8189C140.549 94.7889 139.818 95.9318 139.328 97.183C136.598 94.1592 128.976 87.5352 122.124 77.5208C106.479 78.7148 111.583 98.6038 111.583 98.6038C111.583 98.6038 132.107 106.309 140.057 115.378C145.185 121.286 150.673 126.872 156.489 132.104C156.489 132.104 167.345 121.372 156.911 110.2Z" fill="#131313" stroke="#131313" stroke-width="2.10831" stroke-miterlimit="10"></path> <path d="M291.254 112.317C291.254 112.317 304.322 103.059 312.927 97.0226C324.043 89.233 332.074 87.9396 332.956 94.9142C333.903 102.836 323.047 106.588 310.291 118.633" fill="#CE907A"></path> <path d="M291.254 112.317C291.254 112.317 304.322 103.059 312.927 97.0226C324.043 89.233 332.074 87.9396 332.956 94.9142C333.903 102.836 323.047 106.588 310.291 118.633" stroke="#131313" stroke-width="2.10831" stroke-miterlimit="10"></path> <path d="M330.107 127.811C330.107 127.811 339.64 133.809 332.95 141.874C326.259 149.938 316.176 154.193 313.551 145.968C310.927 137.742 330.107 127.811 330.107 127.811Z" fill="#CE907A" stroke="#131313" stroke-width="2.10831" stroke-miterlimit="10"></path> <path d="M326.987 117.946C326.987 117.946 336.511 123.944 329.83 132.009C323.149 140.073 308.982 150.014 306.376 141.826C303.77 133.638 326.987 117.946 326.987 117.946Z" fill="#CE907A" stroke="#131313" stroke-width="2.10831" stroke-miterlimit="10"></path> <path d="M223.023 169.545L274.585 143.958" stroke="#131313" stroke-width="2.10831" stroke-miterlimit="10"></path> <path d="M157.097 135.462C157.097 154.178 142.983 172.222 122.034 167.378C101.086 162.535 93.7395 149.596 98.0685 125.332C102.398 101.067 108.815 94.1257 126.867 98.5701C157.097 108.091 151.64 120.741 151.64 130.756C156.911 130.756 157.097 127.41 157.097 135.462Z" fill="#CE907A" stroke="#131313" stroke-width="2.10831" stroke-miterlimit="10"></path> <path d="M318.346 112.26C318.346 112.26 331.954 115.102 325.245 123.195C318.535 131.288 301.667 144.991 299.042 136.784C296.417 128.578 318.346 112.26 318.346 112.26Z" fill="#CE907A" stroke="#131313" stroke-width="2.10831" stroke-miterlimit="10"></path> <path d="M273.939 148.896C273.939 148.896 278.772 102.035 294.532 102.641C307.694 103.144 317.57 132.588 306.075 130.228C294.58 127.869 293.952 116.524 293.952 116.524" fill="#CE907A"></path> <path d="M273.939 148.896C273.939 148.896 278.772 102.035 294.532 102.641C307.694 103.144 317.57 132.588 306.075 130.228C294.58 127.869 293.952 116.524 293.952 116.524" stroke="#131313" stroke-width="2.10831" stroke-miterlimit="10"></path> <path d="M137.954 132.007C139.972 129.775 139.295 125.874 136.442 123.294C133.589 120.714 129.64 120.432 127.621 122.664C125.603 124.897 126.28 128.798 129.133 131.377C131.986 133.957 135.936 134.239 137.954 132.007Z" fill="white" stroke="#131313" stroke-width="2.10831" stroke-miterlimit="10"></path> <path d="M117.521 124.844C119.55 122.6 118.869 118.678 116.001 116.084C113.132 113.49 109.161 113.206 107.133 115.45C105.104 117.694 105.785 121.616 108.653 124.21C111.522 126.804 115.493 127.087 117.521 124.844Z" fill="white" stroke="#131313" stroke-width="2.10831" stroke-miterlimit="10"></path> <path d="M129.064 121.992C129.064 121.992 131.206 124.01 131.206 126.332C131.125 127.801 130.516 129.191 129.491 130.246C129.491 130.246 126.098 127.005 126.809 124.475C127.52 121.944 129.064 121.992 129.064 121.992Z" fill="#131313" stroke="#131313" stroke-width="2" stroke-miterlimit="10"></path> <path d="M109.626 114.095C111.022 115.622 111.848 117.49 111.993 119.444C112.036 120.199 111.881 120.951 111.541 121.645C111.201 122.339 109.864 123.603 109.21 124.094C109.21 124.094 106.348 120.281 107.138 117.154C107.927 114.027 109.626 114.095 109.626 114.095Z" fill="#131313" stroke="#131313" stroke-width="2" stroke-miterlimit="10"></path> <path d="M152.785 130.36C154.038 130.14 155.304 130.004 156.575 129.952C157.686 130.047 158.767 130.363 159.753 130.882C160.74 131.401 161.613 132.113 162.32 132.975C163.026 133.838 163.553 134.833 163.869 135.902C164.184 136.972 164.282 138.093 164.156 139.201C163.967 141.481 162.898 143.598 161.175 145.104C159.452 146.609 157.211 147.384 154.926 147.266C153.911 147.199 152.918 146.942 151.998 146.508" fill="#CE907A"></path> <path d="M152.785 130.36C154.038 130.14 155.304 130.004 156.575 129.952C157.686 130.047 158.767 130.363 159.753 130.882C160.74 131.401 161.613 132.113 162.32 132.975C163.026 133.838 163.553 134.833 163.869 135.902C164.184 136.972 164.282 138.093 164.156 139.201C163.967 141.481 162.898 143.598 161.175 145.104C159.452 146.609 157.211 147.384 154.926 147.266C153.911 147.199 152.918 146.942 151.998 146.508" stroke="#131313" stroke-width="2.10831" stroke-miterlimit="10"></path> <path d="M120.004 120.011C120.004 120.011 114.394 125.612 111.362 131.383C109.741 134.453 109.39 138.879 112.688 140.092C115.694 141.156 118.944 141.32 122.041 140.566" fill="#CE907A"></path> <path d="M120.004 120.011C120.004 120.011 114.394 125.612 111.362 131.383C109.741 134.453 109.39 138.879 112.688 140.092C115.694 141.156 118.944 141.32 122.041 140.566" stroke="#131313" stroke-width="2.10831" stroke-miterlimit="10"></path> <path d="M24.6152 89.6436L30.9402 129.701" stroke="#131313" stroke-width="2.10831" stroke-miterlimit="10"></path> <path d="M15.127 1.09448L21.4519 65.3979" stroke="#131313" stroke-width="2.10831" stroke-miterlimit="10"></path> <path d="M19.4788 38.7797C28.2606 37.4887 37.2014 37.7582 45.8895 39.5757C62.7196 43.3663 65.7901 49.2701 86.1359 49.2795C105.345 49.2795 108.813 36.3537 108.813 36.3537C108.813 36.3537 100.133 36.657 92.504 33.4066C86.098 30.6774 82.4875 29.3222 66.3586 12.5585C50.2298 -4.20529 15.6504 2.36185 15.6504 2.36185L19.4788 38.7797Z" fill="white" stroke="#131313" stroke-width="2.10831" stroke-miterlimit="10"></path> <path d="M5.20704 86.5601C5.20704 86.5601 -0.0618002 109.455 5.20708 112.308C11.272 115.596 12.4921 108.091 12.4921 108.091" fill="#CE907A"></path> <path d="M5.20704 86.5601C5.20704 86.5601 -0.0618003 109.455 5.20708 112.308C11.272 115.596 12.4921 108.091 12.4921 108.091" stroke="#131313" stroke-width="2.10831" stroke-miterlimit="10"></path> <path d="M11.4541 74.3591C11.4541 74.3591 1.7549 79.8032 1.42322 90.1704C1.09155 100.538 12.1914 109.606 18.5312 109.37C24.8709 109.133 21.232 101.788 21.232 101.788" fill="#CE907A"></path> <path d="M11.4541 74.3591C11.4541 74.3591 1.7549 79.8032 1.42322 90.1704C1.09155 100.538 12.1914 109.606 18.5312 109.37C24.8709 109.133 21.232 101.788 21.232 101.788" stroke="#131313" stroke-width="2.10831" stroke-miterlimit="10"></path> <path d="M10.9097 72.7769C-5.95677 82.2642 21.2495 106.46 26.6795 101.722C29.5224 99.201 17.7616 82.7913 17.7616 82.7913" fill="#CE907A"></path> <path d="M10.9097 72.7769C-5.95677 82.2642 21.2495 106.46 26.6795 101.722C29.5224 99.201 17.7616 82.7913 17.7616 82.7913" stroke="#131313" stroke-width="2.10831" stroke-miterlimit="10"></path> <path d="M59.4215 6.52197H58C58.4833 6.76836 58.9476 7.01473 59.4215 7.28007V6.52197Z" fill="#131313"></path> <path d="M16.085 6.52189H23.6661V1.42358C18.8331 1.79316 15.668 2.37122 15.668 2.37122L16.085 6.52189Z" fill="#131313"></path> <path d="M35.5795 6.52197H23.6582V18.4433H35.5795V6.52197Z" fill="#131313"></path> <path d="M47.5015 6.52202V2.81671C43.5794 1.95559 39.5912 1.42936 35.5801 1.24365V6.52202H47.5015Z" fill="#131313"></path> <path d="M47.502 18.4432H59.4232V7.32744C58.9589 7.0621 58.4756 6.81572 58.0018 6.56934H47.502V18.4432Z" fill="#131313"></path> <path d="M72.1212 18.4434C71.8748 18.197 71.6094 17.9411 71.3535 17.6758V18.4434H72.1212Z" fill="#131313"></path> <path d="M47.5014 18.4434H35.5801V30.3647H47.5014V18.4434Z" fill="#131313"></path> <path d="M59.4232 30.3647H47.502V39.9643C50.1266 40.6104 52.7169 41.3885 55.2631 42.2956H59.4232V30.3647Z" fill="#131313"></path> <path d="M71.353 18.4434H59.4316V30.3647H71.353V18.4434Z" fill="#131313"></path> <path d="M83.2748 30.3743H71.3535V42.2956H83.2748V30.3743Z" fill="#131313"></path> <path d="M83.2754 30.3644H86.2225C85.2072 29.7581 84.2235 29.1002 83.2754 28.3933V30.3644Z" fill="#131313"></path> <path d="M95.2051 34.4019V42.2957H105.193C105.892 41.5247 106.526 40.6974 107.089 39.8223V36.3445C103.058 36.2349 99.0607 35.5815 95.2051 34.4019Z" fill="#131313"></path> <path d="M59.4219 42.2957V43.8497C63.2896 45.4863 67.2785 46.8201 71.3526 47.8393V42.2957H59.4219Z" fill="#131313"></path> <path d="M83.2754 42.2957V49.2323C84.223 49.2323 85.1707 49.2323 86.1183 49.2323C89.1794 49.2652 92.2306 48.8795 95.1872 48.0857V42.2957H83.2754Z" fill="#131313"></path> <path d="M23.6475 18.4434H17.3457L18.5966 30.3741H23.6475V18.4434Z" fill="#131313"></path> <path d="M23.6484 30.3647V38.2775C27.6161 37.9315 31.604 37.8809 35.5792 38.1259V30.3647H23.6484Z" fill="#131313"></path> <path d="M111.6 149.114C112.67 149.464 120.394 154.174 126.658 150.45L111.6 149.114Z" fill="#CE907A"></path> <path d="M111.6 149.114C112.67 149.464 120.394 154.174 126.658 150.45" stroke="#131313" stroke-width="2.10831" stroke-miterlimit="10"></path> <path d="M207.823 224.575H188.008" stroke="#60AEFF" stroke-width="2.10831" stroke-miterlimit="10"></path> <path d="M80.2997 208.521L69.7051 182.072" stroke="#60AEFF" stroke-width="2.10831" stroke-miterlimit="10"></path> <path d="M58.3487 139.716C58.3487 139.716 40.4228 85.0529 32.8038 77.0738C27.6013 71.6438 22.4745 65.7021 18.1059 64.8113C13.5098 63.9206 9.88036 65.9865 10.7427 71.3122C11.8609 78.2489 30.6432 95.5149 30.6432 95.5149" stroke="#131313" stroke-width="2.10831" stroke-miterlimit="10"></path> </svg> 