<?xml version="1.0" encoding="UTF-8"?> <svg xmlns="http://www.w3.org/2000/svg" width="60" height="60" viewBox="0 0 60 60" fill="none"> <rect width="60" height="60" rx="12" fill="#FF8F60"></rect> <path fill-rule="evenodd" clip-rule="evenodd" d="M23.1635 21.819C23 22.1399 23 22.5599 23 23.4V36.6C23 37.4401 23 37.8601 23.1635 38.181C23.3073 38.4632 23.5368 38.6927 23.819 38.8365C24.1399 39 24.5599 39 25.4 39H25.6C26.4401 39 26.8601 39 27.181 38.8365C27.4632 38.6927 27.6927 38.4632 27.8365 38.181C28 37.8601 28 37.4401 28 36.6V23.4C28 22.5599 28 22.1399 27.8365 21.819C27.6927 21.5368 27.4632 21.3073 27.181 21.1635C26.8601 21 26.4401 21 25.6 21H25.4C24.5599 21 24.1399 21 23.819 21.1635C23.5368 21.3073 23.3073 21.5368 23.1635 21.819ZM32.1635 21.819C32 22.1399 32 22.5599 32 23.4V36.6C32 37.4401 32 37.8601 32.1635 38.181C32.3073 38.4632 32.5368 38.6927 32.819 38.8365C33.1399 39 33.5599 39 34.4 39H34.6C35.4401 39 35.8601 39 36.181 38.8365C36.4632 38.6927 36.6927 38.4632 36.8365 38.181C37 37.8601 37 37.4401 37 36.6V23.4C37 22.5599 37 22.1399 36.8365 21.819C36.6927 21.5368 36.4632 21.3073 36.181 21.1635C35.8601 21 35.4401 21 34.6 21H34.4C33.5599 21 33.1399 21 32.819 21.1635C32.5368 21.3073 32.3073 21.5368 32.1635 21.819Z" fill="black" fill-opacity="0.83"></path> </svg> 