<?xml version="1.0" encoding="UTF-8"?> <svg xmlns="http://www.w3.org/2000/svg" width="304" height="190" viewBox="0 0 304 190" fill="none"> <path d="M4.624 70.5347L2.41226 72.7151C1.80655 73.3118 1.3726 74.0605 1.15609 74.8827C0.939589 75.7048 0.948455 76.5701 1.18176 77.3877L32.3944 186.515C32.8341 188.053 33.7629 189.407 35.04 190.371C36.3171 191.334 37.8734 191.856 39.4734 191.857H41.0309L4.624 70.5347Z" fill="#131313" stroke="#131313" stroke-width="2" stroke-miterlimit="10"></path> <path d="M35.8296 190.517H150.72L116.657 72.489C116.288 71.232 115.522 70.1284 114.473 69.3436C113.424 68.5588 112.149 68.135 110.84 68.1357H8.57314C7.62947 68.1353 6.69888 68.3554 5.85528 68.7783C5.01169 69.2012 4.27853 69.8154 3.71427 70.5717C3.15001 71.3281 2.7701 72.2058 2.60507 73.1349C2.44005 74.064 2.49437 75.0189 2.76364 75.9233L35.8296 190.517Z" fill="white" stroke="#131313" stroke-width="2" stroke-miterlimit="10"></path> <path d="M177.61 191.872H41.0708L35.5494 189.544L33.291 182.823H177.61V191.872Z" fill="#131313" stroke="#131313" stroke-width="2" stroke-miterlimit="10"></path> <path d="M36.9969 158.417H134.155L110.613 77.6523H13.4707L36.9969 158.417Z" fill="#FF8F60" stroke="#131313" stroke-width="2" stroke-miterlimit="10"></path> <path d="M108.192 147.445L96.9159 132.399C95.1273 130.498 92.9685 128.983 90.5725 127.948C88.1765 126.913 85.5939 126.379 82.9838 126.379H77.0576C69.1298 126.379 62.3078 127.937 59.1927 138.691L56.5996 147.445H108.192Z" fill="#FF8F60" stroke="#131313" stroke-width="2" stroke-miterlimit="10"></path> <path d="M77.618 133.038C80.5125 133.038 82.859 130.691 82.859 127.797C82.859 124.902 80.5125 122.556 77.618 122.556C74.7234 122.556 72.377 124.902 72.377 127.797C72.377 130.691 74.7234 133.038 77.618 133.038Z" fill="#AF6852" stroke="#131313" stroke-width="2" stroke-miterlimit="10"></path> <path d="M66.739 114.542H66.2639C65.9841 114.541 65.7079 114.605 65.4564 114.728C65.205 114.851 64.9851 115.029 64.8136 115.251C64.6422 115.472 64.5236 115.729 64.4672 116.003C64.4108 116.277 64.4181 116.561 64.4883 116.832L65.1891 119.596C65.2902 120.001 65.527 120.36 65.8599 120.612C66.1928 120.864 66.6019 120.995 67.0193 120.982H68.3821" fill="#AF6852"></path> <path d="M66.739 114.542H66.2639C65.9841 114.541 65.7079 114.605 65.4564 114.728C65.205 114.851 64.9851 115.029 64.8136 115.251C64.6422 115.472 64.5236 115.729 64.4672 116.003C64.4108 116.277 64.4181 116.561 64.4883 116.832L65.1891 119.596C65.2902 120.001 65.527 120.36 65.8599 120.612C66.1928 120.864 66.6019 120.995 67.0193 120.982H68.3821" stroke="#131313" stroke-width="2" stroke-miterlimit="10"></path> <path d="M74.2363 126.838H78.4415C79.2424 126.838 80.034 126.666 80.763 126.334C81.492 126.003 82.1416 125.519 82.6682 124.916C83.1949 124.312 83.5864 123.603 83.8164 122.836C84.0464 122.069 84.1097 121.262 84.002 120.468L82.6313 110.461C82.4486 109.119 81.7851 107.888 80.7641 106.997C79.7431 106.106 78.4336 105.616 77.0787 105.617H71.6274C70.7698 105.614 69.9229 105.807 69.1518 106.182C68.3806 106.558 67.7057 107.105 67.1792 107.782C66.6527 108.459 66.2884 109.248 66.1145 110.087C65.9406 110.927 65.9617 111.796 66.1761 112.626L68.7538 122.625C69.0666 123.839 69.7763 124.912 70.7698 125.676C71.7632 126.439 72.9834 126.848 74.2363 126.838V126.838Z" fill="#AF6852" stroke="#131313" stroke-width="2" stroke-miterlimit="10"></path> <path d="M14.2812 78.0028L110.613 77.6523L114.951 96.6618H19.3899L14.2812 78.0028Z" fill="#131313" stroke="#131313" stroke-width="2" stroke-miterlimit="10"></path> <path d="M34.2871 145.514L129.101 145.171L133.431 157.81L36.8492 158.418L34.2871 145.514Z" fill="#131313" stroke="#131313" stroke-width="2" stroke-miterlimit="10"></path> <path d="M54.902 96.1167H86.0835L80.492 77.6523H49.3184L54.902 96.1167Z" fill="#FF8F60" stroke="#131313" stroke-width="2" stroke-miterlimit="10"></path> <path d="M60.0879 95.6104C60.0879 95.6104 62.058 89.2168 69.8611 89.2168C77.8979 89.2168 79.915 95.696 79.915 95.696" fill="white"></path> <path d="M60.0879 95.6104C60.0879 95.6104 62.058 89.2168 69.8611 89.2168C77.8979 89.2168 79.915 95.696 79.915 95.696" stroke="#131313" stroke-width="2" stroke-miterlimit="10"></path> <path d="M71.2052 88.4738C72.4958 87.4502 72.6451 85.4894 71.5386 84.0943C70.4321 82.6993 68.4888 82.3982 67.1982 83.4219C65.9076 84.4455 65.7583 86.4063 66.8648 87.8014C67.9713 89.1964 69.9146 89.4975 71.2052 88.4738Z" fill="#F0AF84" stroke="#131313" stroke-width="2" stroke-miterlimit="10"></path> <path d="M40.7669 156.751C41.5625 156.751 42.2076 156.106 42.2076 155.31C42.2076 154.514 41.5625 153.869 40.7669 153.869C39.9712 153.869 39.3262 154.514 39.3262 155.31C39.3262 156.106 39.9712 156.751 40.7669 156.751Z" fill="white"></path> <path d="M47.1751 156.751C47.9708 156.751 48.6158 156.106 48.6158 155.31C48.6158 154.514 47.9708 153.869 47.1751 153.869C46.3794 153.869 45.7344 154.514 45.7344 155.31C45.7344 156.106 46.3794 156.751 47.1751 156.751Z" fill="white"></path> <rect x="116" y="153" width="6" height="38" fill="white" stroke="#131313" stroke-width="2"></rect> <path d="M154.232 95.2368L140.416 92.0518C139.379 91.813 138.448 91.243 137.764 90.4281C137.08 89.6132 136.68 88.5976 136.624 87.5349V87.5349C136.584 86.777 136.721 86.0201 137.023 85.324C137.326 84.6278 137.786 84.0115 138.367 83.5236C138.949 83.0358 139.636 82.6898 140.374 82.5128C141.112 82.3359 141.881 82.333 142.62 82.5042L175.328 90.0113C177.139 90.4464 178.814 91.3246 180.202 92.567C181.59 93.8094 182.647 95.377 183.279 97.1292L187.415 108.6L169.721 124.23L146.148 118.553C143.78 117.982 141.661 116.654 140.115 114.771C138.57 112.888 137.68 110.552 137.582 108.117L137.309 101.887C137.262 100.75 137.638 99.6349 138.364 98.7578C139.091 97.8807 140.116 97.3033 141.242 97.137L154.247 95.2213" fill="#F0AF84"></path> <path d="M154.232 95.2368L140.416 92.0518C139.379 91.813 138.448 91.243 137.764 90.4281C137.08 89.6132 136.68 88.5976 136.624 87.5349V87.5349C136.584 86.777 136.721 86.0201 137.023 85.324C137.326 84.6278 137.786 84.0115 138.367 83.5236C138.949 83.0358 139.636 82.6898 140.374 82.5128C141.112 82.3359 141.881 82.333 142.62 82.5042L175.328 90.0113C177.139 90.4464 178.814 91.3246 180.202 92.567C181.59 93.8094 182.647 95.377 183.279 97.1292L187.415 108.6L169.721 124.23L146.148 118.553C143.78 117.982 141.661 116.654 140.115 114.771C138.57 112.888 137.68 110.552 137.582 108.117L137.309 101.887C137.262 100.75 137.638 99.6349 138.364 98.7578C139.091 97.8807 140.116 97.3033 141.242 97.137L154.247 95.2213" stroke="#131313" stroke-width="2" stroke-miterlimit="10"></path> <path d="M177.267 90.8369L163.95 87.7218C162.821 87.4607 161.635 87.6585 160.652 88.2719C159.67 88.8853 158.971 89.8639 158.709 90.9926V90.9926C158.516 91.8328 158.575 92.7116 158.88 93.5181C159.185 94.3247 159.721 95.0229 160.422 95.525L169.97 100.976C169.97 100.976 167.47 106.163 171.161 110.547" fill="#F0AF84"></path> <path d="M177.267 90.8369L163.95 87.7218C162.821 87.4607 161.635 87.6585 160.652 88.2719C159.67 88.8853 158.971 89.8639 158.709 90.9926V90.9926C158.516 91.8328 158.575 92.7116 158.88 93.5181C159.185 94.3247 159.721 95.0229 160.422 95.525L169.97 100.976C169.97 100.976 167.47 106.163 171.161 110.547" stroke="#131313" stroke-width="2" stroke-miterlimit="10"></path> <path d="M138.127 105.61L155.633 104.356" stroke="#131313" stroke-width="2" stroke-miterlimit="10"></path> <path d="M138.891 113.841L157.76 112.331" stroke="#131313" stroke-width="2" stroke-miterlimit="10"></path> <path d="M72.6641 113V114.542" stroke="#131313" stroke-width="2" stroke-miterlimit="10"></path> <path d="M79.6504 112.557V114.099" stroke="#131313" stroke-width="2" stroke-miterlimit="10"></path> <path d="M76.3396 113L77.4687 116.551C77.5674 116.742 77.6156 116.954 77.6085 117.169C77.6014 117.383 77.5394 117.592 77.4284 117.776C77.3175 117.96 77.1611 118.112 76.9746 118.218C76.7881 118.324 76.5775 118.38 76.363 118.381H75.0625" fill="#AF6852"></path> <path d="M76.3396 113L77.4687 116.551C77.5674 116.742 77.6156 116.954 77.6085 117.169C77.6014 117.383 77.5394 117.592 77.4284 117.776C77.3175 117.96 77.1611 118.112 76.9746 118.218C76.7881 118.324 76.5775 118.38 76.363 118.381H75.0625" stroke="#131313" stroke-width="2" stroke-miterlimit="10"></path> <path d="M191.052 42.6631L184.043 56.4548C183.265 59.6555 184.184 61.6414 187.665 63.3313L193.895 65.099" fill="#F0AF84"></path> <path d="M191.052 42.6631L184.043 56.4548C183.265 59.6555 184.184 61.6414 187.665 63.3313L193.895 65.099" stroke="#131313" stroke-width="2" stroke-miterlimit="10"></path> <path d="M206.884 88.368L251.826 87.2155L260.548 28.5284C260.91 24.7303 260.402 20.8998 259.064 17.327C257.726 13.7541 255.593 10.5326 252.825 7.90631C250.058 5.28003 246.729 3.31784 243.091 2.1684C239.453 1.01896 235.602 0.712375 231.828 1.27186L205.459 5.67186C199.576 6.54371 194.267 9.68165 190.667 14.4153C187.067 19.1489 185.461 25.1029 186.192 31.0048L192.773 75.9313C193.207 79.367 194.88 82.5263 197.478 84.8161C200.077 87.1059 203.421 88.3688 206.884 88.368V88.368Z" fill="#F0AF84" stroke="#131313" stroke-width="2" stroke-miterlimit="10"></path> <path d="M193.076 14.0827L201.775 33.1233C202.541 34.7837 203.775 36.1841 205.326 37.1526C206.877 38.121 208.677 38.6153 210.505 38.5746L221.672 39.3534L216.929 81.4063L254.037 72.3026L260.524 23.3733C260.524 23.3733 256.412 16.1698 254.403 12.3383C251.382 6.58326 246.616 3.3515 242.94 2.68956C233.688 1.03081 212.917 4.71968 205.458 5.6099C198 6.50012 193.076 14.0827 193.076 14.0827Z" fill="#131313" stroke="#131313" stroke-width="2" stroke-miterlimit="10"></path> <path d="M210.963 38.9562L216.289 37.9749C217.398 37.8128 218.53 37.9012 219.6 38.2337C220.67 38.5662 221.652 39.1343 222.474 39.8963C223.296 40.6583 223.936 41.5948 224.348 42.6369C224.761 43.679 224.934 44.8003 224.856 45.9182L224.513 50.8867C224.399 52.5448 223.737 54.118 222.632 55.3597C221.527 56.6013 220.041 57.4412 218.408 57.7476L214.226 58.5263" fill="#F0AF84"></path> <path d="M210.963 38.9562L216.289 37.9749C217.398 37.8128 218.53 37.9012 219.6 38.2337C220.67 38.5662 221.652 39.1343 222.474 39.8963C223.296 40.6583 223.936 41.5948 224.348 42.6369C224.761 43.679 224.934 44.8003 224.856 45.9182L224.513 50.8867C224.399 52.5448 223.737 54.118 222.632 55.3597C221.527 56.6013 220.041 57.4412 218.408 57.7476L214.226 58.5263" stroke="#131313" stroke-width="2" stroke-miterlimit="10"></path> <path d="M283.894 129.556L295.194 79.4746C295.607 77.6378 295.574 75.7289 295.098 73.9075C294.621 72.0861 293.716 70.4051 292.457 69.0053C291.199 67.6055 289.623 66.5274 287.862 65.8613C286.101 65.1952 284.207 64.9605 282.336 65.1766L228.999 71.4067C220.222 71.9715 211.695 74.5653 204.09 78.9841C196.485 83.4029 190.009 89.5261 185.171 96.872L122.637 191.88H302L283.894 129.556Z" fill="white" stroke="#131313" stroke-width="2" stroke-miterlimit="10"></path> <path d="M292.258 92.4956L242.939 100.922" stroke="#131313" stroke-width="2" stroke-miterlimit="10"></path> <path d="M203.993 161.938L192.188 191.873" stroke="#131313" stroke-width="2" stroke-miterlimit="10"></path> <path d="M193.077 72.3333L195.507 68.1592H192.096L193.077 72.3333Z" fill="#131313" stroke="#131313" stroke-width="2" stroke-miterlimit="10"></path> <path d="M212.74 38.8782L187.695 39.984L189.518 52.4441L194.323 52.2105C194.867 52.1852 195.4 52.0484 195.889 51.8086C196.378 51.5688 196.813 51.231 197.167 50.8163C197.52 50.4016 197.784 49.9189 197.943 49.3978C198.103 48.8767 198.153 48.3285 198.092 47.7871L197.056 38.6523" stroke="#131313" stroke-width="2" stroke-miterlimit="10"></path> <path d="M283.893 129.557L216.928 115.547" stroke="#131313" stroke-width="2" stroke-miterlimit="10"></path> <path d="M225.846 33.4348H217.926V4.27806C217.927 3.74043 218.117 3.22035 218.463 2.80885C218.809 2.39736 219.289 2.1207 219.818 2.02744L223.159 1.43557C223.488 1.37765 223.825 1.39241 224.148 1.47873C224.471 1.56506 224.77 1.72088 225.026 1.93532C225.282 2.14976 225.488 2.41761 225.63 2.72007C225.771 3.02253 225.845 3.35226 225.846 3.68619V33.4348Z" fill="#FF8F60" stroke="#131313" stroke-width="2" stroke-miterlimit="10"></path> <path d="M219.896 63.9463C228.128 63.9463 234.801 56.335 234.801 46.9461C234.801 37.5571 228.128 29.9458 219.896 29.9458C211.664 29.9458 204.99 37.5571 204.99 46.9461C204.99 56.335 211.664 63.9463 219.896 63.9463Z" fill="#FF8F60" stroke="#131313" stroke-width="2" stroke-miterlimit="10"></path> <path d="M191.236 44.1348L191.672 46.9617" stroke="#131313" stroke-width="2" stroke-miterlimit="10"></path> <path d="M119.967 133.146L110.995 148.722C110.352 149.837 109.934 151.068 109.766 152.345C109.597 153.621 109.683 154.919 110.016 156.163C110.349 157.406 110.925 158.572 111.709 159.594C112.493 160.616 113.47 161.473 114.586 162.116L120.037 165.231C121.152 165.876 122.383 166.295 123.66 166.464C124.937 166.632 126.234 166.547 127.479 166.214C128.723 165.881 129.889 165.305 130.91 164.52C131.932 163.736 132.789 162.757 133.431 161.641L142.418 146.066L119.967 133.146Z" fill="white" stroke="#131313" stroke-width="2" stroke-miterlimit="10"></path> <path d="M120.783 133.497L131.74 114.526C132.952 112.434 134.944 110.907 137.279 110.279C139.614 109.652 142.103 109.975 144.2 111.178L149.27 114.098C151.372 115.312 152.905 117.31 153.533 119.654C154.161 121.998 153.832 124.496 152.619 126.597L141.716 145.552" fill="#131313"></path> <path d="M120.783 133.497L131.74 114.526C132.952 112.434 134.944 110.907 137.279 110.279C139.614 109.652 142.103 109.975 144.2 111.178L149.27 114.098C151.372 115.312 152.905 117.31 153.533 119.654C154.161 121.998 153.832 124.496 152.619 126.597L141.716 145.552" stroke="#131313" stroke-width="2" stroke-miterlimit="10"></path> <path d="M117 139L138.87 151.516" stroke="#131313" stroke-width="2" stroke-miterlimit="10"></path> </svg> 