<?xml version="1.0" encoding="UTF-8"?> <svg xmlns="http://www.w3.org/2000/svg" width="309" height="200" viewBox="0 0 309 200" fill="none"> <path d="M176.058 1.00098H27.8809V200.412H101.97H176.058V1.00098Z" fill="white"></path> <path d="M176.058 200.412V1.00098H27.8809V200.412" stroke="#131313" stroke-width="2" stroke-miterlimit="10"></path> <path d="M231.899 65.0652L235.55 66.5038C239.325 67.984 240.93 72.0504 239.059 75.3767L237.096 78.8693C236.191 80.3298 234.811 81.4345 233.188 81.9978C231.565 82.5611 229.797 82.5487 228.182 81.9627L223.982 80.4991" fill="#AF6852"></path> <path d="M231.899 65.0652L235.55 66.5038C239.325 67.984 240.93 72.0504 239.059 75.3767L237.096 78.8693C236.191 80.3298 234.811 81.4345 233.188 81.9978C231.565 82.5611 229.797 82.5487 228.182 81.9627L223.982 80.4991" stroke="#131313" stroke-width="2" stroke-miterlimit="10"></path> <path d="M176.059 62.87L190.636 30.8545C192.432 26.9052 195.682 23.8002 199.708 22.1848C203.735 20.5695 208.229 20.5682 212.257 22.1813L235.641 31.5281C237.237 32.1659 238.681 33.1318 239.88 34.3633C241.079 35.5948 242.006 37.0644 242.601 38.6769C243.196 40.2894 243.446 42.009 243.334 43.7241C243.222 45.4393 242.752 47.1119 241.952 48.6335L211.392 106.843C210.653 108.262 210.478 109.908 210.902 111.45C211.327 112.993 212.318 114.318 213.679 115.159C213.679 115.159 213.679 119.501 202.498 126.501C191.317 133.501 176.308 131.882 176.308 131.882L176.059 62.87Z" fill="#AF6852" stroke="#131313" stroke-width="2" stroke-miterlimit="10"></path> <path d="M197.231 57.8555L186.695 69.3062C186.169 69.8966 185.796 70.6077 185.611 71.3765C185.425 72.1453 185.432 72.948 185.631 73.7135C185.997 75.202 187.627 75.859 189.157 76.2082L192.691 77.3392C192.691 77.3392 196.691 77.6469 196.849 73.8133" fill="#AF6852"></path> <path d="M197.231 57.8555L186.695 69.3062C186.169 69.8966 185.796 70.6077 185.611 71.3765C185.425 72.1453 185.432 72.948 185.631 73.7135C185.997 75.202 187.627 75.859 189.157 76.2082L192.691 77.3392C192.691 77.3392 196.691 77.6469 196.849 73.8133" stroke="#131313" stroke-width="2" stroke-miterlimit="10"></path> <path d="M176.058 1.00098H27.8809V8.85932H176.058V1.00098Z" fill="#131313" stroke="#131313" stroke-width="2" stroke-miterlimit="10"></path> <path d="M97 39.001H135.868" stroke="#131313" stroke-width="2" stroke-miterlimit="10"></path> <path d="M65.3569 44.2799C74.6194 44.2799 82.1759 49.6861 82.3681 56.3836C84.8347 53.3639 86.4147 49.7186 86.9318 45.8539C87.449 41.9892 86.8829 38.0568 85.297 34.4948C83.711 30.9328 81.1673 27.881 77.9492 25.6794C74.7311 23.4778 70.965 22.2128 67.0704 22.0253C63.1757 21.8379 59.3054 22.7354 55.8907 24.6178C52.4761 26.5002 49.6511 29.2936 47.7304 32.6869C45.8097 36.0801 44.8687 39.94 45.0123 43.8365C45.1559 47.733 46.3784 51.5131 48.5437 54.7558C49.8111 48.8211 56.8573 44.2799 65.3569 44.2799Z" stroke="#131313" stroke-width="2" stroke-miterlimit="10"></path> <path d="M66.0589 64.1203C69.1812 64.1226 72.2648 63.4295 75.0857 62.0912C77.9067 60.7529 80.3941 58.8032 82.3674 56.3835C82.1511 49.6739 74.6187 44.2798 65.3562 44.2798C56.8565 44.2798 49.8106 48.8209 48.5371 54.7557C50.4594 57.6401 53.065 60.0044 56.122 61.6383C59.1791 63.2721 62.5927 64.1248 66.0589 64.1203Z" fill="#FFDC81" stroke="#131313" stroke-width="2" stroke-miterlimit="10"></path> <path d="M66.0585 45.7996C69.5286 45.7996 72.3416 42.9866 72.3416 39.5165C72.3416 36.0464 69.5286 33.2334 66.0585 33.2334C62.5884 33.2334 59.7754 36.0464 59.7754 39.5165C59.7754 42.9866 62.5884 45.7996 66.0585 45.7996Z" fill="#CE907A" stroke="#131313" stroke-width="2" stroke-miterlimit="10"></path> <path d="M97 46.4475H121" stroke="#131313" stroke-width="2" stroke-miterlimit="10"></path> <path d="M75 85.001H141" stroke="#131313" stroke-width="2" stroke-miterlimit="10"></path> <path d="M75 140.001H141" stroke="#131313" stroke-width="2" stroke-miterlimit="10"></path> <path d="M75 164.001H109" stroke="#131313" stroke-width="2" stroke-miterlimit="10"></path> <path d="M74.625 108.657H152.36" stroke="#131313" stroke-width="2" stroke-miterlimit="10"></path> <path d="M74.625 117.001H119.039" stroke="#131313" stroke-width="2" stroke-miterlimit="10"></path> <path d="M55.4645 90.512C58.3671 90.512 60.72 88.159 60.72 85.2565C60.72 82.354 58.3671 80.001 55.4645 80.001C52.562 80.001 50.209 82.354 50.209 85.2565C50.209 88.159 52.562 90.512 55.4645 90.512Z" fill="#FFDC81" stroke="#131313" stroke-width="2" stroke-miterlimit="10"></path> <path d="M55.4645 145.512C58.3671 145.512 60.72 143.159 60.72 140.256C60.72 137.354 58.3671 135.001 55.4645 135.001C52.562 135.001 50.209 137.354 50.209 140.256C50.209 143.159 52.562 145.512 55.4645 145.512Z" fill="#FFDC81" stroke="#131313" stroke-width="2" stroke-miterlimit="10"></path> <path d="M55.4645 169.512C58.3671 169.512 60.72 167.159 60.72 164.256C60.72 161.354 58.3671 159.001 55.4645 159.001C52.562 159.001 50.209 161.354 50.209 164.256C50.209 167.159 52.562 169.512 55.4645 169.512Z" fill="#FFDC81" stroke="#131313" stroke-width="2" stroke-miterlimit="10"></path> <path d="M55.4645 113.913C58.3671 113.913 60.72 111.56 60.72 108.657C60.72 105.755 58.3671 103.402 55.4645 103.402C52.562 103.402 50.209 105.755 50.209 108.657C50.209 111.56 52.562 113.913 55.4645 113.913Z" fill="#FFDC81" stroke="#131313" stroke-width="2" stroke-miterlimit="10"></path> <path d="M176.11 79.9753L215.934 88.4989L240.881 41.0994L241.463 46.3549L213.705 101.596C210.454 107.667 206.221 109.662 196.957 110.12L176.068 110.278L176.11 79.9753Z" fill="#131313" stroke="#131313" stroke-width="2" stroke-miterlimit="10"></path> <path d="M193.105 28.5426L240.921 41.0827C240.921 41.0827 241.012 35.3615 235.657 33.1495L210.868 22.863C205.579 20.6759 200.124 22.0896 194.594 25.9065L193.105 28.5426Z" fill="#131313" stroke="#131313" stroke-width="2" stroke-miterlimit="10"></path> <path d="M307.498 200.42C307.498 200.42 307.498 172.001 292.42 157.802C277.342 143.603 213.662 115.184 213.662 115.184C202.702 134.26 176.291 131.857 176.291 131.857L176.059 200.42" stroke="#131313" stroke-width="2" stroke-miterlimit="10"></path> <path d="M245.499 160.001C245.499 160.001 220.298 148.733 185.48 166.121L245.499 160.001Z" fill="#FFDC81"></path> <path d="M245.499 160.001C245.499 160.001 220.298 148.733 185.48 166.121" stroke="#131313" stroke-width="2" stroke-miterlimit="10"></path> <path d="M133.358 166.311C133.358 166.311 129.016 186.124 144.248 188.995C160.19 191.965 185.553 195.394 185.553 195.394C185.553 195.394 193.274 176.65 185.206 165.056C185.206 165.056 164.398 133.63 157.072 136.495C149.392 139.489 163.6 160.482 163.6 160.482C163.6 160.482 124.93 153.11 127.713 162.646C129.319 168.147 161.711 172.082 161.711 172.082" fill="#AF6852"></path> <path d="M133.358 166.311C133.358 166.311 129.016 186.124 144.248 188.995C160.19 191.965 185.553 195.394 185.553 195.394C185.553 195.394 193.274 176.65 185.206 165.056C185.206 165.056 164.398 133.63 157.072 136.495C149.392 139.489 163.6 160.482 163.6 160.482C163.6 160.482 124.93 153.11 127.713 162.646C129.319 168.147 161.711 172.082 161.711 172.082" stroke="#131313" stroke-width="2" stroke-miterlimit="10"></path> <path d="M218.07 65.8384C217.521 68.0504 215.176 68.7572 211.417 67.6263C207.817 66.5369 205.804 65.1316 206.361 62.9279C206.919 60.7243 208.765 58.82 213.205 60.3833C216.357 61.4727 218.619 63.6181 218.07 65.8384Z" fill="white" stroke="#131313" stroke-width="2" stroke-miterlimit="10"></path> <path d="M209.305 65.8301C210.48 65.8301 211.433 64.6052 211.433 63.0943C211.433 61.5833 210.48 60.3584 209.305 60.3584C208.129 60.3584 207.176 61.5833 207.176 63.0943C207.176 64.6052 208.129 65.8301 209.305 65.8301Z" fill="#131313" stroke="#131313" stroke-width="2" stroke-miterlimit="10"></path> <path d="M195.492 59.1857C194.943 61.2231 192.224 62.3457 189.413 61.6804C185.48 60.7906 184.781 58.8614 185.33 56.824C185.879 54.7867 187.517 53.082 191.409 54.3293C194.893 55.4104 196.041 57.1317 195.492 59.1857Z" fill="white" stroke="#131313" stroke-width="2" stroke-miterlimit="10"></path> <path d="M188.16 59.5102C189.28 59.5102 190.189 58.6018 190.189 57.4812C190.189 56.3606 189.28 55.4521 188.16 55.4521C187.039 55.4521 186.131 56.3606 186.131 57.4812C186.131 58.6018 187.039 59.5102 188.16 59.5102Z" fill="#131313" stroke="#131313" stroke-width="2" stroke-miterlimit="10"></path> <path d="M132.855 174.955C132.855 174.955 154.834 181.028 160.173 180.653L132.855 174.955Z" fill="#AF6852"></path> <path d="M132.855 174.955C132.855 174.955 154.834 181.028 160.173 180.653" stroke="#131313" stroke-width="2" stroke-miterlimit="10"></path> <path d="M22.0225 80.4343C22.0225 80.4343 46.7202 67.9608 46.0051 62.1398C44.7245 51.5955 16.9001 70.5386 16.9001 70.5386C16.9001 70.5386 38.945 58.4725 37.2236 51.0217C35.3193 42.8058 18.3553 52.4936 8.52612 66.3309C1.58251 76.1102 -4.77909 96.8329 9.89814 98.8287C24.5754 100.824 35.4191 97.3152 41.5894 91.6439C50.2876 83.6359 42.0965 68.177 42.0965 68.177" fill="#AF6852"></path> <path d="M22.0225 80.4343C22.0225 80.4343 46.7202 67.9608 46.0051 62.1398C44.7245 51.5955 16.9001 70.5386 16.9001 70.5386C16.9001 70.5386 38.945 58.4725 37.2236 51.0217C35.3193 42.8058 18.3553 52.4936 8.52612 66.3309C1.58251 76.1102 -4.77909 96.8329 9.89814 98.8287C24.5754 100.824 35.4191 97.3152 41.5894 91.6439C50.2876 83.6359 42.0965 68.177 42.0965 68.177" stroke="#131313" stroke-width="2" stroke-miterlimit="10"></path> <path d="M26.2148 87.96C26.2148 87.96 39.653 83.2118 45.5239 78.8127L26.2148 87.96Z" fill="#AF6852"></path> <path d="M26.2148 87.96C26.2148 87.96 39.653 83.2118 45.5239 78.8127" stroke="#131313" stroke-width="2" stroke-miterlimit="10"></path> <path d="M187.127 89.189C187.127 89.189 194.611 93.0891 200.141 88.4822" stroke="#AF6852" stroke-width="2" stroke-miterlimit="10"></path> </svg> 