<?xml version="1.0" encoding="UTF-8"?> <svg xmlns="http://www.w3.org/2000/svg" width="265" height="224" viewBox="0 0 265 224" fill="none"> <path d="M52.584 137.741H212.95" stroke="#131313" stroke-width="2" stroke-miterlimit="10"></path> <path d="M163.891 21.469H262" stroke="#131313" stroke-width="2" stroke-miterlimit="10"></path> <path d="M4.81641 21.469H75.1542" stroke="#131313" stroke-width="2" stroke-miterlimit="10"></path> <path d="M176.625 43.9265H239.406" stroke="#131313" stroke-width="2" stroke-miterlimit="10"></path> <path d="M26.5215 45.5232H62.4278" stroke="#131313" stroke-width="2" stroke-miterlimit="10"></path> <path d="M42.7305 69.5771H62.4284" stroke="#131313" stroke-width="2" stroke-miterlimit="10"></path> <path d="M42.7305 93.6316H73.2923" stroke="#131313" stroke-width="2" stroke-miterlimit="10"></path> <path d="M42.7305 117.686H119.523" stroke="#131313" stroke-width="2" stroke-miterlimit="10"></path> <path d="M107.678 157.925H173.006" stroke="#131313" stroke-width="2" stroke-miterlimit="10"></path> <path d="M33.1127 158.275L90.8913 130.268C90.8913 130.268 105.982 150.315 105.982 155.629C105.982 160.943 104.203 199.199 98.3265 201.1C92.4498 203 71.4898 223.641 71.4898 223.641H1C1 223.641 18.1207 175.996 33.1127 158.275Z" fill="#F3D8C6"></path> <path d="M90.8927 130.268C90.8927 130.268 111.959 140.265 107.899 149.715C103.498 159.948 84.6055 173.693 84.6055 173.693" fill="#F3D8C6"></path> <path d="M90.8927 130.268C90.8927 130.268 111.959 140.265 107.899 149.715C103.498 159.948 84.6055 173.693 84.6055 173.693" stroke="#131313" stroke-width="2" stroke-miterlimit="10"></path> <path d="M105.655 154.869C105.655 154.869 110.475 162.54 105.982 168.918C101.694 175 90.8906 183.135 90.8906 183.135" fill="#F3D8C6"></path> <path d="M105.655 154.869C105.655 154.869 110.475 162.54 105.982 168.918C101.694 175 90.8906 183.135 90.8906 183.135" stroke="#131313" stroke-width="2" stroke-miterlimit="10"></path> <path d="M105.983 168.918C104.065 173.413 103.08 178.249 103.086 183.135C103.086 190.205 103.306 197.58 98.3269 201.1C88.8596 207.969 79.8915 215.502 71.4902 223.641" fill="#F3D8C6"></path> <path d="M105.983 168.918C104.065 173.413 103.08 178.249 103.086 183.135C103.086 190.205 103.306 197.58 98.3269 201.1C88.8596 207.969 79.8915 215.502 71.4902 223.641" stroke="#131313" stroke-width="2" stroke-miterlimit="10"></path> <path d="M84.6719 110.782L99.8996 115.39L63.5979 175.335L51.4492 169.914L84.6719 110.782Z" fill="#131313" stroke="#131313" stroke-width="2" stroke-miterlimit="10"></path> <path d="M117.796 118.081C150.101 118.081 176.289 91.8926 176.289 59.5877C176.289 27.2828 150.101 1.09448 117.796 1.09448C85.491 1.09448 59.3027 27.2828 59.3027 59.5877C59.3027 91.8926 85.491 118.081 117.796 118.081Z" fill="white" stroke="#131313" stroke-width="2" stroke-miterlimit="10"></path> <path d="M70.3203 26.502H163.891" stroke="#131313" stroke-width="2" stroke-miterlimit="10"></path> <path d="M18.1739 52.1298L4.81641 45.4549L18.0371 38.9167" stroke="#131313" stroke-width="2" stroke-miterlimit="10"></path> <path d="M248.643 50.5331L262 43.8582L248.779 37.3201" stroke="#131313" stroke-width="2" stroke-miterlimit="10"></path> <path d="M219.646 144.347L233.004 137.672L219.783 131.134" stroke="#131313" stroke-width="2" stroke-miterlimit="10"></path> <path d="M59.4473 54.8057H176.829" stroke="#131313" stroke-width="2" stroke-miterlimit="10"></path> <path d="M66.2598 83.1172H109.746" stroke="#131313" stroke-width="2" stroke-miterlimit="10"></path> <path d="M1 223.641C1 223.641 3.93448 181.668 25.6471 161.863C42.8742 146.157 56.0569 138.911 66.2518 122.156C77.6935 103.355 81.0005 117.321 81.0005 117.321L59.4703 155.629" fill="#F3D8C6"></path> <path d="M1 223.641C1 223.641 3.93448 181.668 25.6471 161.863C42.8742 146.157 56.0569 138.911 66.2518 122.156C77.6935 103.355 81.0005 117.321 81.0005 117.321L59.4703 155.629" stroke="#131313" stroke-width="2" stroke-miterlimit="10"></path> <path d="M93.1411 140.599L44.5234 158.838V175.996L73.8004 183.135L93.1411 140.599Z" fill="#F3D8C6"></path> <path d="M44.5234 158.838L93.1411 140.599" stroke="#131313" stroke-width="2" stroke-miterlimit="10"></path> <path d="M103.086 183.135L95.0957 192.562" stroke="#131313" stroke-width="2" stroke-miterlimit="10"></path> <path d="M149.042 83.2853C150.326 80.3134 148.959 76.8644 145.989 75.5817C143.019 74.2989 139.571 75.6682 138.287 78.64L132.894 91.126C131.611 94.0978 132.978 97.5469 135.948 98.8297C138.918 100.112 142.366 98.7431 143.65 95.7713L149.042 83.2853Z" fill="#131313" stroke="#131313" stroke-width="2" stroke-miterlimit="10"></path> <path d="M108.24 49.773C111.36 49.773 113.889 47.2441 113.889 44.1244C113.889 41.0048 111.36 38.4758 108.24 38.4758C105.121 38.4758 102.592 41.0048 102.592 44.1244C102.592 47.2441 105.121 49.773 108.24 49.773Z" fill="#131313" stroke="#131313" stroke-width="2" stroke-miterlimit="10"></path> <path d="M91.8485 76.0669C93.6368 75.2326 93.5425 71.2465 91.6378 67.1637C89.7331 63.081 86.7393 60.4475 84.951 61.2819C83.1626 62.1162 83.2569 66.1022 85.1616 70.185C87.0664 74.2678 90.0601 76.9012 91.8485 76.0669Z" fill="#131313" stroke="#131313" stroke-width="2" stroke-miterlimit="10"></path> <path d="M89.1816 63.845L91.8805 57.4666" stroke="#131313" stroke-width="2" stroke-miterlimit="10"></path> <path d="M91.4473 70.1626L99.3158 72.5726" stroke="#131313" stroke-width="2" stroke-miterlimit="10"></path> <path d="M90.5957 66.8709L98.449 63.2141" stroke="#131313" stroke-width="2" stroke-miterlimit="10"></path> <path d="M83.8433 66.3387L75.9824 63.9211" stroke="#131313" stroke-width="2" stroke-miterlimit="10"></path> <path d="M87.226 72.1318L84.0254 79.7039" stroke="#131313" stroke-width="2" stroke-miterlimit="10"></path> <path d="M85.2591 69.3643L78.5918 72.4737" stroke="#131313" stroke-width="2" stroke-miterlimit="10"></path> <path d="M111.867 41.684C111.867 41.684 115.212 37.2366 117.637 36.8641C118.362 36.7095 119.114 36.743 119.822 36.9612C120.53 37.1794 121.17 37.5752 121.682 38.1109" stroke="#131313" stroke-width="2" stroke-miterlimit="10"></path> <path d="M107.83 40.5056C107.83 40.5056 111.327 36.1798 111.099 33.7394C111.072 32.999 110.855 32.2779 110.471 31.6446C110.086 31.0112 109.546 30.4867 108.902 30.1206" stroke="#131313" stroke-width="2" stroke-miterlimit="10"></path> <path d="M146.861 61.3286L144.025 78.4645" stroke="#131313" stroke-width="2" stroke-miterlimit="10"></path> <path d="M157.071 65.624L145.211 78.9891" stroke="#131313" stroke-width="2" stroke-miterlimit="10"></path> <path d="M143.957 88.2336L155.437 89.2296" stroke="#131313" stroke-width="2" stroke-miterlimit="10"></path> <path d="M142.998 91.3203L151.14 99.5462" stroke="#131313" stroke-width="2" stroke-miterlimit="10"></path> <path d="M136.498 86.0744L126.607 80.1521" stroke="#131313" stroke-width="2" stroke-miterlimit="10"></path> <path d="M134.613 89.5261L125.43 91.0542" stroke="#131313" stroke-width="2" stroke-miterlimit="10"></path> </svg> 