<?xml version="1.0" encoding="UTF-8"?> <svg xmlns="http://www.w3.org/2000/svg" width="223" height="296" viewBox="0 0 223 296" fill="none"> <rect x="0.269531" y="0.000976562" width="222" height="296" rx="2.87109" fill="#FFEBA5"></rect> <path d="M35.3374 37.6217C47.6523 37.6217 57.6989 44.8094 57.9545 53.7141C61.234 49.6992 63.3347 44.8527 64.0222 39.7144C64.7097 34.5762 63.9572 29.3479 61.8486 24.612C59.74 19.8762 56.358 15.8187 52.0794 12.8915C47.8008 9.96441 42.7936 8.28256 37.6155 8.03335C32.4375 7.78415 27.2917 8.97737 22.7518 11.4801C18.2119 13.9828 14.4559 17.6968 11.9023 22.2083C9.3486 26.7198 8.0976 31.8516 8.28853 37.0322C8.47946 42.2127 10.1048 47.2386 12.9836 51.5498C14.6687 43.6594 24.0368 37.6217 35.3374 37.6217Z" fill="#FFDC81" stroke="#131313" stroke-width="2" stroke-miterlimit="10"></path> <path d="M36.2706 64.001C40.4218 64.0041 44.5215 63.0826 48.272 61.3033C52.0226 59.524 55.3297 56.9317 57.9533 53.7147C57.6658 44.794 47.6511 37.6223 35.3362 37.6223C24.0356 37.6223 14.6677 43.66 12.9746 51.5504C15.5304 55.3853 18.9946 58.5289 23.0591 60.7011C27.1235 62.8734 31.662 64.007 36.2706 64.001Z" fill="#FFC85F" stroke="#131313" stroke-width="2" stroke-miterlimit="10"></path> <path d="M36.2697 39.6422C40.8833 39.6422 44.6233 35.9021 44.6233 31.2885C44.6233 26.6749 40.8833 22.9349 36.2697 22.9349C31.6561 22.9349 27.916 26.6749 27.916 31.2885C27.916 35.9021 31.6561 39.6422 36.2697 39.6422Z" fill="#CE907A" stroke="#131313" stroke-width="2" stroke-miterlimit="10"></path> <rect x="77.4102" y="16.0791" width="72" height="8" fill="#FFC85F"></rect> <rect x="77.4102" y="29.4874" width="64" height="8" fill="#FFC85F"></rect> <rect x="24.2695" y="86.1338" width="148" height="8" fill="#FFC85F"></rect> <rect x="24.2695" y="105.657" width="88" height="32" fill="#FFDC81"></rect> <rect x="116.457" y="105.657" width="89.0039" height="18.375" fill="#FFDC81"></rect> <circle cx="12.2695" cy="91.001" r="4" fill="#FFC85F" stroke="#131313" stroke-width="2"></circle> <rect x="24.2695" y="155.614" width="132" height="8" fill="#FFC85F"></rect> <rect x="24.2695" y="175.138" width="88" height="32" fill="#FFDC81"></rect> <rect x="116.27" y="175.138" width="88" height="24" fill="#FFDC81"></rect> <circle cx="12.2695" cy="160.481" r="4" fill="#FFC85F" stroke="#131313" stroke-width="2"></circle> <rect x="24.2695" y="225.095" width="89.0039" height="9.1875" fill="#FFC85F"></rect> <rect x="24.2695" y="245.001" width="88" height="32" fill="#FFDC81"></rect> <rect x="116.27" y="245.001" width="88" height="16" fill="#FFDC81"></rect> <circle cx="12.2695" cy="229.962" r="4" fill="#FFC85F" stroke="#131313" stroke-width="2"></circle> <circle cx="81.4102" cy="55.1064" r="4" fill="#FFC85F"></circle> <circle cx="93.4102" cy="55.1064" r="4" fill="#FFC85F"></circle> <circle cx="105.41" cy="55.1064" r="4" fill="#FFC85F"></circle> <circle cx="117.41" cy="55.1064" r="4" fill="#FFC85F"></circle> </svg> 