<?xml version="1.0" encoding="UTF-8"?> <svg xmlns="http://www.w3.org/2000/svg" width="25" height="24" viewBox="0 0 25 24" fill="none"><path d="M18.5 13.5026C19.0523 13.5026 19.5 13.9503 19.5 14.5025V17.5025C19.5 18.331 18.8284 19.0025 18 19.0025H7C6.17157 19.0025 5.5 18.331 5.5 17.5025V6.50256C5.5 5.67413 6.17157 5.00256 7 5.00256H10C10.5523 5.00256 11 5.45027 11 6.00256C11 6.55484 10.5523 7.00256 10 7.00256H7.5V17.0025H17.5V14.5025C17.5 13.9503 17.9477 13.5026 18.5 13.5026ZM16.8 6.7867V6.46333L15.6503 6.77763C15.1125 6.92465 14.5575 6.99914 14 6.99914C13.4 6.99914 13 6.55142 13 5.99805C13 5.44576 13.4477 4.99805 14 4.99805H18.5C19.0523 4.99805 19.5 5.44576 19.5 5.99805V10.5026C19.5 11.0548 19.0523 11.5026 18.5 11.5026C17.9477 11.5026 17.5 11.0998 17.5 10.5026C17.5 9.94324 17.5747 9.38642 17.722 8.84686L18.0353 7.69982H17.7144L16.6366 9.13671C16.3524 9.51569 16.0415 9.87399 15.7065 10.2089L12.207 13.7071C11.8164 14.0975 11.1832 14.0974 10.7928 13.7068C10.4023 13.3162 10.4024 12.683 10.793 12.2926L14.2939 8.79311C14.6265 8.46064 14.9821 8.15205 15.3581 7.86963L16.8 6.7867Z" fill="black" fill-opacity="0.83"></path></svg> 