<?xml version="1.0" encoding="UTF-8"?> <svg xmlns="http://www.w3.org/2000/svg" width="16" height="16" viewBox="0 0 16 16" fill="none"><g clip-path="url(#clip0_345_7454)"><path d="M8 11.998C10.2091 11.998 12 10.2072 12 7.99805C12 5.78891 10.2091 3.99805 8 3.99805C5.79086 3.99805 4 5.78891 4 7.99805C4 10.2072 5.79086 11.998 8 11.998Z" fill="white"></path><path d="M7.99983 4.00001H14.9269C14.225 2.78381 13.2152 1.77385 11.9991 1.07168C10.783 0.369518 9.40354 -9.79568e-05 7.9993 1.94733e-08C6.59507 9.79957e-05 5.21561 0.369906 3.99964 1.07224C2.78366 1.77457 1.77403 2.78468 1.07227 4.00098L4.5358 10L4.5389 9.99921C4.18657 9.39164 4.00063 8.70191 3.99984 7.99957C3.99905 7.29722 4.18344 6.60708 4.5344 5.99872C4.88537 5.39035 5.39052 4.88526 5.99892 4.53436C6.60733 4.18346 7.29749 3.99915 7.99983 4.00001Z" fill="url(#paint0_linear_345_7454)"></path><path d="M8.00065 11.1668C9.74955 11.1668 11.1673 9.74906 11.1673 8.00016C11.1673 6.25126 9.74955 4.8335 8.00065 4.8335C6.25175 4.8335 4.83398 6.25126 4.83398 8.00016C4.83398 9.74906 6.25175 11.1668 8.00065 11.1668Z" fill="#1A73E8"></path><path d="M11.463 10.0009L7.99948 15.9999C9.40371 16.0001 10.7832 15.6306 11.9994 14.9285C13.2155 14.2265 14.2253 13.2166 14.9273 12.0004C15.6294 10.7843 15.9988 9.40474 15.9986 8.00051C15.9983 6.59629 15.6284 5.21687 14.9259 4.00098H7.99888L7.99805 4.00408C8.70039 4.00272 9.39068 4.18655 9.99933 4.53704C10.608 4.88752 11.1135 5.39227 11.4649 6.0004C11.8162 6.60854 12.0011 7.29856 12.0008 8.0009C12.0004 8.70325 11.815 9.3931 11.463 10.0009Z" fill="url(#paint1_linear_345_7454)"></path><path d="M4.53564 10.001L1.07211 4.00195C0.369814 5.21795 5.23371e-05 6.59742 5.55553e-09 8.00166C-5.23259e-05 9.40589 0.369607 10.7854 1.07181 12.0014C1.77401 13.2175 2.784 14.2272 4.00023 14.9291C5.21645 15.631 6.59604 16.0004 8.00027 16L11.4638 10.0009L11.4616 9.99865C11.1116 10.6076 10.6072 11.1135 9.99935 11.4653C9.3915 11.8172 8.70163 12.0026 7.99928 12.0028C7.29694 12.003 6.60694 11.8181 5.99885 11.4667C5.39076 11.1152 4.88606 10.6097 4.53564 10.001Z" fill="url(#paint2_linear_345_7454)"></path></g><defs><linearGradient id="paint0_linear_345_7454" x1="1.07227" y1="5.00001" x2="14.9269" y2="5.00001" gradientUnits="userSpaceOnUse"><stop stop-color="#D93025"></stop><stop offset="1" stop-color="#EA4335"></stop></linearGradient><linearGradient id="paint1_linear_345_7454" x1="6.90655" y1="15.893" x2="13.8339" y2="3.89451" gradientUnits="userSpaceOnUse"><stop stop-color="#FCC934"></stop><stop offset="1" stop-color="#FBBC04"></stop></linearGradient><linearGradient id="paint2_linear_345_7454" x1="8.86547" y1="15.5005" x2="1.93814" y2="3.50195" gradientUnits="userSpaceOnUse"><stop stop-color="#1E8E3E"></stop><stop offset="1" stop-color="#34A853"></stop></linearGradient><clipPath id="clip0_345_7454"><rect width="16" height="16" fill="white"></rect></clipPath></defs></svg> 