<?xml version="1.0" encoding="UTF-8"?> <svg xmlns="http://www.w3.org/2000/svg" width="618" height="30" viewBox="0 0 618 30" fill="none"><path d="M26.3906 21C28.0649 17.4392 31.4828 15 35.4271 15L289.391 15.0001" stroke="#FF8F60" stroke-width="3"></path><ellipse cx="310" cy="15" rx="13" ry="13" transform="rotate(-90 310 15)" fill="#FF8F60" stroke="#FF8F60" stroke-width="3"></ellipse><path d="M314.018 12.172C314.018 14.872 311.426 17.392 307.484 20.128H314.324V22H304.82V20.236C309.176 16.834 311.786 14.53 311.786 12.352C311.786 11.092 310.958 10.354 309.68 10.354C308.438 10.354 307.25 11.092 307.25 13.126H305.108C305.072 10.498 306.908 8.716 309.77 8.716C312.182 8.716 314.018 9.958 314.018 12.172Z" fill="#1A1A1A"></path><path d="M322.008 20C323.333 17.3294 326.038 15.5 329.16 15.5L582 15.5" stroke="#FF8F60" stroke-width="3"></path><path d="M324.614 15.1932C324.214 15.4174 323.832 15.67 323.47 15.9482C323.399 16.0023 323.296 15.9464 323.305 15.8579C323.343 15.4503 323.357 15.1658 323.342 14.7704C323.341 14.7421 323.352 14.7147 323.372 14.6947C323.897 14.1709 324.298 13.5965 324.472 13.0235L324.752 12.398C324.795 12.3016 324.938 12.3292 324.943 12.4347L325.045 14.8868C325.046 14.9243 325.027 14.9595 324.994 14.978L324.614 15.1932Z" fill="white"></path><ellipse cx="15" cy="15" rx="13" ry="13" transform="rotate(-90 15 15)" fill="#FF8F60" stroke="#FF8F60" stroke-width="3"></ellipse><path d="M14.5254 22L14.5254 12.064H11.6094V10.588C13.4994 10.534 14.4174 10.372 15.0834 8.95H16.6674L16.6674 22H14.5254Z" fill="#1A1A1A"></path><ellipse cx="603" cy="15" rx="13" ry="13" transform="rotate(-90 603 15)" fill="#FF8F60" stroke="#FF8F60" stroke-width="3"></ellipse><path d="M605.379 18.328C605.379 16.654 604.047 16.078 602.121 16.078H601.491V14.296H602.031C604.065 14.296 605.055 13.63 605.055 12.28C605.055 10.966 603.993 10.354 602.787 10.354C601.203 10.354 600.321 11.308 600.123 12.838H598.035C598.233 10.354 600.015 8.716 602.913 8.716C605.091 8.716 607.251 9.706 607.251 12.154C607.251 13.45 606.495 14.53 605.343 15.088C606.909 15.664 607.593 16.942 607.593 18.274C607.593 20.938 605.307 22.234 602.697 22.234C599.673 22.234 598.035 20.254 597.873 17.95H599.961C600.177 19.39 601.023 20.578 602.733 20.578C604.245 20.578 605.379 19.75 605.379 18.328Z" fill="#1A1A1A"></path><path d="M29.567 15.1932C29.167 15.4174 28.7847 15.67 28.4226 15.9482C28.3522 16.0023 28.2494 15.9464 28.2577 15.8579C28.2957 15.4503 28.3104 15.1658 28.295 14.7704C28.2939 14.7421 28.3047 14.7147 28.3248 14.6947C28.8498 14.1709 29.251 13.5965 29.4251 13.0235L29.7048 12.398C29.7479 12.3016 29.8916 12.3292 29.896 12.4347L29.9977 14.8868C29.9993 14.9243 29.9797 14.9595 29.9471 14.978L29.567 15.1932Z" fill="white"></path></svg> 