<?xml version="1.0" encoding="UTF-8"?> <svg xmlns="http://www.w3.org/2000/svg" width="100" height="40" viewBox="0 0 100 40" fill="none"><path fill-rule="evenodd" clip-rule="evenodd" d="M14.8072 16.5915L15.0408 16.3317L13.1772 12.7294L12.6815 13.0937C11.7108 13.807 10.6363 14.1612 9.44236 14.1612C8.10004 14.1612 7.0475 13.7548 6.23822 12.9625L6.23953 12.9612C5.42455 12.1486 5.00928 11.1143 5.00928 9.8099C5.00928 8.37561 5.40897 7.32601 6.14609 6.58976L6.14479 6.58851C6.91241 5.83949 7.8741 5.45864 9.06859 5.45864C10.0808 5.45864 11.1034 5.75416 12.139 6.37067L12.5881 6.63816L14.7216 3.09704L14.4283 2.8168C13.8485 2.2655 13.0777 1.83581 12.1442 1.51258C11.158 1.16423 10.1166 0.990711 9.06859 1.00038C6.2525 1.00038 3.99963 1.81815 2.38265 3.49955C0.786428 5.16566 0 7.2827 0 9.8099C0 12.4161 0.835736 14.5662 2.53837 16.2043L2.54096 16.2069C4.241 17.8246 6.43938 18.6194 9.09196 18.6194C10.2366 18.6194 11.3319 18.4436 12.3701 18.087L12.3778 18.0844C13.4082 17.715 14.2336 17.2233 14.8072 16.5915Z" fill="#254F06"></path><path fill-rule="evenodd" clip-rule="evenodd" d="M31.8023 3.40791C30.0741 1.79441 27.8585 1.00038 25.2099 1.00038C22.521 1.00038 20.2889 1.83598 18.5603 3.53522C16.8525 5.21152 16.0011 7.31582 16.0011 9.8099C16.0011 12.4339 16.855 14.5866 18.5914 16.2094H18.594C20.3382 17.8246 22.5573 18.6194 25.2099 18.6194C27.8365 18.6194 30.0427 17.7991 31.7842 16.1381C33.544 14.4745 34.4187 12.3524 34.4187 9.8099C34.4187 7.18589 33.5569 5.03326 31.8023 3.40791ZM28.3048 12.9775L28.3037 12.9765C27.5977 13.7484 26.5907 14.1612 25.2099 14.1612C24.0419 14.1612 23.0634 13.7535 22.2433 12.9179C21.4231 12.0874 21.0104 11.0633 21.0104 9.8099C21.0104 8.46732 21.4179 7.43301 22.1939 6.65855V6.656C22.9752 5.86115 23.9692 5.45864 25.2099 5.45864C26.4168 5.45864 27.4031 5.85861 28.2025 6.65855C28.9967 7.45339 29.4094 8.48771 29.4094 9.8099C29.4094 11.1273 29.0317 12.168 28.3048 12.9775Z" fill="#254F06"></path><path d="M52.4339 1.27552V11.2085C52.4339 13.6083 51.7694 15.4935 50.3497 16.7673C48.9823 18.0089 47.2623 18.6194 45.234 18.6194C42.9656 18.6194 41.0994 17.9851 39.6901 16.668C38.2626 15.3356 37.5903 13.4351 37.5903 11.048V1.27552H42.366V10.2685C42.366 11.6849 42.6411 12.6555 43.1057 13.2644C43.5547 13.8427 44.2296 14.1612 45.234 14.1612C46.1866 14.1612 46.742 13.8605 47.056 13.351L47.0586 13.3485C47.4376 12.7473 47.6582 11.8097 47.6582 10.4748V1.27552H52.4339Z" fill="#254F06"></path><path fill-rule="evenodd" clip-rule="evenodd" d="M61.544 18.3443H56.7683V1.27552H57.2874C57.6274 1.27552 58.6033 1.26788 60.2255 1.25259L62.8469 1.22967C65.0219 1.22967 66.722 1.69842 67.8121 2.75057L67.8109 2.75179C68.8983 3.78319 69.4161 5.18047 69.4161 6.87509C69.4161 8.03933 69.1695 9.06345 68.6556 9.92963C68.2358 10.6358 67.6479 11.214 66.9086 11.6684L71.9337 18.3443H66.1017L62.1297 12.7269H61.544V18.3443ZM61.544 8.26861V5.71884C61.9039 5.70828 62.2638 5.69798 62.6237 5.68792H62.6601C63.3608 5.68792 63.7917 5.82549 64.0383 6.01401C64.2615 6.18725 64.4068 6.45729 64.4068 6.92094C64.4068 7.41517 64.2459 7.71069 63.9786 7.90431C63.6827 8.12085 63.1792 8.26861 62.3797 8.26861H61.544Z" fill="#254F06"></path><path fill-rule="evenodd" clip-rule="evenodd" d="M77.1938 13.7733C77.7918 14.0369 78.3484 14.1612 78.8662 14.1612C79.2789 14.1612 79.5177 14.0694 79.6578 13.9573C79.7365 13.8944 79.7961 13.8139 79.8367 13.7227C79.8773 13.6314 79.8952 13.5319 79.8889 13.4325C79.8889 13.216 79.7824 12.9714 79.4009 12.6963L79.3931 12.6912C78.9623 12.3677 78.4276 12.0569 77.7839 11.7613C77.0987 11.448 76.4161 11.099 75.7335 10.7092C74.986 10.2837 74.3605 9.68506 73.8544 8.92079C73.3249 8.1234 73.0679 7.18589 73.0679 6.14139C73.0599 5.45621 73.1993 4.77709 73.4771 4.14844C73.7548 3.51979 74.1646 2.95577 74.6797 2.49326C75.7594 1.48442 77.174 1.00038 78.8662 1.00038C81.0568 1.00038 82.814 1.62199 84.0598 2.92635L84.3505 3.23206L84.1013 3.57088V3.57343L81.7498 6.79357L81.319 6.40124C80.9167 6.03693 80.5767 5.79492 80.2937 5.65735L80.286 5.65225C80.0602 5.53507 79.7098 5.45864 79.1933 5.45864C78.7551 5.45864 78.4712 5.55051 78.2942 5.67541C78.1512 5.787 78.0772 5.9241 78.0772 6.14139C78.0782 6.28137 78.109 6.41961 78.1675 6.54726C78.2243 6.6711 78.3061 6.78232 78.4077 6.87428L78.4094 6.87254C78.7293 7.16616 79.0992 7.40243 79.5021 7.57067C80.086 7.80043 80.657 8.06056 81.2126 8.35014C81.8009 8.6527 82.3672 8.99489 82.9074 9.37426C83.5109 9.7849 83.9974 10.3403 84.321 10.9874L84.3219 10.9869C84.7139 11.6849 84.8981 12.4899 84.8981 13.3867C84.8981 14.9127 84.2934 16.1865 83.1021 17.1698C81.9371 18.1465 80.4793 18.6194 78.7728 18.6194C77.5322 18.6194 76.3382 18.3672 75.1962 17.8628C74.0438 17.3558 73.2055 16.6374 72.7643 15.6846L72.8395 15.1471L74.9652 12.6479L75.3628 12.9746L75.7724 12.6606C76.1481 13.1383 76.6361 13.5194 77.1947 13.7714L77.1938 13.7733Z" fill="#254F06"></path><path d="M75.7724 12.6606L75.3628 12.9746L74.9652 12.6453L75.3779 12.1613L75.7724 12.6606Z" fill="#254F06"></path><path d="M72.8395 15.1471L72.7643 15.6846L72.6293 15.3916L72.8395 15.1471Z" fill="#254F06"></path><path d="M88.2904 18.3443V1.27552H99.0227V5.73378H93.0661V7.53491H98.3219V11.9932H93.0661V13.886H99.2563V18.3443H88.2904Z" fill="#254F06"></path><path d="M19.165 38.7249V21.6561H29.8973V26.1144H23.9407V27.9155H29.1966V32.3738H23.9407V34.2666H30.1309V38.7249H19.165Z" fill="#254F06"></path><path fill-rule="evenodd" clip-rule="evenodd" d="M38.7817 33.3113L38.779 38.7249H34.0034V21.6561C35.8437 21.6561 37.6837 21.6103 39.524 21.6103C41.9014 21.6103 43.7453 22.1237 44.929 23.2675L44.9303 23.2662C46.0827 24.3642 46.6537 25.7705 46.6537 27.4391C46.6537 30.8642 43.4247 33.3367 40.0846 33.3367C39.5755 33.3367 39.1399 33.329 38.7817 33.3113ZM38.7817 26.0994V28.8198C39.1917 28.8593 39.5867 28.8785 39.9678 28.8785C40.4104 28.8907 40.8427 28.763 41.2058 28.5142C41.4602 28.3333 41.6445 28.0149 41.6445 27.4162C41.6445 26.9016 41.4913 26.601 41.2629 26.415C41.0189 26.2137 40.5933 26.0685 39.8977 26.0685C39.526 26.0685 39.1532 26.0885 38.7817 26.0994Z" fill="#254F06"></path><path fill-rule="evenodd" clip-rule="evenodd" d="M51.201 36.59C49.4646 34.9672 48.6107 32.8145 48.6107 30.1905C48.6107 27.6964 49.462 25.5921 51.1699 23.9158C52.9011 22.2166 55.1306 21.381 57.8195 21.381C60.4681 21.381 62.6838 22.175 64.412 23.7885C66.1665 25.4139 67.0283 27.5665 67.0283 30.1905C67.0283 32.733 66.1536 34.8551 64.3938 36.5187C62.6523 38.1797 60.4461 39 57.8195 39C55.1669 39 52.9452 38.2052 51.201 36.59ZM60.9144 33.3581L60.9133 33.3571C60.2073 34.129 59.1977 34.5417 57.8169 34.5417C56.6541 34.5417 55.673 34.1341 54.8529 33.2985C54.0327 32.468 53.62 31.4439 53.62 30.1905C53.62 28.8479 54.0275 27.8136 54.8035 27.0391L54.8061 27.0366C55.5874 26.2418 56.5815 25.8392 57.8195 25.8392C59.0264 25.8392 60.0127 26.2392 60.8121 27.0391C61.6063 27.834 62.019 28.8683 62.019 30.1905C62.019 31.5079 61.6413 32.5486 60.9144 33.3581Z" fill="#254F06"></path><path fill-rule="evenodd" clip-rule="evenodd" d="M75.2066 38.7249H70.4309V21.6561C72.4573 21.6561 74.4833 21.628 76.5095 21.6103C78.6854 21.6103 80.3819 22.0782 81.4721 23.1286C82.5596 24.1604 83.0787 25.559 83.0787 27.2557C83.0787 28.4199 82.8347 29.4441 82.3182 30.3102C81.884 31.0208 81.2854 31.6172 80.5744 32.0532L85.5963 38.7249H79.7643L75.7949 33.1075H75.2066V38.7249ZM75.2066 28.6492V26.0995C75.5786 26.0886 75.9506 26.0761 76.3227 26.0685C77.0234 26.0685 77.4543 26.2061 77.7009 26.3946C77.9241 26.5678 78.0694 26.8379 78.0694 27.3015C78.0694 27.7958 77.9085 28.0913 77.6412 28.2849C77.3479 28.5015 76.8418 28.6492 76.0424 28.6492H75.2066Z" fill="#254F06"></path><path d="M84.9734 26.1144V21.6561H99.56V26.1144H94.6545V38.7249H89.8789V26.1144H84.9734Z" fill="#254F06"></path><path fill-rule="evenodd" clip-rule="evenodd" d="M13.089 23.1312C11.9989 22.079 10.3015 21.6103 8.12384 21.6103C6.09773 21.628 4.07143 21.6561 2.04522 21.6561V38.7249H6.82092L6.82327 33.1075H7.40924L11.2254 38.5058L11.3812 38.7249H17.2132L12.1858 32.0494C12.9262 31.595 13.513 31.0166 13.9351 30.3102C14.449 29.4441 14.693 28.4199 14.693 27.2557C14.693 25.559 14.1739 24.1629 13.089 23.1312ZM7.90323 26.0685C7.54332 26.0786 7.18341 26.0889 6.82351 26.0994V28.6492H7.65666C8.45606 28.6492 8.96219 28.5015 9.25808 28.2849C9.52282 28.0913 9.68372 27.7958 9.68372 27.3015C9.68372 26.8379 9.54097 26.5678 9.31776 26.3946C9.07119 26.2061 8.63775 26.0685 7.93697 26.0685H7.90323Z" fill="#254F06"></path></svg> 