<?xml version="1.0" encoding="UTF-8"?> <svg xmlns="http://www.w3.org/2000/svg" width="25" height="24" viewBox="0 0 25 24" fill="none"><path fill-rule="evenodd" clip-rule="evenodd" d="M4.5 13C4.5 8.44772 7.94772 5 12.5 5C17.0523 5 20.5 8.44772 20.5 13V17C20.5 17.5523 20.0523 18 19.5 18H18.5V13C18.5 9.55228 15.9477 7 12.5 7C9.05228 7 6.5 9.55228 6.5 13V18H5.5C4.94772 18 4.5 17.5523 4.5 17V13Z" fill="black"></path><path d="M7.5 13C7.5 12.4477 7.94772 12 8.5 12H9.5V20H8.5C7.94772 20 7.5 19.5523 7.5 19V13Z" fill="black"></path><path d="M15.5 12H16.5C17.0523 12 17.5 12.4477 17.5 13V19C17.5 19.5523 17.0523 20 16.5 20H15.5V12Z" fill="black"></path></svg> 