<?xml version="1.0" encoding="UTF-8"?> <svg xmlns="http://www.w3.org/2000/svg" width="17" height="16" viewBox="0 0 17 16" fill="none"><path fill-rule="evenodd" clip-rule="evenodd" d="M8.80078 16C13.2191 16 16.8008 12.4183 16.8008 8C16.8008 3.58172 13.2191 0 8.80078 0C4.3825 0 0.800781 3.58172 0.800781 8C0.800781 12.4183 4.3825 16 8.80078 16ZM12.5168 7.1981C12.9023 6.80266 12.8943 6.16955 12.4989 5.784C12.1034 5.39845 11.4703 5.40646 11.0848 5.8019L7.92236 9.04541L6.53717 7.53773C6.16352 7.13103 5.53092 7.10424 5.12422 7.4779C4.71753 7.85155 4.69074 8.48415 5.06439 8.89084L7.16439 11.1766C7.35028 11.3789 7.61123 11.4958 7.88595 11.4999C8.16068 11.504 8.42497 11.3948 8.61678 11.1981L12.5168 7.1981Z" fill="#3AA65E"></path></svg> 