<?xml version="1.0" encoding="UTF-8"?> <svg xmlns="http://www.w3.org/2000/svg" width="16" height="16" viewBox="0 0 16 16" fill="none"><path d="M4.23724 7.67649L4.2747 3.71037C4.29375 2.70203 4.69316 1.76989 5.41608 1.06601C6.139 0.362142 7.09019 -0.0183648 8.09839 0.00068201C9.10672 0.0197288 10.0389 0.419139 10.7427 1.14206C11.4466 1.86498 11.8271 2.81617 11.8081 3.82451L11.7594 7.6223C12.5585 8.5117 13.0447 9.6879 13.0447 10.9777C13.0447 13.7514 10.7961 16 8.02234 16C5.24858 16 3 13.7514 3 10.9777C3 9.71393 3.46674 8.55921 4.23724 7.67649ZM10.4787 6.59599L10.5145 3.80546C10.5145 3.13968 10.2671 2.51185 9.81059 2.03626C9.35404 1.56066 8.72622 1.29429 8.06029 1.29429C7.39437 1.29429 6.76669 1.54161 6.29109 1.99816C5.81549 2.45471 5.54912 3.08254 5.54912 3.74832L5.50831 6.62887C6.24768 6.20052 7.10637 5.95532 8.02234 5.95532C8.91461 5.95532 9.75253 6.18799 10.4787 6.59599ZM6.74778 5.23225C7.05245 5.23225 7.29942 4.98527 7.29942 4.68061C7.29942 4.37595 7.05245 4.12897 6.74778 4.12897C6.44312 4.12897 6.19614 4.37595 6.19614 4.68061C6.19614 4.98527 6.44312 5.23225 6.74778 5.23225ZM9.335 5.23225C9.63966 5.23225 9.88664 4.98527 9.88664 4.68061C9.88664 4.37595 9.63966 4.12897 9.335 4.12897C9.03033 4.12897 8.78336 4.37595 8.78336 4.68061C8.78336 4.98527 9.03033 5.23225 9.335 5.23225Z" fill="black"></path><path d="M7.5663 10.1597L7.37597 13.7551H8.78386L8.49844 10.1407C8.84086 9.96941 9.06913 9.627 9.06913 9.2084C9.06913 8.63771 8.59354 8.16211 8.02285 8.16211C7.45216 8.16211 6.97656 8.63771 6.97656 9.2084C6.99561 9.64604 7.22388 9.98831 7.5663 10.1597Z" fill="#ED1C24"></path></svg> 