<?xml version="1.0" encoding="UTF-8"?> <svg xmlns="http://www.w3.org/2000/svg" width="24" height="24" viewBox="0 0 24 24" fill="none"><path d="M7.2929 7.2929C7.10536 7.48043 7 7.73479 7 8C7 8.26522 7.10536 8.51957 7.2929 8.70711C7.48043 8.89465 7.73479 9 8 9H16C16.2652 9 16.5196 8.89465 16.7071 8.70711C16.8946 8.51957 17 8.26522 17 8C17 7.73479 16.8946 7.48043 16.7071 7.2929C16.5196 7.10536 16.2652 7 16 7H8C7.73479 7 7.48043 7.10536 7.2929 7.2929Z" fill="black" fill-opacity="0.83"></path><path d="M7.2929 11.2929C7.10536 11.4804 7 11.7348 7 12C7 12.2652 7.10536 12.5196 7.2929 12.7071C7.48043 12.8946 7.73479 13 8 13H16C16.2652 13 16.5196 12.8946 16.7071 12.7071C16.8946 12.5196 17 12.2652 17 12C17 11.7348 16.8946 11.4804 16.7071 11.2929C16.5196 11.1054 16.2652 11 16 11H8C7.73479 11 7.48043 11.1054 7.2929 11.2929Z" fill="black" fill-opacity="0.83"></path><path d="M7.2929 15.2929C7.48043 15.1054 7.73479 15 8 15H11C11.2652 15 11.5196 15.1054 11.7071 15.2929C11.8946 15.4804 12 15.7348 12 16C12 16.2652 11.8946 16.5196 11.7071 16.7071C11.5196 16.8946 11.2652 17 11 17H8C7.73479 17 7.48043 16.8946 7.2929 16.7071C7.10536 16.5196 7 16.2652 7 16C7 15.7348 7.10536 15.4804 7.2929 15.2929Z" fill="black" fill-opacity="0.83"></path><path fill-rule="evenodd" clip-rule="evenodd" d="M18.1949 3.03091C18.5865 3.06329 18.9796 3.13474 19.356 3.33C19.9195 3.61477 20.3789 4.07011 20.6686 4.63125L20.6703 4.63452C20.8643 5.01383 20.9365 5.4076 20.9691 5.80413C21 6.17929 21 6.6343 21 7.1612V16.8391C21 17.3657 21 17.8209 20.9691 18.1949C20.9367 18.5865 20.8653 18.9797 20.67 19.3561C20.3852 19.9195 19.9299 20.3789 19.3688 20.6686L19.3655 20.6702C18.9862 20.8643 18.5924 20.9365 18.1959 20.9691C17.8207 21 17.3657 21 16.8387 21H7.16089C6.63429 21 6.17914 21 5.80508 20.9691C5.41351 20.9367 5.02031 20.8653 4.64393 20.67C4.08046 20.3852 3.62113 19.9299 3.33144 19.3688L3.32975 19.3655C3.13569 18.9862 3.06355 18.5924 3.03088 18.1959C2.99997 17.8207 2.99998 17.3657 3 16.8388V7.16092C2.99998 6.63432 2.99997 6.17914 3.03091 5.80508C3.06329 5.41353 3.13474 5.02037 3.32999 4.64401C3.61477 4.08051 4.07011 3.62114 4.63125 3.33144L4.63452 3.32975C5.01383 3.13569 5.4076 3.06355 5.80413 3.03088C6.17929 2.99997 6.63431 2.99998 7.1612 3H16.8391C17.3657 2.99998 17.8209 2.99997 18.1949 3.03091ZM16.8 5C17.3768 5 17.7484 5.0008 18.0301 5.0241C18.3008 5.04649 18.3948 5.08425 18.436 5.10583L18.4437 5.10986L18.4514 5.11375C18.6398 5.20827 18.7934 5.35986 18.8905 5.54685C18.9164 5.598 18.9538 5.69982 18.9759 5.96837C18.9992 6.25154 19 6.62339 19 7.2V16.8C19 17.3768 18.9992 17.7484 18.9759 18.0301C18.9535 18.3008 18.9158 18.3948 18.8942 18.436L18.8901 18.4437L18.8863 18.4514C18.7917 18.6398 18.6402 18.7934 18.4532 18.8904C18.402 18.9164 18.3002 18.9538 18.0316 18.9759C17.7485 18.9992 17.3766 19 16.8 19H7.2C6.62322 19 6.25163 18.9992 5.96993 18.9759C5.69925 18.9535 5.60522 18.9158 5.56401 18.8942L5.55632 18.8901L5.54857 18.8863C5.36023 18.7917 5.20659 18.6401 5.10954 18.4531C5.08362 18.402 5.04625 18.3001 5.02413 18.0316C5.00079 17.7485 5 17.3766 5 16.8V7.2C5 6.62322 5.0008 6.25163 5.0241 5.96993C5.04649 5.69925 5.08425 5.60522 5.10583 5.56401L5.10986 5.55632L5.11375 5.54857C5.20828 5.36023 5.35988 5.20658 5.54689 5.10953C5.59805 5.08362 5.69989 5.04625 5.96837 5.02413C6.25154 5.00079 6.62339 5 7.2 5H16.8Z" fill="black" fill-opacity="0.83"></path></svg> 