<?xml version="1.0" encoding="UTF-8"?> <svg xmlns="http://www.w3.org/2000/svg" width="148" height="40" viewBox="0 0 148 40" fill="none"><g clip-path="url(#clip0_372_8792)"><path d="M147.575 35.3074C147.575 37.1785 146.058 38.6953 144.187 38.6953C142.316 38.6953 140.799 37.1785 140.799 35.3074C140.799 33.4363 142.316 31.9194 144.187 31.9194C146.058 31.9194 147.575 33.4363 147.575 35.3074Z" fill="#F78D2F"></path><path d="M52.8555 19.7939C51.5703 19.7939 50.3621 19.5626 49.2311 19.1C48.1001 18.6374 47.1189 17.9907 46.288 17.1594C45.4566 16.3283 44.7971 15.3431 44.3087 14.2033C43.8204 13.0639 43.5762 11.8255 43.5762 10.489V10.4376C43.5762 9.13554 43.8159 7.9145 44.2959 6.77464C44.7754 5.6351 45.4353 4.64125 46.2751 3.79287C47.1145 2.94471 48.113 2.28066 49.2697 1.80084C50.4264 1.32112 51.6899 1.08105 53.0612 1.08105C53.9865 1.08105 54.8259 1.171 55.5802 1.351C56.334 1.53089 57.0237 1.78796 57.6494 2.1222C58.2747 2.45633 58.8403 2.85465 59.3458 3.31748C59.8511 3.7801 60.3009 4.28568 60.6954 4.83402L56.9425 7.73861C56.4284 7.08745 55.8628 6.57331 55.246 6.19631C54.6291 5.81964 53.8837 5.63077 53.0097 5.63077C52.3755 5.63077 51.7971 5.75535 51.2747 6.00354C50.7518 6.25206 50.3019 6.59074 49.9251 7.01871C49.548 7.44723 49.2524 7.95303 49.0383 8.53536C48.8238 9.11812 48.717 9.73497 48.717 10.3861V10.4376C48.717 11.1058 48.8238 11.7357 49.0383 12.3269C49.2524 12.9181 49.548 13.4282 49.9251 13.8563C50.3019 14.2848 50.7518 14.6235 51.2747 14.8717C51.7971 15.1202 52.3755 15.2442 53.0097 15.2442C53.4724 15.2442 53.8964 15.1929 54.282 15.0902C54.6676 14.9872 55.0188 14.8376 55.336 14.6404C55.6529 14.4434 55.9529 14.2121 56.2357 13.9462C56.5184 13.6808 56.7967 13.3852 57.071 13.0595L60.8238 15.7326C60.3953 16.3154 59.9283 16.8553 59.423 17.3522C58.9173 17.8493 58.3433 18.2774 57.7007 18.6374C57.0582 18.9972 56.3385 19.2799 55.5416 19.4856C54.7447 19.6912 53.8491 19.7939 52.8555 19.7939Z" fill="#2E2B2D"></path><path d="M72.9549 1.31228H68.1482L60.4883 19.4341H65.7319L70.5131 7.25016L75.2683 19.4341H80.6149L72.9549 1.31228Z" fill="#2E2B2D"></path><path d="M98.7891 1.44076H113.235V5.68211L103.699 5.68211V8.4067L112.335 8.4067V12.3396L103.699 12.3396V15.1928L113.364 15.1928V19.4341L98.7891 19.4341V1.44076Z" fill="#2E2B2D"></path><path d="M114.906 1.44076H129.352V5.68211L119.816 5.68211V8.4067L128.452 8.4067V12.3396L119.816 12.3396V15.1928L129.481 15.1928V19.4341L114.906 19.4341V1.44076Z" fill="#2E2B2D"></path><path d="M98.9453 20.7021H104.214L108.507 27.668L112.8 20.7021L118.07 20.7021V38.6953H113.108V28.3621L108.52 35.4052H108.417L103.855 28.4135V38.6953H98.9453V20.7021Z" fill="#2E2B2D"></path><path d="M131.254 20.5735H126.447L118.787 38.6953H124.031L128.812 26.5113L133.567 38.6953H138.914L131.254 20.5735Z" fill="#2E2B2D"></path><path d="M73.1112 20.5735H68.3045L60.6445 38.6953H65.8883L70.6694 26.5113L75.4247 38.6953H80.7711L73.1112 20.5735Z" fill="#2E2B2D"></path><path d="M44.3477 20.7021V38.6953H49.3343V20.7021H44.3477Z" fill="#2E2B2D"></path><path d="M55.1703 27.8266L61.4428 20.7021H55.5307L49.3359 28.0021L55.6849 38.6953H61.6741L55.1703 27.8266Z" fill="#2E2B2D"></path><path d="M93.5972 13.1623C94.7282 12.6827 95.6277 11.9885 96.2961 11.0801C96.9645 10.172 97.2986 9.02366 97.2986 7.6356V7.5843C97.2986 5.81957 96.7674 4.42264 95.705 3.39447C95.1049 2.77751 94.3253 2.29801 93.3658 1.9549C92.406 1.61243 91.2323 1.44076 89.8443 1.44076H81.3359V19.4341H86.3228V13.9847V10.0776V5.75928L89.5872 5.75928C90.4266 5.75928 91.0865 5.93517 91.5666 6.2863C92.0462 6.63753 92.2863 7.17299 92.2863 7.89267V7.94408C92.2863 8.59557 92.055 9.11371 91.5921 9.49926C91.1295 9.88481 90.4697 10.0776 89.613 10.0776L86.3228 10.0776L92.1319 19.4341L97.8899 19.4341L93.5972 13.1623Z" fill="#2E2B2D"></path><path d="M93.7534 32.4235C94.8843 31.9438 95.7839 31.2498 96.4522 30.3412C97.1206 29.4333 97.4546 28.2849 97.4546 26.8968V26.8456C97.4546 25.0808 96.9234 23.684 95.8611 22.6557C95.2612 22.0387 94.4814 21.5592 93.5219 21.2162C92.562 20.8738 91.3884 20.7021 90.0003 20.7021H81.4922V38.6953H86.4789V33.2459V29.3389V25.0204H89.7434C90.5828 25.0204 91.2427 25.1963 91.7226 25.5473C92.2022 25.8988 92.4424 26.4342 92.4424 27.1539V27.2054C92.4424 27.8568 92.2111 28.3748 91.7483 28.7605C91.2857 29.146 90.6257 29.3389 89.769 29.3389H86.4789L92.2882 38.6953H98.0459L93.7534 32.4235Z" fill="#2E2B2D"></path><path d="M143.283 13.1623C144.414 12.6827 145.313 11.9885 145.982 11.0801C146.65 10.172 146.985 9.02366 146.985 7.6356V7.5843C146.985 5.81957 146.453 4.42264 145.391 3.39447C144.791 2.77751 144.011 2.29801 143.051 1.9549C142.092 1.61243 140.918 1.44076 139.53 1.44076H131.021V19.4341H136.009V13.9847V10.0776V5.75928L139.274 5.75928C140.112 5.75928 140.773 5.93517 141.252 6.2863C141.732 6.63753 141.972 7.17299 141.972 7.89267V7.94408C141.972 8.59557 141.74 9.11371 141.278 9.49926C140.815 9.88481 140.156 10.0776 139.299 10.0776L136.009 10.0776L141.818 19.4341L147.576 19.4341L143.283 13.1623Z" fill="#2E2B2D"></path><path d="M7.75593 34.8076L13.7306 24.8729C13.7306 24.8729 19.0064 13.8876 25.1232 25.3471L28.8922 31.7327C28.8922 31.7327 29.7608 33.2278 30.6628 34.8076C35.0644 31.3887 37.8973 26.046 37.8973 20.0409C37.8973 9.71988 29.5305 1.35312 19.2095 1.35312C8.88832 1.35312 0.521484 9.71988 0.521484 20.0409C0.521484 26.046 3.35434 31.3886 7.75593 34.8076Z" fill="#2E2B2D"></path><path d="M27.3659 36.8374L24.7764 32.9486L23.251 30.8255C23.251 30.8255 21.6187 28.6826 20.2445 28.4641C20.2445 28.4641 18.1759 27.7555 15.9282 30.244C15.9282 30.244 14.2952 32.3663 14.1207 32.6818L11.2617 36.958C13.6738 38.0933 16.3674 38.729 19.2098 38.729C22.1383 38.729 24.9092 38.0547 27.3767 36.8539C27.3731 36.8485 27.3694 36.8428 27.3659 36.8374Z" fill="#F78D2F"></path></g><defs><clipPath id="clip0_372_8792"><rect width="147" height="40" fill="white" transform="translate(0.5)"></rect></clipPath></defs></svg> 