<?xml version="1.0" encoding="UTF-8"?> <svg xmlns="http://www.w3.org/2000/svg" width="16" height="16" viewBox="0 0 16 16" fill="none"><path d="M12.639 3.04785H11.7402C11.5676 3.04785 11.4277 3.18776 11.4277 3.36035V3.49726C11.4277 3.66985 11.5676 3.80976 11.7402 3.80976H12.639C12.8116 3.80976 12.9515 3.66985 12.9515 3.49726V3.36035C12.9515 3.18776 12.8116 3.04785 12.639 3.04785Z" fill="#56B3B4"></path><path d="M4.25893 15.2383H0.3125C0.139911 15.2383 0 15.3782 0 15.5508V15.6877C0 15.8603 0.139911 16.0002 0.3125 16.0002H4.25893C4.43152 16.0002 4.57143 15.8603 4.57143 15.6877V15.5508C4.57143 15.3782 4.43152 15.2383 4.25893 15.2383Z" fill="#EA5E5E"></path><path d="M11.8777 9.14307H9.45508C9.28249 9.14307 9.14258 9.28298 9.14258 9.45557V9.59247C9.14258 9.76506 9.28249 9.90497 9.45508 9.90497H11.8777C12.0503 9.90497 12.1902 9.76506 12.1902 9.59247V9.45557C12.1902 9.28298 12.0503 9.14307 11.8777 9.14307Z" fill="#BF85BF"></path><path d="M8.06929 9.14307H4.88477C4.71218 9.14307 4.57227 9.28298 4.57227 9.45557V9.59247C4.57227 9.76506 4.71218 9.90497 4.88477 9.90497H8.06929C8.24188 9.90497 8.38179 9.76506 8.38179 9.59247V9.45557C8.38179 9.28298 8.24188 9.14307 8.06929 9.14307Z" fill="#EA5E5E"></path><path d="M3.49702 9.14307H0.3125C0.139911 9.14307 0 9.28298 0 9.45557V9.59247C0 9.76506 0.139911 9.90497 0.3125 9.90497H3.49702C3.66961 9.90497 3.80952 9.76506 3.80952 9.59247V9.45557C3.80952 9.28298 3.66961 9.14307 3.49702 9.14307Z" fill="#56B3B4"></path><path d="M4.25893 12.1904H0.3125C0.139911 12.1904 0 12.3303 0 12.5029V12.6398C0 12.8124 0.139911 12.9523 0.3125 12.9523H4.25893C4.43152 12.9523 4.57143 12.8124 4.57143 12.6398V12.5029C4.57143 12.3303 4.43152 12.1904 4.25893 12.1904Z" fill="#BF85BF"></path><path d="M4.25893 6.09521H0.3125C0.139911 6.09521 0 6.23513 0 6.40771V6.54462C0 6.71721 0.139911 6.85712 0.3125 6.85712H4.25893C4.43152 6.85712 4.57143 6.71721 4.57143 6.54462V6.40771C4.57143 6.23513 4.43152 6.09521 4.25893 6.09521Z" fill="#BF85BF"></path><path d="M11.877 1.52393H4.12109C3.9485 1.52393 3.80859 1.66384 3.80859 1.83643V1.97333C3.80859 2.14592 3.9485 2.28583 4.12109 2.28583H11.877C12.0496 2.28583 12.1895 2.14592 12.1895 1.97333V1.83643C12.1895 1.66384 12.0496 1.52393 11.877 1.52393Z" fill="#F7BA3E"></path><path d="M2.73512 1.52393H0.3125C0.139911 1.52393 0 1.66384 0 1.83643V1.97333C0 2.14592 0.139911 2.28583 0.3125 2.28583H2.73512C2.90771 2.28583 3.04762 2.14592 3.04762 1.97333V1.83643C3.04762 1.66384 2.90771 1.52393 2.73512 1.52393Z" fill="#EA5E5E"></path><path d="M4.25818 13.7144H3.35938C3.18679 13.7144 3.04688 13.8543 3.04688 14.0269V14.1638C3.04688 14.3363 3.18679 14.4763 3.35938 14.4763H4.25818C4.43077 14.4763 4.57068 14.3363 4.57068 14.1638V14.0269C4.57068 13.8543 4.43077 13.7144 4.25818 13.7144Z" fill="#F7BA3E"></path><path d="M4.25818 4.57129H3.35938C3.18679 4.57129 3.04688 4.7112 3.04688 4.88379V5.02069C3.04688 5.19328 3.18679 5.33319 3.35938 5.33319H4.25818C4.43077 5.33319 4.57068 5.19328 4.57068 5.02069V4.88379C4.57068 4.7112 4.43077 4.57129 4.25818 4.57129Z" fill="#56B3B4"></path><path d="M1.97321 13.7144H0.3125C0.139911 13.7144 0 13.8543 0 14.0269V14.1638C0 14.3363 0.139911 14.4763 0.3125 14.4763H1.97321C2.1458 14.4763 2.28571 14.3363 2.28571 14.1638V14.0269C2.28571 13.8543 2.1458 13.7144 1.97321 13.7144Z" fill="#56B3B4"></path><path d="M1.97321 4.57129H0.3125C0.139911 4.57129 0 4.7112 0 4.88379V5.02069C0 5.19328 0.139911 5.33319 0.3125 5.33319H1.97321C2.1458 5.33319 2.28571 5.19328 2.28571 5.02069V4.88379C2.28571 4.7112 2.1458 4.57129 1.97321 4.57129Z" fill="#F7BA3E"></path><path d="M12.6403 7.61914H6.4082C6.23561 7.61914 6.0957 7.75905 6.0957 7.93164V8.06855C6.0957 8.24113 6.23561 8.38105 6.4082 8.38105H12.6403C12.8129 8.38105 12.9528 8.24113 12.9528 8.06855V7.93164C12.9528 7.75905 12.8129 7.61914 12.6403 7.61914Z" fill="#56B3B4"></path><path d="M5.02028 7.61914H2.59766C2.42507 7.61914 2.28516 7.75905 2.28516 7.93164V8.06855C2.28516 8.24113 2.42507 8.38105 2.59766 8.38105H5.02028C5.19286 8.38105 5.33278 8.24113 5.33278 8.06855V7.93164C5.33278 7.75905 5.19286 7.61914 5.02028 7.61914Z" fill="#F7BA3E"></path><path d="M1.21131 7.61914H0.3125C0.139911 7.61914 0 7.75905 0 7.93164V8.06855C0 8.24113 0.139911 8.38105 0.3125 8.38105H1.21131C1.3839 8.38105 1.52381 8.24113 1.52381 8.06855V7.93164C1.52381 7.75905 1.3839 7.61914 1.21131 7.61914Z" fill="#EA5E5E"></path><path d="M10.3544 3.04785H7.16992C6.99733 3.04785 6.85742 3.18776 6.85742 3.36035V3.49726C6.85742 3.66985 6.99733 3.80976 7.16992 3.80976H10.3544C10.527 3.80976 10.6669 3.66985 10.6669 3.49726V3.36035C10.6669 3.18776 10.527 3.04785 10.3544 3.04785Z" fill="#BF85BF"></path><path d="M5.78274 3.04785H0.3125C0.139911 3.04785 0 3.18776 0 3.36035V3.49726C0 3.66985 0.139911 3.80976 0.3125 3.80976H5.78274C5.95533 3.80976 6.09524 3.66985 6.09524 3.49726V3.36035C6.09524 3.18776 5.95533 3.04785 5.78274 3.04785Z" fill="#56B3B4"></path><path d="M9.5917 10.6665H2.59766C2.42507 10.6665 2.28516 10.8064 2.28516 10.979V11.1159C2.28516 11.2885 2.42507 11.4284 2.59766 11.4284H9.5917C9.76429 11.4284 9.9042 11.2885 9.9042 11.1159V10.979C9.9042 10.8064 9.76429 10.6665 9.5917 10.6665Z" fill="#F7BA3E"></path><path d="M1.21131 10.6665H0.3125C0.139911 10.6665 0 10.8064 0 10.979V11.1159C0 11.2885 0.139911 11.4284 0.3125 11.4284H1.21131C1.3839 11.4284 1.52381 11.2885 1.52381 11.1159V10.979C1.52381 10.8064 1.3839 10.6665 1.21131 10.6665Z" fill="#BF85BF"></path><path d="M13.4015 4.57129H9.45508C9.28249 4.57129 9.14258 4.7112 9.14258 4.88379V5.02069C9.14258 5.19328 9.28249 5.33319 9.45508 5.33319H13.4015C13.5741 5.33319 13.714 5.19328 13.714 5.02069V4.88379C13.714 4.7112 13.5741 4.57129 13.4015 4.57129Z" fill="#EA5E5E"></path><path d="M13.4015 6.09521H9.45508C9.28249 6.09521 9.14258 6.23513 9.14258 6.40771V6.54462C9.14258 6.71721 9.28249 6.85712 9.45508 6.85712H13.4015C13.5741 6.85712 13.714 6.71721 13.714 6.54462V6.40771C13.714 6.23513 13.5741 6.09521 13.4015 6.09521Z" fill="#F7BA3E"></path><path d="M9.59226 0H0.3125C0.139911 0 0 0.139911 0 0.3125V0.449405C0 0.621994 0.139911 0.761905 0.3125 0.761905H9.59226C9.76485 0.761905 9.90476 0.621994 9.90476 0.449405V0.3125C9.90476 0.139911 9.76485 0 9.59226 0Z" fill="#56B3B4"></path></svg> 