<?xml version="1.0" encoding="UTF-8"?> <svg xmlns="http://www.w3.org/2000/svg" width="156" height="40" viewBox="0 0 156 40" fill="none"><g clip-path="url(#clip0_372_8782)"><circle cx="16.5" cy="19.999" r="16" fill="#C71F0E"></circle><path d="M9.0049 30.9818L15.7257 26.3275L21.4413 21.4182L13.6231 21.8182L11.0412 20.0364L17.4412 14.8728L18.1322 11.9637L17.8412 9.01821L36.0958 20.3273C36.0958 20.3273 30.6075 34.817 27.0904 37.0546C24.4198 38.7537 20.145 38.9819 20.145 38.9819L9.0049 30.9818Z" fill="url(#paint0_linear_372_8782)"></path><path d="M9.01562 30.9808C9.01562 30.9808 20.6884 22.799 20.2156 21.8899C19.7429 20.9808 12.0338 27.4535 9.99744 24.399L11.1974 21.4172L13.052 18.9808C11.0156 23.5263 16.6493 19.5777 18.5429 19.199C19.9036 18.9269 21.9443 18.2535 22.6884 20.0354C24.0094 23.199 9.01562 30.9808 9.01562 30.9808Z" fill="url(#paint1_linear_372_8782)"></path><path d="M17.9186 11.6357V17.7448C13.9635 18.6067 9.91038 20.7122 11.7095 25.163C11.7095 25.163 10.1551 25.3509 9.40953 23.5267C7.44491 18.72 17.9186 11.6357 17.9186 11.6357Z" fill="white"></path><path d="M17.8594 21.0903V9.01758L23.9685 12.7994L17.8594 21.0903Z" fill="white"></path></g><path d="M46.6581 29.1471C45.6975 29.1471 44.6721 29.0227 43.5822 28.7737C42.4922 28.5248 41.6424 28.1825 41.0327 27.7469V24.4173C41.7532 24.9152 42.6123 25.3197 43.6099 25.6309C44.6075 25.9213 45.5497 26.0665 46.4364 26.0665C47.3232 26.0665 47.9698 25.9835 48.3762 25.8176C48.7827 25.6309 48.9859 25.2989 48.9859 24.8218C48.9859 24.4484 48.875 24.1476 48.6533 23.9194C48.4501 23.6705 48.1084 23.4526 47.628 23.2659C47.1662 23.0585 46.4457 22.8095 45.4665 22.5191C44.3581 22.1665 43.4806 21.8034 42.834 21.43C42.2058 21.0566 41.7255 20.5898 41.393 20.0297C41.0789 19.4489 40.9219 18.702 40.9219 17.7893C40.9219 16.2956 41.4484 15.1754 42.5014 14.4286C43.5545 13.661 44.977 13.2772 46.769 13.2772C47.6927 13.2772 48.6072 13.381 49.5124 13.5884C50.4361 13.7751 51.1566 14.0448 51.6739 14.3975V17.6026C51.1197 17.2291 50.4453 16.9283 49.651 16.7002C48.8566 16.472 48.0437 16.3579 47.2124 16.3579C46.3071 16.3579 45.6236 16.4616 45.1617 16.669C44.6999 16.8557 44.4689 17.2291 44.4689 17.7893C44.4689 18.1627 44.589 18.4635 44.8292 18.6917C45.0878 18.8991 45.4204 19.0858 45.8268 19.2518C46.2332 19.397 46.9722 19.6252 48.0437 19.9364C49.1891 20.289 50.0851 20.6728 50.7317 21.0877C51.3783 21.5026 51.8402 22.0005 52.1173 22.5814C52.3944 23.1622 52.5329 23.8883 52.5329 24.7596C52.5329 26.0873 52.0249 27.1556 51.0088 27.9647C50.0112 28.753 48.561 29.1471 46.6581 29.1471Z" fill="#3A3A45"></path><path d="M52.9514 13.744H56.4431L59.1588 23.8572L61.8191 13.744H64.8673L67.5276 23.8572L70.2433 13.744H73.7349L69.3843 28.6804H66.1697L63.3432 18.5361L60.5166 28.6804H57.3021L52.9514 13.744Z" fill="#3A3A45"></path><path d="M76.5082 10.5078C75.7599 9.66741 75.7599 8.2364 76.5082 7.39603C77.271 6.53952 78.572 6.53952 79.3348 7.39603C80.1168 8.23237 80.1168 9.67143 79.3348 10.5078C78.5689 11.3269 77.2742 11.3269 76.5082 10.5078ZM76.148 13.744H79.695V28.6804H76.148V13.744Z" fill="#3A3A45"></path><path d="M88.0277 29.1471C86.5683 29.1471 85.4598 28.6907 84.7024 27.778C83.9449 26.8652 83.5662 25.579 83.5662 23.9194V16.7313H81.571V13.744H83.5662V9.26308H87.0578V13.744H90.2446V16.7313H87.0578V23.4215C87.0578 24.3758 87.2149 25.0604 87.5289 25.4753C87.843 25.8694 88.4157 26.0665 89.247 26.0665C89.8197 26.0665 90.3832 25.9213 90.9374 25.6309V28.6181C90.143 28.9708 89.1731 29.1471 88.0277 29.1471Z" fill="#3A3A45"></path><path d="M99.9661 29.1471C98.4143 29.1471 97.0472 28.836 95.8648 28.2136C94.701 27.5913 93.7957 26.6889 93.1491 25.5064C92.5025 24.3239 92.1792 22.9029 92.1792 21.2433C92.1792 19.5837 92.5025 18.1627 93.1491 16.9802C93.8142 15.777 94.7287 14.8642 95.8926 14.2419C97.0749 13.5988 98.4512 13.2772 100.022 13.2772C102.091 13.2772 103.744 13.7336 104.982 14.6464V17.7893C103.781 16.835 102.248 16.3579 100.382 16.3579C98.9593 16.3579 97.8231 16.7624 96.9733 17.5714C96.142 18.3598 95.7263 19.5837 95.7263 21.2433C95.7263 22.8822 96.142 24.0957 96.9733 24.884C97.8231 25.6724 98.9408 26.0665 100.326 26.0665C102.192 26.0665 103.8 25.5686 105.148 24.5729V27.6846C104.483 28.1825 103.726 28.5455 102.876 28.7737C102.044 29.0227 101.075 29.1471 99.9661 29.1471Z" fill="#3A3A45"></path><path d="M107.361 5.68457H110.853V15.6422C112.109 14.0655 113.735 13.2772 115.73 13.2772C117.522 13.2772 118.861 13.827 119.748 14.9265C120.635 16.0052 121.078 17.447 121.078 19.2518V28.6804H117.586V19.6252C117.586 17.447 116.681 16.3579 114.871 16.3579C114.076 16.3579 113.328 16.5757 112.626 17.0113C111.924 17.4262 111.333 18.0589 110.853 18.9095V28.6804H107.361V5.68457Z" fill="#3A3A45"></path><path d="M128.93 29.1471C127.138 29.1471 125.799 28.6078 124.912 27.529C124.025 26.4295 123.582 24.9774 123.582 23.1726V13.744H127.073V22.7992C127.073 24.9774 127.979 26.0665 129.789 26.0665C130.584 26.0665 131.332 25.8591 132.034 25.4442C132.736 25.0085 133.327 24.3654 133.807 23.5149V13.744H137.299V28.6804H133.918V26.6577C133.29 27.5083 132.542 28.141 131.674 28.5559C130.805 28.9501 129.891 29.1471 128.93 29.1471Z" fill="#3A3A45"></path><path d="M140.08 13.744H143.461V15.5488C144.181 14.7812 144.966 14.2108 145.816 13.8373C146.666 13.4639 147.636 13.2772 148.726 13.2772C150.074 13.2772 151.275 13.6092 152.328 14.273C153.4 14.9161 154.231 15.8392 154.822 17.0424C155.432 18.2249 155.737 19.6044 155.737 21.1811C155.737 22.7369 155.432 24.1165 154.822 25.3197C154.231 26.5229 153.4 27.4668 152.328 28.1514C151.275 28.8152 150.074 29.1471 148.726 29.1471C147.71 29.1471 146.749 28.9916 145.844 28.6804C144.957 28.3485 144.2 27.8609 143.571 27.2179V35.4951H140.08V13.744ZM147.867 26.0665C149.123 26.0665 150.158 25.6101 150.97 24.6973C151.783 23.7846 152.19 22.6125 152.19 21.1811C152.19 19.7497 151.783 18.5879 150.97 17.6959C150.158 16.8039 149.123 16.3579 147.867 16.3579C146.869 16.3579 145.982 16.6587 145.206 17.2603C144.431 17.8619 143.886 18.6709 143.571 19.6874V22.7058C143.867 23.7223 144.403 24.5418 145.179 25.1641C145.973 25.7657 146.869 26.0665 147.867 26.0665Z" fill="#3A3A45"></path><defs><linearGradient id="paint0_linear_372_8782" x1="16.3503" y1="25.8182" x2="22.3988" y2="33.9967" gradientUnits="userSpaceOnUse"><stop stop-color="#A02519"></stop><stop offset="1" stop-color="#C21E0E"></stop></linearGradient><linearGradient id="paint1_linear_372_8782" x1="12.2884" y1="20.1444" x2="18.1429" y2="24.2172" gradientUnits="userSpaceOnUse"><stop stop-color="#B0B0B0"></stop><stop offset="0.392295" stop-color="#F1F1F1"></stop><stop offset="1" stop-color="#F7FBFF"></stop></linearGradient><clipPath id="clip0_372_8782"><rect x="0.5" y="4" width="32" height="32" rx="16" fill="white"></rect></clipPath></defs></svg> 