<?xml version="1.0" encoding="UTF-8"?> <svg xmlns="http://www.w3.org/2000/svg" width="16" height="16" viewBox="0 0 16 16" fill="none"><path d="M7.71193 8.69679C8.11799 8.61503 8.38089 8.21957 8.29912 7.8135C8.21736 7.40744 7.82189 7.14454 7.41583 7.22631L7.71193 8.69679ZM8.20294 6.56306C8.20294 6.97727 8.53872 7.31306 8.95294 7.31306C9.36715 7.31306 9.70294 6.97727 9.70294 6.56306H8.20294ZM11.6794 8.00012C11.6794 8.41433 12.0152 8.75012 12.4294 8.75012C12.8436 8.75012 13.1794 8.41433 13.1794 8.00012H11.6794ZM8.203 5.84506C8.203 6.25927 8.53878 6.59506 8.953 6.59506C9.36721 6.59506 9.703 6.25927 9.703 5.84506H8.203ZM8.81055 11.3334C9.16595 11.5461 9.62652 11.4305 9.83928 11.0751C10.052 10.7197 9.9364 10.2591 9.581 10.0464L8.81055 11.3334ZM8.35323 10.1855L8.73846 9.542L8.7375 9.54143L8.35323 10.1855ZM7.81431 7.81647L7.18799 7.40386L7.18625 7.40654L7.81431 7.81647ZM10.0611 7.29681L9.67612 7.94047C9.71243 7.96219 9.75051 7.98079 9.78996 7.99609L10.0611 7.29681ZM12.4065 8.20622L12.791 7.56223C12.7548 7.54065 12.7169 7.52216 12.6777 7.50694L12.4065 8.20622ZM13.6666 10.56L14.4165 10.5666L14.4165 10.5662L13.6666 10.56ZM7.41583 7.22631C7.33406 7.24277 7.27194 7.24976 7.21472 7.24976V8.74976C7.40039 8.74976 7.56598 8.72618 7.71193 8.69679L7.41583 7.22631ZM7.21472 7.24976C6.67731 7.24976 6.2265 6.80321 6.2265 6.24973H4.7265C4.7265 7.62205 5.83932 8.74976 7.21472 8.74976V7.24976ZM6.2265 6.24973V5.43967H4.7265V6.24973H6.2265ZM6.2265 5.43967C6.2265 4.88619 6.67731 4.43964 7.21472 4.43964V2.93964C5.83932 2.93964 4.7265 4.06736 4.7265 5.43967H6.2265ZM7.21472 4.43964C7.75212 4.43964 8.20294 4.88619 8.20294 5.43967H9.70294C9.70294 4.06736 8.59011 2.93964 7.21472 2.93964V4.43964ZM8.20294 5.43967V6.56306H9.70294V5.43967H8.20294ZM13.1794 8.00012V2.75003H11.6794V8.00012H13.1794ZM13.1794 2.75003C13.1794 1.36793 12.0645 0.25 10.6912 0.25V1.75C11.2307 1.75 11.6794 2.19104 11.6794 2.75003H13.1794ZM10.6912 0.25C9.30611 0.25 8.203 1.37986 8.203 2.75003H9.703C9.703 2.19441 10.1483 1.75 10.6912 1.75V0.25ZM8.203 2.75003V5.84506H9.703V2.75003H8.203ZM3.73822 5.74715C4.27922 5.74715 4.72644 6.19008 4.72644 6.74718H6.22644C6.22644 5.37125 5.11721 4.24715 3.73822 4.24715V5.74715ZM4.72644 6.74718V7.12164H6.22644V6.74718H4.72644ZM4.72644 7.12164C4.72644 7.67874 4.27922 8.12167 3.73822 8.12167V9.62167C5.1172 9.62167 6.22644 8.49757 6.22644 7.12164H4.72644ZM3.73822 8.12167C3.19722 8.12167 2.75 7.67874 2.75 7.12164H1.25C1.25 8.49757 2.35923 9.62167 3.73822 9.62167V8.12167ZM2.75 7.12164V6.74718H1.25V7.12164H2.75ZM2.75 6.74718C2.75 6.19008 3.19722 5.74715 3.73822 5.74715V4.24715C2.35923 4.24715 1.25 5.37125 1.25 6.74718H2.75ZM9.581 10.0464L8.73845 9.542L7.968 10.829L8.81055 11.3334L9.581 10.0464ZM8.7375 9.54143C8.28887 9.27377 8.14816 8.67714 8.44236 8.22641L7.18625 7.40654C6.43296 8.56063 6.77805 10.1191 7.96896 10.8296L8.7375 9.54143ZM8.44061 8.22907C8.71536 7.81202 9.2576 7.69016 9.67612 7.94047L10.4461 6.65315C9.3313 5.98642 7.90001 6.32308 7.188 7.40387L8.44061 8.22907ZM9.78996 7.99609L12.1354 8.90549L12.6777 7.50694L10.3322 6.59753L9.78996 7.99609ZM12.0221 8.8502C12.612 9.20236 12.9224 9.85395 12.9166 10.5538L14.4165 10.5662C14.4259 9.43189 13.9165 8.23411 12.791 7.56223L12.0221 8.8502ZM12.9166 10.5533C12.8985 12.5878 10.9046 14.25 8.55817 14.25V15.75C11.4795 15.75 14.3891 13.6523 14.4165 10.5666L12.9166 10.5533ZM8.55817 14.25H7.32092V15.75H8.55817V14.25ZM7.32092 14.25C4.8024 14.25 2.75 12.191 2.75 9.64292H1.25C1.25 13.0098 3.96442 15.75 7.32092 15.75V14.25ZM2.75 9.64292V7.05991H1.25V9.64292H2.75ZM2.75 7.12164V7.05991H1.25V7.12164H2.75ZM2.75 7.05991V6.74718H1.25V7.05991H2.75Z" fill="black" fill-opacity="0.83"></path></svg> 