<?xml version="1.0" encoding="UTF-8"?> <svg xmlns="http://www.w3.org/2000/svg" width="16" height="16" viewBox="0 0 16 16" fill="none"><g clip-path="url(#clip0_346_7550)"><path d="M14.308 7.85647C14.308 7.0362 13.643 6.37125 12.8227 6.37125C12.77 6.37125 12.7179 6.37408 12.6666 6.37945L14.7066 0.362793H6.03742L8.07455 6.37423C8.04466 6.37241 8.01463 6.37125 7.9843 6.37125C7.16403 6.37125 6.49905 7.0362 6.49905 7.85647C6.49905 8.51953 6.93358 9.08084 7.5333 9.27183C7.21656 9.82052 6.81797 10.3147 6.36545 10.7416C5.75013 11.3221 5.04589 11.7623 4.2842 12.0335C3.37738 11.5677 2.94912 10.5316 3.33555 9.62322C3.37916 9.52064 3.42374 9.41667 3.46629 9.31315C4.12329 9.15981 4.61281 8.57086 4.61281 7.86714C4.61281 7.04687 3.94787 6.38192 3.12756 6.38192C2.30728 6.38192 1.6423 7.04687 1.6423 7.86714C1.6423 8.37016 1.89259 8.81445 2.27514 9.08313C1.90754 9.92013 1.36716 10.7961 1.19881 11.8113C0.99705 13.028 1.19816 14.3196 2.25048 15.0489C4.70125 16.7475 7.36154 13.9959 10.1665 13.3042C11.183 13.0535 12.2989 13.094 13.1945 12.5752C13.867 12.1857 14.3104 11.5401 14.4363 10.8154C14.5606 10.0994 14.3793 9.38653 13.9625 8.8085C14.1781 8.55069 14.308 8.21882 14.308 7.85647Z" fill="#99425B"></path><path d="M14.0782 10.7532C13.9689 11.3824 13.5803 11.9321 13.012 12.2613C12.4822 12.5681 11.8473 12.6597 11.1751 12.7566C10.815 12.8085 10.4427 12.8623 10.0789 12.952C9.11709 13.1891 8.18549 13.6519 7.28458 14.0994C5.48163 14.9949 3.92459 15.7682 2.45642 14.7507C1.38099 14.0053 1.43065 12.6263 1.55594 11.8706C1.67206 11.1705 1.98597 10.5257 2.28956 9.90209C2.34201 9.79428 2.39341 9.68847 2.44343 9.58356C2.5939 9.64367 2.75394 9.68469 2.92077 9.70334C2.61174 10.7232 3.09771 11.8321 4.11775 12.3561L4.25733 12.4278L4.40519 12.3752C5.21157 12.088 5.95462 11.6272 6.61369 11.0054C7.03969 10.6035 7.40599 10.1588 7.70703 9.68368C7.79728 9.69728 7.8896 9.70443 7.98359 9.70443C8.91976 9.70443 9.69502 9.00455 9.81498 8.10063C10.1982 8.08659 10.6052 8.08648 10.9906 8.10048C11.1105 9.00448 11.8858 9.70443 12.822 9.70443C13.2135 9.70443 13.5766 9.58175 13.8757 9.37335C14.0834 9.79845 14.1609 10.2768 14.0782 10.7532ZM3.12684 6.74458C3.74583 6.74458 4.24935 7.24814 4.24935 7.86709C4.24935 8.08942 4.18413 8.29673 4.07212 8.47131C3.88549 8.76231 3.56841 8.96178 3.20396 8.98667C3.17846 8.98841 3.15278 8.9896 3.12684 8.9896C2.98893 8.9896 2.85678 8.96443 2.73461 8.91876C2.48747 8.82626 2.28154 8.64895 2.152 8.42253C2.05823 8.2586 2.00433 8.06907 2.00433 7.86709C2.00433 7.24814 2.50789 6.74458 3.12684 6.74458ZM6.86108 7.85643C6.86108 7.29406 7.27678 6.8271 7.81698 6.74636C7.87136 6.73819 7.927 6.73391 7.98359 6.73391C8.34343 6.73391 8.66381 6.9044 8.8693 7.16855C8.92038 7.23417 8.96467 7.30538 9.00033 7.38141C9.06805 7.52579 9.1061 7.6867 9.1061 7.85643C9.1061 7.94617 9.09522 8.03341 9.07523 8.11709C8.96583 8.57506 8.57533 8.92507 8.09684 8.97324C8.05962 8.97698 8.02182 8.97894 7.98359 8.97894C7.75949 8.97894 7.55069 8.91267 7.37523 8.79905C7.06617 8.59886 6.86108 8.25124 6.86108 7.85643ZM11.546 6.52164C11.3056 6.75172 11.1267 7.04569 11.0377 7.37626C10.622 7.36066 10.1812 7.36066 9.76797 7.37626C9.67304 7.02393 9.47614 6.71309 9.2113 6.47698L10.3728 4.12832L11.546 6.52164ZM6.54266 0.725489H14.1999L12.3913 6.0595C12.3129 6.07833 12.2365 6.10201 12.1623 6.13049L10.3757 2.48592L8.58404 6.10872C8.50659 6.08206 8.42679 6.06059 8.3451 6.0443L6.54266 0.725489ZM13.9445 7.85643C13.9445 7.96899 13.9277 8.07763 13.8968 8.18021C13.823 8.42427 13.6684 8.63339 13.4641 8.77638C13.282 8.90385 13.0607 8.97894 12.822 8.97894C12.3037 8.97894 11.8665 8.62573 11.738 8.14742C11.713 8.05456 11.6995 7.95705 11.6995 7.85643C11.6995 7.70299 11.7305 7.55669 11.7865 7.42338C11.8153 7.35468 11.8513 7.28975 11.8926 7.22873C12.0946 6.93059 12.4356 6.73391 12.822 6.73391C12.8575 6.73391 12.8924 6.73576 12.927 6.73899C13.4969 6.7921 13.9445 7.27288 13.9445 7.85643ZM14.67 7.85643C14.67 6.95421 14.02 6.20144 13.1638 6.0406L15.2119 0H5.53078L7.582 6.0529C6.75552 6.23681 6.13559 6.97536 6.13559 7.85643C6.13559 8.518 6.48524 9.09915 7.00922 9.42569C6.75719 9.80121 6.45829 10.1546 6.11582 10.4777C5.57261 10.9901 4.96748 11.3787 4.31508 11.6344C3.65797 11.2217 3.38018 10.4433 3.66867 9.76511L3.69127 9.71197C3.70542 9.67878 3.71957 9.64552 3.73368 9.61225C4.45543 9.36051 4.97484 8.67354 4.97484 7.86709C4.97484 6.84807 4.14583 6.01909 3.12684 6.01909C2.10786 6.01909 1.27884 6.84807 1.27884 7.86709C1.27884 8.38143 1.49025 8.84719 1.8305 9.18255C1.76884 9.31397 1.7039 9.44764 1.63727 9.5845C1.32618 10.2235 0.973591 10.9477 0.840247 11.7519C0.575407 13.3491 1.00261 14.6258 2.04314 15.347C2.67457 15.7846 3.31576 15.9567 3.96104 15.9567C5.17609 15.9567 6.40518 15.3462 7.60731 14.7491C8.47308 14.3191 9.36833 13.8744 10.2526 13.6563C10.5816 13.5752 10.9202 13.5264 11.2787 13.4747C11.9895 13.3721 12.7245 13.2661 13.3756 12.8891C14.1303 12.4519 14.6469 11.7187 14.793 10.8774C14.9184 10.1551 14.7675 9.43168 14.3994 8.81821C14.571 8.53784 14.67 8.20851 14.67 7.85643Z" fill="white"></path></g><defs><clipPath id="clip0_346_7550"><rect width="16" height="16" fill="white"></rect></clipPath></defs></svg> 