<?xml version="1.0" encoding="UTF-8"?> <svg xmlns="http://www.w3.org/2000/svg" width="24" height="24" viewBox="0 0 24 24" fill="none"><path d="M12 2C17.5228 2 22 6.47715 22 12C22 17.5228 17.5228 22 12 22C6.47715 22 2 17.5228 2 12C2 6.47715 6.47715 2 12 2ZM17.1641 7.75293C16.7513 7.38603 16.1198 7.42315 15.7529 7.83594L10.4863 13.7607L8.23438 11.3213C7.85977 10.9157 7.22705 10.8902 6.82129 11.2646C6.41566 11.6393 6.39112 12.272 6.76562 12.6777L9.39062 15.5225C9.95249 16.1313 10.9019 16.1693 11.5107 15.6074C11.5374 15.582 11.5505 15.5688 11.5635 15.5557C11.5764 15.5425 11.5893 15.5292 11.6143 15.502L17.2471 9.16406C17.614 8.75128 17.5768 8.11985 17.1641 7.75293Z" fill="#1A1A1A"></path></svg> 