<?xml version="1.0" encoding="UTF-8"?> <svg xmlns="http://www.w3.org/2000/svg" width="158" height="40" viewBox="0 0 158 40" fill="none"><g clip-path="url(#clip0_372_8811)"><path d="M41.6935 14.4688H57.565V17.3918H51.3243V33.8239H47.8927V17.3918H41.6797V14.4688H41.6935ZM56.887 19.8095H59.8205V22.514H59.8759C60.088 21.6765 60.6958 20.9421 61.3703 20.4242C62.1108 19.8285 63.0545 19.4271 64.0132 19.4271C64.4172 19.4271 64.8035 19.4731 65.2033 19.509V22.4867C64.7605 22.4048 64.29 22.3501 63.8472 22.3501C62.8019 22.3501 61.8219 22.793 61.1351 23.5795C60.2983 24.5706 60.0004 25.8731 60.0004 27.1445V33.8102H56.8731V19.8095H56.887ZM79.5803 33.8239H76.5084V31.8706H76.4531C75.6787 33.2903 74.0192 34.2064 72.4125 34.2064C70.5445 34.2064 69.1884 33.7556 68.3582 32.8404C67.5279 31.9253 67.1128 30.5457 67.1128 28.7017V19.8095H70.2401V28.4012C70.2401 29.6305 70.4753 30.5047 70.9596 31.0101C71.8279 31.9429 73.5052 31.9869 74.6127 31.4745C75.4658 31.0798 76.0307 30.3708 76.2732 29.4666C76.3977 29.0022 76.4531 28.4968 76.4531 27.9504V19.8232H79.5803V33.8239ZM84.9077 29.33C85.0046 30.2315 85.3505 30.8598 85.9455 31.2286C86.9204 31.7973 88.0254 31.8261 89.1143 31.7067C90.1214 31.5963 91.3139 31.1037 91.2729 29.931C91.2433 29.0842 90.4934 28.6197 89.7785 28.3465C88.7626 27.9907 87.6868 27.8227 86.6374 27.5953C85.5498 27.3652 84.405 27.0588 83.4963 26.3933C82.5216 25.7105 82.0849 24.6059 82.0849 23.4429C82.0849 22.0511 82.884 20.9485 84.0775 20.2876C85.2698 19.643 86.6783 19.4271 88.0211 19.4271C89.3648 19.4271 90.7964 19.6598 91.9371 20.4105C93.1118 21.1538 93.788 22.3824 93.9574 23.7434H90.6917C90.5395 23.0058 90.2074 22.5004 89.6678 22.2545C89.1281 21.995 88.5054 21.8721 87.8135 21.8721C87.0155 21.8721 86.0838 21.9814 85.4889 22.5687C85.0518 23.0333 85.1516 23.8273 85.6134 24.2351C86.2855 24.8287 87.2628 25.0497 88.118 25.2186C89.2569 25.4434 90.3878 25.6832 91.4943 26.0381C92.5155 26.3657 93.462 26.9884 93.9989 27.9368C94.6405 29.0703 94.5264 30.7163 93.819 31.7887C93.006 32.9925 91.6693 33.6823 90.2766 33.9878C88.74 34.3249 87.0827 34.3436 85.5581 33.9332C84.027 33.521 82.8976 32.7105 82.2648 31.5155C81.9465 30.9145 81.7804 30.1905 81.7528 29.3573H84.9077V29.33ZM95.2304 19.8095H97.5966V15.6025H100.724V19.8095H103.547V22.1179H100.724V29.6032C100.724 29.931 100.738 30.2042 100.765 30.4501C100.793 30.6823 100.862 30.8872 100.959 31.0511C101.056 31.215 101.208 31.3379 101.416 31.4199C101.623 31.5018 101.886 31.5428 102.246 31.5428C102.467 31.5428 102.689 31.5428 102.91 31.5291C103.132 31.5155 103.353 31.4882 103.574 31.4335V33.8239C103.228 33.8649 102.882 33.8922 102.564 33.9332C102.232 33.9741 101.9 33.9878 101.554 33.9878C100.724 33.9878 100.06 33.9059 99.5615 33.7556C99.0633 33.6054 98.6621 33.3731 98.3853 33.0726C98.0947 32.7721 97.9148 32.4033 97.8041 31.9526C97.7073 31.5018 97.6381 30.9828 97.6243 30.4091V22.1452H95.2581V19.8095H95.2304ZM105.761 19.8095H108.722V21.7081H108.777C109.22 20.8886 109.829 20.3149 110.618 19.9598C111.406 19.6046 112.25 19.4271 113.177 19.4271C114.298 19.4271 115.267 19.6183 116.097 20.0144C116.927 20.3969 117.619 20.9296 118.173 21.6125C118.726 22.2955 119.128 23.0877 119.404 23.9892C119.681 24.8908 119.819 25.8606 119.819 26.885C119.819 27.8275 119.695 28.7427 119.446 29.6168C119.197 30.5047 118.823 31.2833 118.325 31.9662C117.827 32.6492 117.19 33.1819 116.415 33.5917C115.641 34.0015 114.741 34.2064 113.689 34.2064C113.233 34.2064 112.776 34.1654 112.32 34.0834C111.863 34.0015 111.42 33.8649 111.005 33.6873C110.59 33.5097 110.189 33.2775 109.843 32.9907C109.483 32.7038 109.192 32.376 108.943 32.0072H108.888V39.0007H105.761V19.8095ZM116.692 26.8304C116.692 26.202 116.609 25.5874 116.443 24.9864C116.277 24.3854 116.028 23.8663 115.696 23.4019C115.364 22.9375 114.949 22.5687 114.464 22.2955C113.966 22.0223 113.399 21.8721 112.762 21.8721C111.448 21.8721 110.452 22.3228 109.787 23.2243C109.123 24.1258 108.791 25.3278 108.791 26.8304C108.791 27.5406 108.874 28.1963 109.054 28.7973C109.234 29.3983 109.483 29.9174 109.843 30.3544C110.189 30.7915 110.604 31.133 111.088 31.3789C111.572 31.6384 112.14 31.7614 112.776 31.7614C113.496 31.7614 114.091 31.6111 114.589 31.3243C115.087 31.0374 115.488 30.655 115.807 30.2042C116.125 29.7398 116.36 29.2207 116.498 28.6334C116.623 28.046 116.692 27.445 116.692 26.8304ZM122.213 14.4688H125.341V17.3918H122.213V14.4688ZM122.213 19.8095H125.341V33.8239H122.213V19.8095ZM128.136 14.4688H131.263V33.8239H128.136V14.4688ZM140.852 34.2064C138.879 34.2064 136.957 33.5504 135.566 32.1165C134.237 30.6845 133.684 28.7258 133.684 26.803C133.684 24.8908 134.245 22.94 135.566 21.5169C136.916 20.0639 138.908 19.4271 140.852 19.4271C142.825 19.4271 144.747 20.083 146.138 21.5169C147.46 22.94 148.02 24.8908 148.02 26.803C148.02 28.7258 147.468 30.6845 146.138 32.1165C144.789 33.5695 142.796 34.2064 140.852 34.2064ZM140.852 31.7614C143.545 31.7614 144.893 29.2092 144.893 26.803C144.893 24.396 143.538 21.8721 140.852 21.8721C138.17 21.8721 136.812 24.4003 136.812 26.803C136.812 29.2104 138.159 31.7614 140.852 31.7614ZM148.933 19.8095H151.3V15.6025H154.427V19.8095H157.25V22.1179H154.427V29.6032C154.427 30.0803 154.411 30.626 154.662 31.0511C154.918 31.485 155.496 31.5428 155.949 31.5428C156.392 31.5428 156.834 31.5428 157.277 31.4335V33.8239C156.607 33.9033 155.933 33.9878 155.257 33.9878C154.427 33.9878 153.763 33.9059 153.264 33.7556C152.766 33.6054 152.365 33.3731 152.088 33.0726C151.798 32.7721 151.618 32.4033 151.507 31.9526C151.41 31.5018 151.341 30.9828 151.327 30.4091V22.1452H148.961V19.8095H148.933Z" fill="#191919"></path><path d="M38.0408 14.468H23.7053L19.2773 1L14.8355 14.468L0.5 14.4543L12.1096 22.7865L7.66777 36.2408L19.2773 27.9224L30.8731 36.2408L26.4451 22.7865L38.0408 14.468Z" fill="#00B67A"></path><path d="M27.4453 25.8321L26.449 22.7861L19.2812 27.922L27.4453 25.8321Z" fill="#005128"></path></g><defs><clipPath id="clip0_372_8811"><rect width="157" height="40" fill="white" transform="translate(0.5)"></rect></clipPath></defs></svg> 