<?xml version="1.0" encoding="UTF-8"?> <svg xmlns="http://www.w3.org/2000/svg" width="96" height="96" viewBox="0 0 96 96" fill="none"><path fill-rule="evenodd" clip-rule="evenodd" d="M38 20H42V24H38H26V20H38ZM22 28V24H26V28H22ZM22 48H18V44V28H22V44V48ZM26 52H22V48H26V52ZM30 56H26V52H30V56ZM34 60H30V56H34V60ZM38 64H34V60H38V64ZM42 68H38V64H42V68ZM54 24V20H58H70V24H74V28H78V44V48H74V52H70V56H66V60H62V64H58V68H54V72H50V76H46V72H42V68H46H50V64H54V60H58V56H62V52H66V48H70V44V32H66V28H62V24H58H54ZM50 28V24H54V28H50ZM46 28H50V32H46V28ZM46 28V24H42V28H46ZM30 28H34V32H30V28ZM30 32V36H26V32H30Z" fill="#1A1A1A"></path></svg> 