<?xml version="1.0" encoding="UTF-8"?> <svg xmlns="http://www.w3.org/2000/svg" width="16" height="16" viewBox="0 0 16 16" fill="none"><circle cx="8" cy="8" r="8" fill="white"></circle><path d="M10.7762 6.67585C10.1518 3.92118 8.85032 3.18786 8.51832 2.66947C8.38142 2.44111 8.26015 2.20374 8.15533 1.95898C8.13779 2.2037 8.10557 2.35787 7.89757 2.54344C7.47992 2.91582 5.70615 4.36126 5.55688 7.49115C5.4178 10.4094 7.7022 12.2088 8.00402 12.3948C8.23609 12.509 8.51873 12.3973 8.65659 12.2924C9.7578 11.5367 11.2624 9.52187 10.7774 6.67585" fill="#10AA50"></path><path d="M8.25057 10.8408C8.19307 11.5631 8.15187 11.9828 8.00586 12.3956C8.00586 12.3956 8.10171 13.0832 8.169 13.8116H8.40719C8.46401 13.2987 8.55076 12.7895 8.667 12.2867C8.35866 12.1349 8.2624 11.4746 8.25057 10.8408Z" fill="#B8C4C2"></path><path d="M8.66609 12.2872C8.35449 12.1432 8.26435 11.469 8.25048 10.8409C8.32754 9.8048 8.35001 8.76537 8.31778 7.72691C8.30146 7.18202 8.32553 2.68009 8.18359 2.021C8.28068 2.24423 8.39255 2.46073 8.51844 2.66908C8.85044 3.18787 10.1523 3.9212 10.7763 6.67587C11.2625 9.517 9.76608 11.5265 8.66609 12.2872Z" fill="#12924F"></path></svg> 