<?xml version="1.0" encoding="UTF-8"?> <svg xmlns="http://www.w3.org/2000/svg" width="19" height="16" viewBox="0 0 19 16" fill="none"><g clip-path="url(#clip0_346_7555)"><path d="M5.54226 5.85389L8.95315 3.88463C9.03851 3.83533 9.14373 3.83533 9.22908 3.88463L12.64 5.85389C12.7253 5.90319 12.778 5.99425 12.778 6.09285V10.0314C12.778 10.1299 12.7253 10.221 12.64 10.2704L9.22908 12.2397C9.14373 12.289 9.03851 12.289 8.95315 12.2397L5.54226 10.2704C5.45691 10.2211 5.4043 10.13 5.4043 10.0314V6.09285C5.40437 5.99425 5.45698 5.90319 5.54226 5.85389Z" fill="#8080F2"></path><path d="M17.9591 7.64772L13.8837 0.557752C13.7357 0.3014 13.4622 0.112305 13.1662 0.112305H5.01537C4.71929 0.112305 4.44576 0.3014 4.29772 0.557752L0.222355 7.63208C0.074319 7.88851 0.074319 8.21212 0.222355 8.46854L4.29772 15.5004C4.44576 15.7568 4.71929 15.8878 5.01537 15.8878H13.1662C13.4622 15.8878 13.7357 15.7607 13.8837 15.5043L17.959 8.46093C18.1072 8.20465 18.1072 7.90407 17.9591 7.64772ZM14.5845 11.0571C14.5845 11.1613 14.5217 11.2577 14.4314 11.3099L9.24025 14.3049C9.14996 14.357 9.03685 14.357 8.94657 14.3049L3.75142 11.3099C3.66114 11.2577 3.59796 11.1614 3.59796 11.0571V5.06694C3.59796 4.96264 3.66022 4.8663 3.75058 4.81411L8.9415 1.81909C9.03178 1.7669 9.14475 1.7669 9.23503 1.81909L14.4305 4.81411C14.5209 4.8663 14.5845 4.96264 14.5845 5.06694V11.0571Z" fill="#4B32C3"></path></g><defs><clipPath id="clip0_346_7555"><rect width="18.1833" height="16" fill="white"></rect></clipPath></defs></svg> 