<?xml version="1.0" encoding="UTF-8"?> <svg xmlns="http://www.w3.org/2000/svg" width="16" height="16" viewBox="0 0 16 16" fill="none"><path d="M7.96933 0H8.00644C8.19664 0.0906738 8.38189 0.191398 8.56141 0.301745C10.6279 1.4912 12.6943 2.68104 14.7607 3.87125C14.8407 3.91397 14.906 3.97974 14.9481 4.06003C14.9903 4.14033 15.0073 4.23146 14.9971 4.32158C14.9925 6.82984 14.9971 9.33752 14.9943 11.8446C14.9674 11.9643 14.8943 12.0684 14.791 12.1344C12.5936 13.4008 10.396 14.6664 8.19828 15.9313C8.14502 15.972 8.08083 15.9957 8.01397 15.9995C7.94711 16.0032 7.88065 15.9869 7.82317 15.9525C5.62312 14.6899 3.42517 13.425 1.22931 12.1578C1.15794 12.124 1.09817 12.0699 1.05752 12.0021C1.01688 11.9344 0.997187 11.8561 1.00093 11.7772C1.00093 9.26952 1.00093 6.76202 1.00093 4.25472C0.995543 4.17614 1.01369 4.09774 1.05305 4.02953C1.09241 3.96133 1.15119 3.90642 1.22188 3.87182C3.28567 2.68389 5.34945 1.4952 7.41323 0.305746C7.59708 0.200592 7.77749 0.0891519 7.96933 0Z" fill="#019639"></path><path d="M4.00023 4.88618C4.00023 6.95901 4.00023 9.03204 4.00023 11.1052C3.99763 11.2201 4.01755 11.3342 4.05883 11.4411C4.10011 11.548 4.16192 11.6455 4.24065 11.7278C4.39155 11.8794 4.58901 11.9738 4.80008 11.9953C5.01115 12.0168 5.22308 11.964 5.40052 11.8458C5.5193 11.7637 5.61653 11.6533 5.68376 11.5242C5.75098 11.3951 5.78615 11.2513 5.78621 11.1052C5.78621 9.60475 5.7834 8.10425 5.78621 6.60374C7.13114 8.2417 8.47889 9.87736 9.82945 11.5107C10.0171 11.7041 10.2495 11.8464 10.5052 11.9247C10.761 12.0029 11.032 12.0146 11.2934 11.9586C11.4779 11.9216 11.646 11.8254 11.7727 11.684C11.8995 11.5427 11.9784 11.3637 11.9977 11.1734C12.0008 9.05781 12.0008 6.94241 11.9977 4.82719C11.9784 4.60141 11.8765 4.39121 11.7122 4.23808C11.5479 4.08495 11.3332 4 11.1104 4C10.8876 4 10.6728 4.08495 10.5086 4.23808C10.3443 4.39121 10.2424 4.60141 10.223 4.82719C10.223 6.35175 10.214 7.87459 10.223 9.39857C8.90211 7.81445 7.59753 6.21659 6.28169 4.62674C6.10822 4.40048 5.87855 4.22537 5.61638 4.11947C5.3542 4.01356 5.069 3.98069 4.79018 4.02425C4.57896 4.04817 4.38315 4.14826 4.23823 4.30638C4.09332 4.4645 4.00888 4.67019 4.00023 4.88618Z" fill="white"></path></svg> 