<?xml version="1.0" encoding="UTF-8"?> <svg xmlns="http://www.w3.org/2000/svg" width="16" height="16" viewBox="0 0 16 16" fill="none"><g clip-path="url(#clip0_345_7475)"><path d="M0 3.43732H3.74435V4.5386H0V3.43732ZM0 1.39209H3.74435V2.49337H0V1.39209ZM6.7178 5.46682H0V6.5681H6.46608C7.17404 6.5681 8.82596 6.58383 9.43953 7.57498V6.96141C9.14061 5.98599 8.25959 5.46682 6.7178 5.46682ZM6.73353 7.51205H0V8.61333H6.46608C8.03933 8.61333 9.03048 8.67626 9.43953 8.89651V8.40881C9.12488 7.63791 7.80334 7.51205 6.73353 7.51205ZM6.7178 12.7038H0V11.6025H6.46608C7.17404 11.6025 8.82596 11.5868 9.43953 10.5956V11.2092C9.14061 12.1846 8.25959 12.7038 6.7178 12.7038ZM6.73353 10.6586H0V9.55728H6.46608C8.03933 9.55728 9.03048 9.49435 9.43953 9.2741V9.7618C9.12488 10.5327 7.80334 10.6586 6.73353 10.6586ZM11.0757 14.6074H16.0157V13.9309H11.2173C10.7925 13.9309 9.78564 13.9152 9.4238 13.3331V13.7107C9.59685 14.2928 10.1318 14.6074 11.0757 14.6074ZM11.06 13.3646H16V12.6881H11.2173C10.2576 12.6881 9.65978 12.6566 9.4238 12.515V12.8139C9.61259 13.2859 10.4149 13.3646 11.06 13.3646Z" fill="black"></path></g><defs><clipPath id="clip0_345_7475"><rect width="16" height="16" fill="white"></rect></clipPath></defs></svg> 