<?xml version="1.0" encoding="UTF-8"?> <svg xmlns="http://www.w3.org/2000/svg" width="16" height="16" viewBox="0 0 16 16" fill="none"><g clip-path="url(#clip0_347_7574)"><path d="M5.66862 16.0003C7.14062 16.0003 8.33529 14.8057 8.33529 13.3337V10.667H5.66862C4.19662 10.667 3.00195 11.8617 3.00195 13.3337C3.00195 14.8057 4.19662 16.0003 5.66862 16.0003Z" fill="#0ACF83"></path><path d="M3.00195 8.00016C3.00195 6.52816 4.19662 5.3335 5.66862 5.3335H8.33529V10.6668H5.66862C4.19662 10.6668 3.00195 9.47216 3.00195 8.00016Z" fill="#A259FF"></path><path d="M3.00195 2.66667C3.00195 1.19467 4.19662 0 5.66862 0H8.33529V5.33333H5.66862C4.19662 5.33333 3.00195 4.13867 3.00195 2.66667Z" fill="#F24E1E"></path><path d="M8.33398 0H11.0007C12.4727 0 13.6673 1.19467 13.6673 2.66667C13.6673 4.13867 12.4727 5.33333 11.0007 5.33333H8.33398V0Z" fill="#FF7262"></path><path d="M13.6673 8.00016C13.6673 9.47216 12.4727 10.6668 11.0007 10.6668C9.52865 10.6668 8.33398 9.47216 8.33398 8.00016C8.33398 6.52816 9.52865 5.3335 11.0007 5.3335C12.4727 5.3335 13.6673 6.52816 13.6673 8.00016Z" fill="#1ABCFE"></path></g><defs><clipPath id="clip0_347_7574"><rect width="10.6688" height="16" fill="white" transform="translate(3)"></rect></clipPath></defs></svg> 