<?xml version="1.0" encoding="UTF-8"?> <svg xmlns="http://www.w3.org/2000/svg" width="16" height="16" viewBox="0 0 16 16" fill="none"><path d="M14.983 12.3315L8.498 16V13.1435L12.538 10.9205L14.983 12.3315ZM15.427 11.93V4.26L13.055 5.631V10.562L15.427 11.93ZM1.444 12.3315L7.928 16V13.1435L3.8855 10.92L1.444 12.3315ZM1 11.93V4.26L3.372 5.631V10.562L1 11.93ZM1.278 3.762L7.928 0V2.761L3.633 5.125L1.278 3.762ZM15.148 3.762L8.498 0V2.761L12.793 5.1225L15.148 3.762Z" fill="#8ED6FB"></path><path d="M7.92841 12.6183L3.94141 10.4248V6.08285L7.92841 8.38485V12.6183ZM8.49841 12.6183L12.4859 10.4268V6.08185L8.49841 8.38485V12.6183ZM4.21141 5.58085L8.21341 3.38135L12.2154 5.58135L8.21341 7.89135L4.21141 5.58085Z" fill="#1C78C0"></path></svg> 