<?xml version="1.0" encoding="UTF-8"?> <svg xmlns="http://www.w3.org/2000/svg" width="16" height="16" viewBox="0 0 16 16" fill="none"><g clip-path="url(#clip0_345_7461)"><path d="M14.0348 3.30957L8.98477 0.30957C8.38164 -0.0498047 7.63789 -0.0498047 7.03477 0.30957L1.98477 3.30957C1.38164 3.66582 1.00977 4.32832 1.00977 5.04395V11.0408C1.00977 11.7564 1.38164 12.4189 1.98477 12.7752L7.03477 15.7721C7.33477 15.9502 7.67227 16.0408 8.00977 16.0408C8.34727 16.0408 8.68164 15.9502 8.98477 15.7721L14.0348 12.7752C14.6379 12.4158 15.0098 11.7564 15.0098 11.0408V5.04395C15.0098 4.32832 14.6379 3.66582 14.0348 3.30957Z" fill="white"></path><path d="M14.0348 3.30977L8.98477 0.309766C8.68477 0.131641 8.34727 0.0410156 8.00977 0.0410156C7.67227 0.0410156 7.33789 0.131641 7.03477 0.309766L1.98477 3.30977C1.38164 3.66602 1.00977 4.32852 1.00977 5.04414V11.041C1.00977 11.7566 1.38164 12.4191 1.98477 12.7754L7.03477 15.7723C7.33477 15.9504 7.67227 16.041 8.00977 16.041C8.34727 16.041 8.68164 15.9504 8.98477 15.7723L14.0348 12.7754C14.6379 12.416 15.0098 11.7566 15.0098 11.041V5.04414C15.0098 4.32852 14.6379 3.66602 14.0348 3.30977ZM7.21289 15.466L2.16289 12.4691C1.66914 12.1754 1.36289 11.6285 1.36289 11.041V5.04414C1.36289 4.45664 1.66914 3.90977 2.16289 3.61602L7.21289 0.619141C7.45664 0.475391 7.73164 0.400391 8.00977 0.400391C8.28789 0.400391 8.56602 0.475391 8.80664 0.619141L13.8566 3.61602C14.2723 3.86289 14.5535 4.29102 14.6316 4.77227C14.4629 4.41602 14.0879 4.31602 13.6473 4.57539L8.86914 7.52852C8.27227 7.87539 7.83477 8.26914 7.83477 8.98477V14.8723C7.83477 15.3035 8.00664 15.5816 8.27539 15.6629C8.18789 15.6785 8.10039 15.6879 8.00977 15.6879C7.73164 15.6848 7.45352 15.6098 7.21289 15.466Z" fill="#283037"></path><path d="M12.7133 11.6187L11.4539 12.3718C11.4195 12.3906 11.3945 12.4125 11.3945 12.4531V12.7812C11.3945 12.8218 11.4227 12.8375 11.4539 12.8187L12.732 12.0437C12.7664 12.025 12.7695 11.9875 12.7695 11.9468V11.6562C12.7727 11.6156 12.7445 11.6 12.7133 11.6187Z" fill="#4DA825"></path><path d="M10.0348 8.85024C10.0754 8.82836 10.1098 8.85649 10.1098 8.90961L10.1129 9.34399C10.2941 9.27211 10.4535 9.25336 10.5973 9.28461C10.6285 9.29399 10.641 9.33461 10.6285 9.38461L10.5316 9.76899C10.5254 9.79711 10.5066 9.82836 10.4879 9.84711C10.4785 9.85649 10.4723 9.86274 10.4629 9.86586C10.4504 9.87211 10.4379 9.87524 10.4254 9.87211C10.3598 9.85649 10.2035 9.82211 9.95977 9.94711C9.70352 10.0784 9.61289 10.3002 9.61602 10.4659C9.61914 10.6627 9.71914 10.7252 10.0691 10.7284C10.5348 10.7346 10.7379 10.9409 10.741 11.4096C10.7473 11.8721 10.5004 12.3659 10.1223 12.6721L10.1316 13.1034C10.1316 13.1565 10.0973 13.2159 10.0566 13.2346L9.80039 13.3815C9.75977 13.4034 9.72539 13.3784 9.72539 13.3252L9.72227 12.9002C9.50352 12.9909 9.28164 13.0127 9.14102 12.9565C9.11289 12.9471 9.10352 12.9065 9.11289 12.8627L9.20664 12.4721C9.21289 12.4409 9.23164 12.4096 9.25352 12.3909C9.26289 12.3846 9.26914 12.3784 9.27852 12.3721C9.29414 12.3659 9.30664 12.3627 9.31914 12.369C9.47227 12.419 9.66602 12.3971 9.85352 12.3002C10.091 12.1784 10.2504 11.9377 10.2473 11.694C10.2441 11.4752 10.1254 11.3846 9.83789 11.3815C9.47227 11.3815 9.12852 11.3096 9.12227 10.769C9.11914 10.3252 9.35039 9.86274 9.71602 9.56899L9.71289 9.13461C9.71289 9.08149 9.74414 9.02211 9.78789 9.00024L10.0348 8.85024Z" fill="white"></path></g><defs><clipPath id="clip0_345_7461"><rect width="16" height="16" fill="white"></rect></clipPath></defs></svg> 