<?xml version="1.0" encoding="UTF-8"?> <svg xmlns="http://www.w3.org/2000/svg" width="16" height="16" viewBox="0 0 16 16" fill="none"><g clip-path="url(#clip0_346_7537)"><path d="M9.01895 0.065165C7.44955 -0.136373 5.85565 0.13201 4.43876 0.836375C3.02189 1.54074 1.84572 2.64944 1.05898 4.02228C0.272243 5.39515 -0.089721 6.97045 0.0188639 8.549C0.127449 10.1275 0.701705 11.6385 1.66901 12.8906C2.63632 14.1428 3.95322 15.0801 5.4532 15.5838C6.95315 16.0875 8.5688 16.1351 10.0958 15.7206C11.6228 15.3061 12.9927 14.448 14.0321 13.2549C15.0714 12.0618 15.7336 10.5874 15.9349 9.01795C16.2049 6.91365 15.6279 4.78829 14.3309 3.10934C13.034 1.4304 11.1233 0.335391 9.01895 0.065165Z" fill="#FF6C37"></path><path d="M5.78467 8.50531C5.78777 8.51166 5.79302 8.51671 5.79942 8.51961C5.80582 8.52256 5.81307 8.52316 5.81987 8.52131L7.09987 8.24531L6.56147 7.69971L5.79427 8.46691C5.78822 8.47101 5.78392 8.47716 5.78212 8.48426C5.78037 8.49136 5.78127 8.49886 5.78467 8.50531Z" fill="white"></path><path d="M11.7775 3.00977C11.5991 3.00995 11.4231 3.05014 11.2623 3.12738C11.1015 3.20461 10.9601 3.31693 10.8484 3.45606C10.7368 3.59518 10.6578 3.75758 10.6172 3.93128C10.5766 4.10499 10.5755 4.28558 10.614 4.45976C10.6525 4.63395 10.7295 4.79729 10.8394 4.93776C10.9494 5.07822 11.0894 5.19222 11.2493 5.27142C11.4091 5.35062 11.5847 5.39292 11.7631 5.39527C11.9414 5.39762 12.118 5.35992 12.2799 5.28497L11.4687 4.47377C11.4594 4.46448 11.452 4.45345 11.447 4.4413C11.4419 4.42915 11.4393 4.41613 11.4393 4.40297C11.4393 4.38982 11.4419 4.37679 11.447 4.36464C11.452 4.3525 11.4594 4.34146 11.4687 4.33217L12.5287 3.27297C12.3158 3.10181 12.0507 3.0089 11.7775 3.00977Z" fill="white"></path><path d="M12.6733 3.41016L11.6797 4.39976L12.4589 5.17896C12.5163 5.13866 12.5698 5.09311 12.6189 5.04296C12.8324 4.82796 12.9567 4.54012 12.9668 4.23724C12.9769 3.93437 12.872 3.6389 12.6733 3.41016Z" fill="white"></path><path d="M10.6867 5.23683H10.6691C10.6485 5.23663 10.6278 5.23853 10.6075 5.24243H10.6003C10.578 5.24723 10.5561 5.25363 10.5347 5.26163L10.5179 5.26963C10.5018 5.27633 10.4863 5.28433 10.4715 5.29363L10.4539 5.30483C10.4346 5.31818 10.4164 5.33318 10.3995 5.34963L7.45312 8.29678L7.81792 8.66158L10.9379 5.92323C10.9556 5.90773 10.9716 5.89058 10.9859 5.87203L10.9995 5.85443C11.0102 5.83878 11.0198 5.82248 11.0283 5.80563C11.0331 5.79603 11.0371 5.78643 11.0411 5.77683C11.0465 5.76403 11.0511 5.75093 11.0547 5.73763C11.0547 5.72803 11.0603 5.71843 11.0627 5.70883C11.0667 5.68898 11.0694 5.66898 11.0707 5.64883V5.62243C11.0707 5.60803 11.0707 5.59363 11.0707 5.57923C11.0707 5.56483 11.0707 5.56003 11.0667 5.55043C11.0519 5.47493 11.0151 5.40548 10.9608 5.35093C10.9066 5.29643 10.8374 5.25918 10.7619 5.24403H10.7467C10.7269 5.24018 10.7069 5.23778 10.6867 5.23683Z" fill="white"></path><path d="M6.69727 7.55852L7.30207 8.16012L10.2565 5.20572C10.3526 5.11172 10.4779 5.05332 10.6117 5.04012C10.0893 4.64012 9.51967 4.74492 6.69727 7.55852Z" fill="white"></path><path d="M11.1033 6.03857L11.0673 6.07377L7.94727 8.81137L8.47767 9.34097C9.79287 8.09697 10.9601 6.91217 11.1033 6.03857Z" fill="white"></path><path d="M3.32236 12.4517C3.32398 12.4574 3.32731 12.4624 3.33189 12.4662C3.33647 12.4699 3.34208 12.4721 3.34796 12.4725L4.70796 12.5661L3.94556 11.8037L3.32876 12.4197C3.32476 12.4239 3.32204 12.4291 3.3209 12.4348C3.31977 12.4405 3.32028 12.4463 3.32236 12.4517Z" fill="white"></path><path d="M4.08789 11.6626L4.89189 12.4666C4.90143 12.4768 4.9142 12.4834 4.92804 12.4853C4.94188 12.4872 4.95596 12.4842 4.96789 12.477C4.98035 12.4708 4.99028 12.4605 4.99597 12.4478C5.00168 12.4351 5.00278 12.4208 4.99909 12.4074L4.86389 11.8298C4.85513 11.7923 4.85911 11.753 4.8752 11.7181C4.89128 11.6832 4.91855 11.6547 4.95269 11.637C6.36228 10.9306 7.49908 10.2034 8.33348 9.47699L7.77348 8.91699L6.57348 9.17539L4.08789 11.6626Z" fill="white"></path><path d="M7.60036 8.74709L7.29956 8.44629L6.88356 8.86149C6.88056 8.86509 6.87891 8.86964 6.87891 8.87429C6.87891 8.87899 6.88056 8.88349 6.88356 8.88709C6.88546 8.89134 6.88891 8.89479 6.89316 8.89669C6.89746 8.89859 6.90226 8.89889 6.90676 8.89749L7.60036 8.74709Z" fill="white"></path><path d="M12.7018 4.05526C12.6977 4.04267 12.6909 4.0311 12.682 4.02134C12.6731 4.01157 12.6621 4.00383 12.6499 3.99864C12.6378 3.99345 12.6246 3.99093 12.6114 3.99124C12.5981 3.99155 12.5851 3.99469 12.5732 4.00045C12.5613 4.00621 12.5507 4.01446 12.5422 4.02463C12.5338 4.03481 12.5276 4.04668 12.5241 4.05945C12.5206 4.07222 12.5198 4.08559 12.5219 4.09867C12.524 4.11174 12.5289 4.12422 12.5362 4.13526C12.5601 4.18337 12.5696 4.23737 12.5635 4.29074C12.5574 4.34412 12.5359 4.39459 12.5018 4.43606C12.4906 4.44961 12.4834 4.46607 12.4812 4.48352C12.479 4.50097 12.4818 4.51869 12.4892 4.53462C12.4967 4.55056 12.5085 4.56404 12.5234 4.5735C12.5382 4.58296 12.5554 4.58801 12.573 4.58806C12.5866 4.58791 12.6 4.58484 12.6123 4.57904C12.6246 4.57324 12.6354 4.56485 12.6442 4.55446C12.7008 4.48561 12.7364 4.4019 12.7466 4.31335C12.7568 4.2248 12.7412 4.13519 12.7018 4.05526Z" fill="#FF6C37"></path></g><defs><clipPath id="clip0_346_7537"><rect width="16" height="16" fill="white"></rect></clipPath></defs></svg> 