<?xml version="1.0" encoding="UTF-8"?> <svg xmlns="http://www.w3.org/2000/svg" width="16" height="16" viewBox="0 0 16 16" fill="none"><g clip-path="url(#clip0_346_7563)"><path d="M6.95348 2.14867C6.40015 3.07267 6.34948 3.14801 6.14682 3.35534C5.72482 3.79134 5.20215 4.02401 4.53681 4.07134C4.41215 4.08001 3.69348 4.09334 2.73548 4.10467C2.31015 4.11001 2.23548 4.11201 2.22481 4.12334C2.21815 4.13067 2.10148 4.30601 1.96481 4.51401L1.71815 4.89067L1.78748 4.89401C1.82481 4.89601 2.08281 4.89201 2.35948 4.88667C2.65611 4.88033 2.95279 4.8761 3.24948 4.87401C3.63081 4.87401 3.63615 4.87401 3.69415 4.89401C3.85815 4.95001 3.95615 5.09801 3.93081 5.24934C3.92087 5.31725 3.89037 5.38049 3.84341 5.43055C3.79645 5.48061 3.73529 5.51508 3.66815 5.52934C3.59881 5.54734 3.41815 5.55201 1.78748 5.57934C1.50348 5.58401 1.26748 5.58934 1.26481 5.59267C1.09313 5.84337 0.927091 6.09787 0.766815 6.35601C0.769482 6.35867 1.03681 6.35601 1.36215 6.35134C3.44881 6.31734 5.25815 6.29001 5.76215 6.28467C6.24681 6.27934 6.42548 6.27134 6.55548 6.24867C6.91548 6.18734 7.19148 6.05067 7.42881 5.81534C7.59748 5.64734 7.74548 5.43401 7.99681 4.99534C8.08015 4.85067 8.17148 4.69534 8.20148 4.64867L8.29348 4.50001C8.31548 4.46401 8.34015 4.42667 8.34815 4.41667C8.37015 4.39134 8.41481 4.31934 8.44148 4.26334C8.46415 4.21667 8.79748 3.65934 8.94148 3.42534C9.04148 3.26401 9.09615 3.21734 9.22148 3.18867C9.39481 3.14867 9.60815 3.25667 9.65681 3.41001C9.69681 3.53534 9.67882 3.61334 9.56615 3.80334C8.75948 5.16001 8.46615 5.64601 8.30815 5.88534C7.86015 6.56401 7.18548 6.92801 6.31415 6.96067C6.24415 6.96267 5.79882 6.97067 5.32348 6.97801L3.95548 6.99867L2.89481 7.01667C2.2055 7.02826 1.51616 7.03892 0.826815 7.04867C0.492148 7.05201 0.319482 7.05734 0.306815 7.06334C0.273942 7.10032 0.246959 7.14215 0.226815 7.18734C0.137815 7.35326 0.0737921 7.5314 0.0368149 7.71601C0.032964 7.74655 0.0241833 7.77627 0.0108149 7.80401C-0.00518515 7.80867 -0.00251848 8.32867 0.0128149 8.34401C0.026827 8.37225 0.0358489 8.40269 0.0394815 8.43401C0.0774815 8.62401 0.170815 8.84467 0.302815 9.05534L0.364148 9.15334L1.24148 9.15867C1.72415 9.16134 2.97281 9.16867 4.01748 9.17267C5.14548 9.17801 5.96015 9.18534 6.02415 9.19067C6.23615 9.20801 6.34948 9.22534 6.52415 9.26934C6.94449 9.37024 7.32685 9.59012 7.62548 9.90267C7.79548 10.0787 7.87881 10.196 8.25281 10.7953C8.49681 11.1847 9.22282 12.3707 9.24882 12.422C9.34348 12.6087 9.28215 12.8027 9.10015 12.8887C9.04692 12.9161 8.98812 12.9309 8.92826 12.9321C8.86839 12.9332 8.80906 12.9207 8.75482 12.8953C8.65815 12.8473 8.65348 12.842 8.15482 12.0353C8.04207 11.852 7.92829 11.6694 7.81348 11.4873C7.73545 11.3628 7.659 11.2372 7.58415 11.1107C7.33748 10.6973 7.19215 10.4907 7.03748 10.336C6.82377 10.1258 6.5546 9.9808 6.26148 9.91801C6.07082 9.87534 6.03615 9.87401 4.70948 9.86667C3.99505 9.86162 3.2806 9.85851 2.56615 9.85734C2.07415 9.85734 1.47681 9.85401 1.23948 9.85201C0.894815 9.84667 0.808148 9.84734 0.808148 9.85667C0.808148 9.86201 0.912148 10.0367 1.04015 10.242L1.27215 10.6153L1.49348 10.6173C3.09815 10.63 3.18015 10.6307 3.23948 10.642C3.36882 10.6687 3.44548 10.724 3.49681 10.8287C3.52268 10.871 3.53435 10.9206 3.53015 10.97C3.53227 11.0127 3.52481 11.0554 3.50831 11.0948C3.49182 11.1343 3.4667 11.1695 3.43481 11.198C3.38811 11.2434 3.33047 11.276 3.26748 11.2927C3.21748 11.3073 3.17281 11.3087 2.45815 11.306C1.84481 11.304 1.70215 11.306 1.70748 11.3147C1.73415 11.3627 2.17081 12.0647 2.17681 12.0713C2.18215 12.076 2.57148 12.082 3.18215 12.0853C4.00215 12.0907 4.20015 12.094 4.29748 12.1053C5.03415 12.192 5.59215 12.5073 6.01282 13.0767C6.09082 13.182 6.17815 13.3207 6.62081 14.0367L6.93148 14.5393H7.40748C7.66882 14.5393 7.88348 14.5373 7.88348 14.5347C7.88348 14.532 7.71215 14.2547 7.50348 13.9187C7.17084 13.3847 6.83972 12.8498 6.51015 12.314C6.45119 12.2172 6.39029 12.1217 6.32748 12.0273C6.1006 11.7001 5.75963 11.4695 5.37148 11.3807C5.20348 11.34 5.08615 11.3293 4.78882 11.3253C4.49148 11.3213 4.44082 11.3147 4.35815 11.272C4.29284 11.2381 4.2392 11.1854 4.20415 11.1207C4.18215 11.0773 4.17948 11.062 4.17948 10.98C4.17948 10.8953 4.18148 10.8833 4.20415 10.8413C4.22886 10.7959 4.26279 10.7561 4.30378 10.7245C4.34477 10.693 4.3919 10.6703 4.44215 10.658C4.48882 10.644 4.52882 10.642 4.78882 10.642C5.01882 10.642 5.10882 10.6453 5.20548 10.658C5.83015 10.738 6.29881 10.9547 6.68815 11.3427C6.87215 11.5267 6.95281 11.638 7.19348 12.0373C7.27815 12.1767 7.46815 12.4853 7.61748 12.7227L8.31748 13.8467L8.74681 14.54H9.35015C9.83148 14.54 9.95348 14.5367 9.95015 14.528C9.89765 14.4408 9.84431 14.3542 9.79015 14.268C9.48348 13.7767 9.46148 13.7373 9.44815 13.6393C9.43015 13.502 9.52682 13.36 9.67815 13.306C9.74611 13.2792 9.82055 13.2734 9.89186 13.2893C9.96316 13.3052 10.0281 13.3422 10.0781 13.3953C10.1208 13.4373 10.3541 13.802 10.7021 14.372L10.8061 14.542L10.9248 14.536C11.2277 14.5243 11.5249 14.4506 11.7981 14.3193C11.8415 14.2993 11.8815 14.282 11.8875 14.28C12.1682 14.1393 12.4138 13.9375 12.6061 13.6893C13.1412 12.8804 13.673 12.0693 14.2015 11.256C15.8575 8.71868 15.8235 8.77334 15.9041 8.53201C16.0547 8.09113 16.0272 7.60891 15.8275 7.18801C15.7955 7.11934 15.2688 6.26334 14.3188 4.73267C13.8213 3.92691 13.3207 3.12313 12.8168 2.32134C12.6264 2.06064 12.3745 1.85109 12.0835 1.71134C11.8948 1.61131 11.692 1.54029 11.4821 1.50067C11.3621 1.47867 11.3535 1.47667 11.3601 1.46601C11.3628 1.46067 11.2895 1.45934 11.1655 1.45934L10.9668 1.46267L10.7901 1.75601C10.3981 2.40934 10.3615 2.46801 10.3061 2.52334C10.2512 2.58177 10.179 2.62123 10.1001 2.63601C9.95215 2.66267 9.76948 2.57401 9.70682 2.44467C9.68682 2.40667 9.68482 2.38867 9.68482 2.30867C9.68482 2.18401 9.67882 2.19734 10.0208 1.63534C10.0559 1.58033 10.0886 1.52383 10.1188 1.46601C10.1188 1.46134 9.92548 1.45801 9.64548 1.45801H9.17215L9.15948 1.47801C8.75573 2.15252 8.34929 2.82542 7.94015 3.49667C7.80015 3.72801 7.62815 4.01401 7.56015 4.13201C7.40615 4.39601 7.34282 4.49201 7.23348 4.62801C7.12067 4.76424 6.99498 4.88926 6.85815 5.00134C6.50481 5.27534 6.07815 5.44134 5.57815 5.49934C5.33748 5.52734 4.98881 5.53134 4.86348 5.50801C4.81022 5.4972 4.75986 5.47521 4.71573 5.44349C4.6716 5.41177 4.6347 5.37105 4.60748 5.32401C4.58548 5.28067 4.58281 5.26867 4.58281 5.18401C4.58281 5.10401 4.58548 5.08601 4.60548 5.04401C4.62903 4.99803 4.66216 4.95764 4.70264 4.92556C4.74312 4.89347 4.79001 4.87044 4.84015 4.85801C4.88882 4.84467 4.94682 4.84001 5.18348 4.83334C5.35948 4.82867 5.50681 4.82001 5.56881 4.81134C5.70488 4.79117 5.83863 4.75767 5.96815 4.71134C6.07748 4.66801 6.23215 4.58467 6.32282 4.51934C6.45536 4.41834 6.57414 4.30045 6.67615 4.16867C6.71348 4.11934 6.89281 3.82934 7.07548 3.52467C7.25748 3.21934 7.60882 2.63534 7.85615 2.22667C8.10282 1.81734 8.30748 1.47734 8.30948 1.47001C8.31348 1.45934 8.24415 1.45801 7.84081 1.45801H7.36882L6.95415 2.14801L6.95348 2.14867ZM11.6441 2.50601C11.6441 2.51267 11.6475 2.51934 11.6521 2.52067C11.6555 2.52134 11.7195 2.62001 11.7935 2.73867C12.1308 3.27867 12.2548 3.48334 12.2735 3.53467C12.2975 3.60134 12.3001 3.68867 12.2788 3.75001C12.2429 3.82204 12.1874 3.88255 12.1188 3.92467C12.0496 3.96463 11.9691 3.98054 11.8898 3.96993C11.8106 3.95932 11.7371 3.92278 11.6808 3.86601C11.6275 3.81601 11.5708 3.73201 11.3741 3.40934C11.3008 3.28801 11.2315 3.17867 11.2215 3.16534C11.2108 3.14934 11.2068 3.13467 11.2108 3.12134C11.2175 3.10067 11.5841 2.53467 11.6115 2.50467C11.6295 2.48467 11.6448 2.48467 11.6448 2.50667L11.6441 2.50601ZM10.7201 3.93067C10.7175 3.93534 10.7201 3.93934 10.7235 3.94134C10.7315 3.94401 11.3921 5.00334 11.7728 5.62334C12.0928 6.14201 12.2368 6.37467 12.3595 6.56534C12.5601 6.87801 12.6348 7.02334 12.7101 7.24934C12.7868 7.47734 12.8168 7.68467 12.8081 7.91934C12.8035 8.07934 12.7881 8.17934 12.7495 8.33534C12.6815 8.60201 12.5328 8.91267 12.3428 9.18734C12.2828 9.27267 12.1608 9.40201 12.1401 9.40201C12.1335 9.40201 12.1268 9.40534 12.1268 9.41001C12.1268 9.41401 12.1008 9.42667 12.0695 9.43667C11.9841 9.46145 11.8931 9.45865 11.8095 9.42867C11.7259 9.38803 11.6573 9.32199 11.6135 9.24001C11.5921 9.19534 11.5908 9.18201 11.5941 9.11334C11.5988 9.02001 11.6181 8.97867 11.7481 8.77801C11.9148 8.52134 11.9828 8.38067 12.0308 8.18801C12.1135 7.86134 12.0728 7.53734 11.9081 7.21467C11.8755 7.15134 11.6681 6.81067 11.4468 6.45601C11.1877 6.04195 10.9299 5.62706 10.6735 5.21134C10.4681 4.88067 10.2941 4.59934 10.2841 4.58601C10.2748 4.57201 10.2681 4.55601 10.2708 4.55001C10.2775 4.53201 10.6641 3.94534 10.6841 3.92467C10.6975 3.91001 10.7041 3.90734 10.7128 3.91401C10.7195 3.91934 10.7228 3.92734 10.7195 3.93134L10.7201 3.93067ZM12.8148 4.53667C12.8831 4.56164 12.9431 4.60502 12.9881 4.66201C13.0515 4.74001 13.9381 6.14867 14.2621 6.68867C14.4488 6.99667 14.5355 7.18867 14.5955 7.42401C14.6368 7.58601 14.6528 7.71134 14.6528 7.88334C14.6528 8.11201 14.6281 8.26334 14.5561 8.48134C14.4721 8.73601 14.4115 8.85001 14.1175 9.30534C14.0108 9.47201 13.4521 10.3373 12.8788 11.23L11.6375 13.1567C11.5288 13.3253 11.4355 13.47 11.4308 13.48C11.4255 13.4887 11.4181 13.4953 11.4128 13.4933C11.2675 13.2738 11.1286 13.0502 10.9961 12.8227C10.9961 12.8167 11.0041 12.8007 11.0128 12.788C11.8669 11.4616 12.7216 10.1356 13.5768 8.81001C13.7135 8.59801 13.7541 8.52401 13.8055 8.39667C13.8797 8.21968 13.9139 8.02843 13.9055 7.83667C13.8961 7.62601 13.8541 7.47667 13.7361 7.24067C13.6495 7.06334 13.5661 6.92334 13.3615 6.60734C13.2781 6.47867 13.1821 6.32734 13.1488 6.27134C13.0419 6.09536 12.9339 5.92002 12.8248 5.74534C12.3155 4.92801 12.3215 4.93867 12.3201 4.84534C12.3201 4.76667 12.3468 4.70401 12.4055 4.64067C12.4637 4.58062 12.5376 4.53811 12.6188 4.51801C12.6847 4.50848 12.7518 4.51464 12.8148 4.53601V4.53667ZM9.78815 5.34667L9.92148 5.56334C10.6488 6.72801 10.6795 6.77934 10.7528 6.92534C11.0601 7.53801 11.0628 8.14667 10.7621 8.74867C10.6981 8.87534 10.6721 8.91867 10.2508 9.57267C9.68548 10.4527 9.61948 10.5527 9.60148 10.5727C9.58682 10.5873 9.58481 10.5887 9.58481 10.5747C9.58481 10.5667 9.22948 9.98734 8.79548 9.28801C8.52989 8.86332 8.26677 8.43709 8.00615 8.00934C8.00615 8.00467 8.37548 7.43734 8.82815 6.74801C9.12102 6.30258 9.41302 5.85658 9.70415 5.41001C9.72222 5.37946 9.74369 5.35106 9.76815 5.32534C9.77282 5.32534 9.78148 5.33401 9.78815 5.34667ZM11.4128 9.90867C11.4897 9.94758 11.5538 10.0077 11.5975 10.082C11.6123 10.1142 11.6216 10.1487 11.6248 10.184C11.6315 10.2727 11.6088 10.324 11.4488 10.576C11.1717 11.0106 10.8939 11.4448 10.6155 11.8787L10.5321 12.008C10.5175 12.0347 10.5148 12.036 10.5001 12.0253C10.3616 11.8124 10.2271 11.5968 10.0968 11.3787C10.0888 11.3587 10.9215 10.062 10.9815 10C11.0186 9.95855 11.0646 9.92608 11.1162 9.90506C11.1677 9.88404 11.2233 9.87501 11.2788 9.87867C11.3252 9.87783 11.3712 9.88812 11.4128 9.90867Z" fill="#419EEC"></path></g><defs><clipPath id="clip0_346_7563"><rect width="16" height="16" fill="white"></rect></clipPath></defs></svg> 