<?xml version="1.0" encoding="UTF-8"?> <svg xmlns="http://www.w3.org/2000/svg" width="25" height="24" viewBox="0 0 25 24" fill="none"><g clip-path="url(#clip0_336_8462)"><path d="M11.5755 12.4487C11.8953 12.899 11.7896 13.5233 11.3393 13.8431C10.889 14.1629 10.2648 14.0571 9.94497 13.6069C8.82234 12.0262 8.99518 9.84985 10.3802 8.46486L13.3854 5.45965C14.9475 3.89756 17.4802 3.89756 19.0423 5.45965C20.6044 7.02175 20.6044 9.55441 19.0423 11.1165L18.3352 11.8236C17.9446 12.2141 17.3115 12.2141 16.9209 11.8236C16.5304 11.4331 16.5304 10.7999 16.9209 10.4094L17.628 9.7023C18.4091 8.92125 18.4091 7.65492 17.628 6.87387C16.847 6.09282 15.5807 6.09282 14.7996 6.87387L11.7944 9.87908C11.1021 10.5714 11.0156 11.6604 11.5755 12.4487ZM13.4238 11.5472C13.1026 11.0979 13.2065 10.4733 13.6558 10.1522C14.1051 9.83101 14.7297 9.93488 15.0509 10.3842C16.181 11.9652 16.0109 14.1479 14.6227 15.536L11.6175 18.5412C10.0554 20.1033 7.52273 20.1033 5.96064 18.5412C4.39854 16.9791 4.39854 14.4465 5.96064 12.8844L6.66774 12.1773C7.05827 11.7868 7.69143 11.7868 8.08196 12.1773C8.47248 12.5678 8.47248 13.201 8.08196 13.5915L7.37485 14.2986C6.5938 15.0796 6.5938 16.346 7.37485 17.127C8.1559 17.9081 9.42223 17.9081 10.2033 17.127L13.2085 14.1218C13.9023 13.428 13.9875 12.3358 13.4238 11.5472Z" fill="#1A1A1A"></path></g><defs><clipPath id="clip0_336_8462"><rect width="16" height="16" fill="white" transform="translate(4.5 4)"></rect></clipPath></defs></svg> 