<?xml version="1.0" encoding="UTF-8"?> <svg xmlns="http://www.w3.org/2000/svg" width="24" height="24" viewBox="0 0 24 24" fill="none"><path d="M12.0005 17.3281L6.59705 20.6144C6.24315 20.8297 5.78177 20.7173 5.56653 20.3634C5.46407 20.1949 5.43207 19.9929 5.47746 19.801L6.93324 13.6465L2.13798 9.52313C1.82391 9.25307 1.78823 8.77954 2.0583 8.46547C2.18685 8.31597 2.36911 8.2231 2.56562 8.20698L8.86874 7.68967L11.3085 1.8549C11.4683 1.47275 11.9076 1.2925 12.2898 1.45229C12.4717 1.52835 12.6163 1.67299 12.6924 1.8549L15.1322 7.68967L21.4353 8.20698C21.8481 8.24086 22.1553 8.60298 22.1214 9.01581C22.1053 9.21232 22.0124 9.39458 21.8629 9.52313L17.0677 13.6465L18.5234 19.801C18.6188 20.2041 18.3693 20.6082 17.9662 20.7035C17.7743 20.7489 17.5723 20.7169 17.4039 20.6144L12.0005 17.3281Z" fill="black" fill-opacity="0.83"></path></svg> 