<?xml version="1.0" encoding="UTF-8"?> <svg xmlns="http://www.w3.org/2000/svg" width="24" height="24" viewBox="0 0 24 24" fill="none"><path fill-rule="evenodd" clip-rule="evenodd" d="M12 20.0029C16.4183 20.0029 20 16.4212 20 12.0029C20 7.58465 16.4183 4.00293 12 4.00293C7.58172 4.00293 4 7.58465 4 12.0029C4 16.4212 7.58172 20.0029 12 20.0029ZM14.4042 8.18455C14.7947 7.79403 15.4279 7.79403 15.8184 8.18455C16.2089 8.57507 16.2089 9.20824 15.8184 9.59876L13.4142 12.0029L15.8184 14.4071C16.2089 14.7976 16.2089 15.4308 15.8184 15.8213C15.4279 16.2118 14.7947 16.2118 14.4042 15.8213L12 13.4171L9.59584 15.8213C9.20531 16.2118 8.57215 16.2118 8.18162 15.8213C7.7911 15.4308 7.7911 14.7976 8.18162 14.4071L10.5858 12.0029L8.18162 9.59876C7.7911 9.20824 7.7911 8.57507 8.18162 8.18455C8.57215 7.79403 9.20531 7.79403 9.59584 8.18455L12 10.5887L14.4042 8.18455Z" fill="black" fill-opacity="0.83"></path></svg> 