<?xml version="1.0" encoding="UTF-8"?> <svg xmlns="http://www.w3.org/2000/svg" width="24" height="24" viewBox="0 0 24 24" fill="none"><path d="M11.8026 2.02883C11.4486 1.97907 11.1086 2.18612 10.9904 2.52352L10.7503 3.2086C10.6038 3.62672 10.28 3.95867 9.86574 4.11548L9.54584 4.23654C7.71085 4.77945 6.21731 6.24971 5.71584 8.21132L4.50369 12.9528C4.27801 13.8356 3.70498 14.5897 2.91487 15.0436L2.52631 15.2668C2.01128 15.5626 1.71933 16.1345 1.78179 16.7252L1.78744 16.7785C1.85114 17.381 2.31668 17.8627 2.91657 17.9471L8.02144 18.6645C8.00921 18.7746 8.00293 18.8864 8.00293 18.9997C8.00293 20.6566 9.34608 21.9997 11.003 21.9997C12.4896 21.9997 13.7237 20.9184 13.9616 19.4993L16.7193 19.8869C17.3192 19.9712 17.8995 19.6364 18.1268 19.0749L18.147 19.0252C18.3698 18.4746 18.2468 17.8444 17.8333 17.418L17.5213 17.0964C16.8869 16.4423 16.5439 15.5595 16.5703 14.6487L16.6398 12.2485C13.9306 12.1884 11.7528 9.97338 11.7528 7.2497C11.7528 5.84633 12.3309 4.578 13.2621 3.6699C13.2573 3.6336 13.2538 3.59698 13.2517 3.56015L13.2097 2.83543C13.1891 2.47852 12.9194 2.18579 12.5654 2.13603L11.8026 2.02883Z" fill="black" fill-opacity="0.83"></path><path d="M16.752 10.25C18.4088 10.25 19.752 8.90685 19.752 7.25C19.752 5.59315 18.4088 4.25 16.752 4.25C15.0951 4.25 13.752 5.59315 13.752 7.25C13.752 8.90685 15.0951 10.25 16.752 10.25Z" fill="black" fill-opacity="0.83"></path></svg> 