<?xml version="1.0" encoding="UTF-8"?> <svg xmlns="http://www.w3.org/2000/svg" width="24" height="24" viewBox="0 0 24 24" fill="none"><path d="M15.0508 18.002C15.1373 17.0199 15.3706 15.579 15.9998 14.9497C19.9496 11 19.6833 6.78392 16.9496 4.05025C14.2159 1.31658 9.78377 1.31658 7.0501 4.05025C4.31643 6.78392 4.10036 11 8.0501 14.9497C8.70016 15.5998 8.90936 16.9968 8.9744 17.9671C9.01221 18.5312 9.4685 19 10.0339 19H13.9998C14.5521 19 15.0024 18.5521 15.0508 18.002Z" fill="black" fill-opacity="0.83"></path><path d="M10.9998 19.9999C10.4476 19.9999 9.99984 20.4476 9.99984 20.9999C9.99984 21.5522 10.4476 21.9999 10.9998 21.9999H12.9998C13.5521 21.9999 13.9998 21.5522 13.9998 20.9999C13.9998 20.4476 13.5521 19.9999 12.9998 19.9999H10.9998Z" fill="black" fill-opacity="0.83"></path></svg> 