<?xml version="1.0" encoding="UTF-8"?> <svg xmlns="http://www.w3.org/2000/svg" width="965" height="30" viewBox="0 0 965 30" fill="none"> <path d="M27 20C28.3161 17.3294 31.0029 15.5 34.1034 15.5L315.492 15.5001" stroke="#FF8F60" stroke-width="3"></path> <ellipse cx="335" cy="15" rx="13" ry="13" transform="rotate(-90 335 15)" fill="#FF8F60" stroke="#FF8F60" stroke-width="3"></ellipse> <path d="M339.018 12.172C339.018 14.872 336.426 17.392 332.484 20.128H339.324V22H329.82V20.236C334.176 16.834 336.786 14.53 336.786 12.352C336.786 11.092 335.958 10.354 334.68 10.354C333.438 10.354 332.25 11.092 332.25 13.126H330.108C330.072 10.498 331.908 8.716 334.77 8.716C337.182 8.716 339.018 9.958 339.018 12.172Z" fill="#1A1A1A"></path> <path d="M347.008 20C348.333 17.3294 351.038 15.5 354.16 15.5L636.497 15.5" stroke="#FF8F60" stroke-width="3"></path> <path d="M349.614 15.1927C349.214 15.4169 348.832 15.6695 348.47 15.9477C348.399 16.0018 348.296 15.9459 348.305 15.8574C348.343 15.4498 348.357 15.1653 348.342 14.7699C348.341 14.7417 348.352 14.7142 348.372 14.6942C348.897 14.1704 349.298 13.596 349.472 13.023L349.752 12.3975C349.795 12.3011 349.938 12.3287 349.943 12.4342L350.045 14.8863C350.046 14.9238 350.027 14.959 349.994 14.9775L349.614 15.1927Z" fill="#F2F1EE"></path> <ellipse cx="15" cy="15" rx="13" ry="13" transform="rotate(-90 15 15)" fill="#FF8F60" stroke="#FF8F60" stroke-width="3"></ellipse> <path d="M14.5254 22L14.5254 12.064H11.6094V10.588C13.4994 10.534 14.4174 10.372 15.0834 8.95H16.6674L16.6674 22H14.5254Z" fill="#1A1A1A"></path> <path d="M668.008 20C669.333 17.3294 671.84 15.5 674.962 15.5L876.493 15.5" stroke="#FF8F60" stroke-width="3"></path> <ellipse cx="656" cy="15" rx="13" ry="13" transform="rotate(-90 656 15)" fill="#FF8F60" stroke="#FF8F60" stroke-width="3"></ellipse> <path d="M658.379 18.328C658.379 16.654 657.047 16.078 655.121 16.078H654.491V14.296H655.031C657.065 14.296 658.055 13.63 658.055 12.28C658.055 10.966 656.993 10.354 655.787 10.354C654.203 10.354 653.321 11.308 653.123 12.838H651.035C651.233 10.354 653.015 8.716 655.913 8.716C658.091 8.716 660.251 9.706 660.251 12.154C660.251 13.45 659.495 14.53 658.343 15.088C659.909 15.664 660.593 16.942 660.593 18.274C660.593 20.938 658.307 22.234 655.697 22.234C652.673 22.234 651.035 20.254 650.873 17.95H652.961C653.177 19.39 654.023 20.578 655.733 20.578C657.245 20.578 658.379 19.75 658.379 18.328Z" fill="#1A1A1A"></path> <rect x="883" y="2" width="80" height="26" rx="13" fill="#FF8F60"></rect> <path d="M901.048 20L896.136 10.736V20H894.168V8.4H896.888L901.8 17.664V8.4H903.768V20H901.048ZM907.37 16.24C907.498 17.84 908.618 18.624 909.706 18.624C910.698 18.624 911.482 18.224 911.818 17.424H913.69C913.29 18.8 912.01 20.208 909.786 20.208C907.018 20.208 905.434 18.096 905.434 15.632C905.434 13.04 907.21 11.2 909.658 11.2C912.298 11.2 913.946 13.344 913.786 16.24L907.37 16.24ZM907.37 14.848L911.85 14.848C911.802 13.504 910.778 12.688 909.658 12.688C908.762 12.688 907.53 13.216 907.37 14.848ZM919.099 11.392H921.067L922.555 17.504L923.819 11.392H925.883L923.595 20H921.787L920.091 13.632L918.395 20H916.587L914.299 11.392H916.363L917.627 17.504L919.099 11.392ZM932.632 8.4V10.32H930.728V8.4H932.632ZM930.728 11.392H932.632V20.128C932.632 22.288 932.088 22.8 930.136 22.8H929.496V21.328H929.848C930.632 21.328 930.728 21.12 930.728 20.208V11.392ZM942.679 15.712C942.679 18.816 940.535 20.208 938.439 20.208C936.343 20.208 934.199 18.816 934.199 15.712C934.199 12.608 936.343 11.2 938.439 11.2C940.535 11.2 942.679 12.608 942.679 15.712ZM938.439 18.656C939.639 18.656 940.711 17.696 940.711 15.712C940.711 13.728 939.639 12.752 938.439 12.752C937.239 12.752 936.167 13.728 936.167 15.712C936.167 17.696 937.239 18.656 938.439 18.656ZM946.148 8.4V12.544C946.66 11.696 947.556 11.2 948.708 11.2C950.74 11.2 952.452 12.944 952.452 15.696C952.452 18.464 950.74 20.208 948.708 20.208C947.556 20.208 946.66 19.712 946.148 18.864V20H944.244V8.4H946.148ZM948.292 18.656C949.556 18.656 950.468 17.52 950.468 15.696C950.468 13.888 949.556 12.752 948.292 12.752C947.044 12.752 946.068 13.712 946.068 15.696C946.068 17.68 947.044 18.656 948.292 18.656Z" fill="#1A1A1A"></path> <rect x="883" y="2" width="80" height="26" rx="13" stroke="#FF8F60" stroke-width="3"></rect> <path d="M29.567 15.1927C29.167 15.4169 28.7847 15.6695 28.4226 15.9477C28.3522 16.0018 28.2494 15.9459 28.2577 15.8574C28.2957 15.4498 28.3104 15.1653 28.295 14.7699C28.2939 14.7417 28.3047 14.7142 28.3248 14.6942C28.8498 14.1704 29.251 13.596 29.4251 13.023L29.7048 12.3975C29.7479 12.3011 29.8916 12.3287 29.896 12.4342L29.9977 14.8863C29.9993 14.9238 29.9797 14.959 29.9471 14.9775L29.567 15.1927Z" fill="#F2F1EE"></path> <path d="M670.473 15.1927C670.073 15.4169 669.691 15.6695 669.329 15.9477C669.258 16.0018 669.156 15.9459 669.164 15.8574C669.202 15.4498 669.217 15.1653 669.201 14.7699C669.2 14.7417 669.211 14.7142 669.231 14.6942C669.756 14.1704 670.157 13.596 670.331 13.023L670.611 12.3975C670.654 12.3011 670.798 12.3287 670.802 12.4342L670.904 14.8863C670.906 14.9238 670.886 14.959 670.853 14.9775L670.473 15.1927Z" fill="#F2F1EE"></path> </svg> 