<?xml version="1.0" encoding="UTF-8"?> <svg xmlns="http://www.w3.org/2000/svg" width="24" height="24" viewBox="0 0 24 24" fill="none"> <path fill-rule="evenodd" clip-rule="evenodd" d="M12.9396 5.25004C12.9396 3.46899 14.3735 2 16.1744 2C17.9599 2 19.4093 3.45346 19.4093 5.25004V11.7692C20.5087 12.6703 21.0104 14.0171 20.9998 15.2997C20.9643 19.292 17.2017 22 13.4319 22H11.8412C7.50573 22 4 18.4607 4 14.1123V10.3892C4 8.60068 5.44192 7.13919 7.23485 7.13919C7.76499 7.13919 8.26445 7.26697 8.70501 7.4932C9.18467 6.30432 10.346 5.45811 11.7046 5.45811C12.1421 5.45811 12.5592 5.54586 12.9396 5.70453V5.25004ZM12.9395 10.0888V8.70815C12.9395 8.01603 12.3756 7.45811 11.7046 7.45811C11.0336 7.45811 10.4698 8.01603 10.4698 8.70815V9.74965C10.4698 10.4418 11.0336 10.9997 11.7046 10.9997C11.7342 10.9997 11.7649 10.9982 11.7983 10.9949C12.1109 10.5976 12.5041 10.2923 12.9395 10.0888ZM11.1202 12.9465C10.7237 12.8734 10.3525 12.7274 10.0208 12.5231C9.45868 13.4779 8.42397 14.1207 7.23485 14.1207C6.79701 14.1207 6.38009 14.0336 6 13.8758V14.1123C6 17.3689 8.62304 20 11.8412 20H13.4319C16.4351 20 18.9769 17.8733 18.9999 15.2825C19.0069 14.4196 18.6357 13.6176 17.9324 13.1642L15.0027 12.0283C14.9501 12.0079 14.8994 11.9831 14.851 11.9541C14.33 11.6425 13.655 11.7934 13.3118 12.3124C12.946 12.875 13.1223 13.6179 13.6808 13.9512L13.6821 13.9519L14.7653 14.6004C15.2392 14.8841 15.3934 15.4982 15.1097 15.9721C14.826 16.4459 14.2119 16.6001 13.7381 16.3164L12.6561 15.6687C12.6558 15.6686 12.6563 15.6689 12.6561 15.6687C11.6591 15.0735 11.1175 14.0209 11.1202 12.9465ZM17.4093 10.8163V5.25004C17.4093 4.55094 16.8483 4 16.1744 4C15.4965 4 14.9396 4.55506 14.9396 5.25004V9.22936C14.9396 9.23353 14.9395 9.23769 14.9395 9.24185V9.86468C15.2332 9.92915 15.5221 10.0373 15.7974 10.1913L17.4093 10.8163ZM6 10.3892V10.8707C6 11.5675 6.55924 12.1207 7.23485 12.1207C7.91047 12.1207 8.46971 11.5675 8.46971 10.8707V10.3892C8.46971 9.69246 7.91047 9.13919 7.23485 9.13919C6.55924 9.13919 6 9.69246 6 10.3892Z" fill="#1A1A1A"></path> </svg> 