<?xml version="1.0" encoding="UTF-8"?> <svg xmlns="http://www.w3.org/2000/svg" width="16" height="16" viewBox="0 0 16 16" fill="none"><path d="M15.0488 0L13.7689 14.3983L8.01579 16L2.27852 14.4006L1 0H15.0488Z" fill="#264DE4"></path><path d="M12.6722 13.4813L13.766 1.17725H8.02344V14.7755L12.6722 13.4813Z" fill="#2965F1"></path><path d="M3.93164 6.51855L4.08927 8.28471H8.02504V6.51855H3.93164Z" fill="#EBEBEB"></path><path d="M8.02537 2.94336H8.01929H3.61523L3.77511 4.70955H8.02537V2.94336Z" fill="#EBEBEB"></path><path d="M8.02515 12.9427V11.1052L8.01745 11.1072L6.0587 10.5761L5.93349 9.16748H4.98169H4.16797L4.41437 11.9406L8.01706 12.945L8.02515 12.9427Z" fill="#EBEBEB"></path><path d="M10.1833 8.28429L9.97915 10.5749L8.01758 11.1066V12.944L11.6231 11.9405L11.6496 11.6422L12.0629 6.9924L12.1058 6.51814L12.4233 2.94336H8.01758V4.70955H10.4958L10.3358 6.51814H8.01758V8.28429H10.1833Z" fill="white"></path></svg> 