<?xml version="1.0" encoding="UTF-8"?> <svg xmlns="http://www.w3.org/2000/svg" width="32" height="32" viewBox="0 0 32 32" fill="none"><path fill-rule="evenodd" clip-rule="evenodd" d="M16.667 5.3335H15.3337H14.0003V6.66683H12.667V8.00016V9.3335V10.6668V12.0002V13.3335H11.3337H10.0003H8.66699H7.33366H6.00033V14.6668H4.66699V16.0002V17.3335V18.6668V20.0002V21.3335V22.6668V24.0002H6.00033V25.3335H7.33366V26.6668H8.66699H10.0003H11.3337H12.667H14.0003H15.3337H16.667H18.0003H19.3337H20.667H22.0003H23.3337H24.667H26.0003V25.3335H27.3337V24.0002V22.6668V21.3335V20.0002V18.6668V17.3335V16.0002V14.6668V13.3335V12.0002V10.6668V9.3335V8.00016V6.66683H26.0003V5.3335H24.667H23.3337H22.0003H20.667H19.3337H18.0003H16.667ZM6.00033 24.0002V22.6668V21.3335V20.0002V18.6668V17.3335V16.0002V14.6668H7.33366H8.66699H10.0003H11.3337H12.667V13.3335H14.0003V12.0002V10.6668V9.3335V8.00016V6.66683H15.3337H16.667H18.0003H19.3337H20.667H22.0003H23.3337H24.667V8.00016V9.3335V10.6668V12.0002V13.3335V14.6668V16.0002V17.3335V18.6668V20.0002V21.3335V22.6668V24.0002H23.3337H22.0003H20.667H19.3337H18.0003H16.667H15.3337H14.0003H12.667H11.3337H10.0003H8.66699H7.33366H6.00033ZM20.667 10.6668V9.3335H19.3337V10.6668V12.0002V13.3335V14.6668V16.0002V17.3335V18.6668H18.0003H16.667H15.3337H14.0003V17.3335H15.3337V16.0002H14.0003V17.3335H12.667V18.6668H11.3337V20.0002H12.667V21.3335H14.0003V22.6668H15.3337V21.3335H14.0003V20.0002H15.3337H16.667H18.0003H19.3337V18.6668H20.667V17.3335V16.0002V14.6668V13.3335V12.0002V10.6668ZM14.0003 20.0002V18.6668H12.667V20.0002H14.0003Z" fill="#1A1A1A"></path></svg> 