<?xml version="1.0" encoding="UTF-8"?> <svg xmlns="http://www.w3.org/2000/svg" width="24" height="24" viewBox="0 0 24 24" fill="none"><path d="M18 13.5026C18.5523 13.5026 19 13.9503 19 14.5025V17.5025C19 18.331 18.3284 19.0025 17.5 19.0025H6.5C5.67157 19.0025 5 18.331 5 17.5025V6.50256C5 5.67413 5.67157 5.00256 6.5 5.00256H9.5C10.0523 5.00256 10.5 5.45027 10.5 6.00256C10.5 6.55484 10.0523 7.00256 9.5 7.00256H7V17.0025H17V14.5025C17 13.9503 17.4477 13.5026 18 13.5026ZM16.3 6.7867V6.46333L15.1503 6.77763C14.6125 6.92465 14.0575 6.99914 13.5 6.99914C12.9 6.99914 12.5 6.55142 12.5 5.99805C12.5 5.44576 12.9477 4.99805 13.5 4.99805H18C18.5523 4.99805 19 5.44576 19 5.99805V10.5026C19 11.0548 18.5523 11.5026 18 11.5026C17.4477 11.5026 17 11.0998 17 10.5026C17 9.94324 17.0747 9.38642 17.222 8.84686L17.5353 7.69982H17.2144L16.1366 9.13671C15.8524 9.51569 15.5415 9.87399 15.2065 10.2089L11.707 13.7071C11.3164 14.0975 10.6832 14.0974 10.2928 13.7068C9.90231 13.3162 9.90243 12.683 10.293 12.2926L13.7939 8.79311C14.1265 8.46064 14.4821 8.15205 14.8581 7.86963L16.3 6.7867Z" fill="#1A1A1A"></path></svg> 