<?xml version="1.0" encoding="UTF-8"?> <svg xmlns="http://www.w3.org/2000/svg" width="163" height="28" fill="none"><g clip-path="url(#a)"><path fill="#6001D2" d="M23.6 8.6v1.2a4.1 4.1 0 0 0-3.2-1.5c-3.4 0-5.9 3-5.9 6.5s2.5 6.4 5.9 6.4a4 4 0 0 0 3.2-1.5v1.1h4.2V8.6h-4.2Zm5.6-5.4v17.6h4.3v-6.5c0-1.2.6-2 1.6-2s1.5.7 1.5 1.9v6.7h4.3v-7.7c0-3-1.6-4.9-4.2-4.9a3.9 3.9 0 0 0-3.2 1.5V3.2h-4.3Zm39.4 11.5c0 3.7-2.8 6.5-6.5 6.5a6.3 6.3 0 0 1-6.5-6.5c0-3.6 2.8-6.4 6.5-6.4s6.5 2.8 6.5 6.4Zm-13.8 0c0 3.7-2.8 6.5-6.5 6.5a6.3 6.3 0 0 1-6.5-6.5c0-3.6 2.8-6.4 6.5-6.4s6.5 2.8 6.5 6.4ZM.6 8.7l5.2 12.2L4 25.4h4.5l7-16.8h-4.6l-2.8 7.2-2.8-7.2H.6Zm20.6 8.6a2.5 2.5 0 0 1-2.3-1.6 2.5 2.5 0 0 1-.2-1 2.5 2.5 0 0 1 .7-1.7 2.5 2.5 0 0 1 1.8-.8 2.5 2.5 0 0 1 2.3 1.6c.2.3.2.6.2 1a2.5 2.5 0 0 1-1.5 2.3 2.5 2.5 0 0 1-1 .2Zm29.6-2.5a2.4 2.4 0 0 0-1.5-2.3 2.4 2.4 0 0 0-1-.2 2.4 2.4 0 0 0-2.4 2.5 2.4 2.4 0 0 0 2.4 2.4 2.4 2.4 0 0 0 2.3-1.5l.2-1Zm13.7 0a2.4 2.4 0 0 0-1.5-2.3 2.4 2.4 0 0 0-1-.2 2.4 2.4 0 0 0-2.3 2.5 2.4 2.4 0 0 0 1.5 2.2c.3.2.6.2.9.2a2.4 2.4 0 0 0 2.3-1.5l.1-1Zm4.6 3.5a2.8 2.8 0 0 0 1.8 2.6l1 .2a2.9 2.9 0 0 0 3-3 2.8 2.8 0 0 0-1.8-2.5 2.7 2.7 0 0 0-1-.2 2.9 2.9 0 0 0-2.7 1.7l-.3 1.2Zm6.2-15-4.6 11h5.1l4.6-11h-5.1Z"></path><path fill="#000" d="M86.2 8.4c0-1.3.8-1.9 1.8-1.9.5 0 1 .1 1.4.3V3.1a5 5 0 0 0-2.2-.4c-3.4 0-5.5 2.1-5.5 5.6v.4h-1.6v3.6h1.6v8.6h4.5v-8.6h3V8.7h-3v-.3Zm9 12.5V8.7h-4.5v12.2h4.5Zm.2-15.8a2.5 2.5 0 0 0-.7-1.8 2.5 2.5 0 0 0-4.3 1.8A2.5 2.5 0 0 0 93 7.6 2.5 2.5 0 0 0 95.5 5Zm24.2 3.6V10c-.8-1-2.1-1.7-3.6-1.7-3.3 0-5.7 2.9-5.7 6.5s2.4 6.5 5.7 6.5c1.5 0 2.8-.6 3.6-1.7V21h4.4V8.7h-4.4Zm0 6.1a2.5 2.5 0 0 1-.7 1.8 2.5 2.5 0 0 1-1.7.7 2.5 2.5 0 0 1-1-4.8l1-.2a2.5 2.5 0 0 1 2.5 2.5Zm13.8 6.1h4.4v-7.8c0-3-1.6-4.8-4.2-4.8-1.4 0-2.6.6-3.3 1.8V8.7h-4.5v12.2h4.5v-6.5c0-1.3.6-2 1.6-2s1.5.7 1.5 1.8V21Zm-28.8 0h4.5v-7.8c0-3-1.7-4.8-4.3-4.8-1.4 0-2.6.6-3.3 1.8V8.7H97v12.2h4.5v-6.5c0-1.3.6-2 1.6-2s1.5.7 1.5 1.8V21Zm34.5-6.1c0 4 2.8 6.4 6.5 6.4a6.5 6.5 0 0 0 3-.6v-4a3.8 3.8 0 0 1-2.3.6c-1.6 0-2.7-1-2.7-2.4 0-1.5 1.2-2.4 2.7-2.4a4 4 0 0 1 2.2.6V9a6.8 6.8 0 0 0-2.8-.7 6.3 6.3 0 0 0-6.6 6.5Zm18.8 2a2.3 2.3 0 0 1-2 1c-1.2 0-2.1-.8-2.2-1.9h8.4a9 9 0 0 0 0-1c0-4-2.5-6.6-6.3-6.6a6.3 6.3 0 0 0-4.6 1.9 6.4 6.4 0 0 0-1.9 4.6c0 4 2.6 6.4 6.6 6.4 2.6 0 4.6-1 5.8-3l-3.8-1.4Zm-4.2-3.4c.1-1 1-1.7 2-1.7 1.2 0 2 .7 2.1 1.7h-4Z"></path></g><defs><clipPath id="a"><path fill="#fff" d="M.6 2.6h161.6v22.8H.6z"></path></clipPath></defs></svg> 