<?xml version="1.0" encoding="UTF-8"?> <svg xmlns="http://www.w3.org/2000/svg" width="96" height="96" viewBox="0 0 96 96" fill="none"><g clip-path="url(#clip0_2090_22942)"><path d="M47.9997 96C74.5097 96 96 74.51 96 47.9999C96 21.4904 74.5097 0 47.9997 0C21.4902 0 0 21.4904 0 47.9999C0 74.51 21.4902 96 47.9997 96Z" fill="white"></path><path fill-rule="evenodd" clip-rule="evenodd" d="M47.9997 93.5684C73.1722 93.5684 93.572 73.1636 93.572 47.9999C93.572 22.8367 73.1722 2.43163 47.9997 2.43163C22.8278 2.43163 2.42801 22.8367 2.42801 47.9999C2.42801 73.1636 22.8278 93.5684 47.9997 93.5684ZM96 47.9999C96 74.51 74.5097 96 47.9997 96C21.4902 96 0 74.51 0 47.9999C0 21.4904 21.4902 0 47.9997 0C74.5097 0 96 21.4904 96 47.9999Z" fill="#62C187"></path><path fill-rule="evenodd" clip-rule="evenodd" d="M4.99147 69.3376C16.0343 68.8672 28.4867 68.7262 49.5079 68.7262C69.0797 68.7262 80.8367 68.9145 91.0018 69.3511C94.201 62.9202 96 55.6702 96 47.9999C96 42.7203 95.1476 37.6397 93.5729 32.8883C81.4536 32.1041 66.1583 31.4134 49.1341 31.3221C30.209 31.2204 14.4671 31.9374 2.44832 32.8245C0.860066 37.5941 0 42.6966 0 47.9999C0 55.6648 1.79653 62.9101 4.99147 69.3376Z" fill="#217D47"></path><path d="M33.1738 23.3832C31.8442 23.3832 30.7109 22.2014 30.7109 20.6701C30.7109 19.1388 31.8442 17.957 33.1738 17.957C34.3811 17.957 35.2046 18.8808 35.4415 19.8712H34.5604C34.397 19.3219 33.9244 18.7893 33.1738 18.7893C32.3174 18.7893 31.5591 19.5716 31.5591 20.6701C31.5591 21.7686 32.3174 22.5427 33.1738 22.5427C33.9326 22.5427 34.4052 22.0183 34.5927 21.4691H35.4738C35.2375 22.4594 34.4052 23.3832 33.1738 23.3832Z" fill="#135C37"></path><path d="M37.8183 23.3804C36.815 23.3804 35.9668 22.4982 35.9668 21.3914C35.9668 20.2845 36.815 19.4023 37.8183 19.4023C38.8211 19.4023 39.6617 20.2845 39.6617 21.3914C39.6617 22.4982 38.8211 23.3804 37.8183 23.3804ZM37.8183 22.6147C38.3891 22.6147 38.854 22.1154 38.854 21.3914C38.854 20.6757 38.3891 20.1763 37.8183 20.1763C37.2394 20.1763 36.7744 20.6757 36.7744 21.3914C36.7744 22.1154 37.2394 22.6147 37.8183 22.6147Z" fill="#135C37"></path><path d="M41.8303 23.3827C40.9574 23.3827 40.3379 22.7252 40.3379 21.7265V19.4961H41.1455V21.6682C41.1455 22.2259 41.5041 22.617 41.9937 22.617C42.4992 22.617 42.8578 22.2259 42.8578 21.6682V19.4961H43.6572V23.2911H43.0535L42.9071 22.8667H42.8742C42.752 23.0248 42.3769 23.3827 41.8303 23.3827Z" fill="#135C37"></path><path d="M45.3975 23.2888H44.5898V19.4939H45.1935L45.3405 19.9183H45.381C45.4868 19.7602 45.8213 19.4023 46.2944 19.4023C46.4249 19.4023 46.5149 19.4107 46.6124 19.4439V20.2595C46.5066 20.2346 46.4085 20.2262 46.278 20.2262C45.756 20.2262 45.3975 20.5924 45.3975 21.1999V23.2888Z" fill="#135C37"></path><path d="M48.3242 23.3804C47.4431 23.3804 46.8882 22.8062 46.8477 22.1321H47.6471C47.6712 22.465 47.9245 22.698 48.3242 22.698C48.7233 22.698 48.9273 22.4899 48.9273 22.2486C48.9273 21.4913 46.9376 21.8408 46.9376 20.5258C46.9376 19.9017 47.4349 19.4023 48.2913 19.4023C49.1071 19.4023 49.6373 19.9433 49.6861 20.6174H48.8867C48.8461 20.3012 48.6581 20.0931 48.2913 20.0931C47.9327 20.0931 47.7446 20.2679 47.7446 20.4926C47.7446 21.2083 49.7267 20.8671 49.7267 22.2069C49.7267 22.8728 49.2294 23.3804 48.3242 23.3804Z" fill="#135C37"></path><path d="M53.8471 21.3081C53.8471 21.4995 53.8307 21.6327 53.806 21.7159H51.0575C51.1638 22.2902 51.5553 22.6397 52.0849 22.6397C52.5011 22.6397 52.7538 22.4317 52.8843 22.2402H53.7249C53.5127 22.7895 52.909 23.3804 52.0931 23.3804C51.0657 23.3804 50.2422 22.5232 50.2422 21.3914C50.2422 20.2845 51.0904 19.4023 52.0773 19.4023C53.0718 19.4023 53.8471 20.2346 53.8471 21.3081ZM52.0773 20.143C51.5794 20.143 51.1638 20.5092 51.0492 21.0917H53.0718C52.9742 20.5342 52.5828 20.143 52.0773 20.143Z" fill="#135C37"></path><path d="M58.4506 23.286H57.4637L56.3628 21.2803H55.5146V23.286H54.6582V18.043H56.6402C57.6107 18.043 58.3284 18.742 58.3284 19.6742C58.3284 20.3649 57.8881 20.9308 57.2192 21.1639L58.4506 23.286ZM56.6156 18.8586H55.5146V20.4814H56.6156C57.1134 20.4814 57.472 20.1402 57.472 19.6824C57.472 19.2081 57.1134 18.8586 56.6156 18.8586Z" fill="#135C37"></path><path d="M62.4643 21.3081C62.4643 21.4995 62.4484 21.6327 62.4237 21.7159H59.6752C59.781 22.2902 60.1725 22.6397 60.7027 22.6397C61.1189 22.6397 61.3716 22.4317 61.5021 22.2402H62.342C62.1299 22.7895 61.5268 23.3804 60.7109 23.3804C59.6835 23.3804 58.8594 22.5232 58.8594 21.3914C58.8594 20.2845 59.7076 19.4023 60.6945 19.4023C61.6896 19.4023 62.4643 20.2346 62.4643 21.3081ZM60.6945 20.143C60.1972 20.143 59.781 20.5092 59.667 21.0917H61.6896C61.592 20.5342 61.2005 20.143 60.6945 20.143Z" fill="#135C37"></path><path d="M63.9873 24.6371H63.1797V19.4939H63.7834L63.9303 19.9183H63.9709C64.0767 19.7852 64.4846 19.4023 65.08 19.4023C65.9935 19.4023 66.7929 20.2346 66.7929 21.3914C66.7929 22.5482 65.9935 23.3804 65.08 23.3804C64.5093 23.3804 64.1096 23.0225 64.0279 22.8894H63.9873V24.6371ZM64.9907 22.6147C65.5203 22.6147 65.9852 22.1154 65.9852 21.3914C65.9852 20.6673 65.5203 20.1763 64.9907 20.1763C64.4523 20.1763 63.9873 20.6673 63.9873 21.3914C63.9873 22.1154 64.4523 22.6147 64.9907 22.6147Z" fill="#135C37"></path><path d="M69.1523 23.3804C68.149 23.3804 67.3008 22.4982 67.3008 21.3914C67.3008 20.2845 68.149 19.4023 69.1523 19.4023C70.1551 19.4023 70.9956 20.2845 70.9956 21.3914C70.9956 22.4982 70.1551 23.3804 69.1523 23.3804ZM69.1523 22.6147C69.7231 22.6147 70.188 22.1154 70.188 21.3914C70.188 20.6757 69.7231 20.1763 69.1523 20.1763C68.5728 20.1763 68.1084 20.6757 68.1084 21.3914C68.1084 22.1154 68.5728 22.6147 69.1523 22.6147Z" fill="#135C37"></path><path d="M72.5107 23.2888H71.7031V19.4939H72.3068L72.4537 19.9183H72.4943C72.6007 19.7602 72.9345 19.4023 73.4077 19.4023C73.5382 19.4023 73.6281 19.4107 73.7257 19.4439V20.2595C73.6199 20.2346 73.5218 20.2262 73.3913 20.2262C72.8693 20.2262 72.5107 20.5924 72.5107 21.1999V23.2888Z" fill="#135C37"></path><path d="M75.7581 23.3798C75.0892 23.3798 74.5919 22.8971 74.5919 22.0566V20.2339H73.9883V19.5432H74.2493C74.5426 19.5432 74.6977 19.3851 74.6977 19.0938V18.5195H75.399V19.4932H76.1984V20.2339H75.399V21.9983C75.399 22.4144 75.6112 22.5975 75.9456 22.5975C76.0432 22.5975 76.1249 22.5892 76.1984 22.5559V23.3049C76.1085 23.3382 75.9621 23.3798 75.7581 23.3798Z" fill="#135C37"></path><path d="M19.7793 22.3008H20.6451C21.9077 22.3008 22.9322 23.3456 22.9322 24.6345V25.5177H21.1171C20.8209 25.5177 20.0379 25.5176 19.7793 25.5177V22.3008Z" fill="#339D5D"></path><path d="M19.7793 22.3008H20.6451C21.9077 22.3008 22.9322 23.3456 22.9322 24.6345V25.5177H21.1171C20.8209 25.5177 20.0379 25.5176 19.7793 25.5177V22.3008Z" fill="#339D5D"></path><path d="M26.2097 24.8233C25.5303 25.2777 24.6168 25.5203 23.7992 25.5203V21.3846H19.7793C19.7793 20.5667 20.0215 19.7671 20.4758 19.087C20.9302 18.4069 21.5756 17.8768 22.3315 17.5638C23.0868 17.2508 23.6999 17.1563 24.6157 17.1563C25.532 17.1562 27.2125 17.1563 27.9678 17.1563V20.5778C27.9678 21.4944 28.0454 22.2116 27.7327 22.9673C27.4194 23.723 26.8898 24.3689 26.2097 24.8233Z" fill="#339D5D"></path><path d="M26.2097 24.8233C25.5303 25.2777 24.6168 25.5203 23.7992 25.5203V21.3846H19.7793C19.7793 20.5667 20.0215 19.7671 20.4758 19.087C20.9302 18.4069 21.5756 17.8768 22.3315 17.5638C23.0868 17.2508 23.6999 17.1563 24.6157 17.1563C25.532 17.1562 27.2125 17.1563 27.9678 17.1563V20.5778C27.9678 21.4944 28.0454 22.2116 27.7327 22.9673C27.4194 23.723 26.8898 24.3689 26.2097 24.8233Z" fill="#43CC79"></path><path d="M67.6816 57.8831V51.7227H70.1121C70.5794 51.7227 70.9774 51.8119 71.3063 51.9904C71.6352 52.1668 71.8859 52.4125 72.0583 52.7273C72.2328 53.0402 72.32 53.4011 72.32 53.8102C72.32 54.2193 72.2318 54.5803 72.0553 54.8931C71.8788 55.2059 71.6232 55.4496 71.2883 55.6241C70.9554 55.7985 70.5523 55.8858 70.079 55.8858H68.5299V54.842H69.8685C70.1191 54.842 70.3257 54.7989 70.4881 54.7126C70.6526 54.6244 70.7749 54.5031 70.8551 54.3487C70.9373 54.1922 70.9784 54.0128 70.9784 53.8102C70.9784 53.6057 70.9373 53.4272 70.8551 53.2748C70.7749 53.1204 70.6526 53.0011 70.4881 52.9168C70.3237 52.8306 70.1151 52.7875 69.8625 52.7875H68.9841V57.8831H67.6816Z" fill="white"></path><path d="M60.0176 51.7227H61.6239L63.3204 55.8617H63.3926L65.0891 51.7227H66.6954V57.8831H65.432V53.8734H65.3809L63.7866 57.853H62.9263L61.3321 53.8584H61.2809V57.8831H60.0176V51.7227Z" fill="white"></path><path d="M54.8254 57.8831H53.4297L55.5564 51.7227H57.2348L59.3585 57.8831H57.9628L56.4197 53.1304H56.3715L54.8254 57.8831ZM54.7382 55.4616H58.035V56.4783H54.7382V55.4616Z" fill="white"></path><path d="M53.0321 53.8816H51.7146C51.6905 53.7111 51.6414 53.5597 51.5672 53.4274C51.493 53.293 51.3977 53.1787 51.2814 53.0845C51.1651 52.9902 51.0307 52.918 50.8783 52.8679C50.7279 52.8178 50.5645 52.7927 50.388 52.7927C50.0692 52.7927 49.7914 52.8719 49.5548 53.0303C49.3182 53.1867 49.1347 53.4154 49.0043 53.7162C48.874 54.015 48.8088 54.3779 48.8088 54.8051C48.8088 55.2442 48.874 55.6132 49.0043 55.912C49.1367 56.2108 49.3212 56.4364 49.5578 56.5888C49.7944 56.7412 50.0682 56.8174 50.379 56.8174C50.5535 56.8174 50.7149 56.7944 50.8633 56.7482C51.0137 56.7021 51.147 56.6349 51.2634 56.5467C51.3797 56.4565 51.4759 56.3472 51.5521 56.2188C51.6303 56.0905 51.6845 55.9441 51.7146 55.7797L53.0321 55.7857C52.998 56.0684 52.9127 56.3412 52.7764 56.6039C52.642 56.8646 52.4605 57.0982 52.2319 57.3047C52.0053 57.5093 51.7346 57.6717 51.4198 57.792C51.1069 57.9103 50.753 57.9695 50.3579 57.9695C49.8085 57.9695 49.3172 57.8452 48.884 57.5965C48.4529 57.3478 48.1119 56.9879 47.8613 56.5166C47.6126 56.0454 47.4883 55.4749 47.4883 54.8051C47.4883 54.1333 47.6146 53.5617 47.8673 53.0905C48.12 52.6192 48.4629 52.2603 48.896 52.0136C49.3292 51.765 49.8165 51.6406 50.3579 51.6406C50.7149 51.6406 51.0458 51.6908 51.3506 51.791C51.6574 51.8913 51.9291 52.0377 52.1658 52.2302C52.4024 52.4207 52.5949 52.6543 52.7433 52.9311C52.8937 53.2078 52.99 53.5246 53.0321 53.8816Z" fill="white"></path><path d="M42.0684 52.7965V51.7227H47.1278V52.7965H45.2418V57.8831H43.9544V52.7965H42.0684Z" fill="white"></path><path d="M41.703 54.8051C41.703 55.4769 41.5756 56.0484 41.321 56.5196C41.0683 56.9909 40.7234 57.3509 40.2862 57.5995C39.851 57.8462 39.3617 57.9695 38.8183 57.9695C38.2708 57.9695 37.7795 57.8452 37.3444 57.5965C36.9092 57.3478 36.5653 56.9879 36.3126 56.5166C36.0599 56.0454 35.9336 55.4749 35.9336 54.8051C35.9336 54.1333 36.0599 53.5617 36.3126 53.0905C36.5653 52.6192 36.9092 52.2603 37.3444 52.0136C37.7795 51.765 38.2708 51.6406 38.8183 51.6406C39.3617 51.6406 39.851 51.765 40.2862 52.0136C40.7234 52.2603 41.0683 52.6192 41.321 53.0905C41.5756 53.5617 41.703 54.1333 41.703 54.8051ZM40.3825 54.8051C40.3825 54.3699 40.3173 54.0029 40.1869 53.7041C40.0586 53.4053 39.8771 53.1787 39.6425 53.0243C39.4079 52.8699 39.1331 52.7927 38.8183 52.7927C38.5034 52.7927 38.2287 52.8699 37.9941 53.0243C37.7595 53.1787 37.577 53.4053 37.4466 53.7041C37.3183 54.0029 37.2541 54.3699 37.2541 54.8051C37.2541 55.2402 37.3183 55.6072 37.4466 55.906C37.577 56.2048 37.7595 56.4314 37.9941 56.5858C38.2287 56.7402 38.5034 56.8174 38.8183 56.8174C39.1331 56.8174 39.4079 56.7402 39.6425 56.5858C39.8771 56.4314 40.0586 56.2048 40.1869 55.906C40.3173 55.6072 40.3825 55.2402 40.3825 54.8051Z" fill="white"></path><path d="M35.1639 54.8051C35.1639 55.4769 35.0366 56.0484 34.7819 56.5196C34.5292 56.9909 34.1843 57.3509 33.7471 57.5995C33.312 57.8462 32.8227 57.9695 32.2792 57.9695C31.7318 57.9695 31.2405 57.8452 30.8053 57.5965C30.3701 57.3478 30.0262 56.9879 29.7735 56.5166C29.5209 56.0454 29.3945 55.4749 29.3945 54.8051C29.3945 54.1333 29.5209 53.5617 29.7735 53.0905C30.0262 52.6192 30.3701 52.2603 30.8053 52.0136C31.2405 51.765 31.7318 51.6406 32.2792 51.6406C32.8227 51.6406 33.312 51.765 33.7471 52.0136C34.1843 52.2603 34.5292 52.6192 34.7819 53.0905C35.0366 53.5617 35.1639 54.1333 35.1639 54.8051ZM33.8434 54.8051C33.8434 54.3699 33.7782 54.0029 33.6479 53.7041C33.5195 53.4053 33.338 53.1787 33.1034 53.0243C32.8688 52.8699 32.5941 52.7927 32.2792 52.7927C31.9644 52.7927 31.6897 52.8699 31.455 53.0243C31.2204 53.1787 31.0379 53.4053 30.9076 53.7041C30.7792 54.0029 30.7151 54.3699 30.7151 54.8051C30.7151 55.2402 30.7792 55.6072 30.9076 55.906C31.0379 56.2048 31.2204 56.4314 31.455 56.5858C31.6897 56.7402 31.9644 56.8174 32.2792 56.8174C32.5941 56.8174 32.8688 56.7402 33.1034 56.5858C33.338 56.4314 33.5195 56.2048 33.6479 55.906C33.7782 55.6072 33.8434 55.2402 33.8434 54.8051Z" fill="white"></path><path d="M23.9863 57.8831V51.7227H26.4529C26.9061 51.7227 27.2841 51.7898 27.5869 51.9242C27.8897 52.0586 28.1173 52.245 28.2698 52.4837C28.4222 52.7203 28.4984 52.993 28.4984 53.3019C28.4984 53.5425 28.4502 53.7541 28.354 53.9366C28.2577 54.117 28.1254 54.2654 27.9569 54.3817C27.7905 54.4961 27.6 54.5773 27.3854 54.6254V54.6856C27.62 54.6956 27.8396 54.7618 28.0442 54.8841C28.2507 55.0064 28.4181 55.1779 28.5465 55.3985C28.6748 55.617 28.739 55.8777 28.739 56.1805C28.739 56.5074 28.6578 56.7992 28.4954 57.0559C28.3349 57.3106 28.0973 57.5121 27.7825 57.6605C27.4676 57.8089 27.0796 57.8831 26.6183 57.8831H23.9863ZM25.2888 56.8182H26.3506C26.7136 56.8182 26.9783 56.7491 27.1448 56.6107C27.3112 56.4703 27.3944 56.2838 27.3944 56.0512C27.3944 55.8807 27.3533 55.7303 27.2711 55.6C27.1889 55.4696 27.0716 55.3674 26.9192 55.2932C26.7687 55.219 26.5893 55.1819 26.3807 55.1819H25.2888V56.8182ZM25.2888 54.3005H26.2544C26.4329 54.3005 26.5913 54.2694 26.7296 54.2073C26.87 54.1431 26.9803 54.0529 27.0605 53.9366C27.1427 53.8202 27.1839 53.6809 27.1839 53.5184C27.1839 53.2959 27.1046 53.1164 26.9462 52.98C26.7898 52.8436 26.5672 52.7755 26.2784 52.7755H25.2888V54.3005Z" fill="white"></path><path d="M85.5801 48.0003V41.8398H89.7311V42.9137H86.8826V44.3816H89.5176V45.4555H86.8826V46.9264H89.7432V48.0003H85.5801Z" fill="white"></path><path d="M84.7332 43.9988H83.4157C83.3917 43.8283 83.3425 43.6769 83.2683 43.5446C83.1941 43.4102 83.0989 43.2959 82.9826 43.2017C82.8663 43.1074 82.7319 43.0352 82.5795 42.9851C82.4291 42.935 82.2657 42.9099 82.0892 42.9099C81.7703 42.9099 81.4926 42.9891 81.256 43.1475C81.0193 43.3039 80.8358 43.5325 80.7055 43.8333C80.5751 44.1321 80.51 44.4951 80.51 44.9223C80.51 45.3614 80.5751 45.7304 80.7055 46.0292C80.8378 46.328 81.0223 46.5536 81.259 46.706C81.4956 46.8584 81.7693 46.9346 82.0802 46.9346C82.2546 46.9346 82.4161 46.9116 82.5645 46.8654C82.7149 46.8193 82.8482 46.7521 82.9645 46.6639C83.0808 46.5737 83.1771 46.4644 83.2533 46.336C83.3315 46.2077 83.3856 46.0613 83.4157 45.8968L84.7332 45.9029C84.6991 46.1856 84.6139 46.4583 84.4776 46.721C84.3432 46.9817 84.1617 47.2154 83.9331 47.4219C83.7065 47.6265 83.4358 47.7889 83.1209 47.9092C82.8081 48.0275 82.4542 48.0867 82.0591 48.0867C81.5096 48.0867 81.0183 47.9624 80.5852 47.7137C80.154 47.465 79.8131 47.1051 79.5624 46.6338C79.3138 46.1626 79.1895 45.592 79.1895 44.9223C79.1895 44.2505 79.3158 43.6789 79.5685 43.2077C79.8211 42.7364 80.1641 42.3775 80.5972 42.1308C81.0304 41.8821 81.5177 41.7578 82.0591 41.7578C82.4161 41.7578 82.7469 41.8079 83.0518 41.9082C83.3586 42.0085 83.6303 42.1549 83.8669 42.3474C84.1036 42.5379 84.2961 42.7715 84.4445 43.0483C84.5949 43.325 84.6911 43.6418 84.7332 43.9988Z" fill="white"></path><path d="M78.3051 41.8398V48.0003H77.1801L74.4999 44.1229H74.4548V48.0003H73.1523V41.8398H74.2954L76.9545 45.7142H77.0086V41.8398H78.3051Z" fill="white"></path><path d="M68.0508 48.0003V41.8398H72.2019V42.9137H69.3533V44.3816H71.9883V45.4555H69.3533V46.9264H72.2139V48.0003H68.0508Z" fill="white"></path><path d="M67.0622 41.8398V48.0003H65.7598V41.8398H67.0622Z" fill="white"></path><path d="M64.9129 43.9988H63.5954C63.5713 43.8283 63.5222 43.6769 63.448 43.5446C63.3738 43.4102 63.2786 43.2959 63.1623 43.2017C63.0459 43.1074 62.9116 43.0352 62.7592 42.9851C62.6088 42.935 62.4453 42.9099 62.2689 42.9099C61.95 42.9099 61.6723 42.9891 61.4357 43.1475C61.199 43.3039 61.0155 43.5325 60.8852 43.8333C60.7548 44.1321 60.6897 44.4951 60.6897 44.9223C60.6897 45.3614 60.7548 45.7304 60.8852 46.0292C61.0175 46.328 61.202 46.5536 61.4387 46.706C61.6753 46.8584 61.949 46.9346 62.2599 46.9346C62.4343 46.9346 62.5957 46.9116 62.7441 46.8654C62.8945 46.8193 63.0279 46.7521 63.1442 46.6639C63.2605 46.5737 63.3568 46.4644 63.433 46.336C63.5112 46.2077 63.5653 46.0613 63.5954 45.8968L64.9129 45.9029C64.8788 46.1856 64.7936 46.4583 64.6572 46.721C64.5229 46.9817 64.3414 47.2154 64.1128 47.4219C63.8862 47.6265 63.6155 47.7889 63.3006 47.9092C62.9878 48.0275 62.6338 48.0867 62.2388 48.0867C61.6893 48.0867 61.198 47.9624 60.7649 47.7137C60.3337 47.465 59.9928 47.1051 59.7421 46.6338C59.4935 46.1626 59.3691 45.592 59.3691 44.9223C59.3691 44.2505 59.4955 43.6789 59.7482 43.2077C60.0008 42.7364 60.3437 42.3775 60.7769 42.1308C61.2101 41.8821 61.6974 41.7578 62.2388 41.7578C62.5957 41.7578 62.9266 41.8079 63.2314 41.9082C63.5383 42.0085 63.81 42.1549 64.0466 42.3474C64.2832 42.5379 64.4758 42.7715 64.6242 43.0483C64.7746 43.325 64.8708 43.6418 64.9129 43.9988Z" fill="white"></path><path d="M57.3529 43.6138C57.3289 43.3711 57.2256 43.1826 57.0431 43.0483C56.8606 42.9139 56.613 42.8467 56.3001 42.8467C56.0876 42.8467 55.9081 42.8768 55.7617 42.937C55.6153 42.9951 55.503 43.0763 55.4248 43.1806C55.3486 43.2849 55.3105 43.4032 55.3105 43.5356C55.3065 43.6458 55.3295 43.7421 55.3797 43.8243C55.4318 43.9065 55.503 43.9777 55.5932 44.0379C55.6835 44.096 55.7878 44.1472 55.9061 44.1913C56.0244 44.2334 56.1507 44.2695 56.2851 44.2996L56.8386 44.4319C57.1073 44.4921 57.3539 44.5723 57.5785 44.6726C57.8031 44.7729 57.9977 44.8962 58.1621 45.0426C58.3265 45.189 58.4539 45.3614 58.5441 45.56C58.6364 45.7585 58.6835 45.9861 58.6855 46.2428C58.6835 46.6198 58.5872 46.9466 58.3967 47.2234C58.2082 47.4981 57.9355 47.7117 57.5785 47.8641C57.2236 48.0145 56.7955 48.0897 56.2941 48.0897C55.7968 48.0897 55.3636 48.0135 54.9947 47.8611C54.6277 47.7087 54.3409 47.4831 54.1344 47.1843C53.9298 46.8835 53.8225 46.5115 53.8125 46.0683H55.0729C55.0869 46.2749 55.1461 46.4473 55.2503 46.5857C55.3566 46.7221 55.498 46.8253 55.6745 46.8955C55.8529 46.9637 56.0545 46.9978 56.2791 46.9978C56.4997 46.9978 56.6912 46.9657 56.8536 46.9015C57.0181 46.8374 57.1454 46.7481 57.2356 46.6338C57.3259 46.5195 57.371 46.3882 57.371 46.2398C57.371 46.1014 57.3299 45.9851 57.2477 45.8908C57.1674 45.7966 57.0491 45.7164 56.8927 45.6502C56.7383 45.584 56.5488 45.5239 56.3242 45.4697L55.6534 45.3013C55.134 45.1749 54.7239 44.9774 54.4231 44.7087C54.1223 44.44 53.9729 44.078 53.9749 43.6228C53.9729 43.2498 54.0722 42.9239 54.2727 42.6452C54.4753 42.3664 54.753 42.1489 55.106 41.9924C55.4589 41.836 55.86 41.7578 56.3092 41.7578C56.7664 41.7578 57.1654 41.836 57.5064 41.9924C57.8493 42.1489 58.116 42.3664 58.3065 42.6452C58.497 42.9239 58.5953 43.2468 58.6013 43.6138H57.3529Z" fill="white"></path><path d="M46.9445 48.0003H45.5488L47.6755 41.8398H49.354L51.4776 48.0003H50.0819L48.5388 43.2476H48.4907L46.9445 48.0003ZM46.8573 45.5788H50.1541V46.5955H46.8573V45.5788Z" fill="white"></path><path d="M40.8281 42.9137V41.8398H45.8876V42.9137H44.0016V48.0003H42.7142V42.9137H40.8281Z" fill="white"></path><path d="M36.6262 48.0003H35.2305L37.3571 41.8398H39.0356L41.1593 48.0003H39.7636L38.2204 43.2476H38.1723L36.6262 48.0003ZM36.539 45.5788H39.8357V46.5955H36.539V45.5788Z" fill="white"></path><path d="M32.0159 48.0003H29.832V41.8398H32.0339C32.6536 41.8398 33.187 41.9632 33.6342 42.2098C34.0814 42.4545 34.4253 42.8064 34.6659 43.2656C34.9086 43.7249 35.0299 44.2743 35.0299 44.914C35.0299 45.5558 34.9086 46.1072 34.6659 46.5685C34.4253 47.0297 34.0794 47.3836 33.6282 47.6303C33.179 47.8769 32.6415 48.0003 32.0159 48.0003ZM31.1345 46.8843H31.9617C32.3467 46.8843 32.6706 46.8161 32.9333 46.6798C33.198 46.5414 33.3965 46.3278 33.5289 46.039C33.6632 45.7483 33.7304 45.3733 33.7304 44.914C33.7304 44.4588 33.6632 44.0868 33.5289 43.7981C33.3965 43.5093 33.199 43.2967 32.9363 43.1604C32.6736 43.024 32.3497 42.9558 31.9647 42.9558H31.1345V46.8843Z" fill="white"></path><path d="M22.1504 42.9137V41.8398H27.2099V42.9137H25.3239V48.0003H24.0364V42.9137H22.1504Z" fill="white"></path><path d="M20.2611 43.6138C20.2371 43.3711 20.1338 43.1826 19.9513 43.0483C19.7688 42.9139 19.5212 42.8467 19.2083 42.8467C18.9958 42.8467 18.8163 42.8768 18.6699 42.937C18.5235 42.9951 18.4112 43.0763 18.333 43.1806C18.2568 43.2849 18.2187 43.4032 18.2187 43.5356C18.2147 43.6458 18.2377 43.7421 18.2879 43.8243C18.34 43.9065 18.4112 43.9777 18.5015 44.0379C18.5917 44.096 18.696 44.1472 18.8143 44.1913C18.9326 44.2334 19.0589 44.2695 19.1933 44.2996L19.7468 44.4319C20.0155 44.4921 20.2621 44.5723 20.4867 44.6726C20.7113 44.7729 20.9059 44.8962 21.0703 45.0426C21.2347 45.189 21.3621 45.3614 21.4523 45.56C21.5446 45.7585 21.5917 45.9861 21.5937 46.2428C21.5917 46.6198 21.4954 46.9466 21.3049 47.2234C21.1164 47.4981 20.8437 47.7117 20.4867 47.8641C20.1318 48.0145 19.7037 48.0897 19.2023 48.0897C18.705 48.0897 18.2718 48.0135 17.9029 47.8611C17.5359 47.7087 17.2491 47.4831 17.0426 47.1843C16.838 46.8835 16.7307 46.5115 16.7207 46.0683H17.9811C17.9951 46.2749 18.0543 46.4473 18.1585 46.5857C18.2648 46.7221 18.4062 46.8253 18.5827 46.8955C18.7611 46.9637 18.9627 46.9978 19.1873 46.9978C19.4079 46.9978 19.5994 46.9657 19.7618 46.9015C19.9263 46.8374 20.0536 46.7481 20.1438 46.6338C20.2341 46.5195 20.2792 46.3882 20.2792 46.2398C20.2792 46.1014 20.2381 45.9851 20.1559 45.8908C20.0757 45.7966 19.9573 45.7164 19.8009 45.6502C19.6465 45.584 19.457 45.5239 19.2324 45.4697L18.5616 45.3013C18.0422 45.1749 17.6321 44.9774 17.3313 44.7087C17.0305 44.44 16.8811 44.078 16.8831 43.6228C16.8811 43.2498 16.9804 42.9239 17.1809 42.6452C17.3835 42.3664 17.6612 42.1489 18.0142 41.9924C18.3671 41.836 18.7682 41.7578 19.2174 41.7578C19.6746 41.7578 20.0736 41.836 20.4146 41.9924C20.7575 42.1489 21.0242 42.3664 21.2147 42.6452C21.4052 42.9239 21.5035 43.2468 21.5095 43.6138H20.2611Z" fill="white"></path><path d="M11.8164 48.0003V41.8398H15.9675V42.9137H13.1189V44.3816H15.7539V45.4555H13.1189V46.9264H15.9795V48.0003H11.8164Z" fill="white"></path><path d="M6.30078 48.0003V41.8398H8.76736C9.22057 41.8398 9.59858 41.907 9.90138 42.0414C10.2042 42.1757 10.4318 42.3622 10.5842 42.6009C10.7366 42.8375 10.8128 43.1102 10.8128 43.4191C10.8128 43.6597 10.7647 43.8713 10.6684 44.0537C10.5722 44.2342 10.4398 44.3826 10.2714 44.4989C10.1049 44.6132 9.91442 44.6945 9.69985 44.7426V44.8027C9.93447 44.8128 10.1541 44.8789 10.3586 45.0013C10.5652 45.1236 10.7326 45.2951 10.8609 45.5156C10.9893 45.7342 11.0535 45.9949 11.0535 46.2977C11.0535 46.6246 10.9722 46.9164 10.8098 47.1731C10.6494 47.4277 10.4117 47.6293 10.0969 47.7777C9.78206 47.9261 9.39403 48.0003 8.9328 48.0003H6.30078ZM7.60325 46.9354H8.66509C9.02805 46.9354 9.29276 46.8662 9.4592 46.7279C9.62565 46.5875 9.70887 46.401 9.70887 46.1684C9.70887 45.9979 9.66776 45.8475 9.58554 45.7172C9.50332 45.5868 9.38601 45.4846 9.2336 45.4104C9.0832 45.3362 8.90372 45.2991 8.69517 45.2991H7.60325V46.9354ZM7.60325 44.4177H8.56883C8.7473 44.4177 8.90573 44.3866 9.0441 44.3245C9.18447 44.2603 9.29476 44.1701 9.37498 44.0537C9.4572 43.9374 9.49831 43.7981 9.49831 43.6356C9.49831 43.413 9.4191 43.2336 9.26067 43.0972C9.10426 42.9608 8.88166 42.8927 8.59289 42.8927H7.60325V44.4177Z" fill="white"></path><path d="M54.8223 81.0062V79.8284L57.7755 75.1758H58.7909V76.8061H58.1899L56.3282 79.7524V79.8076H60.5249V81.0062H54.8223ZM58.2176 82.2496V80.647L58.2452 80.1254V75.1758H59.6475V82.2496H58.2176Z" fill="#61B783"></path><path d="M48.9519 82.2487V81.171L51.4699 78.8396C51.684 78.6323 51.8636 78.4458 52.0087 78.28C52.1561 78.1142 52.2678 77.9519 52.3437 77.793C52.4197 77.6318 52.4577 77.4579 52.4577 77.2714C52.4577 77.0642 52.4105 76.8857 52.3161 76.7361C52.2217 76.5841 52.0928 76.4678 51.9293 76.3872C51.7658 76.3043 51.5804 76.2629 51.3732 76.2629C51.1567 76.2629 50.9679 76.3066 50.8067 76.3941C50.6455 76.4816 50.5212 76.6071 50.4337 76.7706C50.3462 76.9341 50.3024 77.1287 50.3024 77.3543H48.8828C48.8828 76.8915 48.9876 76.4897 49.1971 76.1489C49.4067 75.8081 49.7003 75.5444 50.0779 75.3579C50.4555 75.1714 50.8908 75.0781 51.3835 75.0781C51.8901 75.0781 52.3311 75.1679 52.7064 75.3475C53.0841 75.5248 53.3777 75.7712 53.5872 76.0867C53.7967 76.4022 53.9015 76.7637 53.9015 77.1713C53.9015 77.4384 53.8485 77.702 53.7426 77.9622C53.639 78.2224 53.4536 78.5114 53.1865 78.8292C52.9194 79.1447 52.5429 79.5235 52.0571 79.9656L51.0243 80.9776V81.026H53.9948V82.2487H48.9519Z" fill="#61B783"></path><path d="M45.0303 82.4041C44.4362 82.4018 43.9251 82.2556 43.4968 81.9655C43.0708 81.6753 42.7426 81.2551 42.5124 80.7047C42.2844 80.1544 42.1716 79.4924 42.1739 78.7187C42.1739 77.9473 42.2878 77.2899 42.5158 76.7464C42.7461 76.203 43.0742 75.7897 43.5002 75.5064C43.9285 75.2209 44.4386 75.0781 45.0303 75.0781C45.6221 75.0781 46.131 75.2209 46.557 75.5064C46.9853 75.792 47.3146 76.2064 47.5449 76.7499C47.7751 77.291 47.8891 77.9473 47.8868 78.7187C47.8868 79.4947 47.7717 80.1578 47.5414 80.7082C47.3135 81.2585 46.9865 81.6788 46.5605 81.9689C46.1345 82.259 45.6244 82.4041 45.0303 82.4041ZM45.0303 81.1641C45.4356 81.1641 45.7591 80.9603 46.0009 80.5528C46.2427 80.1452 46.3624 79.5338 46.3601 78.7187C46.3601 78.1821 46.3049 77.7354 46.1943 77.3785C46.0861 77.0216 45.9318 76.7533 45.7315 76.5737C45.5335 76.3941 45.2998 76.3043 45.0303 76.3043C44.6274 76.3043 44.305 76.5058 44.0632 76.9088C43.8214 77.3117 43.6994 77.915 43.6971 78.7187C43.6971 79.2621 43.7512 79.7157 43.8594 80.0796C43.97 80.4411 44.1254 80.7128 44.3257 80.8947C44.5261 81.0743 44.7609 81.1641 45.0303 81.1641Z" fill="#61B783"></path><path d="M36.1296 82.2487V81.171L38.6476 78.8396C38.8618 78.6323 39.0414 78.4458 39.1864 78.28C39.3338 78.1142 39.4455 77.9519 39.5215 77.793C39.5975 77.6318 39.6355 77.4579 39.6355 77.2714C39.6355 77.0642 39.5883 76.8857 39.4938 76.7361C39.3994 76.5841 39.2705 76.4678 39.107 76.3872C38.9435 76.3043 38.7581 76.2629 38.5509 76.2629C38.3344 76.2629 38.1456 76.3066 37.9844 76.3941C37.8233 76.4816 37.6989 76.6071 37.6114 76.7706C37.5239 76.9341 37.4802 77.1287 37.4802 77.3543H36.0605C36.0605 76.8915 36.1653 76.4897 36.3749 76.1489C36.5844 75.8081 36.878 75.5444 37.2556 75.3579C37.6333 75.1714 38.0685 75.0781 38.5613 75.0781C39.0679 75.0781 39.5088 75.1679 39.8842 75.3475C40.2618 75.5248 40.5554 75.7712 40.7649 76.0867C40.9745 76.4022 41.0792 76.7637 41.0792 77.1713C41.0792 77.4384 41.0263 77.702 40.9204 77.9622C40.8167 78.2224 40.6314 78.5114 40.3643 78.8292C40.0972 79.1447 39.7207 79.5235 39.2348 79.9656L38.202 80.9776V81.026H41.1725V82.2487H36.1296Z" fill="#61B783"></path></g><defs><clipPath id="clip0_2090_22942"><rect width="96" height="96" fill="white"></rect></clipPath></defs></svg> 