<?xml version="1.0" encoding="UTF-8"?> <svg xmlns="http://www.w3.org/2000/svg" width="97" height="96" viewBox="0 0 97 96" fill="none"><g clip-path="url(#clip0_2090_22940)"><path d="M48.1973 96C74.7069 96 96.1973 74.5097 96.1973 48C96.1973 21.4903 74.7069 0 48.1973 0C21.6876 0 0.197266 21.4903 0.197266 48C0.197266 74.5097 21.6876 96 48.1973 96Z" fill="#1A2833"></path><mask id="mask0_2090_22940" style="mask-type:luminance" maskUnits="userSpaceOnUse" x="27" y="17" width="13" height="13"><path d="M39.7697 23.6269C39.7697 20.3553 37.1284 17.7031 33.8702 17.7031C30.612 17.7031 27.9707 20.3553 27.9707 23.6269C27.9707 26.8986 30.612 29.5507 33.8702 29.5507C37.1284 29.5507 39.7697 26.8986 39.7697 23.6269Z" fill="white"></path></mask><g mask="url(#mask0_2090_22940)"><path fill-rule="evenodd" clip-rule="evenodd" d="M37.2786 28.4626C38.786 27.3894 39.7697 25.6234 39.7697 23.6269C39.7697 20.3553 37.1284 17.7031 33.8702 17.7031C30.612 17.7031 27.9707 20.3553 27.9707 23.6269C27.9707 25.6833 29.0142 27.4952 30.5987 28.5572C30.4293 28.9188 30.3305 29.1484 30.3305 29.1484L31.4197 29.733C31.4197 29.733 31.5327 29.492 31.7191 29.1445C32.3856 29.4067 33.1112 29.5507 33.8702 29.5507C34.6862 29.5507 35.4634 29.3844 36.1702 29.0836C36.376 29.4636 36.5023 29.733 36.5023 29.733L37.5915 29.1484C37.5915 29.1484 37.4753 28.8781 37.2786 28.4626ZM37.2786 28.4626C36.6239 27.0787 35.0778 24.0826 33.9611 24.0826C32.8181 24.0826 31.2252 27.2208 30.5987 28.5572C30.9478 28.7911 31.323 28.9887 31.7191 29.1445C32.2013 28.2458 33.1756 26.6344 33.9611 26.6344C34.729 26.6344 35.6775 28.1751 36.1702 29.0836C36.5633 28.9164 36.9346 28.7075 37.2786 28.4626Z" fill="white"></path></g><path d="M46.1994 18.5664L45.5218 19.2155C45.0609 18.7274 44.5424 18.4831 43.9663 18.4831C43.48 18.4831 43.0699 18.6497 42.7357 18.9829C42.4038 19.3162 42.2379 19.727 42.2379 20.2153C42.2379 20.5553 42.3118 20.8572 42.4592 21.1211C42.6067 21.385 42.8152 21.592 43.0848 21.7424C43.3545 21.8929 43.654 21.968 43.9835 21.968C44.2647 21.968 44.5217 21.9159 44.7545 21.8118C44.9873 21.7054 45.243 21.5133 45.5218 21.2357L46.1786 21.9229C45.8029 22.2908 45.4481 22.5465 45.114 22.6901C44.7798 22.8312 44.3983 22.9018 43.9697 22.9018C43.1793 22.9018 42.5317 22.6506 42.0271 22.1485C41.5248 21.6441 41.2734 20.9984 41.2734 20.2117C41.2734 19.7026 41.3876 19.2502 41.6158 18.8545C41.8462 18.4589 42.1746 18.1408 42.6008 17.9001C43.0295 17.6594 43.4905 17.5391 43.9835 17.5391C44.4031 17.5391 44.8062 17.6281 45.1934 17.8063C45.583 17.9845 45.9182 18.2379 46.1994 18.5664Z" fill="white"></path><path d="M49.9876 22.7777L48.5808 19.0256L47.1496 22.7777H46.123L48.083 17.6719H49.0647L51.0212 22.7777H49.9876Z" fill="white"></path><path d="M41.5352 24.4375H42.5135V26.1938L43.8928 24.4375H45.0577L43.2809 26.7144L45.2304 29.5433H44.0829L42.5135 27.2767V29.5433H41.5352V24.4375Z" fill="white"></path><path d="M49.3452 29.5433L47.9382 25.7912L46.5072 29.5433H45.4805L47.4405 24.4375H48.4221L50.3788 29.5433H49.3452Z" fill="white"></path><path d="M65.3608 29.5433L63.9538 25.7912L62.5228 29.5433H61.4961L63.4561 24.4375H64.4378L66.3944 29.5433H65.3608Z" fill="white"></path><path d="M67.1168 28.5586C67.2667 28.5586 67.3946 28.6119 67.5006 28.7182C67.6066 28.8225 67.6596 28.9497 67.6596 29.1C67.6596 29.2505 67.6066 29.379 67.5006 29.4854C67.3946 29.5919 67.2667 29.645 67.1168 29.645C66.9671 29.645 66.8392 29.5919 66.7332 29.4854C66.6271 29.379 66.5742 29.2505 66.5742 29.1C66.5742 28.9497 66.6271 28.8225 66.7332 28.7182C66.8392 28.6119 66.9671 28.5586 67.1168 28.5586Z" fill="white"></path><path d="M54.4401 22.7734L53.0654 20.7976H52.4763V22.7734H51.2266V17.7031H53.5653C54.0474 17.7031 54.458 17.7734 54.7971 17.9137C55.1364 18.0492 55.3893 18.2358 55.556 18.473C55.7286 18.7054 55.8149 18.9669 55.8149 19.2575C55.8149 19.5916 55.6959 19.8944 55.4577 20.1656C55.2197 20.432 54.8657 20.6159 54.3954 20.7177L55.8862 22.7734H54.4401ZM52.4763 20.0347H53.5206C53.8599 20.0347 54.1128 19.9694 54.2795 19.8387C54.446 19.7032 54.5295 19.5167 54.5295 19.2794C54.5295 19.047 54.446 18.8677 54.2795 18.7418C54.1128 18.611 53.8599 18.5457 53.5206 18.5457H52.4763V20.0347Z" fill="white"></path><path d="M57.4841 18.5272V19.7984H59.5819V20.6048H57.4841V21.9486H59.8496V22.7768H56.2344V17.6992H59.8496V18.5272H57.4841Z" fill="white"></path><path d="M61.5057 18.5272V19.7984H63.6034V20.6048H61.5057V21.9486H63.8712V22.7768H60.2559V17.6992H63.8712V18.5272H61.5057Z" fill="white"></path><path d="M67.4833 22.7734L66.1085 20.7976H65.5194V22.7734H64.2695V17.7031H66.6084C67.0903 17.7031 67.501 17.7734 67.8403 17.9137C68.1794 18.0492 68.4324 18.2358 68.5989 18.473C68.7715 18.7054 68.8578 18.9669 68.8578 19.2575C68.8578 19.5916 68.7388 19.8944 68.5008 20.1656C68.2628 20.432 67.9087 20.6159 67.4386 20.7177L68.9293 22.7734H67.4833ZM65.5194 20.0347H66.5638C66.9029 20.0347 67.1559 19.9694 67.3225 19.8387C67.4892 19.7032 67.5724 19.5167 67.5724 19.2794C67.5724 19.047 67.4892 18.8677 67.3225 18.7418C67.1559 18.611 66.9029 18.5457 66.5638 18.5457H65.5194V20.0347Z" fill="white"></path><path d="M53.8486 29.5424L52.4563 27.5637H51.8594V29.5424H50.5938V24.4648H52.9625C53.4508 24.4648 53.8666 24.5351 54.2103 24.6757C54.5538 24.8115 54.81 24.9983 54.9788 25.236C55.1536 25.4687 55.2411 25.7305 55.2411 26.0215C55.2411 26.3562 55.1204 26.6592 54.8793 26.9308C54.6383 27.1976 54.2796 27.3819 53.8034 27.4836L55.3134 29.5424H53.8486ZM51.8594 26.7998H52.9173C53.261 26.7998 53.517 26.7343 53.6859 26.6035C53.8547 26.4678 53.9389 26.2809 53.9389 26.0433C53.9389 25.8106 53.8547 25.6312 53.6859 25.5051C53.517 25.3741 53.261 25.3086 52.9173 25.3086H51.8594V26.7998Z" fill="white"></path><path d="M61.1645 24.3789V29.5475H60.1321V26.1857L58.7531 29.5475H57.9715L56.5852 26.1857V29.5475H55.5527V24.3789H56.7252L58.3623 28.2221L59.9995 24.3789H61.1645Z" fill="white"></path><path d="M54.6321 74.6549L53.5958 74.4071L53.9697 71.082H57.6552V72.1318H55.0375L54.8753 73.5871C54.9625 73.536 55.0946 73.4819 55.2718 73.4249C55.449 73.3648 55.6473 73.3348 55.8666 73.3348C56.1849 73.3348 56.4673 73.3843 56.7136 73.4835C56.9599 73.5826 57.1686 73.7267 57.3398 73.916C57.5141 74.1052 57.6462 74.3365 57.7363 74.6098C57.8264 74.8832 57.8715 75.1925 57.8715 75.5379C57.8715 75.8293 57.8264 76.1071 57.7363 76.3715C57.6462 76.6328 57.5095 76.8671 57.3263 77.0743C57.1431 77.2786 56.9133 77.4393 56.637 77.5564C56.3607 77.6735 56.0333 77.7321 55.6548 77.7321C55.3725 77.7321 55.0991 77.6901 54.8348 77.606C54.5735 77.5219 54.3377 77.3972 54.1274 77.232C53.9202 77.0668 53.7535 76.8671 53.6273 76.6328C53.5042 76.3955 53.4396 76.1252 53.4336 75.8218H54.7222C54.7402 76.008 54.7882 76.1687 54.8663 76.3039C54.9474 76.436 55.0541 76.5382 55.1862 76.6103C55.3184 76.6823 55.4731 76.7184 55.6503 76.7184C55.8155 76.7184 55.9567 76.6868 56.0738 76.6238C56.1909 76.5607 56.2856 76.4736 56.3576 76.3625C56.4297 76.2483 56.4823 76.1162 56.5153 75.966C56.5514 75.8128 56.5694 75.6476 56.5694 75.4704C56.5694 75.2932 56.5484 75.1325 56.5063 74.9883C56.4643 74.8441 56.3997 74.7195 56.3126 74.6143C56.2255 74.5092 56.1144 74.4281 55.9792 74.371C55.847 74.314 55.6923 74.2854 55.5151 74.2854C55.2748 74.2854 55.0886 74.323 54.9564 74.3981C54.8273 74.4732 54.7192 74.5588 54.6321 74.6549Z" fill="white"></path><path d="M52.6005 76.6291V77.6429H48.1131V76.7778L50.2352 74.5026C50.4484 74.2653 50.6166 74.0565 50.7398 73.8763C50.8629 73.6931 50.9515 73.5294 51.0056 73.3852C51.0627 73.238 51.0912 73.0983 51.0912 72.9662C51.0912 72.7679 51.0582 72.5982 50.9921 72.4571C50.926 72.3129 50.8284 72.2018 50.6992 72.1237C50.5731 72.0456 50.4169 72.0065 50.2307 72.0065C50.0324 72.0065 49.8612 72.0546 49.717 72.1507C49.5759 72.2468 49.4677 72.3805 49.3926 72.5517C49.3205 72.7229 49.2845 72.9166 49.2845 73.1329H47.9824C47.9824 72.7424 48.0755 72.385 48.2618 72.0606C48.448 71.7332 48.7108 71.4734 49.0502 71.2811C49.3896 71.0859 49.7921 70.9883 50.2577 70.9883C50.7172 70.9883 51.1047 71.0634 51.4201 71.2136C51.7385 71.3607 51.9788 71.574 52.141 71.8533C52.3062 72.1297 52.3888 72.4601 52.3888 72.8445C52.3888 73.0608 52.3542 73.2726 52.2852 73.4798C52.2161 73.6841 52.1169 73.8883 51.9878 74.0926C51.8616 74.2938 51.7085 74.498 51.5282 74.7053C51.348 74.9126 51.1483 75.1273 50.929 75.3496L49.7891 76.6291H52.6005Z" fill="white"></path><path d="M47.2309 73.7856V74.921C47.2309 75.4136 47.1783 75.8386 47.0732 76.196C46.968 76.5504 46.8164 76.8418 46.6181 77.0701C46.4229 77.2954 46.1901 77.4621 45.9198 77.5702C45.6494 77.6783 45.3491 77.7324 45.0187 77.7324C44.7544 77.7324 44.5081 77.6993 44.2798 77.6333C44.0515 77.5642 43.8457 77.4575 43.6625 77.3134C43.4823 77.1692 43.3261 76.9875 43.194 76.7682C43.0648 76.5459 42.9657 76.2816 42.8966 75.9752C42.8275 75.6689 42.793 75.3174 42.793 74.921V73.7856C42.793 73.293 42.8455 72.871 42.9507 72.5195C43.0588 72.1651 43.2105 71.8753 43.4057 71.65C43.604 71.4247 43.8382 71.2595 44.1086 71.1544C44.3789 71.0463 44.6793 70.9922 45.0097 70.9922C45.274 70.9922 45.5188 71.0267 45.7441 71.0958C45.9723 71.1619 46.1781 71.2655 46.3613 71.4067C46.5445 71.5479 46.7007 71.7296 46.8299 71.9519C46.959 72.1711 47.0582 72.4339 47.1272 72.7403C47.1963 73.0437 47.2309 73.3921 47.2309 73.7856ZM45.9288 75.0922V73.6099C45.9288 73.3726 45.9153 73.1653 45.8882 72.9881C45.8642 72.8109 45.8267 72.6607 45.7756 72.5376C45.7245 72.4114 45.6615 72.3093 45.5864 72.2312C45.5113 72.1531 45.4257 72.096 45.3296 72.06C45.2334 72.0239 45.1268 72.0059 45.0097 72.0059C44.8625 72.0059 44.7318 72.0345 44.6177 72.0915C44.5066 72.1486 44.4119 72.2402 44.3338 72.3664C44.2557 72.4895 44.1957 72.6547 44.1536 72.862C44.1146 73.0662 44.0951 73.3155 44.0951 73.6099V75.0922C44.0951 75.3295 44.1071 75.5382 44.1311 75.7184C44.1581 75.8987 44.1972 76.0533 44.2482 76.1825C44.3023 76.3087 44.3654 76.4123 44.4375 76.4934C44.5126 76.5715 44.5982 76.6285 44.6943 76.6646C44.7934 76.7006 44.9015 76.7187 45.0187 76.7187C45.1629 76.7187 45.2905 76.6901 45.4016 76.633C45.5158 76.573 45.6119 76.4799 45.69 76.3537C45.7711 76.2245 45.8312 76.0563 45.8702 75.8491C45.9093 75.6418 45.9288 75.3895 45.9288 75.0922Z" fill="white"></path><path d="M42.0048 76.6291V77.6429H37.5174V76.7778L39.6395 74.5026C39.8527 74.2653 40.0209 74.0565 40.1441 73.8763C40.2672 73.6931 40.3558 73.5294 40.4099 73.3852C40.467 73.238 40.4955 73.0983 40.4955 72.9662C40.4955 72.7679 40.4625 72.5982 40.3964 72.4571C40.3303 72.3129 40.2327 72.2018 40.1035 72.1237C39.9774 72.0456 39.8212 72.0065 39.635 72.0065C39.4367 72.0065 39.2655 72.0546 39.1213 72.1507C38.9802 72.2468 38.872 72.3805 38.7969 72.5517C38.7248 72.7229 38.6888 72.9166 38.6888 73.1329H37.3867C37.3867 72.7424 37.4798 72.385 37.6661 72.0606C37.8523 71.7332 38.1151 71.4734 38.4545 71.2811C38.7939 71.0859 39.1964 70.9883 39.662 70.9883C40.1215 70.9883 40.509 71.0634 40.8244 71.2136C41.1428 71.3607 41.3831 71.574 41.5453 71.8533C41.7105 72.1297 41.7931 72.4601 41.7931 72.8445C41.7931 73.0608 41.7585 73.2726 41.6895 73.4798C41.6204 73.6841 41.5212 73.8883 41.3921 74.0926C41.2659 74.2938 41.1127 74.498 40.9325 74.7053C40.7523 74.9126 40.5526 75.1273 40.3333 75.3496L39.1934 76.6291H42.0048Z" fill="white"></path><mask id="path-20-outside-1_2090_22940" maskUnits="userSpaceOnUse" x="13.3145" y="35.707" width="71" height="28" fill="black"><rect fill="white" x="13.3145" y="35.707" width="71" height="28"></rect><path d="M38.275 41.2126H36.5598L36.5541 40.0768H38.016C38.2462 40.0768 38.4342 40.0411 38.58 39.9697C38.7297 39.8947 38.839 39.7857 38.9081 39.6429C38.981 39.4964 39.0175 39.3196 39.0175 39.1125C39.0175 38.8732 38.9848 38.6821 38.9196 38.5392C38.8544 38.3928 38.7489 38.2857 38.6031 38.2178C38.4572 38.1499 38.2673 38.116 38.0333 38.116H37.1354V44.6145H35.449V36.8142H38.0333C38.4515 36.8142 38.8256 36.857 39.1556 36.9428C39.4856 37.0285 39.7657 37.1588 39.9959 37.3338C40.2261 37.5088 40.4007 37.7303 40.5197 37.9982C40.6425 38.266 40.7039 38.5821 40.7039 38.9464C40.7039 39.2678 40.6348 39.5643 40.4966 39.8357C40.3585 40.1072 40.1417 40.3286 39.8463 40.5C39.5546 40.6715 39.1729 40.7679 38.7009 40.7893L38.275 41.2126ZM38.2174 44.6145H36.0821L36.7555 43.318H38.2174C38.44 43.318 38.6203 43.2734 38.7585 43.1841C38.8966 43.0948 38.9964 42.9751 39.0578 42.8251C39.1191 42.6716 39.1498 42.4966 39.1498 42.3001C39.1498 42.0787 39.1211 41.8858 39.0635 41.7215C39.0098 41.5572 38.9196 41.4322 38.793 41.3465C38.6664 41.2572 38.4956 41.2126 38.2807 41.2126H36.8303L36.8418 40.0768H38.6031L39.0002 40.5268C39.4491 40.5125 39.8079 40.5929 40.0765 40.7679C40.3451 40.9393 40.5369 41.1644 40.6521 41.4429C40.771 41.7179 40.8305 42.0108 40.8305 42.3215C40.8305 42.8216 40.7288 43.243 40.5254 43.5859C40.3259 43.9252 40.0324 44.1823 39.6448 44.3573C39.2573 44.5288 38.7815 44.6145 38.2174 44.6145Z"></path><path d="M46.8738 43.318V44.6145H43.2306V43.318H46.8738ZM43.7543 36.8142V44.6145H42.0679V36.8142H43.7543ZM46.3846 39.975V41.234H43.2306V39.975H46.3846ZM46.8623 36.8142V38.116H43.2306V36.8142H46.8623Z"></path><path d="M51.4035 42.5626C51.4035 42.4233 51.3901 42.2965 51.3632 42.1823C51.3364 42.068 51.2788 41.9626 51.1905 41.8662C51.1061 41.7697 50.9814 41.6733 50.8164 41.5769C50.6553 41.4804 50.4442 41.3804 50.1833 41.2769C49.8725 41.1554 49.5713 41.0268 49.2797 40.8911C48.9881 40.7518 48.7252 40.5911 48.4912 40.409C48.2571 40.2268 48.071 40.0125 47.9329 39.7661C47.7986 39.5161 47.7314 39.2232 47.7314 38.8875C47.7314 38.5589 47.7947 38.2607 47.9214 37.9928C48.0518 37.7249 48.236 37.4963 48.4739 37.3071C48.7118 37.1142 48.99 36.966 49.3085 36.8624C49.6308 36.7588 49.9895 36.707 50.3848 36.707C50.9219 36.707 51.3862 36.8106 51.7776 37.0178C52.1728 37.2249 52.4779 37.5088 52.6927 37.8696C52.9115 38.2303 53.0208 38.6446 53.0208 39.1125H51.3402C51.3402 38.891 51.3057 38.6964 51.2366 38.5285C51.1714 38.3571 51.0658 38.2232 50.92 38.1267C50.7742 38.0303 50.5862 37.9821 50.356 37.9821C50.1411 37.9821 49.9627 38.0232 49.8207 38.1053C49.6826 38.1839 49.579 38.2928 49.5099 38.4321C49.4447 38.5678 49.4121 38.7214 49.4121 38.8928C49.4121 39.0214 49.4447 39.1375 49.5099 39.2411C49.579 39.3411 49.673 39.4321 49.7919 39.5143C49.9109 39.5929 50.0509 39.6697 50.2121 39.7447C50.3771 39.8197 50.5574 39.8929 50.7531 39.9643C51.133 40.1036 51.4687 40.2572 51.7603 40.425C52.052 40.5893 52.2956 40.7751 52.4913 40.9822C52.687 41.1858 52.8347 41.4161 52.9345 41.6733C53.0343 41.9305 53.0841 42.2233 53.0841 42.5519C53.0841 42.8769 53.0227 43.1734 52.9 43.4412C52.781 43.7055 52.6064 43.9341 52.3762 44.127C52.146 44.3163 51.8678 44.4627 51.5416 44.5663C51.2193 44.6699 50.8586 44.7216 50.4596 44.7216C50.072 44.7216 49.7056 44.6716 49.3603 44.5716C49.0149 44.4681 48.7099 44.3127 48.4451 44.1055C48.1842 43.8948 47.9789 43.6287 47.8293 43.3073C47.6796 42.9823 47.6048 42.5983 47.6048 42.1555H49.2912C49.2912 42.3912 49.3161 42.593 49.366 42.7608C49.4159 42.9251 49.4926 43.0573 49.5962 43.1573C49.6998 43.2537 49.8265 43.3269 49.9761 43.3769C50.1296 43.4234 50.3042 43.4466 50.4999 43.4466C50.7224 43.4466 50.8989 43.4073 51.0294 43.3287C51.1637 43.2502 51.2596 43.1448 51.3172 43.0126C51.3747 42.8805 51.4035 42.7305 51.4035 42.5626Z"></path><path d="M57.562 36.8142V44.6145H55.8871V36.8142H57.562ZM59.6455 36.8142V38.116H53.8439V36.8142H59.6455Z"></path><path d="M16.5016 54.019H15.0224L15.0339 52.7225H16.5016C16.9083 52.7225 17.2249 52.6546 17.4513 52.5189C17.6776 52.3832 17.8369 52.1689 17.929 51.876C18.0249 51.5831 18.0729 51.1992 18.0729 50.7242V49.5081C18.0729 49.1473 18.0479 48.842 17.998 48.5919C17.9482 48.3384 17.8637 48.1348 17.7448 47.9812C17.6258 47.8241 17.4666 47.708 17.2671 47.633C17.0675 47.558 16.8201 47.5205 16.5246 47.5205H14.9936V46.2186H16.5246C17.0081 46.2186 17.4474 46.2919 17.8426 46.4383C18.2378 46.5847 18.5774 46.799 18.8614 47.0812C19.1453 47.3598 19.364 47.7044 19.5175 48.1151C19.671 48.5259 19.7477 48.9938 19.7477 49.5188V50.7242C19.7477 51.2528 19.671 51.7206 19.5175 52.1278C19.364 52.535 19.1453 52.8796 18.8614 53.1618C18.5813 53.4404 18.2417 53.6529 17.8426 53.7993C17.4436 53.9457 16.9966 54.019 16.5016 54.019ZM16.0008 46.2186V54.019H14.3145V46.2186H16.0008Z"></path><path d="M23.886 47.6116L22.0845 54.019H20.306L22.9248 46.2186H24.0357L23.886 47.6116ZM25.3076 54.019L23.4946 47.6116L23.3277 46.2186H24.4558L27.0976 54.019H25.3076ZM25.3709 51.1099V52.4117H21.5895V51.1099H25.3709Z"></path><path d="M30.5452 46.2186V54.019H28.8703V46.2186H30.5452ZM32.6288 46.2186V47.5205H26.8271V46.2186H32.6288Z"></path><path d="M35.9497 47.6116L34.1482 54.019H32.3698L34.9885 46.2186H36.0994L35.9497 47.6116ZM37.3714 54.019L35.5583 47.6116L35.3914 46.2186H36.5195L39.1614 54.019H37.3714ZM37.4347 51.1099V52.4117H33.6532V51.1099H37.4347Z"></path><path d="M46.2235 51.9671C46.2235 51.8278 46.21 51.701 46.1832 51.5867C46.1563 51.4724 46.0988 51.3671 46.0105 51.2706C45.9261 51.1742 45.8014 51.0778 45.6364 50.9813C45.4752 50.8849 45.2642 50.7849 45.0033 50.6813C44.6925 50.5599 44.3913 50.4313 44.0996 50.2956C43.808 50.1563 43.5452 49.9956 43.3111 49.8134C43.0771 49.6313 42.891 49.417 42.7528 49.1705C42.6185 48.9205 42.5514 48.6277 42.5514 48.2919C42.5514 47.9634 42.6147 47.6651 42.7413 47.3973C42.8718 47.1294 43.056 46.9008 43.2939 46.7115C43.5318 46.5187 43.81 46.3704 44.1284 46.2669C44.4507 46.1633 44.8095 46.1115 45.2047 46.1115C45.7419 46.1115 46.2062 46.2151 46.5976 46.4222C46.9928 46.6294 47.2978 46.9133 47.5127 47.274C47.7314 47.6348 47.8408 48.0491 47.8408 48.5169H46.1602C46.1602 48.2955 46.1256 48.1009 46.0566 47.933C45.9913 47.7616 45.8858 47.6276 45.74 47.5312C45.5942 47.4348 45.4062 47.3865 45.1759 47.3865C44.9611 47.3865 44.7826 47.4276 44.6407 47.5098C44.5025 47.5883 44.3989 47.6973 44.3299 47.8366C44.2646 47.9723 44.232 48.1259 44.232 48.2973C44.232 48.4259 44.2646 48.5419 44.3299 48.6455C44.3989 48.7455 44.4929 48.8366 44.6119 48.9187C44.7308 48.9973 44.8709 49.0741 45.0321 49.1491C45.197 49.2241 45.3774 49.2973 45.5731 49.3688C45.9529 49.5081 46.2887 49.6616 46.5803 49.8295C46.8719 49.9938 47.1156 50.1795 47.3113 50.3867C47.507 50.5902 47.6547 50.8206 47.7545 51.0778C47.8542 51.3349 47.9041 51.6278 47.9041 51.9564C47.9041 52.2814 47.8427 52.5778 47.7199 52.8457C47.601 53.11 47.4264 53.3386 47.1962 53.5314C46.9659 53.7207 46.6877 53.8672 46.3616 53.9707C46.0393 54.0743 45.6786 54.1261 45.2795 54.1261C44.892 54.1261 44.5256 54.0761 44.1802 53.9761C43.8349 53.8725 43.5298 53.7172 43.2651 53.51C43.0042 53.2993 42.7989 53.0332 42.6492 52.7118C42.4996 52.3867 42.4248 52.0028 42.4248 51.5599H44.1112C44.1112 51.7956 44.1361 51.9974 44.186 52.1653C44.2359 52.3296 44.3126 52.4617 44.4162 52.5618C44.5198 52.6582 44.6464 52.7314 44.7961 52.7814C44.9496 52.8278 45.1241 52.851 45.3198 52.851C45.5424 52.851 45.7189 52.8118 45.8493 52.7332C45.9836 52.6546 46.0796 52.5493 46.1371 52.4171C46.1947 52.285 46.2235 52.1349 46.2235 51.9671Z"></path><path d="M53.0381 51.4206H54.713C54.6899 52.0064 54.5633 52.501 54.3331 52.9046C54.1029 53.3046 53.7748 53.6082 53.3489 53.8154C52.9268 54.0225 52.4165 54.1261 51.8179 54.1261C51.3536 54.1261 50.9411 54.0547 50.5804 53.9118C50.2198 53.7654 49.9128 53.5511 49.6596 53.2689C49.4063 52.9868 49.2145 52.6385 49.084 52.2242C48.9574 51.8064 48.8941 51.326 48.8941 50.7831V49.4598C48.8941 48.917 48.9612 48.4366 49.0955 48.0187C49.2336 47.6008 49.4293 47.2508 49.6826 46.9687C49.9397 46.6829 50.2485 46.4686 50.6092 46.3258C50.9737 46.1794 51.3843 46.1061 51.8409 46.1061C52.451 46.1061 52.9613 46.2133 53.3719 46.4276C53.7825 46.6419 54.099 46.9544 54.3216 47.3651C54.548 47.7723 54.6842 48.2705 54.7302 48.8598H53.0496C53.0381 48.4884 52.992 48.1973 52.9115 47.9866C52.8347 47.7723 52.7119 47.6223 52.5431 47.5365C52.3743 47.4473 52.1402 47.4026 51.8409 47.4026C51.6184 47.4026 51.4265 47.4401 51.2654 47.5151C51.1042 47.5866 50.9718 47.7026 50.8682 47.8633C50.7646 48.0241 50.6879 48.2348 50.638 48.4955C50.592 48.7562 50.5689 49.0741 50.5689 49.4491V50.7831C50.5689 51.151 50.59 51.4653 50.6322 51.726C50.6745 51.9832 50.7416 52.1939 50.8337 52.3582C50.9258 52.5225 51.0505 52.6421 51.2078 52.7171C51.369 52.7921 51.5723 52.8296 51.8179 52.8296C52.1018 52.8296 52.3301 52.7903 52.5028 52.7118C52.6793 52.6332 52.8098 52.4921 52.8942 52.2885C52.9786 52.0849 53.0266 51.7956 53.0381 51.4206Z"></path><path d="M57.5159 46.2186V54.019H55.8411V46.2186H57.5159Z"></path><path d="M63.7608 52.7225V54.019H60.1175V52.7225H63.7608ZM60.6412 46.2186V54.019H58.9548V46.2186H60.6412ZM63.2715 49.3795V50.6385H60.1175V49.3795H63.2715ZM63.7492 46.2186V47.5205H60.1175V46.2186H63.7492Z"></path><path d="M70.6042 46.2186V54.019H68.9753L66.345 49.1384V54.019H64.745V46.2186H66.3508L69.0041 51.1528V46.2186H70.6042Z"></path><path d="M75.9569 51.4206H77.6317C77.6087 52.0064 77.4821 52.501 77.2519 52.9046C77.0216 53.3046 76.6936 53.6082 76.2677 53.8154C75.8456 54.0225 75.3353 54.1261 74.7367 54.1261C74.2724 54.1261 73.8599 54.0547 73.4992 53.9118C73.1385 53.7654 72.8316 53.5511 72.5783 53.2689C72.3251 52.9868 72.1332 52.6385 72.0028 52.2242C71.8761 51.8064 71.8128 51.326 71.8128 50.7831V49.4598C71.8128 48.917 71.88 48.4366 72.0143 48.0187C72.1524 47.6008 72.3481 47.2508 72.6013 46.9687C72.8584 46.6829 73.1673 46.4686 73.528 46.3258C73.8925 46.1794 74.3031 46.1061 74.7597 46.1061C75.3698 46.1061 75.8801 46.2133 76.2907 46.4276C76.7013 46.6419 77.0178 46.9544 77.2404 47.3651C77.4667 47.7723 77.603 48.2705 77.649 48.8598H75.9684C75.9569 48.4884 75.9108 48.1973 75.8302 47.9866C75.7535 47.7723 75.6307 47.6223 75.4619 47.5365C75.293 47.4473 75.059 47.4026 74.7597 47.4026C74.5371 47.4026 74.3453 47.4401 74.1841 47.5151C74.023 47.5866 73.8906 47.7026 73.787 47.8633C73.6834 48.0241 73.6067 48.2348 73.5568 48.4955C73.5107 48.7562 73.4877 49.0741 73.4877 49.4491V50.7831C73.4877 51.151 73.5088 51.4653 73.551 51.726C73.5932 51.9832 73.6604 52.1939 73.7525 52.3582C73.8446 52.5225 73.9693 52.6421 74.1266 52.7171C74.2877 52.7921 74.4911 52.8296 74.7367 52.8296C75.0206 52.8296 75.2489 52.7903 75.4216 52.7118C75.5981 52.6332 75.7286 52.4921 75.813 52.2885C75.8974 52.0849 75.9454 51.7956 75.9569 51.4206Z"></path><path d="M83.4909 52.7225V54.019H79.8476V52.7225H83.4909ZM80.3714 46.2186V54.019H78.685V46.2186H80.3714ZM83.0017 49.3795V50.6385H79.8476V49.3795H83.0017ZM83.4794 46.2186V47.5205H79.8476V46.2186H83.4794Z"></path><path d="M21.0312 60.0215H19.3161L19.3103 58.8857H20.7722C21.0025 58.8857 21.1905 58.85 21.3363 58.7786C21.4859 58.7036 21.5953 58.5946 21.6643 58.4518C21.7372 58.3054 21.7737 58.1286 21.7737 57.9214C21.7737 57.6821 21.7411 57.491 21.6759 57.3482C21.6106 57.2017 21.5051 57.0946 21.3593 57.0267C21.2135 56.9589 21.0236 56.9249 20.7895 56.9249H19.8916V63.4234H18.2052V55.6231H20.7895C21.2077 55.6231 21.5818 55.666 21.9118 55.7517C22.2418 55.8374 22.5219 55.9678 22.7522 56.1428C22.9824 56.3178 23.157 56.5392 23.2759 56.8071C23.3987 57.0749 23.4601 57.391 23.4601 57.7553C23.4601 58.0768 23.391 58.3732 23.2529 58.6447C23.1148 58.9161 22.898 59.1375 22.6025 59.309C22.3109 59.4804 21.9291 59.5768 21.4571 59.5983L21.0312 60.0215ZM20.9737 63.4234H18.8383L19.5118 62.1269H20.9737C21.1962 62.1269 21.3766 62.0823 21.5147 61.993C21.6528 61.9037 21.7526 61.7841 21.814 61.6341C21.8754 61.4805 21.9061 61.3055 21.9061 61.109C21.9061 60.8876 21.8773 60.6947 21.8197 60.5304C21.766 60.3661 21.6759 60.2411 21.5492 60.1554C21.4226 60.0661 21.2519 60.0215 21.037 60.0215H19.5866L19.5981 58.8857H21.3593L21.7564 59.3357C22.2054 59.3215 22.5641 59.4018 22.8327 59.5768C23.1013 59.7483 23.2932 59.9733 23.4083 60.2519C23.5272 60.5269 23.5867 60.8197 23.5867 61.1305C23.5867 61.6305 23.485 62.0519 23.2817 62.3948C23.0821 62.7341 22.7886 62.9913 22.4011 63.1663C22.0135 63.3377 21.5377 63.4234 20.9737 63.4234Z"></path><path d="M30.7121 58.9179V60.2197C30.7121 60.7697 30.6392 61.2519 30.4934 61.6662C30.3515 62.0769 30.1481 62.4216 29.8833 62.7002C29.6224 62.9752 29.3059 63.1823 28.9337 63.3216C28.5653 63.4609 28.1567 63.5306 27.7077 63.5306C27.2588 63.5306 26.8482 63.4609 26.476 63.3216C26.1077 63.1823 25.7892 62.9752 25.5206 62.7002C25.2558 62.4216 25.0506 62.0769 24.9047 61.6662C24.7589 61.2519 24.686 60.7697 24.686 60.2197V58.9179C24.686 58.3536 24.757 57.8607 24.899 57.4392C25.041 57.0142 25.2462 56.6606 25.5148 56.3785C25.7834 56.0928 26.1019 55.8785 26.4703 55.7356C26.8386 55.5892 27.2473 55.516 27.6962 55.516C28.1451 55.516 28.5538 55.5892 28.9221 55.7356C29.2905 55.8785 29.609 56.0928 29.8776 56.3785C30.1462 56.6606 30.3515 57.0142 30.4934 57.4392C30.6392 57.8607 30.7121 58.3536 30.7121 58.9179ZM29.0373 60.2197V58.9072C29.0373 58.5357 29.0085 58.2196 28.9509 57.9589C28.8934 57.6946 28.807 57.4785 28.6919 57.3107C28.5768 57.1428 28.4368 57.0196 28.2718 56.941C28.1068 56.8624 27.9149 56.8231 27.6962 56.8231C27.4775 56.8231 27.2837 56.8624 27.1149 56.941C26.9499 57.0196 26.8098 57.1428 26.6947 57.3107C26.5835 57.4785 26.499 57.6946 26.4415 57.9589C26.3878 58.2196 26.3609 58.5357 26.3609 58.9072V60.2197C26.3609 60.5769 26.3897 60.8822 26.4472 61.1358C26.5048 61.3894 26.5911 61.5966 26.7062 61.7573C26.8214 61.918 26.9614 62.0376 27.1264 62.1162C27.2952 62.1912 27.489 62.2287 27.7077 62.2287C27.9226 62.2287 28.1125 62.1912 28.2775 62.1162C28.4464 62.0376 28.5864 61.918 28.6977 61.7573C28.809 61.5966 28.8934 61.3894 28.9509 61.1358C29.0085 60.8822 29.0373 60.5769 29.0373 60.2197Z"></path><path d="M37.8261 58.9179V60.2197C37.8261 60.7697 37.7531 61.2519 37.6073 61.6662C37.4654 62.0769 37.262 62.4216 36.9972 62.7002C36.7363 62.9752 36.4198 63.1823 36.0476 63.3216C35.6792 63.4609 35.2706 63.5306 34.8216 63.5306C34.3727 63.5306 33.9621 63.4609 33.5899 63.3216C33.2216 63.1823 32.9031 62.9752 32.6345 62.7002C32.3698 62.4216 32.1645 62.0769 32.0187 61.6662C31.8729 61.2519 31.7999 60.7697 31.7999 60.2197V58.9179C31.7999 58.3536 31.8709 57.8607 32.0129 57.4392C32.1549 57.0142 32.3602 56.6606 32.6288 56.3785C32.8973 56.0928 33.2158 55.8785 33.5842 55.7356C33.9525 55.5892 34.3612 55.516 34.8101 55.516C35.2591 55.516 35.6677 55.5892 36.0361 55.7356C36.4044 55.8785 36.7229 56.0928 36.9915 56.3785C37.2601 56.6606 37.4654 57.0142 37.6073 57.4392C37.7531 57.8607 37.8261 58.3536 37.8261 58.9179ZM36.1512 60.2197V58.9072C36.1512 58.5357 36.1224 58.2196 36.0648 57.9589C36.0073 57.6946 35.921 57.4785 35.8058 57.3107C35.6907 57.1428 35.5507 57.0196 35.3857 56.941C35.2207 56.8624 35.0288 56.8231 34.8101 56.8231C34.5914 56.8231 34.3976 56.8624 34.2288 56.941C34.0638 57.0196 33.9238 57.1428 33.8086 57.3107C33.6974 57.4785 33.613 57.6946 33.5554 57.9589C33.5017 58.2196 33.4748 58.5357 33.4748 58.9072V60.2197C33.4748 60.5769 33.5036 60.8822 33.5612 61.1358C33.6187 61.3894 33.705 61.5966 33.8202 61.7573C33.9353 61.918 34.0753 62.0376 34.2403 62.1162C34.4091 62.1912 34.6029 62.2287 34.8216 62.2287C35.0365 62.2287 35.2264 62.1912 35.3914 62.1162C35.5603 62.0376 35.7003 61.918 35.8116 61.7573C35.9229 61.5966 36.0073 61.3894 36.0648 61.1358C36.1224 60.8822 36.1512 60.5769 36.1512 60.2197Z"></path><path d="M41.9068 55.6231V63.4234H40.2319V55.6231H41.9068ZM43.9903 55.6231V56.9249H38.1887V55.6231H43.9903Z"></path><path d="M48.802 60.8251H50.4768C50.4538 61.4108 50.3272 61.9055 50.097 62.3091C49.8668 62.7091 49.5387 63.0127 49.1128 63.2198C48.6907 63.427 48.1804 63.5306 47.5818 63.5306C47.1175 63.5306 46.705 63.4591 46.3443 63.3163C45.9836 63.1698 45.6767 62.9555 45.4234 62.6734C45.1702 62.3912 44.9783 62.043 44.8479 61.6287C44.7213 61.2108 44.6579 60.7304 44.6579 60.1876V58.8643C44.6579 58.3214 44.7251 57.841 44.8594 57.4232C44.9975 57.0053 45.1932 56.6553 45.4465 56.3731C45.7035 56.0874 46.0124 55.8731 46.3731 55.7302C46.7376 55.5838 47.1482 55.5106 47.6048 55.5106C48.2149 55.5106 48.7252 55.6177 49.1358 55.832C49.5464 56.0463 49.8629 56.3588 50.0855 56.7696C50.3119 57.1767 50.4481 57.675 50.4941 58.2643H48.8135C48.802 57.8928 48.7559 57.6018 48.6753 57.391C48.5986 57.1767 48.4758 57.0267 48.307 56.941C48.1382 56.8517 47.9041 56.8071 47.6048 56.8071C47.3823 56.8071 47.1904 56.8446 47.0292 56.9196C46.8681 56.991 46.7357 57.1071 46.6321 57.2678C46.5285 57.4285 46.4518 57.6393 46.4019 57.9C46.3558 58.1607 46.3328 58.4786 46.3328 58.8536V60.1876C46.3328 60.5554 46.3539 60.8697 46.3961 61.1305C46.4383 61.3876 46.5055 61.5983 46.5976 61.7626C46.6897 61.9269 46.8144 62.0466 46.9717 62.1216C47.1328 62.1966 47.3362 62.2341 47.5818 62.2341C47.8657 62.2341 48.094 62.1948 48.2667 62.1162C48.4432 62.0376 48.5737 61.8966 48.6581 61.693C48.7425 61.4894 48.7905 61.2001 48.802 60.8251Z"></path><path d="M54.5633 57.016L52.7618 63.4234H50.9833L53.6021 55.6231H54.713L54.5633 57.016ZM55.985 63.4234L54.1719 57.016L54.005 55.6231H55.1331L57.7749 63.4234H55.985ZM56.0483 60.5144V61.8162H52.2668V60.5144H56.0483Z"></path><path d="M59.1736 55.6231H60.6527L62.3621 60.959L64.0658 55.6231H65.3723L62.9895 63.4234H61.729L59.1736 55.6231ZM58.575 55.6231H59.9851L60.2038 60.7662V63.4234H58.575V55.6231ZM64.7277 55.6231H66.1436V63.4234H64.5205V60.7662L64.7277 55.6231Z"></path><path d="M70.3739 60.6751H68.6588V59.3733H70.3739C70.6118 59.3733 70.8056 59.3232 70.9552 59.2232C71.1087 59.1232 71.22 58.9857 71.2891 58.8107C71.3581 58.6321 71.3927 58.4321 71.3927 58.2107C71.3927 57.9857 71.3562 57.7768 71.2833 57.5839C71.2142 57.3875 71.1049 57.2285 70.9552 57.1071C70.8094 56.9857 70.6157 56.9249 70.3739 56.9249H69.1998V63.4234H67.5192V55.6231H70.3739C70.938 55.6231 71.4234 55.7338 71.8301 55.9553C72.2368 56.1767 72.5476 56.4821 72.7625 56.8714C72.9812 57.2571 73.0906 57.7 73.0906 58.2C73.0906 58.7036 72.9812 59.1411 72.7625 59.5125C72.5476 59.8804 72.2368 60.1661 71.8301 60.3697C71.4234 60.5733 70.938 60.6751 70.3739 60.6751Z"></path><path d="M77.7641 61.3715C77.7641 61.2323 77.7507 61.1055 77.7238 60.9912C77.697 60.8769 77.6394 60.7715 77.5512 60.6751C77.4667 60.5787 77.342 60.4822 77.177 60.3858C77.0159 60.2894 76.8049 60.1894 76.5439 60.0858C76.2331 59.9643 75.9319 59.8358 75.6403 59.7C75.3487 59.5608 75.0858 59.4 74.8518 59.2179C74.6177 59.0357 74.4316 58.8214 74.2935 58.575C74.1592 58.325 74.092 58.0321 74.092 57.6964C74.092 57.3678 74.1554 57.0696 74.282 56.8017C74.4124 56.5339 74.5966 56.3053 74.8345 56.116C75.0724 55.9231 75.3506 55.7749 75.6691 55.6713C75.9914 55.5677 76.3502 55.516 76.7454 55.516C77.2826 55.516 77.7468 55.6195 78.1382 55.8267C78.5334 56.0338 78.8385 56.3178 79.0534 56.6785C79.2721 57.0392 79.3814 57.4535 79.3814 57.9214H77.7008C77.7008 57.7 77.6663 57.5053 77.5972 57.3375C77.532 57.166 77.4265 57.0321 77.2806 56.9357C77.1348 56.8392 76.9468 56.791 76.7166 56.791C76.5017 56.791 76.3233 56.8321 76.1813 56.9142C76.0432 56.9928 75.9396 57.1017 75.8705 57.241C75.8053 57.3767 75.7727 57.5303 75.7727 57.7018C75.7727 57.8303 75.8053 57.9464 75.8705 58.05C75.9396 58.15 76.0336 58.2411 76.1525 58.3232C76.2715 58.4018 76.4116 58.4786 76.5727 58.5536C76.7377 58.6286 76.918 58.7018 77.1137 58.7732C77.4936 58.9125 77.8293 59.0661 78.121 59.234C78.4126 59.3983 78.6562 59.584 78.8519 59.7911C79.0476 59.9947 79.1953 60.2251 79.2951 60.4822C79.3949 60.7394 79.4447 61.0322 79.4447 61.3608C79.4447 61.6858 79.3834 61.9823 79.2606 62.2502C79.1416 62.5144 78.967 62.743 78.7368 62.9359C78.5066 63.1252 78.2284 63.2716 77.9023 63.3752C77.5799 63.4788 77.2193 63.5306 76.8202 63.5306C76.4327 63.5306 76.0662 63.4806 75.7209 63.3806C75.3755 63.277 75.0705 63.1216 74.8057 62.9145C74.5448 62.7037 74.3395 62.4377 74.1899 62.1162C74.0402 61.7912 73.9654 61.4073 73.9654 60.9644H75.6518C75.6518 61.2001 75.6768 61.4019 75.7266 61.5698C75.7765 61.7341 75.8533 61.8662 75.9569 61.9662C76.0605 62.0626 76.1871 62.1359 76.3367 62.1859C76.4902 62.2323 76.6648 62.2555 76.8605 62.2555C77.083 62.2555 77.2595 62.2162 77.39 62.1376C77.5243 62.0591 77.6202 61.9537 77.6778 61.8216C77.7353 61.6894 77.7641 61.5394 77.7641 61.3715Z"></path></mask><path d="M38.275 41.2126H36.5598L36.5541 40.0768H38.016C38.2462 40.0768 38.4342 40.0411 38.58 39.9697C38.7297 39.8947 38.839 39.7857 38.9081 39.6429C38.981 39.4964 39.0175 39.3196 39.0175 39.1125C39.0175 38.8732 38.9848 38.6821 38.9196 38.5392C38.8544 38.3928 38.7489 38.2857 38.6031 38.2178C38.4572 38.1499 38.2673 38.116 38.0333 38.116H37.1354V44.6145H35.449V36.8142H38.0333C38.4515 36.8142 38.8256 36.857 39.1556 36.9428C39.4856 37.0285 39.7657 37.1588 39.9959 37.3338C40.2261 37.5088 40.4007 37.7303 40.5197 37.9982C40.6425 38.266 40.7039 38.5821 40.7039 38.9464C40.7039 39.2678 40.6348 39.5643 40.4966 39.8357C40.3585 40.1072 40.1417 40.3286 39.8463 40.5C39.5546 40.6715 39.1729 40.7679 38.7009 40.7893L38.275 41.2126ZM38.2174 44.6145H36.0821L36.7555 43.318H38.2174C38.44 43.318 38.6203 43.2734 38.7585 43.1841C38.8966 43.0948 38.9964 42.9751 39.0578 42.8251C39.1191 42.6716 39.1498 42.4966 39.1498 42.3001C39.1498 42.0787 39.1211 41.8858 39.0635 41.7215C39.0098 41.5572 38.9196 41.4322 38.793 41.3465C38.6664 41.2572 38.4956 41.2126 38.2807 41.2126H36.8303L36.8418 40.0768H38.6031L39.0002 40.5268C39.4491 40.5125 39.8079 40.5929 40.0765 40.7679C40.3451 40.9393 40.5369 41.1644 40.6521 41.4429C40.771 41.7179 40.8305 42.0108 40.8305 42.3215C40.8305 42.8216 40.7288 43.243 40.5254 43.5859C40.3259 43.9252 40.0324 44.1823 39.6448 44.3573C39.2573 44.5288 38.7815 44.6145 38.2174 44.6145Z" fill="#FE9F35"></path><path d="M46.8738 43.318V44.6145H43.2306V43.318H46.8738ZM43.7543 36.8142V44.6145H42.0679V36.8142H43.7543ZM46.3846 39.975V41.234H43.2306V39.975H46.3846ZM46.8623 36.8142V38.116H43.2306V36.8142H46.8623Z" fill="#FE9F35"></path><path d="M51.4035 42.5626C51.4035 42.4233 51.3901 42.2965 51.3632 42.1823C51.3364 42.068 51.2788 41.9626 51.1905 41.8662C51.1061 41.7697 50.9814 41.6733 50.8164 41.5769C50.6553 41.4804 50.4442 41.3804 50.1833 41.2769C49.8725 41.1554 49.5713 41.0268 49.2797 40.8911C48.9881 40.7518 48.7252 40.5911 48.4912 40.409C48.2571 40.2268 48.071 40.0125 47.9329 39.7661C47.7986 39.5161 47.7314 39.2232 47.7314 38.8875C47.7314 38.5589 47.7947 38.2607 47.9214 37.9928C48.0518 37.7249 48.236 37.4963 48.4739 37.3071C48.7118 37.1142 48.99 36.966 49.3085 36.8624C49.6308 36.7588 49.9895 36.707 50.3848 36.707C50.9219 36.707 51.3862 36.8106 51.7776 37.0178C52.1728 37.2249 52.4779 37.5088 52.6927 37.8696C52.9115 38.2303 53.0208 38.6446 53.0208 39.1125H51.3402C51.3402 38.891 51.3057 38.6964 51.2366 38.5285C51.1714 38.3571 51.0658 38.2232 50.92 38.1267C50.7742 38.0303 50.5862 37.9821 50.356 37.9821C50.1411 37.9821 49.9627 38.0232 49.8207 38.1053C49.6826 38.1839 49.579 38.2928 49.5099 38.4321C49.4447 38.5678 49.4121 38.7214 49.4121 38.8928C49.4121 39.0214 49.4447 39.1375 49.5099 39.2411C49.579 39.3411 49.673 39.4321 49.7919 39.5143C49.9109 39.5929 50.0509 39.6697 50.2121 39.7447C50.3771 39.8197 50.5574 39.8929 50.7531 39.9643C51.133 40.1036 51.4687 40.2572 51.7603 40.425C52.052 40.5893 52.2956 40.7751 52.4913 40.9822C52.687 41.1858 52.8347 41.4161 52.9345 41.6733C53.0343 41.9305 53.0841 42.2233 53.0841 42.5519C53.0841 42.8769 53.0227 43.1734 52.9 43.4412C52.781 43.7055 52.6064 43.9341 52.3762 44.127C52.146 44.3163 51.8678 44.4627 51.5416 44.5663C51.2193 44.6699 50.8586 44.7216 50.4596 44.7216C50.072 44.7216 49.7056 44.6716 49.3603 44.5716C49.0149 44.4681 48.7099 44.3127 48.4451 44.1055C48.1842 43.8948 47.9789 43.6287 47.8293 43.3073C47.6796 42.9823 47.6048 42.5983 47.6048 42.1555H49.2912C49.2912 42.3912 49.3161 42.593 49.366 42.7608C49.4159 42.9251 49.4926 43.0573 49.5962 43.1573C49.6998 43.2537 49.8265 43.3269 49.9761 43.3769C50.1296 43.4234 50.3042 43.4466 50.4999 43.4466C50.7224 43.4466 50.8989 43.4073 51.0294 43.3287C51.1637 43.2502 51.2596 43.1448 51.3172 43.0126C51.3747 42.8805 51.4035 42.7305 51.4035 42.5626Z" fill="#FE9F35"></path><path d="M57.562 36.8142V44.6145H55.8871V36.8142H57.562ZM59.6455 36.8142V38.116H53.8439V36.8142H59.6455Z" fill="#FE9F35"></path><path d="M16.5016 54.019H15.0224L15.0339 52.7225H16.5016C16.9083 52.7225 17.2249 52.6546 17.4513 52.5189C17.6776 52.3832 17.8369 52.1689 17.929 51.876C18.0249 51.5831 18.0729 51.1992 18.0729 50.7242V49.5081C18.0729 49.1473 18.0479 48.842 17.998 48.5919C17.9482 48.3384 17.8637 48.1348 17.7448 47.9812C17.6258 47.8241 17.4666 47.708 17.2671 47.633C17.0675 47.558 16.8201 47.5205 16.5246 47.5205H14.9936V46.2186H16.5246C17.0081 46.2186 17.4474 46.2919 17.8426 46.4383C18.2378 46.5847 18.5774 46.799 18.8614 47.0812C19.1453 47.3598 19.364 47.7044 19.5175 48.1151C19.671 48.5259 19.7477 48.9938 19.7477 49.5188V50.7242C19.7477 51.2528 19.671 51.7206 19.5175 52.1278C19.364 52.535 19.1453 52.8796 18.8614 53.1618C18.5813 53.4404 18.2417 53.6529 17.8426 53.7993C17.4436 53.9457 16.9966 54.019 16.5016 54.019ZM16.0008 46.2186V54.019H14.3145V46.2186H16.0008Z" fill="#FE9F35"></path><path d="M23.886 47.6116L22.0845 54.019H20.306L22.9248 46.2186H24.0357L23.886 47.6116ZM25.3076 54.019L23.4946 47.6116L23.3277 46.2186H24.4558L27.0976 54.019H25.3076ZM25.3709 51.1099V52.4117H21.5895V51.1099H25.3709Z" fill="#FE9F35"></path><path d="M30.5452 46.2186V54.019H28.8703V46.2186H30.5452ZM32.6288 46.2186V47.5205H26.8271V46.2186H32.6288Z" fill="#FE9F35"></path><path d="M35.9497 47.6116L34.1482 54.019H32.3698L34.9885 46.2186H36.0994L35.9497 47.6116ZM37.3714 54.019L35.5583 47.6116L35.3914 46.2186H36.5195L39.1614 54.019H37.3714ZM37.4347 51.1099V52.4117H33.6532V51.1099H37.4347Z" fill="#FE9F35"></path><path d="M46.2235 51.9671C46.2235 51.8278 46.21 51.701 46.1832 51.5867C46.1563 51.4724 46.0988 51.3671 46.0105 51.2706C45.9261 51.1742 45.8014 51.0778 45.6364 50.9813C45.4752 50.8849 45.2642 50.7849 45.0033 50.6813C44.6925 50.5599 44.3913 50.4313 44.0996 50.2956C43.808 50.1563 43.5452 49.9956 43.3111 49.8134C43.0771 49.6313 42.891 49.417 42.7528 49.1705C42.6185 48.9205 42.5514 48.6277 42.5514 48.2919C42.5514 47.9634 42.6147 47.6651 42.7413 47.3973C42.8718 47.1294 43.056 46.9008 43.2939 46.7115C43.5318 46.5187 43.81 46.3704 44.1284 46.2669C44.4507 46.1633 44.8095 46.1115 45.2047 46.1115C45.7419 46.1115 46.2062 46.2151 46.5976 46.4222C46.9928 46.6294 47.2978 46.9133 47.5127 47.274C47.7314 47.6348 47.8408 48.0491 47.8408 48.5169H46.1602C46.1602 48.2955 46.1256 48.1009 46.0566 47.933C45.9913 47.7616 45.8858 47.6276 45.74 47.5312C45.5942 47.4348 45.4062 47.3865 45.1759 47.3865C44.9611 47.3865 44.7826 47.4276 44.6407 47.5098C44.5025 47.5883 44.3989 47.6973 44.3299 47.8366C44.2646 47.9723 44.232 48.1259 44.232 48.2973C44.232 48.4259 44.2646 48.5419 44.3299 48.6455C44.3989 48.7455 44.4929 48.8366 44.6119 48.9187C44.7308 48.9973 44.8709 49.0741 45.0321 49.1491C45.197 49.2241 45.3774 49.2973 45.5731 49.3688C45.9529 49.5081 46.2887 49.6616 46.5803 49.8295C46.8719 49.9938 47.1156 50.1795 47.3113 50.3867C47.507 50.5902 47.6547 50.8206 47.7545 51.0778C47.8542 51.3349 47.9041 51.6278 47.9041 51.9564C47.9041 52.2814 47.8427 52.5778 47.7199 52.8457C47.601 53.11 47.4264 53.3386 47.1962 53.5314C46.9659 53.7207 46.6877 53.8672 46.3616 53.9707C46.0393 54.0743 45.6786 54.1261 45.2795 54.1261C44.892 54.1261 44.5256 54.0761 44.1802 53.9761C43.8349 53.8725 43.5298 53.7172 43.2651 53.51C43.0042 53.2993 42.7989 53.0332 42.6492 52.7118C42.4996 52.3867 42.4248 52.0028 42.4248 51.5599H44.1112C44.1112 51.7956 44.1361 51.9974 44.186 52.1653C44.2359 52.3296 44.3126 52.4617 44.4162 52.5618C44.5198 52.6582 44.6464 52.7314 44.7961 52.7814C44.9496 52.8278 45.1241 52.851 45.3198 52.851C45.5424 52.851 45.7189 52.8118 45.8493 52.7332C45.9836 52.6546 46.0796 52.5493 46.1371 52.4171C46.1947 52.285 46.2235 52.1349 46.2235 51.9671Z" fill="#FE9F35"></path><path d="M53.0381 51.4206H54.713C54.6899 52.0064 54.5633 52.501 54.3331 52.9046C54.1029 53.3046 53.7748 53.6082 53.3489 53.8154C52.9268 54.0225 52.4165 54.1261 51.8179 54.1261C51.3536 54.1261 50.9411 54.0547 50.5804 53.9118C50.2198 53.7654 49.9128 53.5511 49.6596 53.2689C49.4063 52.9868 49.2145 52.6385 49.084 52.2242C48.9574 51.8064 48.8941 51.326 48.8941 50.7831V49.4598C48.8941 48.917 48.9612 48.4366 49.0955 48.0187C49.2336 47.6008 49.4293 47.2508 49.6826 46.9687C49.9397 46.6829 50.2485 46.4686 50.6092 46.3258C50.9737 46.1794 51.3843 46.1061 51.8409 46.1061C52.451 46.1061 52.9613 46.2133 53.3719 46.4276C53.7825 46.6419 54.099 46.9544 54.3216 47.3651C54.548 47.7723 54.6842 48.2705 54.7302 48.8598H53.0496C53.0381 48.4884 52.992 48.1973 52.9115 47.9866C52.8347 47.7723 52.7119 47.6223 52.5431 47.5365C52.3743 47.4473 52.1402 47.4026 51.8409 47.4026C51.6184 47.4026 51.4265 47.4401 51.2654 47.5151C51.1042 47.5866 50.9718 47.7026 50.8682 47.8633C50.7646 48.0241 50.6879 48.2348 50.638 48.4955C50.592 48.7562 50.5689 49.0741 50.5689 49.4491V50.7831C50.5689 51.151 50.59 51.4653 50.6322 51.726C50.6745 51.9832 50.7416 52.1939 50.8337 52.3582C50.9258 52.5225 51.0505 52.6421 51.2078 52.7171C51.369 52.7921 51.5723 52.8296 51.8179 52.8296C52.1018 52.8296 52.3301 52.7903 52.5028 52.7118C52.6793 52.6332 52.8098 52.4921 52.8942 52.2885C52.9786 52.0849 53.0266 51.7956 53.0381 51.4206Z" fill="#FE9F35"></path><path d="M57.5159 46.2186V54.019H55.8411V46.2186H57.5159Z" fill="#FE9F35"></path><path d="M63.7608 52.7225V54.019H60.1175V52.7225H63.7608ZM60.6412 46.2186V54.019H58.9548V46.2186H60.6412ZM63.2715 49.3795V50.6385H60.1175V49.3795H63.2715ZM63.7492 46.2186V47.5205H60.1175V46.2186H63.7492Z" fill="#FE9F35"></path><path d="M70.6042 46.2186V54.019H68.9753L66.345 49.1384V54.019H64.745V46.2186H66.3508L69.0041 51.1528V46.2186H70.6042Z" fill="#FE9F35"></path><path d="M75.9569 51.4206H77.6317C77.6087 52.0064 77.4821 52.501 77.2519 52.9046C77.0216 53.3046 76.6936 53.6082 76.2677 53.8154C75.8456 54.0225 75.3353 54.1261 74.7367 54.1261C74.2724 54.1261 73.8599 54.0547 73.4992 53.9118C73.1385 53.7654 72.8316 53.5511 72.5783 53.2689C72.3251 52.9868 72.1332 52.6385 72.0028 52.2242C71.8761 51.8064 71.8128 51.326 71.8128 50.7831V49.4598C71.8128 48.917 71.88 48.4366 72.0143 48.0187C72.1524 47.6008 72.3481 47.2508 72.6013 46.9687C72.8584 46.6829 73.1673 46.4686 73.528 46.3258C73.8925 46.1794 74.3031 46.1061 74.7597 46.1061C75.3698 46.1061 75.8801 46.2133 76.2907 46.4276C76.7013 46.6419 77.0178 46.9544 77.2404 47.3651C77.4667 47.7723 77.603 48.2705 77.649 48.8598H75.9684C75.9569 48.4884 75.9108 48.1973 75.8302 47.9866C75.7535 47.7723 75.6307 47.6223 75.4619 47.5365C75.293 47.4473 75.059 47.4026 74.7597 47.4026C74.5371 47.4026 74.3453 47.4401 74.1841 47.5151C74.023 47.5866 73.8906 47.7026 73.787 47.8633C73.6834 48.0241 73.6067 48.2348 73.5568 48.4955C73.5107 48.7562 73.4877 49.0741 73.4877 49.4491V50.7831C73.4877 51.151 73.5088 51.4653 73.551 51.726C73.5932 51.9832 73.6604 52.1939 73.7525 52.3582C73.8446 52.5225 73.9693 52.6421 74.1266 52.7171C74.2877 52.7921 74.4911 52.8296 74.7367 52.8296C75.0206 52.8296 75.2489 52.7903 75.4216 52.7118C75.5981 52.6332 75.7286 52.4921 75.813 52.2885C75.8974 52.0849 75.9454 51.7956 75.9569 51.4206Z" fill="#FE9F35"></path><path d="M83.4909 52.7225V54.019H79.8476V52.7225H83.4909ZM80.3714 46.2186V54.019H78.685V46.2186H80.3714ZM83.0017 49.3795V50.6385H79.8476V49.3795H83.0017ZM83.4794 46.2186V47.5205H79.8476V46.2186H83.4794Z" fill="#FE9F35"></path><path d="M21.0312 60.0215H19.3161L19.3103 58.8857H20.7722C21.0025 58.8857 21.1905 58.85 21.3363 58.7786C21.4859 58.7036 21.5953 58.5946 21.6643 58.4518C21.7372 58.3054 21.7737 58.1286 21.7737 57.9214C21.7737 57.6821 21.7411 57.491 21.6759 57.3482C21.6106 57.2017 21.5051 57.0946 21.3593 57.0267C21.2135 56.9589 21.0236 56.9249 20.7895 56.9249H19.8916V63.4234H18.2052V55.6231H20.7895C21.2077 55.6231 21.5818 55.666 21.9118 55.7517C22.2418 55.8374 22.5219 55.9678 22.7522 56.1428C22.9824 56.3178 23.157 56.5392 23.2759 56.8071C23.3987 57.0749 23.4601 57.391 23.4601 57.7553C23.4601 58.0768 23.391 58.3732 23.2529 58.6447C23.1148 58.9161 22.898 59.1375 22.6025 59.309C22.3109 59.4804 21.9291 59.5768 21.4571 59.5983L21.0312 60.0215ZM20.9737 63.4234H18.8383L19.5118 62.1269H20.9737C21.1962 62.1269 21.3766 62.0823 21.5147 61.993C21.6528 61.9037 21.7526 61.7841 21.814 61.6341C21.8754 61.4805 21.9061 61.3055 21.9061 61.109C21.9061 60.8876 21.8773 60.6947 21.8197 60.5304C21.766 60.3661 21.6759 60.2411 21.5492 60.1554C21.4226 60.0661 21.2519 60.0215 21.037 60.0215H19.5866L19.5981 58.8857H21.3593L21.7564 59.3357C22.2054 59.3215 22.5641 59.4018 22.8327 59.5768C23.1013 59.7483 23.2932 59.9733 23.4083 60.2519C23.5272 60.5269 23.5867 60.8197 23.5867 61.1305C23.5867 61.6305 23.485 62.0519 23.2817 62.3948C23.0821 62.7341 22.7886 62.9913 22.4011 63.1663C22.0135 63.3377 21.5377 63.4234 20.9737 63.4234Z" fill="#FE9F35"></path><path d="M30.7121 58.9179V60.2197C30.7121 60.7697 30.6392 61.2519 30.4934 61.6662C30.3515 62.0769 30.1481 62.4216 29.8833 62.7002C29.6224 62.9752 29.3059 63.1823 28.9337 63.3216C28.5653 63.4609 28.1567 63.5306 27.7077 63.5306C27.2588 63.5306 26.8482 63.4609 26.476 63.3216C26.1077 63.1823 25.7892 62.9752 25.5206 62.7002C25.2558 62.4216 25.0506 62.0769 24.9047 61.6662C24.7589 61.2519 24.686 60.7697 24.686 60.2197V58.9179C24.686 58.3536 24.757 57.8607 24.899 57.4392C25.041 57.0142 25.2462 56.6606 25.5148 56.3785C25.7834 56.0928 26.1019 55.8785 26.4703 55.7356C26.8386 55.5892 27.2473 55.516 27.6962 55.516C28.1451 55.516 28.5538 55.5892 28.9221 55.7356C29.2905 55.8785 29.609 56.0928 29.8776 56.3785C30.1462 56.6606 30.3515 57.0142 30.4934 57.4392C30.6392 57.8607 30.7121 58.3536 30.7121 58.9179ZM29.0373 60.2197V58.9072C29.0373 58.5357 29.0085 58.2196 28.9509 57.9589C28.8934 57.6946 28.807 57.4785 28.6919 57.3107C28.5768 57.1428 28.4368 57.0196 28.2718 56.941C28.1068 56.8624 27.9149 56.8231 27.6962 56.8231C27.4775 56.8231 27.2837 56.8624 27.1149 56.941C26.9499 57.0196 26.8098 57.1428 26.6947 57.3107C26.5835 57.4785 26.499 57.6946 26.4415 57.9589C26.3878 58.2196 26.3609 58.5357 26.3609 58.9072V60.2197C26.3609 60.5769 26.3897 60.8822 26.4472 61.1358C26.5048 61.3894 26.5911 61.5966 26.7062 61.7573C26.8214 61.918 26.9614 62.0376 27.1264 62.1162C27.2952 62.1912 27.489 62.2287 27.7077 62.2287C27.9226 62.2287 28.1125 62.1912 28.2775 62.1162C28.4464 62.0376 28.5864 61.918 28.6977 61.7573C28.809 61.5966 28.8934 61.3894 28.9509 61.1358C29.0085 60.8822 29.0373 60.5769 29.0373 60.2197Z" fill="#FE9F35"></path><path d="M37.8261 58.9179V60.2197C37.8261 60.7697 37.7531 61.2519 37.6073 61.6662C37.4654 62.0769 37.262 62.4216 36.9972 62.7002C36.7363 62.9752 36.4198 63.1823 36.0476 63.3216C35.6792 63.4609 35.2706 63.5306 34.8216 63.5306C34.3727 63.5306 33.9621 63.4609 33.5899 63.3216C33.2216 63.1823 32.9031 62.9752 32.6345 62.7002C32.3698 62.4216 32.1645 62.0769 32.0187 61.6662C31.8729 61.2519 31.7999 60.7697 31.7999 60.2197V58.9179C31.7999 58.3536 31.8709 57.8607 32.0129 57.4392C32.1549 57.0142 32.3602 56.6606 32.6288 56.3785C32.8973 56.0928 33.2158 55.8785 33.5842 55.7356C33.9525 55.5892 34.3612 55.516 34.8101 55.516C35.2591 55.516 35.6677 55.5892 36.0361 55.7356C36.4044 55.8785 36.7229 56.0928 36.9915 56.3785C37.2601 56.6606 37.4654 57.0142 37.6073 57.4392C37.7531 57.8607 37.8261 58.3536 37.8261 58.9179ZM36.1512 60.2197V58.9072C36.1512 58.5357 36.1224 58.2196 36.0648 57.9589C36.0073 57.6946 35.921 57.4785 35.8058 57.3107C35.6907 57.1428 35.5507 57.0196 35.3857 56.941C35.2207 56.8624 35.0288 56.8231 34.8101 56.8231C34.5914 56.8231 34.3976 56.8624 34.2288 56.941C34.0638 57.0196 33.9238 57.1428 33.8086 57.3107C33.6974 57.4785 33.613 57.6946 33.5554 57.9589C33.5017 58.2196 33.4748 58.5357 33.4748 58.9072V60.2197C33.4748 60.5769 33.5036 60.8822 33.5612 61.1358C33.6187 61.3894 33.705 61.5966 33.8202 61.7573C33.9353 61.918 34.0753 62.0376 34.2403 62.1162C34.4091 62.1912 34.6029 62.2287 34.8216 62.2287C35.0365 62.2287 35.2264 62.1912 35.3914 62.1162C35.5603 62.0376 35.7003 61.918 35.8116 61.7573C35.9229 61.5966 36.0073 61.3894 36.0648 61.1358C36.1224 60.8822 36.1512 60.5769 36.1512 60.2197Z" fill="#FE9F35"></path><path d="M41.9068 55.6231V63.4234H40.2319V55.6231H41.9068ZM43.9903 55.6231V56.9249H38.1887V55.6231H43.9903Z" fill="#FE9F35"></path><path d="M48.802 60.8251H50.4768C50.4538 61.4108 50.3272 61.9055 50.097 62.3091C49.8668 62.7091 49.5387 63.0127 49.1128 63.2198C48.6907 63.427 48.1804 63.5306 47.5818 63.5306C47.1175 63.5306 46.705 63.4591 46.3443 63.3163C45.9836 63.1698 45.6767 62.9555 45.4234 62.6734C45.1702 62.3912 44.9783 62.043 44.8479 61.6287C44.7213 61.2108 44.6579 60.7304 44.6579 60.1876V58.8643C44.6579 58.3214 44.7251 57.841 44.8594 57.4232C44.9975 57.0053 45.1932 56.6553 45.4465 56.3731C45.7035 56.0874 46.0124 55.8731 46.3731 55.7302C46.7376 55.5838 47.1482 55.5106 47.6048 55.5106C48.2149 55.5106 48.7252 55.6177 49.1358 55.832C49.5464 56.0463 49.8629 56.3588 50.0855 56.7696C50.3119 57.1767 50.4481 57.675 50.4941 58.2643H48.8135C48.802 57.8928 48.7559 57.6018 48.6753 57.391C48.5986 57.1767 48.4758 57.0267 48.307 56.941C48.1382 56.8517 47.9041 56.8071 47.6048 56.8071C47.3823 56.8071 47.1904 56.8446 47.0292 56.9196C46.8681 56.991 46.7357 57.1071 46.6321 57.2678C46.5285 57.4285 46.4518 57.6393 46.4019 57.9C46.3558 58.1607 46.3328 58.4786 46.3328 58.8536V60.1876C46.3328 60.5554 46.3539 60.8697 46.3961 61.1305C46.4383 61.3876 46.5055 61.5983 46.5976 61.7626C46.6897 61.9269 46.8144 62.0466 46.9717 62.1216C47.1328 62.1966 47.3362 62.2341 47.5818 62.2341C47.8657 62.2341 48.094 62.1948 48.2667 62.1162C48.4432 62.0376 48.5737 61.8966 48.6581 61.693C48.7425 61.4894 48.7905 61.2001 48.802 60.8251Z" fill="#FE9F35"></path><path d="M54.5633 57.016L52.7618 63.4234H50.9833L53.6021 55.6231H54.713L54.5633 57.016ZM55.985 63.4234L54.1719 57.016L54.005 55.6231H55.1331L57.7749 63.4234H55.985ZM56.0483 60.5144V61.8162H52.2668V60.5144H56.0483Z" fill="#FE9F35"></path><path d="M59.1736 55.6231H60.6527L62.3621 60.959L64.0658 55.6231H65.3723L62.9895 63.4234H61.729L59.1736 55.6231ZM58.575 55.6231H59.9851L60.2038 60.7662V63.4234H58.575V55.6231ZM64.7277 55.6231H66.1436V63.4234H64.5205V60.7662L64.7277 55.6231Z" fill="#FE9F35"></path><path d="M70.3739 60.6751H68.6588V59.3733H70.3739C70.6118 59.3733 70.8056 59.3232 70.9552 59.2232C71.1087 59.1232 71.22 58.9857 71.2891 58.8107C71.3581 58.6321 71.3927 58.4321 71.3927 58.2107C71.3927 57.9857 71.3562 57.7768 71.2833 57.5839C71.2142 57.3875 71.1049 57.2285 70.9552 57.1071C70.8094 56.9857 70.6157 56.9249 70.3739 56.9249H69.1998V63.4234H67.5192V55.6231H70.3739C70.938 55.6231 71.4234 55.7338 71.8301 55.9553C72.2368 56.1767 72.5476 56.4821 72.7625 56.8714C72.9812 57.2571 73.0906 57.7 73.0906 58.2C73.0906 58.7036 72.9812 59.1411 72.7625 59.5125C72.5476 59.8804 72.2368 60.1661 71.8301 60.3697C71.4234 60.5733 70.938 60.6751 70.3739 60.6751Z" fill="#FE9F35"></path><path d="M77.7641 61.3715C77.7641 61.2323 77.7507 61.1055 77.7238 60.9912C77.697 60.8769 77.6394 60.7715 77.5512 60.6751C77.4667 60.5787 77.342 60.4822 77.177 60.3858C77.0159 60.2894 76.8049 60.1894 76.5439 60.0858C76.2331 59.9643 75.9319 59.8358 75.6403 59.7C75.3487 59.5608 75.0858 59.4 74.8518 59.2179C74.6177 59.0357 74.4316 58.8214 74.2935 58.575C74.1592 58.325 74.092 58.0321 74.092 57.6964C74.092 57.3678 74.1554 57.0696 74.282 56.8017C74.4124 56.5339 74.5966 56.3053 74.8345 56.116C75.0724 55.9231 75.3506 55.7749 75.6691 55.6713C75.9914 55.5677 76.3502 55.516 76.7454 55.516C77.2826 55.516 77.7468 55.6195 78.1382 55.8267C78.5334 56.0338 78.8385 56.3178 79.0534 56.6785C79.2721 57.0392 79.3814 57.4535 79.3814 57.9214H77.7008C77.7008 57.7 77.6663 57.5053 77.5972 57.3375C77.532 57.166 77.4265 57.0321 77.2806 56.9357C77.1348 56.8392 76.9468 56.791 76.7166 56.791C76.5017 56.791 76.3233 56.8321 76.1813 56.9142C76.0432 56.9928 75.9396 57.1017 75.8705 57.241C75.8053 57.3767 75.7727 57.5303 75.7727 57.7018C75.7727 57.8303 75.8053 57.9464 75.8705 58.05C75.9396 58.15 76.0336 58.2411 76.1525 58.3232C76.2715 58.4018 76.4116 58.4786 76.5727 58.5536C76.7377 58.6286 76.918 58.7018 77.1137 58.7732C77.4936 58.9125 77.8293 59.0661 78.121 59.234C78.4126 59.3983 78.6562 59.584 78.8519 59.7911C79.0476 59.9947 79.1953 60.2251 79.2951 60.4822C79.3949 60.7394 79.4447 61.0322 79.4447 61.3608C79.4447 61.6858 79.3834 61.9823 79.2606 62.2502C79.1416 62.5144 78.967 62.743 78.7368 62.9359C78.5066 63.1252 78.2284 63.2716 77.9023 63.3752C77.5799 63.4788 77.2193 63.5306 76.8202 63.5306C76.4327 63.5306 76.0662 63.4806 75.7209 63.3806C75.3755 63.277 75.0705 63.1216 74.8057 62.9145C74.5448 62.7037 74.3395 62.4377 74.1899 62.1162C74.0402 61.7912 73.9654 61.4073 73.9654 60.9644H75.6518C75.6518 61.2001 75.6768 61.4019 75.7266 61.5698C75.7765 61.7341 75.8533 61.8662 75.9569 61.9662C76.0605 62.0626 76.1871 62.1359 76.3367 62.1859C76.4902 62.2323 76.6648 62.2555 76.8605 62.2555C77.083 62.2555 77.2595 62.2162 77.39 62.1376C77.5243 62.0591 77.6202 61.9537 77.6778 61.8216C77.7353 61.6894 77.7641 61.5394 77.7641 61.3715Z" fill="#FE9F35"></path><path d="M38.275 41.2126H36.5598L36.5541 40.0768H38.016C38.2462 40.0768 38.4342 40.0411 38.58 39.9697C38.7297 39.8947 38.839 39.7857 38.9081 39.6429C38.981 39.4964 39.0175 39.3196 39.0175 39.1125C39.0175 38.8732 38.9848 38.6821 38.9196 38.5392C38.8544 38.3928 38.7489 38.2857 38.6031 38.2178C38.4572 38.1499 38.2673 38.116 38.0333 38.116H37.1354V44.6145H35.449V36.8142H38.0333C38.4515 36.8142 38.8256 36.857 39.1556 36.9428C39.4856 37.0285 39.7657 37.1588 39.9959 37.3338C40.2261 37.5088 40.4007 37.7303 40.5197 37.9982C40.6425 38.266 40.7039 38.5821 40.7039 38.9464C40.7039 39.2678 40.6348 39.5643 40.4966 39.8357C40.3585 40.1072 40.1417 40.3286 39.8463 40.5C39.5546 40.6715 39.1729 40.7679 38.7009 40.7893L38.275 41.2126ZM38.2174 44.6145H36.0821L36.7555 43.318H38.2174C38.44 43.318 38.6203 43.2734 38.7585 43.1841C38.8966 43.0948 38.9964 42.9751 39.0578 42.8251C39.1191 42.6716 39.1498 42.4966 39.1498 42.3001C39.1498 42.0787 39.1211 41.8858 39.0635 41.7215C39.0098 41.5572 38.9196 41.4322 38.793 41.3465C38.6664 41.2572 38.4956 41.2126 38.2807 41.2126H36.8303L36.8418 40.0768H38.6031L39.0002 40.5268C39.4491 40.5125 39.8079 40.5929 40.0765 40.7679C40.3451 40.9393 40.5369 41.1644 40.6521 41.4429C40.771 41.7179 40.8305 42.0108 40.8305 42.3215C40.8305 42.8216 40.7288 43.243 40.5254 43.5859C40.3259 43.9252 40.0324 44.1823 39.6448 44.3573C39.2573 44.5288 38.7815 44.6145 38.2174 44.6145Z" stroke="#FE9F35" stroke-width="0.282353" mask="url(#path-20-outside-1_2090_22940)"></path><path d="M46.8738 43.318V44.6145H43.2306V43.318H46.8738ZM43.7543 36.8142V44.6145H42.0679V36.8142H43.7543ZM46.3846 39.975V41.234H43.2306V39.975H46.3846ZM46.8623 36.8142V38.116H43.2306V36.8142H46.8623Z" stroke="#FE9F35" stroke-width="0.282353" mask="url(#path-20-outside-1_2090_22940)"></path><path d="M51.4035 42.5626C51.4035 42.4233 51.3901 42.2965 51.3632 42.1823C51.3364 42.068 51.2788 41.9626 51.1905 41.8662C51.1061 41.7697 50.9814 41.6733 50.8164 41.5769C50.6553 41.4804 50.4442 41.3804 50.1833 41.2769C49.8725 41.1554 49.5713 41.0268 49.2797 40.8911C48.9881 40.7518 48.7252 40.5911 48.4912 40.409C48.2571 40.2268 48.071 40.0125 47.9329 39.7661C47.7986 39.5161 47.7314 39.2232 47.7314 38.8875C47.7314 38.5589 47.7947 38.2607 47.9214 37.9928C48.0518 37.7249 48.236 37.4963 48.4739 37.3071C48.7118 37.1142 48.99 36.966 49.3085 36.8624C49.6308 36.7588 49.9895 36.707 50.3848 36.707C50.9219 36.707 51.3862 36.8106 51.7776 37.0178C52.1728 37.2249 52.4779 37.5088 52.6927 37.8696C52.9115 38.2303 53.0208 38.6446 53.0208 39.1125H51.3402C51.3402 38.891 51.3057 38.6964 51.2366 38.5285C51.1714 38.3571 51.0658 38.2232 50.92 38.1267C50.7742 38.0303 50.5862 37.9821 50.356 37.9821C50.1411 37.9821 49.9627 38.0232 49.8207 38.1053C49.6826 38.1839 49.579 38.2928 49.5099 38.4321C49.4447 38.5678 49.4121 38.7214 49.4121 38.8928C49.4121 39.0214 49.4447 39.1375 49.5099 39.2411C49.579 39.3411 49.673 39.4321 49.7919 39.5143C49.9109 39.5929 50.0509 39.6697 50.2121 39.7447C50.3771 39.8197 50.5574 39.8929 50.7531 39.9643C51.133 40.1036 51.4687 40.2572 51.7603 40.425C52.052 40.5893 52.2956 40.7751 52.4913 40.9822C52.687 41.1858 52.8347 41.4161 52.9345 41.6733C53.0343 41.9305 53.0841 42.2233 53.0841 42.5519C53.0841 42.8769 53.0227 43.1734 52.9 43.4412C52.781 43.7055 52.6064 43.9341 52.3762 44.127C52.146 44.3163 51.8678 44.4627 51.5416 44.5663C51.2193 44.6699 50.8586 44.7216 50.4596 44.7216C50.072 44.7216 49.7056 44.6716 49.3603 44.5716C49.0149 44.4681 48.7099 44.3127 48.4451 44.1055C48.1842 43.8948 47.9789 43.6287 47.8293 43.3073C47.6796 42.9823 47.6048 42.5983 47.6048 42.1555H49.2912C49.2912 42.3912 49.3161 42.593 49.366 42.7608C49.4159 42.9251 49.4926 43.0573 49.5962 43.1573C49.6998 43.2537 49.8265 43.3269 49.9761 43.3769C50.1296 43.4234 50.3042 43.4466 50.4999 43.4466C50.7224 43.4466 50.8989 43.4073 51.0294 43.3287C51.1637 43.2502 51.2596 43.1448 51.3172 43.0126C51.3747 42.8805 51.4035 42.7305 51.4035 42.5626Z" stroke="#FE9F35" stroke-width="0.282353" mask="url(#path-20-outside-1_2090_22940)"></path><path d="M57.562 36.8142V44.6145H55.8871V36.8142H57.562ZM59.6455 36.8142V38.116H53.8439V36.8142H59.6455Z" stroke="#FE9F35" stroke-width="0.282353" mask="url(#path-20-outside-1_2090_22940)"></path><path d="M16.5016 54.019H15.0224L15.0339 52.7225H16.5016C16.9083 52.7225 17.2249 52.6546 17.4513 52.5189C17.6776 52.3832 17.8369 52.1689 17.929 51.876C18.0249 51.5831 18.0729 51.1992 18.0729 50.7242V49.5081C18.0729 49.1473 18.0479 48.842 17.998 48.5919C17.9482 48.3384 17.8637 48.1348 17.7448 47.9812C17.6258 47.8241 17.4666 47.708 17.2671 47.633C17.0675 47.558 16.8201 47.5205 16.5246 47.5205H14.9936V46.2186H16.5246C17.0081 46.2186 17.4474 46.2919 17.8426 46.4383C18.2378 46.5847 18.5774 46.799 18.8614 47.0812C19.1453 47.3598 19.364 47.7044 19.5175 48.1151C19.671 48.5259 19.7477 48.9938 19.7477 49.5188V50.7242C19.7477 51.2528 19.671 51.7206 19.5175 52.1278C19.364 52.535 19.1453 52.8796 18.8614 53.1618C18.5813 53.4404 18.2417 53.6529 17.8426 53.7993C17.4436 53.9457 16.9966 54.019 16.5016 54.019ZM16.0008 46.2186V54.019H14.3145V46.2186H16.0008Z" stroke="#FE9F35" stroke-width="0.282353" mask="url(#path-20-outside-1_2090_22940)"></path><path d="M23.886 47.6116L22.0845 54.019H20.306L22.9248 46.2186H24.0357L23.886 47.6116ZM25.3076 54.019L23.4946 47.6116L23.3277 46.2186H24.4558L27.0976 54.019H25.3076ZM25.3709 51.1099V52.4117H21.5895V51.1099H25.3709Z" stroke="#FE9F35" stroke-width="0.282353" mask="url(#path-20-outside-1_2090_22940)"></path><path d="M30.5452 46.2186V54.019H28.8703V46.2186H30.5452ZM32.6288 46.2186V47.5205H26.8271V46.2186H32.6288Z" stroke="#FE9F35" stroke-width="0.282353" mask="url(#path-20-outside-1_2090_22940)"></path><path d="M35.9497 47.6116L34.1482 54.019H32.3698L34.9885 46.2186H36.0994L35.9497 47.6116ZM37.3714 54.019L35.5583 47.6116L35.3914 46.2186H36.5195L39.1614 54.019H37.3714ZM37.4347 51.1099V52.4117H33.6532V51.1099H37.4347Z" stroke="#FE9F35" stroke-width="0.282353" mask="url(#path-20-outside-1_2090_22940)"></path><path d="M46.2235 51.9671C46.2235 51.8278 46.21 51.701 46.1832 51.5867C46.1563 51.4724 46.0988 51.3671 46.0105 51.2706C45.9261 51.1742 45.8014 51.0778 45.6364 50.9813C45.4752 50.8849 45.2642 50.7849 45.0033 50.6813C44.6925 50.5599 44.3913 50.4313 44.0996 50.2956C43.808 50.1563 43.5452 49.9956 43.3111 49.8134C43.0771 49.6313 42.891 49.417 42.7528 49.1705C42.6185 48.9205 42.5514 48.6277 42.5514 48.2919C42.5514 47.9634 42.6147 47.6651 42.7413 47.3973C42.8718 47.1294 43.056 46.9008 43.2939 46.7115C43.5318 46.5187 43.81 46.3704 44.1284 46.2669C44.4507 46.1633 44.8095 46.1115 45.2047 46.1115C45.7419 46.1115 46.2062 46.2151 46.5976 46.4222C46.9928 46.6294 47.2978 46.9133 47.5127 47.274C47.7314 47.6348 47.8408 48.0491 47.8408 48.5169H46.1602C46.1602 48.2955 46.1256 48.1009 46.0566 47.933C45.9913 47.7616 45.8858 47.6276 45.74 47.5312C45.5942 47.4348 45.4062 47.3865 45.1759 47.3865C44.9611 47.3865 44.7826 47.4276 44.6407 47.5098C44.5025 47.5883 44.3989 47.6973 44.3299 47.8366C44.2646 47.9723 44.232 48.1259 44.232 48.2973C44.232 48.4259 44.2646 48.5419 44.3299 48.6455C44.3989 48.7455 44.4929 48.8366 44.6119 48.9187C44.7308 48.9973 44.8709 49.0741 45.0321 49.1491C45.197 49.2241 45.3774 49.2973 45.5731 49.3688C45.9529 49.5081 46.2887 49.6616 46.5803 49.8295C46.8719 49.9938 47.1156 50.1795 47.3113 50.3867C47.507 50.5902 47.6547 50.8206 47.7545 51.0778C47.8542 51.3349 47.9041 51.6278 47.9041 51.9564C47.9041 52.2814 47.8427 52.5778 47.7199 52.8457C47.601 53.11 47.4264 53.3386 47.1962 53.5314C46.9659 53.7207 46.6877 53.8672 46.3616 53.9707C46.0393 54.0743 45.6786 54.1261 45.2795 54.1261C44.892 54.1261 44.5256 54.0761 44.1802 53.9761C43.8349 53.8725 43.5298 53.7172 43.2651 53.51C43.0042 53.2993 42.7989 53.0332 42.6492 52.7118C42.4996 52.3867 42.4248 52.0028 42.4248 51.5599H44.1112C44.1112 51.7956 44.1361 51.9974 44.186 52.1653C44.2359 52.3296 44.3126 52.4617 44.4162 52.5618C44.5198 52.6582 44.6464 52.7314 44.7961 52.7814C44.9496 52.8278 45.1241 52.851 45.3198 52.851C45.5424 52.851 45.7189 52.8118 45.8493 52.7332C45.9836 52.6546 46.0796 52.5493 46.1371 52.4171C46.1947 52.285 46.2235 52.1349 46.2235 51.9671Z" stroke="#FE9F35" stroke-width="0.282353" mask="url(#path-20-outside-1_2090_22940)"></path><path d="M53.0381 51.4206H54.713C54.6899 52.0064 54.5633 52.501 54.3331 52.9046C54.1029 53.3046 53.7748 53.6082 53.3489 53.8154C52.9268 54.0225 52.4165 54.1261 51.8179 54.1261C51.3536 54.1261 50.9411 54.0547 50.5804 53.9118C50.2198 53.7654 49.9128 53.5511 49.6596 53.2689C49.4063 52.9868 49.2145 52.6385 49.084 52.2242C48.9574 51.8064 48.8941 51.326 48.8941 50.7831V49.4598C48.8941 48.917 48.9612 48.4366 49.0955 48.0187C49.2336 47.6008 49.4293 47.2508 49.6826 46.9687C49.9397 46.6829 50.2485 46.4686 50.6092 46.3258C50.9737 46.1794 51.3843 46.1061 51.8409 46.1061C52.451 46.1061 52.9613 46.2133 53.3719 46.4276C53.7825 46.6419 54.099 46.9544 54.3216 47.3651C54.548 47.7723 54.6842 48.2705 54.7302 48.8598H53.0496C53.0381 48.4884 52.992 48.1973 52.9115 47.9866C52.8347 47.7723 52.7119 47.6223 52.5431 47.5365C52.3743 47.4473 52.1402 47.4026 51.8409 47.4026C51.6184 47.4026 51.4265 47.4401 51.2654 47.5151C51.1042 47.5866 50.9718 47.7026 50.8682 47.8633C50.7646 48.0241 50.6879 48.2348 50.638 48.4955C50.592 48.7562 50.5689 49.0741 50.5689 49.4491V50.7831C50.5689 51.151 50.59 51.4653 50.6322 51.726C50.6745 51.9832 50.7416 52.1939 50.8337 52.3582C50.9258 52.5225 51.0505 52.6421 51.2078 52.7171C51.369 52.7921 51.5723 52.8296 51.8179 52.8296C52.1018 52.8296 52.3301 52.7903 52.5028 52.7118C52.6793 52.6332 52.8098 52.4921 52.8942 52.2885C52.9786 52.0849 53.0266 51.7956 53.0381 51.4206Z" stroke="#FE9F35" stroke-width="0.282353" mask="url(#path-20-outside-1_2090_22940)"></path><path d="M57.5159 46.2186V54.019H55.8411V46.2186H57.5159Z" stroke="#FE9F35" stroke-width="0.282353" mask="url(#path-20-outside-1_2090_22940)"></path><path d="M63.7608 52.7225V54.019H60.1175V52.7225H63.7608ZM60.6412 46.2186V54.019H58.9548V46.2186H60.6412ZM63.2715 49.3795V50.6385H60.1175V49.3795H63.2715ZM63.7492 46.2186V47.5205H60.1175V46.2186H63.7492Z" stroke="#FE9F35" stroke-width="0.282353" mask="url(#path-20-outside-1_2090_22940)"></path><path d="M70.6042 46.2186V54.019H68.9753L66.345 49.1384V54.019H64.745V46.2186H66.3508L69.0041 51.1528V46.2186H70.6042Z" stroke="#FE9F35" stroke-width="0.282353" mask="url(#path-20-outside-1_2090_22940)"></path><path d="M75.9569 51.4206H77.6317C77.6087 52.0064 77.4821 52.501 77.2519 52.9046C77.0216 53.3046 76.6936 53.6082 76.2677 53.8154C75.8456 54.0225 75.3353 54.1261 74.7367 54.1261C74.2724 54.1261 73.8599 54.0547 73.4992 53.9118C73.1385 53.7654 72.8316 53.5511 72.5783 53.2689C72.3251 52.9868 72.1332 52.6385 72.0028 52.2242C71.8761 51.8064 71.8128 51.326 71.8128 50.7831V49.4598C71.8128 48.917 71.88 48.4366 72.0143 48.0187C72.1524 47.6008 72.3481 47.2508 72.6013 46.9687C72.8584 46.6829 73.1673 46.4686 73.528 46.3258C73.8925 46.1794 74.3031 46.1061 74.7597 46.1061C75.3698 46.1061 75.8801 46.2133 76.2907 46.4276C76.7013 46.6419 77.0178 46.9544 77.2404 47.3651C77.4667 47.7723 77.603 48.2705 77.649 48.8598H75.9684C75.9569 48.4884 75.9108 48.1973 75.8302 47.9866C75.7535 47.7723 75.6307 47.6223 75.4619 47.5365C75.293 47.4473 75.059 47.4026 74.7597 47.4026C74.5371 47.4026 74.3453 47.4401 74.1841 47.5151C74.023 47.5866 73.8906 47.7026 73.787 47.8633C73.6834 48.0241 73.6067 48.2348 73.5568 48.4955C73.5107 48.7562 73.4877 49.0741 73.4877 49.4491V50.7831C73.4877 51.151 73.5088 51.4653 73.551 51.726C73.5932 51.9832 73.6604 52.1939 73.7525 52.3582C73.8446 52.5225 73.9693 52.6421 74.1266 52.7171C74.2877 52.7921 74.4911 52.8296 74.7367 52.8296C75.0206 52.8296 75.2489 52.7903 75.4216 52.7118C75.5981 52.6332 75.7286 52.4921 75.813 52.2885C75.8974 52.0849 75.9454 51.7956 75.9569 51.4206Z" stroke="#FE9F35" stroke-width="0.282353" mask="url(#path-20-outside-1_2090_22940)"></path><path d="M83.4909 52.7225V54.019H79.8476V52.7225H83.4909ZM80.3714 46.2186V54.019H78.685V46.2186H80.3714ZM83.0017 49.3795V50.6385H79.8476V49.3795H83.0017ZM83.4794 46.2186V47.5205H79.8476V46.2186H83.4794Z" stroke="#FE9F35" stroke-width="0.282353" mask="url(#path-20-outside-1_2090_22940)"></path><path d="M21.0312 60.0215H19.3161L19.3103 58.8857H20.7722C21.0025 58.8857 21.1905 58.85 21.3363 58.7786C21.4859 58.7036 21.5953 58.5946 21.6643 58.4518C21.7372 58.3054 21.7737 58.1286 21.7737 57.9214C21.7737 57.6821 21.7411 57.491 21.6759 57.3482C21.6106 57.2017 21.5051 57.0946 21.3593 57.0267C21.2135 56.9589 21.0236 56.9249 20.7895 56.9249H19.8916V63.4234H18.2052V55.6231H20.7895C21.2077 55.6231 21.5818 55.666 21.9118 55.7517C22.2418 55.8374 22.5219 55.9678 22.7522 56.1428C22.9824 56.3178 23.157 56.5392 23.2759 56.8071C23.3987 57.0749 23.4601 57.391 23.4601 57.7553C23.4601 58.0768 23.391 58.3732 23.2529 58.6447C23.1148 58.9161 22.898 59.1375 22.6025 59.309C22.3109 59.4804 21.9291 59.5768 21.4571 59.5983L21.0312 60.0215ZM20.9737 63.4234H18.8383L19.5118 62.1269H20.9737C21.1962 62.1269 21.3766 62.0823 21.5147 61.993C21.6528 61.9037 21.7526 61.7841 21.814 61.6341C21.8754 61.4805 21.9061 61.3055 21.9061 61.109C21.9061 60.8876 21.8773 60.6947 21.8197 60.5304C21.766 60.3661 21.6759 60.2411 21.5492 60.1554C21.4226 60.0661 21.2519 60.0215 21.037 60.0215H19.5866L19.5981 58.8857H21.3593L21.7564 59.3357C22.2054 59.3215 22.5641 59.4018 22.8327 59.5768C23.1013 59.7483 23.2932 59.9733 23.4083 60.2519C23.5272 60.5269 23.5867 60.8197 23.5867 61.1305C23.5867 61.6305 23.485 62.0519 23.2817 62.3948C23.0821 62.7341 22.7886 62.9913 22.4011 63.1663C22.0135 63.3377 21.5377 63.4234 20.9737 63.4234Z" stroke="#FE9F35" stroke-width="0.282353" mask="url(#path-20-outside-1_2090_22940)"></path><path d="M30.7121 58.9179V60.2197C30.7121 60.7697 30.6392 61.2519 30.4934 61.6662C30.3515 62.0769 30.1481 62.4216 29.8833 62.7002C29.6224 62.9752 29.3059 63.1823 28.9337 63.3216C28.5653 63.4609 28.1567 63.5306 27.7077 63.5306C27.2588 63.5306 26.8482 63.4609 26.476 63.3216C26.1077 63.1823 25.7892 62.9752 25.5206 62.7002C25.2558 62.4216 25.0506 62.0769 24.9047 61.6662C24.7589 61.2519 24.686 60.7697 24.686 60.2197V58.9179C24.686 58.3536 24.757 57.8607 24.899 57.4392C25.041 57.0142 25.2462 56.6606 25.5148 56.3785C25.7834 56.0928 26.1019 55.8785 26.4703 55.7356C26.8386 55.5892 27.2473 55.516 27.6962 55.516C28.1451 55.516 28.5538 55.5892 28.9221 55.7356C29.2905 55.8785 29.609 56.0928 29.8776 56.3785C30.1462 56.6606 30.3515 57.0142 30.4934 57.4392C30.6392 57.8607 30.7121 58.3536 30.7121 58.9179ZM29.0373 60.2197V58.9072C29.0373 58.5357 29.0085 58.2196 28.9509 57.9589C28.8934 57.6946 28.807 57.4785 28.6919 57.3107C28.5768 57.1428 28.4368 57.0196 28.2718 56.941C28.1068 56.8624 27.9149 56.8231 27.6962 56.8231C27.4775 56.8231 27.2837 56.8624 27.1149 56.941C26.9499 57.0196 26.8098 57.1428 26.6947 57.3107C26.5835 57.4785 26.499 57.6946 26.4415 57.9589C26.3878 58.2196 26.3609 58.5357 26.3609 58.9072V60.2197C26.3609 60.5769 26.3897 60.8822 26.4472 61.1358C26.5048 61.3894 26.5911 61.5966 26.7062 61.7573C26.8214 61.918 26.9614 62.0376 27.1264 62.1162C27.2952 62.1912 27.489 62.2287 27.7077 62.2287C27.9226 62.2287 28.1125 62.1912 28.2775 62.1162C28.4464 62.0376 28.5864 61.918 28.6977 61.7573C28.809 61.5966 28.8934 61.3894 28.9509 61.1358C29.0085 60.8822 29.0373 60.5769 29.0373 60.2197Z" stroke="#FE9F35" stroke-width="0.282353" mask="url(#path-20-outside-1_2090_22940)"></path><path d="M37.8261 58.9179V60.2197C37.8261 60.7697 37.7531 61.2519 37.6073 61.6662C37.4654 62.0769 37.262 62.4216 36.9972 62.7002C36.7363 62.9752 36.4198 63.1823 36.0476 63.3216C35.6792 63.4609 35.2706 63.5306 34.8216 63.5306C34.3727 63.5306 33.9621 63.4609 33.5899 63.3216C33.2216 63.1823 32.9031 62.9752 32.6345 62.7002C32.3698 62.4216 32.1645 62.0769 32.0187 61.6662C31.8729 61.2519 31.7999 60.7697 31.7999 60.2197V58.9179C31.7999 58.3536 31.8709 57.8607 32.0129 57.4392C32.1549 57.0142 32.3602 56.6606 32.6288 56.3785C32.8973 56.0928 33.2158 55.8785 33.5842 55.7356C33.9525 55.5892 34.3612 55.516 34.8101 55.516C35.2591 55.516 35.6677 55.5892 36.0361 55.7356C36.4044 55.8785 36.7229 56.0928 36.9915 56.3785C37.2601 56.6606 37.4654 57.0142 37.6073 57.4392C37.7531 57.8607 37.8261 58.3536 37.8261 58.9179ZM36.1512 60.2197V58.9072C36.1512 58.5357 36.1224 58.2196 36.0648 57.9589C36.0073 57.6946 35.921 57.4785 35.8058 57.3107C35.6907 57.1428 35.5507 57.0196 35.3857 56.941C35.2207 56.8624 35.0288 56.8231 34.8101 56.8231C34.5914 56.8231 34.3976 56.8624 34.2288 56.941C34.0638 57.0196 33.9238 57.1428 33.8086 57.3107C33.6974 57.4785 33.613 57.6946 33.5554 57.9589C33.5017 58.2196 33.4748 58.5357 33.4748 58.9072V60.2197C33.4748 60.5769 33.5036 60.8822 33.5612 61.1358C33.6187 61.3894 33.705 61.5966 33.8202 61.7573C33.9353 61.918 34.0753 62.0376 34.2403 62.1162C34.4091 62.1912 34.6029 62.2287 34.8216 62.2287C35.0365 62.2287 35.2264 62.1912 35.3914 62.1162C35.5603 62.0376 35.7003 61.918 35.8116 61.7573C35.9229 61.5966 36.0073 61.3894 36.0648 61.1358C36.1224 60.8822 36.1512 60.5769 36.1512 60.2197Z" stroke="#FE9F35" stroke-width="0.282353" mask="url(#path-20-outside-1_2090_22940)"></path><path d="M41.9068 55.6231V63.4234H40.2319V55.6231H41.9068ZM43.9903 55.6231V56.9249H38.1887V55.6231H43.9903Z" stroke="#FE9F35" stroke-width="0.282353" mask="url(#path-20-outside-1_2090_22940)"></path><path d="M48.802 60.8251H50.4768C50.4538 61.4108 50.3272 61.9055 50.097 62.3091C49.8668 62.7091 49.5387 63.0127 49.1128 63.2198C48.6907 63.427 48.1804 63.5306 47.5818 63.5306C47.1175 63.5306 46.705 63.4591 46.3443 63.3163C45.9836 63.1698 45.6767 62.9555 45.4234 62.6734C45.1702 62.3912 44.9783 62.043 44.8479 61.6287C44.7213 61.2108 44.6579 60.7304 44.6579 60.1876V58.8643C44.6579 58.3214 44.7251 57.841 44.8594 57.4232C44.9975 57.0053 45.1932 56.6553 45.4465 56.3731C45.7035 56.0874 46.0124 55.8731 46.3731 55.7302C46.7376 55.5838 47.1482 55.5106 47.6048 55.5106C48.2149 55.5106 48.7252 55.6177 49.1358 55.832C49.5464 56.0463 49.8629 56.3588 50.0855 56.7696C50.3119 57.1767 50.4481 57.675 50.4941 58.2643H48.8135C48.802 57.8928 48.7559 57.6018 48.6753 57.391C48.5986 57.1767 48.4758 57.0267 48.307 56.941C48.1382 56.8517 47.9041 56.8071 47.6048 56.8071C47.3823 56.8071 47.1904 56.8446 47.0292 56.9196C46.8681 56.991 46.7357 57.1071 46.6321 57.2678C46.5285 57.4285 46.4518 57.6393 46.4019 57.9C46.3558 58.1607 46.3328 58.4786 46.3328 58.8536V60.1876C46.3328 60.5554 46.3539 60.8697 46.3961 61.1305C46.4383 61.3876 46.5055 61.5983 46.5976 61.7626C46.6897 61.9269 46.8144 62.0466 46.9717 62.1216C47.1328 62.1966 47.3362 62.2341 47.5818 62.2341C47.8657 62.2341 48.094 62.1948 48.2667 62.1162C48.4432 62.0376 48.5737 61.8966 48.6581 61.693C48.7425 61.4894 48.7905 61.2001 48.802 60.8251Z" stroke="#FE9F35" stroke-width="0.282353" mask="url(#path-20-outside-1_2090_22940)"></path><path d="M54.5633 57.016L52.7618 63.4234H50.9833L53.6021 55.6231H54.713L54.5633 57.016ZM55.985 63.4234L54.1719 57.016L54.005 55.6231H55.1331L57.7749 63.4234H55.985ZM56.0483 60.5144V61.8162H52.2668V60.5144H56.0483Z" stroke="#FE9F35" stroke-width="0.282353" mask="url(#path-20-outside-1_2090_22940)"></path><path d="M59.1736 55.6231H60.6527L62.3621 60.959L64.0658 55.6231H65.3723L62.9895 63.4234H61.729L59.1736 55.6231ZM58.575 55.6231H59.9851L60.2038 60.7662V63.4234H58.575V55.6231ZM64.7277 55.6231H66.1436V63.4234H64.5205V60.7662L64.7277 55.6231Z" stroke="#FE9F35" stroke-width="0.282353" mask="url(#path-20-outside-1_2090_22940)"></path><path d="M70.3739 60.6751H68.6588V59.3733H70.3739C70.6118 59.3733 70.8056 59.3232 70.9552 59.2232C71.1087 59.1232 71.22 58.9857 71.2891 58.8107C71.3581 58.6321 71.3927 58.4321 71.3927 58.2107C71.3927 57.9857 71.3562 57.7768 71.2833 57.5839C71.2142 57.3875 71.1049 57.2285 70.9552 57.1071C70.8094 56.9857 70.6157 56.9249 70.3739 56.9249H69.1998V63.4234H67.5192V55.6231H70.3739C70.938 55.6231 71.4234 55.7338 71.8301 55.9553C72.2368 56.1767 72.5476 56.4821 72.7625 56.8714C72.9812 57.2571 73.0906 57.7 73.0906 58.2C73.0906 58.7036 72.9812 59.1411 72.7625 59.5125C72.5476 59.8804 72.2368 60.1661 71.8301 60.3697C71.4234 60.5733 70.938 60.6751 70.3739 60.6751Z" stroke="#FE9F35" stroke-width="0.282353" mask="url(#path-20-outside-1_2090_22940)"></path><path d="M77.7641 61.3715C77.7641 61.2323 77.7507 61.1055 77.7238 60.9912C77.697 60.8769 77.6394 60.7715 77.5512 60.6751C77.4667 60.5787 77.342 60.4822 77.177 60.3858C77.0159 60.2894 76.8049 60.1894 76.5439 60.0858C76.2331 59.9643 75.9319 59.8358 75.6403 59.7C75.3487 59.5608 75.0858 59.4 74.8518 59.2179C74.6177 59.0357 74.4316 58.8214 74.2935 58.575C74.1592 58.325 74.092 58.0321 74.092 57.6964C74.092 57.3678 74.1554 57.0696 74.282 56.8017C74.4124 56.5339 74.5966 56.3053 74.8345 56.116C75.0724 55.9231 75.3506 55.7749 75.6691 55.6713C75.9914 55.5677 76.3502 55.516 76.7454 55.516C77.2826 55.516 77.7468 55.6195 78.1382 55.8267C78.5334 56.0338 78.8385 56.3178 79.0534 56.6785C79.2721 57.0392 79.3814 57.4535 79.3814 57.9214H77.7008C77.7008 57.7 77.6663 57.5053 77.5972 57.3375C77.532 57.166 77.4265 57.0321 77.2806 56.9357C77.1348 56.8392 76.9468 56.791 76.7166 56.791C76.5017 56.791 76.3233 56.8321 76.1813 56.9142C76.0432 56.9928 75.9396 57.1017 75.8705 57.241C75.8053 57.3767 75.7727 57.5303 75.7727 57.7018C75.7727 57.8303 75.8053 57.9464 75.8705 58.05C75.9396 58.15 76.0336 58.2411 76.1525 58.3232C76.2715 58.4018 76.4116 58.4786 76.5727 58.5536C76.7377 58.6286 76.918 58.7018 77.1137 58.7732C77.4936 58.9125 77.8293 59.0661 78.121 59.234C78.4126 59.3983 78.6562 59.584 78.8519 59.7911C79.0476 59.9947 79.1953 60.2251 79.2951 60.4822C79.3949 60.7394 79.4447 61.0322 79.4447 61.3608C79.4447 61.6858 79.3834 61.9823 79.2606 62.2502C79.1416 62.5144 78.967 62.743 78.7368 62.9359C78.5066 63.1252 78.2284 63.2716 77.9023 63.3752C77.5799 63.4788 77.2193 63.5306 76.8202 63.5306C76.4327 63.5306 76.0662 63.4806 75.7209 63.3806C75.3755 63.277 75.0705 63.1216 74.8057 62.9145C74.5448 62.7037 74.3395 62.4377 74.1899 62.1162C74.0402 61.7912 73.9654 61.4073 73.9654 60.9644H75.6518C75.6518 61.2001 75.6768 61.4019 75.7266 61.5698C75.7765 61.7341 75.8533 61.8662 75.9569 61.9662C76.0605 62.0626 76.1871 62.1359 76.3367 62.1859C76.4902 62.2323 76.6648 62.2555 76.8605 62.2555C77.083 62.2555 77.2595 62.2162 77.39 62.1376C77.5243 62.0591 77.6202 61.9537 77.6778 61.8216C77.7353 61.6894 77.7641 61.5394 77.7641 61.3715Z" stroke="#FE9F35" stroke-width="0.282353" mask="url(#path-20-outside-1_2090_22940)"></path></g><defs><clipPath id="clip0_2090_22940"><rect width="96" height="96" fill="white" transform="translate(0.197266)"></rect></clipPath></defs></svg> 