<?xml version="1.0" encoding="UTF-8"?> <svg xmlns="http://www.w3.org/2000/svg" width="27" height="19" viewBox="0 0 27 19" fill="none"><g clip-path="url(#clip0_452_8648)"><path d="M20.4762 10.5132C20.5135 10.3613 20.5498 10.2195 20.5677 10.055C20.7302 8.56419 19.6058 7.23484 18.115 7.07238L14.9789 6.73066C13.1488 6.53123 11.4222 7.1962 10.1991 8.39462C10.1182 8.46903 9.98908 8.41334 10.0014 8.30024L10.1672 6.77853C10.3252 5.32881 11.6249 4.2844 13.0746 4.44238L18.8634 5.07318C20.5805 5.26028 21.8822 6.77542 21.7363 8.49696C21.6638 9.35258 21.2601 10.0993 20.6627 10.6168C20.5818 10.6912 20.4444 10.6138 20.4773 10.5029L20.4762 10.5132Z" fill="#F2F1EE"></path><path d="M22.5777 9.84753C22.7186 9.50915 22.8113 9.1343 22.8528 8.75388C23.1333 6.37076 21.3515 4.19987 18.9661 3.93994L13.1875 3.31026C12.2622 3.20943 11.3719 3.45575 10.6523 3.94954C10.5736 4.00339 10.4673 3.92939 10.4762 3.84714L10.5031 3.60036C10.6611 2.15063 11.9608 1.10623 13.4105 1.26421L19.7237 1.95215C22.3353 2.23673 24.2887 4.55116 24.0339 7.17637C23.9254 8.26735 23.4661 9.23685 22.7721 9.97272C22.6889 10.0677 22.5331 9.96752 22.5877 9.84862L22.5777 9.84753Z" fill="#F2F1EE"></path><path d="M9.05833 3.68222C9.04824 3.77476 8.92849 3.82411 8.86436 3.7443C8.26794 3.1071 7.4514 2.67479 6.52603 2.57396L1.88888 2.06866C1.82719 2.06193 1.78152 2.00495 1.78825 1.94326L1.98767 0.113115C1.9944 0.051425 2.05127 0.00558667 2.11296 0.0123091L6.7501 0.517609C8.19985 0.675585 9.24431 1.97545 9.08634 3.42518L9.05833 3.68222Z" fill="#F2F1EE"></path><path d="M23.3459 11.2941C23.2261 11.3435 23.1288 11.1872 23.2212 11.1037C24.27 10.1672 24.9856 8.85102 25.1503 7.3396C25.315 5.82819 24.8996 4.38884 24.0771 3.24843C24.005 3.14693 24.1336 3.01529 24.24 3.0893C25.559 4.06534 26.338 5.70039 26.1476 7.44828C25.9571 9.19617 24.8442 10.6251 23.3459 11.2941Z" fill="#F2F1EE"></path><path d="M4.62741 16.3706C4.56572 16.3639 4.5198 16.3069 4.52652 16.2452L5.20547 10.0144C5.24917 9.61345 5.24043 9.21716 5.17683 8.84609C5.15942 8.71935 5.32144 8.66418 5.3925 8.77596C5.90258 9.63264 6.14452 10.6578 6.02801 11.7271L5.52271 16.3641C5.51599 16.4258 5.45912 16.4716 5.39743 16.4649L4.63658 16.382L4.62741 16.3706Z" fill="#F2F1EE"></path><path d="M2.49896 16.1387C2.43727 16.132 2.39161 16.075 2.39833 16.0133L3.25093 8.18889C3.26774 8.03467 3.2731 7.88961 3.25794 7.7423C3.2497 7.62696 3.40143 7.57064 3.46332 7.67102C3.9158 8.29253 4.15281 9.07786 4.06318 9.90039L3.38423 16.1311C3.3775 16.1928 3.32038 16.2386 3.25869 16.2319L2.49784 16.149L2.49896 16.1387Z" fill="#F2F1EE"></path><path d="M8.57208 8.14449C8.56088 8.2473 8.42166 8.28416 8.35865 8.19406C7.42246 6.76036 5.87959 5.73912 4.04942 5.53969L1.54044 5.26629C1.47875 5.25957 1.43309 5.20256 1.43981 5.14087L1.63924 3.31072C1.64596 3.24903 1.70283 3.20322 1.76452 3.20994L6.40166 3.71524C7.85141 3.87322 8.89587 5.17306 8.7379 6.62278L8.57208 8.14449Z" fill="#F2F1EE"></path><path d="M7.1603 11.8401C7.32499 10.3287 6.90966 8.88927 6.08717 7.74886C6.01499 7.64737 6.14367 7.51572 6.25005 7.58973C7.56904 8.56577 8.34807 10.2008 8.15761 11.9487L7.81029 15.1361C7.74531 15.7324 7.34994 16.2095 6.83756 16.4242C6.76111 16.4574 6.67426 16.396 6.68434 16.3035L7.17059 11.8412L7.1603 11.8401Z" fill="#F2F1EE"></path><path d="M15.2579 9.03948C15.2205 9.19147 15.1842 9.33315 15.1663 9.49766C15.0039 10.9885 16.1282 12.3179 17.6191 12.4803L20.7551 12.8221C22.5853 13.0215 24.3121 12.3566 25.5352 11.1581C25.6161 11.0837 25.7452 11.1394 25.7329 11.2525L25.5671 12.7742C25.4091 14.2239 24.1092 15.2683 22.6595 15.1103L16.8709 14.4796C15.1538 14.2925 13.8518 12.7773 13.9978 11.0558C14.0702 10.2001 14.4742 9.45345 15.0716 8.93593C15.1525 8.86152 15.2897 8.93892 15.2568 9.04978L15.2579 9.03948Z" fill="#F2F1EE"></path><path d="M13.1464 9.70413C13.0055 10.0425 12.9124 10.4173 12.871 10.7978C12.5905 13.1809 14.3723 15.3518 16.7577 15.6117L22.5362 16.2414C23.4616 16.3422 24.3521 16.0959 25.0718 15.6021C25.1505 15.5483 25.2568 15.6223 25.2478 15.7045L25.2209 15.9513C25.0629 17.401 23.763 18.4454 22.3133 18.2874L16.0003 17.5995C13.3887 17.3149 11.4351 15.0005 11.6899 12.3753C11.7984 11.2843 12.258 10.3148 12.952 9.57894C13.0352 9.48396 13.1907 9.58411 13.1361 9.70301L13.1464 9.70413Z" fill="#F2F1EE"></path><path d="M12.3779 8.25748C12.4978 8.20811 12.5953 8.36441 12.503 8.44798C11.4542 9.38448 10.7386 10.7006 10.5739 12.212C10.4092 13.7235 10.8245 15.1628 11.647 16.3032C11.7192 16.4047 11.5903 16.5363 11.4839 16.4623C10.1649 15.4863 9.38611 13.8513 9.57657 12.1034C9.76704 10.3555 10.8797 8.92652 12.3779 8.25748Z" fill="#F2F1EE"></path></g><defs><clipPath id="clip0_452_8648"><rect width="25" height="16" fill="white" transform="translate(2) rotate(6.21887)"></rect></clipPath></defs></svg> 