<?xml version="1.0" encoding="UTF-8"?> <svg xmlns="http://www.w3.org/2000/svg" width="190" height="32" fill="none"><g fill="#1A1A1A" clip-path="url(#a)"><path d="M96.4 25.8h2l1.9-4.2h6.7l1.9 4.2h2l-6.5-14.5h-1.6l-6.4 14.5Zm4.6-6 2.6-5.9 2.7 6H101Zm11.9 6h4.1c4.5 0 7.7-3 7.7-7.2s-3.2-7.3-7.7-7.3H113v14.5Zm1.9-1.8V13.1h2.2c3.5 0 5.8 2.3 5.8 5.5 0 3.1-2.3 5.4-5.8 5.4h-2.2Zm16.7 1.8h1.6l6.2-14.5h-2l-5 11.5-4.8-11.5h-2.1l6.1 14.5Zm10 0h1.8V11.3h-1.9v14.5Zm4.5-2.3c.7 1.4 2.7 2.6 5 2.6 2.7 0 4.7-1.6 4.7-4 0-2.2-1.3-3.4-3.4-4.2l-1.8-.7c-1.4-.6-2.1-1.1-2.1-2.3 0-1.2 1.1-2 2.6-2 1.2 0 2.1.5 2.8 1.4l1.4-1.2c-.9-1.2-2.4-2-4.2-2-2.6 0-4.5 1.5-4.5 3.8 0 2 1 3.2 3.3 4l1.9.8c1.3.5 2 1.3 2 2.4 0 1.4-1.1 2.2-2.6 2.2a4 4 0 0 1-3.6-2l-1.5 1.2Zm26.4-5c0-4.1-3.3-7.4-7.5-7.4a7.4 7.4 0 0 0-7.4 7.5c0 4.2 3.3 7.5 7.4 7.5 4.2 0 7.5-3.3 7.5-7.5Zm-13 0a5.6 5.6 0 1 1 11.2 0c0 3.3-2.5 5.8-5.7 5.8a5.6 5.6 0 0 1-5.5-5.7Zm15.9 7.3h1.9v-6.6h1.4l5.6 6.6h2.3l-5.5-6.6c2.2-.3 3.5-1.7 3.5-3.9 0-2.4-1.6-4-4.3-4h-5v14.5Zm1.9-8.3v-4.4h2.8c1.6 0 2.6.8 2.6 2.2 0 1.5-1 2.2-2.6 2.2h-2.8Zm-86.8.9c-.5-1.1-1.5-1.9-3.6-2.7a8.9 8.9 0 0 1-3.1-1.8c-.5-.5-.6-.9-.6-1.6 0-.6.2-1 .7-1.5.5-.5 1.2-.7 2-.5 1.5.3 2.4 1.3 3.1 3.3.3.7.3.8.8.6l.3-.1V9.7h-.3c-1.3-.6-3.7-1-5.3-.8-1.8.1-3.2.7-4.2 1.8-1 1-1.5 2.3-1.4 3.7a4 4 0 0 0 1.2 2.9c.7.7 1.3 1 3 1.7 2.6 1 3.4 1.7 3.4 3 0 1-.6 1.9-1.7 2.3h-1.8c-1.4-.4-2.4-1.6-3.3-3.7l-.2-.6H79l-.4.1-.2.1v3.4l.1 1.5.3.1c.6.3 2.5.7 3.6.8a31 31 0 0 0 4-.2c2.1-.5 3.5-1.7 4.1-3.5l.3-1.6c0-1-.1-1.6-.5-2.3ZM74 9.4a8 8 0 0 0-6.5.2c-2 1-3.3 2.5-4 4.7-.4 1.2-.5 2-.5 3.6l.2 1.8c.8 3.4 3 5.7 6.3 6.3h3c1-.2 2.2-.7 3-1.2.9-.6 1.8-1.5 1.8-1.8 0-.2-.3-.6-.4-.6l-.6.3a5 5 0 0 1-2.9.8c-1.6 0-2.7-.4-3.7-1.4-.5-.5-.7-.7-.9-1.2-.5-1-.8-2.2-.8-3.5v-.6h9.6v-.3a8.1 8.1 0 0 0 0-1c-.4-3-1.5-5-3.6-6Zm-4.8 6H68v-1.1c.5-2.6 1.4-4.2 2.7-4.2 1.1 0 1.8 1.6 2 4.4v.8h-1.2l-2.3.1ZM56.6 9.2A6 6 0 0 0 55 9c-1.1 0-1.9.2-2.7.6a7.2 7.2 0 0 1-.6.2 93.6 93.6 0 0 1 0-7.5l-7 1.3V4c0 .3 0 .3.8.5l.6.2c.3.2.5.7.7 1.3l.2 4v12.7l-.1 2.5.5.1 3.3.6h3.8c3-.5 5.4-2.3 6.4-5a11.8 11.8 0 0 0 .6-6.3c-.7-3-2.5-5-5-5.5ZM52 24.5l-.2-10.9v-2.4h.5a3.7 3.7 0 0 1 1-.2c.5 0 .6 0 1 .2 1.2.6 2 2 2.3 4 .1.8.2 3 0 3.9-.3 2.2-1 4-2 5-.4.3-.7.5-1.2.6h-1c-.3 0-.4 0-.5-.2Z"></path><path d="M44.2 8.8c-.8 0-1.2.1-1.8.4-1.1.5-2 1.3-2.7 2.7l-.2.4V8.8l-7 1.5v.8h.7c.6.2.8.3 1 .6.4.6.5 1.6.5 5.9 0 3.5 0 5.2-.2 5.8-.2.6-.6 1-1.2 1.1l-.6.1h-.2v1h9.7v-1l-1.7-.2c-.5-.2-.8-.7-1-1.7 0-1.2-.1-4 0-6.4l.1-2.6c.3-.4 1.2-.6 2-.6.7 0 1.3.1 2 .4l.7.3L46 9.4c0-.3-1-.6-1.8-.6Z"></path><path d="M32.4 16c-.3-2.8-1.5-5-3.5-6.1a9 9 0 0 0-8.1-.2 7.9 7.9 0 0 0-3.8 4.5c-.7 2-.7 4.6 0 6.7.4 1.3 1 2.3 1.8 3.1a7 7 0 0 0 4 2h3l1-.3c2.9-.8 4.8-3 5.5-6.1.2-.8.2-2.7.1-3.5Zm-7.2 8.7c-1.8.6-3-1.1-3.5-4.7-.2-1.1-.2-4.3 0-5.6.3-2.8 1.2-4.3 2.6-4.3.6 0 1 .2 1.4.7 1.2 1.1 1.8 3.4 1.8 6.9 0 2.8-.3 4.6-1 5.8-.3.6-.8 1-1.3 1.2ZM9 4.6h2c2.4 0 2.7 0 3.6.4 1.2.6 2 1.8 2.8 3.9.3.8.3.8 1 .6l.5-.2v-3l-.1-3.2v-.3H.2V4h.8c.9.2 1.4.4 1.7.9.7 1 .8 2.4.8 9.1 0 7.1-.1 8.9-.8 9.8-.4.4-.6.6-1.4.7-1 .2-1 .2-1 .7v.5h11.8v-1l-1-.1-1-.3c-.7-.3-1-1.2-1.2-2.8l-.2-5V15h.7l2.5.3c.7.3 1.2 1.2 1.5 2.3l.2.6h1v-7.7h-1l-.2.6c-.3 1.2-.8 2-1.5 2.3a31.8 31.8 0 0 1-2.7.3h-.6v-2L9 5v-.3Z"></path></g><defs><clipPath id="a"><path fill="#fff" d="M.2 0h189.6v32H.2z"></path></clipPath></defs></svg> 