<svg width="81" height="33" viewBox="0 0 81 33" fill="none" xmlns="http://www.w3.org/2000/svg">
<path fill-rule="evenodd" clip-rule="evenodd" d="M12.2657 13.6917L12.4538 13.4824L10.9529 10.5811L10.5536 10.8745C9.77181 11.449 8.90637 11.7342 7.94478 11.7342C6.86367 11.7342 6.01595 11.407 5.36415 10.7688L5.36521 10.7678C4.70881 10.1133 4.37435 9.28025 4.37435 8.22971C4.37435 7.07452 4.69627 6.22917 5.28994 5.63619L5.2889 5.63518C5.90715 5.03191 6.68169 4.72517 7.64375 4.72517C8.45901 4.72517 9.28264 4.96319 10.1167 5.45973L10.4784 5.67517L12.1967 2.82312L11.9605 2.59742C11.4935 2.1534 10.8727 1.80733 10.1209 1.54699C9.3266 1.26643 8.48785 1.12667 7.64375 1.13446C5.37565 1.13446 3.56118 1.7931 2.25885 3.14731C0.973239 4.48921 0.339844 6.19429 0.339844 8.22971C0.339844 10.3287 1.01295 12.0605 2.38426 13.3798L2.38635 13.3819C3.75558 14.6848 5.52617 15.3249 7.66257 15.3249C8.58444 15.3249 9.4666 15.1834 10.3028 14.8961L10.309 14.8941C11.1389 14.5965 11.8037 14.2005 12.2657 13.6917Z" fill="#254F06"/>
<path fill-rule="evenodd" clip-rule="evenodd" d="M25.9537 3.0735C24.5618 1.77398 22.7773 1.13446 20.6441 1.13446C18.4784 1.13446 16.6806 1.80746 15.2884 3.17604C13.9129 4.52614 13.2273 6.22096 13.2273 8.22971C13.2273 10.3431 13.915 12.0769 15.3135 13.3839H15.3156C16.7204 14.6848 18.5077 15.3249 20.6441 15.3249C22.7596 15.3249 24.5364 14.6643 25.9391 13.3265C27.3564 11.9866 28.0609 10.2774 28.0609 8.22971C28.0609 6.11632 27.3668 4.38257 25.9537 3.0735ZM23.1367 10.7809L23.1358 10.7801C22.5672 11.4018 21.7562 11.7342 20.6441 11.7342C19.7034 11.7342 18.9153 11.4059 18.2547 10.7329C17.5941 10.064 17.2618 9.23921 17.2618 8.22971C17.2618 7.14839 17.59 6.31535 18.215 5.69159V5.68953C18.8442 5.04936 19.6448 4.72517 20.6441 4.72517C21.6161 4.72517 22.4105 5.04731 23.0543 5.69159C23.694 6.33176 24.0264 7.16481 24.0264 8.22971C24.0264 9.29076 23.7222 10.1289 23.1367 10.7809Z" fill="#254F06"/>
<path d="M42.5704 1.35606V9.35616C42.5704 11.289 42.0353 12.8074 40.8918 13.8333C39.7905 14.8332 38.4053 15.3249 36.7716 15.3249C34.9446 15.3249 33.4416 14.814 32.3065 13.7532C31.1568 12.6801 30.6154 11.1495 30.6154 9.2269V1.35606H34.4617V8.59904C34.4617 9.73986 34.6833 10.5216 35.0575 11.012C35.4191 11.4778 35.9626 11.7342 36.7716 11.7342C37.5388 11.7342 37.9862 11.4921 38.2391 11.0818L38.2412 11.0797C38.5464 10.5955 38.7241 9.8404 38.7241 8.76524V1.35606H42.5704Z" fill="#254F06"/>
<path fill-rule="evenodd" clip-rule="evenodd" d="M49.9078 15.1034H46.0615V1.35606H46.4795C46.7534 1.35606 47.5394 1.3499 48.8459 1.33759L50.9572 1.31913C52.709 1.31913 54.0782 1.69667 54.9562 2.54407L54.9552 2.54506C55.831 3.37576 56.248 4.50113 56.248 5.86599C56.248 6.80368 56.0495 7.62852 55.6355 8.32614C55.2974 8.89488 54.8239 9.36059 54.2285 9.72656L58.2757 15.1034H53.5786L50.3796 10.5791H49.9078V15.1034ZM49.9078 6.98835V4.93474C50.1977 4.92624 50.4875 4.91794 50.7774 4.90984H50.8067C51.3711 4.90984 51.7181 5.02064 51.9167 5.17247C52.0965 5.312 52.2135 5.52949 52.2135 5.90293C52.2135 6.30098 52.0839 6.53899 51.8686 6.69493C51.6303 6.86934 51.2248 6.98835 50.5809 6.98835H49.9078Z" fill="#254F06"/>
<path fill-rule="evenodd" clip-rule="evenodd" d="M62.5123 11.4218C62.9939 11.6342 63.4422 11.7342 63.8593 11.7342C64.1916 11.7342 64.3839 11.6604 64.4968 11.5701C64.5601 11.5194 64.6082 11.4546 64.6409 11.3811C64.6736 11.3076 64.688 11.2275 64.6829 11.1474C64.6829 10.973 64.5972 10.776 64.2899 10.5544L64.2836 10.5503C63.9366 10.2898 63.506 10.0394 62.9876 9.80141C62.4357 9.54904 61.8859 9.26793 61.3361 8.954C60.7341 8.61135 60.2303 8.12917 59.8227 7.51362C59.3962 6.87139 59.1893 6.11632 59.1893 5.27506C59.1828 4.72322 59.2951 4.17625 59.5188 3.66993C59.7425 3.16361 60.0725 2.70934 60.4874 2.33684C61.357 1.52431 62.4963 1.13446 63.8593 1.13446C65.6236 1.13446 67.0388 1.63511 68.0422 2.68565L68.2763 2.93187L68.0756 3.20476V3.20682L66.1817 5.80033L65.8347 5.48435C65.5107 5.19094 65.2368 4.99601 65.009 4.88522L65.0027 4.88111C64.8208 4.78673 64.5386 4.72517 64.1227 4.72517C63.7698 4.72517 63.5411 4.79917 63.3986 4.89977C63.2834 4.98964 63.2238 5.10006 63.2238 5.27506C63.2246 5.38781 63.2494 5.49915 63.2965 5.60196C63.3423 5.70169 63.4081 5.79128 63.49 5.86534L63.4913 5.86394C63.749 6.10042 64.0469 6.29071 64.3714 6.42622C64.8416 6.61127 65.3015 6.82078 65.749 7.05401C66.2229 7.29769 66.679 7.5733 67.114 7.87885C67.6001 8.20957 67.9919 8.6569 68.2526 9.17805L68.2533 9.17765C68.569 9.73986 68.7174 10.3882 68.7174 11.1105C68.7174 12.3395 68.2303 13.3654 67.2708 14.1575C66.3326 14.9441 65.1584 15.3249 63.784 15.3249C62.7848 15.3249 61.8232 15.1218 60.9034 14.7156C59.9753 14.3072 59.3001 13.7286 58.9447 12.9612L59.0053 12.5283L60.7174 10.5155L61.0376 10.7786L61.3675 10.5257C61.67 10.9104 62.0631 11.2174 62.513 11.4203L62.5123 11.4218Z" fill="#254F06"/>
<path d="M61.3675 10.5257L61.0376 10.7786L60.7174 10.5134L61.0497 10.1236L61.3675 10.5257Z" fill="#254F06"/>
<path d="M59.0053 12.5283L58.9447 12.9612L58.836 12.7253L59.0053 12.5283Z" fill="#254F06"/>
<path d="M71.4496 15.1034V1.35606H80.0934V4.94677H75.2959V6.39742H79.529V9.98813H75.2959V11.5126H80.2816V15.1034H71.4496Z" fill="#254F06"/>
<path d="M15.7755 31.518V17.7707H24.4194V21.3614H19.6218V22.8121H23.8549V26.4028H19.6218V27.9273H24.6075V31.518H15.7755Z" fill="#254F06"/>
<path fill-rule="evenodd" clip-rule="evenodd" d="M31.5749 27.1579L31.5728 31.518H27.7264V17.7707C29.2086 17.7707 30.6905 17.7338 32.1727 17.7338C34.0875 17.7338 35.5726 18.1474 36.526 19.0686L36.527 19.0675C37.4552 19.9518 37.9151 21.0845 37.9151 22.4284C37.9151 25.187 35.3144 27.1784 32.6242 27.1784C32.2142 27.1784 31.8634 27.1722 31.5749 27.1579ZM31.5749 21.3494V23.5404C31.9051 23.5722 32.2233 23.5877 32.5302 23.5877C32.8867 23.5975 33.2349 23.4947 33.5273 23.2943C33.7322 23.1486 33.8806 22.8921 33.8806 22.4099C33.8806 21.9955 33.7572 21.7533 33.5733 21.6036C33.3768 21.4415 33.034 21.3245 32.4737 21.3245C32.1743 21.3245 31.8741 21.3406 31.5749 21.3494Z" fill="#254F06"/>
<path fill-rule="evenodd" clip-rule="evenodd" d="M41.5775 29.7986C40.179 28.4916 39.4913 26.7578 39.4913 24.6444C39.4913 22.6356 40.1769 20.9408 41.5524 19.5907C42.9467 18.2221 44.7424 17.5491 46.9081 17.5491C49.0413 17.5491 50.8258 18.1887 52.2177 19.4882C53.6308 20.7972 54.3249 22.531 54.3249 24.6444C54.3249 26.6921 53.6204 28.4013 52.2031 29.7411C50.8004 31.0789 49.0236 31.7396 46.9081 31.7396C44.7717 31.7396 42.9823 31.0995 41.5775 29.7986ZM49.4007 27.1956L49.3998 27.1948C48.8313 27.8165 48.0181 28.1489 46.906 28.1489C45.9695 28.1489 45.1793 27.8206 44.5187 27.1476C43.8581 26.4787 43.5258 25.6539 43.5258 24.6444C43.5258 23.5631 43.854 22.73 44.479 22.1063L44.4811 22.1042C45.1103 21.464 45.9109 21.1398 46.9081 21.1398C47.8801 21.1398 48.6745 21.462 49.3183 22.1063C49.958 22.7464 50.2904 23.5795 50.2904 24.6444C50.2904 25.7054 49.9862 26.5436 49.4007 27.1956Z" fill="#254F06"/>
<path fill-rule="evenodd" clip-rule="evenodd" d="M60.9118 31.518H57.0654V17.7707C58.6974 17.7707 60.3292 17.7481 61.9612 17.7338C63.7136 17.7338 65.08 18.1107 65.958 18.9567C66.8339 19.7877 67.252 20.9142 67.252 22.2807C67.252 23.2184 67.0555 24.0432 66.6395 24.7408C66.2898 25.3131 65.8077 25.7935 65.235 26.1446L69.2797 31.518H64.5825L61.3856 26.9937H60.9118V31.518ZM60.9118 23.403V21.3494C61.2114 21.3407 61.511 21.3307 61.8106 21.3245C62.3751 21.3245 62.7221 21.4353 62.9207 21.5872C63.1004 21.7267 63.2175 21.9442 63.2175 22.3176C63.2175 22.7157 63.0879 22.9537 62.8726 23.1096C62.6364 23.284 62.2287 23.403 61.5849 23.403H60.9118Z" fill="#254F06"/>
<path d="M68.778 21.3614V17.7707H80.5262V21.3614H76.5753V31.518H72.7289V21.3614H68.778Z" fill="#254F06"/>
<path fill-rule="evenodd" clip-rule="evenodd" d="M10.8818 18.9587C10.0038 18.1113 8.6367 17.7338 6.88284 17.7338C5.251 17.7481 3.619 17.7707 1.98708 17.7707V31.518H5.83346L5.83536 26.9937H6.3073L9.38089 31.3416L9.50631 31.518H14.2035L10.1544 26.1416C10.7507 25.7755 11.2233 25.3097 11.5633 24.7408C11.9772 24.0432 12.1737 23.2184 12.1737 22.2807C12.1737 20.9142 11.7556 19.7897 10.8818 18.9587ZM6.70516 21.3245C6.41528 21.3326 6.12541 21.3409 5.83555 21.3494V23.403H6.50657C7.15042 23.403 7.55806 23.284 7.79636 23.1096C8.00959 22.9537 8.13918 22.7157 8.13918 22.3176C8.13918 21.9442 8.02421 21.7267 7.84443 21.5872C7.64584 21.4353 7.29675 21.3245 6.73234 21.3245H6.70516Z" fill="#254F06"/>
</svg>
