<svg width="126" height="33" viewBox="0 0 126 33" fill="none" xmlns="http://www.w3.org/2000/svg">
<g clip-path="url(#clip0_11165_13094)">
<circle cx="12.8865" cy="16.4364" r="12.8865" fill="#C71F0E"/>
<path d="M6.85138 25.2826L12.2644 21.534L16.8677 17.58L10.5709 17.9022L8.49147 16.4671L13.6461 12.3083L14.2025 9.96526L13.9682 7.59297L28.6706 16.7014C28.6706 16.7014 24.2503 28.3715 21.4176 30.1737C19.2666 31.5421 15.8237 31.7259 15.8237 31.7259L6.85138 25.2826Z" fill="url(#paint0_linear_11165_13094)"/>
<path d="M6.85938 25.2824C6.85938 25.2824 16.2607 18.6927 15.8799 17.9605C15.4992 17.2283 9.29024 22.4415 7.65014 19.9813L8.61663 17.5797L10.1103 15.6175C8.47019 19.2784 13.0076 16.0982 14.5327 15.7932C15.6286 15.574 17.2722 15.0317 17.8715 16.4668C18.9355 19.0148 6.85938 25.2824 6.85938 25.2824Z" fill="url(#paint1_linear_11165_13094)"/>
<path d="M14.0275 9.70044V14.6207C10.8421 15.3149 7.57765 17.0107 9.02669 20.5954C9.02669 20.5954 7.77478 20.7467 7.17426 19.2775C5.59194 15.4061 14.0275 9.70044 14.0275 9.70044Z" fill="white"/>
<path d="M13.9766 17.3154V7.59192L18.8969 10.6378L13.9766 17.3154Z" fill="white"/>
</g>
<path d="M37.1747 23.8038C36.401 23.8038 35.5752 23.7035 34.6973 23.503C33.8194 23.3025 33.135 23.0268 32.644 22.676V19.9943C33.2243 20.3953 33.9161 20.7211 34.7196 20.9717C35.5231 21.2057 36.2819 21.3226 36.9962 21.3226C37.7104 21.3226 38.2311 21.2558 38.5585 21.1221C38.8858 20.9717 39.0495 20.7044 39.0495 20.3201C39.0495 20.0194 38.9602 19.7771 38.7817 19.5933C38.618 19.3928 38.3427 19.2174 37.9559 19.067C37.5839 18.8999 37.0036 18.6994 36.215 18.4655C35.3222 18.1815 34.6155 17.8891 34.0947 17.5883C33.5888 17.2876 33.2019 16.9117 32.9341 16.4605C32.6812 15.9927 32.5547 15.3912 32.5547 14.6561C32.5547 13.4531 32.9787 12.5508 33.8269 11.9493C34.675 11.3311 35.8207 11.022 37.264 11.022C38.0079 11.022 38.7445 11.1056 39.4736 11.2727C40.2175 11.423 40.7978 11.6402 41.2144 11.9243V14.5057C40.7681 14.2049 40.225 13.9627 39.5851 13.7789C38.9453 13.5951 38.2907 13.5032 37.6211 13.5032C36.892 13.5032 36.3415 13.5867 35.9695 13.7538C35.5975 13.9042 35.4115 14.2049 35.4115 14.6561C35.4115 14.9568 35.5082 15.1991 35.7017 15.3829C35.91 15.55 36.1778 15.7003 36.5051 15.834C36.8325 15.9509 37.4277 16.1347 38.2907 16.3854C39.2132 16.6694 39.9348 16.9785 40.4556 17.3127C40.9764 17.6468 41.3483 18.0478 41.5715 18.5156C41.7947 18.9835 41.9063 19.5683 41.9063 20.27C41.9063 21.3393 41.4971 22.1998 40.6788 22.8514C39.8753 23.4863 38.7073 23.8038 37.1747 23.8038Z" fill="#3A3A45"/>
<path d="M42.2434 11.398H45.0556L47.2428 19.5432L49.3854 11.398H51.8405L53.9831 19.5432L56.1704 11.398H58.9826L55.4785 23.4278H52.8895L50.613 15.2576L48.3364 23.4278H45.7474L42.2434 11.398Z" fill="#3A3A45"/>
<path d="M61.2162 8.7915C60.6134 8.11467 60.6134 6.96212 61.2162 6.28528C61.8305 5.59544 62.8784 5.59544 63.4927 6.28528C64.1226 6.95888 64.1226 8.11791 63.4927 8.7915C62.8758 9.45122 61.8331 9.45122 61.2162 8.7915ZM60.926 11.398H63.7829V23.4278H60.926V11.398Z" fill="#3A3A45"/>
<path d="M70.4941 23.8038C69.3186 23.8038 68.4258 23.4362 67.8158 22.701C67.2057 21.9659 66.9007 20.93 66.9007 19.5933V13.8039H65.2938V11.398H66.9007V7.78902H69.7129V11.398H72.2796V13.8039H69.7129V19.1923C69.7129 19.9609 69.8394 20.5123 70.0923 20.8464C70.3453 21.1639 70.8065 21.3226 71.4761 21.3226C71.9374 21.3226 72.3912 21.2057 72.8376 20.9717V23.3777C72.1977 23.6618 71.4166 23.8038 70.4941 23.8038Z" fill="#3A3A45"/>
<path d="M80.1093 23.8038C78.8595 23.8038 77.7584 23.5532 76.8061 23.0519C75.8687 22.5507 75.1397 21.8239 74.6189 20.8715C74.0981 19.9191 73.8377 18.7746 73.8377 17.438C73.8377 16.1013 74.0981 14.9568 74.6189 14.0044C75.1545 13.0354 75.8911 12.3002 76.8285 11.799C77.7807 11.281 78.8892 11.022 80.154 11.022C81.8205 11.022 83.1522 11.3896 84.1491 12.1248V14.6561C83.1819 13.8875 81.9469 13.5032 80.4441 13.5032C79.2984 13.5032 78.3833 13.829 77.6989 14.4806C77.0293 15.1155 76.6945 16.1013 76.6945 17.438C76.6945 18.7579 77.0293 19.7353 77.6989 20.3703C78.3833 21.0052 79.2835 21.3226 80.3995 21.3226C81.9023 21.3226 83.1968 20.9216 84.283 20.1196V22.6259C83.7473 23.0268 83.1373 23.3192 82.4528 23.503C81.7833 23.7035 81.0021 23.8038 80.1093 23.8038Z" fill="#3A3A45"/>
<path d="M86.0652 4.90686H88.8774V12.9268C89.8891 11.657 91.1985 11.022 92.8055 11.022C94.2488 11.022 95.3275 11.4648 96.0417 12.3503C96.7559 13.2192 97.113 14.3804 97.113 15.834V23.4278H94.3009V16.1347C94.3009 14.3804 93.5718 13.5032 92.1136 13.5032C91.4738 13.5032 90.8712 13.6786 90.3058 14.0295C89.7404 14.3637 89.2642 14.8733 88.8774 15.5583V23.4278H86.0652V4.90686Z" fill="#3A3A45"/>
<path d="M103.437 23.8038C101.994 23.8038 100.915 23.3694 100.201 22.5005C99.4867 21.615 99.1296 20.4454 99.1296 18.9918V11.398H101.942V18.6911C101.942 20.4454 102.671 21.3226 104.129 21.3226C104.769 21.3226 105.371 21.1555 105.937 20.8214C106.502 20.4705 106.978 19.9525 107.365 19.2675V11.398H110.177V23.4278H107.455V21.7988C106.949 22.4838 106.346 22.9934 105.647 23.3276C104.947 23.645 104.211 23.8038 103.437 23.8038Z" fill="#3A3A45"/>
<path d="M112.417 11.398H115.14V12.8516C115.72 12.2334 116.353 11.7739 117.037 11.4732C117.722 11.1724 118.503 11.022 119.381 11.022C120.467 11.022 121.434 11.2894 122.282 11.824C123.145 12.342 123.815 13.0855 124.291 14.0546C124.782 15.0069 125.027 16.118 125.027 17.3878C125.027 18.641 124.782 19.752 124.291 20.7211C123.815 21.6902 123.145 22.4504 122.282 23.0018C121.434 23.5364 120.467 23.8038 119.381 23.8038C118.562 23.8038 117.789 23.6785 117.06 23.4278C116.345 23.1605 115.735 22.7679 115.229 22.2499V28.9165H112.417V11.398ZM118.689 21.3226C119.701 21.3226 120.534 20.955 121.189 20.2199C121.843 19.4847 122.171 18.5407 122.171 17.3878C122.171 16.235 121.843 15.2993 121.189 14.5809C120.534 13.8624 119.701 13.5032 118.689 13.5032C117.885 13.5032 117.171 13.7455 116.546 14.23C115.921 14.7145 115.482 15.3662 115.229 16.1849V18.6159C115.467 19.4346 115.899 20.0946 116.524 20.5958C117.164 21.0803 117.885 21.3226 118.689 21.3226Z" fill="#3A3A45"/>
<defs>
<linearGradient id="paint0_linear_11165_13094" x1="12.7675" y1="21.1238" x2="17.6389" y2="27.7108" gradientUnits="userSpaceOnUse">
<stop stop-color="#A02519"/>
<stop offset="1" stop-color="#C21E0E"/>
</linearGradient>
<linearGradient id="paint1_linear_11165_13094" x1="9.49525" y1="16.5547" x2="14.2105" y2="19.8349" gradientUnits="userSpaceOnUse">
<stop stop-color="#B0B0B0"/>
<stop offset="0.392295" stop-color="#F1F1F1"/>
<stop offset="1" stop-color="#F7FBFF"/>
</linearGradient>
<clipPath id="clip0_11165_13094">
<rect y="3.55017" width="25.773" height="25.773" rx="12.8865" fill="white"/>
</clipPath>
</defs>
</svg>
