<svg width="127" height="33" viewBox="0 0 127 33" fill="none" xmlns="http://www.w3.org/2000/svg">
<g clip-path="url(#clip0_11165_13131)">
<path d="M33.1752 11.983H45.9582V14.3373H40.9319V27.5718H38.168V14.3373H33.1641V11.983H33.1752ZM45.4121 16.2845H47.7748V18.4628H47.8194C47.9902 17.7882 48.4797 17.1967 49.023 16.7796C49.6195 16.2998 50.3795 15.9765 51.1517 15.9765C51.477 15.9765 51.7881 16.0136 52.1101 16.0425V18.4408C51.7535 18.3748 51.3745 18.3308 51.0179 18.3308C50.1761 18.3308 49.3867 18.6874 48.8336 19.3209C48.1596 20.1192 47.9197 21.1682 47.9197 22.1922V27.5608H45.401V16.2845H45.4121ZM63.6895 27.5718H61.2153V25.9986H61.1708C60.5471 27.142 59.2105 27.8798 57.9165 27.8798C56.412 27.8798 55.3198 27.5168 54.6511 26.7797C53.9824 26.0426 53.6481 24.9315 53.6481 23.4463V16.2845H56.1668V23.2043C56.1668 24.1944 56.3562 24.8985 56.7463 25.3055C57.4457 26.0568 58.7966 26.0923 59.6885 25.6796C60.3756 25.3617 60.8306 24.7907 61.0259 24.0624C61.1262 23.6884 61.1708 23.2813 61.1708 22.8413V16.2955H63.6895V27.5718ZM67.9802 23.9524C68.0582 24.6785 68.3368 25.1845 68.8161 25.4816C69.6012 25.9396 70.4912 25.9628 71.3682 25.8666C72.1793 25.7776 73.1398 25.3809 73.1068 24.4364C73.0829 23.7544 72.4789 23.3803 71.9031 23.1603C71.085 22.8737 70.2185 22.7384 69.3733 22.5552C68.4974 22.37 67.5753 22.1231 66.8434 21.5871C66.0584 21.0372 65.7067 20.1476 65.7067 19.2109C65.7067 18.0899 66.3503 17.2018 67.3115 16.6696C68.2719 16.1504 69.4062 15.9765 70.4878 15.9765C71.57 15.9765 72.723 16.164 73.6417 16.7686C74.5878 17.3672 75.1325 18.3568 75.2689 19.4529H72.6387C72.5161 18.8588 72.2486 18.4518 71.814 18.2537C71.3793 18.0447 70.8778 17.9457 70.3206 17.9457C69.6778 17.9457 68.9275 18.0337 68.4483 18.5068C68.0963 18.881 68.1767 19.5205 68.5486 19.8489C69.0899 20.327 69.877 20.505 70.5658 20.641C71.4831 20.8221 72.3939 21.0152 73.2851 21.3011C74.1076 21.565 74.8699 22.0664 75.3023 22.8303C75.8191 23.7432 75.7272 25.0689 75.1574 25.9326C74.5026 26.9022 73.4261 27.4578 72.3044 27.7038C71.0668 27.9753 69.732 27.9904 68.504 27.6598C67.2708 27.3278 66.3612 26.6751 65.8516 25.7126C65.5952 25.2285 65.4615 24.6455 65.4392 23.9744H67.9802V23.9524ZM76.2942 16.2845H78.1999V12.8961H80.7186V16.2845H82.9922V18.1437H80.7186V24.1724C80.7186 24.4364 80.7298 24.6565 80.7521 24.8545C80.7743 25.0415 80.8301 25.2065 80.9081 25.3385C80.9861 25.4706 81.1087 25.5696 81.2759 25.6356C81.443 25.7016 81.6548 25.7346 81.9445 25.7346C82.1229 25.7346 82.3012 25.7346 82.4795 25.7236C82.6578 25.7126 82.8361 25.6906 83.0144 25.6466V27.5718C82.7358 27.6048 82.4572 27.6268 82.2009 27.6598C81.9334 27.6928 81.6659 27.7038 81.3873 27.7038C80.7186 27.7038 80.1837 27.6378 79.7825 27.5168C79.3813 27.3958 79.0581 27.2088 78.8352 26.9667C78.6011 26.7247 78.4562 26.4277 78.3671 26.0646C78.2891 25.7016 78.2334 25.2835 78.2222 24.8215V18.1657H76.3165V16.2845H76.2942ZM84.7753 16.2845H87.1603V17.8137H87.2049C87.5615 17.1536 88.0519 16.6916 88.6871 16.4055C89.3224 16.1195 90.0022 15.9765 90.7489 15.9765C91.6516 15.9765 92.4317 16.1305 93.1004 16.4495C93.7691 16.7576 94.3263 17.1866 94.7721 17.7367C95.2179 18.2867 95.5411 18.9248 95.764 19.6509C95.9869 20.377 96.0983 21.1581 96.0983 21.9832C96.0983 22.7423 95.998 23.4793 95.7974 24.1834C95.5968 24.8985 95.2959 25.5256 94.8947 26.0756C94.4935 26.6257 93.9809 27.0547 93.3567 27.3848C92.7326 27.7148 92.0082 27.8798 91.1612 27.8798C90.7935 27.8798 90.4257 27.8468 90.0579 27.7808C89.6901 27.7148 89.3335 27.6048 88.9992 27.4618C88.6648 27.3188 88.3416 27.1318 88.063 26.9007C87.7732 26.6697 87.5392 26.4057 87.3386 26.1086H87.294V31.7413H84.7753V16.2845ZM93.5796 21.9392C93.5796 21.4331 93.5128 20.938 93.379 20.454C93.2453 19.9699 93.0447 19.5519 92.7772 19.1778C92.5098 18.8038 92.1754 18.5068 91.7853 18.2867C91.3841 18.0667 90.9272 17.9457 90.4145 17.9457C89.3558 17.9457 88.5534 18.3088 88.0184 19.0348C87.4835 19.7609 87.216 20.729 87.216 21.9392C87.216 22.5112 87.2829 23.0393 87.4278 23.5233C87.5726 24.0074 87.7732 24.4254 88.063 24.7775C88.3416 25.1295 88.676 25.4046 89.066 25.6026C89.4561 25.8116 89.913 25.9106 90.4257 25.9106C91.0052 25.9106 91.4844 25.7896 91.8856 25.5586C92.2869 25.3275 92.61 25.0195 92.8664 24.6565C93.1227 24.2824 93.3122 23.8644 93.4236 23.3913C93.5239 22.9183 93.5796 22.4342 93.5796 21.9392ZM98.0264 11.983H100.545V14.3373H98.0264V11.983ZM98.0264 16.2845H100.545V27.5718H98.0264V16.2845ZM102.796 11.983H105.315V27.5718H102.796V11.983ZM113.038 27.8798C111.449 27.8798 109.901 27.3515 108.781 26.1966C107.71 25.0433 107.265 23.4657 107.265 21.9172C107.265 20.377 107.717 18.8058 108.781 17.6597C109.868 16.4894 111.473 15.9765 113.038 15.9765C114.627 15.9765 116.175 16.5048 117.296 17.6597C118.36 18.8058 118.811 20.377 118.811 21.9172C118.811 23.4658 118.367 25.0433 117.296 26.1966C116.209 27.3669 114.604 27.8798 113.038 27.8798ZM113.038 25.9106C115.207 25.9106 116.293 23.8551 116.293 21.9172C116.293 19.9785 115.202 17.9457 113.038 17.9457C110.878 17.9457 109.784 19.982 109.784 21.9172C109.784 23.8561 110.869 25.9106 113.038 25.9106ZM119.547 16.2845H121.453V12.8961H123.971V16.2845H126.245V18.1437H123.971V24.1724C123.971 24.5566 123.958 24.9962 124.161 25.3385C124.367 25.6881 124.832 25.7346 125.197 25.7346C125.554 25.7346 125.911 25.7346 126.267 25.6466V27.5718C125.727 27.6357 125.184 27.7038 124.64 27.7038C123.971 27.7038 123.436 27.6378 123.035 27.5168C122.634 27.3958 122.311 27.2088 122.088 26.9667C121.854 26.7247 121.709 26.4277 121.62 26.0646C121.542 25.7016 121.486 25.2835 121.475 24.8215V18.1657H119.569V16.2845H119.547Z" fill="#191919"/>
<path d="M30.2356 11.9814H18.6897L15.1234 1.13416L11.5459 11.9814L0 11.9704L9.35043 18.6811L5.77297 29.5174L15.1234 22.8176L24.4627 29.5174L20.8964 18.6811L30.2356 11.9814Z" fill="#00B67A"/>
<path d="M21.7004 21.133L20.898 18.6797L15.125 22.8162L21.7004 21.133Z" fill="#005128"/>
</g>
<defs>
<clipPath id="clip0_11165_13131">
<rect width="126.449" height="32.2163" fill="white" transform="translate(0 0.329712)"/>
</clipPath>
</defs>
</svg>
