<svg width="120" height="33" viewBox="0 0 120 33" fill="none" xmlns="http://www.w3.org/2000/svg">
<g clip-path="url(#clip0_11165_13108)">
<path d="M119.293 28.7656C119.293 30.2726 118.072 31.4943 116.565 31.4943C115.058 31.4943 113.836 30.2726 113.836 28.7656C113.836 27.2586 115.058 26.0369 116.565 26.0369C118.072 26.0369 119.293 27.2586 119.293 28.7656Z" fill="#F78D2F"/>
<path d="M43.0049 16.2714C41.9698 16.2714 40.9967 16.0851 40.0858 15.7125C39.1749 15.3399 38.3846 14.819 37.7154 14.1495C37.0458 13.4801 36.5146 12.6866 36.1213 11.7686C35.7279 10.8509 35.5312 9.85352 35.5312 8.77707V8.73566C35.5312 7.68701 35.7243 6.70358 36.1109 5.78552C36.4971 4.86773 37.0286 4.06727 37.705 3.38398C38.381 2.70087 39.1853 2.16604 40.1168 1.77959C41.0485 1.39322 42.0661 1.19987 43.1705 1.19987C43.9158 1.19987 44.5918 1.27231 45.1994 1.41728C45.8065 1.56217 46.362 1.76921 46.8659 2.03842C47.3695 2.30753 47.825 2.62834 48.2322 3.00111C48.6392 3.3737 49.0015 3.7809 49.3192 4.22253L46.2966 6.56191C45.8825 6.03746 45.427 5.62337 44.9302 5.31974C44.4334 5.01636 43.833 4.86424 43.1291 4.86424C42.6183 4.86424 42.1525 4.96458 41.7317 5.16447C41.3105 5.36463 40.9482 5.63741 40.6448 5.9821C40.341 6.32723 40.103 6.73461 39.9305 7.20362C39.7577 7.67298 39.6717 8.1698 39.6717 8.69425V8.73566C39.6717 9.27388 39.7577 9.78117 39.9305 10.2573C40.103 10.7335 40.341 11.1443 40.6448 11.4891C40.9482 11.8343 41.3105 12.107 41.7317 12.3069C42.1525 12.5071 42.6183 12.607 43.1291 12.607C43.5017 12.607 43.8433 12.5657 44.1538 12.4829C44.4644 12.3999 44.7472 12.2795 45.0027 12.1206C45.258 11.962 45.4995 11.7757 45.7273 11.5616C45.955 11.3478 46.1792 11.1097 46.4001 10.8474L49.4226 13.0003C49.0775 13.4697 48.7013 13.9045 48.2944 14.3047C47.8871 14.7052 47.4248 15.0499 46.9073 15.3399C46.3898 15.6297 45.8101 15.8574 45.1683 16.023C44.5265 16.1886 43.8052 16.2714 43.0049 16.2714Z" fill="#2E2B2D"/>
<path d="M59.1931 1.38468L55.3217 1.38468L49.1523 15.9801H53.3756L57.2264 6.16709L61.0563 15.9801H65.3625L59.1931 1.38468Z" fill="#2E2B2D"/>
<path d="M80 1.48816L91.6347 1.48816V4.90417L83.9544 4.90417V7.09857L90.9102 7.09857V10.2661L83.9544 10.2661V12.5642L91.7384 12.5642V15.9801L80 15.9801V1.48816Z" fill="#2E2B2D"/>
<path d="M92.9844 1.48816L104.619 1.48816V4.90417L96.9387 4.90417V7.09857L103.895 7.09857V10.2661L96.9387 10.2661V12.5642L104.723 12.5642V15.9801L92.9844 15.9801V1.48816Z" fill="#2E2B2D"/>
<path d="M80.125 17.0024H84.3687L87.8262 22.6128L91.2836 17.0024H95.5282V31.4943L91.532 31.4943V23.1718L87.8366 28.8444H87.7538L84.0793 23.2132V31.4943H80.125V17.0024Z" fill="#2E2B2D"/>
<path d="M106.15 16.8988H102.279L96.1094 31.4943H100.333L104.184 21.6812L108.013 31.4943L112.32 31.4943L106.15 16.8988Z" fill="#2E2B2D"/>
<path d="M59.322 16.8988H55.4506L49.2812 31.4943H53.5046L57.3554 21.6812L61.1853 31.4943L65.4914 31.4943L59.322 16.8988Z" fill="#2E2B2D"/>
<path d="M36.1562 17.0024V31.4943H40.1726V17.0024H36.1562Z" fill="#2E2B2D"/>
<path d="M44.867 22.7405L49.9189 17.0024H45.1572L40.168 22.8818L45.2815 31.4943H50.1052L44.867 22.7405Z" fill="#2E2B2D"/>
<path d="M75.8168 10.9288C76.7277 10.5425 77.4521 9.98341 77.9904 9.25174C78.5287 8.52033 78.7978 7.59548 78.7978 6.47753V6.4362C78.7978 5.01488 78.37 3.88978 77.5143 3.06169C77.031 2.56479 76.4031 2.17859 75.6304 1.90225C74.8573 1.62642 73.912 1.48816 72.7941 1.48816H65.9414V15.9801H69.9579V11.5911V8.44431V4.96632H72.587C73.2631 4.96632 73.7946 5.10798 74.1812 5.39079C74.5675 5.67367 74.7609 6.10493 74.7609 6.68457V6.72598C74.7609 7.25069 74.5746 7.66801 74.2018 7.97853C73.8292 8.28905 73.2978 8.44431 72.6078 8.44431H69.9579L74.6366 15.9801H79.2741L75.8168 10.9288Z" fill="#2E2B2D"/>
<path d="M75.9456 26.4429C76.8564 26.0565 77.5809 25.4976 78.1192 24.7658C78.6575 24.0346 78.9266 23.1096 78.9266 21.9917V21.9504C78.9266 20.529 78.4987 19.404 77.6432 18.5758C77.1599 18.0789 76.5319 17.6927 75.7591 17.4165C74.986 17.1407 74.0408 17.0024 72.9228 17.0024H66.0703V31.4943H70.0866V27.1053V23.9586V20.4804H72.7159C73.3919 20.4804 73.9234 20.6221 74.31 20.9048C74.6962 21.1878 74.8897 21.6191 74.8897 22.1987V22.2402C74.8897 22.7648 74.7034 23.1821 74.3306 23.4927C73.958 23.8032 73.4265 23.9586 72.7365 23.9586H70.0866L74.7655 31.4943H79.4028L75.9456 26.4429Z" fill="#2E2B2D"/>
<path d="M115.836 10.9288C116.747 10.5425 117.472 9.98341 118.01 9.25174C118.548 8.52033 118.818 7.59548 118.818 6.47753V6.4362C118.818 5.01488 118.39 3.88978 117.534 3.06169C117.051 2.56479 116.423 2.17859 115.65 1.90225C114.877 1.62642 113.931 1.48816 112.814 1.48816H105.961V15.9801H109.978V11.5911V8.44431V4.96632H112.607C113.283 4.96632 113.815 5.10798 114.201 5.39079C114.587 5.67367 114.781 6.10493 114.781 6.68457V6.72598C114.781 7.25069 114.594 7.66801 114.222 7.97853C113.849 8.28905 113.318 8.44431 112.627 8.44431H109.978L114.657 15.9801H119.294L115.836 10.9288Z" fill="#2E2B2D"/>
<path d="M6.68214 28.3625L11.4942 20.3611C11.4942 20.3611 15.7433 11.5134 20.6699 20.743L23.7054 25.886C23.7054 25.886 24.405 27.0901 25.1315 28.3625C28.6766 25.6089 30.9582 21.3059 30.9582 16.4693C30.9582 8.15671 24.2195 1.41806 15.9069 1.41806C7.59418 1.41806 0.855469 8.15671 0.855469 16.4693C0.855469 21.3059 3.13707 25.6088 6.68214 28.3625Z" fill="#2E2B2D"/>
<path d="M22.4783 29.9981L20.3927 26.866L19.1641 25.1561C19.1641 25.1561 17.8494 23.4302 16.7426 23.2541C16.7426 23.2541 15.0766 22.6835 13.2663 24.6878C13.2663 24.6878 11.951 26.397 11.8105 26.6511L9.50781 30.0952C11.4505 31.0096 13.6199 31.5216 15.9093 31.5216C18.2679 31.5216 20.4996 30.9785 22.4869 30.0114C22.484 30.007 22.4811 30.0025 22.4783 29.9981Z" fill="#F78D2F"/>
</g>
<defs>
<clipPath id="clip0_11165_13108">
<rect width="118.395" height="32.2163" fill="white" transform="translate(0.835938 0.329712)"/>
</clipPath>
</defs>
</svg>
