<svg width="24" height="24" viewBox="0 0 24 24" fill="none" xmlns="http://www.w3.org/2000/svg">
<path d="M11.9985 17.3281L6.5951 20.6144C6.2412 20.8297 5.77981 20.7173 5.56457 20.3634C5.46211 20.1949 5.43012 19.9929 5.47551 19.801L6.93129 13.6465L2.13603 9.52313C1.82196 9.25307 1.78628 8.77954 2.05635 8.46547C2.1849 8.31597 2.36715 8.2231 2.56366 8.20698L8.86679 7.68967L11.3065 1.8549C11.4663 1.47275 11.9056 1.2925 12.2878 1.45229C12.4697 1.52835 12.6143 1.67299 12.6904 1.8549L15.1302 7.68967L21.4333 8.20698C21.8461 8.24086 22.1533 8.60298 22.1194 9.01581C22.1033 9.21232 22.0104 9.39458 21.8609 9.52313L17.0657 13.6465L18.5214 19.801C18.6168 20.2041 18.3673 20.6082 17.9642 20.7035C17.7723 20.7489 17.5703 20.7169 17.4019 20.6144L11.9985 17.3281Z" fill="black" fill-opacity="0.83"/>
</svg>
