<svg width="24" height="24" viewBox="0 0 24 24" fill="none" xmlns="http://www.w3.org/2000/svg">
<path d="M11.9985 17.3281L6.5951 20.6144C6.2412 20.8297 5.77981 20.7173 5.56457 20.3634C5.46212 20.1949 5.43012 19.9929 5.47551 19.801L6.93129 13.6465L2.13603 9.52314C1.82196 9.25308 1.78628 8.77955 2.05635 8.46548C2.1849 8.31598 2.36715 8.22311 2.56366 8.20699L8.86679 7.68968L11.3065 1.85491C11.4663 1.47276 11.9056 1.2925 12.2878 1.4523C12.4697 1.52836 12.6143 1.673 12.6904 1.85491L15.1302 7.68968L21.4333 8.20699C21.8461 8.24087 22.1533 8.60299 22.1194 9.01582C22.1033 9.21233 22.0104 9.39459 21.8609 9.52314L17.0657 13.6465L18.5214 19.801C18.6168 20.2041 18.3673 20.6082 17.9642 20.7035C17.7723 20.7489 17.5703 20.7169 17.4019 20.6144L11.9985 17.3281ZM12.5181 15.3033L15.887 17.3522L14.9794 13.515C14.8934 13.1514 15.0172 12.7702 15.3005 12.5266L18.2903 9.95576L14.3604 9.63323C13.988 9.60267 13.6637 9.36706 13.5196 9.02235L11.9985 5.38448L10.4773 9.02235C10.3332 9.36706 10.0089 9.60267 9.63655 9.63323L5.70666 9.95576L8.69643 12.5266C8.97973 12.7702 9.10358 13.1514 9.01758 13.515L8.10993 17.3522L11.4788 15.3033C11.798 15.1091 12.1989 15.1091 12.5181 15.3033Z" fill="black" fill-opacity="0.83"/>
</svg>
