<?xml version="1.0" encoding="UTF-8"?> <svg xmlns="http://www.w3.org/2000/svg" width="48" height="27" viewBox="0 0 48 27" fill="none"> <path d="M47.9859 17.4179C47.9859 12.6793 44.1558 8.38152 36.7472 8.38152H29.3876V0H23.1127L20.5894 4.44864L17.9487 0H11.6745V9.87718C10.4107 8.72991 8.70843 8.09795 6.86781 8.09795C4.99299 8.09795 3.25458 8.75772 1.97343 9.95643C1.35087 10.5383 0.86349 11.2207 0.52437 11.9831C0.17643 12.7653 0 13.5994 0 14.4626V14.4934C0 16.2086 0.69516 17.8036 1.95726 18.9843C3.22776 20.1728 4.97922 20.8271 6.8547 20.8271C8.72952 20.8271 10.4485 20.1672 11.7295 18.9687C12.352 18.3859 12.8396 17.704 13.179 16.9415C13.4691 16.2893 13.6381 15.6 13.6868 14.8887H17.1657V8.77966L20.5895 13.4644L23.8961 8.77966V14.8887H29.2924V27H36.5257C43.9865 27 48 23.0338 48 17.6862L47.9859 17.4179ZM9.03894 14.4934C9.03894 15.6055 8.29338 16.6452 6.86769 16.6452C5.42565 16.6452 4.64793 15.6086 4.64793 14.4626V14.4312H4.64769C4.64769 13.3193 5.41797 12.249 6.85446 12.249C8.28549 12.249 9.03882 13.3026 9.03882 14.4626L9.03894 14.4934ZM41.2369 17.6227C41.2369 19.9079 39.3773 20.9031 37.1735 20.9031H35.9024V14.2956H37.1546C39.3773 14.2956 41.2369 15.2929 41.2369 17.5786V17.6227Z" fill="#EE2D23"></path> </svg> 