<?xml version="1.0" encoding="UTF-8"?> <svg xmlns="http://www.w3.org/2000/svg" width="64" height="64" viewBox="0 0 64 64" fill="none"> <path fill-rule="evenodd" clip-rule="evenodd" d="M30.6667 10.667H28V13.3337H25.3333V16.0003V18.667H22.6667V21.3337V24.0003H20V26.667V29.3337H17.3333V32.0003V34.667H20H22.6667H25.3333V37.3337H22.6667V40.0003V42.667H20V45.3337V48.0003H17.3333V50.667V53.3337H20H22.6667V50.667H25.3333V48.0003H28V45.3337H30.6667V42.667H33.3333V40.0003H36V37.3337H38.6667V34.667H41.3333V32.0003H44V29.3337V26.667H41.3333H38.6667H36V24.0003H38.6667V21.3337H41.3333V18.667H44V16.0003H46.6667V13.3337V10.667H44H41.3333H38.6667H36H33.3333H30.6667ZM44 13.3337V16.0003H41.3333V18.667H38.6667V21.3337H36V24.0003H33.3333V26.667H30.6667V29.3337H33.3333H36H38.6667H41.3333V32.0003H38.6667V34.667H36V37.3337H33.3333V40.0003H30.6667V42.667H28V45.3337H25.3333V48.0003H22.6667V45.3337V42.667H25.3333V40.0003V37.3337H28V34.667V32.0003H25.3333H22.6667H20V29.3337H22.6667V26.667V24.0003H25.3333V21.3337V18.667H28V16.0003V13.3337H30.6667H33.3333H36H38.6667H41.3333H44ZM22.6667 48.0003H20V50.667H22.6667V48.0003Z" fill="#1A1A1A"></path> </svg> 