<?xml version="1.0" encoding="UTF-8"?> <svg xmlns="http://www.w3.org/2000/svg" width="32" height="32" viewBox="0 0 32 32" fill="none"><path fill-rule="evenodd" clip-rule="evenodd" d="M12 5.33325H20V6.66658H12V5.33325ZM9.33331 7.99992V6.66658H10.6666H12L12 7.99992H10.6666H9.33331ZM7.99998 9.33325V7.99992H9.33331V9.33325H7.99998ZM24 9.33325V10.6666V11.9999V12.6666H22.6666H21.3333H20H18.6666H17.3333V13.9999H16H14.6666L14.6666 12.6666H13.3333H12H10.6666H9.33331H7.99998V11.9999V9.33325H6.66665V11.9999H5.33331L5.33331 19.9999H6.66665V21.3333V22.6666H7.99998V23.9999H9.33331V25.3333H10.6666H12V26.6666H20V25.3333H21.3333H22.6666V23.9999H24V22.6666H25.3333V21.3333V19.9999H26.6666V11.9999H25.3333V10.6666V9.33325H24ZM22.6666 7.99992H24V9.33325H22.6666V7.99992ZM22.6666 7.99992V6.66658H21.3333H20V7.99992H21.3333H22.6666ZM22.6666 16.6666H24V15.3333V13.9999V13.3333H25.3333V19.9999H24V21.3333V22.6666H22.6666V23.9999H21.3333H20V25.3333H12L12 23.9999H10.6666H9.33331V22.6666H7.99998V21.3333V19.9999H6.66665V13.3333H7.99998V13.9999V15.3333V16.6666H9.33331V17.9999H10.6666H12H13.3333V16.6666H14.6666L14.6666 15.3333H16H17.3333V16.6666H18.6666V17.9999H20H21.3333H22.6666V16.6666ZM22.6666 16.6666V15.3333V13.9999H21.3333H20H18.6666V15.3333V16.6666H20H21.3333H22.6666ZM13.3333 16.6666H12H10.6666H9.33331V15.3333V13.9999H10.6666H12H13.3333V15.3333V16.6666ZM9.99998 14.6666H11.3333V15.9999H9.99998V14.6666ZM19.3333 15.9999V14.6666H20.6666V15.9999H19.3333ZM19.3333 21.3333V19.9999H20.6666V21.3333H19.3333ZM12.6666 21.3333H14H15.3333H16.6666H18H19.3333V22.6666H18H16.6666H15.3333H14H12.6666V21.3333ZM12.6666 21.3333V19.9999H11.3333V21.3333H12.6666Z" fill="#1A1A1A"></path></svg> 