<?xml version="1.0" encoding="UTF-8"?> <svg xmlns="http://www.w3.org/2000/svg" width="32" height="32" viewBox="0 0 32 32" fill="none"><path fill-rule="evenodd" clip-rule="evenodd" d="M8 7.99984H6.66667L6.66667 6.6665H8H9.33333H10.6667H12V7.99984H10.6667H9.33333H8ZM13.3333 9.33317L12 9.33317V7.99984H13.3333V9.33317ZM13.3333 22.6665V21.3332V19.9998V18.6665V17.3332V15.9998V14.6665V13.3332V11.9998V10.6665V9.33317L14.6667 9.33317V10.6665V11.9998V13.3332V14.6665V15.9998V17.3332V18.6665V19.9998V21.3332V22.6665H13.3333ZM12 23.9998V22.6665H13.3333V23.9998H12ZM6.66667 23.9998H8H9.33333H10.6667H12V25.3332H10.6667H9.33333H8H6.66667V23.9998ZM5.33333 22.6665H6.66667L6.66667 23.9998H5.33333V22.6665ZM5.33333 9.33317L5.33333 10.6665L6.66667 10.6665H8V11.9998H9.33333V13.3332V14.6665V15.9998V17.3332V18.6665V19.9998H8V21.3332H6.66667H5.33333V22.6665H4V21.3332V19.9998V18.6665V17.3332V15.9998V14.6665V13.3332V11.9998V10.6665V9.33317L5.33333 9.33317ZM5.33333 9.33317L6.66667 9.33317V7.99984H5.33333L5.33333 9.33317ZM20.6667 7.99984H19.3333V6.6665H20.6667H22H23.3333H24.6667V7.99984H23.3333H22H20.6667ZM26 9.33317L24.6667 9.33317V7.99984H26V9.33317ZM26 22.6665V21.3332V19.9998V18.6665V17.3332V15.9998V14.6665V13.3332V11.9998V10.6665V9.33317L27.3333 9.33317V10.6665V11.9998V13.3332V14.6665V15.9998V17.3332V18.6665V19.9998V21.3332V22.6665H26ZM24.6667 23.9998V22.6665H26V23.9998H24.6667ZM19.3333 23.9998H20.6667H22H23.3333H24.6667V25.3332H23.3333H22H20.6667H19.3333V23.9998ZM18 22.6665H19.3333V23.9998H18V22.6665ZM18 9.33317V10.6665L19.3333 10.6665H20.6667V11.9998H22V13.3332V14.6665V15.9998V17.3332V18.6665V19.9998H20.6667V21.3332H19.3333H18V22.6665H16.6667V21.3332V19.9998V18.6665V17.3332V15.9998V14.6665V13.3332V11.9998V10.6665V9.33317L18 9.33317ZM18 9.33317L19.3333 9.33317V7.99984H18V9.33317Z" fill="#1A1A1A"></path></svg> 