<?xml version="1.0" encoding="UTF-8"?> <svg xmlns="http://www.w3.org/2000/svg" width="32" height="32" viewBox="0 0 32 32" fill="none"><path fill-rule="evenodd" clip-rule="evenodd" d="M12 6.66658H13.3333H14.6667H16H17.3333H18.6667H20V7.99992V9.33325H18.6667H17.3333H16H14.6667H13.3333H12V7.99992V6.66658ZM5.33333 10.6666V9.33325H6.66667H8H9.33333H10.6667V7.99992V6.66658H12V5.33325H13.3333H14.6667H16H17.3333H18.6667H20V6.66658H21.3333V7.99992V9.33325H22.6667H24H25.3333H26.6667V10.6666H25.3333H24V11.9999V13.3333V14.6666V15.9999V17.3333V18.6666V19.9999V21.3333V22.6666V23.9999V25.3333H25.3333H26.6667V26.6666H25.3333H24H22.6667H21.3333H20H18.6667H17.3333H16H14.6667H13.3333H12H10.6667H9.33333H8H6.66667H5.33333V25.3333H6.66667H8V23.9999V22.6666V21.3333V19.9999V18.6666V17.3333V15.9999V14.6666V13.3333V11.9999V10.6666H6.66667H5.33333ZM5.33333 10.6666V11.9999V13.3333V14.6666V15.9999V17.3333V18.6666V19.9999V21.3333V22.6666V23.9999V25.3333H4V23.9999V22.6666V21.3333V19.9999V18.6666V17.3333V15.9999V14.6666V13.3333V11.9999V10.6666H5.33333ZM26.6667 25.3333V23.9999V22.6666V21.3333V19.9999V18.6666V17.3333V15.9999V14.6666V13.3333V11.9999V10.6666H28V11.9999V13.3333V14.6666V15.9999V17.3333V18.6666V19.9999V21.3333V22.6666V23.9999V25.3333H26.6667ZM22.6667 25.3333H21.3333H20H18.6667H17.3333H16H14.6667H13.3333H12H10.6667H9.33333V23.9999V22.6666V21.3333V19.9999V18.6666V17.3333V15.9999V14.6666V13.3333V11.9999V10.6666H10.6667H12H13.3333H14.6667H16H17.3333H18.6667H20H21.3333H22.6667V11.9999V13.3333V14.6666V15.9999V17.3333V18.6666V19.9999V21.3333V22.6666V23.9999V25.3333Z" fill="#1A1A1A"></path></svg> 