<?xml version="1.0" encoding="UTF-8"?> <svg xmlns="http://www.w3.org/2000/svg" width="16" height="17" viewBox="0 0 16 17" fill="none"><path fill-rule="evenodd" clip-rule="evenodd" d="M7.05677 2.25738C7.82062 1.26022 9.27 1.08687 10.2388 1.85647C11.1975 2.61808 11.3788 4.00918 10.6327 4.989L10.3869 5.31098C10.6599 5.37771 10.9258 5.4997 11.1702 5.6813C11.9534 6.26336 12.2215 7.25635 11.944 8.13386C12.2881 8.21052 12.6178 8.37729 12.8966 8.63751C13.6814 9.36745 13.7741 10.5809 13.1106 11.422L13.1095 11.4233L12.6747 11.9716C12.5401 12.1437 12.3992 12.3253 12.2916 12.4643L12.1101 12.6992L12.109 12.7007C10.3679 14.9497 7.12577 15.3785 4.86107 13.6446C3.15882 12.3511 2.48518 10.2108 2.97178 8.26232L3.01103 7.48151C2.98505 6.79482 2.76613 6.12538 2.37591 5.55587L2.3768 5.55718C1.70669 4.58413 1.95229 3.24157 2.93937 2.57737L2.93801 2.57828C3.87581 1.94389 5.15293 2.15391 5.83526 3.05752L5.83598 3.05848L6.13679 3.45834L6.14695 3.4452C6.38379 3.13573 6.61109 2.83898 6.77924 2.61951L7.05677 2.25738ZM8.11491 3.06862L7.83763 3.43044C7.66933 3.65009 7.44179 3.94716 7.20479 4.25685L7.20272 4.25954L6.66615 4.9533C6.66026 4.96127 6.65418 4.96913 6.64791 4.97688L4.95812 7.1617C4.6325 7.58246 4.40738 8.04922 4.27921 8.53274C4.27884 8.53412 4.27848 8.5355 4.27811 8.53688C3.89248 9.9982 4.39083 11.6132 5.6686 12.5837L5.67079 12.5853C7.35128 13.8726 9.76066 13.5553 11.0543 11.885L11.0547 11.8845L11.2372 11.6482C11.3458 11.5079 11.4888 11.3236 11.6257 11.1485L11.6286 11.1449L12.0638 10.5962L12.0643 10.5955C12.2977 10.2989 12.2642 9.86975 11.9881 9.61341L11.9869 9.61225C11.6922 9.33721 11.2309 9.35776 10.9593 9.65248C10.9532 9.65917 10.9469 9.66573 10.9404 9.67216C10.9311 9.68149 10.8953 9.71734 10.8599 9.75342C10.842 9.77169 10.8262 9.78803 10.8148 9.80014L10.8096 9.80566C10.5821 10.0778 10.1788 10.1249 9.89425 9.90805C9.60298 9.68609 9.54527 9.27075 9.76499 8.97779C9.76702 8.97508 9.76909 8.97238 9.77118 8.96968C9.8504 8.86736 10.0418 8.62614 10.2097 8.41504C10.2945 8.30849 10.3745 8.20812 10.4332 8.13439L10.524 8.02063C10.8442 7.59264 10.749 7.02949 10.3749 6.7515C9.99874 6.47197 9.45316 6.54286 9.13422 6.96171L9.13043 6.96668L8.69448 7.52815L8.55204 7.71475C8.32864 8.00742 7.91028 8.06357 7.61761 7.84016C7.32494 7.61676 7.2688 7.1984 7.4922 6.90573L7.63568 6.71777L7.63678 6.71632L9.57192 4.18124C9.8751 3.78271 9.80366 3.21364 9.40944 2.90047C9.02524 2.59527 8.426 2.66238 8.11491 3.06862ZM4.10535 6.0849L5.29098 4.55193L4.7712 3.86099C4.51767 3.52568 4.037 3.44461 3.68509 3.68266L3.68374 3.68358C3.31774 3.92986 3.22191 4.43354 3.47492 4.80093L3.47582 4.80223C3.74821 5.19977 3.95925 5.63229 4.10535 6.0849Z" fill="#1A1A1A"></path></svg> 