<?xml version="1.0" encoding="UTF-8"?> <svg xmlns="http://www.w3.org/2000/svg" width="16" height="16" viewBox="0 0 16 16" fill="none"><path d="M12 0H4C1.79086 0 0 1.79086 0 4V12C0 14.2091 1.79086 16 4 16H12C14.2091 16 16 14.2091 16 12V4C16 1.79086 14.2091 0 12 0Z" fill="#F7DF1E"></path><path d="M9.748 11.4996C10.0703 12.0258 10.4896 12.4126 11.2312 12.4126C11.8542 12.4126 12.2521 12.1013 12.2521 11.671C12.2521 11.1555 11.8432 10.9729 11.1575 10.673L10.7817 10.5117C9.6967 10.0495 8.97594 9.47041 8.97594 8.24629C8.97594 7.11867 9.83511 6.26025 11.1778 6.26025C12.1338 6.26025 12.821 6.59295 13.3163 7.46406L12.1455 8.21581C11.8877 7.75359 11.6096 7.57149 11.1778 7.57149C10.7375 7.57149 10.4584 7.85086 10.4584 8.21581C10.4584 8.66686 10.7377 8.84946 11.3828 9.12882L11.7587 9.28984C13.0361 9.83765 13.7574 10.3961 13.7574 11.6517C13.7574 13.0054 12.694 13.747 11.266 13.747C9.86965 13.747 8.96756 13.0816 8.52616 12.2095L9.748 11.4996ZM4.43676 11.6299C4.67295 12.049 4.88781 12.4032 5.40438 12.4032C5.89835 12.4032 6.20997 12.21 6.20997 11.4585V6.34609H7.71346V11.4788C7.71346 13.0356 6.8007 13.7442 5.46838 13.7442C4.26457 13.7442 3.56743 13.1212 3.21289 12.3709L4.43676 11.6299Z" fill="#131313"></path></svg> 