<?xml version="1.0" encoding="UTF-8"?> <svg xmlns="http://www.w3.org/2000/svg" width="24" height="24" viewBox="0 0 24 24" fill="none"><path fill-rule="evenodd" clip-rule="evenodd" d="M6.95966 4.12901C6.54052 3.70986 6.75033 2.99307 7.32933 2.86609L12.0962 1.82066C12.6307 1.70345 13.1067 2.17948 12.9895 2.71392L11.944 7.48079C11.8171 8.05978 11.1003 8.2696 10.6811 7.85045L6.95966 4.12901ZM13.6975 22.595C15.4095 22.595 16.7975 21.2071 16.7975 19.495C16.7975 17.7829 15.4095 16.395 13.6975 16.395C11.9854 16.395 10.5975 17.7829 10.5975 19.495C10.5975 21.2071 11.9854 22.595 13.6975 22.595ZM7.40749 7.40262C7.01697 7.0121 6.3838 7.0121 5.99328 7.40262L3.69078 9.70512C2.03276 11.3631 2.03276 14.0513 3.69078 15.7093L3.69405 15.7126C5.35536 17.3703 8.04549 17.3688 9.705 15.7093L15.71 9.70434C16.5891 8.82528 18.014 8.82451 18.8941 9.70261C19.772 10.5786 19.7735 12.0004 18.8975 12.8784L17.1257 14.6502C16.7352 15.0407 16.7352 15.6738 17.1257 16.0644C17.5163 16.4549 18.1494 16.4549 18.5399 16.0644L20.3133 14.291C21.9695 12.6312 21.9666 9.94307 20.3067 8.28685C18.6454 6.62916 15.9553 6.63062 14.2958 8.29012L8.29078 14.2951C7.41173 15.1741 5.98674 15.1749 5.105 14.2951C4.22802 13.4181 4.22802 11.9963 5.105 11.1193L7.40749 8.81684C7.79802 8.42631 7.79802 7.79315 7.40749 7.40262Z" fill="black" fill-opacity="0.83"></path></svg> 