<?xml version="1.0" encoding="UTF-8"?> <svg xmlns="http://www.w3.org/2000/svg" width="24" height="24" viewBox="0 0 24 24" fill="none"><path d="M15.3885 2.70856C15.8257 2.37101 16.4537 2.45173 16.7912 2.88886L17.7525 4.13376C18.0901 4.57088 18.0094 5.19888 17.5722 5.53643C17.1351 5.87398 16.5071 5.79326 16.1696 5.35613L15.2082 4.11124C14.8707 3.67411 14.9514 3.04611 15.3885 2.70856Z" fill="black" fill-opacity="0.83"></path><path d="M2.83791 17.3631C3.1982 16.9445 3.8296 16.8973 4.24818 17.2575L6.08813 18.8413C6.50671 19.2016 6.55395 19.833 6.19366 20.2516C5.83336 20.6702 5.20196 20.7174 4.78339 20.3571L2.94344 18.7733C2.52486 18.4131 2.47761 17.7817 2.83791 17.3631Z" fill="black" fill-opacity="0.83"></path><path fill-rule="evenodd" clip-rule="evenodd" d="M13.1762 4.35C12.3524 3.07605 10.7035 2.65559 9.3757 3.37588C8.86603 3.65133 8.47341 4.05798 8.21489 4.53077C7.22186 3.97819 5.95127 4.0211 4.98288 4.74933L4.97822 4.75288C3.65672 5.75882 3.40404 7.66276 4.42871 8.97098L4.45857 9.00911C4.17052 9.11312 3.89412 9.26526 3.64085 9.46693C2.3944 10.4499 2.16321 12.2635 3.14478 13.5236C3.15542 13.5372 3.16642 13.5506 3.17775 13.5637L7.69397 18.7785L7.69531 18.78C9.90726 21.3236 13.5453 22.0429 16.5593 20.5338C18.8 19.4116 20.315 17.2337 20.598 14.7358C20.7972 12.9677 21.0236 11.0661 21.1651 10.2408C21.3912 8.92203 20.6826 7.6336 19.459 7.10811C18.2786 6.5971 16.9108 6.94155 16.1005 7.93866C16.0407 8.01219 15.9917 8.09384 15.9549 8.18117L15.8345 8.46714L13.1762 4.35ZM11.9607 9.43645C12.0983 9.63661 12.1531 9.86916 12.1326 10.0935C12.1083 10.392 11.9508 10.6763 11.6802 10.8519C11.2169 11.1525 10.5976 11.0207 10.297 10.5574L10.1733 10.3669L7.5657 6.57401C7.25446 6.12151 6.62431 6.01946 6.18728 6.34605C5.74844 6.68213 5.67202 7.31496 6.0031 7.73757L9.03705 11.6126C9.3004 11.949 9.31428 12.4012 9.10582 12.7463C9.04324 12.8555 8.95887 12.9546 8.85355 13.0369C8.41822 13.3767 7.7898 13.2993 7.44994 12.864L6.13958 11.1855C5.82996 10.7886 5.26931 10.7261 4.88575 11.0322L4.88023 11.0366C4.49519 11.3396 4.42424 11.8927 4.70976 12.2777L9.20448 17.4676L9.2052 17.4685C10.818 19.3223 13.466 19.8459 15.6637 18.7455C17.2958 17.9281 18.4031 16.3414 18.6106 14.5119C18.8072 12.7662 19.0404 10.7981 19.1938 9.90288C19.2626 9.50199 19.0501 9.10881 18.6691 8.94555L18.665 8.94377C18.3522 8.80807 17.9865 8.87245 17.7323 9.11387L16.4832 12.0795C16.2688 12.5885 15.6824 12.8273 15.1734 12.613C14.6644 12.3986 14.4256 11.8122 14.64 11.3032L14.8965 10.6942L14.8553 10.636C14.8471 10.6244 14.8391 10.6126 14.8314 10.6007L11.4966 5.43578C11.2389 5.03745 10.7362 4.91277 10.3287 5.13423L10.3266 5.13536C9.86915 5.3826 9.71354 5.98441 9.99971 6.42526L11.8365 9.25581L11.9607 9.43645Z" fill="black" fill-opacity="0.83"></path></svg> 