<?xml version="1.0" encoding="UTF-8"?> <svg xmlns="http://www.w3.org/2000/svg" width="32" height="32" viewBox="0 0 32 32" fill="none"><path fill-rule="evenodd" clip-rule="evenodd" d="M19.9997 5.3335H11.9997V6.66683H10.6663H9.33301V8.00016H7.99967V9.3335H9.33301V8.00016H10.6663H11.9997V6.66683H19.9997V8.00016H21.333H22.6663V9.3335H23.9997V8.00016H22.6663V6.66683H21.333H19.9997V5.3335ZM11.9997 25.3335V24.0002H10.6663H9.33301V22.6668H7.99967V21.3335V20.0002H6.66634L6.66634 16.0002H7.99967V17.3335H9.33301V18.6668H10.6663V17.3335H11.9997V16.0002H13.333V14.6668H14.6663V13.3335V12.0002H13.333V10.6668H11.9997H10.6663V12.0002H9.33301V10.6668H7.99967H6.66634V12.0002H5.33301V13.3335V14.6668H6.66634L6.66634 16.0002H5.33301L5.33301 20.0002H6.66634L6.66634 21.3335V22.6668H7.99967V24.0002H9.33301V25.3335H10.6663H11.9997ZM19.9997 25.3335H11.9997V26.6668H19.9997V25.3335ZM22.6663 24.0002V25.3335H21.333H19.9997V24.0002H21.333H22.6663ZM23.9997 22.6668H22.6663V24.0002H23.9997V22.6668ZM25.333 20.0002H23.9997V21.3335V22.6668H25.333V21.3335V20.0002ZM25.333 16.0002V20.0002H26.6663V16.0002H25.333ZM23.9997 10.6668H22.6663V12.0002H21.333V10.6668H19.9997H18.6663V12.0002H17.333V13.3335V14.6668H18.6663V16.0002H19.9997V17.3335H21.333V18.6668H22.6663V17.3335H23.9997V16.0002H25.333V14.6668H26.6663V13.3335V12.0002H25.333V10.6668H23.9997ZM11.9997 19.3335H13.333V20.6668H11.9997V19.3335ZM18.6663 20.6668V22.0002H17.333H15.9997H14.6663H13.333V20.6668H14.6663H15.9997H17.333H18.6663ZM18.6663 20.6668V19.3335H19.9997V20.6668H18.6663Z" fill="#1A1A1A"></path></svg> 