<?xml version="1.0" encoding="UTF-8"?> <svg xmlns="http://www.w3.org/2000/svg" width="96" height="18" viewBox="0 0 96 18" fill="none"> <g clip-path="url(#clip0_8762_17336)"> <path d="M20.608 12.1421H10.8C11.136 13.9737 12.448 15.0947 14.032 15.0947C15.04 15.0947 16.304 14.9684 17.232 13.4053L20.272 14.0369C19.136 16.6895 16.832 17.9684 14.016 17.9684C10.368 17.9684 7.40796 15.2369 7.40796 11.2421C7.40796 7.24738 10.384 4.48422 14.064 4.48422C17.504 4.48422 20.464 7.10527 20.592 10.9895V12.1421H20.608ZM10.896 9.7737H17.12C16.688 8.14738 15.44 7.42106 14.08 7.42106C12.784 7.43685 11.312 8.19475 10.896 9.7737Z" fill="#808080"></path> <path d="M56.9759 17.6053H53.5679V16.5158C52.5279 17.4632 51.1199 18 49.3119 18C46.0319 18 42.9919 15.2684 42.9919 11.2737C42.9919 7.27895 46.0319 4.51579 49.3119 4.51579C51.1199 4.51579 52.5439 5.05263 53.5679 6V0H56.9759V17.6053ZM53.5679 11.2579C53.5679 8.90527 51.7279 7.43684 49.9039 7.43684C47.8399 7.43684 46.2879 8.92105 46.2879 11.2579C46.2879 13.6105 47.8399 15.0474 49.9039 15.0474C51.7439 15.0474 53.5679 13.5947 53.5679 11.2579Z" fill="#808080"></path> <path d="M84.864 4.91052H80.16V7.72105H84.864C86.176 7.72105 87.056 8.27368 87.056 9.55263V9.75789H83.344C80.096 9.75789 78.224 11.3842 78.224 13.8316C78.224 16.3263 80.192 17.9842 83.136 17.9842C84.896 17.9842 86.176 17.4 87.056 16.5632V17.6053H90.32V9.3C90.32 6.26842 88.16 4.97368 84.864 4.91052ZM87.056 12.4579C87.056 14.0842 85.488 15.3158 83.68 15.3158C82.368 15.3158 81.488 14.7 81.488 13.7684C81.488 12.9 82.208 12.3158 83.296 12.3158H87.072V12.4579H87.056Z" fill="#808080"></path> <path d="M64.72 4.91052H60.016V7.72105H64.72C66.032 7.72105 66.912 8.27368 66.912 9.55263V9.75789H63.2C59.952 9.75789 58.08 11.3842 58.08 13.8316C58.08 16.3263 60.048 17.9842 62.992 17.9842C64.752 17.9842 66.032 17.4 66.912 16.5632V17.6053H70.16V9.3C70.16 6.26842 68 4.97368 64.72 4.91052ZM66.912 12.4579C66.912 14.0842 65.344 15.3158 63.536 15.3158C62.224 15.3158 61.344 14.7 61.344 13.7684C61.344 12.9 62.064 12.3158 63.152 12.3158H66.928V12.4579H66.912Z" fill="#808080"></path> <path d="M36.384 4.91052H31.68V7.72105H36.384C37.696 7.72105 38.576 8.27368 38.576 9.55263V9.75789H34.864C31.616 9.75789 29.744 11.3842 29.744 13.8316C29.744 16.3263 31.712 17.9842 34.656 17.9842C36.416 17.9842 37.696 17.4 38.576 16.5632V17.6053H41.84V9.3C41.84 6.26842 39.68 4.97368 36.384 4.91052ZM38.576 12.4579C38.576 14.0842 37.008 15.3158 35.2 15.3158C33.888 15.3158 33.008 14.7 33.008 13.7684C33.008 12.9 33.728 12.3158 34.816 12.3158H38.592V12.4579H38.576Z" fill="#808080"></path> <path d="M29.856 4.89472C27.76 4.89472 26.272 5.71578 25.232 7.19999V4.87894H21.824V17.5895H25.232V13.4842C25.232 9.94736 26.672 7.72104 29.824 7.72104H29.984V4.89472C29.936 4.89472 29.904 4.89472 29.856 4.89472Z" fill="#808080"></path> <path d="M6.768 14.5263C6.256 14.7158 5.712 14.8421 5.296 14.8421C4.16 14.8421 3.408 14.179 3.408 12.6474V7.62633H6.896V4.87896H3.408V1.76843H0V7.64212V12.9158C0 16.4053 2.016 17.9842 5.056 17.9842C6.128 17.9842 7.168 17.7632 8.48 17.0526C7.792 16.3579 7.136 15.5053 6.768 14.5263Z" fill="#808080"></path> <path d="M77.152 14.8105C77.008 14.8263 76.88 14.8421 76.768 14.8421C75.632 14.8421 74.88 14.179 74.88 12.6474V7.62633H78.464V4.87896H74.88V1.76843H71.472V7.64212V12.9158C71.472 16.4053 73.488 17.9842 76.528 17.9842C77.28 17.9842 77.936 17.8737 78.72 17.5737C77.712 16.8632 77.328 15.6947 77.152 14.8105Z" fill="#808080"></path> <path d="M96 15.6631C96 16.8631 95.072 17.7947 93.76 17.7947C92.464 17.7947 91.52 16.8789 91.52 15.6631C91.52 14.5105 92.448 13.5158 93.76 13.5158C95.072 13.5158 96 14.5263 96 15.6631Z" fill="#808080"></path> </g> <defs> <clipPath id="clip0_8762_17336"> <rect width="96" height="18" fill="white"></rect> </clipPath> </defs> </svg> 