<?xml version="1.0" encoding="UTF-8"?> <svg xmlns="http://www.w3.org/2000/svg" width="32" height="32" viewBox="0 0 32 32" fill="none"> <path fill-rule="evenodd" clip-rule="evenodd" d="M10 0H22V2H10V0ZM6 4V2H8H10V4H8H6ZM4 6V4H6V6H4ZM2 10L2 6H4V10H2ZM2 22H0V10H2L2 22ZM4 26H2L2 24L2 22H4V24V26ZM6 28H4V26H6V28ZM10 30H8H6V28H8H10V30ZM22 30V32H10V30H22ZM26 28V30H24H22V28H24H26ZM28 26V28H26V26H28ZM30 22V24V26H28V24V22H30ZM30 10H32V22H30V10ZM28 6H30V8V10H28V8V6ZM26 4H28V6H26V4ZM26 4V2H24H22V4H24H26ZM4 12H6H8H10H12H14H16H18H20H22H24H26H28V14V16H26V18H24H22H20V16H18V14H16H14V16H12V18H10H8H6V16H4V14V12ZM23 20V22H21V24H19H17H15H13V26H15H17H19H21V24H23V22H25V20H23Z" fill="#1A1A1A"></path> </svg> 