<?xml version="1.0" encoding="UTF-8"?> <svg xmlns="http://www.w3.org/2000/svg" width="34" height="32" viewBox="0 0 34 32" fill="none"> <path fill-rule="evenodd" clip-rule="evenodd" d="M22 0H10V2H8H6V4H4V6H2L2 10H0V22H2L2 24L2 26H4V28H6V30H8H10V32H22H24V30H26H28V28H30V26H32V24V22H34V10H32V8V6H30V4H28V2H26H24V0H22ZM24 2V4H26V6H28V8V10H30V22H28V24V26H26V28H24V30H22H10V28H8H6V26H4V24V22H2L2 10H4V6H6V4H8H10V2H22H24ZM24 10H22V12H20V14H18V16H16V18H14V20H12V18H10V16H8V18H10V20H12V22H14V20H16V18H18V16H20V14H22V12H24V10Z" fill="#1A1A1A"></path> </svg> 