<?xml version="1.0" encoding="UTF-8"?> <svg xmlns="http://www.w3.org/2000/svg" width="34" height="32" viewBox="0 0 34 32" fill="none"> <path fill-rule="evenodd" clip-rule="evenodd" d="M18 0H16H14V2H12V4V6V8V10V12H10H8H6H4H2L2 14H0V16V18V20V22V24V26V28H2V30H4V32H6H8H10H12H14H16H18H20H22H24H26H28H30H32V30H34V28V26V24V22V20V18V16V14V12V10V8V6V4V2H32V0H30H28H26H24H22H20H18ZM2 28V26V24V22V20V18L2 16L2 14H4H6H8H10H12V12H14V10V8V6V4V2H16H18H20H22H24H26H28H30V4V6V8V10V12V14V16V18V20V22V24V26V28H28H26H24H22H20H18H16H14H12H10H8H6H4H2ZM24 8V6H22V8V10V12V14V16V18V20H20H18H16H14V18H16V16H14V18H12V20H10V22H12V24H14V26H16V24H14V22H16H18H20H22V20H24V18V16V14V12V10V8ZM14 22V20H12V22H14Z" fill="#1A1A1A"></path> </svg> 