<?xml version="1.0" encoding="UTF-8"?> <svg xmlns="http://www.w3.org/2000/svg" width="130" height="20" viewBox="0 0 130 20" fill="none"> <path fill-rule="evenodd" clip-rule="evenodd" d="M31.5784 5.87643C30.1837 5.87643 28.9883 6.37452 27.9922 7.17145V6.07567H24.6052V18.9262H28.0918V10.7576C28.5899 10.0603 29.7853 9.16377 31.2795 9.16377C31.7776 9.16377 32.2757 9.26339 32.6741 9.363V6.07567C32.2757 5.97605 31.8772 5.87643 31.5784 5.87643Z" fill="#808080"></path> <path fill-rule="evenodd" clip-rule="evenodd" d="M1.59386 14.9395C2.49041 15.7365 3.88503 16.2345 5.08043 16.2345C5.97698 16.2345 6.77391 15.7365 6.77391 15.1388C6.77391 13.1464 0.498081 13.8438 0.498081 9.75949C0.498081 7.26909 2.88887 5.77484 5.37928 5.77484C7.07276 5.77484 8.86585 6.37254 9.76239 7.06985L8.16853 9.56026C7.47122 9.16179 6.67429 8.66371 5.67813 8.66371C4.68196 8.66371 3.98465 9.06218 3.98465 9.75949C3.98465 11.453 10.2605 10.7557 10.2605 15.2384C10.2605 17.7288 7.86969 19.223 5.18005 19.223C3.38695 19.223 1.49424 18.6253 0 17.5296L1.59386 14.9395Z" fill="#808080"></path> <path fill-rule="evenodd" clip-rule="evenodd" d="M23.111 12.3495C23.111 8.76333 20.6206 5.77484 17.0344 5.77484C13.249 5.77484 10.7585 8.96256 10.7585 12.4491C10.7585 16.5334 13.6474 19.1234 17.4328 19.1234C19.4252 19.1234 21.4175 18.3265 22.7125 16.8322L20.7202 14.8399C20.1225 15.5372 18.9271 16.3342 17.5325 16.3342C15.7394 16.3342 14.2451 15.0392 14.0459 13.2461H22.9117C23.111 13.0468 23.111 12.748 23.111 12.3495ZM14.3447 10.8553C14.544 9.65988 15.7394 8.5641 17.134 8.5641C18.5286 8.5641 19.5248 9.65988 19.724 10.8553H14.3447Z" fill="#808080"></path> <path fill-rule="evenodd" clip-rule="evenodd" d="M47.8158 6.07578L41.9384 18.9263H39.5476L33.6703 6.07578H37.1569L40.743 13.9455L44.2296 6.07578H47.8158Z" fill="#808080"></path> <path fill-rule="evenodd" clip-rule="evenodd" d="M50.7047 -0.000793457C51.9997 -0.000793457 52.9959 0.995369 52.9959 2.19076C52.9959 3.48578 51.9997 4.38232 50.7047 4.38232C49.4097 4.38232 48.5131 3.38616 48.5131 2.19076C48.5131 0.895753 49.4097 -0.000793457 50.7047 -0.000793457Z" fill="#808080"></path> <path d="M52.4978 6.07568H49.0112V18.9262H52.4978V6.07568Z" fill="#808080"></path> <path fill-rule="evenodd" clip-rule="evenodd" d="M66.6433 16.2345C65.149 18.2269 63.2563 19.1234 60.8655 19.1234C56.8809 19.1234 53.992 16.1349 53.992 12.4491C53.992 8.66371 56.9805 5.77484 60.8655 5.77484C63.1567 5.77484 65.0494 6.87062 66.2448 8.36486L63.9536 10.4568C63.2563 9.56026 62.2602 8.96256 61.0648 8.96256C59.0724 8.96256 57.5782 10.5564 57.5782 12.4491C57.5782 14.4415 58.9728 15.9357 61.0648 15.9357C62.4594 15.9357 63.5552 15.1388 64.1529 14.2422L66.6433 16.2345Z" fill="#808080"></path> <path fill-rule="evenodd" clip-rule="evenodd" d="M79.0953 16.8322C77.8003 18.3265 75.808 19.1234 73.8156 19.1234C70.0302 19.1234 67.1414 16.5334 67.1414 12.4491C67.1414 8.86295 69.5321 5.77484 73.4172 5.77484C76.9037 5.77484 79.4938 8.76333 79.4938 12.3495C79.4938 12.748 79.4938 13.0468 79.3942 13.3457H70.4287C70.6279 15.1388 72.1222 16.4338 73.9153 16.4338C75.3099 16.4338 76.5053 15.6369 77.103 14.9395L79.0953 16.8322ZM75.9076 10.8553C75.808 9.75949 74.8118 8.5641 73.3176 8.5641C71.9229 8.5641 70.7275 9.65988 70.5283 10.8553H75.9076Z" fill="#808080"></path> <path fill-rule="evenodd" clip-rule="evenodd" d="M80.7888 18.9242V6.07368H84.0762V7.16946C85.0723 6.37253 86.2677 5.87445 87.6623 5.87445C89.4554 5.87445 91.0493 6.67138 92.1451 7.96639C92.942 8.96255 93.5397 10.2576 93.5397 12.4491V19.0238H90.0531V12.1503C90.0531 10.8553 89.7543 10.158 89.2562 9.75949C88.7581 9.2614 88.1604 8.96255 87.2639 8.96255C85.8692 8.96255 84.6739 9.8591 84.0762 10.5564V18.9242H80.7888Z" fill="#808080"></path> <path fill-rule="evenodd" clip-rule="evenodd" d="M102.406 5.77682C98.2217 5.77682 94.9343 9.06416 94.9343 13.248C94.9343 15.4396 95.8309 17.4319 97.2255 18.8266C97.7236 19.3246 98.6201 19.3246 99.2178 18.9262C100.015 18.2289 101.21 17.8304 102.406 17.8304C103.701 17.8304 104.697 18.2289 105.593 18.9262C106.191 19.4243 106.988 19.3246 107.586 18.7269C108.98 17.3323 109.877 15.4396 109.877 13.248C109.777 9.16378 106.49 5.77682 102.406 5.77682ZM102.306 17.1331C100.015 17.1331 98.5205 15.4396 98.5205 13.3477C98.5205 11.2557 100.015 9.56224 102.306 9.56224C104.597 9.56224 106.091 11.2557 106.091 13.3477C106.091 15.4396 104.597 17.1331 102.306 17.1331Z" fill="#808080"></path> <path fill-rule="evenodd" clip-rule="evenodd" d="M108.98 6.07578H112.367L115.156 13.4474L117.946 6.07578H120.835L123.524 13.4474L126.313 6.07578H129.8L124.72 18.9263H122.13L119.34 11.6543L116.651 18.9263H114.061L108.98 6.07578Z" fill="#808080"></path> </svg> 