<?xml version="1.0" encoding="UTF-8"?> <svg xmlns="http://www.w3.org/2000/svg" width="16" height="16" viewBox="0 0 16 16" fill="none"><path d="M8 0C12.4183 0 16 3.58172 16 8C16 12.4183 12.4183 16 8 16C3.58172 16 0 12.4183 0 8C0 3.58172 3.58172 0 8 0ZM8 2C4.68629 2 2 4.68629 2 8C2 11.3137 4.68629 14 8 14C11.3137 14 14 11.3137 14 8C14 4.68629 11.3137 2 8 2ZM10.2842 5.80176C10.6697 5.40648 11.3029 5.39868 11.6982 5.78418C12.0935 6.16974 12.1013 6.80286 11.7158 7.19824L7.81641 11.1982C7.6246 11.395 7.35969 11.5041 7.08496 11.5C6.81031 11.4959 6.54912 11.379 6.36328 11.1768L4.26367 8.89062C3.8901 8.48393 3.91657 7.85117 4.32324 7.47754C4.72994 7.10395 5.3627 7.13141 5.73633 7.53809L7.12109 9.0459L10.2842 5.80176Z" fill="#1A1A1A"></path></svg> 