<?xml version="1.0" encoding="UTF-8"?> <svg xmlns="http://www.w3.org/2000/svg" width="93" height="26" viewBox="0 0 93 26" fill="none"> <g clip-path="url(#clip0_8762_17357)"> <path d="M65.3379 12.639C65.3288 13.187 65.4263 13.7315 65.6248 14.2412C65.8233 14.7508 66.1189 15.2156 66.4946 15.6089C66.8573 16.0097 67.2999 16.3273 67.793 16.5405C68.286 16.7536 68.8182 16.8574 69.3538 16.845C69.8868 16.8579 70.4164 16.7573 70.9088 16.5498C71.4012 16.3423 71.8454 16.0325 72.213 15.6402C72.5935 15.244 72.8919 14.7742 73.0906 14.2586C73.2893 13.7432 73.3842 13.1924 73.3698 12.639C73.3832 12.0795 73.2879 11.5228 73.0894 11.0008C72.8909 10.4788 72.5931 10.0015 72.213 9.59654C71.8499 9.19978 71.4097 8.88384 70.9203 8.66871C70.4309 8.45358 69.9029 8.34393 69.3697 8.34668C68.8365 8.34943 68.3096 8.46457 67.8223 8.68475C67.3351 8.90494 66.8981 9.2254 66.539 9.62595C65.7702 10.433 65.3462 11.5159 65.3591 12.639H65.3379ZM64.2023 17.7854C63.5169 17.121 62.9746 16.3194 62.6095 15.4312C62.2445 14.5431 62.0646 13.5876 62.0815 12.6252C62.0689 11.6525 62.2503 10.6871 62.6148 9.78745C62.9793 8.88785 63.5193 8.07249 64.2023 7.39066C65.3893 6.17338 66.9555 5.41273 68.6332 5.23872C70.311 5.06471 71.9961 5.48812 73.4007 6.4366C73.4837 6.08148 73.6888 5.76816 73.9791 5.55307C74.2877 5.31598 74.6664 5.19173 75.0532 5.20044C75.2549 5.19942 75.4557 5.23924 75.6425 5.3176C75.83 5.39596 75.9996 5.51129 76.1425 5.6569C76.292 5.7969 76.4118 5.96751 76.4921 6.15757C76.5732 6.34763 76.6134 6.55286 76.6104 6.75985V18.1086C76.6209 19.0452 76.4363 19.9733 76.0688 20.8322C75.7013 21.6911 75.1596 22.4613 74.4781 23.0925C73.8011 23.7656 72.999 24.2954 72.1187 24.6512C71.2384 25.007 70.2972 25.1817 69.35 25.1651C68.2488 25.1765 67.1605 24.9248 66.1727 24.4305C65.9799 24.3511 65.8068 24.2295 65.6655 24.0745C65.5243 23.9193 65.4183 23.7346 65.3552 23.5333C65.2846 23.3349 65.2561 23.1235 65.2717 22.9131C65.2874 22.7028 65.3467 22.4981 65.4458 22.3128C65.5402 22.1259 65.6707 21.9603 65.8293 21.8257C65.9879 21.6911 66.1716 21.5902 66.3694 21.5291C66.7806 21.3919 67.2273 21.4128 67.6245 21.5879C68.2436 21.8829 68.923 22.0239 69.6064 21.9993C70.4521 21.9812 71.2653 21.6647 71.9065 21.1041C72.6192 20.5431 73.117 19.747 73.3139 18.8531C72.1381 19.6391 70.7572 20.0485 69.35 20.0285C68.3863 20.0431 67.4304 19.8516 66.5442 19.4666C65.658 19.0815 64.8614 18.5113 64.2061 17.7932" fill="#808080"></path> <path d="M82.9188 9.52827C82.1881 10.3689 81.7998 11.4598 81.831 12.5804C81.8028 13.7219 82.1896 14.8338 82.9188 15.7032C83.7052 16.4052 84.7163 16.7923 85.7631 16.7923C86.8099 16.7923 87.821 16.4052 88.6081 15.7032C89.3893 14.8598 89.8134 13.7385 89.7896 12.5804C89.8045 12.0165 89.707 11.4552 89.5046 10.93C89.3015 10.4048 88.9972 9.92614 88.6096 9.5224C87.8314 8.80391 86.8166 8.40588 85.7653 8.40588C84.7133 8.40588 83.6992 8.80391 82.9202 9.5224L82.9188 9.52827ZM85.8256 19.9916C84.8621 20.0104 83.9053 19.8267 83.0147 19.4522C82.1242 19.0776 81.3199 18.5203 80.651 17.8151C79.9688 17.1391 79.4294 16.3293 79.0648 15.4349C78.7003 14.5403 78.518 13.5799 78.5306 12.6118C78.5195 11.6401 78.7025 10.6764 79.0693 9.77891C79.4353 8.88139 79.9777 8.069 80.6629 7.39092C81.3236 6.68723 82.1197 6.12955 83.0021 5.7527C83.8845 5.37585 84.8338 5.18794 85.7913 5.2007C86.7481 5.18699 87.6967 5.37825 88.5761 5.76203C89.4555 6.14582 90.2457 6.71351 90.8944 7.42814C91.573 8.12115 92.1079 8.94475 92.4695 9.85067C92.8303 10.7565 93.0104 11.7265 92.9977 12.7038C92.9977 14.7439 92.2909 16.43 90.8773 17.7622C89.5471 19.251 87.8626 19.9961 85.8241 19.9974" fill="#808080"></path> <path d="M50.8654 8.13428C51.6057 7.33759 52.6269 6.9386 53.9289 6.9373C54.5911 6.91873 55.2492 7.04779 55.8569 7.31539C56.3525 7.5374 56.7725 7.9034 57.0639 8.36739C57.3365 8.80412 57.539 9.28229 57.6634 9.7838C57.7881 10.325 57.8483 10.8795 57.8428 11.4352H49.6295C49.7208 10.0326 50.136 8.93226 50.875 8.13428H50.8654ZM49.3693 18.2293C50.517 19.4556 52.1391 20.0688 54.2355 20.0688C55.0272 20.074 55.8147 19.9511 56.5684 19.7044C57.1295 19.5396 57.6678 19.3033 58.1705 19.0012C58.4699 18.805 58.7495 18.5792 59.0053 18.3272C59.1047 18.2371 59.185 18.1275 59.2413 18.0049C59.2977 17.8824 59.3289 17.7494 59.3331 17.6141C59.3351 17.4953 59.3139 17.3774 59.2705 17.267C59.2271 17.1567 59.1625 17.0562 59.0805 16.9715C58.9999 16.8857 58.9025 16.8178 58.7946 16.7722C58.6867 16.7267 58.5707 16.7045 58.4539 16.7071C58.2553 16.7167 58.0637 16.7848 57.9025 16.903C57.3989 17.2982 56.8483 17.6273 56.2638 17.8825C55.6173 18.1357 54.928 18.2562 54.2355 18.2371C52.8049 18.2371 51.6796 17.78 50.8596 16.8658C50.0395 15.9515 49.6295 14.7219 49.6295 13.1769H58.5445C58.7884 13.188 59.0307 13.1304 59.2444 13.0103C59.4287 12.8932 59.5618 12.7089 59.6164 12.4952C59.6775 12.3039 59.7202 12.107 59.7437 11.9074C59.7591 11.7403 59.7669 11.5051 59.7669 11.2021C59.7665 10.8043 59.7336 10.4072 59.6685 10.015C59.5935 9.57075 59.4865 9.13268 59.3485 8.70435C59.2003 8.23078 58.9762 7.78529 58.6853 7.38591C58.3799 6.96893 58.0243 6.59248 57.6268 6.26534C57.1616 5.89449 56.6299 5.61903 56.0613 5.45429C55.3726 5.25022 54.6578 5.15119 53.9405 5.16043C51.9521 5.16043 50.4065 5.80627 49.3037 7.09793C48.2009 8.3896 47.6456 10.2193 47.6379 12.5872C47.6379 15.1209 48.2118 17.0016 49.3596 18.2293H49.3693ZM36.6484 8.13428C37.3888 7.33759 38.41 6.9386 39.712 6.9373C40.3742 6.91854 41.0323 7.0476 41.64 7.31539C42.1362 7.53643 42.5565 7.90266 42.8469 8.36739C43.1153 8.80523 43.3144 9.28319 43.4369 9.7838C43.5614 10.325 43.6216 10.8795 43.6161 11.4352H35.403C35.4916 10.0326 35.9062 8.93226 36.6465 8.13428H36.6484ZM35.1408 18.2293C36.2898 19.4556 37.9126 20.0688 40.0089 20.0688C40.8 20.0741 41.5869 19.9511 42.3399 19.7044C42.9014 19.5391 43.4403 19.3028 43.9439 19.0012C44.243 18.8045 44.5225 18.5788 44.7787 18.3272C44.8778 18.2369 44.9579 18.1272 45.0142 18.0046C45.0705 17.8821 45.1019 17.7493 45.1065 17.6141C45.1087 17.4952 45.0872 17.377 45.0435 17.2666C44.9997 17.1562 44.9347 17.0558 44.852 16.9715C44.7714 16.8857 44.674 16.8178 44.5661 16.7722C44.4583 16.7267 44.3422 16.7045 44.2254 16.7071C44.0268 16.717 43.8353 16.7849 43.674 16.903C43.1707 17.2985 42.62 17.6277 42.0352 17.8825C41.3894 18.1354 40.7008 18.256 40.0089 18.2371C38.5771 18.2371 37.4511 17.78 36.6311 16.8658C35.8111 15.9515 35.4017 14.7219 35.403 13.1769H44.316C44.56 13.1882 44.8022 13.1305 45.0159 13.0103C45.2001 12.8927 45.3337 12.7086 45.3899 12.4952C45.4514 12.3041 45.4933 12.1072 45.5152 11.9074C45.5307 11.7403 45.5383 11.5051 45.5383 11.2021C45.5377 10.8044 45.5055 10.4074 45.442 10.015C45.3662 9.57075 45.2586 9.13268 45.12 8.70435C44.9718 8.23078 44.7478 7.78529 44.4568 7.38591C44.1514 6.96537 43.7951 6.58559 43.3964 6.25555C42.9317 5.88508 42.4007 5.60965 41.8328 5.44449C41.144 5.24077 40.4294 5.14174 39.712 5.15063C37.7237 5.15063 36.178 5.79647 35.0752 7.08814C33.9724 8.3798 33.421 10.2128 33.421 12.5872C33.421 15.1209 33.9949 17.0016 35.1427 18.2293H35.1408ZM20.6327 17.7963C21.0903 18.3814 21.7856 18.9039 22.7188 19.3635C23.6999 19.8248 24.7708 20.0551 25.8517 20.0375C26.7485 20.0534 27.641 19.9101 28.4892 19.6143C29.226 19.3541 29.8697 18.8767 30.3382 18.243C30.8169 17.5732 31.0631 16.7607 31.038 15.9332C31.0477 15.3904 30.9294 14.853 30.6929 14.366C30.4807 13.9248 30.1674 13.5418 29.7791 13.2494C29.3694 12.9498 28.9346 12.6876 28.4796 12.4657C28.0022 12.2237 27.5111 12.0111 27.0086 11.829L25.5433 11.3041C25.1011 11.1492 24.6696 10.9646 24.2515 10.7516C23.8955 10.5732 23.5853 10.3129 23.3454 9.99143C23.1208 9.69087 23.0014 9.32271 23.0061 8.94533C23.0061 8.27728 23.2605 7.79925 23.7772 7.50538C24.3779 7.19205 25.0478 7.04093 25.7226 7.06659C26.3662 7.04854 27.0069 7.15971 27.6082 7.39375C28.1426 7.62788 28.6302 7.95986 29.0465 8.37326C29.214 8.54583 29.4418 8.64433 29.6804 8.64723C29.919 8.6502 30.1491 8.55734 30.3208 8.38894C30.4054 8.30707 30.4723 8.2082 30.5171 8.09855C30.562 7.98891 30.5838 7.87094 30.5811 7.75223C30.5722 7.53666 30.4937 7.33007 30.3575 7.16454C29.3845 5.84284 27.8421 5.18133 25.7303 5.18002C24.3601 5.18002 23.2393 5.49543 22.3679 6.12624C21.4964 6.75706 21.062 7.68894 21.0646 8.92179C21.0551 9.48398 21.1725 10.0409 21.4077 10.5498C21.6158 11.0089 21.9276 11.4117 22.3178 11.7252C22.7193 12.0372 23.1493 12.3094 23.6018 12.5382C24.0765 12.7821 24.5666 12.9935 25.069 13.171L26.5381 13.6862C26.9767 13.8392 27.4072 14.0151 27.8279 14.2132C28.1832 14.3742 28.4968 14.617 28.7437 14.9224C28.9698 15.2095 29.0904 15.5676 29.085 15.9352C29.1034 16.2717 29.0289 16.6066 28.8698 16.9023C28.7107 17.198 28.4734 17.4425 28.1846 17.6082C27.5831 17.9674 26.8055 18.1464 25.8517 18.145C24.2708 18.145 22.9791 17.6351 21.9765 16.615C21.8908 16.5209 21.7871 16.4456 21.6717 16.3937C21.5564 16.3418 21.4318 16.3145 21.3056 16.3133C21.1895 16.3112 21.0743 16.3328 20.9667 16.377C20.8591 16.4212 20.7613 16.4868 20.6793 16.5702C20.5972 16.6536 20.5325 16.7529 20.4891 16.8623C20.4457 16.9716 20.4243 17.0888 20.4264 17.2066C20.4343 17.4197 20.507 17.6251 20.6346 17.7944L20.6327 17.7963ZM6.37915 19.6221C6.47137 19.7142 6.58085 19.7863 6.70108 19.8344C6.82131 19.8826 6.94983 19.9057 7.07901 19.9023C7.20639 19.9052 7.33304 19.8819 7.45133 19.8338C7.56955 19.7856 7.67699 19.7135 7.76709 19.622C7.85718 19.5304 7.92809 19.4213 7.97555 19.3011C8.02295 19.1809 8.04586 19.0522 8.04296 18.9228V11.2531C8.04296 8.35632 9.39898 6.90725 12.111 6.90595C12.7299 6.88832 13.3467 6.98592 13.9311 7.19393C14.385 7.36016 14.7775 7.66458 15.0551 8.06572C15.3192 8.45438 15.5065 8.89148 15.6065 9.35279C15.7189 9.90823 15.7713 10.4745 15.7626 11.0415V18.9169C15.7588 19.048 15.7821 19.1786 15.8309 19.3C15.8797 19.4215 15.953 19.5312 16.046 19.6221C16.1385 19.7144 16.2483 19.7867 16.3688 19.8349C16.4894 19.8829 16.6183 19.9059 16.7478 19.9023C16.8752 19.9052 17.0018 19.8819 17.1201 19.8338C17.2384 19.7856 17.3459 19.7135 17.436 19.622C17.5261 19.5304 17.597 19.4213 17.6444 19.3011C17.6917 19.1809 17.7147 19.0522 17.7118 18.9228V10.6321C17.7149 10.0998 17.673 9.56822 17.5865 9.04324C17.4921 8.53119 17.3239 8.03608 17.0872 7.57402C16.8488 7.09163 16.5162 6.66369 16.1096 6.31627C15.629 5.93595 15.0803 5.65387 14.494 5.48563C13.7224 5.25559 12.9208 5.14594 12.1168 5.16043C11.2404 5.13812 10.3732 5.34595 9.59889 5.76382C8.93993 6.10755 8.40135 6.64934 8.0565 7.31539V6.31627C8.0594 6.18683 8.03641 6.05814 7.98902 5.93797C7.94163 5.8178 7.87073 5.70863 7.78063 5.61708C7.69053 5.52553 7.5831 5.45349 7.4648 5.40531C7.34654 5.35713 7.21989 5.3338 7.0925 5.33674C6.96149 5.33076 6.83065 5.35199 6.70799 5.39914C6.58534 5.4463 6.47344 5.51839 6.37915 5.61101C6.28639 5.70219 6.2133 5.81197 6.16451 5.93338C6.11572 6.05479 6.0923 6.18518 6.09573 6.31627V18.9169C6.09195 19.048 6.1152 19.1786 6.16401 19.3C6.21282 19.4215 6.2861 19.5312 6.37915 19.6221ZM0.460248 19.6221C0.552697 19.7144 0.66249 19.7867 0.783069 19.8349C0.903649 19.8829 1.03253 19.9059 1.16203 19.9023C1.28942 19.9052 1.41607 19.8819 1.53434 19.8338C1.6526 19.7856 1.76004 19.7135 1.85014 19.622C1.94023 19.5304 2.01113 19.4213 2.05855 19.3011C2.10597 19.1809 2.12892 19.0522 2.12603 18.9228V6.31627C2.12892 6.18683 2.10597 6.05814 2.05855 5.93797C2.01113 5.8178 1.94023 5.70863 1.85014 5.61708C1.76004 5.52553 1.6526 5.45349 1.53434 5.40531C1.41607 5.35713 1.28942 5.3338 1.16203 5.33674C1.03253 5.33313 0.903649 5.35607 0.783069 5.40421C0.66249 5.45234 0.552697 5.52468 0.460248 5.61689C0.36749 5.70808 0.294397 5.81785 0.245608 5.93926C0.19682 6.06066 0.1734 6.19106 0.176835 6.32215V18.9228C0.173044 19.0539 0.1963 19.1844 0.24511 19.3059C0.29392 19.4273 0.367203 19.5371 0.460248 19.6281V19.6221ZM0.304082 2.10431C0.419049 2.21219 0.554361 2.29524 0.70183 2.34844C0.849299 2.40165 1.00586 2.4239 1.16203 2.41384C1.31674 2.42381 1.47181 2.40149 1.61771 2.34826C1.7636 2.29503 1.89722 2.212 2.01034 2.10431C2.11438 1.98627 2.19435 1.84845 2.24565 1.69882C2.29695 1.54918 2.31854 1.3907 2.30918 1.23253C2.30918 0.414954 1.9268 0.00616455 1.16203 0.00616455C0.397268 0.00616455 0.0116717 0.414954 0.00524502 1.23253C-0.00465082 1.39122 0.0172437 1.5503 0.0696034 1.70015C0.121964 1.84999 0.203699 1.98749 0.309866 2.10431" fill="#808080"></path> <path d="M92.9985 19.8414C93.0037 20.0165 92.9575 20.1892 92.8653 20.3373C92.773 20.4853 92.6391 20.6019 92.4814 20.6724C92.3237 20.7427 92.1481 20.7636 91.9784 20.7323C91.8088 20.701 91.6526 20.6189 91.5291 20.4965C91.4056 20.3742 91.3207 20.2172 91.2858 20.0456C91.2508 19.8741 91.2672 19.6958 91.3326 19.5336C91.3974 19.3715 91.509 19.2329 91.6526 19.1355C91.7962 19.0382 91.9643 18.9865 92.1369 18.9873C92.2493 18.9852 92.3601 19.0057 92.4643 19.0476C92.5684 19.0896 92.6629 19.152 92.7433 19.2314C92.8236 19.3109 92.8876 19.4057 92.9315 19.5104C92.9754 19.6151 92.9977 19.7276 92.9985 19.8414ZM91.4852 19.8414C91.4829 19.9303 91.4978 20.0189 91.5298 20.1017C91.5618 20.1846 91.6094 20.2601 91.6704 20.3237C91.7314 20.3873 91.8051 20.4378 91.8854 20.4721C91.9665 20.5063 92.0536 20.5237 92.1406 20.5231C92.2269 20.5229 92.3125 20.5051 92.3914 20.4708C92.471 20.4364 92.5424 20.3863 92.6027 20.3232C92.6622 20.2602 92.709 20.1856 92.7403 20.1039C92.7715 20.0221 92.7857 19.9349 92.7827 19.8473C92.7879 19.7577 92.7745 19.668 92.744 19.5838C92.7135 19.4995 92.6666 19.4225 92.6056 19.3574C92.5454 19.2922 92.4717 19.2404 92.3906 19.2048C92.3095 19.1694 92.2225 19.1511 92.1339 19.1511C92.0461 19.1511 91.9583 19.1694 91.8773 19.2048C91.7962 19.2404 91.7233 19.2922 91.6622 19.3574C91.602 19.4225 91.5544 19.4995 91.5239 19.5838C91.4941 19.668 91.4807 19.7577 91.4852 19.8473V19.8414ZM92.0037 20.29H91.811V19.4339C91.9174 19.4149 92.0253 19.4064 92.1332 19.4085C92.2351 19.3996 92.337 19.4214 92.4263 19.4711C92.4539 19.4952 92.4754 19.5253 92.4896 19.5593C92.5037 19.5934 92.5097 19.6302 92.5074 19.6671C92.503 19.7144 92.4844 19.7593 92.4531 19.7948C92.4219 19.8301 92.3795 19.8541 92.3333 19.8629C92.3757 19.8806 92.4122 19.9094 92.439 19.9463C92.4665 19.9831 92.4829 20.0267 92.4881 20.0726C92.4955 20.1469 92.5163 20.2192 92.5498 20.2861H92.3378C92.3058 20.2199 92.2835 20.1492 92.2716 20.0764C92.2567 19.9825 92.2046 19.9413 92.0982 19.9413H92.006L92.0037 20.29ZM92.0037 19.8042H92.0967C92.2046 19.8042 92.2894 19.7689 92.2894 19.6788C92.2894 19.5887 92.2336 19.5495 92.1101 19.5495C92.0744 19.5461 92.038 19.5461 92.0022 19.5495L92.0037 19.8042Z" fill="#808080"></path> </g> <defs> <clipPath id="clip0_8762_17357"> <rect width="93" height="26" fill="white"></rect> </clipPath> </defs> </svg> 