<?xml version="1.0" encoding="UTF-8"?> <svg xmlns="http://www.w3.org/2000/svg" width="83" height="22" viewBox="0 0 83 22" fill="none"> <g clip-path="url(#clip0_8762_17314)"> <path d="M45.0964 2.75208C44.4084 2.06406 43.5328 1.50114 42.6571 1.12586C40.7807 0.312744 38.5915 0.312744 36.7151 1.12586C34.8387 1.87642 33.4001 3.37755 32.587 5.19142C32.1492 6.12962 31.9615 7.13038 31.9615 8.19368C31.9615 9.19443 32.1492 10.2577 32.587 11.1959C33.3376 13.0724 34.8387 14.5109 36.6526 15.324C37.5908 15.7619 38.5915 15.9495 39.6548 15.9495H39.8425V13.26H39.6548C38.9668 13.26 38.3414 13.1349 37.7159 12.8847C36.5275 12.3218 35.5893 11.3836 35.0264 10.1952C34.7762 9.56971 34.6511 8.8817 34.6511 8.25623C34.6511 7.56821 34.7762 6.94274 35.0889 6.31727C35.3391 5.69179 35.7144 5.19142 36.1522 4.69104C37.5908 3.25246 39.7799 2.81463 41.7189 3.62774C42.3444 3.87793 42.8447 4.25321 43.3451 4.69104C43.783 5.12887 44.1582 5.69179 44.4084 6.31727C44.6586 6.94274 44.7837 7.63075 44.7837 8.31877V16.0121H47.4107V8.19368C47.3481 6.19217 46.535 4.19066 45.0964 2.75208Z" fill="#808080"></path> <path d="M62.7973 2.75208C62.1093 2.06406 61.2336 1.50114 60.3579 1.06331C59.4197 0.625477 58.3564 0.437836 57.3557 0.437836C56.2924 0.437836 55.2916 0.625477 54.3534 1.06331C53.4152 1.43859 52.6021 2.00151 51.9141 2.68953C51.2261 3.37755 50.6631 4.25321 50.2253 5.12887C49.7875 6.06707 49.5998 7.06783 49.5998 8.13113L49.5373 21.5788H52.1643L52.2268 8.13113C52.2268 7.44311 52.3519 6.81764 52.6021 6.19217C52.8523 5.5667 53.2276 5.00377 53.6654 4.56594C54.1032 4.12811 54.6662 3.75283 55.2916 3.50264C55.9171 3.25246 56.6051 3.06481 57.2931 3.06481C57.9812 3.06481 58.6692 3.18991 59.2946 3.4401C59.9201 3.69028 60.483 4.06557 60.9209 4.56594C61.3587 5.00377 61.734 5.5667 61.9842 6.19217C62.2344 6.81764 62.3594 7.50566 62.3594 8.19368C62.3594 8.88169 62.2344 9.56971 61.9842 10.1952C61.734 10.8207 61.3587 11.3836 60.8583 11.8214C60.4205 12.2592 59.8576 12.6345 59.2321 12.8847C58.6066 13.1349 57.9186 13.26 57.2306 13.26H57.0429V15.887H57.2306C59.2946 15.887 61.2962 15.0739 62.7347 13.6353C63.4228 12.8847 63.9857 12.0716 64.361 11.1334C64.7988 10.1952 64.9864 9.13188 64.9864 8.13113C64.9864 7.13038 64.7988 6.06707 64.361 5.12887C64.0482 4.31576 63.4853 3.50264 62.7973 2.75208Z" fill="#808080"></path> <path d="M82.1869 5.19142C81.8116 4.25321 81.2487 3.4401 80.5606 2.75208C79.8726 2.06406 78.997 1.43859 78.1213 1.06331C77.1831 0.625477 76.1198 0.437836 75.119 0.437836C74.0557 0.437836 73.055 0.625477 72.1168 1.06331C71.1786 1.43859 70.3655 2.00151 69.6775 2.75208C68.9894 3.4401 68.4265 4.31576 67.9887 5.19142C67.5508 6.12962 67.3632 7.13038 67.3632 8.19368L67.3007 21.7038H69.9276L69.9902 8.13113C69.9902 7.44311 70.1153 6.75509 70.3655 6.12962C70.6157 5.50415 70.9909 4.94123 71.4288 4.5034C71.8666 4.06557 72.4295 3.69028 73.055 3.4401C74.3059 2.93972 75.7445 2.93972 77.058 3.4401C77.6835 3.69028 78.1839 4.06557 78.6842 4.56594C79.1221 5.06632 79.4973 5.5667 79.7475 6.19217C79.9977 6.81764 80.1228 7.50566 80.1228 8.19368C80.1228 8.88169 79.9977 9.56971 79.7475 10.1952C79.4973 10.8207 79.1221 11.321 78.6217 11.8214C78.1839 12.2592 77.6209 12.6345 76.9955 12.8847C76.37 13.1349 75.682 13.26 74.994 13.26H74.8063V15.887H74.994C77.058 15.887 79.0595 15.0739 80.4981 13.6353C81.1861 12.9473 81.749 12.0716 82.1243 11.1959C82.5622 10.2577 82.7498 9.19443 82.7498 8.19368C82.8123 7.13038 82.5621 6.12962 82.1869 5.19142Z" fill="#808080"></path> <path d="M29.0844 5.12888C28.7091 4.19067 28.1462 3.37756 27.3956 2.68954C26.7076 2.00152 25.8319 1.4386 24.9563 1.00077C22.7046 0.0625639 20.2027 0.187658 18.0761 1.37605C17.0753 2.00152 16.1997 2.81464 15.5117 3.81539C13.4476 0.750582 9.50713 -0.437813 6.06704 0.938223C5.12884 1.31351 4.31572 1.87643 3.62771 2.56445C2.87714 3.25247 2.31422 4.06558 1.93893 5.00378C1.56365 5.87944 1.37601 6.81765 1.31346 7.75586L1.25092 15.8244H3.94044V8.06859C3.94044 7.38057 4.06554 6.69256 4.31572 6.06709C4.56591 5.44161 4.94119 4.94124 5.44157 4.44086C5.94195 4.00303 6.44233 3.62775 7.0678 3.37756C7.69327 3.12737 8.38128 3.00228 9.0693 3.00228C10.4453 3.00228 11.6963 3.50265 12.697 4.50341C13.1349 4.94124 13.5101 5.44161 13.7603 6.06709C14.0105 6.69256 14.1356 7.38057 14.1356 8.06859V15.8244H16.7626V8.06859C16.7626 7.38057 16.8877 6.69256 17.2004 6.06709C17.4506 5.44161 17.8259 4.94124 18.3263 4.44086C18.8267 4.00303 19.327 3.62775 19.9525 3.37756C20.578 3.12737 21.266 3.00228 21.954 3.00228C22.642 3.00228 23.33 3.12737 23.9555 3.37756C24.581 3.62775 25.1439 4.00303 25.5817 4.44086C26.0196 4.87869 26.3948 5.44161 26.645 6.06709C26.8952 6.69256 27.0203 7.38057 27.0203 8.06859V15.887H29.6473V8.13114C29.6473 7.13039 29.4597 6.06709 29.0844 5.12888Z" fill="#808080"></path> </g> <defs> <clipPath id="clip0_8762_17314"> <rect width="83" height="21.8915" fill="white"></rect> </clipPath> </defs> </svg> 