<?xml version="1.0" encoding="UTF-8"?> <svg xmlns="http://www.w3.org/2000/svg" width="127" height="23" viewBox="0 0 127 23" fill="none"> <path d="M34.2783 6.59653C34.6187 6.59653 34.9104 6.86806 34.9104 7.21944V19.1187C34.9104 19.4542 34.6025 19.7257 34.2783 19.7257H32.6414C32.3335 19.7257 32.0255 19.4861 32.0255 19.1507V18.0486C31.199 19.2465 29.7727 20.0771 27.6982 20.0771C24.2298 20.0771 22.0905 17.809 22.0905 14.4389V7.1875C22.0905 6.85208 22.3984 6.58056 22.7226 6.58056H24.3595C24.6998 6.58056 24.9754 6.85208 24.9754 7.1875V13.9757C24.9754 16.1639 26.1423 17.6174 28.4437 17.6174C30.6965 17.6174 32.0255 16.116 32.0255 14.0076V7.1875C32.0255 6.85208 32.3335 6.58056 32.6414 6.58056H34.2783M10.1295 0C4.52182 0 0 4.29653 0 10.0306C0 15.7806 4.52182 20.0611 10.1295 20.0611C11.0858 20.0611 12.0096 19.9333 12.8848 19.6938L13.9869 22.4889C14.1003 22.7924 14.3272 22.984 14.7324 22.984H16.4828C16.9042 22.984 17.2121 22.7125 17.0176 22.1854L15.5914 18.5278C18.3952 16.7868 20.2591 13.7042 20.2591 10.0146C20.2591 4.29653 15.7372 0 10.1295 0ZM14.5379 15.8604L13.2575 12.5861C13.1441 12.3146 12.9172 12.059 12.431 12.059H10.7616C10.3402 12.059 10.0161 12.3306 10.2106 12.8576L11.8961 17.1542C11.3451 17.2979 10.7454 17.3618 10.1295 17.3618C6.0291 17.3618 3.11179 14.1833 3.11179 10.0306C3.11179 5.87778 6.0291 2.69931 10.1295 2.69931C14.23 2.69931 17.1473 5.87778 17.1473 10.0306C17.1473 12.4583 16.1586 14.5347 14.5379 15.8604ZM126.951 19.0549C127.097 19.3903 126.919 19.7097 126.514 19.7097H124.682C124.342 19.7097 124.066 19.55 123.953 19.2146L120.566 10.2382L117.13 19.2146C116.984 19.566 116.741 19.7097 116.4 19.7097H114.764C114.423 19.7097 114.18 19.566 114.034 19.2146L110.566 10.1903L107.146 19.2146C107 19.55 106.757 19.7097 106.417 19.7097H104.699C104.358 19.7097 104.115 19.55 103.97 19.2146L100.582 10.1903L97.0814 19.2146C96.9356 19.566 96.6925 19.7097 96.3521 19.7097H94.7152C94.3748 19.7097 94.1317 19.566 93.9858 19.2146L90.5661 10.1903L87.1464 19.2146C87.0329 19.55 86.7574 19.7097 86.4171 19.7097H84.6343C84.2129 19.7097 84.0508 19.3743 84.1967 19.0549L88.8319 7.10764C88.9778 6.75625 89.2209 6.58056 89.5613 6.58056H91.5548C91.8951 6.58056 92.1382 6.74028 92.2841 7.10764L95.6228 15.8285L98.9291 7.10764C99.0749 6.75625 99.318 6.58056 99.6584 6.58056H101.619C101.96 6.58056 102.203 6.74028 102.349 7.10764L105.623 15.8285L108.897 7.10764C109.042 6.75625 109.285 6.58056 109.626 6.58056H111.603C111.943 6.58056 112.187 6.74028 112.332 7.10764L115.655 15.8285L118.896 7.10764C119.042 6.75625 119.285 6.58056 119.626 6.58056H121.619C121.96 6.58056 122.203 6.74028 122.349 7.10764L126.951 19.0549ZM50.1452 6.59653H48.5083C48.1679 6.59653 47.8762 6.86806 47.8762 7.21944V8.30556C47.0496 7.07569 45.4289 6.19722 43.5165 6.19722C39.9022 6.19722 36.8067 9.00833 36.8067 13.1132C36.8067 17.266 39.9185 20.0611 43.5003 20.0611C45.4451 20.0611 47.0172 19.1826 47.8924 17.9528V19.1028C47.8924 19.4382 48.2004 19.7097 48.5245 19.7097H50.1614C50.5018 19.7097 50.7773 19.4382 50.7773 19.1028V7.21944C50.7611 6.86806 50.4856 6.59653 50.1452 6.59653ZM43.8244 17.4417C41.4419 17.4417 39.7402 15.525 39.7402 13.1451C39.7402 10.7333 41.4257 8.88056 43.8244 8.88056C46.1907 8.88056 47.9086 10.7333 47.9086 13.1451C47.8924 15.541 46.1745 17.4417 43.8244 17.4417ZM69.675 17.8569C70.0315 18.2882 69.7236 18.6236 69.5291 18.7674C68.3946 19.6139 66.8873 20.0771 65.2504 20.0771C61.1175 20.0771 58.3623 17.0903 58.3623 13.1611C58.3623 9.23195 61.1175 6.21319 65.2504 6.21319C66.8873 6.21319 68.3784 6.67639 69.5291 7.52292C69.7236 7.66667 69.9991 7.95417 69.675 8.43333L68.897 9.50347C68.5891 9.91875 68.2325 9.80694 67.9246 9.61528C67.1953 9.18403 66.3363 8.81667 65.3476 8.81667C62.9328 8.81667 61.3282 10.7333 61.3282 13.1611C61.3282 15.5889 62.9328 17.4896 65.3476 17.4896C66.3525 17.4896 67.1466 17.1063 67.876 16.691C68.1839 16.5312 68.508 16.3875 68.8484 16.8347L69.675 17.8569ZM77.3896 6.22917C73.4999 6.22917 70.4043 9.23195 70.4043 13.1451C70.4043 17.0903 73.5161 20.0611 77.3896 20.0611C81.2794 20.0611 84.3749 17.0743 84.3749 13.1451C84.3911 9.24792 81.2794 6.22917 77.3896 6.22917ZM77.3896 17.4257C75.0071 17.4257 73.3054 15.541 73.3054 13.1611C73.3054 10.7493 74.9909 8.89653 77.3896 8.89653C79.7721 8.89653 81.4738 10.7493 81.4738 13.1611C81.4738 15.541 79.7883 17.4257 77.3896 17.4257ZM55.8826 0.351389C56.2392 0.351389 56.4985 0.654861 56.4985 0.974306V19.0868C56.4985 19.4222 56.2554 19.7097 55.8826 19.7097H54.2457C53.9053 19.7097 53.6136 19.4062 53.6136 19.0868V0.990278C53.6136 0.654861 53.9215 0.367361 54.2457 0.367361H55.8826" fill="#808080"></path> </svg> 