<?xml version="1.0" encoding="UTF-8"?> <svg xmlns="http://www.w3.org/2000/svg" width="24" height="24" viewBox="0 0 24 24" fill="none"> <path d="M20.6216 7.64474C20.417 6.86746 19.8034 6.25383 19.0261 6.03905C17.625 5.66064 12 5.66064 12 5.66064C12 5.66064 6.375 5.66064 4.96364 6.03905C4.18636 6.2436 3.58295 6.85724 3.36818 7.64474C3 9.0561 3 12.0016 3 12.0016C3 12.0016 3 14.947 3.37841 16.3584C3.58295 17.1356 4.19659 17.7493 4.97386 17.9641C6.375 18.3425 12 18.3425 12 18.3425C12 18.3425 17.625 18.3425 19.0364 17.9641C19.8136 17.7595 20.417 17.1459 20.6318 16.3584C21 14.947 21 12.0016 21 12.0016C21 12.0016 21 9.0561 20.6216 7.64474ZM10.1591 14.6811V9.32201L14.8636 12.0016L10.1591 14.6811Z" fill="#1A1A1A"></path> </svg> 