<?xml version="1.0" encoding="UTF-8"?> <svg xmlns="http://www.w3.org/2000/svg" width="366" height="216" viewBox="0 0 366 216" fill="none"><path fill-rule="evenodd" clip-rule="evenodd" d="M233.001 8C233.001 3.58172 229.419 0 225.001 0L36.0006 0C31.5824 0 28.0006 3.58172 28.0006 8L28.0006 63C28.0006 67.4183 31.5823 71 36.0006 71H43.4525C47.8164 71 51.3752 74.4972 51.4513 78.8604L51.621 88.5859C51.7 93.1129 48.0096 96.8033 43.4826 96.7242L9.99959 96.1397C5.58196 96.0625 1.93825 99.5812 1.86116 103.999L0.884055 159.99C0.806965 164.408 4.32561 168.052 8.74319 168.129L101.727 169.752C106.036 169.827 109.511 173.302 109.587 177.611L110.117 207.99C110.194 212.408 113.838 215.927 118.255 215.849L353.219 211.747C357.637 211.67 361.156 208.026 361.078 203.609L360.101 147.617C360.024 143.2 356.381 139.681 351.963 139.758L288.541 140.865C284.014 140.944 280.323 137.254 280.402 132.727L280.472 128.727C280.547 124.418 284.022 120.943 288.331 120.867L357.21 119.665C361.627 119.588 365.146 115.944 365.069 111.527L364.092 55.5351C364.015 51.1175 360.371 47.5988 355.953 47.6759L241.14 49.6804C236.668 49.7585 233.001 46.1545 233.001 41.6816L233.001 8Z" fill="white"></path></svg> 