<?xml version="1.0" encoding="UTF-8"?> <svg xmlns="http://www.w3.org/2000/svg" width="25" height="25" viewBox="0 0 25 25" fill="none"><path fill-rule="evenodd" clip-rule="evenodd" d="M12.8449 21.6576C19.1159 17.9516 22.3359 14.0176 22.3359 9.79763C22.3359 3.79563 15.5869 1.90763 12.3359 5.89963C9.08494 1.90763 2.33594 3.79563 2.33594 9.79763C2.33594 14.0176 5.55494 17.9506 11.8269 21.6576C11.9811 21.7488 12.1569 21.7969 12.3359 21.7969C12.515 21.7969 12.6908 21.7488 12.8449 21.6576ZM13.2469 8.20963C15.0129 4.30763 20.3359 5.33963 20.3359 9.79763C20.3359 13.0506 17.7199 16.3476 12.3359 19.6316C6.95294 16.3466 4.33594 13.0516 4.33594 9.79763C4.33594 5.33863 9.65894 4.30763 11.4249 8.20963C11.7799 8.99363 12.8919 8.99363 13.2469 8.20963Z" fill="#1A1A1A"></path></svg> 