<?xml version="1.0" encoding="UTF-8"?> <svg xmlns="http://www.w3.org/2000/svg" width="72" height="72" viewBox="0 0 72 72" fill="none"> <path fill-rule="evenodd" clip-rule="evenodd" d="M27 12H45V15H27V12ZM21 18V15H24H27V18H24H21ZM18 21V18H21V21H18ZM15 27L15 21H18V27H15ZM15 45H12L12 27H15L15 45ZM18 51H15V48V45H18V48V51ZM21 54H18V51H21V54ZM27 57H24H21V54H24H27V57ZM45 57V60H27V57H45ZM51 54V57H48H45V54H48H51ZM54 51V54H51V51H54ZM57 45V48V51H54V48V45H57ZM57 27H60V45H57L57 27ZM54 21H57V24L57 27H54V24V21ZM51 18H54V21H51V18ZM51 18V15H48H45V18H48H51ZM18 30H21H24H27H30H33H36H39H42H45H48H51H54V33V36H51V39H48H45H42V36H39V33H36H33V36H30V39H27H24H21V36H18V33V30ZM46.5 42V45H43.5V48H40.5H37.5H34.5H31.5V51H34.5H37.5H40.5H43.5V48H46.5V45H49.5V42H46.5Z" fill="#1A1A1A"></path> </svg> 