<?xml version="1.0" encoding="UTF-8"?> <svg xmlns="http://www.w3.org/2000/svg" width="25" height="24" viewBox="0 0 25 24" fill="none"> <path d="M19.3461 4H5.65393C5.0166 4 4.5 4.5166 4.5 5.15393V18.8461C4.5 19.4834 5.0166 20 5.65393 20H19.3461C19.9834 20 20.5 19.4834 20.5 18.8461V5.15393C20.5 4.5166 19.9834 4 19.3461 4ZM10.1753 16.0938H8.22693V10.2321H10.1753V16.0938ZM9.20117 9.43164H9.18848C8.53467 9.43164 8.11182 8.98157 8.11182 8.41907C8.11182 7.84387 8.54761 7.40625 9.21411 7.40625C9.88062 7.40625 10.2908 7.84387 10.3035 8.41907C10.3035 8.98157 9.88062 9.43164 9.20117 9.43164ZM17.2007 16.0938H15.2526V12.9579C15.2526 12.1698 14.9705 11.6323 14.2655 11.6323C13.7273 11.6323 13.4067 11.9949 13.2659 12.3448C13.2144 12.4701 13.2018 12.6451 13.2018 12.8203V16.0938H11.2535C11.2535 16.0938 11.2791 10.782 11.2535 10.2321H13.2018V11.062C13.4607 10.6626 13.924 10.0945 14.9576 10.0945C16.2395 10.0945 17.2007 10.9323 17.2007 12.7327V16.0938Z" fill="black" fill-opacity="0.83"></path> </svg> 