<?xml version="1.0" encoding="UTF-8"?> <svg xmlns="http://www.w3.org/2000/svg" width="80" height="80" viewBox="0 0 80 80" fill="none"><path fill-rule="evenodd" clip-rule="evenodd" d="M41.667 13.3333L38.3337 13.3333H35.0003V16.6666H31.667V19.9999V23.3333V26.6666V29.9999V33.3333H28.3337H25.0003H21.667H18.3337H15.0003V36.6666H11.667V39.9999V43.3333V46.6666V49.9999V53.3333V56.6666V59.9999H15.0003V63.3333H18.3337V66.6666H21.667H25.0003H28.3337H31.667H35.0003H38.3337H41.667H45.0003H48.3337H51.667H55.0003H58.3337H61.667H65.0003V63.3333H68.3337V59.9999V56.6666V53.3333V49.9999V46.6666V43.3333V39.9999V36.6666V33.3333V29.9999V26.6666V23.3333V19.9999V16.6666H65.0003V13.3333H61.667H58.3337H55.0003H51.667H48.3337H45.0003H41.667ZM15.0003 59.9999V56.6666V53.3333V49.9999V46.6666V43.3333V39.9999V36.6666H18.3337H21.667H25.0003H28.3337H31.667V33.3333H35.0003V29.9999V26.6666V23.3333V19.9999V16.6666H38.3337H41.667H45.0003H48.3337H51.667H55.0003H58.3337H61.667V19.9999V23.3333V26.6666V29.9999V33.3333V36.6666V39.9999V43.3333V46.6666V49.9999V53.3333V56.6666V59.9999H58.3337H55.0003H51.667H48.3337H45.0003H41.667H38.3337H35.0003H31.667H28.3337H25.0003H21.667H18.3337H15.0003ZM51.667 26.6666V23.3333H48.3337V26.6666V29.9999V33.3333V36.6666V39.9999V43.3333V46.6666H45.0003H41.667H38.3337H35.0003V43.3333H38.3337V39.9999H35.0003V43.3333H31.667V46.6666H28.3337V49.9999H31.667V53.3333H35.0003V56.6666H38.3337V53.3333H35.0003V49.9999H38.3337H41.667H45.0003H48.3337V46.6666H51.667V43.3333V39.9999V36.6666V33.3333V29.9999V26.6666ZM35.0003 49.9999V46.6666H31.667V49.9999H35.0003Z" fill="#1A1A1A"></path></svg> 