<?xml version="1.0" encoding="UTF-8"?> <svg xmlns="http://www.w3.org/2000/svg" width="24" height="24" viewBox="0 0 24 24" fill="none"><path fill-rule="evenodd" clip-rule="evenodd" d="M6.95917 4.12901C6.54003 3.70986 6.74984 2.99307 7.32884 2.86609L12.0957 1.82066C12.6302 1.70345 13.1062 2.17948 12.989 2.71392L11.9435 7.48079C11.8166 8.05978 11.0998 8.2696 10.6806 7.85045L6.95917 4.12901ZM13.697 22.595C15.409 22.595 16.797 21.2071 16.797 19.495C16.797 17.7829 15.409 16.395 13.697 16.395C11.9849 16.395 10.597 17.7829 10.597 19.495C10.597 21.2071 11.9849 22.595 13.697 22.595ZM7.407 7.40262C7.01648 7.0121 6.38331 7.0121 5.99279 7.40262L3.69029 9.70512C2.03227 11.3631 2.03227 14.0513 3.69029 15.7093L3.69356 15.7126C5.35487 17.3703 8.045 17.3688 9.70451 15.7093L15.7095 9.70434C16.5886 8.82528 18.0135 8.82451 18.8936 9.70261C19.7715 10.5786 19.773 12.0004 18.897 12.8784L17.1252 14.6502C16.7347 15.0407 16.7347 15.6738 17.1252 16.0644C17.5158 16.4549 18.1489 16.4549 18.5394 16.0644L20.3128 14.291C21.969 12.6312 21.9661 9.94307 20.3062 8.28685C18.6449 6.62916 15.9548 6.63062 14.2953 8.29012L8.29029 14.2951C7.41124 15.1741 5.98625 15.1749 5.10451 14.2951C4.22753 13.4181 4.22753 11.9963 5.10451 11.1193L7.407 8.81684C7.79753 8.42631 7.79753 7.79315 7.407 7.40262Z" fill="black" fill-opacity="0.83"></path></svg> 