<?xml version="1.0" encoding="UTF-8"?> <svg xmlns="http://www.w3.org/2000/svg" width="24" height="24" viewBox="0 0 24 24" fill="none"><path fill-rule="evenodd" clip-rule="evenodd" d="M6.21972 4.0072C4.9934 4.00858 4 5.00309 4 6.22941V10.2239C4 10.7148 4.39797 11.1128 4.88889 11.1128H10.2222C10.7132 11.1128 11.1111 10.7148 11.1111 10.2239V4.89157C11.1111 4.40026 10.7125 4.00214 10.2212 4.00269L6.21972 4.0072ZM4 13.7865C4 13.296 4.39736 12.8981 4.88788 12.8976L10.2212 12.8915C10.7125 12.891 11.1111 13.2891 11.1111 13.7804V19.1128C11.1111 19.6037 10.7132 20.0017 10.2222 20.0017H6.22222C4.99492 20.0017 4 19.0067 4 17.7795V13.7865ZM12.8889 13.7865C12.8889 13.296 13.2862 12.8981 13.7768 12.8976L19.1101 12.8915C19.6014 12.891 20 13.2891 20 13.7804V17.7795C20 19.0067 19.0051 20.0017 17.7778 20.0017H13.7778C13.2868 20.0017 12.8889 19.6037 12.8889 19.1128V13.7865ZM12.8889 4.89759C12.8889 4.40706 13.2862 4.00925 13.7768 4.0087L17.7753 4.00419C19.0036 4.00281 20 4.99814 20 6.22641V10.2239C20 10.7148 19.602 11.1128 19.1111 11.1128H13.7778C13.2868 11.1128 12.8889 10.7148 12.8889 10.2239V4.89759Z" fill="black" fill-opacity="0.83"></path></svg> 