<?xml version="1.0" encoding="UTF-8"?> <svg xmlns="http://www.w3.org/2000/svg" width="24" height="24" viewBox="0 0 24 24" fill="none"><path d="M6.64046 5.22649C6.24993 4.83596 5.61677 4.83596 5.22624 5.22649C4.83572 5.61701 4.83572 6.25018 5.22624 6.6407L10.5858 12.0003L5.22624 17.3598C4.83572 17.7503 4.83572 18.3835 5.22624 18.774C5.61677 19.1646 6.24993 19.1646 6.64046 18.774L12 13.4145L17.3596 18.774C17.7501 19.1646 18.3833 19.1646 18.7738 18.774C19.1643 18.3835 19.1643 17.7503 18.7738 17.3598L13.4142 12.0003L18.7738 6.6407C19.1643 6.25018 19.1643 5.61701 18.7738 5.22649C18.3833 4.83596 17.7501 4.83596 17.3596 5.22649L12 10.586L6.64046 5.22649Z" fill="black" fill-opacity="0.83"></path></svg> 