<?xml version="1.0" encoding="UTF-8"?> <svg xmlns="http://www.w3.org/2000/svg" width="24" height="24" viewBox="0 0 24 24" fill="none"><path d="M5.20486 5H18.7951C19.9095 5 20.3137 5.11603 20.7211 5.33392C21.1285 5.5518 21.4482 5.87154 21.6661 6.27894C21.884 6.68635 22 7.09046 22 8.20486V15.7951C22 16.9095 21.884 17.3137 21.6661 17.7211C21.4482 18.1285 21.1285 18.4482 20.7211 18.6661C20.3137 18.884 19.9095 19 18.7951 19H5.20486C4.09046 19 3.68635 18.884 3.27894 18.6661C2.87154 18.4482 2.5518 18.1285 2.33392 17.7211C2.11603 17.3137 2 16.9095 2 15.7951V8.20486C2 7.09046 2.11603 6.68635 2.33392 6.27894C2.5518 5.87154 2.87154 5.5518 3.27894 5.33392C3.68635 5.11603 4.09046 5 5.20486 5ZM5.20486 7C4.77844 7 4.51125 7.01899 4.35599 7.04897C4.29517 7.06072 4.28173 7.06567 4.22214 7.09754C4.16327 7.12903 4.12903 7.16327 4.09754 7.22214C4.06567 7.28173 4.06072 7.29517 4.04897 7.35599C4.01899 7.51125 4 7.77844 4 8.20486V15.7951C4 16.2216 4.01899 16.4887 4.04897 16.644C4.06072 16.7048 4.06567 16.7183 4.09754 16.7779C4.12903 16.8367 4.16327 16.871 4.22214 16.9025C4.28173 16.9343 4.29517 16.9393 4.35599 16.951C4.51125 16.981 4.77844 17 5.20486 17H18.7951C19.2216 17 19.4887 16.981 19.644 16.951C19.7048 16.9393 19.7183 16.9343 19.7779 16.9025C19.8367 16.871 19.871 16.8367 19.9025 16.7779C19.9343 16.7183 19.9393 16.7048 19.951 16.644C19.981 16.4887 20 16.2216 20 15.7951V8.20486C20 7.77844 19.981 7.51125 19.951 7.35599C19.9393 7.29517 19.9343 7.28173 19.9025 7.22214C19.871 7.16327 19.8367 7.12903 19.7779 7.09754C19.7183 7.06567 19.7048 7.06072 19.644 7.04897C19.4887 7.01899 19.2216 7 18.7951 7H5.20486ZM6.75 8.85C7.38513 8.85 7.9 9.36487 7.9 10C7.9 10.6351 7.38513 11.15 6.75 11.15C6.11487 11.15 5.6 10.6351 5.6 10C5.6 9.36487 6.11487 8.85 6.75 8.85ZM10.25 8.85C10.8851 8.85 11.4 9.36487 11.4 10C11.4 10.6351 10.8851 11.15 10.25 11.15C9.61487 11.15 9.1 10.6351 9.1 10C9.1 9.36487 9.61487 8.85 10.25 8.85ZM13.75 8.85C14.3851 8.85 14.9 9.36487 14.9 10C14.9 10.6351 14.3851 11.15 13.75 11.15C13.1149 11.15 12.6 10.6351 12.6 10C12.6 9.36487 13.1149 8.85 13.75 8.85ZM17.25 8.85C17.8851 8.85 18.4 9.36487 18.4 10C18.4 10.6351 17.8851 11.15 17.25 11.15C16.6149 11.15 16.1 10.6351 16.1 10C16.1 9.36487 16.6149 8.85 17.25 8.85ZM17.25 12.85C17.8851 12.85 18.4 13.3649 18.4 14C18.4 14.6351 17.8851 15.15 17.25 15.15C16.6149 15.15 16.1 14.6351 16.1 14C16.1 13.3649 16.6149 12.85 17.25 12.85ZM6.75 12.85C7.38513 12.85 7.9 13.3649 7.9 14C7.9 14.6351 7.38513 15.15 6.75 15.15C6.11487 15.15 5.6 14.6351 5.6 14C5.6 13.3649 6.11487 12.85 6.75 12.85ZM10 13H14C14.5523 13 15 13.4477 15 14C15 14.5523 14.5523 15 14 15H10C9.44772 15 9 14.5523 9 14C9 13.4477 9.44772 13 10 13Z" fill="black" fill-opacity="0.83"></path></svg> 