<?xml version="1.0" encoding="UTF-8"?> <svg xmlns="http://www.w3.org/2000/svg" width="24" height="24" viewBox="0 0 24 24" fill="none"><path fill-rule="evenodd" clip-rule="evenodd" d="M2 9.00195C2 7.60195 2 6.90195 2.272 6.36695C2.51173 5.89631 2.89435 5.51368 3.365 5.27395C3.9 5.00195 4.6 5.00195 6 5.00195H18C19.4 5.00195 20.1 5.00195 20.635 5.27395C21.1053 5.51385 21.4875 5.89646 21.727 6.36695C22 6.90195 22 7.60195 22 9.00195H2ZM2 11.002H22V15.002C22 16.402 22 17.102 21.727 17.637C21.4874 18.1071 21.1051 18.4893 20.635 18.729C20.1 19.002 19.4 19.002 18 19.002H6C4.6 19.002 3.9 19.002 3.365 18.729C2.89451 18.4895 2.5119 18.1072 2.272 17.637C2 17.102 2 16.402 2 15.002V11.002ZM5 15.002C5 15.2672 5.10536 15.5215 5.29289 15.7091C5.48043 15.8966 5.73478 16.002 6 16.002H9C9.26522 16.002 9.51957 15.8966 9.70711 15.7091C9.89464 15.5215 10 15.2672 10 15.002C10 14.7367 9.89464 14.4824 9.70711 14.2948C9.51957 14.1073 9.26522 14.002 9 14.002H6C5.73478 14.002 5.48043 14.1073 5.29289 14.2948C5.10536 14.4824 5 14.7367 5 15.002Z" fill="black" fill-opacity="0.83"></path></svg> 