<?xml version="1.0" encoding="UTF-8"?> <svg xmlns="http://www.w3.org/2000/svg" width="24" height="24" viewBox="0 0 24 24" fill="none"><path fill-rule="evenodd" clip-rule="evenodd" d="M10.9568 8.98653C11.5974 8.18615 12.358 7.31559 13.2588 6.43513C16.6918 2.97314 20.515 2.76302 20.8653 3.13323C21.2456 3.49343 21.0154 7.28564 17.5625 10.7576C16.6817 11.6581 15.821 12.4185 15.0103 13.0589L15.0104 15.6206C15.0116 16.4945 15.0117 16.5422 14.4098 16.9911C14.3453 17.0384 14.2409 17.1194 14.1034 17.226C13.5131 17.6834 12.3129 18.6136 11.0469 19.3924C10.6666 19.6226 10.3463 19.4325 10.5965 19.0923C11.1622 18.3159 11.6357 17.4765 12.0077 16.5909C12.2879 15.9305 12.2879 15.3302 12.0077 14.8099C11.0069 15.1301 10.1862 15.03 9.57562 14.4396C8.9551 13.8393 8.87503 12.9989 9.19531 11.9882C8.62762 11.7076 7.96145 11.7076 7.39376 11.9882C6.63312 12.2684 5.81241 12.7487 4.89162 13.3891C4.53131 13.6492 4.34115 13.3291 4.59137 12.9489C5.4022 11.6036 6.39888 10.3475 6.83178 9.80195C6.90115 9.71455 6.9561 9.64527 6.99342 9.59694C7.44381 8.99656 7.49385 8.99656 8.4947 8.99656H10.9268L10.9568 8.98653ZM7.88418 14.3896C7.93774 14.4485 7.77631 14.5791 7.51109 14.7936C6.78522 15.3806 5.28196 16.5961 5.28196 18.692C7.38725 18.692 8.60625 17.2082 9.19633 16.49C9.41416 16.2248 9.54628 16.064 9.60566 16.1206C9.80583 16.3207 9.13525 17.9517 7.98427 19.0923C6.66202 20.3951 4.85429 21.0847 3 20.9934C3 18.692 3.75065 17.1512 4.90163 16.0105C6.05262 14.8599 7.674 14.1895 7.88418 14.4096V14.3896Z" fill="black" fill-opacity="0.83"></path></svg> 