<?xml version="1.0" encoding="UTF-8"?> <svg xmlns="http://www.w3.org/2000/svg" width="135" height="40" fill="none"> <path fill="#1A1A1A" d="M24.26 9.85a5.77 5.77 0 0 0 1.32-4.13 5.87 5.87 0 0 0-3.8 1.97 5.49 5.49 0 0 0-1.36 3.97 4.85 4.85 0 0 0 3.84-1.8ZM27.49 19.43a5.86 5.86 0 0 1 2.79-4.92 6 6 0 0 0-4.73-2.55c-1.21-.13-2.4.35-3.38.73-.62.25-1.15.46-1.54.46-.45 0-1-.22-1.61-.47-.8-.32-1.71-.68-2.67-.66a6.3 6.3 0 0 0-5.3 3.22c-2.28 3.97-.57 9.8 1.62 13 1.1 1.57 2.38 3.32 4.06 3.26a5 5 0 0 0 1.86-.5 5.54 5.54 0 0 1 2.38-.55c1 0 1.64.27 2.25.54.6.25 1.16.49 2 .47 1.76-.03 2.87-1.58 3.93-3.16.79-1.12 1.4-2.35 1.8-3.66a5.66 5.66 0 0 1-3.46-5.21Z"></path> <path fill="#1A1A1A" fill-rule="evenodd" d="M45.57 26.65h4.73L51.44 30h2.04L48.99 17.6h-2.08L42.43 30h2l1.14-3.35Zm4.24-1.55h-3.75l1.85-5.45h.05l1.85 5.45ZM63.16 25.48c0 2.81-1.5 4.62-3.78 4.62a3.07 3.07 0 0 1-2.85-1.58h-.04V33h-1.86V20.95h1.8v1.5h.03a3.21 3.21 0 0 1 2.89-1.6c2.3 0 3.81 1.82 3.81 4.63Zm-1.91 0c0-1.83-.95-3.04-2.4-3.04-1.41 0-2.37 1.23-2.37 3.04 0 1.82.96 3.04 2.38 3.04 1.44 0 2.39-1.2 2.39-3.04ZM69.35 30.1c2.27 0 3.77-1.8 3.77-4.62 0-2.8-1.51-4.62-3.8-4.62a3.21 3.21 0 0 0-2.9 1.6h-.03v-1.5h-1.8V33h1.86v-4.48h.05a3.07 3.07 0 0 0 2.85 1.58Zm-.53-7.66c1.45 0 2.4 1.2 2.4 3.04 0 1.85-.95 3.04-2.4 3.04-1.42 0-2.37-1.22-2.37-3.04 0-1.8.95-3.04 2.37-3.04Z" clip-rule="evenodd"></path> <path fill="#1A1A1A" d="M79.71 26.55c.14 1.23 1.33 2.04 2.97 2.04 1.57 0 2.7-.81 2.7-1.92 0-.97-.69-1.55-2.3-1.94l-1.6-.39c-2.29-.55-3.34-1.62-3.34-3.35 0-2.14 1.86-3.61 4.51-3.61 2.63 0 4.43 1.47 4.49 3.61h-1.88c-.11-1.24-1.14-1.98-2.63-1.98-1.5 0-2.52.75-2.52 1.86 0 .87.65 1.39 2.25 1.79l1.37.33c2.55.6 3.6 1.63 3.6 3.44 0 2.33-1.85 3.78-4.79 3.78-2.75 0-4.61-1.42-4.73-3.67h1.9ZM91.35 20.95v-2.14h-1.87v2.14h-1.32v1.47h1.32v5.2c0 1.75.71 2.44 2.55 2.44.34 0 .69-.03 1.03-.09v-1.46c-.2.02-.4.04-.61.04-.76 0-1.1-.36-1.1-1.14v-4.99h1.72v-1.47h-1.72Z"></path> <path fill="#1A1A1A" fill-rule="evenodd" d="M94.06 25.48c0-2.85 1.68-4.64 4.3-4.64s4.3 1.79 4.3 4.64c0 2.86-1.67 4.64-4.3 4.64s-4.3-1.79-4.3-4.64Zm6.7 0c0-1.96-.9-3.1-2.4-3.1s-2.4 1.15-2.4 3.1c0 1.96.9 3.1 2.4 3.1s2.4-1.14 2.4-3.1Z" clip-rule="evenodd"></path> <path fill="#1A1A1A" d="M105.96 20.95h-1.77V30h1.85v-5.37a1.89 1.89 0 0 1 1.15-1.94c.25-.1.52-.15.8-.14.27 0 .56.03.83.11v-1.73c-.21-.05-.43-.07-.64-.07a2.16 2.16 0 0 0-2.18 1.63h-.04v-1.54Z"></path> <path fill="#1A1A1A" fill-rule="evenodd" d="M117.38 27.35c-.25 1.64-1.85 2.77-3.9 2.77-2.63 0-4.26-1.77-4.26-4.6 0-2.84 1.64-4.68 4.19-4.68 2.5 0 4.08 1.72 4.08 4.47v.63h-6.4v.11a2.35 2.35 0 0 0 2.44 2.57 2.04 2.04 0 0 0 2.09-1.27h1.76Zm-6.28-2.7h4.53a2.17 2.17 0 0 0-2.22-2.3 2.3 2.3 0 0 0-2.3 2.3ZM47.03 8.1c-.37-.14-.77-.2-1.17-.17h-2.19V14h2.2c2.2 0 3.39-2.25 2.74-4.23a2.69 2.69 0 0 0-1.58-1.66Zm-1.27 5.04H44.6V8.8h1.15a1.91 1.91 0 0 1 1.93 1.34c.15.48.16 1.18 0 1.67a1.9 1.9 0 0 1-1.93 1.34ZM49.89 10.82a2.17 2.17 0 0 1 4.12 0c.18.53.18 1.25 0 1.78a2.17 2.17 0 0 1-4.12 0 3.06 3.06 0 0 1 0-1.78Zm3.29.89c0-1-.45-1.58-1.23-1.58-.79 0-1.23.59-1.23 1.58 0 1 .44 1.58 1.23 1.58.78 0 1.23-.58 1.23-1.58Z" clip-rule="evenodd"></path> <path fill="#1A1A1A" d="M58.92 14h.93l1.26-4.58h-.9l-.82 3.5h-.07l-.94-3.5h-.87l-.94 3.5h-.07l-.82-3.5h-.92L56.03 14h.92l.95-3.37h.07l.95 3.37ZM62.18 9.42h.87v.73h.06a1.37 1.37 0 0 1 1.37-.82 1.5 1.5 0 0 1 1.59 1.7V14h-.9v-2.74c0-.73-.33-1.1-1-1.1a1.05 1.05 0 0 0-1.09 1.16V14h-.9V9.42ZM68.41 7.63h-.9V14h.9V7.63Z"></path> <path fill="#1A1A1A" fill-rule="evenodd" d="M69.67 11.7a2.17 2.17 0 1 1 4.32 0 2.17 2.17 0 1 1-4.32 0Zm3.4 0c0-.98-.45-1.56-1.24-1.56-.78 0-1.23.58-1.23 1.57 0 1 .45 1.58 1.23 1.58.79 0 1.23-.58 1.23-1.58ZM76.65 11.34c-1.09.07-1.7.54-1.7 1.37a1.39 1.39 0 0 0 1.52 1.37 1.54 1.54 0 0 0 1.38-.72h.07V14h.87v-3.13c0-.97-.65-1.54-1.8-1.54-1.03 0-1.78.5-1.87 1.3H76c.1-.33.45-.52.95-.52.62 0 .94.28.94.76v.4l-1.24.07Zm1.24.6v.38a1.08 1.08 0 0 1-1.19 1c-.49 0-.85-.24-.85-.66 0-.4.3-.61.92-.66l1.12-.07ZM79.98 11.7c0-1.44.74-2.36 1.9-2.36a1.51 1.51 0 0 1 1.4.8h.08v-2.5h.9V14h-.87v-.72h-.07a1.6 1.6 0 0 1-1.44.8c-1.16 0-1.9-.92-1.9-2.37Zm.93 0c0 .98.46 1.57 1.23 1.57.76 0 1.23-.6 1.23-1.56 0-.95-.47-1.55-1.23-1.55s-1.23.59-1.23 1.55ZM88.1 10.82c-.1.28-.13.59-.1.89a2.17 2.17 0 1 0 4.32 0 2.17 2.17 0 0 0-4.22-.9Zm2.06-.69c.79 0 1.23.59 1.23 1.58 0 1-.44 1.58-1.23 1.58-.78 0-1.22-.58-1.22-1.58s.44-1.58 1.22-1.58Z" clip-rule="evenodd"></path> <path fill="#1A1A1A" d="M93.54 9.42h.87v.73h.07a1.37 1.37 0 0 1 1.36-.82 1.49 1.49 0 0 1 1.59 1.7V14h-.9v-2.74c0-.73-.32-1.1-1-1.1a1.05 1.05 0 0 0-1.09 1.16V14h-.9V9.42ZM102.33 9.44V8.28h-.91v1.16h-.73v.76h.73v2.6c0 .87.4 1.23 1.4 1.23.17 0 .34-.02.5-.05v-.75l-.35.02c-.45 0-.64-.21-.64-.7V10.2h.99v-.76h-1ZM104.55 7.63h.9v2.53h.07a1.4 1.4 0 0 1 1.4-.82 1.51 1.51 0 0 1 1.19.48c.3.32.39.72.39 1.22V14h-.9v-2.73c0-.74-.35-1.1-.99-1.1a1.08 1.08 0 0 0-1.15 1.16V14h-.9V7.63Z"></path> <path fill="#1A1A1A" fill-rule="evenodd" d="M113.02 13.79c.36-.24.63-.6.75-1.03h-.87a1.1 1.1 0 0 1-1.09.56 1.21 1.21 0 0 1-1.22-1.31v-.05h3.24v-.32c0-1.44-.77-2.3-2.05-2.3a2.12 2.12 0 0 0-2.04 1.49 3.41 3.41 0 0 0 0 1.79 2.07 2.07 0 0 0 2.05 1.47c.43.05.87-.06 1.23-.3Zm-.11-2.5h-2.32a1.17 1.17 0 0 1 1.19-1.19 1.1 1.1 0 0 1 1.06.73c.05.15.08.3.06.46Z" clip-rule="evenodd"></path> </svg> 