<?xml version="1.0" encoding="UTF-8"?> <svg xmlns="http://www.w3.org/2000/svg" width="135" height="40" fill="none"> <path fill="#1A1A1A" d="M46.29 9.46h.99c-.27-1.32-1.33-2.1-2.73-2.1-1.88 0-3.08 1.35-3.08 3.37 0 2.01 1.1 3.4 2.96 3.4.88 0 1.62-.3 2.03-.92l.04.8h.8v-3.37h-2.65v.88h1.7v.14c0 1.26-1.02 1.61-1.84 1.61-1.18 0-1.98-.93-1.98-2.54 0-1.65.85-2.5 1.98-2.5.96 0 1.56.47 1.78 1.23Z"></path> <path fill="#1A1A1A" fill-rule="evenodd" d="M52.92 12.59h-.95c-.2.46-.6.74-1.27.74-.75 0-1.32-.56-1.41-1.45h3.69c.1-1.58-.77-2.8-2.27-2.8-1.38 0-2.38 1-2.38 2.5 0 1.4.84 2.55 2.4 2.55 1.24 0 1.96-.74 2.19-1.54ZM52 11.14h-2.7c.12-.92.66-1.3 1.4-1.3.77 0 1.27.58 1.3 1.3Z" clip-rule="evenodd"></path> <path fill="#1A1A1A" d="M55.11 7.93h-.93v1.24h-.74v.7h.74v2.9c0 1 .21 1.24 1.2 1.24h.68v-.75h-.4c-.47 0-.55-.12-.55-.62V9.88h.96v-.71h-.96V7.93ZM60.2 8.52V7.48h-.93v1.04h.93ZM60.2 14.01V9.17h-.93V14h.93ZM62.68 7.93h-.94v1.24H61v.7h.74v2.9c0 1 .22 1.24 1.2 1.24h.68v-.75h-.4c-.46 0-.54-.12-.54-.62V9.88h.95v-.71h-.95V7.93Z"></path> <path fill="#1A1A1A" fill-rule="evenodd" d="M68.86 14.13c1.15 0 2.35-.78 2.35-2.52 0-1.76-1.2-2.53-2.35-2.53-1.15 0-2.35.77-2.35 2.53 0 1.74 1.2 2.52 2.35 2.52Zm1.36-2.52c0 1.18-.65 1.72-1.36 1.72-.7 0-1.36-.53-1.36-1.72 0-1.23.65-1.74 1.36-1.74.7 0 1.36.53 1.36 1.74Z" clip-rule="evenodd"></path> <path fill="#1A1A1A" d="M74.7 9.08c-.76 0-1.25.31-1.53.79v-.7h-.93V14h.93v-2.6c0-.96.4-1.55 1.21-1.55.88 0 1 .65 1 1.35v2.8h.93v-3.05c0-1.13-.45-1.88-1.62-1.88Z"></path> <path fill="#1A1A1A" fill-rule="evenodd" d="M63.87 26a4.2 4.2 0 0 1 4.27-4.25A4.2 4.2 0 0 1 72.41 26a4.2 4.2 0 0 1-4.27 4.25A4.2 4.2 0 0 1 63.87 26Zm1.87 0c0 1.52 1.11 2.58 2.4 2.58 1.29 0 2.4-1.05 2.4-2.58s-1.11-2.58-2.4-2.58c-1.29 0-2.4 1.06-2.4 2.58ZM54.56 26a4.2 4.2 0 0 1 4.27-4.25A4.2 4.2 0 0 1 63.1 26a4.2 4.2 0 0 1-4.27 4.25A4.2 4.2 0 0 1 54.56 26Zm1.87 0c0 1.52 1.11 2.58 2.4 2.58 1.29 0 2.4-1.05 2.4-2.58s-1.11-2.58-2.4-2.58c-1.29 0-2.4 1.06-2.4 2.58Z" clip-rule="evenodd"></path> <path fill="#1A1A1A" d="M47.75 24.85v-1.79h6.07c.07.32.1.71.1 1.13 0 1.35-.37 3.03-1.56 4.22a6.03 6.03 0 0 1-4.61 1.85 6.7 6.7 0 0 1-6.7-6.61 6.7 6.7 0 0 1 6.7-6.61 6.3 6.3 0 0 1 4.53 1.82l-1.27 1.27a4.74 4.74 0 0 0-7.99 3.51c0 2.66 2.08 4.8 4.74 4.8 1.72 0 2.7-.69 3.33-1.32a3.8 3.8 0 0 0 .98-2.27h-4.32Z"></path> <path fill="#1A1A1A" fill-rule="evenodd" d="M89.42 21.74c2.21 0 3.29 1.76 3.64 2.71h.01l.19.48-5.69 2.35a2.15 2.15 0 0 0 2.06 1.29c.95 0 1.61-.47 2.09-1.18l1.45.97a4.21 4.21 0 0 1-3.54 1.88 4.16 4.16 0 0 1-4.22-4.25c0-2.53 1.8-4.25 4.01-4.25Zm.06 1.65c-.95 0-2.27.84-2.22 2.48l3.8-1.58c-.21-.53-.84-.9-1.58-.9Z" clip-rule="evenodd"></path> <path fill="#1A1A1A" d="M84.51 29.99h-1.87v-12.5h1.87v12.5Z"></path> <path fill="#1A1A1A" fill-rule="evenodd" d="M79.52 22.69h.06V22h1.77v7.64c0 3.14-1.85 4.43-4.04 4.43a4.05 4.05 0 0 1-3.77-2.51l1.63-.68c.29.69 1 1.51 2.14 1.51 1.4 0 2.27-.87 2.27-2.5v-.61h-.06a2.9 2.9 0 0 1-2.24.97 4.2 4.2 0 0 1-4.08-4.24c0-2.4 1.95-4.27 4.08-4.27 1.02 0 1.82.45 2.24.95Zm-4.45 3.32c0 1.48 1.08 2.56 2.37 2.56 1.27 0 2.27-1.07 2.27-2.56s-.98-2.59-2.27-2.59-2.37 1.11-2.37 2.59ZM97.35 17.49h4.48c2.07 0 4.1 1.5 4.1 3.88s-2.03 3.88-4.1 3.88h-2.61v4.74h-1.87v-12.5Zm1.87 6.03h2.65v-.01c1.4 0 2.19-1.16 2.19-2.14 0-.98-.79-2.14-2.19-2.14h-2.65v4.29ZM110.07 23.63c.58-1.31 1.98-1.91 3.33-1.91l-.02-.01c2.14 0 3.8 1.24 3.8 3.46v4.79h-1.8V29h-.06a2.63 2.63 0 0 1-2.38 1.22c-1.64 0-3.1-1.08-3.1-2.75 0-1.83 1.81-2.81 3.6-2.81.89 0 1.61.29 1.95.48v-.13c-.01-1.03-1-1.61-1.96-1.61-.69 0-1.35.23-1.7.92l-1.66-.69Zm1.64 3.88c0 .75.85 1.06 1.46 1.06v.01c1.08 0 2.08-.82 2.22-1.98a3.3 3.3 0 0 0-1.7-.42c-.92 0-1.98.37-1.98 1.33Z" clip-rule="evenodd"></path> <path fill="#1A1A1A" d="m121.61 27.41 2.14-5.42h2.08l-5.13 11.79h-1.95l1.9-4.21-3.33-7.58h2.01l2.22 5.42h.06ZM108.81 29.99h-1.87v-12.5h1.87v12.5Z"></path> <path fill="#EA4335" d="m20.72 19.42-10.65 11.3a2.88 2.88 0 0 0 4.24 1.73l.03-.02 11.98-6.91-5.61-6.11.01.01Z"></path> <path fill="#FBBC04" d="M31.49 17.5h-.01l-5.17-3.01-5.83 5.19 5.85 5.85 5.15-2.97a2.88 2.88 0 0 0 .01-5.05v-.01Z"></path> <path fill="#4285F4" d="M10.07 9.28a3 3 0 0 0-.1.74v19.97c0 .26.03.5.1.74l11.01-11.01L10.07 9.28Z"></path> <path fill="#34A853" d="m20.8 20 5.51-5.51-11.97-6.94a2.89 2.89 0 0 0-4.27 1.72L20.8 19.99V20Z"></path> </svg> 