<?xml version="1.0" encoding="UTF-8"?> <svg xmlns="http://www.w3.org/2000/svg" width="16" height="16" viewBox="0 0 16 16" fill="none"><path fill-rule="evenodd" clip-rule="evenodd" d="M8 0C7.44772 0 7 0.447715 7 1V6.79226C7 7.26545 7.03359 7.73804 7.1005 8.20647L7.2375 9.16539L7.19145 9.21149L6.72702 8.46967C6.32679 7.8304 5.85552 7.23846 5.32221 6.70514L4.90969 6.29262C4.51946 5.9024 3.88679 5.9024 3.49656 6.29262C3.10634 6.68285 3.10634 7.31553 3.49656 7.70575L7.29613 11.5053C7.68685 11.8961 8.32041 11.8958 8.71085 11.5048L12.5042 7.706C12.8941 7.31556 12.8939 6.68304 12.5037 6.29288C12.1133 5.90251 11.4804 5.90251 11.0901 6.29288L10.6828 6.70016C10.151 7.23192 9.68093 7.82198 9.28144 8.45913L8.80927 9.21219L8.7625 9.16539L8.8995 8.20647C8.96641 7.73804 9 7.26545 9 6.79226V1C9 0.447715 8.55228 0 8 0ZM3 14C3 13.4478 3.44772 13 4 13L12 13.0029C12.5523 13.0029 13 13.4507 13 14.0029C13 14.5552 12.5523 15.0029 12 15.0029L4 15C3.44772 15 3 14.5523 3 14Z" fill="#1A1A1A"></path></svg> 