<?xml version="1.0" encoding="UTF-8"?> <svg xmlns="http://www.w3.org/2000/svg" width="964" height="30" viewBox="0 0 964 30" fill="none"><g clip-path="url(#clip0_20_6)"><path d="M26.9736 20C28.2884 17.3294 30.9724 15.5 34.0696 15.5L315.166 15.5001" stroke="#FF976B" stroke-width="3"></path><path d="M347.64 15C347.64 7.8203 341.826 2 334.654 2C327.482 2 321.667 7.8203 321.667 15C321.667 22.1797 327.482 28 334.654 28C341.826 28 347.64 22.1797 347.64 15Z" fill="#FF976B" stroke="#FF976B" stroke-width="3"></path><path d="M334.43 8.716C335.678 8.716 336.698 9.022 337.49 9.634C338.282 10.246 338.678 11.092 338.678 12.172C338.678 13.444 338.12 14.716 337.004 15.988C335.9 17.26 334.28 18.64 332.144 20.128H338.984V22H329.48V20.236C331.916 18.34 333.686 16.804 334.79 15.628C335.894 14.452 336.446 13.36 336.446 12.352C336.446 11.716 336.26 11.224 335.888 10.876C335.516 10.528 335 10.354 334.34 10.354C333.644 10.354 333.062 10.582 332.594 11.038C332.138 11.482 331.91 12.178 331.91 13.126H329.768C329.744 11.806 330.158 10.744 331.01 9.94C331.862 9.124 333.002 8.716 334.43 8.716Z" fill="#1A1A1A"></path><path d="M346.648 20C347.972 17.3294 350.675 15.5 353.793 15.5H635.837" stroke="#FF976B" stroke-width="3"></path><path d="M349.252 15.1932C348.853 15.4173 348.471 15.6699 348.109 15.948C348.039 16.0022 347.936 15.9463 347.944 15.8578C347.982 15.4502 347.997 15.1657 347.982 14.7704C347.98 14.7421 347.991 14.7147 348.011 14.6947C348.536 14.1709 348.936 13.5965 349.11 13.0235L349.39 12.3985C349.433 12.302 349.576 12.3295 349.581 12.4351L349.682 14.8869C349.684 14.9243 349.664 14.9595 349.632 14.978L349.252 15.1932Z" fill="#F2F1EE"></path><path d="M27.973 15C27.973 7.8203 22.1587 2 14.9865 2C7.81425 2 2 7.8203 2 15C2 22.1797 7.81425 28 14.9865 28C22.1587 28 27.973 22.1797 27.973 15Z" fill="#FF976B" stroke="#FF976B" stroke-width="3"></path><path d="M14.5154 22V12.064H11.5994V10.588C13.4894 10.534 14.4074 10.372 15.0734 8.95001H16.6574V22H14.5154Z" fill="#1A1A1A"></path><path d="M667.314 20C668.638 17.3294 671.143 15.5 674.261 15.5H847.583" stroke="#FF976B" stroke-width="3"></path><path d="M668.306 15C668.306 7.8203 662.491 2 655.319 2C648.147 2 642.333 7.8203 642.333 15C642.333 22.1797 648.147 28 655.319 28C662.491 28 668.306 22.1797 668.306 15Z" fill="#FF976B" stroke="#FF976B" stroke-width="3"></path><path d="M655.058 20.578C655.838 20.578 656.474 20.38 656.966 19.984C657.458 19.576 657.704 19.024 657.704 18.328C657.704 16.828 656.618 16.078 654.446 16.078H653.816V14.296H654.356C656.372 14.296 657.38 13.624 657.38 12.28C657.38 11.656 657.164 11.182 656.732 10.858C656.3 10.522 655.76 10.354 655.112 10.354C654.332 10.354 653.714 10.576 653.258 11.02C652.814 11.452 652.544 12.058 652.448 12.838H650.36C650.456 11.578 650.936 10.576 651.8 9.832C652.664 9.088 653.81 8.716 655.238 8.716C656.45 8.716 657.476 9.004 658.316 9.58C659.156 10.156 659.576 11.014 659.576 12.154C659.576 12.79 659.402 13.366 659.054 13.882C658.718 14.398 658.256 14.8 657.668 15.088C658.424 15.364 658.988 15.784 659.36 16.348C659.732 16.912 659.918 17.554 659.918 18.274C659.918 19.546 659.45 20.524 658.514 21.208C657.578 21.892 656.414 22.234 655.022 22.234C653.57 22.234 652.418 21.826 651.566 21.01C650.726 20.194 650.27 19.174 650.198 17.95H652.286C652.394 18.718 652.682 19.348 653.15 19.84C653.63 20.332 654.266 20.578 655.058 20.578Z" fill="#1A1A1A"></path><path d="M949 2H870C862.82 2 857 7.8203 857 15C857 22.1797 862.82 28 870 28H949C956.18 28 962 22.1797 962 15C962 7.8203 956.18 2 949 2Z" fill="#FF976B"></path><path d="M949 2H870C862.82 2 857 7.8203 857 15C857 22.1797 862.82 28 870 28H949C956.18 28 962 22.1797 962 15C962 7.8203 956.18 2 949 2Z" stroke="#FF976B" stroke-width="3"></path><path d="M884.548 20L879.636 10.736V20H877.668V8.40002H880.388L885.3 17.664V8.40002H887.268V20H884.548ZM890.87 16.24C890.998 17.84 892.118 18.624 893.206 18.624C894.198 18.624 894.982 18.224 895.318 17.424H897.19C896.79 18.8 895.51 20.208 893.286 20.208C890.518 20.208 888.934 18.096 888.934 15.632C888.934 13.04 890.71 11.2 893.158 11.2C895.798 11.2 897.446 13.344 897.286 16.24H890.87ZM890.87 14.848H895.35C895.302 13.504 894.278 12.688 893.158 12.688C892.262 12.688 891.03 13.216 890.87 14.848ZM902.599 11.392H904.567L906.055 17.504L907.319 11.392H909.383L907.095 20H905.287L903.591 13.632L901.895 20H900.087L897.799 11.392H899.863L901.127 17.504L902.599 11.392ZM919.14 13.744C918.932 12.96 918.212 12.656 917.252 12.656C916.42 12.656 915.652 13.024 915.652 13.6C915.652 14.176 916.068 14.48 916.804 14.624L918.02 14.864C919.764 15.2 921.092 15.744 921.092 17.424C921.092 19.216 919.396 20.208 917.444 20.208C915.332 20.208 913.924 19.008 913.716 17.376H915.572C915.748 18.256 916.388 18.768 917.508 18.768C918.5 18.768 919.236 18.352 919.236 17.648C919.236 16.944 918.596 16.624 917.748 16.464L916.452 16.208C914.996 15.92 913.86 15.264 913.86 13.696C913.86 12.176 915.492 11.2 917.364 11.2C919.044 11.2 920.58 12.016 920.932 13.744H919.14ZM924.554 8.40002V14.848L927.738 11.392H930.026L926.73 14.928L930.394 20H928.17L925.466 16.272L924.554 17.248V20H922.65V8.40002H924.554ZM933.117 8.40002V10.32H931.213V8.40002H933.117ZM933.117 11.392V20H931.213V11.392H933.117ZM937.164 20H935.26V8.40002H937.164V20ZM941.21 20H939.306V8.40002H941.21V20Z" fill="#1A1A1A"></path><path d="M29.5383 15.1932C29.1388 15.4173 28.757 15.6699 28.3954 15.948C28.3249 16.0022 28.2221 15.9463 28.2304 15.8578C28.2683 15.4502 28.283 15.1657 28.2677 14.7704C28.2666 14.7421 28.2774 14.7147 28.2974 14.6947C28.8219 14.1709 29.2226 13.5965 29.3966 13.0235L29.6758 12.3985C29.7188 12.302 29.8626 12.3295 29.867 12.4351L29.9686 14.8869C29.9701 14.9243 29.9506 14.9595 29.918 14.978L29.5383 15.1932Z" fill="#F2F1EE"></path><path d="M669.778 15.1932C669.378 15.4173 668.996 15.6699 668.635 15.948C668.564 16.0022 668.461 15.9463 668.47 15.8578C668.508 15.4502 668.522 15.1657 668.507 14.7704C668.506 14.7421 668.517 14.7147 668.537 14.6947C669.061 14.1709 669.462 13.5965 669.636 13.0235L669.915 12.3985C669.958 12.302 670.102 12.3295 670.106 12.4351L670.208 14.8869C670.209 14.9243 670.19 14.9595 670.157 14.978L669.778 15.1932Z" fill="#F2F1EE"></path></g><defs><clipPath id="clip0_20_6"><rect width="964" height="30" fill="white"></rect></clipPath></defs></svg> 