<?xml version="1.0" encoding="UTF-8"?> <svg xmlns="http://www.w3.org/2000/svg" width="57" height="56" viewBox="0 0 57 56" fill="none"><path fill-rule="evenodd" clip-rule="evenodd" d="M10.9999 12.8335L8.66659 12.8335V15.1668H6.33325V17.5002V19.8335V22.1668V24.5002L6.33325 26.8335V29.1668V31.5002V33.8335V36.1668V38.5002H8.66659V40.8335H10.9999V43.1668H13.3333H15.6666H17.9999H20.3333H22.6666H24.9999H27.3333H29.6666H31.9999H34.3333H36.6666H38.9999H41.3333H43.6666H45.9999H48.3333V40.8335H50.6666V38.5002V36.1668V33.8335V31.5002V29.1668V26.8335V24.5002V22.1668V19.8335V17.5002H48.3333V15.1668H45.9999V12.8335H43.6666H41.3333H38.9999H36.6666H34.3333H31.9999H29.6666H27.3333H24.9999H22.6666H20.3333H17.9999H15.6666H13.3333H10.9999ZM10.9999 38.5002H13.3333H15.6666H17.9999H20.3333H22.6666H24.9999H27.3333H29.6666H31.9999H34.3333H36.6666H38.9999H41.3333H43.6666H45.9999V36.1668V33.8335V31.5002V29.1668V26.8335V24.5002V22.1668V19.8335V17.5002V15.1668H43.6666H41.3333H38.9999H36.6666H34.3333H31.9999H29.6666H27.3333H24.9999H22.6666H20.3333H17.9999H15.6666H13.3333H10.9999H8.66659V17.5002V19.8335V22.1668V24.5002V26.8335V29.1668V31.5002V33.8335V36.1668V38.5002H10.9999ZM22.6666 23.3335V21.0002H20.3333V18.6668H17.9999V21.0002V23.3335V25.6668V28.0002V30.3335V32.6668V35.0002H20.3333V32.6668H22.6666V30.3335H24.9999V28.0002H27.3333V25.6668H24.9999V23.3335H22.6666ZM34.3333 23.3335V21.0002H31.9999V18.6668H29.6666V21.0002V23.3335V25.6668V28.0002V30.3335V32.6668V35.0002H31.9999V32.6668H34.3333V30.3335H36.6666V28.0002H38.9999V25.6668H36.6666V23.3335H34.3333Z" fill="#1A1A1A"></path></svg> 